<?xml version="1.0" encoding="utf-8"?>
<!-- Generator: Adobe Illustrator 15.0.2, SVG Export Plug-In . SVG Version: 6.00 Build 0)  -->
<!DOCTYPE svg PUBLIC "-//W3C//DTD SVG 1.1//EN" "http://www.w3.org/Graphics/SVG/1.1/DTD/svg11.dtd">
<svg version="1.1" id="Layer_1" xmlns="http://www.w3.org/2000/svg" xmlns:xlink="http://www.w3.org/1999/xlink" x="0px" y="0px"
	 width="26.527px" height="600.558px" viewBox="-0.158 -23.101 26.527 600.558"
	 enable-background="new -0.158 -23.101 26.527 600.558" xml:space="preserve">
<path fill="#231F20" d="M21.806,217c0,5.475,1.368,11.863,1.825,17.338c0,7.3-1.369,15.057-0.913,22.357
	c0,7.757,2.738,14.145,3.194,21.445c0.456,12.319-4.106,26.008-4.106,38.326c0,15.059,3.65,29.658,3.193,45.172
	c0,7.756-2.281,15.514-2.281,24.184c-1.368,21.443,0,47.451,0.456,69.354c0.457,19.162,4.562,36.957-1.824,53.84
	c2.737,8.213,2.281,23.271,5.02,31.482c-0.912,8.67-3.65,13.232-5.02,20.988c1.824,10.496-6.389,6.389-12.775,15.971
	c-10.495-10.951-7.302-7.758-7.758-19.164c-0.913-18.25,2.281-40.607,2.281-62.51c0.457-16.426-1.369-33.309-0.913-46.996
	c0.457-11.863,3.194-23.27,3.194-34.676c0-11.408-2.737-22.357-3.194-32.854c-1.369-49.277,2.281-96.273,2.281-146.919
	c1.369-4.106-0.912-5.019-1.825-6.844c-3.194-10.494-1.369-29.201,0-40.152c-4.562-14.145-2.282-34.677-1.825-60.685
	c0.456-13.232,1.369-28.289,1.825-41.521c0.457-29.2-1.824-60.683-1.824-88.516c0-13.688,8.213-27.833,18.25-14.145
	C29.106,48.635,20.437,180.954,21.806,217"/>
</svg>
