<svg xmlns="http://www.w3.org/2000/svg" width="26.527" height="600.558" viewBox="-0.158 -23.101 26.527 600.558"><path fill="#231F20" d="M21.8 217c0 5.47 1.37 11.86 1.83 17.34 0 7.3-1.37 15.05-.9 22.35 0 7.75 2.73 14.14 3.18 21.44.47 12.32-4.1 26-4.1 38.33 0 15.06 3.66 29.65 3.2 45.17 0 7.75-2.28 15.5-2.28 24.18-1.37 21.45 0 47.45.45 69.36.46 19.16 4.57 36.95-1.82 53.84 2.74 8.2 2.28 23.27 5.02 31.48-.9 8.67-3.65 13.23-5.02 21 1.82 10.48-6.4 6.38-12.78 15.96-10.5-10.95-7.3-7.76-7.75-19.17-.92-18.26 2.28-40.6 2.28-62.52.46-16.42-1.37-33.3-.9-47 .44-11.86 3.18-23.26 3.18-34.67 0-11.4-2.74-22.34-3.2-32.84C.8 331.98 4.46 285 4.46 234.34c1.37-4.1-.9-5.02-1.82-6.84-3.2-10.5-1.37-29.2 0-40.16C-1.92 173.2.36 152.67.82 126.66c.45-13.23 1.37-28.3 1.82-41.52C3.1 55.94.82 24.44.82-3.38c0-13.7 8.2-27.83 18.25-14.14C29.1 48.64 20.44 180.94 21.8 217"/></svg>