<svg xmlns="http://www.w3.org/2000/svg" viewBox="0 0 152.3 104.4"><path fill="#D6D1BA" d="M21.9 1.2l.3.8.4 1.6 6.3.3.4.3.2 9.9.3 16.1-.3 9.1.4 8.5L29 54l.4 2.8-1.4 2.8-2.2 1.2-1.7 1.3-.8 1.3.4.3.8.7.6-.6 2.5.5 7.1-2.3 1.9-1.4 2.6-2.4 2.3-3.4 1.2-.8.8-2 .1-2.6 1.2-4.7.1-11.4-.1-3.7.3-14.5.1-10.4.1-1.4 2.1-.2 4.8.5-.1-1.2-.6-1.4-.4.2-.1.1-5.9-.2-9.7-.4-9.7-.1-3.8.6zM5.7 35.1l-1.4 1.5-.9 1.7-1.1.5-.1.3-1.4 1.4L0 44l.3 4.7.2 1.4.9 3.2.8 1.5L6 58.4 8.3 60l.7 1h1.3l2.5 1.2 2.6 2 2.4-.3.6-.3.4-.7-.7-.8-2.4-1.4-5.5-5.2-1.4-3.2.3-1.3 2.7.6 1.5-.1 1.9-.6 1.2-.7 2.1-2.2 2-3.8-.5-3.5-1.9-4.3-2.1-1.6-2.4.1-4.6-.2H7.2l-1.5.4zM67.6 0l-.3 1.3h.7l.4.2-.8 1v.1l-.2-.3h-.1l.9 1.1.2-.2h1.3l-.5-.5-.2-.8 1 .1-.6-.4v-.1L67.6 0zm9.7.7l-1 .1.7.4-.5.2-.8.6.2-1.2h-.3L72.7.6l-1.3.9-.3-.8-.6-.1.2.7.3.5.5-.1.1.2-.8 1.2-.3.1 4.8.1.8.6.1 2.5.5 1.4.5.6.6 1.5-.2 1.5v.2l1.2 1.6.4.6.5 1 .2 1.4.2 1.6 2 3.4-1 .2v.4l.4.9 2.1 4.6.1 1-.2-.3-.5-.5-.3.7.8.4.8-.1.3 1.3.5 2.1 1.3 1.2-.6 2.1 1.5 1 .7 4.3 1.9 3.7 1.1 2.7-1 .6.4.2h.6l1.7 5 .6.9 2 6.4.7 1.6 1 .8v.9l.7.6 1-2.5 2-6.6.7-1.9 2.5-7 .4-1.6.2-1.3 1.3-2.9-.4-.4-2.1-4 .4-2.5-2.2-3.1.3-1.2-1.5-3.2-2.4-5.8-.8-2.3L97 16l-1.6-3-.8-1.3-.5-4.3-.8-.6-.6-.8-.6-2.4-1.4-2.1-.2-.7-1.8.4-2.1-.7L85 1.8l.1-.4-.7-.7-4.8.1-.4-.6-1.9.5zm-5.4.6l1.5-.6 1.1.8-1.3.2-.6.2-.7-.6zm4-.5h.4l-.4-.2v.2zm-5.2.7v-.1l-.3-.4.3.5zm67.5.7l-.5-.2-.3.4.1-.5-.3-.4-.5.3h-.3l.2.2.5-.1V2l-.2 1.3.6-.1.4-.1h.5l.4-.7-.1-.4-.9-.7.4.9zm-20.6.2v.2h-.1l-.6.4-2.5 7.7-.5 1.3-.3 1.2-3.2 7.5-1.1 2.3-.8 1.6-.6 1V28l.5.5.8 1v-.7l2-5 4.9-10.2.5-1-.1 1.9.6 1.2-.4 1.1.2.5-.7 9.2.9.9-.7 9.2.4 9.2-.5 7.3-.2 2 .8 1.2-.5 1.5v2.8l-2 1.3-2.8-1-1.5 1-.7 1.4h.8l5.6-.4 1 .6.2.6 4.2-.6.4.1 8.5-.7 4.5.9 1.8-1 1 .4.3-.1v-1.3l-1.7.1-.9.2-.6.8h-1l.2-.4.4-1.3-.9-.3-.1.5-1.2-.4-.1-5.7.5-3.1-.8-.6.6-1.7v-5.1l-.5-2.8-.3-14.3 1.3-9.1-.9-3.8.3-1.6-.3-6.6-.1-2.3 1.8-.8-1-1 1.1-.2-1.7-.1.3.2-1.1.1 1 .7.1.5-.6-.2-2 .2.2-.2.2-.1.6-1.1-.4-.4-.1.6-1.1-.7h-.2l-1-.2-.2.6-.4 1.2-.5-1.1-.1-.7h-.7l-.3.8-.7-.4-.1.2-.2.8-.5-.4-1-.2-2.6-.6-2.3-.4-.5 1zm1.1-.1l.9-.3.3.7v.1l-.9-.5h-.3zm14.9 0h.2-.2zm.9 1.2l1.7-.1h.5l-.3-.7-1.9.3-.2-.6h-.4l.6 1.1zm-64.7-.2l.7-.1h-.8l.1.1zm66.9 0l.1.2v-.2h-.1zm-64 16.1l1 1.5.4 12.4-.4 12.4-.2.6.4.2-.4 2.5.8 3-.2 3.6.2.5.2 1.2-1.4 2.3-2.5 1.1-3.6.9.3.8-.1.6h.2l13.3.4 3.3.4v-1.6l-.4-.4-.7-1.2-.3.4-.6-.1-3-.5-2-1.7.1-.6.3-.5-.5-.4-.3-5.4-.3-5.4.3-2.5.2-10.5-.9-10.5-.5-2.1-1.6-1.8-1.1.4zm9 5.8l.5.6v-1.2l-.5.6zM67.1 63.1V63l-.9-.2.9.3zM48.6 63v-1.2s-.3-1.1-.2-2.1c.1-1 .8-2.4.7-2.9-.1-.5-1-6.8-.4-6.9.6-.1 5.1 0 6 .2.9.2 3.5-.6 3.6-.2.1.4-.1 1-.1 1l.1 2.9-.3 4.5v4.3s.1.1-.4.5c-.4.3-9-.1-9-.1M141.5 63.1l-.2-.8V58s-.5-2.7 0-3.4c.5-.7-.1-1.9 0-2 .1-.1 0-1 0-1h1.5s2.4-.2 3.3 0c.9.2 2.3.2 2.3.2s2.2-.1 2.6-.2c.4 0 0 .3 0 .3l-.2 5 .3 4.6-.1 1.6-.8.2s-2.1-.1-3.1 0-3.8 0-3.8 0l-1.8-.2zM144.2 88.4c-2-.5-5-1.1-5.4-2.7-.3-1.5.8-2.5 1.9-2.7 3.4-.5 6.4 1.5 7.9 2.5.8-.8 1-2.1 1.8-2.9.4-.5 1.2-.5 1.3-1.2-1.1-.9-2.6-2-4-2.7-1.4-.7-2.3-.6-4.2-.9-1-.1-2.1-.4-3.1-.3-.6.1-1.4.2-2.3.6-1 .4-1.5.8-2.4 1.6-.9.8-1.5 1.2-1.9 2-1.2 2.5-.7 7.4.6 9.1 1.4 1.7 4.1 1.7 6.4 2.7.7.3 1.5.9 2.3 1.2 1.3.6 3.2.9 3.4 2 .4 2-3.1 2.4-5.1 2.2-2.3-.2-4.2-1.9-5.8-2.9-1.1 1.5-2.9 2.3-3.5 4.2 1.5 1.8 3.7 2.5 6.4 3.1 2.3.6 4.1 1.5 6.9.9 3.8-.9 6.5-3.4 6.9-7.1.5-6-3.9-7.5-8.1-8.7M54 79c-1.6-.2-2.8-1-4.4-1.2-1.6-.2-4.1-.1-5.6.2-2.3.5-6.7 3.3-7.8 5.3-1.2 2.1-2.6 5.1-2.8 7.3-.3 3.9 1.4 5.6 2.5 7.8.6 1.3.6 1.2 1.7 1.9.3.2.6.5.9.8 1.2.9 2.3 1.1 3.5 1.8.5.2.7.6 1.1.8 1.7.6 4.9.7 6.8.6 1.7-.1 3.5-1.3 4.6-1.9 1.9-1.1 3.1-1.7 4.2-3.8.6-1.2 1.6-2.8 1.9-4 .9-3.6 0-7.2-.6-9.8-1.7-2.4-4-3.9-6-5.8m-.2 15.9c-.5.9-1.8 2.5-2.5 2.9-1.6 1-4.9 1.4-6.7.6-.8-.4-3-2.4-3.5-3.4-.4-.8-.3-1.7-1.1-2.5-.2-2.8.4-4.6 1.6-6.1.4-.5.7-1.1 1-1.5 3.1-2.7 8.8-2.1 10.6 1.2 1 2 2 6.3.6 8.8M11.2 98.4c-.3-6.6-.1-13.8.2-20-1.7-.2-4.5-.4-5.9-.1-.5 1-.2 3.8-.1 5.6.2 6.8-.2 14.4-.1 19.7 5.9.5 12.4-.2 18.3.1 0-1.6.7-3.6.1-5.1-3.9-.1-8.3-.3-12.5-.2M72.1 78.3c-.6 1.5-.3 3.4-.1 5.3.5 6.4-.8 14-.1 20.1 1.6.5 4 .1 5.8 0 .3-3.2.3-6.7-.1-9.7 4.2.1 8.2 0 12.1 0 .3-1.5.4-3.8 0-5.1-4-.1-8.5-.3-12.1-.1.1-1.7-.3-3.8.2-5.1 4.8-.2 9.2.5 13.5-.1.2-1.4.2-3.6 0-5-6.3-.4-13.1-.3-19.2-.3M102.8 78.3c-.5 1.5-.5 3.6-.2 5.4 2.2.7 5.4.1 7.6.2-.1 5.9 0 13.6-.4 19.7 1.7.2 3.4.3 6.1.2.1-6.6.2-13.3.2-19.9 2.3-.4 5 .3 7.3-.1.6-1.4.2-4.1.2-5.4-6.5-.3-13.8.2-20.8-.1"/></svg>