<?xml version="1.0" encoding="utf-8"?>
<!-- Generator: Adobe Illustrator 15.0.2, SVG Export Plug-In . SVG Version: 6.00 Build 0)  -->
<!DOCTYPE svg PUBLIC "-//W3C//DTD SVG 1.1//EN" "http://www.w3.org/Graphics/SVG/1.1/DTD/svg11.dtd">
<svg version="1.1" id="Layer_1" xmlns="http://www.w3.org/2000/svg" xmlns:xlink="http://www.w3.org/1999/xlink" x="0px" y="0px"
	 width="800px" height="600px" viewBox="0 0 800 600" enable-background="new 0 0 800 600" xml:space="preserve">
<path fill="#F4EEE5" d="M115.036,32.107l1.576,4.203l2.101,8.404l33.093,1.576l2.101,1.576l1.051,52.002l1.576,84.57l-1.576,47.801
	l2.101,44.648l-4.728,32.567l2.101,14.708l-7.354,14.708l-11.556,6.303l-8.93,6.829l-4.202,6.828l2.101,1.576l4.202,3.677
	l3.152-3.151l13.132,2.626l37.295-12.081l9.98-7.354l13.657-12.606l12.082-17.859l6.303-4.202l4.203-10.506l0.525-13.657
	l6.304-24.688l0.525-59.882l-0.525-19.435l1.576-76.166l0.525-54.629l0.525-7.354l11.031-1.051l25.213,2.626l-0.525-6.303
	l-3.152-7.354l-2.101,1.05l-0.525,0.525l-30.991-1.05l-50.952-2.101l-50.952-0.525L115.036,32.107L115.036,32.107z M29.941,210.177
	l-7.354,7.879l-4.728,8.93l-5.778,2.626l-0.525,1.576l-7.354,7.354L0,256.927l1.576,24.688l1.051,7.354l4.728,16.809l4.202,7.879
	l19.96,18.91l12.082,8.404l3.677,5.253h6.829l13.132,6.304l13.657,10.505l12.606-1.575l3.152-1.576l2.101-3.677l-3.677-4.202
	l-12.607-7.354l-28.89-27.314l-7.354-16.809l1.576-6.829l14.183,3.151l7.879-0.525l9.98-3.152l6.304-3.677l11.031-11.556
	l10.505-19.961l-2.626-18.385l-9.98-22.587l-11.031-8.404l-12.606,0.525l-24.163-1.051H37.82L29.941,210.177z M355.089,25.804
	l-1.576,6.829h3.677l2.102,1.051l-4.203,5.253v0.525l-1.05-1.576h-0.525l4.728,5.778l1.051-1.051h6.829l-2.626-2.626l-1.051-4.202
	l5.253,0.525l-3.152-2.101v-0.525L355.089,25.804z M406.041,29.481l-5.253,0.525l3.677,2.101l-2.626,1.051l-4.203,3.152l1.051-6.304
	h-1.575l-15.233-1.05l-6.829,4.728l-1.576-4.202l-3.151-0.525l1.05,3.677l1.576,2.626l2.626-0.525l0.525,1.051l-4.202,6.303
	l-1.576,0.525l25.213,0.525l4.202,3.151l0.525,13.132l2.626,7.354l2.627,3.152l3.151,7.879l-1.051,7.879v1.051l6.304,8.404
	l2.101,3.152l2.627,5.252l1.051,7.354l1.05,8.405l10.506,17.859l-5.253,1.05v2.101l2.102,4.728l11.03,24.163l0.525,5.253
	l-1.051-1.576l-2.626-2.626l-1.576,3.677l4.202,2.101l4.203-0.525l1.575,6.829l2.627,11.031l6.828,6.304l-3.151,11.031l7.879,5.252
	l3.677,22.587l9.98,19.435l5.778,14.183l-5.253,3.152l2.102,1.05h3.151l8.93,26.265l3.151,4.727l10.506,33.618l3.677,8.404
	l5.253,4.202v4.728l3.677,3.152l5.253-13.133l10.506-34.668l3.677-9.98l13.132-36.77l2.102-8.404l1.05-6.829l6.829-15.233
	l-2.102-2.102l-11.03-21.011l2.101-13.132l-11.556-16.284l1.576-6.303l-7.88-16.809l-12.606-30.466l-4.202-12.082l-0.525-8.404
	l-8.404-15.758l-4.202-6.829l-2.627-22.587l-4.202-3.151l-3.151-4.202l-3.151-12.607l-7.354-11.031l-1.05-3.677l-9.455,2.101
	l-11.031-3.677l-8.404,6.829l0.525-2.101l-3.677-3.677l-25.214,0.525l-2.101-3.151L406.041,29.481z M377.676,32.633l7.879-3.151
	l5.778,4.202l-6.829,1.05l-3.152,1.051L377.676,32.633z M398.687,30.006h2.102l-2.102-1.05V30.006z M371.372,33.684v-0.525
	l-1.576-2.101L371.372,33.684z M725.936,37.36l-2.626-1.05l-1.576,2.101l0.525-2.626l-1.576-2.101l-2.626,1.576h-1.576l1.051,1.051
	l2.626-0.525v0.525l-1.05,6.829l3.151-0.525l2.101-0.525h2.627l2.101-3.677l-0.525-2.101l-4.728-3.677L725.936,37.36L725.936,37.36z
	 M617.729,38.411v1.05h-0.525l-3.152,2.101l-13.132,40.447l-2.626,6.829l-1.576,6.303l-16.809,39.396l-5.778,12.082l-4.202,8.404
	l-3.151,5.253v12.606l2.626,2.626l4.202,5.253v-3.677l10.506-26.264l25.738-53.579l2.627-5.253l-0.525,9.98l3.151,6.303
	l-2.101,5.778l1.05,2.626l-3.677,48.326l4.728,4.728l-3.677,48.326l2.102,48.326l-2.627,38.345l-1.051,10.506l4.202,6.303
	l-2.626,7.88v14.707l-10.506,6.829l-14.707-5.253l-7.88,5.253l-3.677,7.354h4.202l29.416-2.101l5.253,3.151l1.05,3.151l22.062-3.151
	l2.101,0.525l44.648-3.677l23.638,4.728l9.455-5.253l5.253,2.101l1.576-0.524v-6.829l-8.93,0.525l-4.728,1.051l-3.152,4.202h-5.252
	l1.05-2.102l2.102-6.828l-4.728-1.576l-0.525,2.626l-6.304-2.101l-0.525-29.941L694.944,300l-4.202-3.152l3.151-8.93v-26.789
	l-2.626-14.708l-1.576-75.115l6.828-47.8l-4.727-19.96l1.575-8.405l-1.575-34.668l-0.525-12.081l9.455-4.203l-5.253-5.252
	l5.778-1.051l-8.93-0.525l1.575,1.051l-5.778,0.525l5.253,3.677l0.525,2.626l-3.151-1.051l-10.506,1.051l1.051-1.051l1.051-0.525
	l3.151-5.778l-2.102-2.101l-0.524,3.152l-5.778-3.677h-1.051l-5.253-1.05l-1.051,3.151l-2.101,6.304l-2.627-5.778l-0.524-3.677
	h-3.678l-1.575,4.202l-3.677-2.101l-0.525,1.05l-1.051,4.202l-2.627-2.101l-5.252-1.05l-13.657-3.152l-12.082-2.101L617.729,38.411
	L617.729,38.411z M623.506,37.886l4.728-1.576l1.576,3.677v0.525l-4.728-2.626H623.506z M701.772,37.886h1.051H701.772z
	 M706.5,44.189l8.93-0.525h2.627l-1.576-3.677l-9.98,1.576l-1.051-3.151h-2.101L706.5,44.189L706.5,44.189z M366.645,43.139
	l3.677-0.525h-4.203L366.645,43.139L366.645,43.139z M718.057,43.139l0.525,1.05v-1.05H718.057z M381.878,127.708l5.252,7.879
	l2.101,65.134l-2.101,65.135l-1.05,3.152l2.101,1.05l-2.101,13.132l4.202,15.758l-1.05,18.91l1.05,2.627l1.051,6.303l-7.354,12.082
	l-13.132,5.777l-18.91,4.728l1.576,4.202l-0.525,3.152h1.051l69.862,2.101l17.334,2.102v-8.404l-2.102-2.102l-3.677-6.304
	l-1.575,2.102l-3.152-0.525l-15.758-2.626l-10.506-8.93l0.525-3.152l1.576-2.626l-2.627-2.102l-1.576-28.365l-1.575-28.365
	l1.575-13.132l1.051-55.154l-4.728-55.154l-2.626-11.031l-8.405-9.455L381.878,127.708L381.878,127.708z M429.153,158.175
	l2.626,3.151v-6.303L429.153,158.175z M352.462,357.256v-0.525l-4.728-1.051L352.462,357.256z M255.286,356.73v-6.304
	c0,0-1.576-5.778-1.051-11.031c0.525-5.252,4.203-12.606,3.677-15.232c-0.525-2.627-5.253-35.719-2.101-36.245
	c3.151-0.525,26.789,0,31.517,1.051c4.728,1.05,18.385-3.152,18.91-1.051c0.525,2.101-0.525,5.253-0.525,5.253l0.525,15.233
	l-1.576,23.638v22.587c0,0,0.525,0.525-2.101,2.627C300.459,358.831,255.286,356.73,255.286,356.73 M743.27,357.256l-1.05-4.203
	v-22.587c0,0-2.627-14.183,0-17.859c2.626-3.677-0.525-9.979,0-10.505c0.524-0.525,0-5.253,0-5.253h7.879c0,0,12.606-1.05,17.334,0
	c4.728,1.051,12.081,1.051,12.081,1.051s11.557-0.525,13.658-1.051c2.101,0,0,1.576,0,1.576l-1.051,26.264l1.576,24.162
	l-0.525,8.405l-4.203,1.05c0,0-11.03-0.525-16.283,0s-19.961,0-19.961,0L743.27,357.256L743.27,357.256z M757.452,490.151
	c-10.505-2.627-26.264-5.778-28.365-14.183c-1.575-7.88,4.202-13.132,9.98-14.183c17.859-2.627,33.618,7.879,41.497,13.132
	c4.202-4.202,5.253-11.031,9.455-15.233c2.102-2.626,6.304-2.626,6.829-6.303c-5.778-4.728-13.657-10.506-21.012-14.183
	c-7.354-3.677-12.081-3.152-22.062-4.728c-5.253-0.525-11.031-2.102-16.283-1.576c-3.152,0.525-7.354,1.051-12.082,3.151
	c-5.253,2.102-7.879,4.203-12.606,8.405s-7.879,6.303-9.98,10.505c-6.304,13.132-3.677,38.871,3.151,47.801
	c7.354,8.93,21.537,8.93,33.618,14.183c3.677,1.575,7.879,4.728,12.081,6.303c6.829,3.152,16.81,4.728,17.86,10.506
	c2.101,10.506-16.284,12.606-26.79,11.557c-12.081-1.051-22.062-9.98-30.466-15.233c-5.778,7.879-15.233,12.081-18.385,22.062
	c7.879,9.455,19.436,13.132,33.618,16.284c12.081,3.151,21.536,7.879,36.244,4.727c19.96-4.727,34.143-17.859,36.244-37.294
	C802.626,504.334,779.514,496.454,757.452,490.151 M283.651,440.774c-8.405-1.05-14.708-5.253-23.112-6.303
	c-8.405-1.051-21.537-0.525-29.416,1.05c-12.081,2.627-35.193,17.335-40.972,27.84c-6.303,11.031-13.657,26.79-14.708,38.346
	c-1.576,20.486,7.354,29.416,13.132,40.972c3.152,6.829,3.152,6.304,8.93,9.98c1.576,1.051,3.152,2.626,4.728,4.202
	c6.303,4.728,12.082,5.778,18.385,9.455c2.626,1.051,3.677,3.151,5.778,4.202c8.93,3.152,25.738,3.677,35.719,3.152
	c8.93-0.525,18.385-6.829,24.163-9.98c9.98-5.778,16.284-8.93,22.062-19.961c3.151-6.304,8.404-14.708,9.98-21.011
	c4.728-18.91,0-37.82-3.152-51.478C306.238,458.635,294.156,450.755,283.651,440.774 M282.6,524.294
	c-2.626,4.728-9.455,13.132-13.132,15.233c-8.405,5.253-25.739,7.354-35.194,3.151c-4.202-2.101-15.758-12.606-18.385-17.859
	c-2.101-4.202-1.576-8.93-5.778-13.132c-1.051-14.708,2.101-24.163,8.404-32.042c2.101-2.626,3.677-5.778,5.253-7.879
	c16.284-14.183,46.225-11.031,55.679,6.303C284.701,488.575,289.954,511.162,282.6,524.294 M58.831,542.679
	c-1.576-34.668-0.525-72.488,1.051-105.056c-8.93-1.051-23.638-2.102-30.992-0.525c-2.626,5.253-1.05,19.961-0.525,29.416
	c1.05,35.719-1.051,75.64-0.525,103.479c30.991,2.627,65.135-1.05,96.126,0.525c0-8.404,3.677-18.91,0.525-26.789
	C104.005,543.204,80.893,542.153,58.831,542.679 M378.726,437.098c-3.151,7.879-1.576,17.859-0.525,27.84
	c2.626,33.618-4.203,73.539-0.525,105.581c8.404,2.627,21.011,0.525,30.466,0c1.576-16.809,1.576-35.193-0.525-50.952
	c22.062,0.525,43.073,0,63.56,0c1.575-7.879,2.101-19.96,0-26.789c-21.012-0.525-44.649-1.576-63.56-0.525
	c0.525-8.93-1.575-19.96,1.051-26.789c25.214-1.051,48.326,2.627,70.913-0.525c1.05-7.354,1.05-18.91,0-26.264
	C446.487,436.572,410.769,437.098,378.726,437.098 M539.987,437.098c-2.627,7.879-2.627,18.91-1.051,28.365
	c11.556,3.677,28.365,0.525,39.921,1.051c-0.525,30.991,0,71.438-2.101,103.479c8.93,1.051,17.859,1.576,32.042,1.051
	c0.524-34.668,1.05-69.862,1.05-104.53c12.082-2.102,26.265,1.575,38.346-0.525c3.151-7.354,1.051-21.536,1.051-28.365
	C615.102,436.047,576.756,438.674,539.987,437.098"/>
</svg>
