<?xml version="1.0" encoding="utf-8"?>
<!-- Generator: Adobe Illustrator 15.0.2, SVG Export Plug-In . SVG Version: 6.00 Build 0)  -->
<!DOCTYPE svg PUBLIC "-//W3C//DTD SVG 1.1//EN" "http://www.w3.org/Graphics/SVG/1.1/DTD/svg11.dtd">
<svg version="1.1" xmlns="http://www.w3.org/2000/svg" xmlns:xlink="http://www.w3.org/1999/xlink" x="0px" y="0px" width="600px"
	 height="600px" viewBox="100 0 600 600" enable-background="new 100 0 600 600" xml:space="preserve">
<g id="Layer_2">
	<rect x="100" y="0" fill="#D6D1BA" width="600" height="600"/>
	<rect x="-371.51" y="-54.074" display="none" fill="#E5E1D1" width="281.229" height="281.229"/>
</g>
<g id="Layer_1">
	<g>
		<path fill="#E5E1D1" d="M221.879,132.614l0.985,2.626l1.312,5.25l20.677,0.985l1.313,0.984l0.656,32.494l0.984,52.842
			l-0.984,29.868l1.313,27.898l-2.954,20.348l1.312,9.191l-4.595,9.19l-7.221,3.938l-5.58,4.268l-2.625,4.266l1.312,0.984
			l2.626,2.298l1.969-1.969l8.206,1.641l23.304-7.547l6.236-4.596l8.534-7.877l7.548-11.16l3.938-2.627l2.626-6.564l0.328-8.532
			l3.939-15.427l0.327-37.416l-0.327-12.144l0.984-47.591l0.328-34.134l0.328-4.595l6.893-0.657l15.754,1.641L321,136.553
			l-1.969-4.596l-1.314,0.657l-0.327,0.329l-19.364-0.657l-31.837-1.312l-31.837-0.329L221.879,132.614z M168.708,243.879
			l-4.595,4.923l-2.954,5.58l-3.61,1.641l-0.329,0.984l-4.596,4.595L150,273.09l0.984,15.426l0.657,4.595l2.954,10.502l2.626,4.924
			l12.472,11.815l7.549,5.25l2.297,3.285h4.267l8.206,3.938l8.533,6.564l7.877-0.985l1.969-0.984l1.312-2.299l-2.297-2.624
			l-7.877-4.595l-18.052-17.069l-4.594-10.5l0.984-4.268l8.862,1.969l4.923-0.327l6.236-1.97l3.938-2.297l6.892-7.221l6.565-12.473
			l-1.641-11.487l-6.236-14.113l-6.893-5.251l-7.876,0.329l-15.099-0.657h-5.908L168.708,243.879z"/>
		<path fill="#E5E1D1" d="M371.873,128.675l-0.984,4.267h2.297l1.313,0.656l-2.626,3.282v0.328l-0.656-0.985h-0.328l2.953,3.61
			l0.657-0.656h4.268l-1.642-1.642l-0.656-2.625l3.281,0.329l-1.969-1.313v-0.329L371.873,128.675z M403.71,130.973l-3.282,0.328
			l2.298,1.313l-1.641,0.656l-2.626,1.97l0.656-3.939h-0.984l-9.519-0.656l-4.267,2.954l-0.984-2.625l-1.97-0.329l0.656,2.298
			l0.985,1.641l1.641-0.329l0.328,0.656l-2.625,3.938l-0.985,0.329l15.755,0.328l2.625,1.969l0.329,8.206l1.64,4.595l1.643,1.969
			l1.969,4.923l-0.656,4.923v0.657l3.938,5.251l1.314,1.969l1.641,3.282l0.656,4.595l0.656,5.252l6.564,11.159l-3.283,0.656v1.312
			l1.314,2.954l6.892,15.098l0.329,3.283l-0.657-0.985l-1.642-1.641l-0.983,2.298l2.625,1.313l2.626-0.328l0.984,4.267l1.643,6.892
			l4.266,3.939l-1.969,6.893l4.923,3.281l2.298,14.114l6.235,12.144l3.61,8.862l-3.282,1.97l1.313,0.656h1.969l5.58,16.411
			l1.968,2.953l6.565,21.005l2.298,5.253l3.281,2.626v2.953l2.298,1.97l3.282-8.206l6.565-21.661l2.297-6.237l8.205-22.974
			l1.312-5.251l0.658-4.267l4.265-9.519l-1.312-1.313l-6.895-13.128l1.313-8.206l-7.219-10.175l0.982-3.938l-4.923-10.503
			l-7.878-19.036l-2.624-7.549l-0.329-5.251l-5.252-9.846l-2.625-4.267l-1.642-14.113l-2.626-1.969l-1.968-2.625l-1.97-7.877
			l-4.595-6.892l-0.656-2.298l-5.908,1.313l-6.893-2.298l-5.251,4.268l0.329-1.313l-2.299-2.297l-15.755,0.328l-1.312-1.969
			L403.71,130.973z M385.986,132.942l4.924-1.969l3.609,2.625l-4.266,0.656l-1.97,0.656L385.986,132.942z M399.115,131.301h0.656
			h0.656l-1.312-0.656V131.301z M382.048,133.599v-0.329l-0.984-1.313L382.048,133.599z M603.594,135.896l-1.641-0.656l-0.985,1.312
			l0.327-1.642l-0.984-1.312l-1.64,0.985h-0.985l0.656,0.657l1.641-0.329v0.329l-0.655,4.266l1.968-0.328l1.313-0.329h1.642
			l1.313-2.297l-0.328-1.312l-2.954-2.298L603.594,135.896z M535.981,136.553v0.656h-0.328l-1.969,1.312l-8.205,25.273l-1.642,4.267
			L522.853,172l-10.502,24.616l-3.612,7.549l-2.624,5.251l-1.97,3.282v7.877l1.641,1.642l2.625,3.282v-2.298l6.564-16.411
			l16.084-33.478l1.641-3.283l-0.328,6.237l1.969,3.938l-1.313,3.611l0.658,1.641l-2.299,30.196l2.954,2.954l-2.297,30.196
			l1.313,30.196l-1.644,23.96l-0.654,6.564l2.626,3.938l-1.642,4.924v9.19l-6.563,4.266l-9.191-3.282l-4.923,3.282l-2.298,4.595
			h2.626l18.38-1.313l3.283,1.972l0.655,1.969l13.785-1.969l1.313,0.327l27.896-2.299l14.77,2.955l5.909-3.282l3.282,1.313
			l0.985-0.328v-4.268l-5.581,0.328l-2.954,0.657l-1.969,2.624h-3.282l0.656-1.312l1.313-4.266l-2.953-0.985l-0.33,1.641
			l-3.938-1.311l-0.328-18.709l1.642-10.174l-2.627-1.971l1.969-5.579v-16.739l-1.641-9.19l-0.983-46.935l4.266-29.867
			l-2.953-12.472l0.984-5.251l-0.984-21.663l-0.329-7.549l5.908-2.626l-3.281-3.281l3.609-0.657l-5.579-0.328l0.983,0.657
			l-3.609,0.328l3.282,2.297l0.327,1.641l-1.969-0.657l-6.563,0.657l0.655-0.657l0.658-0.328l1.968-3.61l-1.313-1.313l-0.327,1.97
			l-3.61-2.297h-0.657l-3.281-0.656l-0.657,1.969l-1.312,3.938l-1.641-3.61l-0.328-2.297h-2.3l-0.982,2.625l-2.299-1.312
			l-0.326,0.656l-0.657,2.625l-1.641-1.312l-3.283-0.656l-8.533-1.969l-7.549-1.313L535.981,136.553z M539.59,136.224l2.955-0.984
			l0.985,2.296v0.329l-2.954-1.641H539.59L539.59,136.224z M588.495,136.224h0.657l0,0H588.495z M591.449,140.162l5.58-0.328h1.642
			l-0.985-2.298l-6.236,0.985l-0.655-1.969h-1.313L591.449,140.162z M379.094,139.506l2.298-0.328h-2.625L379.094,139.506z
			 M598.671,139.506l0.328,0.656v-0.656H598.671z M388.612,192.349l3.282,4.923l1.312,40.699l-1.312,40.698l-0.656,1.969
			l1.312,0.657l-1.312,8.205l2.625,9.846l-0.656,11.817l0.656,1.642l0.656,3.938l-4.594,7.55l-8.205,3.61l-11.816,2.953l0.984,2.626
			l-0.328,1.97h0.656l43.653,1.312l10.831,1.313v-5.251l-1.313-1.313l-2.298-3.938l-0.983,1.313l-1.971-0.33l-9.846-1.642
			l-6.564-5.579l0.328-1.968l0.985-1.642l-1.643-1.313l-0.984-17.723l-0.984-17.724l0.984-8.205l0.656-34.463l-2.953-34.462
			l-1.641-6.893l-5.252-5.908L388.612,192.349z M418.152,211.385l1.641,1.97v-3.939L418.152,211.385z M370.232,335.779v-0.328
			l-2.954-0.657L370.232,335.779z"/>
		<path fill="#E5E1D1" d="M309.513,335.451v-3.939c0,0-0.985-3.609-0.657-6.892c0.329-3.283,2.627-7.878,2.299-9.519
			c-0.329-1.642-3.283-22.32-1.313-22.647c1.97-0.328,16.739,0,19.692,0.656c2.955,0.657,11.488-1.97,11.816-0.656
			s-0.328,3.282-0.328,3.282l0.328,9.518l-0.984,14.77v14.114c0,0,0.328,0.327-1.313,1.641
			C337.739,336.763,309.513,335.451,309.513,335.451"/>
		<path fill="#E5E1D1" d="M614.425,335.779l-0.657-2.626v-14.114c0,0-1.641-8.86,0-11.158c1.642-2.298-0.326-6.236,0-6.563
			c0.329-0.33,0-3.284,0-3.284h4.925c0,0,7.877-0.656,10.829,0c2.955,0.657,7.549,0.657,7.549,0.657s7.223-0.328,8.534-0.657
			c1.312,0,0,0.985,0,0.985l-0.655,16.41l0.985,15.098l-0.33,5.253l-2.624,0.655c0,0-6.893-0.327-10.178,0
			c-3.281,0.328-12.47,0-12.47,0L614.425,335.779z"/>
		<path fill="#E5E1D1" d="M623.286,418.817c-6.563-1.643-16.41-3.611-17.723-8.862c-0.985-4.924,2.624-8.205,6.236-8.861
			c11.158-1.642,21.003,4.924,25.928,8.205c2.626-2.626,3.281-6.894,5.908-9.519c1.313-1.641,3.939-1.641,4.267-3.938
			c-3.609-2.954-8.532-6.566-13.128-8.863c-4.596-2.296-7.549-1.969-13.786-2.953c-3.282-0.328-6.892-1.313-10.174-0.984
			c-1.969,0.328-4.596,0.656-7.55,1.969c-3.282,1.313-4.923,2.627-7.875,5.251c-2.955,2.627-4.924,3.938-6.237,6.564
			c-3.939,8.205-2.299,24.289,1.969,29.867c4.596,5.581,13.457,5.581,21.006,8.862c2.298,0.984,4.924,2.955,7.548,3.938
			c4.269,1.972,10.504,2.954,11.16,6.564c1.312,6.564-10.175,7.877-16.738,7.222c-7.55-0.657-13.786-6.236-19.037-9.519
			c-3.61,4.923-9.519,7.548-11.488,13.784c4.924,5.908,12.146,8.205,21.007,10.177c7.549,1.968,13.455,4.923,22.647,2.951
			c12.47-2.951,21.333-11.158,22.646-23.303C651.513,427.679,637.07,422.756,623.286,418.817"/>
		<path fill="#E5E1D1" d="M327.236,387.966c-5.252-0.658-9.19-3.284-14.441-3.939c-5.252-0.656-13.457-0.328-18.381,0.655
			c-7.548,1.643-21.99,10.831-25.601,17.396c-3.938,6.895-8.534,16.74-9.189,23.961c-0.985,12.801,4.595,18.38,8.205,25.601
			c1.969,4.267,1.969,3.938,5.58,6.237c0.984,0.655,1.969,1.64,2.954,2.625c3.939,2.953,7.549,3.608,11.488,5.907
			c1.641,0.656,2.297,1.969,3.61,2.626c5.58,1.97,16.082,2.298,22.318,1.97c5.58-0.328,11.487-4.268,15.098-6.235
			c6.236-3.611,10.175-5.582,13.785-12.474c1.969-3.938,5.252-9.19,6.236-13.129c2.954-11.814,0-23.63-1.97-32.165
			C341.35,399.125,333.801,394.2,327.236,387.966 M326.58,440.152c-1.642,2.952-5.908,8.205-8.205,9.518
			c-5.252,3.282-16.083,4.593-21.991,1.969c-2.625-1.313-9.846-7.877-11.487-11.16c-1.313-2.626-0.985-5.579-3.611-8.204
			c-0.656-9.191,1.313-15.1,5.252-20.021c1.313-1.642,2.297-3.612,3.282-4.923c10.174-8.863,28.883-6.894,34.791,3.938
			C327.893,417.833,331.175,431.946,326.58,440.152"/>
		<path fill="#E5E1D1" d="M186.76,451.639c-0.984-21.663-0.328-45.294,0.656-65.645c-5.58-0.655-14.77-1.312-19.364-0.328
			c-1.641,3.283-0.656,12.474-0.328,18.382c0.656,22.318-0.657,47.262-0.328,64.657c19.364,1.642,40.699-0.655,60.063,0.329
			c0-5.252,2.298-11.816,0.328-16.739C214.987,451.967,200.545,451.31,186.76,451.639"/>
		<path fill="#E5E1D1" d="M386.643,385.666c-1.969,4.924-0.984,11.16-0.328,17.397c1.641,21.005-2.625,45.949-0.328,65.971
			c5.252,1.642,13.129,0.328,19.037,0c0.984-10.503,0.984-21.99-0.328-31.837c13.785,0.328,26.914,0,39.714,0
			c0.984-4.923,1.313-12.473,0-16.738c-13.128-0.33-27.897-0.985-39.714-0.33c0.328-5.579-0.985-12.471,0.656-16.738
			c15.755-0.655,30.195,1.641,44.309-0.327c0.656-4.596,0.656-11.816,0-16.411C428.983,385.339,406.664,385.666,386.643,385.666"/>
		<path fill="#E5E1D1" d="M487.405,385.666c-1.642,4.924-1.642,11.816-0.656,17.725c7.22,2.297,17.724,0.328,24.944,0.657
			c-0.328,19.363,0,44.637-1.312,64.657c5.58,0.657,11.158,0.985,20.021,0.657c0.329-21.663,0.657-43.652,0.657-65.314
			c7.549-1.312,16.41,0.983,23.959-0.329c1.97-4.594,0.656-13.457,0.656-17.725C534.34,385.011,510.381,386.652,487.405,385.666"/>
	</g>
</g>
</svg>
