<svg xmlns="http://www.w3.org/2000/svg" width="600" height="600" viewBox="100 0 600 600"><path fill="#D6D1BA" d="M100 0h600v600H100z"/><path fill="#E5E1D1" d="M221.88 132.6l.98 2.64 1.32 5.25 20.67.98 1.32.98.65 32.5 1 52.83-1 29.86 1.32 27.9-2.96 20.35 1.3 9.2-4.58 9.2-7.22 3.93-5.58 4.27-2.63 4.26 1.3 1 2.64 2.28 1.98-1.97 8.2 1.65 23.3-7.55 6.24-4.6 8.54-7.87 7.55-11.16 3.94-2.63 2.63-6.56.33-8.53 3.94-15.42.32-37.4-.32-12.16.98-47.6.33-34.12.33-4.6 6.9-.65 15.75 1.64-.33-3.95-1.97-4.6-1.3.66-.34.34-19.37-.66-31.84-1.3-31.85-.34-12.47 1.97zM168.7 243.9l-4.6 4.92-2.94 5.58-3.6 1.64-.34 1-4.6 4.58-2.62 11.5.98 15.42.66 4.6 2.96 10.5 2.62 4.92 12.48 11.8 7.55 5.26 2.3 3.3h4.26l8.2 3.93 8.55 6.56 7.87-1 1.97-.98 1.3-2.3-2.3-2.62-7.87-4.6-18.05-17.07-4.6-10.5 1-4.26 8.85 1.97 4.92-.33 6.24-1.96 3.93-2.3 6.9-7.22 6.55-12.47-1.64-11.5-6.23-14.1-6.9-5.26-7.86.32-15.1-.65h-5.9l-4.93 1.3zm203.17-115.2l-.98 4.26h2.3l1.3.66-2.63 3.28v.33l-.66-.98h-.3l2.94 3.6.66-.64h4.26l-1.64-1.64-.66-2.63 3.28.34-1.97-1.3v-.34l-5.9-4.92zm31.84 2.3l-3.27.32 2.3 1.32-1.64.65-2.64 1.97.65-3.94h-.97l-9.52-.65-4.26 2.95-.98-2.63-1.97-.33.65 2.3.98 1.64 1.64-.33.33.66-2.62 3.95-1 .33 15.77.33 2.62 1.98.33 8.2 1.64 4.6 1.65 1.97 1.96 4.92-.66 4.92v.65l3.94 5.25 1.3 1.97 1.65 3.28.65 4.6.65 5.25 6.57 11.16-3.28.66v1.3l1.3 2.96 6.9 15.1.32 3.28-.66-.98-1.64-1.64-.98 2.3 2.62 1.3 2.63-.32.97 4.27 1.65 6.88 4.26 3.94-1.97 6.9 4.94 3.27 2.3 14.1 6.23 12.15 3.6 8.86-3.27 1.98 1.3.66h1.98l5.58 16.4 1.97 2.96 6.56 21 2.3 5.26 3.27 2.63v2.94l2.3 1.97 3.28-8.2 6.57-21.66 2.3-6.24 8.2-22.97 1.3-5.25.67-4.27 4.25-9.5-1.3-1.32-6.9-13.13 1.3-8.2-7.2-10.18.97-3.94-4.92-10.5-7.88-19.04-2.62-7.56-.33-5.25-5.25-9.85-2.63-4.27-1.65-14.1-2.63-1.98-1.97-2.63-1.97-7.87-4.6-6.9-.65-2.3-5.9 1.32-6.9-2.3-5.25 4.27.33-1.32-2.3-2.3-15.74.33-1.32-1.96-6.23 1.64zm-17.7 1.96l4.9-1.97 3.62 2.63-4.27.65-1.97.66-2.3-1.96zm13.12-1.64h1.3l-1.3-.65v.65zm-17.07 2.3v-.33l-1-1.3 1 1.63zm221.54 2.3l-1.65-.66-.98 1.3.33-1.63-1-1.3-1.63.98h-.98l.64.66 1.64-.33v.34l-.65 4.27 1.97-.32 1.3-.33h1.65l1.3-2.3-.3-1.3-2.97-2.3 1.3 2.95zm-67.62.65v.66h-.33l-1.97 1.32-8.2 25.27-1.64 4.26-1 3.94-10.5 24.62-3.6 7.55-2.62 5.25-1.97 3.28v7.88l1.64 1.64 2.6 3.28v-2.3l6.58-16.4 16.08-33.5 1.64-3.27-.33 6.24 1.97 3.93-1.3 3.6.65 1.66-2.3 30.2 2.94 2.95-2.3 30.2 1.32 30.2-1.64 23.96-.66 6.56 2.63 3.94-1.66 4.92v9.2l-6.56 4.26-9.2-3.28-4.9 3.28-2.3 4.6h2.6l18.4-1.32 3.28 1.97.65 1.96 13.8-1.97 1.3.32 27.9-2.3 14.78 2.96 5.9-3.28 3.3 1.3.97-.32v-4.27l-5.58.34-2.95.66-1.97 2.62h-3.28l.65-1.3 1.32-4.28-2.96-.98-.33 1.64-3.94-1.3-.3-18.72 1.63-10.17-2.63-1.96 1.97-5.58v-16.74l-1.64-9.2-.98-46.93 4.26-29.87-2.94-12.48.98-5.25-.98-21.66-.33-7.55 5.9-2.63-3.27-3.28 3.6-.67-5.57-.33.97.66-3.6.32 3.27 2.3.33 1.64-1.97-.66-6.56.66.65-.66.65-.32 1.97-3.6-1.3-1.33-.34 1.98-3.6-2.3h-.67l-3.27-.65-.66 1.97-1.3 3.94-1.65-3.6-.33-2.3h-2.3l-1 2.6-2.3-1.3-.3.66-.67 2.62-1.64-1.3-3.3-.67-8.53-1.97-7.55-1.3-1.64 3.27zm3.6-.33l2.97-.98.98 2.3v.33l-2.95-1.64h-1zm48.92 0h.65-.65zm2.95 3.94l5.58-.33h1.64l-.98-2.3-6.25 1-.66-1.98h-1.32l1.97 3.6zm-212.36-.65l2.3-.32h-2.63l.32.33zm219.57 0l.33.66v-.65h-.33zM388.6 192.36l3.3 4.92 1.3 40.7-1.3 40.7-.66 1.97 1.3.65-1.3 8.2 2.62 9.84-.65 11.82.66 1.64.66 3.94-4.6 7.55-8.2 3.6-11.82 2.96 1 2.62-.34 1.97h.66l43.65 1.3 10.83 1.33v-5.25l-1.3-1.32-2.3-3.93-1 1.32-1.97-.34-9.84-1.65-6.58-5.57.33-1.96.98-1.65-1.64-1.3-1-17.73-.97-17.73.98-8.2.67-34.47-2.96-34.46-1.63-6.9-5.25-5.9-3.6 1.3zm29.55 19.04l1.64 1.95v-3.94l-1.65 1.98zm-47.92 124.38v-.33l-2.95-.66 2.95.98zm-60.72-.33v-3.94s-.97-3.6-.64-6.88c.33-3.28 2.62-7.88 2.3-9.52-.33-1.64-3.3-22.32-1.32-22.65 1.97-.32 16.74 0 19.7.66 2.95.67 11.48-1.96 11.8-.65s-.32 3.3-.32 3.3l.33 9.5-.98 14.77v14.12s.32.32-1.32 1.64c-1.3.98-29.54-.33-29.54-.33m304.92.33l-.65-2.63v-14.1s-1.64-8.87 0-11.17c1.64-2.3-.33-6.24 0-6.56.33-.33 0-3.3 0-3.3h4.92s7.87-.64 10.82 0c2.96.67 7.55.67 7.55.67s7.22-.34 8.54-.67c1.32 0 0 1 0 1l-.65 16.4 1 15.1-.34 5.25-2.62.66s-6.9-.33-10.18 0c-3.28.32-12.47 0-12.47 0l-5.9-.66zm8.87 83.04c-6.58-1.65-16.42-3.6-17.74-8.86-.98-4.93 2.63-8.2 6.24-8.86 11.16-1.65 21 4.92 25.93 8.2 2.62-2.63 3.28-6.9 5.9-9.52 1.32-1.64 3.94-1.64 4.27-3.94-3.6-2.95-8.53-6.56-13.13-8.86-4.6-2.3-7.55-1.97-13.78-2.96-3.3-.32-6.9-1.3-10.2-.98-1.96.33-4.58.66-7.54 1.97-3.28 1.32-4.92 2.64-7.87 5.26-2.97 2.63-4.94 3.94-6.25 6.56-3.94 8.2-2.3 24.3 1.97 29.87 4.6 5.57 13.46 5.57 21 8.85 2.3 1 4.93 2.96 7.55 3.94 4.27 1.96 10.5 2.95 11.16 6.56 1.32 6.56-10.17 7.87-16.73 7.22-7.55-.66-13.8-6.24-19.04-9.52-3.6 4.92-9.52 7.55-11.5 13.78 4.93 5.9 12.16 8.2 21.02 10.18 7.54 1.97 13.45 4.92 22.64 2.95 12.47-2.95 21.34-11.16 22.65-23.3 1.64-19.7-12.8-24.62-26.6-28.56m-296.03-30.83c-5.26-.66-9.2-3.3-14.44-3.94-5.26-.66-13.46-.33-18.4.65-7.53 1.65-21.98 10.83-25.6 17.4-3.93 6.9-8.52 16.74-9.18 23.96-.98 12.8 4.6 18.38 8.2 25.6 1.98 4.27 1.98 3.94 5.6 6.24.97.65 1.96 1.64 2.94 2.62 3.94 2.96 7.55 3.6 11.5 5.9 1.63.66 2.3 1.98 3.6 2.63 5.58 1.97 16.08 2.3 22.32 1.97 5.58-.32 11.5-4.26 15.1-6.23 6.23-3.6 10.17-5.58 13.78-12.47 1.97-3.94 5.25-9.2 6.24-13.13 2.95-11.82 0-23.63-1.97-32.17-5.58-7.88-13.13-12.8-19.7-19.03m-.65 52.18c-1.64 2.95-5.9 8.2-8.2 9.52-5.26 3.28-16.1 4.6-22 1.97-2.62-1.3-9.84-7.88-11.48-11.16-1.32-2.63-1-5.58-3.6-8.2-.67-9.2 1.3-15.1 5.24-20.03 1.3-1.64 2.3-3.6 3.28-4.92 10.17-8.86 28.88-6.9 34.8 3.94 3.27 6.56 6.55 20.68 1.96 28.88m-139.82 11.5c-.98-21.67-.33-45.3.66-65.66-5.58-.66-14.77-1.32-19.37-.33-1.64 3.28-.65 12.47-.33 18.38.66 22.32-.65 47.26-.32 64.65 19.36 1.65 40.7-.65 60.06.33 0-5.25 2.3-11.8.33-16.74-12.8-.33-27.26-1-41.04-.66m199.88-65.97c-1.97 4.92-.98 11.16-.33 17.4 1.65 21-2.6 45.94-.3 65.96 5.24 1.65 13.12.33 19.02 0 1-10.5 1-22-.32-31.83 13.78.33 26.9 0 39.7 0 1-4.93 1.32-12.48 0-16.74-13.12-.33-27.9-1-39.7-.33.32-5.58-1-12.47.65-16.74 15.76-.66 30.2 1.63 44.3-.34.67-4.6.67-11.8 0-16.4-20.67-1.32-43-1-63-1m100.75 0c-1.64 4.93-1.64 11.82-.65 17.73 7.22 2.3 17.72.32 24.94.65-.34 19.36 0 44.64-1.32 64.66 5.58.66 11.16 1 20.02.66.33-21.66.66-43.65.66-65.3 7.55-1.32 16.4.97 23.96-.34 1.97-4.6.65-13.46.65-17.73-21.33-1-45.3.65-68.27-.33"/></svg>