<svg xmlns="http://www.w3.org/2000/svg" viewBox="0 0 165.1 89.1"><path fill="#0C4D7F" d="M75.3 23.5c-.4 2.4-2.9 5.5-3.2 7.4-1.2-1.1-2.7-1.9-3.4-3.6 2.1-2.1 4.3-4.2 5.8-6.7 1.8-.3.9 2.5.8 2.9M61.9 47.7c-2.6-3.1-.3-7.4.9-10.2 1.5-3.3 3.6-6.2 5.1-8.6 1.8.2 2.1 2.3 3.8 2.6C69 37.4 66 43 61.9 47.7m3.8-33.2c.6-5.4 4-10.5 6.5-13.8 1.8 8.2-3.4 14.8-5.1 21.8-1.9-2-1.6-5.9-1.4-8m7.2 5.8c.5 1.1-3.6 5.9-5.4 5.7-.2-3.6 3.9-3.7 5.4-5.7M61.7 32.6c-3.5 5.6-7.8 12.7-13.7 16.7 3-9.7 10.2-16 16.5-23.1.1 2.2-1.5 4.4-2.8 6.4m39.9 9.1c.7-4 3.2-6.5 3.8-10.5-3.6 1.5-5.2 4.6-8.3 6.5.9-2.8 2.3-5.1 2-8.8-2.5.5-4.5 3.1-6.5 5.3-2.1 2.2-3.9 5.2-6.3 6.8 1.7-5.5 4.4-10.1 5.2-16.2-3.9 1.4-6.4 6.4-9.3 7.1 2.5-7 6.4-13 6-22.4C80 11.6 77 20.3 69 21.2c2.5-6 5.8-13.8 4.6-21.2-4.5.9-6.2 4.9-7.6 8.9-1.8 5.3-1.9 9.3-.3 14.7C58.2 32 48 38.6 46.2 51c7.6-2.5 12.6-11.7 16.6-18 1.6-2.5 2.9-5.7 4.9-6.1-3.3 5.8-13 15.1-5.5 22.3 4-2.4 6.9-7.3 9.3-11.6 2.9-5.2 5.8-11.3 4.9-18.7 3.9-2.8 5.9-7.1 11.7-8.4-2.3 15.3-12 24.9-17.9 37.3 2.3-.7 1.5 1.1 2.2 1.3 6.2-6.7 9.1-18.4 17.7-21.7-2 5.5-4.1 10.9-5.7 16.8 1.7.7 2.2-1.8 3.2-2.9C91 37.6 95.1 33.2 98 31c-.6 4.5-3 7.6-3.7 12 2.8-1.3 6.2-8.4 9.5-9.2-1.8 2.8-3.6 6.4-3.5 9.5 7.1-1 9.8-7.4 15.4-11.2v-.8c-4.6 3.7-8.7 9.2-14.1 10.4"/><path fill="#0C4D7F" d="M26.9 59.8c-2.7.2-7 1.3-6.6-.5-5.4 2.3-16.8 1.4-18.3-4-.6-2.1 1.2-7.3 2.5-9.8 3.8-6.9 14.4-11.2 21.1-8.8 8.3 3.1 6.3 16.9 1.3 23.1m-19.1 27c.6-6.1 8.5-12.6 12.3-18.5-2.2 5.6-8.4 12.6-12.3 18.5m16.5-23.7C17.4 71 7.7 76.6 6.2 88.8c7.7 2.2 10-7.3 13.5-12.7 5.3-8.2 10.2-18.5 19.7-22.3.4 7.5-3.5 11.5-4.7 17.7 6-3.6 10.8-8.1 16.6-11.9-.7 2.6-1.7 5.1-2.1 8 7.4 1.5 9.5-5.5 14-8 .2 3.1.6 5.9 1.5 8.2 5.8-1.4 8.4-5.4 12.2-8.4-4.6 1.1-6 4.8-10.7 5.9-1.3-2-.8-6.1-2-8.1-3.5 1.5-7.3 10.1-13.3 9.7-.5-4.4 3.5-5.1 2.5-9.8-5.6 2.1-9.6 8.4-14.5 9.3 1-4.4 3.2-7.8 2.1-13.9-4.5-.2-5.7 2.2-8.6 3.3 5.9-13.7-4-22.3-15.8-20.3-9.7 1.6-20.2 14.4-15.4 23 2.1 3.8 6.5 3.8 11 5.3 0-.3.1-.5.1-.8-.1.3-.1.6-.1.8.5.2-.7-.1 1.5.5s10.6-1.2 10.6-1.2M123.5 57.8c2.8-.9 4.5-5.6 4.6-7-.9 2.6-6.4 4-4.6 7m40.5-28c-3.2 1.3-6 4.1-8.2 6.8-2.2 2.7-4.9 6-5 8.9 4.3-5.3 10.3-9.3 13.2-15.7m-18.9 24.5c1.1 1.6 1.8-3.4 3.4-1.5 2 5.8 6 9 13.3 8.1-6.2 2.6-12.2-.9-14.3-5.6-3.4.8-2.7 5-5.9 6 .3-4.2 2.7-6.8 3.7-10.5-6.2 3.6-11.1 8.2-21.1 8.8-.3-1.4-2.8-.1-2.6-2.1-3.9 1.9-7.6 6.1-13.2 5-.7-1.7-.7-1.8-.4-3.5-3.9 2.2-7.5 7-13.7 5.6-.8-1.6-.9-2.4-.4-4.1-3.2 1.8-4.8 4.7-8.9 5.7-1.1-6.2 3.7-14.9 10.3-14.8-1.3 5.4-8.8 5.8-8.8 12.2 2.7 0 6-4.1 8.3-6.2 2.6.6-.7 2.6.6 5.3 7.1 2.8 11.1-6 16.4-8.3.2 3.1-2.8 3.5-2.9 6.3 3.2 2.3 7-.7 9.3-2.2 5.9-3.7 10.1-10.2 15.1-14.7-1 5.9-4.9 9.3-7.5 13.9 8.8-1 16-4.1 21-9.3 5.9-6.2 8.4-17.7 18.2-19.2-3.5 10.8-15.9 14.6-19.9 25.1"/></svg>