<svg xmlns="http://www.w3.org/2000/svg" width="513.359" height="495.36" xmlns:xlink="http://www.w3.org/1999/xlink"><g><path fill="#BBBDBF" d="M443.35 350.46h27.9V379h-27.9zM469.33 350.85v-91.27h-1.9V238.2h2.2l.05-172.3h-11.76V49l22.47-.03.36 398.1h-17.52v-40.84H414.6v-6.48h57.5v-21.4h-29.18V350.9z"/><defs><path id="a" d="M-43 46.64h525.34v726.58H-43z"/></defs><clipPath id="b"><use xlink:href="#a" overflow="visible"/></clipPath><path fill="#BBBDBF" d="M179.43 49.13h21.83v16.9l-7.24.85v137.98h29.5v10.73h-29.5v62.9H179.5c-.04-61.1-.07-229.37-.07-229.34" clip-path="url(#b)"/><path fill="#fff" d="M194.74 217.93h30.64v59.26h-30.64z"/><path fill="none" stroke="#000" stroke-width=".778" d="M194.74 217.93h30.64v59.26h-30.64z"/><defs><path id="c" d="M-43 46.64h525.34v726.58H-43z"/></defs><clipPath id="d"><use xlink:href="#c" overflow="visible"/></clipPath><circle cx="209.915" cy="263.688" r="1.257" fill="none" stroke="#231F20" stroke-width=".648" clip-path="url(#d)"/><defs><path id="e" d="M-43 46.64h525.34v726.58H-43z"/></defs><clipPath id="f"><use xlink:href="#e" overflow="visible"/></clipPath><path fill="none" stroke="#000" stroke-width=".648" d="M209.97 221.32c8.78 0 12 2.02 12 4.86v43.3c0 .68-.2 2.12-2.03 2.12h-19.97c-1.83 0-2.02-1.44-2.02-2.13V226.2c0-2.86 3.3-4.88 12.02-4.88z" clip-path="url(#f)"/><defs><path id="g" d="M-43 46.64h525.34v726.58H-43z"/></defs><clipPath id="h"><use xlink:href="#g" overflow="visible"/></clipPath><path fill="none" stroke="#231F20" stroke-width=".584" d="M204.58 273.8c0-.7.58-1.28 1.3-1.28.7 0 1.27.57 1.27 1.28 0 .7-.58 1.3-1.28 1.28-.7 0-1.3-.57-1.3-1.28zm7.97 0c0-.7.57-1.28 1.3-1.28.7 0 1.26.57 1.27 1.28 0 .7-.58 1.3-1.28 1.3-.72 0-1.3-.58-1.3-1.3z" clip-path="url(#h)"/><defs><path id="i" d="M-43 46.64h525.34v726.58H-43z"/></defs><clipPath id="j"><use xlink:href="#i" overflow="visible"/></clipPath><path fill="#fff" d="M211.64 274.18c0 1.06-.7 1.9-1.76 1.9-1.05 0-1.63-.85-1.63-1.9l.68-7.25c0-.7 1.92-.7 1.92 0l.8 7.25z" clip-path="url(#j)"/><defs><path id="k" d="M-43 46.64h525.34v726.58H-43z"/></defs><clipPath id="l"><use xlink:href="#k" overflow="visible"/></clipPath><path fill="none" stroke="#231F20" stroke-width=".584" d="M211.64 274.18c0 1.06-.7 1.9-1.76 1.9-1.05 0-1.63-.85-1.63-1.9l.68-7.25c0-.7 1.92-.7 1.92 0l.8 7.25z" clip-path="url(#l)"/><defs><path id="m" d="M-43 46.64h525.34v726.58H-43z"/></defs><clipPath id="n"><use xlink:href="#m" overflow="visible"/></clipPath><path fill="none" stroke="#000" stroke-width=".973" d="M386.5 363.8c0 15.88 12.87 28.75 28.75 28.75m-28.77-28.75h28.77v-1.65h-28.77v1.65zM230.66 233.74c15.88 0 28.75-12.87 28.75-28.75M229 233.75h1.66V205H229v28.76zm149.08 205.58c0-15.88-12.87-28.75-28.75-28.75m28.77 28.74h-28.77V441h28.77v-1.66z" clip-path="url(#n)"/><defs><path id="o" d="M-43 46.64h525.34v726.58H-43z"/></defs><clipPath id="p"><use xlink:href="#o" overflow="visible"/></clipPath><path fill="#fff" d="M252.16 260.33c0-5.78-3.52-12.16-7.85-12.16s-7.84 6.38-7.84 12.16c0 5.8 3.5 8.8 7.85 8.8s7.86-3 7.86-8.8" clip-path="url(#p)"/><defs><path id="q" d="M-43 46.64h525.34v726.58H-43z"/></defs><clipPath id="r"><use xlink:href="#q" overflow="visible"/></clipPath><path fill="none" stroke="#000" stroke-width=".778" d="M252.16 260.33c0-5.78-3.52-12.16-7.85-12.16s-7.84 6.38-7.84 12.16c0 5.8 3.5 8.8 7.85 8.8s7.86-3 7.86-8.8z" clip-path="url(#r)"/><defs><path id="s" d="M-43 46.64h525.34v726.58H-43z"/></defs><clipPath id="t"><use xlink:href="#s" overflow="visible"/></clipPath><path fill="#fff" d="M239.6 267.24c0-.33-.25-.6-.58-.6h-2.75c-.32 0-.6.27-.6.6v.1c0 .32.28.6.6.6h2.75c.33 0 .6-.28.6-.6v-.1z" clip-path="url(#t)"/><defs><path id="u" d="M-43 46.64h525.34v726.58H-43z"/></defs><clipPath id="v"><use xlink:href="#u" overflow="visible"/></clipPath><path fill="none" stroke="#231F20" stroke-width=".778" d="M239.6 267.24c0-.33-.25-.6-.58-.6h-2.75c-.32 0-.6.27-.6.6v.1c0 .32.28.6.6.6h2.75c.33 0 .6-.28.6-.6v-.1z" clip-path="url(#v)"/><defs><path id="w" d="M-43 46.64h525.34v726.58H-43z"/></defs><clipPath id="x"><use xlink:href="#w" overflow="visible"/></clipPath><path fill="#fff" d="M235.27 267.94c-.98 0-1.78 2.67-1.78 3.65s.8 3.64 1.77 3.64h17.93c.98 0 1.78-2.66 1.78-3.65 0-1-.8-3.66-1.78-3.66h-17.93z" clip-path="url(#x)"/><defs><path id="y" d="M-43 46.64h525.34v726.58H-43z"/></defs><clipPath id="z"><use xlink:href="#y" overflow="visible"/></clipPath><path fill="none" stroke="#000" stroke-width=".778" d="M235.27 267.94c-.98 0-1.78 2.67-1.78 3.65s.8 3.64 1.77 3.64h17.93c.98 0 1.78-2.66 1.78-3.65 0-1-.8-3.66-1.78-3.66h-17.93z" clip-path="url(#z)"/><defs><path id="A" d="M-43 46.64h525.34v726.58H-43z"/></defs><clipPath id="B"><use xlink:href="#A" overflow="visible"/></clipPath><path fill="#fff" d="M250.08 260.1c0-4.26-2.6-8.95-5.77-8.95-3.18 0-5.76 4.7-5.76 8.94s2.58 6.46 5.77 6.46c3.2 0 5.78-2.22 5.78-6.47" clip-path="url(#B)"/><defs><path id="C" d="M-43 46.64h525.34v726.58H-43z"/></defs><clipPath id="D"><use xlink:href="#C" overflow="visible"/></clipPath><path fill="none" stroke="#000" stroke-width=".648" d="M250.08 260.1c0-4.26-2.6-8.95-5.77-8.95-3.18 0-5.76 4.7-5.76 8.94s2.58 6.46 5.77 6.46c3.2 0 5.78-2.22 5.78-6.47z" clip-path="url(#D)"/><path fill="none" stroke="#231F20" stroke-width=".778" d="M272.16 276.76v-24h29.4v24.65"/><path fill="none" stroke="#000" stroke-width=".778" d="M323.42 209.75v26.37m0-5.15h-3.66l-.86-3.16v-9.67l.86-3.2h3.66m16.87 21.2h-24.06v-26.2h24.05v26.2z"/><path fill="#fff" d="M321.84 211.22v2.1l1.47.47v-3.05z"/><path fill="none" stroke="#231F20" stroke-width=".778" d="M321.84 211.22v2.1l1.47.47v-3.05zM347.8 241.3v105.6h-25.28"/><path fill="#fff" d="M349.96 252.8l-25.62.2-.05 30.14 25.6-.18z"/><path fill="none" stroke="#000" stroke-width=".778" d="M349.96 252.8l-25.62.2-.05 30.14 25.6-.18z"/><path fill="none" stroke="#000" stroke-width=".389" d="M326.57 283.17v-30.2"/><defs><path id="E" d="M-43 46.64h525.34v726.58H-43z"/></defs><clipPath id="F"><use xlink:href="#E" overflow="visible"/></clipPath><path fill="#fff" d="M335.84 274.14c-.02-2.17-1.8-3.9-3.95-3.9-2.18.02-3.92 1.8-3.9 3.95 0 2.16 1.78 3.9 3.94 3.9 2.16-.03 3.9-1.8 3.9-3.96" clip-path="url(#F)"/><defs><path id="G" d="M-43 46.64h525.34v726.58H-43z"/></defs><clipPath id="H"><use xlink:href="#G" overflow="visible"/></clipPath><path fill="none" stroke="#231F20" stroke-width=".648" d="M335.84 274.14c-.02-2.17-1.8-3.9-3.95-3.9-2.18.02-3.92 1.8-3.9 3.95 0 2.16 1.78 3.9 3.94 3.9 2.16-.03 3.9-1.8 3.9-3.96z" clip-path="url(#H)"/><defs><path id="I" d="M-43 46.64h525.34v726.58H-43z"/></defs><clipPath id="J"><use xlink:href="#I" overflow="visible"/></clipPath><path fill="#fff" d="M335.75 262.4c-.02-2.17-1.8-3.9-3.95-3.9-2.17.02-3.9 1.8-3.9 3.95.03 2.16 1.8 3.9 3.96 3.9 2.16-.02 3.9-1.8 3.9-3.96" clip-path="url(#J)"/><defs><path id="K" d="M-43 46.64h525.34v726.58H-43z"/></defs><clipPath id="L"><use xlink:href="#K" overflow="visible"/></clipPath><path fill="none" stroke="#231F20" stroke-width=".648" d="M335.75 262.4c-.02-2.17-1.8-3.9-3.95-3.9-2.17.02-3.9 1.8-3.9 3.95.03 2.16 1.8 3.9 3.96 3.9 2.16-.02 3.9-1.8 3.9-3.96z" clip-path="url(#L)"/><defs><path id="M" d="M-43 46.64h525.34v726.58H-43z"/></defs><clipPath id="N"><use xlink:href="#M" overflow="visible"/></clipPath><path fill="#fff" d="M346.5 274.06c-.02-2.17-1.8-3.9-3.95-3.9-2.16.03-3.9 1.8-3.9 3.96.03 2.16 1.8 3.9 3.96 3.9 2.17-.03 3.9-1.8 3.9-3.96" clip-path="url(#N)"/><defs><path id="O" d="M-43 46.64h525.34v726.58H-43z"/></defs><clipPath id="P"><use xlink:href="#O" overflow="visible"/></clipPath><path fill="none" stroke="#231F20" stroke-width=".648" d="M346.5 274.06c-.02-2.17-1.8-3.9-3.95-3.9-2.16.03-3.9 1.8-3.9 3.96.03 2.16 1.8 3.9 3.96 3.9 2.17-.03 3.9-1.8 3.9-3.96z" clip-path="url(#P)"/><defs><path id="Q" d="M-43 46.64h525.34v726.58H-43z"/></defs><clipPath id="R"><use xlink:href="#Q" overflow="visible"/></clipPath><path fill="#fff" d="M346.4 262.3c0-2.15-1.77-3.9-3.93-3.88-2.17.02-3.9 1.8-3.9 3.95.02 2.16 1.8 3.9 3.95 3.9 2.17-.02 3.9-1.8 3.9-3.96" clip-path="url(#R)"/><defs><path id="S" d="M-43 46.64h525.34v726.58H-43z"/></defs><clipPath id="T"><use xlink:href="#S" overflow="visible"/></clipPath><path fill="none" stroke="#231F20" stroke-width=".648" d="M346.4 262.3c0-2.15-1.77-3.9-3.93-3.88-2.17.02-3.9 1.8-3.9 3.95.02 2.16 1.8 3.9 3.95 3.9 2.17-.02 3.9-1.8 3.9-3.96z" clip-path="url(#T)"/><path fill="#fff" d="M349.86 253.86h1.2v28.1h-1.2z"/><path fill="none" stroke="#231F20" stroke-width=".778" d="M349.86 253.86h1.2v28.1h-1.2z"/><defs><path id="U" d="M-43 46.64h525.34v726.58H-43z"/></defs><clipPath id="V"><use xlink:href="#U" overflow="visible"/></clipPath><path fill="none" stroke="#231F20" stroke-width=".778" d="M428.92 352.57v47.18M411.58 47.5h47m-118.65-.03h47m-116.4.06h48M200.5 47.5h44.83m166.65 16.35h45m-114.8-.32h43.13m-114.1.32h45.38m-114.45 0h42.8" clip-path="url(#V)"/><path fill="none" stroke="#231F20" stroke-width=".778" stroke-dashoffset="3" d="M431.03 399.1v-47.18" stroke-dasharray="1.887,1.887,1.887,1.887,1.887,1.887"/><defs><path id="W" d="M-43 46.64h525.34v726.58H-43z"/></defs><clipPath id="X"><use xlink:href="#W" overflow="visible"/></clipPath><circle cx="286.827" cy="264.574" r="1.186" fill="none" stroke="#000" stroke-width=".519" clip-path="url(#X)"/><defs><path id="Y" d="M-43 46.64h525.34v726.58H-43z"/></defs><clipPath id="Z"><use xlink:href="#Y" overflow="visible"/></clipPath><path fill="none" stroke="#000" stroke-width=".648" d="M286.83 274.38c.63 0 1.15-.5 1.15-1.15s-.52-1.15-1.15-1.15c-.64 0-1.15.52-1.15 1.15s.5 1.15 1.15 1.15zm.53-7.18h-1.06v4.7h1.06v-4.7zM292 272h-10.35v2.5H292V272z" clip-path="url(#Z)"/><path fill="none" stroke="#000" stroke-width=".778" d="M276.32 255.85h21v19.03h-21z"/><path fill="none" stroke="#000" stroke-width=".584" d="M277.95 257.47h17.7v14.5h-17.7z"/><path fill="none" stroke="#000" stroke-width=".648" d="M352.1 347.8v35.67"/><path fill="none" stroke="#000" stroke-width=".778" d="M354.22 360.47h1.46v2.76h-1.46zM324.2 348.02h30v35.16h-30zM354.22 369.15h1.46v2.75h-1.46z"/><defs><path id="aa" d="M-43 46.64h525.34v726.58H-43z"/></defs><clipPath id="ab"><use xlink:href="#aa" overflow="visible"/></clipPath><path fill="#fff" d="M327.2 290.63c-1.02 0-1.85.82-1.85 1.84v22.35c0 1 .83 1.83 1.84 1.83h15.7c1.02 0 1.85-.82 1.85-1.83v-22.35c0-1.02-.83-1.84-1.84-1.84h-15.7z" clip-path="url(#ab)"/><defs><path id="ac" d="M-43 46.64h525.34v726.58H-43z"/></defs><clipPath id="ad"><use xlink:href="#ac" overflow="visible"/></clipPath><path fill="none" stroke="#231F20" stroke-width=".778" d="M327.2 290.63c-1.02 0-1.85.82-1.85 1.84v22.35c0 1 .83 1.83 1.84 1.83h15.7c1.02 0 1.85-.82 1.85-1.83v-22.35c0-1.02-.83-1.84-1.84-1.84h-15.7z" clip-path="url(#ad)"/><defs><path id="ae" d="M-43 46.64h525.34v726.58H-43z"/></defs><clipPath id="af"><use xlink:href="#ae" overflow="visible"/></clipPath><path fill="#fff" d="M329.65 312.86c0 1.03.83 1.88 1.85 1.88h9.44c1 0 1.84-.85 1.84-1.88v-18.38c0-1.04-.83-1.88-1.84-1.88h-9.44c-1.02 0-1.85.84-1.85 1.88v18.38z" clip-path="url(#af)"/><defs><path id="ag" d="M-43 46.64h525.34v726.58H-43z"/></defs><clipPath id="ah"><use xlink:href="#ag" overflow="visible"/></clipPath><path fill="none" stroke="#231F20" stroke-width=".584" d="M329.65 312.86c0 1.03.83 1.88 1.85 1.88h9.44c1 0 1.84-.85 1.84-1.88v-18.38c0-1.04-.83-1.88-1.84-1.88h-9.44c-1.02 0-1.85.84-1.85 1.88v18.38z" clip-path="url(#ah)"/><defs><path id="ai" d="M-43 46.64h525.34v726.58H-43z"/></defs><clipPath id="aj"><use xlink:href="#ai" overflow="visible"/></clipPath><path fill="#fff" d="M336.43 302.07c-.76 0-1.38.63-1.38 1.4 0 .76.62 1.37 1.38 1.37.76 0 1.4-.6 1.4-1.38 0-.76-.64-1.38-1.4-1.38" clip-path="url(#aj)"/><defs><path id="ak" d="M-43 46.64h525.34v726.58H-43z"/></defs><clipPath id="al"><use xlink:href="#ak" overflow="visible"/></clipPath><path fill="none" stroke="#231F20" stroke-width=".519" d="M336.43 302.07c-.76 0-1.38.63-1.38 1.4 0 .76.62 1.37 1.38 1.37.76 0 1.4-.6 1.4-1.38 0-.76-.64-1.38-1.4-1.38z" clip-path="url(#al)"/><defs><path id="am" d="M-43 46.64h525.34v726.58H-43z"/></defs><clipPath id="an"><use xlink:href="#am" overflow="visible"/></clipPath><path fill="#fff" d="M327.45 298.5c-.74 0-1.42.6-1.42 1.34v7.3c0 .73.68 1.33 1.42 1.33.74 0 1.42-.6 1.42-1.34v-7.3c0-.73-.68-1.33-1.42-1.33" clip-path="url(#an)"/><defs><path id="ao" d="M-43 46.64h525.34v726.58H-43z"/></defs><clipPath id="ap"><use xlink:href="#ao" overflow="visible"/></clipPath><path fill="none" stroke="#231F20" stroke-width=".519" d="M327.45 298.5c-.74 0-1.42.6-1.42 1.34v7.3c0 .73.68 1.33 1.42 1.33.74 0 1.42-.6 1.42-1.34v-7.3c0-.73-.68-1.33-1.42-1.33z" clip-path="url(#ap)"/><defs><path id="aq" d="M-43 46.64h525.34v726.58H-43z"/></defs><clipPath id="ar"><use xlink:href="#aq" overflow="visible"/></clipPath><path fill="#fff" d="M335.2 298l-6.8 6.27c-.4.35-.98.3-1.34-.1-.35-.38-.32-.98.08-1.34l7.05-5.97c.32-.28 1.32.87 1 1.15" clip-path="url(#ar)"/><defs><path id="as" d="M-43 46.64h525.34v726.58H-43z"/></defs><clipPath id="at"><use xlink:href="#as" overflow="visible"/></clipPath><path fill="none" stroke="#231F20" stroke-width=".648" d="M335.2 298l-6.8 6.27c-.4.35-.98.3-1.34-.1-.35-.38-.32-.98.08-1.34l7.05-5.97c.32-.28 1.32.87 1 1.15z" clip-path="url(#at)"/><defs><path id="au" d="M-43 46.64h525.34v726.58H-43z"/></defs><clipPath id="av"><use xlink:href="#au" overflow="visible"/></clipPath><path fill="#fff" d="M330.8 304.27h-3.27c-.35 0-.64-.28-.64-.64 0-.35.28-.63.63-.63h3.28c.37 0 .65.28.65.63 0 .36-.28.64-.64.64" clip-path="url(#av)"/><defs><path id="aw" d="M-43 46.64h525.34v726.58H-43z"/></defs><clipPath id="ax"><use xlink:href="#aw" overflow="visible"/></clipPath><path fill="none" stroke="#231F20" stroke-width=".519" d="M330.8 304.27h-3.27c-.35 0-.64-.28-.64-.64 0-.35.28-.63.63-.63h3.28c.37 0 .65.28.65.63 0 .36-.28.64-.64.64z" clip-path="url(#ax)"/><defs><path id="ay" d="M-43 46.64h525.34v726.58H-43z"/></defs><clipPath id="az"><use xlink:href="#ay" overflow="visible"/></clipPath><path fill="#fff" d="M327.57 305.65c-.42 0-.76.35-.76.77 0 .42.35.76.77.76.42 0 .77-.34.77-.76s-.35-.77-.77-.77" clip-path="url(#az)"/><defs><path id="aA" d="M-43 46.64h525.34v726.58H-43z"/></defs><clipPath id="aB"><use xlink:href="#aA" overflow="visible"/></clipPath><path fill="none" stroke="#231F20" stroke-width=".454" d="M327.57 305.65c-.42 0-.76.35-.76.77 0 .42.35.76.77.76.42 0 .77-.34.77-.76s-.35-.77-.77-.77z" clip-path="url(#aB)"/><defs><path id="aC" d="M-43 46.64h525.34v726.58H-43z"/></defs><clipPath id="aD"><use xlink:href="#aC" overflow="visible"/></clipPath><path fill="#fff" d="M327.5 299.77c-.42 0-.76.35-.76.77 0 .42.34.76.76.76s.77-.34.77-.76c0-.43-.35-.77-.76-.77" clip-path="url(#aD)"/><defs><path id="aE" d="M-43 46.64h525.34v726.58H-43z"/></defs><clipPath id="aF"><use xlink:href="#aE" overflow="visible"/></clipPath><path fill="none" stroke="#231F20" stroke-width=".454" d="M327.5 299.77c-.42 0-.76.35-.76.77 0 .42.34.76.76.76s.77-.34.77-.76c0-.43-.35-.77-.76-.77z" clip-path="url(#aF)"/><path fill="none" stroke="#000" stroke-width=".648" stroke-dashoffset="3" d="M345.3 343.28h-18.33" stroke-dasharray="1.931,1.931,1.931,1.931,1.931,1.931"/><path fill="none" stroke="#000" stroke-width=".648" stroke-dashoffset="3" d="M325.04 340.44v-18" stroke-dasharray="1.894,1.894,1.894,1.894,1.894,1.894"/><path fill="none" stroke="#000" stroke-width=".648" stroke-dashoffset="3" d="M327.87 320.55h17.93" stroke-dasharray="1.888,1.888,1.888,1.888,1.888,1.888"/><path fill="none" stroke="#000" stroke-width=".648" d="M346.75 320.55h.94m-22.66.95v-.95h.94m.02 22.73h-.96v-.94m23.17.94h-.95M347.7 320.52h2.45v22.76h-1.93"/><defs><path id="aG" d="M-43 46.64h525.34v726.58H-43z"/></defs><clipPath id="aH"><use xlink:href="#aG" overflow="visible"/></clipPath><path fill="none" stroke="#231F20" stroke-width="3.891" d="M271.2 53.3h47m22.05 0h45.06m27.25 0h43.12m8 393.35V405.8h-48.85l.43-5.62h55.94v-22.9M468.9 349v-89.33H467V238.3h2.2L469.23 66h-11.76V49.1l22.9-.04-.05 398.55" clip-path="url(#aH)"/><defs><path id="aI" d="M-43 46.64h525.34v726.58H-43z"/></defs><clipPath id="aJ"><use xlink:href="#aI" overflow="visible"/></clipPath><path fill="none" stroke="#231F20" stroke-width="3.891" d="M202.45 53.3h43.13" clip-path="url(#aJ)"/><defs><path id="aK" d="M-43 46.64h525.34v726.58H-43z"/></defs><clipPath id="aL"><use xlink:href="#aK" overflow="visible"/></clipPath><path fill="none" stroke="#231F20" stroke-width="5.188" d="M482.27 447.6H349.33v-6.68" clip-path="url(#aL)"/><path fill="none" stroke="#231F20" stroke-width="6.484" d="M329.23 207.16v-27.24m0-31.45V65.8"/><defs><path id="aM" d="M-43 46.64h525.34v726.58H-43z"/></defs><clipPath id="aN"><use xlink:href="#aM" overflow="visible"/></clipPath><path fill="none" stroke="#231F20" stroke-width="5.188" d="M259.25 205.66h85.2l.64 34.57h-24.13l-.06 145.94h28.43V411m123.85-32h-29.83v-28.53m27.56 0h-56.29v11.67m0 30.33v18m0 30.13v7.13" clip-path="url(#aN)"/><path fill="none" stroke="#231F20" stroke-width=".778" d="M332.37 110.86h1.94v47.02h-1.93z"/><path fill="#BBBDBF" d="M246.62 49.1V66l23.78-.12V49.06z"/><defs><path id="aO" d="M-43 46.64h525.34v726.58H-43z"/></defs><clipPath id="aP"><use xlink:href="#aO" overflow="visible"/></clipPath><path fill="none" stroke="#231F20" stroke-width="3.891" d="M246.62 49.1V66l23.78-.12V49.06z" clip-path="url(#aP)"/><path fill="#BBBDBF" d="M316.87 49.05v16.9l23.78-.07V49.06z"/><defs><path id="aQ" d="M-43 46.64h525.34v726.58H-43z"/></defs><clipPath id="aR"><use xlink:href="#aQ" overflow="visible"/></clipPath><path fill="none" stroke="#231F20" stroke-width="3.891" d="M316.87 49.05v16.9l23.78-.07V49.06z" clip-path="url(#aR)"/><path fill="#BBBDBF" d="M387.22 49.05v16.88l23.77-.05V49.06z"/><defs><path id="aS" d="M-43 46.64h525.34v726.58H-43z"/></defs><clipPath id="aT"><use xlink:href="#aS" overflow="visible"/></clipPath><path fill="none" stroke="#231F20" stroke-width="3.891" d="M387.22 49.05v16.88l23.77-.05V49.06z" clip-path="url(#aT)"/><defs><path id="aU" d="M-43 46.64h525.34v726.58H-43z"/></defs><clipPath id="aV"><use xlink:href="#aU" overflow="visible"/></clipPath><path fill="none" stroke="#231F20" stroke-width="3.891" d="M320.8 278.75l-127.4-.07V215.7l30.4-.05v-10.1m-19.74 73.2l-24.48-.13V49.06H201V67l-7.56-.07V205.2l35.3.03" clip-path="url(#aV)"/><path fill="none" stroke="#231F20" stroke-width=".778" d="M413.47 399.9h1.94v47.03h-1.93z"/><path fill="#fff" d="M345.65 51.73h18.54v3.16h-18.55z"/><path fill="none" stroke="#000" stroke-width=".778" d="M345.65 51.73h18.54v3.16h-18.55zM364.2 53.24h-18.44"/><path fill="#fff" d="M364.24 51.73h19.02v3.16h-19.02z"/><path fill="none" stroke="#000" stroke-width=".778" d="M364.24 51.73h19.02v3.16h-19.02zM383.26 53.24h-19.02"/><path fill="#fff" d="M415.36 51.73h18.54v3.16h-18.54z"/><path fill="none" stroke="#000" stroke-width=".778" d="M415.36 51.73h18.54v3.16h-18.54zM433.9 53.24h-18.43"/><path fill="#fff" d="M433.95 51.73h19.02v3.16h-19.02z"/><path fill="none" stroke="#000" stroke-width=".778" d="M433.95 51.73h19.02v3.16h-19.02zM452.97 53.24h-19.02"/><path fill="#fff" d="M205.45 51.73H224v3.16h-18.55z"/><path fill="none" stroke="#000" stroke-width=".778" d="M205.45 51.73H224v3.16h-18.55zM224 53.24h-18.44"/><path fill="#fff" d="M224.04 51.73h19.02v3.16h-19.02z"/><path fill="none" stroke="#000" stroke-width=".778" d="M224.04 51.73h19.02v3.16h-19.02zM243.06 53.24h-19.02"/><path fill="#fff" d="M274.5 51.73H293v3.16H274.5z"/><path fill="none" stroke="#000" stroke-width=".778" d="M274.5 51.73H293v3.16H274.5zM293.02 53.24H274.6"/><path fill="#fff" d="M293.07 51.73h19.03v3.16h-19.03z"/><path fill="none" stroke="#000" stroke-width=".778" d="M293.07 51.73h19.03v3.16h-19.03zM312.1 53.24h-19.03"/><path fill="#fff" d="M78.94 48.23h33.15v44.2H78.93zM112.1 48.23h33.14v44.2H112.1zM144.4 100.08v-7.65h-23.8v7.65h-8.5v41.65h33.14v-41.65zM78.94 99.23h-20.4v22.1H45.8v20.4h33.14zM78.1 99.23v42.5h34v-17h-6.8v-13.6H89.13V98.38z"/><path fill="#BBBDBF" d="M45.8 47.38h32.3v45.05H64.5v-6.8h-4.26v-10.2H45.8z"/><defs><path id="aW" d="M-43 46.64h525.34v726.58H-43z"/></defs><clipPath id="aX"><use xlink:href="#aW" overflow="visible"/></clipPath><path fill="none" stroke="#262626" stroke-width="2.053" stroke-miterlimit="10" d="M145.27 141.96H45.54v-94.3h99.73z" clip-path="url(#aX)"/><defs><path id="aY" d="M-43 46.64h525.34v726.58H-43z"/></defs><clipPath id="aZ"><use xlink:href="#aY" overflow="visible"/></clipPath><path fill="none" stroke="#262626" stroke-width="1.173" stroke-miterlimit="10" d="M58.9 99.58h61.44v-7.33M49.2 85.2h11.3m-11.58 7.93h9.97V94m0 3.24v24.2H46.4m-.88-28.3h3.38V75.08H60.5v10.55h3.96v6.9h81.1m-66.87 49.7v-43m33.28 43v-43m0-7.3V48.34M78.54 91.96V48.33" clip-path="url(#aZ)"/><defs><path id="ba" d="M-43 46.64h525.34v726.58H-43z"/></defs><clipPath id="bb"><use xlink:href="#ba" overflow="visible"/></clipPath><path fill="none" stroke="#000" stroke-width=".425" d="M55.54 93.93c0 1.8 1.46 3.25 3.25 3.25m-3.26-3.25h3.25v-.18h-3.26v.18zm55.04 8.8c-1.8 0-3.25-1.45-3.25-3.24m3.44 3.24h-.2V99.5h.2v3.24zm-33.23-.08c-1.8 0-3.26-1.45-3.26-3.25m3.44 3.27h-.2V99.4h.2v3.27zm35.72.07c1.8 0 3.25-1.46 3.25-3.25m-3.45 3.24h.2V99.5h-.2v3.24zm-32.5-.08c1.8 0 3.25-1.45 3.25-3.25m-3.44 3.27h.2V99.4h-.2v3.27zm33.5-13.54c1.8 0 3.24 1.46 3.24 3.26m-3.44-3.27h.2v3.25h-.2v-3.25zm-18.78-.1c-1.8 0-3.26 1.45-3.26 3.25m3.44-3.26h-.18v3.26h.18v-3.26zM67.9 91.3c0-1.8-1.45-3.26-3.24-3.26m3.25 3.25h-3.24v.18h3.25v-.2z" clip-path="url(#bb)"/><path fill="none" stroke="#000" stroke-width=".452" d="M49.5 108.38h8.96m-12.22 1.2h12.22m-12.24 1.2h12.2M46.27 112H58.5m-12.2 1.2h12.2m-12.2 1.2h12.2m-12.17 1.24H58.5"/><path fill="none" stroke="#000" stroke-width=".425" d="M46.27 111.13l3.67-2.7-.2-.55.93.88-.26-.64 1.78-1.07m-6.24-6.62h6.38m-6.38 1.2h6.38m-6.38 1.2h6.38m-6.38 1.2h6.38m-6.38 1.2h6.38m-6.38 1.18h6.3m-6.43 1.2h5.5m-5.13.97h3.55"/><path fill="none" stroke="#000" stroke-width=".452" d="M51.75 107.19l6.76-.02"/><path fill="none" stroke="#000" stroke-width=".425" d="M94.58 99.43l.92 2.88.6-.04-1.08.7.68-.1.6 2.12m7.42-5.02v5m-1.2-5v5m-1.2-5v5m-1.2-5v5m-1.2-5v4.9m-1.2-4.9v4.9m-1.2-4.9v4.9m-1.2-4.9v1.66"/><path fill="#fff" d="M92.77 105.68h11.3v-.58h-11.3v.58zm11.58.3H92.47v-1.18h11.88v1.18z"/><path fill="none" stroke="#262626" stroke-width=".425" d="M92.77 105.68h11.3v-.58h-11.3v.58zm11.58.3H92.47v-1.18h11.88v1.18z"/><path fill="#fff" d="M52.5 115.9h.6v-15.34h-.6v15.33zm-.3-15.74h1.18v16.13H52.2v-16.14z"/><path fill="none" stroke="#262626" stroke-width=".495" d="M52.5 115.9h.6v-15.34h-.6v15.33zm-.3-15.74h1.18v16.13H52.2v-16.14z"/><path fill="none" stroke="#000" stroke-width=".425" d="M95.23 102.95v1.93m-1.2-4.9v4.9m-1.2-4.9v4.9m2.35 1.15v4.9m-1.2-4.9v4.9m-1.2-4.9v4.9m11.03-4.93v5m-1.18-5v5m-1.2-5v5m-1.33-5v5m-1.2-5v4.9m-1.2-4.9v4.9m-1.2-4.9v4.9"/><path fill="none" stroke="#262626" stroke-width="1.173" stroke-miterlimit="10" d="M105.08 105.16v6.45M88.66 99.6v11.3h16.42v13.2h6.75"/><path fill="none" stroke="#000" stroke-width=".442" d="M105.33 110.63h6.3m-6.3 1.2h6.3m-6.3 1.2h6.3m-6.3 1.2h6.3m-6.3 1.2h6.3m-6.3 1.2h6.3m-6.3 1.2h6.3m-6.3 1.18h6.3m-6.3 1.2h6.3m-6.3 1.2h6.3m-6.3 1.2h6.3"/><path d="M57 78.14h-3.37v1.55h2.98v.93h-2.97v1.6h3.4v.93H52.6V77.2h4.4v.94z"/><defs><path id="bc" d="M-43 46.64h525.34v726.58H-43z"/></defs><clipPath><use xlink:href="#bc" overflow="visible"/></clipPath><defs><path id="bd" d="M-43 46.64h525.34v726.58H-43z"/></defs><clipPath id="be"><use xlink:href="#bd" overflow="visible"/></clipPath><path fill="#231F20" d="M420.47 302.83l-2.93-3.72h-.5v4.66h.52v-3.82l3 3.82h.43v-4.66h-.53v3.73zm-4.5-3.73h-3.38v4.66h3.4v-.48h-2.88v-1.63h2.54v-.48h-2.54v-1.6h2.84v-.47zm-5.22 2.56v2.1h.53v-4.65h-.53v2.07h-2.7v-2.06h-.5v4.66h.5v-2.1h2.7zm-4.13 1.36l-.34-.34c-.45.43-.87.67-1.5.67-1.03 0-1.8-.84-1.8-1.93s.76-1.9 1.8-1.9c.62 0 1.06.26 1.46.63l.35-.4c-.47-.43-.98-.73-1.82-.73-1.37 0-2.35 1.1-2.35 2.42 0 1.34.98 2.4 2.33 2.4.84 0 1.38-.33 1.86-.82m-6.22-3.43h1.57v-.5h-3.66v.5h1.57v4.16h.53v-4.17zm-3.64 4.16h.52v-4.66h-.52v4.66zm-2.95-2.62l2-2.04h-.67l-2.68 2.78v-2.78h-.52v4.66h.52v-1.25l1-1 1.78 2.26h.66l-2.1-2.62z" clip-path="url(#be)"/><defs><path id="bf" d="M-43 46.64h525.34v726.58H-43z"/></defs><clipPath id="bg"><use xlink:href="#bf" overflow="visible"/></clipPath><path fill="#231F20" d="M424.22 388.7v1.58h.5v-3.66h-.5v1.56h-4.17v.53h4.17zm.5-2.84v-3.36h-4.67v3.4h.48v-2.88h1.63v2.55h.48V383h1.6v2.84h.47zm-1.17-7.2c.42 0 .75.37.75.98 0 .48-.15.9-.5 1.34l.4.3c.38-.46.57-.95.57-1.63 0-.88-.53-1.53-1.27-1.53-.77 0-1.12.5-1.35 1.57-.2.96-.45 1.2-.9 1.2-.47 0-.8-.42-.8-1.04 0-.65.23-1.1.67-1.6l-.4-.32c-.5.56-.74 1.16-.74 1.9 0 .92.53 1.6 1.33 1.6.73 0 1.1-.5 1.33-1.53.22-1 .47-1.25.92-1.25m-1.17-2.03c-1.07 0-1.92-.76-1.92-1.82s.86-1.84 1.93-1.84c1.05 0 1.9.76 1.9 1.82s-.86 1.84-1.92 1.84m0 .55c1.3 0 2.4-.96 2.4-2.37s-1.1-2.38-2.4-2.38c-1.3 0-2.4.95-2.4 2.36s1.12 2.4 2.4 2.4m-2.32-8.4v3.14h.48v-2.62h4.17v-.53h-4.64zm.73-.93l.33-.34c-.42-.44-.67-.86-.67-1.5 0-1.02.84-1.8 1.93-1.8s1.9.77 1.9 1.8c0 .64-.26 1.08-.64 1.47l.4.36c.43-.47.73-.97.73-1.82 0-1.36-1.1-2.34-2.42-2.34-1.35 0-2.4 1-2.4 2.33 0 .84.32 1.37.8 1.85" clip-path="url(#bg)"/><defs><path id="bh" d="M-43 46.64h525.34v726.58H-43z"/></defs><clipPath id="bi"><use xlink:href="#bh" overflow="visible"/></clipPath><path fill="#231F20" d="M290.8 231v2.08h.53v-4.66h-.52v2.07h-2.68v-2.07h-.53v4.65h.52v-2.1h2.7zm-5.75-2.1h1.56v-.48h-3.65v.5h1.57v4.16h.53v-4.17zm-3.4 2.48h-2.12l1.06-2.38 1.05 2.38zm-.8-3h-.5l-2.12 4.7h.54l.55-1.23h2.54l.54 1.23h.57l-2.12-4.7zm-4.94 4.23h-1.55v-1.63h1.47c.8 0 1.24.3 1.24.8 0 .52-.44.84-1.15.84m-.17-2.1h-1.38v-1.6h1.4c.68 0 1.05.3 1.05.76 0 .55-.44.84-1.07.84m.08-2.07h-1.97v4.65h2.07c1.02 0 1.7-.47 1.7-1.28 0-.64-.46-.96-1-1.13.36-.16.73-.47.73-1.08 0-.72-.6-1.17-1.52-1.17" clip-path="url(#bi)"/><defs><path id="bj" d="M-43 46.64h525.34v726.58H-43z"/></defs><clipPath id="bk"><use xlink:href="#bj" overflow="visible"/></clipPath><path fill="#231F20" d="M449.44 429.2h-.88v1h.88v-1zm-2.8-1.1v2.1h.53v-4.65h-.52v2.06h-2.7v-2.05h-.5v4.65h.5v-2.1h2.7zm-4.12 1.36l-.35-.34c-.44.43-.86.67-1.5.67-1.02 0-1.8-.85-1.8-1.93s.77-1.92 1.8-1.92c.63 0 1.07.27 1.46.64l.36-.4c-.47-.44-.98-.73-1.82-.73-1.37 0-2.36 1.08-2.36 2.4 0 1.35 1 2.4 2.34 2.4.84 0 1.37-.32 1.86-.8m-5.08-3.93h-3.37v4.66h3.4v-.48h-2.87v-1.63h2.54v-.5h-2.54v-1.58h2.84v-.47zm-5.2.9v3.76h.5v-4.65h-.52l-1.7 2.53-1.7-2.53h-.52v4.65h.5v-3.77l1.7 2.5h.03l1.7-2.5z" clip-path="url(#bk)"/><defs><path id="bl" d="M-43 46.64h525.34v726.58H-43z"/></defs><clipPath id="bm"><use xlink:href="#bl" overflow="visible"/></clipPath><path fill="#231F20" d="M332.04 229.54c-1.04 0-1.84-.75-1.84-1.93v-1.08h3.7v1.1c0 1.17-.82 1.92-1.86 1.92m0 .54c1.33 0 2.33-1 2.33-2.47V226h-4.65v1.6c0 1.47 1.02 2.48 2.33 2.48m-2.33-5.47h1v-.86h-1v.87zm.78-5.8l3.87-1.33v-.58l-4.68 1.66v.44l3.76 1.28-3.77 1.28v.44l4.68 1.66v-.55l-3.88-1.32 3.9-1.27v-.43l-3.9-1.27z" clip-path="url(#bm)"/><defs><path id="bn" d="M-43 46.64h525.34v726.58H-43z"/></defs><clipPath id="bo"><use xlink:href="#bn" overflow="visible"/></clipPath><path fill="#231F20" d="M413.5 138.4v3.78h.5v-4.66h-.52l-1.7 2.54-1.7-2.54h-.52v4.66h.5v-3.77l1.7 2.5h.03l1.7-2.5zm-5.6 1.46c0 1.06-.76 1.9-1.82 1.9s-1.84-.85-1.84-1.9.76-1.93 1.83-1.93c1.06 0 1.83.86 1.83 1.93m.55-.02c0-1.3-.95-2.4-2.37-2.4-1.42 0-2.38 1.13-2.38 2.42s.95 2.4 2.37 2.4c1.4 0 2.38-1.13 2.38-2.4m-6.2 0c0 1.06-.76 1.9-1.82 1.9-1.07 0-1.84-.85-1.84-1.9s.75-1.93 1.8-1.93c1.08 0 1.85.86 1.85 1.93m.54-.02c0-1.3-.96-2.4-2.37-2.4-1.42 0-2.38 1.13-2.38 2.42s.95 2.4 2.36 2.4c1.43 0 2.4-1.13 2.4-2.4m-6.2-.93c0 .6-.5.97-1.2.97h-1.43V138h1.44c.76 0 1.2.35 1.2.93m.7 3.25l-1.43-1.9c.73-.14 1.26-.6 1.26-1.37 0-.82-.66-1.38-1.68-1.38h-2v4.66h.52v-1.8h1.33l1.35 1.8h.65z" clip-path="url(#bo)"/><defs><path id="bp" d="M-43 46.64h525.34v726.58H-43z"/></defs><clipPath id="bq"><use xlink:href="#bp" overflow="visible"/></clipPath><path fill="#231F20" d="M429.3 133.05v-1.86h-1.9v.46h1.4v1.16c-.3.26-.8.47-1.34.47-1.13 0-1.84-.84-1.84-1.95 0-1.05.74-1.92 1.77-1.92.65 0 1.05.22 1.4.53l.35-.4c-.47-.4-.95-.62-1.74-.62-1.38 0-2.32 1.14-2.32 2.42 0 1.34.9 2.4 2.36 2.4.8 0 1.44-.33 1.87-.7m-5.85-.3l-2.93-3.74h-.5v4.66h.52v-3.82l3 3.82h.43v-4.66h-.52v3.73zm-5.3.92h.52v-4.66h-.53v4.66zm-3.2-.65l-1.66-4h-.6l2 4.68h.48l2-4.68h-.57l-1.65 4zm-3.73.65h.52v-4.66h-.52v4.66zm-4.16 0h3.14v-.5h-2.62v-4.16h-.52v4.66zm-2.33-1h-.88v1h.88v-1zm-2.85.37v-1.86h-1.92v.46h1.42v1.16c-.32.26-.8.47-1.35.47-1.13 0-1.84-.84-1.84-1.95 0-1.05.73-1.92 1.76-1.92.66 0 1.06.22 1.42.53l.34-.4c-.47-.4-.95-.62-1.74-.62-1.4 0-2.33 1.14-2.33 2.42 0 1.34.9 2.4 2.37 2.4.78 0 1.43-.33 1.86-.7m-5.86-.3L393.1 129h-.5v4.66h.5v-3.82l3.02 3.82h.42v-4.66h-.5v3.73H396zm-5.3.92h.52v-4.66h-.53v4.66zm-1.88-.93l-2.94-3.73h-.5v4.66h.52v-3.82l3 3.82h.43v-4.66h-.5v3.73zm-5.32.93h.53v-4.66h-.53v4.66zm-1.7-2.32c0 1.04-.75 1.83-1.93 1.83h-1.1v-3.7h1.1c1.17 0 1.92.82 1.92 1.86m.55-.02c0-1.3-1.02-2.32-2.48-2.32h-1.63v4.66h1.62c1.46 0 2.47-1.02 2.47-2.34" clip-path="url(#bq)"/><defs><path id="br" d="M-43 46.64h525.34v726.58H-43z"/></defs><clipPath id="bs"><use xlink:href="#br" overflow="visible"/></clipPath><path fill="#231F20" d="M344.42 363.67h-3.35v4.65h.52v-2.03h2.5v-.5h-2.5v-1.65h2.8l.02-.48zm-4.44 0h-3.37v4.65h3.4v-.48h-2.86v-1.63h2.54v-.47h-2.54v-1.6h2.84v-.46zm-5.02 1.4c0 .6-.5.97-1.2.97h-1.43v-1.9h1.44c.75 0 1.2.36 1.2.94m.7 3.24l-1.44-1.9c.73-.14 1.26-.6 1.26-1.36 0-.84-.67-1.4-1.7-1.4h-2v4.66h.53v-1.8h1.33l1.35 1.8h.66z" clip-path="url(#bs)"/><defs><path id="bt" d="M-43 46.64h525.34v726.58H-43z"/></defs><clipPath id="bu"><use xlink:href="#bt" overflow="visible"/></clipPath><path fill="#231F20" d="M336.96 333.65l-1.33-3.88h-.57l1.66 4.7h.44l1.28-3.8 1.28 3.8h.44l1.67-4.7h-.56l-1.33 3.88-1.27-3.9h-.44l-1.27 3.9zM334 332.1c0 1.05-.75 1.84-1.93 1.84h-1.1v-3.68h1.1c1.18 0 1.93.8 1.93 1.85m.55 0c0-1.32-1-2.32-2.48-2.32h-1.6v4.65h1.6c1.47 0 2.48-1.02 2.48-2.34" clip-path="url(#bu)"/><defs><path id="bv" d="M-43 46.64h525.34v726.58H-43z"/></defs><clipPath id="bw"><use xlink:href="#bv" overflow="visible"/></clipPath><path fill="#231F20" d="M277.73 137.6h-.47l-.47 1.55h.28l.65-1.54zm-.94 0h-.48l-.48 1.55h.3l.65-1.54zm-3.4.27c.46 0 .86.3.86.8 0 .42-.24.75-.88 1.32l-1.52 1.34v.36h2.93v-.43h-2.24l1.12-1c.74-.64 1.07-1 1.07-1.63 0-.7-.54-1.2-1.3-1.2-.74 0-1.14.33-1.52.9l.35.25c.34-.48.65-.73 1.13-.73m-3.04-.26h-.47l-.48 1.55h.3l.64-1.54zm-3.68.23l.1.38.8-.23v3.73h.47v-4.23h-.35l-1.02.36zm-2.9 0l.1.38.8-.23v3.73h.46v-4.23h-.34l-1.03.36zm-3.37 3.37l-1.12-1.5 1.1-1.44h-.4l-.9 1.2-.9-1.2h-.4l1.1 1.45-1.13 1.5h.38l.94-1.26.94 1.26h.4zm-5.6-3.6h-.47l-.47 1.55h.3l.64-1.54zm-.94 0h-.47l-.48 1.55h.3l.64-1.54zm-3.6.23l.1.38.8-.23v3.73h.47v-4.23h-.35l-1.03.36zm-1.38-.22h-.47l-.46 1.55h.3l.64-1.54zm-3.7.23l.13.38.8-.23v3.73h.47v-4.23h-.35l-1.03.36zm-2.9 0l.12.38.8-.23v3.73h.46v-4.23h-.35l-1 .36z" clip-path="url(#bw)"/><defs><path id="bx" d="M-43 46.64h525.34v726.58H-43z"/></defs><clipPath id="by"><use xlink:href="#bx" overflow="visible"/></clipPath><path fill="#231F20" d="M277.28 129.9v3.78h.52v-4.66h-.53l-1.7 2.54-1.7-2.54h-.52v4.66h.5v-3.77l1.7 2.5h.04l1.68-2.5zm-5.6 1.46c0 1.06-.75 1.9-1.8 1.9-1.07 0-1.84-.85-1.84-1.9s.76-1.93 1.82-1.93 1.83.86 1.83 1.93m.54-.02c0-1.3-.95-2.4-2.37-2.4-1.4 0-2.38 1.13-2.38 2.42s.94 2.4 2.36 2.4c1.4 0 2.38-1.13 2.38-2.4m-6.2 0c0 1.06-.76 1.9-1.82 1.9s-1.84-.85-1.84-1.9.76-1.93 1.83-1.93 1.84.86 1.84 1.93m.55-.02c0-1.3-.96-2.4-2.38-2.4s-2.38 1.13-2.38 2.42.95 2.4 2.37 2.4c1.42 0 2.4-1.13 2.4-2.4m-6.2-.93c0 .6-.5.97-1.2.97h-1.44v-1.9h1.44c.75 0 1.2.35 1.2.93m.7 3.25l-1.44-1.9c.73-.14 1.26-.6 1.26-1.37 0-.82-.66-1.38-1.68-1.38h-2v4.66h.52v-1.8h1.33l1.34 1.8h.65zm-5.52-2.32c0 1.04-.75 1.83-1.93 1.83h-1.1v-3.7h1.1c1.18 0 1.93.82 1.93 1.86m.55-.02c0-1.3-1-2.32-2.48-2.32h-1.6v4.66h1.6c1.47 0 2.48-1.02 2.48-2.34m-5.2-2.32h-3.35v4.66h3.4v-.48h-2.87v-1.63h2.55v-.48h-2.54v-1.6h2.85v-.48zm-6.07 4.2h-1.56v-1.66h1.47c.8 0 1.24.3 1.24.8 0 .53-.43.85-1.14.85m-.18-2.1h-1.38v-1.6h1.4c.68 0 1.05.3 1.05.76 0 .55-.44.84-1.07.84m.08-2.08h-1.98v4.66h2.07c1.02 0 1.7-.47 1.7-1.28 0-.64-.46-.96-1-1.13.35-.16.73-.47.73-1.08 0-.72-.6-1.18-1.52-1.18" clip-path="url(#by)"/></g><defs><path id="bz" d="M45.5 146.6h100.16v4.57H45.5z"/></defs><clipPath id="bA"><use xlink:href="#bz" overflow="visible"/></clipPath><path fill="#231F20" d="M145.66 147v-.3h-3.4v.3h1.53v4.1h.32V147h1.54zm-5.8 4.1v-.3h-2.84v-1.78h2.53v-.3h-2.53V147h2.8v-.3h-3.12v4.4h3.17zm-5.87 0v-.3h-2.85v-1.78h2.53v-.3h-2.53V147h2.8v-.3h-3.13v4.4H134zm-6.3-3.13c0 .63-.53 1-1.27 1h-1.5V147h1.52c.8 0 1.26.36 1.26.95v.02zm.5 3.13l-1.45-1.9c.74-.1 1.3-.5 1.3-1.25s-.63-1.26-1.58-1.26h-1.85v4.4h.32v-1.83h1.45l1.4 1.83h.4zm-6.23-4.1v-.3h-3.4v.3h1.53v4.1h.33V147h1.54zm-5.73 2.96v-.02c0-.64-.42-1-1.45-1.2-1.05-.23-1.3-.5-1.3-.98 0-.47.44-.84 1.1-.84.47 0 .9.14 1.3.5l.2-.26c-.44-.36-.86-.54-1.5-.54-.82 0-1.42.5-1.42 1.16v.02c0 .66.43 1.02 1.5 1.24 1 .2 1.23.47 1.23.94 0 .5-.44.88-1.1.88-.65 0-1.1-.2-1.58-.65l-.22.25c.53.48 1.07.7 1.78.7.85 0 1.46-.48 1.46-1.2m-11.16 1.15v-4.4h-.3v3.83l-3.06-3.84h-.3v4.4h.3v-3.92l3.1 3.92h.26zm-6.77-2.2c0 1.1-.77 1.98-1.86 1.98-1.1 0-1.9-.9-1.9-2s.8-1.97 1.88-1.97c1.1 0 1.9.9 1.9 2zm.35 0s0 0 0-.02c0-1.2-.88-2.27-2.2-2.27-1.35 0-2.24 1.1-2.24 2.3 0 1.2.9 2.27 2.22 2.27 1.34 0 2.23-1.07 2.23-2.28M92.1 147v-.3h-3.4v.3h1.54v4.1h.33V147h1.54zm-5.8 3.5v-1.7h-1.78v.3H86v1.28c-.33.27-.85.5-1.4.5-1.2 0-1.9-.85-1.9-2 0-1.06.75-1.97 1.82-1.97.66 0 1.07.23 1.4.54l.23-.25c-.44-.37-.9-.6-1.6-.6-1.33 0-2.2 1.1-2.2 2.3 0 1.25.83 2.27 2.22 2.27.72 0 1.34-.3 1.74-.66m-6.7.6v-4.4h-.33v3.83l-3.04-3.84h-.3v4.4h.3v-3.92l3.1 3.92h.26zm-6.7-4.4h-.3v4.4h.3v-4.4zm-3.32 4.4v-4.4h-.33v2.03h-2.82v-2.04h-.33v4.4h.33v-2.07h2.82v2.07h.33zm-6.2-1.14v-.02c0-.64-.44-1-1.46-1.2-1.04-.23-1.28-.5-1.28-.98 0-.47.43-.84 1.07-.84.5 0 .92.14 1.33.5l.2-.26c-.44-.36-.86-.54-1.5-.54-.82 0-1.42.5-1.42 1.16v.02c0 .66.44 1.02 1.5 1.24 1 .2 1.24.47 1.24.94 0 .5-.45.88-1.1.88-.66 0-1.1-.2-1.6-.65l-.2.25c.52.48 1.06.7 1.77.7.86 0 1.47-.48 1.47-1.2m-6.5-.38h-2.33l1.17-2.55 1.17 2.55zm1.06 1.53l-2.06-4.44h-.3l-2.07 4.44h.34l.56-1.24H57l.57 1.24h.36zm-6.1-4.4h-.34l-1.4 3.9-1.3-3.92h-.25l-1.3 3.93-1.37-3.9h-.37l1.6 4.43h.28l1.3-3.83 1.28 3.83h.26l1.6-4.44z" clip-path="url(#bA)"/></svg>