<svg xmlns="http://www.w3.org/2000/svg" width="513.359" height="495.36" xmlns:xlink="http://www.w3.org/1999/xlink"><path fill="#fff" d="M78.8 59.52h33.15v44.2H78.8zM111.95 59.52h33.15v44.2h-33.15zM144.25 111.37v-7.65h-23.8v7.65h-8.5v41.65h33.15v-41.65z"/><path fill="#BBBDBF" d="M78.8 110.52H58.4v22.1H45.65v20.4H78.8z"/><path fill="#fff" d="M77.95 110.52v42.5h34v-17h-6.8v-13.6H89v-12.75zM45.65 58.67h32.3v45.05h-13.6v-6.8H60.1v-10.2H45.65z"/><defs><path id="a" d="M-55.04 57.4h528.52v656.7H-55.04z"/></defs><clipPath id="b"><use xlink:href="#a" overflow="visible"/></clipPath><path fill="none" stroke="#262626" stroke-width="2.053" stroke-miterlimit="10" d="M145 153.25H45.3v-94.3H145z" clip-path="url(#b)"/><path fill="none" stroke="#262626" stroke-width="1.173" stroke-miterlimit="10" d="M58.74 110.87h61.45v-7.33M49.05 96.5h11.3m-11.6 7.92h10v.88m-.02 3.23v24.2H46.28m-.88-28.3h3.37V86.37h11.6V96.8h3.95v7.03h81.1m-66.88 49.72v-43.02m33.3 43.02v-43.02m0-7.28V59.62M78.4 103.25V59.62"/><defs><path id="c" d="M-55.04 57.4h528.52v656.7H-55.04z"/></defs><clipPath id="d"><use xlink:href="#c" overflow="visible"/></clipPath><path fill="none" stroke="#000" stroke-width=".425" d="M55.4 105.22c0 1.8 1.45 3.25 3.25 3.25m-3.26-3.25h3.25v-.18H55.4v.18zm55.04 8.8c-1.8 0-3.25-1.45-3.25-3.24m3.43 3.25h-.2v-3.25h.2v3.25zm-33.24-.08c-1.8 0-3.26-1.45-3.26-3.25m3.44 3.25h-.2v-3.25h.2v3.25zm35.7.08c1.8 0 3.26-1.46 3.26-3.26m-3.43 3.26h.2v-3.25h-.2v3.25zm-32.5-.08c1.8 0 3.25-1.45 3.25-3.25m-3.43 3.25h.18v-3.25h-.18v3.25zm33.48-13.53c1.8 0 3.26 1.46 3.26 3.25m-3.44-3.25h.2v3.25h-.2v-3.25zm-18.8-.1c-1.78 0-3.24 1.45-3.24 3.24m3.44-3.25h-.2v3.27h.2v-3.26zm-27.36 2.28c0-1.8-1.45-3.25-3.25-3.25m3.27 3.25H64.5v.2h3.27v-.2z" clip-path="url(#d)"/><path fill="none" stroke="#000" stroke-width=".452" d="M49.35 119.67h8.96m-12.2 1.2h12.2m-12.22 1.2h12.2m-12.16 1.2h12.23m-12.2 1.2h12.2m-12.2 1.2h12.2m-12.17 1.24h12.17"/><path fill="none" stroke="#000" stroke-width=".425" d="M46.13 122.42l3.66-2.7-.2-.55.93.88-.26-.64 1.76-1.06m-6.24-6.62h6.37m-6.38 1.2h6.37m-6.38 1.2h6.37m-6.38 1.2h6.37m-6.38 1.2h6.37m-6.38 1.18h6.3m-6.43 1.2h5.47m-5.12.95h3.56"/><path fill="none" stroke="#000" stroke-width=".452" d="M51.6 118.47h6.77"/><path fill="none" stroke="#000" stroke-width=".425" d="M94.43 110.72l.93 2.88.6-.05-1.1.7.7-.1.6 2.1m7.4-5v5m-1.2-5v5m-1.2-5v5m-1.18-5v5m-1.2-5v4.9m-1.2-4.9v4.9m-1.2-4.9v4.9m-1.2-4.9v1.66"/><path fill="#fff" d="M92.62 116.97h11.3v-.58H92.6v.57zm11.6.3H92.3v-1.18h11.9v1.17z"/><path fill="none" stroke="#262626" stroke-width=".425" d="M92.62 116.97h11.3v-.58H92.6v.57zm11.6.3H92.3v-1.18h11.9v1.17z"/><path fill="#fff" d="M52.36 127.18h.58v-15.33h-.58v15.33zm-.3-15.73h1.18v16.13h-1.18v-16.13z"/><path fill="none" stroke="#262626" stroke-width=".495" d="M52.36 127.18h.58v-15.33h-.58v15.33zm-.3-15.73h1.18v16.13h-1.18v-16.13z"/><path fill="none" stroke="#000" stroke-width=".425" d="M95.08 114.24v1.93m-1.2-4.9v4.9m-1.2-4.9v4.9m2.36 1.15v4.9m-1.2-4.9v4.9m-1.2-4.9v4.9m11.03-4.93v4.98m-1.2-5v5m-1.2-5v5m-1.32-5v5m-1.2-5v4.9m-1.2-4.9v4.9m-1.2-4.9v4.9"/><path fill="none" stroke="#262626" stroke-width="1.173" stroke-miterlimit="10" d="M104.94 116.45v6.45M88.5 110.87v11.3h16.44v13.2h6.74"/><path fill="none" stroke="#000" stroke-width=".442" d="M105.18 121.92h6.3m-6.3 1.2h6.3m-6.3 1.2h6.3m-6.3 1.2h6.3m-6.3 1.2h6.3m-6.3 1.2h6.3m-6.3 1.2h6.3m-6.3 1.18h6.3m-6.3 1.2h6.3m-6.3 1.2h6.3m-6.3 1.2h6.3"/><path d="M56.85 89.43h-3.37v1.55h3v.93h-3v1.6h3.4v.95h-4.44V88.5h4.4v.93z"/><defs><path id="e" d="M-55.04 57.4h528.52v656.7H-55.04z"/></defs><clipPath><use xlink:href="#e" overflow="visible"/></clipPath><defs><path id="f" d="M-55.04 57.4h528.52v656.7H-55.04z"/></defs><clipPath id="g"><use xlink:href="#f" overflow="visible"/></clipPath><path fill="#231F20" d="M445.3 143.43l-2.93-3.73h-.5v4.65h.53v-3.8l3 3.8h.42v-4.65h-.5v3.73zm-4.5-3.73h-3.37v4.65h3.4v-.47h-2.88v-1.63h2.54v-.48h-2.55v-1.6h2.84v-.47zm-5.22 2.56v2.1h.53v-4.66h-.52v2.07h-2.68v-2.07h-.53v4.65h.53v-2.1h2.7zm-4.13 1.36l-.34-.34c-.44.42-.86.67-1.5.67-1.02 0-1.8-.85-1.8-1.93s.77-1.92 1.8-1.92c.64 0 1.08.27 1.47.64l.36-.38c-.47-.44-.98-.74-1.82-.74-1.36 0-2.34 1.08-2.34 2.4 0 1.36 1 2.4 2.33 2.4.84 0 1.37-.3 1.85-.8m-6.2-3.44h1.55v-.48h-3.66v.5h1.57v4.15h.54v-4.16zm-3.66 4.17h.5v-4.65h-.5v4.65zm-2.96-2.62l2-2.03h-.68l-2.68 2.78v-2.78h-.52v4.65h.52v-1.25l1-1 1.78 2.25h.66l-2.08-2.62z" clip-path="url(#g)"/><defs><path id="h" d="M-55.04 57.4h528.52v656.7H-55.04z"/></defs><clipPath id="i"><use xlink:href="#h" overflow="visible"/></clipPath><path fill="#231F20" d="M401.38 356.44v3.77h.52v-4.64h-.53l-1.7 2.54-1.7-2.54h-.52v4.65h.5v-3.75l1.7 2.5h.03l1.7-2.5zm-5.6 1.45c0 1.06-.75 1.9-1.8 1.9-1.08 0-1.85-.85-1.85-1.92 0-1.06.76-1.92 1.83-1.92 1.06 0 1.83.87 1.83 1.93m.54-.02c0-1.3-.95-2.4-2.37-2.4-1.42 0-2.38 1.12-2.38 2.4 0 1.3.94 2.4 2.36 2.4 1.4 0 2.38-1.1 2.38-2.4m-6.2 0c0 1.08-.76 1.93-1.82 1.93s-1.84-.85-1.84-1.92c0-1.06.76-1.92 1.82-1.92s1.84.87 1.84 1.93m.54-.02c0-1.3-.95-2.4-2.36-2.4s-2.38 1.12-2.38 2.4c0 1.3.95 2.4 2.36 2.4 1.42 0 2.38-1.1 2.38-2.4m-6.2-.9c0 .6-.5.95-1.2.95h-1.42v-1.9h1.44c.75 0 1.2.36 1.2.94m.7 3.24l-1.44-1.9c.73-.12 1.26-.57 1.26-1.35 0-.84-.66-1.4-1.68-1.4h-2v4.66h.52v-1.8h1.33l1.34 1.8h.64z" clip-path="url(#i)"/><defs><path id="j" d="M-55.04 57.4h528.52v656.7H-55.04z"/></defs><clipPath id="k"><use xlink:href="#j" overflow="visible"/></clipPath><path fill="#231F20" d="M417.2 351.08v-1.85h-1.92v.47h1.42v1.16c-.32.26-.82.46-1.35.46-1.13 0-1.84-.82-1.84-1.94 0-1.04.75-1.9 1.78-1.9.66 0 1.06.2 1.42.52l.34-.4c-.47-.4-.95-.62-1.74-.62-1.4 0-2.33 1.13-2.33 2.42 0 1.34.9 2.4 2.36 2.4.8 0 1.44-.33 1.87-.72m-5.85-.3l-2.94-3.72h-.48v4.65h.5v-3.8l3.02 3.8h.42v-4.64h-.5v3.73zm-5.32.93h.53v-4.64h-.53v4.65zm-3.2-.63l-1.65-4h-.58l2 4.68h.47l2-4.7h-.57l-1.66 4.02zm-3.72.64h.53v-4.64h-.52v4.65zm-4.15 0h3.14v-.47h-2.63v-4.17h-.52v4.65zm-2.33-.98h-.88v1h.88v-1zm-2.85.36v-1.85h-1.92v.47h1.42v1.16c-.32.26-.8.46-1.35.46-1.13 0-1.84-.82-1.84-1.94 0-1.04.74-1.9 1.77-1.9.66 0 1.06.2 1.42.52l.34-.4c-.46-.4-.95-.62-1.73-.62-1.4 0-2.33 1.13-2.33 2.42 0 1.34.9 2.4 2.36 2.4.8 0 1.44-.33 1.87-.72m-5.85-.3l-2.94-3.72h-.5v4.65h.52v-3.8l3 3.8h.43v-4.64h-.52v3.73h.02zm-5.32.93h.53v-4.64h-.53v4.65zm-1.87-.9l-2.94-3.74h-.5v4.65h.5v-3.8l3.02 3.8h.42v-4.64h-.5v3.73zm-5.32.9h.54v-4.64h-.53v4.65zm-1.7-2.3c0 1.03-.74 1.83-1.92 1.83h-1.1v-3.7h1.1c1.18.02 1.93.83 1.93 1.86m.56-.02c0-1.3-1.02-2.32-2.48-2.32h-1.6v4.65h1.6c1.46 0 2.48-1 2.48-2.32" clip-path="url(#k)"/><defs><path id="l" d="M-55.04 57.4h528.52v656.7H-55.04z"/></defs><clipPath id="m"><use xlink:href="#l" overflow="visible"/></clipPath><path fill="#231F20" d="M265.46 364.04H265l-.48 1.55h.3l.64-1.56zm-.94 0h-.47l-.47 1.55h.3l.64-1.56zm-3.38.26c.46 0 .85.32.85.8 0 .43-.25.75-.9 1.33l-1.5 1.34v.37h2.92v-.43h-2.22l1.12-1c.74-.63 1.06-1 1.06-1.63 0-.7-.54-1.2-1.3-1.2-.74 0-1.14.34-1.5.9l.33.26c.35-.47.66-.72 1.14-.72m-3.05-.26h-.48l-.47 1.55h.3l.64-1.56zm-3.7.22l.12.4.8-.26v3.74h.46v-4.23h-.35l-1.02.36zm-2.87 0l.1.4.8-.26v3.74h.47v-4.23h-.35l-1.02.36zm-3.36 3.38l-1.13-1.5 1.1-1.44h-.4l-.9 1.2-.9-1.2h-.4l1.1 1.44-1.13 1.5h.4l.93-1.27.94 1.27h.4zm-5.6-3.6h-.48l-.48 1.55h.3l.64-1.56zm-.96 0h-.45l-.48 1.55h.3l.64-1.56zm-3.6.22l.12.4.8-.26v3.74h.46v-4.23h-.35l-1.02.36zm-1.37-.22h-.46l-.48 1.55h.3l.63-1.56zm-3.68.22l.1.4.8-.26v3.74h.47v-4.23h-.35l-1.02.36zm-2.88 0l.1.4.8-.26v3.74h.47v-4.23h-.35l-1.03.36z" clip-path="url(#m)"/><defs><path id="n" d="M-55.04 57.4h528.52v656.7H-55.04z"/></defs><clipPath id="o"><use xlink:href="#n" overflow="visible"/></clipPath><path fill="#231F20" d="M265.06 356.34v3.78h.52v-4.66h-.53l-1.7 2.54-1.7-2.54h-.52v4.66h.52v-3.77l1.7 2.48 1.7-2.5zm-5.58 1.45c0 1.06-.76 1.9-1.83 1.9s-1.83-.86-1.83-1.92.76-1.9 1.82-1.9 1.84.85 1.84 1.9m.54 0c0-1.3-.95-2.4-2.37-2.4-1.4 0-2.38 1.12-2.38 2.4 0 1.3.95 2.4 2.37 2.4 1.42 0 2.38-1.1 2.38-2.4m-6.2 0c0 1.08-.76 1.93-1.82 1.93s-1.83-.86-1.83-1.92.75-1.9 1.82-1.9c1.05 0 1.82.85 1.82 1.9m.55 0c0-1.3-.95-2.4-2.37-2.4-1.42 0-2.38 1.12-2.38 2.4 0 1.3.95 2.4 2.36 2.4 1.42 0 2.4-1.1 2.4-2.4m-6.2-.9c0 .6-.5.95-1.2.95h-1.44v-1.9h1.44c.75 0 1.2.36 1.2.94m.7 3.24l-1.44-1.9c.73-.12 1.26-.57 1.26-1.35 0-.84-.66-1.4-1.68-1.4h-2v4.66h.52v-1.8h1.33l1.35 1.8h.65zm-5.52-2.3c0 1.03-.75 1.83-1.93 1.83h-1.1v-3.7h1.1c1.18 0 1.93.83 1.93 1.86m.55-.02c0-1.32-1-2.32-2.47-2.32h-1.6v4.65h1.6c1.47 0 2.48-1 2.48-2.32m-5.17-2.32h-3.37v4.65h3.4v-.47h-2.87V358h2.53v-.48h-2.54v-1.58h2.83v-.48zm-6.1 4.18h-1.55V358h1.47c.8 0 1.24.3 1.24.8 0 .53-.45.84-1.16.84m-.18-2.1h-1.38v-1.6h1.4c.68 0 1.04.3 1.04.76 0 .55-.43.83-1.06.83m.08-2.07h-1.98v4.65h2.07c1.02 0 1.7-.46 1.7-1.26 0-.65-.46-.97-1-1.13.36-.15.73-.47.73-1.08 0-.7-.6-1.16-1.52-1.16" clip-path="url(#o)"/><defs><path id="p" d="M-55.04 57.4h528.52v656.7H-55.04z"/></defs><clipPath id="q"><use xlink:href="#p" overflow="visible"/></clipPath><path fill="#231F20" d="M350.86 148.74v2.1h.52v-4.66h-.52v2.07h-2.7v-2.07h-.5v4.65h.5v-2.1h2.7zm-5.76-2.08h1.56v-.48H343v.48h1.56v4.17h.54v-4.17zm-3.4 2.47h-2.12l1.06-2.37 1.06 2.37zm-.8-2.98h-.5l-2.12 4.68h.54l.55-1.23h2.54l.55 1.23h.57l-2.12-4.68zm-4.94 4.2h-1.56v-1.63h1.47c.8 0 1.24.3 1.24.8 0 .53-.43.84-1.14.84m-.18-2.1h-1.38v-1.6h1.42c.66 0 1.03.3 1.03.76 0 .55-.44.83-1.07.83m.08-2.07h-1.98v4.65h2.07c1.02 0 1.7-.47 1.7-1.27 0-.65-.46-.97-1-1.13.36-.16.73-.47.73-1.1 0-.7-.6-1.15-1.52-1.15" clip-path="url(#q)"/><defs><path id="r" d="M-55.04 57.4h528.52v656.7H-55.04z"/></defs><clipPath id="s"><use xlink:href="#r" overflow="visible"/></clipPath><path fill="#231F20" d="M302.2 187.9c1.04 0 1.84.74 1.84 1.9v1.1h-3.7v-1.08c.02-1.18.83-1.93 1.86-1.93m0-.56c-1.33 0-2.33 1-2.33 2.48v1.6h4.65v-1.6c0-1.47-1-2.48-2.33-2.48m2.32 5.47h-1v.88h1v-.87zm-.77 5.83l-3.88 1.33v.57l4.7-1.66v-.44l-3.8-1.3 3.8-1.26v-.45l-4.7-1.66v.55l3.88 1.34-3.9 1.28v.43l3.9 1.28z" clip-path="url(#s)"/><defs><path id="t" d="M-55.04 57.4h528.52v656.7H-55.04z"/></defs><clipPath id="u"><use xlink:href="#t" overflow="visible"/></clipPath><path fill="#231F20" d="M397.4 195.18h-3.36v4.65h.53v-2.02h2.52v-.47h-2.53v-1.67h2.82v-.48zm-4.45 0h-3.36v4.65h3.38v-.48h-2.87v-1.62h2.55v-.48h-2.54v-1.6h2.85v-.47zm-5.02 1.4c0 .6-.5.97-1.2.97h-1.42v-1.9h1.44c.75 0 1.2.36 1.2.94m.7 3.23l-1.44-1.9c.73-.13 1.26-.58 1.26-1.36 0-.84-.65-1.4-1.68-1.4h-2v4.66h.52v-1.8h1.33l1.35 1.8h.65z" clip-path="url(#u)"/><defs><path id="v" d="M-55.04 57.4h528.52v656.7H-55.04z"/></defs><clipPath id="w"><use xlink:href="#v" overflow="visible"/></clipPath><path fill="#231F20" d="M392 164.2l-1.34-3.88h-.58l1.67 4.7h.43l1.3-3.8 1.26 3.8h.45l1.65-4.7h-.55l-1.33 3.88-1.28-3.9h-.44l-1.27 3.9zm-2.98-1.54c0 1.04-.75 1.83-1.92 1.83H386v-3.7h1.1c1.17 0 1.92.82 1.92 1.86m.55-.02c0-1.3-1-2.32-2.47-2.32h-1.62v4.66h1.62c1.46 0 2.47-1.02 2.47-2.34" clip-path="url(#w)"/><defs><path id="x" d="M-55.04 57.4h528.52v656.7H-55.04z"/></defs><clipPath id="y"><use xlink:href="#x" overflow="visible"/></clipPath><path fill="#231F20" d="M237.84 274.26h1.56v-.48h-3.65v.48h1.56v4.17h.54v-4.17zm-2.85-.48h-3.37v4.65h3.4v-.48h-2.88v-1.62h2.54v-.48h-2.55v-1.6H235v-.47zm-7.22 1.16c0-.42.38-.76 1-.76.46 0 .9.16 1.33.5l.32-.4c-.48-.37-.96-.57-1.64-.57-.9 0-1.53.55-1.53 1.3 0 .76.5 1.1 1.56 1.34 1 .2 1.22.45 1.22.9 0 .46-.4.8-1.03.8-.66 0-1.12-.23-1.6-.67l-.34.4c.56.5 1.17.73 1.9.73.93 0 1.6-.52 1.6-1.32 0-.72-.5-1.1-1.52-1.32-1.03-.23-1.26-.47-1.26-.92m-2.03 1.17c0 1.08-.76 1.93-1.83 1.93s-1.83-.86-1.83-1.93c0-1.06.75-1.92 1.8-1.92 1.07 0 1.85.87 1.85 1.93m.54 0c0-1.3-.96-2.4-2.38-2.4-1.4 0-2.38 1.13-2.38 2.4 0 1.3.95 2.4 2.37 2.4 1.43 0 2.4-1.1 2.4-2.4m-8.4 2.33h3.15v-.48h-2.62v-4.17h-.53v4.65zm-.92-.73l-.34-.34c-.45.42-.87.67-1.5.67-1.03 0-1.8-.85-1.8-1.93s.76-1.9 1.8-1.9c.62 0 1.06.25 1.46.62l.35-.38c-.46-.44-.97-.74-1.8-.74-1.38 0-2.36 1.08-2.36 2.4-.02 1.36.97 2.4 2.32 2.4.84 0 1.38-.3 1.86-.8" clip-path="url(#y)"/><defs><path id="z" d="M-55.04 57.4h528.52v656.7H-55.04z"/></defs><clipPath id="A"><use xlink:href="#z" overflow="visible"/></clipPath><path fill="#231F20" d="M306.8 270.37h-.86v1h.87v-1zm-2.78-1.1v2.1h.52v-4.66h-.52v2.08h-2.7v-2.07h-.5v4.66h.5v-2.1h2.7zm-4.13 1.35l-.36-.33c-.44.4-.86.66-1.5.66-1.02 0-1.8-.85-1.8-1.93s.77-1.92 1.8-1.92c.63 0 1.07.28 1.46.65l.36-.38c-.46-.44-.97-.74-1.8-.74-1.38 0-2.37 1.08-2.37 2.4 0 1.36.98 2.4 2.33 2.4.84 0 1.37-.3 1.86-.8m-5.1-3.92h-3.36v4.66h3.4v-.48h-2.87v-1.63h2.54v-.47h-2.53v-1.6h2.84v-.47zm-5.2.9v3.76h.53v-4.65h-.53l-1.7 2.55-1.7-2.54h-.53v4.66h.52v-3.76l1.68 2.5h.03l1.7-2.5z" clip-path="url(#A)"/><path fill="#BBBDBF" d="M171.16 253.78v183.74l26.44-.87v-13.43h-14.3v-169z"/><path fill="#fff" d="M304.44 62.66h59.4v30.7h-59.4z"/><path fill="none" stroke="#000" stroke-width=".78" d="M304.44 62.66h59.4v30.7h-59.4z"/><defs><path id="B" d="M-55.04 57.4h528.52v656.7H-55.04z"/></defs><clipPath id="C"><use xlink:href="#B" overflow="visible"/></clipPath><circle cx="317.977" cy="77.867" r="1.26" fill="none" stroke="#231F20" stroke-width=".65" clip-path="url(#C)"/><defs><path id="D" d="M-55.04 57.4h528.52v656.7H-55.04z"/></defs><clipPath id="E"><use xlink:href="#D" overflow="visible"/></clipPath><path fill="none" stroke="#000" stroke-width=".65" d="M360.45 77.92c0 8.8-2.03 12.02-4.88 12.02h-43.4c-.68 0-2.12-.18-2.12-2.02V67.9c0-1.84 1.44-2.03 2.13-2.03h43.39c2.85 0 4.88 3.3 4.88 12.05z" clip-path="url(#E)"/><defs><path id="F" d="M-55.04 57.4h528.52v656.7H-55.04z"/></defs><clipPath id="G"><use xlink:href="#F" overflow="visible"/></clipPath><path fill="none" stroke="#231F20" stroke-width=".585" d="M307.84 72.52c.7 0 1.28.58 1.28 1.3 0 .7-.57 1.28-1.28 1.28-.7 0-1.3-.58-1.28-1.3 0-.7.57-1.28 1.28-1.28zm0 8c.7 0 1.28.56 1.28 1.28 0 .7-.57 1.28-1.28 1.3-.7-.02-1.3-.6-1.3-1.3 0-.72.58-1.3 1.3-1.3z" clip-path="url(#G)"/><defs><path id="H" d="M-55.04 57.4h528.52v656.7H-55.04z"/></defs><clipPath id="I"><use xlink:href="#H" overflow="visible"/></clipPath><path fill="#fff" d="M307.46 79.6c-1.06 0-1.9-.7-1.9-1.77 0-1.05.84-1.63 1.9-1.63l7.27.68c.7 0 .7 1.93 0 1.93l-7.27.8z" clip-path="url(#I)"/><defs><path id="J" d="M-55.04 57.4h528.52v656.7H-55.04z"/></defs><clipPath id="K"><use xlink:href="#J" overflow="visible"/></clipPath><path fill="none" stroke="#231F20" stroke-width=".585" d="M307.46 79.6c-1.06 0-1.9-.7-1.9-1.77 0-1.05.84-1.63 1.9-1.63l7.27.68c.7 0 .7 1.93 0 1.93l-7.27.8z" clip-path="url(#K)"/><path fill="none" stroke="#000" stroke-width=".78" d="M310.05 179.47v26.44m0-5.15h3.67l.85-3.17v-9.7l-.85-3.22h-3.67m-16.92 21.25h24.1v-26.24h-24.1v26.25z"/><path fill="#fff" d="M311.63 180.94v2.12l-1.47.47v-3.06z"/><path fill="none" stroke="#231F20" stroke-width=".78" d="M311.63 180.94v2.12l-1.47.47v-3.06z"/><defs><path id="L" d="M-55.04 57.4h528.52v656.7H-55.04z"/></defs><clipPath id="M"><use xlink:href="#L" overflow="visible"/></clipPath><path fill="none" stroke="#000" stroke-width=".975" d="M453.12 87.5c-15.9 0-28.82-12.9-28.82-28.8m30.48 28.83h-1.66V58.69h1.66v28.83zM213.85 312.06c15.92 0 28.82-12.9 28.82-28.8m-30.48 28.82h1.65v-28.83h-1.66v28.83zm151.05-127.2c-15.9 0-28.8 12.9-28.8 28.82m30.46-28.83h-1.65v28.83h1.66v-28.83z" clip-path="url(#M)"/><defs><path id="N" d="M-55.04 57.4h528.52v656.7H-55.04z"/></defs><clipPath id="O"><use xlink:href="#N" overflow="visible"/></clipPath><path fill="#fff" d="M307.7 104.23c5.8 0 12.17 3.52 12.17 7.87 0 4.34-6.4 7.86-12.18 7.86-5.82 0-8.84-3.52-8.84-7.86 0-4.35 3.02-7.87 8.83-7.87" clip-path="url(#O)"/><defs><path id="P" d="M-55.04 57.4h528.52v656.7H-55.04z"/></defs><clipPath id="Q"><use xlink:href="#P" overflow="visible"/></clipPath><path fill="none" stroke="#000" stroke-width=".78" d="M307.7 104.23c5.8 0 12.17 3.52 12.17 7.87 0 4.34-6.4 7.86-12.18 7.86-5.82 0-8.84-3.52-8.84-7.86 0-4.35 3.02-7.87 8.83-7.87z" clip-path="url(#Q)"/><defs><path id="R" d="M-55.04 57.4h528.52v656.7H-55.04z"/></defs><clipPath id="S"><use xlink:href="#R" overflow="visible"/></clipPath><path fill="#fff" d="M300.77 116.8c.32 0 .6.27.6.6v2.75c0 .33-.28.6-.6.6h-.1c-.33 0-.6-.27-.6-.6v-2.75c0-.33.27-.6.6-.6h.1z" clip-path="url(#S)"/><defs><path id="T" d="M-55.04 57.4h528.52v656.7H-55.04z"/></defs><clipPath id="U"><use xlink:href="#T" overflow="visible"/></clipPath><path fill="none" stroke="#231F20" stroke-width=".78" d="M300.77 116.8c.32 0 .6.27.6.6v2.75c0 .33-.28.6-.6.6h-.1c-.33 0-.6-.27-.6-.6v-2.75c0-.33.27-.6.6-.6h.1z" clip-path="url(#U)"/><defs><path id="V" d="M-55.04 57.4h528.52v656.7H-55.04z"/></defs><clipPath id="W"><use xlink:href="#V" overflow="visible"/></clipPath><path fill="#fff" d="M300.06 121.16c0 .98-2.67 1.8-3.66 1.8s-3.66-.82-3.66-1.8V103.2c0-1 2.67-1.8 3.66-1.8s3.66.8 3.66 1.8v17.96z" clip-path="url(#W)"/><defs><path id="X" d="M-55.04 57.4h528.52v656.7H-55.04z"/></defs><clipPath id="Y"><use xlink:href="#X" overflow="visible"/></clipPath><path fill="none" stroke="#000" stroke-width=".78" d="M300.06 121.16c0 .98-2.67 1.8-3.66 1.8s-3.66-.82-3.66-1.8V103.2c0-1 2.67-1.8 3.66-1.8s3.66.8 3.66 1.8v17.96z" clip-path="url(#Y)"/><defs><path id="Z" d="M-55.04 57.4h528.52v656.7H-55.04z"/></defs><clipPath id="aa"><use xlink:href="#Z" overflow="visible"/></clipPath><path fill="#fff" d="M307.93 106.3c4.26 0 8.96 2.6 8.96 5.8 0 3.2-4.7 5.78-8.97 5.78-4.27 0-6.48-2.6-6.48-5.78 0-3.2 2.22-5.8 6.48-5.8" clip-path="url(#aa)"/><defs><path id="ab" d="M-55.04 57.4h528.52v656.7H-55.04z"/></defs><clipPath id="ac"><use xlink:href="#ab" overflow="visible"/></clipPath><path fill="none" stroke="#000" stroke-width=".65" d="M307.93 106.3c4.26 0 8.96 2.6 8.96 5.8 0 3.2-4.7 5.78-8.97 5.78-4.27 0-6.48-2.6-6.48-5.78 0-3.2 2.22-5.8 6.48-5.8z" clip-path="url(#ac)"/><path fill="none" stroke="#231F20" stroke-width=".78" d="M373.96 178.93h28.93V61.83m-112.35 76.26h24.05v31.4"/><path fill="#fff" d="M403 77.2l-25.67-.1-.05 30.23 25.67.06z"/><path fill="none" stroke="#000" stroke-width=".78" d="M403 77.2l-25.67-.1-.05 30.23 25.67.06z"/><path fill="none" stroke="#000" stroke-width=".39" d="M379.57 107.55V77.3"/><defs><path id="ad" d="M-55.04 57.4h528.52v656.7H-55.04z"/></defs><clipPath id="ae"><use xlink:href="#ad" overflow="visible"/></clipPath><path fill="#fff" d="M388.85 98.95c0-2.18-1.8-3.92-3.95-3.9-2.18 0-3.92 1.78-3.9 3.95 0 2.17 1.78 3.92 3.95 3.9 2.17 0 3.92-1.8 3.9-3.95" clip-path="url(#ae)"/><defs><path id="af" d="M-55.04 57.4h528.52v656.7H-55.04z"/></defs><clipPath id="ag"><use xlink:href="#af" overflow="visible"/></clipPath><path fill="none" stroke="#231F20" stroke-width=".65" d="M388.85 98.95c0-2.18-1.8-3.92-3.95-3.9-2.18 0-3.92 1.78-3.9 3.95 0 2.17 1.78 3.92 3.95 3.9 2.17 0 3.92-1.8 3.9-3.95z" clip-path="url(#ag)"/><defs><path id="ah" d="M-55.04 57.4h528.52v656.7H-55.04z"/></defs><clipPath id="ai"><use xlink:href="#ah" overflow="visible"/></clipPath><path fill="#fff" d="M388.77 87.17c-.02-2.17-1.8-3.9-3.96-3.9-2.16.02-3.9 1.8-3.9 3.96.03 2.16 1.8 3.92 3.97 3.9 2.16-.02 3.9-1.8 3.9-3.96" clip-path="url(#ai)"/><defs><path id="aj" d="M-55.04 57.4h528.52v656.7H-55.04z"/></defs><clipPath id="ak"><use xlink:href="#aj" overflow="visible"/></clipPath><path fill="none" stroke="#231F20" stroke-width=".65" d="M388.77 87.17c-.02-2.17-1.8-3.9-3.96-3.9-2.16.02-3.9 1.8-3.9 3.96.03 2.16 1.8 3.92 3.97 3.9 2.16-.02 3.9-1.8 3.9-3.96z" clip-path="url(#ak)"/><defs><path id="al" d="M-55.04 57.4h528.52v656.7H-55.04z"/></defs><clipPath id="am"><use xlink:href="#al" overflow="visible"/></clipPath><path fill="#fff" d="M399.54 98.87c-.02-2.17-1.8-3.92-3.95-3.9-2.2 0-3.93 1.8-3.92 3.95.02 2.17 1.8 3.92 3.97 3.9 2.16 0 3.9-1.78 3.9-3.95" clip-path="url(#am)"/><defs><path id="an" d="M-55.04 57.4h528.52v656.7H-55.04z"/></defs><clipPath id="ao"><use xlink:href="#an" overflow="visible"/></clipPath><path fill="none" stroke="#231F20" stroke-width=".65" d="M399.54 98.87c-.02-2.17-1.8-3.92-3.95-3.9-2.2 0-3.93 1.8-3.92 3.95.02 2.17 1.8 3.92 3.97 3.9 2.16 0 3.9-1.78 3.9-3.95z" clip-path="url(#ao)"/><defs><path id="ap" d="M-55.04 57.4h528.52v656.7H-55.04z"/></defs><clipPath id="aq"><use xlink:href="#ap" overflow="visible"/></clipPath><path fill="#fff" d="M399.45 87.1c0-2.18-1.78-3.92-3.95-3.9-2.17 0-3.92 1.78-3.9 3.95.02 2.17 1.8 3.92 3.96 3.9 2.17-.02 3.9-1.8 3.9-3.96" clip-path="url(#aq)"/><defs><path id="ar" d="M-55.04 57.4h528.52v656.7H-55.04z"/></defs><clipPath id="as"><use xlink:href="#ar" overflow="visible"/></clipPath><path fill="none" stroke="#231F20" stroke-width=".65" d="M399.45 87.1c0-2.18-1.78-3.92-3.95-3.9-2.17 0-3.92 1.78-3.9 3.95.02 2.17 1.8 3.92 3.96 3.9 2.17-.02 3.9-1.8 3.9-3.96z" clip-path="url(#as)"/><path fill="#fff" d="M402.9 78.62h1.2v28.17h-1.2z"/><path fill="none" stroke="#231F20" stroke-width=".78" d="M402.9 78.62h1.2v28.17h-1.2z"/><path fill="none" stroke="#000" stroke-width=".975" d="M268.88 267h-1.3m-81.68 2.44h82.98"/><path fill="none" stroke="#000" stroke-width=".975" stroke-dashoffset="3" d="M264.77 267h-9.83" stroke-dasharray="1.966,1.966,1.966,1.966"/><path fill="none" stroke="#000" stroke-width=".975" stroke-dashoffset="4" d="M253.53 267h-66" stroke-dasharray="2.13,2.13,2.13,2.13,2.13,2.13"/><path fill="none" stroke="#000" stroke-width=".975" d="M186.12 267h-1.3"/><path fill="none" stroke="#231F20" stroke-width=".78" d="M399.96 438.42h44.53m-111.5 0h45.5m-111.95.08h46.8m-115.7.1h50.7m-49.88-12.78h46.47m65.4 0h-43.62m110.17 0h-44.2m66.6.33h44.87"/><path fill="none" stroke="#000" stroke-width=".65" d="M405 179.96v35.75"/><path fill="none" stroke="#000" stroke-width=".78" d="M407.12 192.66h1.46v2.76h-1.46zM377.03 180.17h30.06v35.25h-30.07zM407.12 201.35h1.46v2.77h-1.46z"/><defs><path id="at" d="M-55.04 57.4h528.52v656.7H-55.04z"/></defs><clipPath id="au"><use xlink:href="#at" overflow="visible"/></clipPath><circle cx="303.338" cy="152.817" r="1.189" fill="none" stroke="#000" stroke-width=".52" clip-path="url(#au)"/><defs><path id="av" d="M-55.04 57.4h528.52v656.7H-55.04z"/></defs><clipPath id="aw"><use xlink:href="#av" overflow="visible"/></clipPath><path fill="none" stroke="#000" stroke-width=".65" d="M293.5 152.82c0-.64.52-1.16 1.16-1.16.64 0 1.15.52 1.15 1.16 0 .63-.5 1.15-1.14 1.15-.64 0-1.15-.5-1.15-1.15zm2.5-.53h4.7v1.05H296v-1.06zm-2.6-4.68h2.48v10.4h-2.5v-10.4z" clip-path="url(#aw)"/><path fill="none" stroke="#000" stroke-width=".78" d="M293 142.3h19.1v21.05H293z"/><path fill="none" stroke="#000" stroke-width=".585" d="M295.94 143.96h14.52v17.76h-14.52z"/><defs><path id="ax" d="M-55.04 57.4h528.52v656.7H-55.04z"/></defs><clipPath id="ay"><use xlink:href="#ax" overflow="visible"/></clipPath><path fill="#fff" d="M381.15 119.72c-1 0-1.84.83-1.84 1.84v22.4c0 1.02.84 1.84 1.85 1.84h15.76c1.03 0 1.85-.82 1.85-1.83v-22.4c0-1.02-.82-1.85-1.84-1.85h-15.75z" clip-path="url(#ay)"/><defs><path id="az" d="M-55.04 57.4h528.52v656.7H-55.04z"/></defs><clipPath id="aA"><use xlink:href="#az" overflow="visible"/></clipPath><path fill="none" stroke="#231F20" stroke-width=".78" d="M381.15 119.72c-1 0-1.84.83-1.84 1.84v22.4c0 1.02.84 1.84 1.85 1.84h15.76c1.03 0 1.85-.82 1.85-1.83v-22.4c0-1.02-.82-1.85-1.84-1.85h-15.75z" clip-path="url(#aA)"/><defs><path id="aB" d="M-55.04 57.4h528.52v656.7H-55.04z"/></defs><clipPath id="aC"><use xlink:href="#aB" overflow="visible"/></clipPath><path fill="#fff" d="M383.62 142c0 1.04.84 1.9 1.85 1.9h9.46c1.02 0 1.85-.86 1.85-1.9v-18.42c0-1.04-.83-1.9-1.84-1.9h-9.47c-1 0-1.85.86-1.85 1.9V142z" clip-path="url(#aC)"/><defs><path id="aD" d="M-55.04 57.4h528.52v656.7H-55.04z"/></defs><clipPath id="aE"><use xlink:href="#aD" overflow="visible"/></clipPath><path fill="none" stroke="#231F20" stroke-width=".585" d="M383.62 142c0 1.04.84 1.9 1.85 1.9h9.46c1.02 0 1.85-.86 1.85-1.9v-18.42c0-1.04-.83-1.9-1.84-1.9h-9.47c-1 0-1.85.86-1.85 1.9V142z" clip-path="url(#aE)"/><defs><path id="aF" d="M-55.04 57.4h528.52v656.7H-55.04z"/></defs><clipPath id="aG"><use xlink:href="#aF" overflow="visible"/></clipPath><path fill="#fff" d="M390.42 131.2c-.77 0-1.4.62-1.4 1.4 0 .75.64 1.37 1.4 1.37.76 0 1.4-.6 1.4-1.4 0-.75-.64-1.37-1.4-1.37" clip-path="url(#aG)"/><defs><path id="aH" d="M-55.04 57.4h528.52v656.7H-55.04z"/></defs><clipPath id="aI"><use xlink:href="#aH" overflow="visible"/></clipPath><path fill="none" stroke="#231F20" stroke-width=".52" d="M390.42 131.2c-.77 0-1.4.62-1.4 1.4 0 .75.64 1.37 1.4 1.37.76 0 1.4-.6 1.4-1.4 0-.75-.64-1.37-1.4-1.37z" clip-path="url(#aI)"/><defs><path id="aJ" d="M-55.04 57.4h528.52v656.7H-55.04z"/></defs><clipPath id="aK"><use xlink:href="#aJ" overflow="visible"/></clipPath><path fill="#fff" d="M381.42 127.6c-.74 0-1.43.6-1.43 1.35v7.3c0 .75.68 1.35 1.42 1.35.73 0 1.42-.6 1.42-1.34v-7.3c0-.75-.7-1.35-1.42-1.35" clip-path="url(#aK)"/><defs><path id="aL" d="M-55.04 57.4h528.52v656.7H-55.04z"/></defs><clipPath id="aM"><use xlink:href="#aL" overflow="visible"/></clipPath><path fill="none" stroke="#231F20" stroke-width=".52" d="M381.42 127.6c-.74 0-1.43.6-1.43 1.35v7.3c0 .75.68 1.35 1.42 1.35.73 0 1.42-.6 1.42-1.34v-7.3c0-.75-.7-1.35-1.42-1.35z" clip-path="url(#aM)"/><defs><path id="aN" d="M-55.04 57.4h528.52v656.7H-55.04z"/></defs><clipPath id="aO"><use xlink:href="#aN" overflow="visible"/></clipPath><path fill="#fff" d="M389.2 127.12l-6.82 6.27c-.4.34-1 .3-1.35-.1-.36-.38-.32-1 .08-1.34l7.07-6c.33-.27 1.34.88 1.02 1.16" clip-path="url(#aO)"/><defs><path id="aP" d="M-55.04 57.4h528.52v656.7H-55.04z"/></defs><clipPath id="aQ"><use xlink:href="#aP" overflow="visible"/></clipPath><path fill="none" stroke="#231F20" stroke-width=".65" d="M389.2 127.12l-6.82 6.27c-.4.34-1 .3-1.35-.1-.36-.38-.32-1 .08-1.34l7.07-6c.33-.27 1.34.88 1.02 1.16z" clip-path="url(#aQ)"/><defs><path id="aR" d="M-55.04 57.4h528.52v656.7H-55.04z"/></defs><clipPath id="aS"><use xlink:href="#aR" overflow="visible"/></clipPath><path fill="#fff" d="M384.8 133.4h-3.3c-.36 0-.65-.3-.65-.65 0-.35.3-.63.64-.63h3.3c.34 0 .63.28.63.64 0 .35-.3.64-.64.64" clip-path="url(#aS)"/><defs><path id="aT" d="M-55.04 57.4h528.52v656.7H-55.04z"/></defs><clipPath id="aU"><use xlink:href="#aT" overflow="visible"/></clipPath><path fill="none" stroke="#231F20" stroke-width=".52" d="M384.8 133.4h-3.3c-.36 0-.65-.3-.65-.65 0-.35.3-.63.64-.63h3.3c.34 0 .63.28.63.64 0 .35-.3.64-.64.64z" clip-path="url(#aU)"/><defs><path id="aV" d="M-55.04 57.4h528.52v656.7H-55.04z"/></defs><clipPath id="aW"><use xlink:href="#aV" overflow="visible"/></clipPath><path fill="#fff" d="M381.54 134.78c-.42 0-.77.35-.77.77 0 .43.35.77.77.77.42 0 .76-.34.76-.77 0-.42-.34-.77-.76-.77" clip-path="url(#aW)"/><defs><path id="aX" d="M-55.04 57.4h528.52v656.7H-55.04z"/></defs><clipPath id="aY"><use xlink:href="#aX" overflow="visible"/></clipPath><path fill="none" stroke="#231F20" stroke-width=".455" d="M381.54 134.78c-.42 0-.77.35-.77.77 0 .43.35.77.77.77.42 0 .76-.34.76-.77 0-.42-.34-.77-.76-.77z" clip-path="url(#aY)"/><defs><path id="aZ" d="M-55.04 57.4h528.52v656.7H-55.04z"/></defs><clipPath id="ba"><use xlink:href="#aZ" overflow="visible"/></clipPath><path fill="#fff" d="M381.47 128.88c-.42 0-.77.35-.77.78 0 .42.35.76.77.76.42 0 .77-.34.77-.77 0-.42-.35-.77-.77-.77" clip-path="url(#ba)"/><defs><path id="bb" d="M-55.04 57.4h528.52v656.7H-55.04z"/></defs><clipPath id="bc"><use xlink:href="#bb" overflow="visible"/></clipPath><path fill="none" stroke="#231F20" stroke-width=".455" d="M381.47 128.88c-.42 0-.77.35-.77.78 0 .42.35.76.77.76.42 0 .77-.34.77-.77 0-.42-.35-.77-.77-.77z" clip-path="url(#bc)"/><path fill="none" stroke="#000" stroke-width=".65" stroke-dashoffset="3" d="M399.66 151.12h-18.4" stroke-dasharray="1.936,1.936,1.936,1.936,1.936,1.936"/><path fill="none" stroke="#000" stroke-width=".65" stroke-dashoffset="3" d="M379.34 153.97V172" stroke-dasharray="1.899,1.899,1.899,1.899,1.899,1.899"/><path fill="none" stroke="#000" stroke-width=".65" stroke-dashoffset="3" d="M382.18 173.9h17.97" stroke-dasharray="1.892,1.892,1.892,1.892,1.892,1.892"/><path fill="none" stroke="#000" stroke-width=".65" d="M401.1 173.9h.94m-22.7-.94v.95h.94m.02-22.78h-.96v.95m23.23-.95h-.97M402.05 173.94h2.46v-22.82h-1.93"/><path fill="#BBBDBF" d="M463.47 61.17V424.5H445.2v12.35h26.3l.03-375.03"/><defs><path id="bd" d="M-55.04 57.4h528.52v656.7H-55.04z"/></defs><clipPath id="be"><use xlink:href="#bd" overflow="visible"/></clipPath><path fill="none" stroke="#231F20" stroke-width="3.9" d="M463.47 61.17V424.5H445.2v12.35h26.3l.03-375.03" clip-path="url(#be)"/><path fill="#BBBDBF" d="M288.8 60.2h13.66v29.9H288.8zM366.17 58.9h8.44v33.47h-8.44z"/><path fill="none" stroke="#231F20" stroke-width="3.9" d="M443.5 431.67h-44.84m-21.23 0h-44.85m-20.04 0H266.7m-22.73 0H197.5"/><defs><path id="bf" d="M-55.04 57.4h528.52v656.7H-55.04z"/></defs><clipPath id="bg"><use xlink:href="#bf" overflow="visible"/></clipPath><path fill="none" stroke="#231F20" stroke-width="5.2" d="M168.15 253.57H288.8V60.03L425 60m29.24 0h19.23" clip-path="url(#bg)"/><defs><path id="bh" d="M-55.04 57.4h528.52v656.7H-55.04z"/></defs><clipPath id="bi"><use xlink:href="#bh" overflow="visible"/></clipPath><path fill="none" stroke="#231F20" stroke-width="5.85" d="M270.57 253.25v31.85M373.3 59.87v154.05h-8.1m-29.86 0h-46.52m30.54 211.9v-89.7m0-36.72v-22.75m0-29.58v-35.1M182 284.77h30.44m30.22 0h78" clip-path="url(#bi)"/><path fill="none" stroke="#231F20" stroke-width="6.5" d="M290.44 170.7h26"/><defs><path id="bj" d="M-55.04 57.4h528.52v656.7H-55.04z"/></defs><clipPath id="bk"><use xlink:href="#bj" overflow="visible"/></clipPath><path fill="none" stroke="#231F20" stroke-width="5.2" d="M302.46 61.5v29.74h-11.04" clip-path="url(#bk)"/><defs><path id="bl" d="M-55.04 57.4h528.52v656.7H-55.04z"/></defs><clipPath id="bm"><use xlink:href="#bl" overflow="visible"/></clipPath><path fill="none" stroke="#231F20" stroke-width="3.9" d="M366.17 61.17V91.9h5.52" clip-path="url(#bm)"/><path fill="none" stroke="#231F20" stroke-width=".78" d="M322 279.36h1.96v47.13H322z"/><path fill="#BBBDBF" d="M378.43 423.32v13.56h20.23v-13.52z"/><path fill="none" stroke="#231F20" stroke-width="3.9" d="M378.43 423.32v13.56h20.23v-13.52z"/><path fill="#BBBDBF" d="M311.52 423.27v13.67l20.23-.06v-13.6z"/><path fill="none" stroke="#231F20" stroke-width="3.9" d="M311.52 423.27v13.67l20.23-.06v-13.6z"/><path fill="#BBBDBF" d="M244.48 423.3V437l20.46-.08v-13.66z"/><path fill="none" stroke="#231F20" stroke-width="3.9" d="M244.48 423.3V437l20.46-.08v-13.66zM183.64 252.43l-.05 171.7h13.45v12.92h-27.03V253.57"/><path fill="none" stroke="#231F20" stroke-width=".78" d="M318.4 238.78h1.94v47.12h-1.95z"/><defs><path id="bn" d="M-55.04 57.4h528.52v656.7H-55.04z"/></defs><clipPath id="bo"><use xlink:href="#bn" overflow="visible"/></clipPath><path fill="none" stroke="#231F20" stroke-width="3.9" stroke-dashoffset="7" d="M460.73 62.46v361.62" clip-path="url(#bo)" stroke-dasharray="5.952,1.952,5.952,1.952,5.952,1.952"/><path fill="#fff" d="M220.43 430.12H239v3.16h-18.57z"/><path fill="none" stroke="#000" stroke-width=".78" d="M220.43 430.12H239v3.16h-18.57zM220.43 431.77h18.47"/><path fill="#fff" d="M201.3 430.12h19.08v3.16H201.3z"/><path fill="none" stroke="#000" stroke-width=".78" d="M201.3 430.12h19.08v3.16H201.3zM201.3 431.77h19.08"/><path fill="#fff" d="M421.74 430.1h18.58v3.16h-18.58z"/><path fill="none" stroke="#000" stroke-width=".78" d="M421.74 430.1h18.58v3.16h-18.58zM421.74 431.75h18.47"/><path fill="#fff" d="M402.62 430.1h19.07v3.16H402.6z"/><path fill="none" stroke="#000" stroke-width=".78" d="M402.62 430.1h19.07v3.16H402.6zM402.62 431.75h19.07"/><path fill="#fff" d="M356.1 430.08h18.58v3.17H356.1z"/><path fill="none" stroke="#000" stroke-width=".78" d="M356.1 430.08h18.58v3.17H356.1zM356.1 431.74h18.47"/><path fill="#fff" d="M336.98 430.08h19.07v3.17h-19.07z"/><path fill="none" stroke="#000" stroke-width=".78" d="M336.98 430.08h19.07v3.17h-19.07zM336.98 431.74h19.07"/><path fill="#fff" d="M288.06 430.1h18.58v3.17h-18.58z"/><path fill="none" stroke="#000" stroke-width=".78" d="M288.06 430.1h18.58v3.17h-18.58zM288.06 431.76h18.47"/><path fill="#fff" d="M268.94 430.1H288v3.17h-19.06z"/><path fill="none" stroke="#000" stroke-width=".78" d="M268.94 430.1H288v3.17h-19.06zM268.94 431.76H288"/><defs><path id="bp" d="M45.1 158.95h100.15v4.56H45.1z"/></defs><clipPath id="bq"><use xlink:href="#bp" overflow="visible"/></clipPath><path fill="#231F20" d="M145.25 159.32v-.3h-3.4v.3h1.53v4.1h.33v-4.1h1.55zm-5.8 4.1v-.3h-2.84v-1.76h2.54v-.3h-2.53v-1.74h2.82v-.3h-3.14v4.4h3.17zm-5.87 0v-.3h-2.84v-1.76h2.52v-.3h-2.52v-1.74h2.8v-.3h-3.13v4.4h3.18zm-6.28-3.12c0 .64-.54 1-1.28 1h-1.5v-1.98h1.52c.8 0 1.26.38 1.26.97zm.5 3.13l-1.46-1.88c.74-.1 1.3-.53 1.3-1.26v-.03c0-.73-.63-1.25-1.58-1.25h-1.86v4.4h.33v-1.82h1.44l1.4 1.83h.42zm-6.25-4.1v-.3h-3.4v.3h1.54v4.1h.32v-4.1h1.53zm-5.72 2.96v-.02c0-.65-.43-1-1.45-1.22-1.04-.2-1.28-.5-1.28-.96v-.02c0-.46.43-.83 1.08-.83.48 0 .9.14 1.3.5l.22-.26c-.45-.37-.87-.54-1.5-.54-.83 0-1.43.5-1.43 1.16 0 .68.43 1.04 1.5 1.25 1 .2 1.23.47 1.23.94v.02c0 .5-.45.88-1.1.88-.66 0-1.1-.2-1.6-.66l-.2.25c.52.46 1.06.7 1.77.7.85 0 1.46-.5 1.46-1.2m-11.16 1.13v-4.4h-.3v3.83l-3.06-3.84h-.3v4.4h.32v-3.9l3.1 3.9h.25zm-6.78-2.2c0 1.1-.8 1.98-1.88 1.98-1.1 0-1.88-.88-1.88-1.97v-.02c0-1.08.78-1.96 1.87-1.96s1.9.9 1.9 2zm.34 0s0 0 0-.02c0-1.2-.88-2.26-2.22-2.26-1.33 0-2.22 1.08-2.22 2.28v.02c0 1.2.88 2.27 2.2 2.27 1.35 0 2.24-1.07 2.24-2.27m-6.55-1.9v-.3h-3.4v.3h1.53v4.1h.33v-4.1h1.53zm-5.8 3.52v-1.7h-1.8v.3h1.48v1.26c-.32.3-.84.52-1.4.52-1.18 0-1.9-.85-1.9-2 0-1.07.75-1.98 1.83-1.98.67 0 1.08.23 1.42.53l.22-.24c-.44-.37-.9-.58-1.62-.58-1.3 0-2.18 1.1-2.18 2.28 0 1.25.83 2.28 2.22 2.28.72 0 1.34-.3 1.73-.65m-6.72.58v-4.4h-.32v3.83l-3.04-3.84h-.3v4.4h.3v-3.9l3.1 3.9h.26zm-6.68-4.4h-.33v4.4h.33v-4.4zm-3.33 4.4v-4.4h-.33v2.03h-2.82v-2.04h-.33v4.4H66v-2.05h2.82v2.06h.33zm-6.2-1.14v-.02c0-.65-.44-1-1.46-1.22-1.03-.2-1.27-.5-1.27-.96v-.02c0-.46.43-.83 1.07-.83.5 0 .9.14 1.32.5l.2-.26c-.44-.37-.86-.54-1.5-.54-.82 0-1.42.5-1.42 1.16 0 .68.43 1.04 1.48 1.25 1 .2 1.25.47 1.25.94v.02c0 .5-.45.88-1.1.88-.66 0-1.1-.2-1.6-.66l-.2.25c.52.46 1.06.7 1.77.7.85 0 1.46-.5 1.46-1.2m-6.5-.4h-2.33l1.17-2.55 1.16 2.55zm1.05 1.53L55.47 159h-.32l-2.05 4.43h.33l.56-1.23h2.6l.56 1.23h.35zm-6.1-4.4h-.33l-1.38 3.92-1.3-3.94h-.26l-1.3 3.95-1.38-3.93h-.36l1.6 4.44h.26l1.3-3.83 1.3 3.83h.25l1.6-4.44z" clip-path="url(#bq)"/></svg>