<?xml version="1.0" encoding="utf-8"?>
<!-- Generator: Adobe Illustrator 15.0.0, SVG Export Plug-In . SVG Version: 6.00 Build 0)  -->
<!DOCTYPE svg PUBLIC "-//W3C//DTD SVG 1.1//EN" "http://www.w3.org/Graphics/SVG/1.1/DTD/svg11.dtd">
<svg version="1.1" id="Layer_1" xmlns="http://www.w3.org/2000/svg" xmlns:xlink="http://www.w3.org/1999/xlink" x="0px" y="0px"
	 width="513.359px" height="495.36px" viewBox="0 0 513.359 495.36" enable-background="new 0 0 513.359 495.36"
	 xml:space="preserve">
<rect x="78.797" y="59.522" fill="#FFFFFF" width="33.149" height="44.2"/>
<rect x="111.947" y="59.522" fill="#FFFFFF" width="33.15" height="44.2"/>
<polygon fill="#FFFFFF" points="144.247,111.373 144.247,103.723 120.447,103.723 120.447,111.373 111.947,111.373 111.947,153.022 
	145.097,153.022 145.097,111.373 "/>
<polygon fill="#BBBDBF" points="78.797,110.522 58.397,110.522 58.397,132.623 45.647,132.623 45.647,153.022 78.797,153.022 "/>
<polygon fill="#FFFFFF" points="77.947,110.522 77.947,153.022 111.947,153.022 111.947,136.022 105.147,136.022 105.147,122.423 
	88.998,122.423 88.998,109.673 "/>
<polygon fill="#FFFFFF" points="45.647,58.673 77.947,58.673 77.947,103.723 64.347,103.723 64.347,96.923 60.097,96.923 
	60.097,86.723 49.047,86.723 45.647,86.723 "/>
<g>
	<g>
		<defs>
			<rect id="SVGID_1_" x="-55.039" y="57.412" width="528.521" height="656.686"/>
		</defs>
		<clipPath id="SVGID_2_">
			<use xlink:href="#SVGID_1_"  overflow="visible"/>
		</clipPath>
		<polygon clip-path="url(#SVGID_2_)" fill="none" stroke="#262626" stroke-width="2.053" stroke-miterlimit="10" points="
			145.01,153.254 45.289,153.254 45.289,58.958 78.578,58.958 145.01,58.958 		"/>
	</g>
</g>
<path fill="none" stroke="#262626" stroke-width="1.173" stroke-miterlimit="10" d="M58.745,110.873h61.445v-7.332 M49.065,96.5
	h11.292 M48.771,104.42h9.974v0.879 M58.745,108.526v24.197H46.279 M45.399,104.42h3.372V86.383h11.586v10.416h3.959v7.035h81.099
	 M78.542,153.547V110.53 M111.832,153.547V110.53 M111.832,103.247V59.619 M78.396,103.247V59.619"/>
<g>
	<g>
		<defs>
			<rect id="SVGID_3_" x="-55.039" y="57.412" width="528.521" height="656.686"/>
		</defs>
		<clipPath id="SVGID_4_">
			<use xlink:href="#SVGID_3_"  overflow="visible"/>
		</clipPath>
		<path clip-path="url(#SVGID_4_)" fill="none" stroke="#000000" stroke-width="0.425" d="M55.396,105.223
			c0,1.795,1.455,3.251,3.25,3.251 M55.394,105.223h3.252v-0.188h-3.252V105.223z M110.438,114.028c-1.795,0-3.25-1.455-3.25-3.251
			 M110.626,114.03h-0.188v-3.253h0.188V114.03z M77.39,113.952c-1.796,0-3.251-1.454-3.251-3.25 M77.577,113.955h-0.188v-3.253
			h0.188V113.955z M113.292,114.025c1.795,0,3.252-1.455,3.252-3.251 M113.106,114.028h0.187v-3.253h-0.187V114.028z
			 M80.604,113.952c1.794,0,3.25-1.454,3.25-3.25 M80.416,113.955h0.188v-3.253h-0.188V113.955z M113.905,100.423
			c1.797,0,3.253,1.456,3.253,3.252 M113.719,100.421h0.187v3.253h-0.187V100.421z M94.931,100.314
			c-1.795,0-3.251,1.455-3.251,3.251 M95.118,100.312H94.93v3.253h0.188V100.312z M67.763,102.58c0-1.795-1.455-3.251-3.251-3.251
			 M67.766,102.58h-3.254v0.187h3.254V102.58z"/>
	</g>
</g>
<path fill="none" stroke="#000000" stroke-width="0.452" d="M49.354,119.671l8.957,0.004 M46.097,120.87l12.214,0.003
	 M46.078,122.067l12.205,0.009 M46.121,123.265l12.23,0.006 M46.161,124.462l12.19,0.003 M46.161,125.66l12.19,0.006
	 M46.182,126.913l12.17-0.002"/>
<path fill="none" stroke="#000000" stroke-width="0.425" d="M46.125,122.423l3.666-2.693l-0.189-0.557l0.924,0.877l-0.26-0.64
	l1.769-1.07 M45.792,111.716h6.378 M45.792,112.914h6.378 M45.792,114.111h6.378 M45.792,115.309h6.378 M45.792,116.507h6.378
	 M45.792,117.704h6.315 M45.669,118.902h5.474 M46.024,119.855h3.555"/>
<line fill="none" stroke="#000000" stroke-width="0.452" x1="51.604" y1="118.474" x2="58.366" y2="118.474"/>
<path fill="none" stroke="#000000" stroke-width="0.425" d="M94.429,110.717l0.929,2.883l0.587-0.048l-1.075,0.684l0.684-0.098
	l0.611,2.127 M103.57,111.254v4.986 M102.373,111.254v4.986 M101.175,111.254v4.986 M99.978,111.254v4.986 M98.779,111.254v4.889
	 M97.583,111.254v4.889 M96.385,111.254v4.889 M95.187,111.254v1.655"/>
<path fill="#FFFFFF" d="M92.62,116.974h11.292v-0.586H92.62V116.974z M104.206,117.267H92.327v-1.173h11.879V117.267z"/>
<path fill="none" stroke="#262626" stroke-width="0.425" d="M92.62,116.974h11.292v-0.586H92.62V116.974z M104.206,117.267H92.327
	v-1.173h11.879V117.267z"/>
<path fill="#FFFFFF" d="M52.356,127.18h0.588v-15.332h-0.588V127.18z M52.064,111.45h1.172v16.128h-1.172V111.45z"/>
<path fill="none" stroke="#262626" stroke-width="0.495" d="M52.356,127.18h0.588v-15.332h-0.588V127.18z M52.064,111.45h1.172
	v16.128h-1.172V111.45z"/>
<path fill="none" stroke="#000000" stroke-width="0.425" d="M95.085,114.236v1.931 M93.888,111.279v4.888 M92.69,111.279v4.888
	 M95.037,117.319v4.888 M93.839,117.319v4.888 M92.642,117.319v4.888 M103.668,117.294v4.987 M102.471,117.294v4.987
	 M101.273,117.294v4.987 M99.95,117.294v4.987 M98.752,117.294v4.889 M97.554,117.294v4.889 M96.357,117.294v4.889"/>
<path fill="none" stroke="#262626" stroke-width="1.173" stroke-miterlimit="10" d="M104.939,116.446v6.452 M88.514,110.873v11.292
	h16.425v13.199h6.746"/>
<path fill="none" stroke="#000000" stroke-width="0.442" d="M105.181,121.921h6.295 M105.181,123.118h6.295 M105.181,124.316h6.295
	 M105.181,125.514h6.295 M105.181,126.711h6.295 M105.181,127.909h6.295 M105.181,129.107h6.295 M105.181,130.304h6.295
	 M105.181,131.502h6.295 M105.181,132.699h6.295 M105.181,133.897h6.295"/>
<g>
	<path d="M56.848,89.43h-3.365v1.547h2.983v0.935h-2.983v1.598h3.408v0.935h-4.453v-5.949h4.411L56.848,89.43L56.848,89.43z"/>
</g>
<g>
	<g>
		<defs>
			<rect id="SVGID_5_" x="-55.039" y="57.412" width="528.521" height="656.686"/>
		</defs>
		<clipPath id="SVGID_6_">
			<use xlink:href="#SVGID_5_"  overflow="visible"/>
		</clipPath>
	</g>
	<g>
		<defs>
			<rect id="SVGID_7_" x="-55.039" y="57.412" width="528.521" height="656.686"/>
		</defs>
		<clipPath id="SVGID_8_">
			<use xlink:href="#SVGID_7_"  overflow="visible"/>
		</clipPath>
		<path clip-path="url(#SVGID_8_)" fill="#231F20" d="M445.308,143.43l-2.934-3.731h-0.49v4.655h0.512v-3.817l3.006,3.817h0.419
			v-4.655h-0.513V143.43z M440.792,139.699h-3.364v4.655h3.396v-0.479h-2.872v-1.629h2.54v-0.479h-2.54v-1.589h2.839
			L440.792,139.699L440.792,139.699z M435.585,142.259v2.095h0.525v-4.655h-0.525v2.068h-2.687v-2.068h-0.526v4.655h0.526v-2.095
			H435.585z M431.455,143.616l-0.346-0.339c-0.446,0.425-0.865,0.671-1.503,0.671c-1.023,0-1.802-0.844-1.802-1.928
			s0.771-1.915,1.802-1.915c0.632,0,1.071,0.266,1.463,0.638l0.359-0.386c-0.465-0.438-0.973-0.738-1.815-0.738
			c-1.37,0-2.354,1.084-2.354,2.414c0,1.344,0.989,2.401,2.334,2.401C430.438,144.434,430.971,144.108,431.455,143.616
			 M425.239,140.185h1.562v-0.486h-3.657v0.486h1.562v4.169h0.532L425.239,140.185L425.239,140.185z M421.589,144.354h0.523v-4.655
			h-0.523V144.354z M418.643,141.734l1.995-2.035h-0.679l-2.675,2.78v-2.78h-0.523v4.655h0.523v-1.25l0.991-1.004l1.789,2.254h0.658
			L418.643,141.734z"/>
	</g>
	<g>
		<defs>
			<rect id="SVGID_9_" x="-55.039" y="57.412" width="528.521" height="656.686"/>
		</defs>
		<clipPath id="SVGID_10_">
			<use xlink:href="#SVGID_9_"  overflow="visible"/>
		</clipPath>
		<path clip-path="url(#SVGID_10_)" fill="#231F20" d="M401.377,356.444v3.77h0.524v-4.654h-0.531l-1.695,2.541l-1.696-2.541h-0.532
			v4.654h0.514v-3.764l1.694,2.486h0.027L401.377,356.444z M395.791,357.893c0,1.064-0.76,1.916-1.822,1.916
			c-1.064,0-1.835-0.863-1.835-1.93c0-1.062,0.758-1.914,1.822-1.914C395.02,355.965,395.791,356.829,395.791,357.893
			 M396.337,357.879c0-1.289-0.951-2.398-2.368-2.398c-1.416,0-2.38,1.123-2.38,2.412c0,1.291,0.951,2.4,2.367,2.4
			C395.373,360.293,396.337,359.17,396.337,357.879 M390.139,357.893c0,1.064-0.758,1.916-1.822,1.916
			c-1.062,0-1.835-0.863-1.835-1.93c0-1.062,0.759-1.914,1.822-1.914S390.139,356.829,390.139,357.893 M390.684,357.879
			c0-1.289-0.951-2.398-2.367-2.398s-2.381,1.123-2.381,2.412c0,1.291,0.951,2.4,2.368,2.4
			C389.72,360.293,390.684,359.17,390.684,357.879 M384.486,356.969c0,0.605-0.499,0.965-1.195,0.965h-1.432v-1.891h1.438
			C384.048,356.043,384.486,356.391,384.486,356.969 M385.185,360.213l-1.43-1.9c0.73-0.133,1.264-0.586,1.264-1.363
			c0-0.838-0.659-1.391-1.683-1.391h-2.001v4.654h0.523v-1.809h1.33l1.352,1.809H385.185L385.185,360.213z"/>
	</g>
	<g>
		<defs>
			<rect id="SVGID_11_" x="-55.039" y="57.412" width="528.521" height="656.686"/>
		</defs>
		<clipPath id="SVGID_12_">
			<use xlink:href="#SVGID_11_"  overflow="visible"/>
		</clipPath>
		<path clip-path="url(#SVGID_12_)" fill="#231F20" d="M417.203,351.083v-1.855h-1.923v0.473h1.417v1.158
			c-0.318,0.26-0.812,0.465-1.344,0.465c-1.13,0-1.842-0.824-1.842-1.941c0-1.045,0.737-1.916,1.769-1.916
			c0.659,0,1.06,0.219,1.417,0.533l0.34-0.4c-0.467-0.393-0.95-0.617-1.735-0.617c-1.396,0-2.334,1.131-2.334,2.412
			c0,1.34,0.903,2.402,2.367,2.402C416.118,351.793,416.771,351.467,417.203,351.083 M411.346,350.79l-2.934-3.73h-0.491v4.654
			h0.512v-3.814l3.006,3.814h0.419v-4.654h-0.512V350.79z M406.031,351.713h0.525v-4.654h-0.525V351.713z M402.84,351.069
			l-1.656-4.012h-0.585l2.002,4.689h0.465l2.002-4.689h-0.563L402.84,351.069z M399.109,351.713h0.525v-4.654h-0.525V351.713z
			 M394.946,351.713h3.146v-0.482h-2.62v-4.172h-0.525L394.946,351.713L394.946,351.713z M392.616,350.717h-0.874v0.996h0.874
			V350.717z M389.772,351.083v-1.855h-1.921v0.473h1.416v1.158c-0.319,0.26-0.811,0.465-1.343,0.465
			c-1.131,0-1.842-0.824-1.842-1.941c0-1.045,0.736-1.916,1.769-1.916c0.658,0,1.058,0.219,1.416,0.533l0.339-0.4
			c-0.465-0.393-0.951-0.617-1.734-0.617c-1.396,0-2.334,1.131-2.334,2.412c0,1.34,0.903,2.402,2.366,2.402
			C388.688,351.793,389.341,351.467,389.772,351.083 M383.915,350.79l-2.935-3.73h-0.492v4.654h0.514v-3.814l3.006,3.814h0.419
			v-4.654h-0.512V350.79L383.915,350.79z M378.602,351.713h0.525v-4.654h-0.525V351.713z M376.726,350.79l-2.932-3.73h-0.492v4.654
			h0.512v-3.814l3.005,3.814h0.419v-4.654h-0.512V350.79z M371.413,351.713h0.523v-4.654h-0.523V351.713z M369.711,349.393
			c0,1.037-0.752,1.838-1.931,1.838h-1.09v-3.686h1.09C368.959,347.545,369.711,348.356,369.711,349.393 M370.256,349.379
			c0-1.314-1.012-2.32-2.476-2.32h-1.614v4.654h1.614C369.244,351.713,370.256,350.698,370.256,349.379"/>
	</g>
	<g>
		<defs>
			<rect id="SVGID_13_" x="-55.039" y="57.412" width="528.521" height="656.686"/>
		</defs>
		<clipPath id="SVGID_14_">
			<use xlink:href="#SVGID_13_"  overflow="visible"/>
		</clipPath>
		<path clip-path="url(#SVGID_14_)" fill="#231F20" d="M265.464,364.042h-0.468l-0.476,1.547h0.296L265.464,364.042z
			 M264.519,364.042h-0.47l-0.471,1.547h0.293L264.519,364.042z M261.141,364.305c0.456,0,0.847,0.312,0.847,0.805
			c0,0.42-0.233,0.744-0.876,1.32l-1.523,1.344v0.365h2.935v-0.432h-2.227l1.122-0.996c0.737-0.643,1.062-1.02,1.062-1.639
			c0-0.689-0.54-1.193-1.303-1.193c-0.737,0-1.134,0.33-1.512,0.895l0.348,0.252C260.35,364.557,260.661,364.305,261.141,364.305
			 M258.093,364.042h-0.469l-0.473,1.547h0.293L258.093,364.042z M254.408,364.264l0.113,0.385l0.792-0.246v3.736h0.469v-4.229
			h-0.349L254.408,364.264z M251.528,364.264l0.114,0.385l0.792-0.246v3.736h0.468v-4.229h-0.349L251.528,364.264z M248.167,367.639
			l-1.129-1.504l1.087-1.436h-0.387l-0.896,1.201l-0.902-1.201h-0.391l1.088,1.439l-1.13,1.5h0.382l0.941-1.266l0.94,1.266H248.167
			L248.167,367.639z M242.561,364.042h-0.47l-0.475,1.547h0.296L242.561,364.042z M241.613,364.042h-0.468l-0.473,1.547h0.293
			L241.613,364.042z M238.008,364.264l0.114,0.385l0.792-0.246v3.736h0.468v-4.229h-0.348L238.008,364.264z M236.634,364.042h-0.468
			l-0.473,1.547h0.293L236.634,364.042z M232.95,364.264l0.113,0.385l0.792-0.246v3.736h0.469v-4.229h-0.349L232.95,364.264z
			 M230.07,364.264l0.114,0.385l0.792-0.246v3.736h0.468v-4.229h-0.349L230.07,364.264z"/>
	</g>
	<g>
		<defs>
			<rect id="SVGID_15_" x="-55.039" y="57.412" width="528.521" height="656.686"/>
		</defs>
		<clipPath id="SVGID_16_">
			<use xlink:href="#SVGID_15_"  overflow="visible"/>
		</clipPath>
		<path clip-path="url(#SVGID_16_)" fill="#231F20" d="M265.061,356.344v3.771h0.524v-4.656h-0.532L263.358,358l-1.694-2.541h-0.532
			v4.656h0.513v-3.766l1.695,2.486h0.025L265.061,356.344z M259.475,357.793c0,1.064-0.759,1.914-1.822,1.914
			s-1.836-0.863-1.836-1.928s0.76-1.914,1.822-1.914C258.703,355.866,259.475,356.729,259.475,357.793 M260.02,357.78
			c0-1.289-0.951-2.4-2.367-2.4c-1.417,0-2.381,1.123-2.381,2.414c0,1.289,0.95,2.4,2.367,2.4
			C259.055,360.194,260.02,359.071,260.02,357.78 M253.822,357.793c0,1.064-0.758,1.914-1.821,1.914s-1.836-0.863-1.836-1.928
			s0.758-1.914,1.821-1.914C253.05,355.866,253.822,356.729,253.822,357.793 M254.367,357.78c0-1.289-0.951-2.4-2.367-2.4
			c-1.417,0-2.381,1.123-2.381,2.414c0,1.289,0.95,2.4,2.366,2.4C253.403,360.194,254.367,359.071,254.367,357.78 M248.169,356.87
			c0,0.604-0.499,0.963-1.197,0.963h-1.43v-1.889h1.438C247.73,355.944,248.169,356.29,248.169,356.87 M248.867,360.114l-1.43-1.902
			c0.73-0.133,1.264-0.584,1.264-1.361c0-0.838-0.658-1.391-1.683-1.391h-2.002v4.654h0.524v-1.809h1.331l1.349,1.809H248.867z
			 M243.361,357.793c0,1.037-0.751,1.836-1.928,1.836h-1.092v-3.686h1.092C242.61,355.944,243.361,356.756,243.361,357.793
			 M243.907,357.78c0-1.316-1.012-2.32-2.475-2.32h-1.616v4.654h1.616C242.896,360.114,243.907,359.098,243.907,357.78
			 M238.727,355.459h-3.365v4.654h3.398v-0.479h-2.873v-1.631h2.54v-0.479h-2.54v-1.588h2.84V355.459L238.727,355.459z
			 M232.643,359.643h-1.562v-1.645h1.47c0.812,0,1.237,0.293,1.237,0.807C233.786,359.329,233.347,359.643,232.643,359.643
			 M232.456,357.534h-1.377v-1.604h1.416c0.665,0,1.03,0.301,1.03,0.766C233.526,357.249,233.087,357.534,232.456,357.534
			 M232.542,355.459h-1.981v4.654h2.067c1.019,0,1.689-0.473,1.689-1.277c0-0.645-0.445-0.963-0.998-1.129
			c0.366-0.16,0.738-0.473,0.738-1.084C234.059,355.911,233.46,355.459,232.542,355.459"/>
	</g>
	<g>
		<defs>
			<rect id="SVGID_17_" x="-55.039" y="57.412" width="528.521" height="656.686"/>
		</defs>
		<clipPath id="SVGID_18_">
			<use xlink:href="#SVGID_17_"  overflow="visible"/>
		</clipPath>
		<path clip-path="url(#SVGID_18_)" fill="#231F20" d="M350.857,148.739v2.095h0.524v-4.655h-0.524v2.068h-2.688v-2.068h-0.524
			v4.655h0.524v-2.095H350.857z M345.098,146.664h1.563v-0.485h-3.658v0.485h1.562v4.17h0.531L345.098,146.664L345.098,146.664z
			 M341.701,149.132h-2.122l1.063-2.374L341.701,149.132z M340.896,146.146h-0.492l-2.122,4.688h0.539l0.553-1.23h2.533l0.546,1.23
			h0.564L340.896,146.146z M335.962,150.362H334.4v-1.643h1.471c0.811,0,1.236,0.293,1.236,0.805
			C337.106,150.049,336.667,150.362,335.962,150.362 M335.776,148.254h-1.377v-1.603h1.416c0.665,0,1.03,0.299,1.03,0.765
			C336.846,147.968,336.407,148.254,335.776,148.254 M335.862,146.179h-1.981v4.655h2.067c1.019,0,1.689-0.472,1.689-1.277
			c0-0.645-0.445-0.964-0.997-1.13c0.365-0.16,0.737-0.472,0.737-1.084C337.378,146.631,336.78,146.179,335.862,146.179"/>
	</g>
	<g>
		<defs>
			<rect id="SVGID_19_" x="-55.039" y="57.412" width="528.521" height="656.686"/>
		</defs>
		<clipPath id="SVGID_20_">
			<use xlink:href="#SVGID_19_"  overflow="visible"/>
		</clipPath>
		<path clip-path="url(#SVGID_20_)" fill="#231F20" d="M302.203,187.886c1.038,0,1.836,0.752,1.836,1.929v1.091h-3.685v-1.091
			C300.355,188.638,301.166,187.886,302.203,187.886 M302.19,187.341c-1.316,0-2.32,1.011-2.32,2.474v1.616h4.654v-1.616
			C304.524,188.352,303.507,187.341,302.19,187.341 M304.524,192.811h-0.997v0.874h0.997V192.811z M303.746,198.627l-3.877,1.33
			v0.572l4.688-1.663v-0.439l-3.776-1.283l3.776-1.277v-0.445l-4.688-1.663v0.552l3.877,1.33l-3.891,1.277v0.432L303.746,198.627z"
			/>
	</g>
	<g>
		<defs>
			<rect id="SVGID_21_" x="-55.039" y="57.412" width="528.521" height="656.686"/>
		</defs>
		<clipPath id="SVGID_22_">
			<use xlink:href="#SVGID_21_"  overflow="visible"/>
		</clipPath>
		<path clip-path="url(#SVGID_22_)" fill="#231F20" d="M397.389,195.179h-3.345v4.655h0.523v-2.028h2.521v-0.479h-2.521v-1.662h2.82
			L397.389,195.179L397.389,195.179z M392.953,195.179h-3.364v4.655h3.396v-0.479h-2.873v-1.629h2.54v-0.479h-2.54v-1.589h2.841
			V195.179z M387.933,196.589c0,0.605-0.499,0.964-1.197,0.964h-1.43v-1.888h1.438C387.494,195.665,387.933,196.01,387.933,196.589
			 M388.631,199.834l-1.43-1.902c0.73-0.133,1.264-0.585,1.264-1.363c0-0.838-0.659-1.39-1.684-1.39h-2.002v4.655h0.525v-1.809h1.33
			l1.35,1.809H388.631z"/>
	</g>
	<g>
		<defs>
			<rect id="SVGID_23_" x="-55.039" y="57.412" width="528.521" height="656.686"/>
		</defs>
		<clipPath id="SVGID_24_">
			<use xlink:href="#SVGID_23_"  overflow="visible"/>
		</clipPath>
		<path clip-path="url(#SVGID_24_)" fill="#231F20" d="M391.985,164.2l-1.33-3.877h-0.571l1.662,4.688h0.438l1.283-3.777
			l1.276,3.777h0.445l1.662-4.688H396.3l-1.329,3.877l-1.276-3.89h-0.433L391.985,164.2z M389.025,162.657
			c0,1.038-0.752,1.836-1.929,1.836h-1.091v-3.684h1.091C388.273,160.809,389.025,161.62,389.025,162.657 M389.57,162.644
			c0-1.317-1.011-2.321-2.474-2.321h-1.616v4.655h1.616C388.56,164.978,389.57,163.96,389.57,162.644"/>
	</g>
	<g>
		<defs>
			<rect id="SVGID_25_" x="-55.039" y="57.412" width="528.521" height="656.686"/>
		</defs>
		<clipPath id="SVGID_26_">
			<use xlink:href="#SVGID_25_"  overflow="visible"/>
		</clipPath>
		<path clip-path="url(#SVGID_26_)" fill="#231F20" d="M237.843,274.265h1.562v-0.485h-3.657v0.485h1.562v4.169h0.532
			L237.843,274.265L237.843,274.265z M234.99,273.779h-3.365v4.654h3.398v-0.479h-2.873v-1.629h2.54v-0.479h-2.54v-1.59h2.84
			V273.779z M227.775,274.943c0-0.427,0.387-0.758,0.99-0.758c0.479,0,0.911,0.151,1.344,0.505l0.307-0.404
			c-0.473-0.379-0.957-0.572-1.637-0.572c-0.885,0-1.528,0.531-1.528,1.275c0,0.771,0.492,1.118,1.562,1.35
			c0.978,0.207,1.21,0.453,1.21,0.894c0,0.472-0.412,0.798-1.038,0.798c-0.646,0-1.109-0.221-1.597-0.658l-0.324,0.385
			c0.559,0.5,1.162,0.746,1.9,0.746c0.925,0,1.59-0.52,1.59-1.324c0-0.719-0.479-1.098-1.516-1.322
			C228.015,275.635,227.775,275.388,227.775,274.943 M225.746,276.113c0,1.063-0.759,1.916-1.822,1.916s-1.835-0.864-1.835-1.93
			c0-1.063,0.758-1.914,1.822-1.914C224.975,274.186,225.746,275.049,225.746,276.113 M226.292,276.1c0-1.289-0.951-2.4-2.368-2.4
			c-1.416,0-2.381,1.125-2.381,2.414c0,1.29,0.951,2.4,2.368,2.4C225.327,278.514,226.292,277.39,226.292,276.1 M217.9,278.434
			h3.146v-0.484h-2.62v-4.17H217.9V278.434z M216.982,277.696l-0.347-0.339c-0.444,0.425-0.863,0.672-1.503,0.672
			c-1.023,0-1.802-0.846-1.802-1.93s0.771-1.914,1.802-1.914c0.632,0,1.071,0.267,1.463,0.638l0.359-0.385
			c-0.466-0.439-0.971-0.738-1.815-0.738c-1.37,0-2.354,1.084-2.354,2.413c0,1.345,0.99,2.4,2.334,2.4
			C215.965,278.514,216.497,278.188,216.982,277.696"/>
	</g>
	<g>
		<defs>
			<rect id="SVGID_27_" x="-55.039" y="57.412" width="528.521" height="656.686"/>
		</defs>
		<clipPath id="SVGID_28_">
			<use xlink:href="#SVGID_27_"  overflow="visible"/>
		</clipPath>
		<path clip-path="url(#SVGID_28_)" fill="#231F20" d="M306.809,270.366h-0.874v0.995h0.874V270.366z M304.02,269.268v2.095h0.524
			v-4.653h-0.524v2.066h-2.688v-2.066h-0.524v4.653h0.524v-2.095H304.02z M299.89,270.624l-0.346-0.338
			c-0.445,0.426-0.864,0.672-1.503,0.672c-1.023,0-1.803-0.847-1.803-1.931s0.771-1.915,1.803-1.915
			c0.631,0,1.069,0.268,1.463,0.641l0.358-0.387c-0.466-0.438-0.971-0.738-1.815-0.738c-1.37,0-2.354,1.084-2.354,2.414
			c0,1.344,0.991,2.399,2.334,2.399C298.872,271.441,299.404,271.116,299.89,270.624 M294.81,266.708h-3.365v4.654h3.397v-0.479
			h-2.873v-1.629h2.541v-0.479h-2.541v-1.59h2.841V266.708L294.81,266.708z M289.603,267.592v3.771h0.524v-4.653h-0.531
			l-1.695,2.539l-1.695-2.539h-0.532v4.653h0.513v-3.764l1.695,2.487h0.025L289.603,267.592z"/>
	</g>
</g>
<polygon fill="#BBBDBF" points="171.161,253.784 171.161,437.516 197.595,436.651 197.595,423.217 183.295,423.217 183.295,254.217 
	"/>
<rect x="304.438" y="62.656" fill="#FFFFFF" width="59.401" height="30.713"/>
<rect x="304.438" y="62.656" fill="none" stroke="#000000" stroke-width="0.78" width="59.401" height="30.713"/>
<g>
	<g>
		<defs>
			<rect id="SVGID_29_" x="-55.039" y="57.412" width="528.521" height="656.686"/>
		</defs>
		<clipPath id="SVGID_30_">
			<use xlink:href="#SVGID_29_"  overflow="visible"/>
		</clipPath>
		<circle clip-path="url(#SVGID_30_)" fill="none" stroke="#231F20" stroke-width="0.65" cx="317.977" cy="77.867" r="1.26"/>
	</g>
	<g>
		<defs>
			<rect id="SVGID_31_" x="-55.039" y="57.412" width="528.521" height="656.686"/>
		</defs>
		<clipPath id="SVGID_32_">
			<use xlink:href="#SVGID_31_"  overflow="visible"/>
		</clipPath>
		<path clip-path="url(#SVGID_32_)" fill="none" stroke="#000000" stroke-width="0.65" d="M360.448,77.919
			c0,8.803-2.03,12.025-4.878,12.025h-43.389c-0.695,0-2.133-0.188-2.133-2.029v-9.996v-0.02v-9.997c0-1.84,1.438-2.028,2.133-2.028
			h43.36l0.027,0.002C358.417,65.876,360.448,69.172,360.448,77.919z"/>
	</g>
	<g>
		<defs>
			<rect id="SVGID_33_" x="-55.039" y="57.412" width="528.521" height="656.686"/>
		</defs>
		<clipPath id="SVGID_34_">
			<use xlink:href="#SVGID_33_"  overflow="visible"/>
		</clipPath>
		<path clip-path="url(#SVGID_34_)" fill="none" stroke="#231F20" stroke-width="0.585" d="M307.84,72.524
			c0.713-0.008,1.285,0.579,1.285,1.287c0,0.706-0.572,1.288-1.285,1.288c-0.708,0-1.294-0.582-1.285-1.288
			C306.546,73.101,307.132,72.524,307.84,72.524z M307.84,80.509c0.713-0.003,1.285,0.573,1.285,1.294
			c0,0.698-0.572,1.277-1.285,1.282c-0.708-0.005-1.294-0.584-1.294-1.282C306.546,81.082,307.124,80.506,307.84,80.509z"/>
	</g>
	<g>
		<defs>
			<rect id="SVGID_35_" x="-55.039" y="57.412" width="528.521" height="656.686"/>
		</defs>
		<clipPath id="SVGID_36_">
			<use xlink:href="#SVGID_35_"  overflow="visible"/>
		</clipPath>
		<path clip-path="url(#SVGID_36_)" fill="#FFFFFF" d="M307.459,79.601c-1.057,0-1.909-0.713-1.912-1.77
			c0.003-1.053,0.855-1.63,1.912-1.63l7.27,0.678c0.714,0,0.714,1.927,0,1.927L307.459,79.601z"/>
	</g>
	<g>
		<defs>
			<rect id="SVGID_37_" x="-55.039" y="57.412" width="528.521" height="656.686"/>
		</defs>
		<clipPath id="SVGID_38_">
			<use xlink:href="#SVGID_37_"  overflow="visible"/>
		</clipPath>
		<path clip-path="url(#SVGID_38_)" fill="none" stroke="#231F20" stroke-width="0.585" d="M307.459,79.601
			c-1.057,0-1.909-0.713-1.912-1.77c0.003-1.053,0.855-1.63,1.912-1.63l7.27,0.678c0.714,0,0.714,1.927,0,1.927L307.459,79.601z"/>
	</g>
</g>
<path fill="none" stroke="#000000" stroke-width="0.78" d="M310.048,179.473v26.434 M310.048,200.748h3.668l0.855-3.169v-9.71
	l-0.855-3.209h-3.668 M293.133,205.907h24.108v-26.244h-24.108V205.907z"/>
<polygon fill="#FFFFFF" points="311.63,180.94 311.635,183.06 310.156,183.525 310.15,180.473 "/>
<polygon fill="none" stroke="#231F20" stroke-width="0.78" points="311.63,180.94 311.635,183.06 310.156,183.525 310.15,180.473 
	"/>
<g>
	<g>
		<defs>
			<rect id="SVGID_39_" x="-55.039" y="57.412" width="528.521" height="656.686"/>
		</defs>
		<clipPath id="SVGID_40_">
			<use xlink:href="#SVGID_39_"  overflow="visible"/>
		</clipPath>
		<path clip-path="url(#SVGID_40_)" fill="none" stroke="#000000" stroke-width="0.975" d="M453.122,87.508
			c-15.915,0-28.818-12.901-28.818-28.818 M454.782,87.525h-1.661V58.689h1.661V87.525z M213.852,312.065
			c15.914,0,28.817-12.902,28.817-28.818 M212.192,312.083h1.66v-28.836h-1.66V312.083z M363.254,184.885
			c-15.914,0-28.817,12.902-28.817,28.818 M364.914,184.868h-1.66v28.835h1.66V184.868z"/>
	</g>
	<g>
		<defs>
			<rect id="SVGID_41_" x="-55.039" y="57.412" width="528.521" height="656.686"/>
		</defs>
		<clipPath id="SVGID_42_">
			<use xlink:href="#SVGID_41_"  overflow="visible"/>
		</clipPath>
		<path clip-path="url(#SVGID_42_)" fill="#FFFFFF" d="M307.686,104.227c5.801,0,12.189,3.524,12.189,7.869
			c0,4.344-6.39,7.866-12.189,7.866c-5.802,0-8.821-3.522-8.821-7.866C298.864,107.751,301.884,104.227,307.686,104.227"/>
	</g>
	<g>
		<defs>
			<rect id="SVGID_43_" x="-55.039" y="57.412" width="528.521" height="656.686"/>
		</defs>
		<clipPath id="SVGID_44_">
			<use xlink:href="#SVGID_43_"  overflow="visible"/>
		</clipPath>
		<path clip-path="url(#SVGID_44_)" fill="none" stroke="#000000" stroke-width="0.78" d="M307.686,104.227
			c5.801,0,12.189,3.524,12.189,7.869c0,4.344-6.39,7.866-12.189,7.866c-5.802,0-8.821-3.522-8.821-7.866
			C298.864,107.751,301.884,104.227,307.686,104.227z"/>
	</g>
	<g>
		<defs>
			<rect id="SVGID_45_" x="-55.039" y="57.412" width="528.521" height="656.686"/>
		</defs>
		<clipPath id="SVGID_46_">
			<use xlink:href="#SVGID_45_"  overflow="visible"/>
		</clipPath>
		<path clip-path="url(#SVGID_46_)" fill="#FFFFFF" d="M300.767,116.806c0.324,0,0.591,0.265,0.591,0.59v2.755
			c0,0.325-0.267,0.591-0.591,0.591h-0.101c-0.325,0-0.591-0.266-0.591-0.591v-2.755c0-0.325,0.266-0.59,0.591-0.59H300.767z"/>
	</g>
	<g>
		<defs>
			<rect id="SVGID_47_" x="-55.039" y="57.412" width="528.521" height="656.686"/>
		</defs>
		<clipPath id="SVGID_48_">
			<use xlink:href="#SVGID_47_"  overflow="visible"/>
		</clipPath>
		<path clip-path="url(#SVGID_48_)" fill="none" stroke="#231F20" stroke-width="0.78" d="M300.767,116.806
			c0.324,0,0.591,0.265,0.591,0.59v2.755c0,0.325-0.267,0.591-0.591,0.591h-0.101c-0.325,0-0.591-0.266-0.591-0.591v-2.755
			c0-0.325,0.266-0.59,0.591-0.59H300.767z"/>
	</g>
	<g>
		<defs>
			<rect id="SVGID_49_" x="-55.039" y="57.412" width="528.521" height="656.686"/>
		</defs>
		<clipPath id="SVGID_50_">
			<use xlink:href="#SVGID_49_"  overflow="visible"/>
		</clipPath>
		<path clip-path="url(#SVGID_50_)" fill="#FFFFFF" d="M300.06,121.158c0,0.985-2.674,1.787-3.661,1.787s-3.662-0.802-3.662-1.787
			v-17.971c0-0.988,2.675-1.788,3.662-1.788s3.659,0.8,3.659,1.788L300.06,121.158z"/>
	</g>
	<g>
		<defs>
			<rect id="SVGID_51_" x="-55.039" y="57.412" width="528.521" height="656.686"/>
		</defs>
		<clipPath id="SVGID_52_">
			<use xlink:href="#SVGID_51_"  overflow="visible"/>
		</clipPath>
		<path clip-path="url(#SVGID_52_)" fill="none" stroke="#000000" stroke-width="0.78" d="M300.06,121.158
			c0,0.985-2.674,1.787-3.661,1.787s-3.662-0.802-3.662-1.787v-17.971c0-0.988,2.675-1.788,3.662-1.788s3.659,0.8,3.659,1.788
			L300.06,121.158z"/>
	</g>
	<g>
		<defs>
			<rect id="SVGID_53_" x="-55.039" y="57.412" width="528.521" height="656.686"/>
		</defs>
		<clipPath id="SVGID_54_">
			<use xlink:href="#SVGID_53_"  overflow="visible"/>
		</clipPath>
		<path clip-path="url(#SVGID_54_)" fill="#FFFFFF" d="M307.928,106.312c4.264,0,8.961,2.59,8.961,5.784
			c0,3.193-4.697,5.781-8.961,5.781c-4.263,0-6.481-2.588-6.481-5.781C301.446,108.902,303.665,106.312,307.928,106.312"/>
	</g>
	<g>
		<defs>
			<rect id="SVGID_55_" x="-55.039" y="57.412" width="528.521" height="656.686"/>
		</defs>
		<clipPath id="SVGID_56_">
			<use xlink:href="#SVGID_55_"  overflow="visible"/>
		</clipPath>
		<path clip-path="url(#SVGID_56_)" fill="none" stroke="#000000" stroke-width="0.65" d="M307.928,106.312
			c4.264,0,8.961,2.59,8.961,5.784c0,3.193-4.697,5.781-8.961,5.781c-4.263,0-6.481-2.588-6.481-5.781
			C301.446,108.902,303.665,106.312,307.928,106.312z"/>
	</g>
</g>
<path fill="none" stroke="#231F20" stroke-width="0.78" d="M373.965,178.931h28.925V61.822 M290.549,138.089h24.05v31.417"/>
<polygon fill="#FFFFFF" points="403.012,77.196 377.334,77.107 377.28,107.332 402.952,107.394 "/>
<polygon fill="none" stroke="#000000" stroke-width="0.78" points="403.012,77.196 377.334,77.107 377.28,107.332 402.952,107.394 
	"/>
<line fill="none" stroke="#000000" stroke-width="0.39" x1="379.568" y1="107.551" x2="379.568" y2="77.287"/>
<g>
	<g>
		<defs>
			<rect id="SVGID_57_" x="-55.039" y="57.412" width="528.521" height="656.686"/>
		</defs>
		<clipPath id="SVGID_58_">
			<use xlink:href="#SVGID_57_"  overflow="visible"/>
		</clipPath>
		<path clip-path="url(#SVGID_58_)" fill="#FFFFFF" d="M388.854,98.946c-0.015-2.171-1.793-3.914-3.958-3.899
			c-2.174,0.017-3.918,1.787-3.898,3.957c0.015,2.169,1.787,3.916,3.955,3.899C387.117,102.887,388.869,101.114,388.854,98.946"/>
	</g>
	<g>
		<defs>
			<rect id="SVGID_59_" x="-55.039" y="57.412" width="528.521" height="656.686"/>
		</defs>
		<clipPath id="SVGID_60_">
			<use xlink:href="#SVGID_59_"  overflow="visible"/>
		</clipPath>
		<path clip-path="url(#SVGID_60_)" fill="none" stroke="#231F20" stroke-width="0.65" d="M388.854,98.946
			c-0.015-2.171-1.793-3.914-3.958-3.899c-2.174,0.017-3.918,1.787-3.898,3.957c0.015,2.169,1.787,3.916,3.955,3.899
			C387.117,102.887,388.869,101.114,388.854,98.946z"/>
	</g>
	<g>
		<defs>
			<rect id="SVGID_61_" x="-55.039" y="57.412" width="528.521" height="656.686"/>
		</defs>
		<clipPath id="SVGID_62_">
			<use xlink:href="#SVGID_61_"  overflow="visible"/>
		</clipPath>
		<path clip-path="url(#SVGID_62_)" fill="#FFFFFF" d="M388.768,87.171c-0.019-2.17-1.795-3.913-3.961-3.897
			c-2.171,0.016-3.915,1.786-3.896,3.954c0.016,2.167,1.786,3.918,3.956,3.903C387.03,91.115,388.782,89.338,388.768,87.171"/>
	</g>
	<g>
		<defs>
			<rect id="SVGID_63_" x="-55.039" y="57.412" width="528.521" height="656.686"/>
		</defs>
		<clipPath id="SVGID_64_">
			<use xlink:href="#SVGID_63_"  overflow="visible"/>
		</clipPath>
		<path clip-path="url(#SVGID_64_)" fill="none" stroke="#231F20" stroke-width="0.65" d="M388.768,87.171
			c-0.019-2.17-1.795-3.913-3.961-3.897c-2.171,0.016-3.915,1.786-3.896,3.954c0.016,2.167,1.786,3.918,3.956,3.903
			C387.03,91.115,388.782,89.338,388.768,87.171z"/>
	</g>
	<g>
		<defs>
			<rect id="SVGID_65_" x="-55.039" y="57.412" width="528.521" height="656.686"/>
		</defs>
		<clipPath id="SVGID_66_">
			<use xlink:href="#SVGID_65_"  overflow="visible"/>
		</clipPath>
		<path clip-path="url(#SVGID_66_)" fill="#FFFFFF" d="M399.54,98.867c-0.019-2.171-1.787-3.915-3.952-3.897
			c-2.174,0.013-3.921,1.786-3.903,3.954c0.017,2.17,1.785,3.917,3.961,3.9C397.813,102.809,399.556,101.035,399.54,98.867"/>
	</g>
	<g>
		<defs>
			<rect id="SVGID_67_" x="-55.039" y="57.412" width="528.521" height="656.686"/>
		</defs>
		<clipPath id="SVGID_68_">
			<use xlink:href="#SVGID_67_"  overflow="visible"/>
		</clipPath>
		<path clip-path="url(#SVGID_68_)" fill="none" stroke="#231F20" stroke-width="0.65" d="M399.54,98.867
			c-0.019-2.171-1.787-3.915-3.952-3.897c-2.174,0.013-3.921,1.786-3.903,3.954c0.017,2.17,1.785,3.917,3.961,3.9
			C397.813,102.809,399.556,101.035,399.54,98.867z"/>
	</g>
	<g>
		<defs>
			<rect id="SVGID_69_" x="-55.039" y="57.412" width="528.521" height="656.686"/>
		</defs>
		<clipPath id="SVGID_70_">
			<use xlink:href="#SVGID_69_"  overflow="visible"/>
		</clipPath>
		<path clip-path="url(#SVGID_70_)" fill="#FFFFFF" d="M399.451,87.092c-0.016-2.17-1.781-3.914-3.95-3.896
			c-2.176,0.016-3.92,1.785-3.902,3.953c0.016,2.168,1.787,3.918,3.961,3.9C397.725,91.034,399.47,89.259,399.451,87.092"/>
	</g>
	<g>
		<defs>
			<rect id="SVGID_71_" x="-55.039" y="57.412" width="528.521" height="656.686"/>
		</defs>
		<clipPath id="SVGID_72_">
			<use xlink:href="#SVGID_71_"  overflow="visible"/>
		</clipPath>
		<path clip-path="url(#SVGID_72_)" fill="none" stroke="#231F20" stroke-width="0.65" d="M399.451,87.092
			c-0.016-2.17-1.781-3.914-3.95-3.896c-2.176,0.016-3.92,1.785-3.902,3.953c0.016,2.168,1.787,3.918,3.961,3.9
			C397.725,91.034,399.47,89.259,399.451,87.092z"/>
	</g>
</g>
<rect x="402.914" y="78.62" fill="#FFFFFF" width="1.19" height="28.167"/>
<rect x="402.914" y="78.62" fill="none" stroke="#231F20" stroke-width="0.78" width="1.19" height="28.167"/>
<path fill="none" stroke="#000000" stroke-width="0.975" d="M268.881,267.004h-1.3 M185.898,269.436h82.982"/>
<line fill="none" stroke="#000000" stroke-width="0.975" stroke-dasharray="1.966,1.966,1.966,1.966" stroke-dashoffset="3" x1="264.771" y1="267.006" x2="254.939" y2="267.006"/>
<line fill="none" stroke="#000000" stroke-width="0.975" stroke-dasharray="2.13,2.13,2.13,2.13,2.13,2.13" stroke-dashoffset="4" x1="253.535" y1="267.006" x2="187.519" y2="267.006"/>
<line fill="none" stroke="#000000" stroke-width="0.975" x1="186.115" y1="267.006" x2="184.815" y2="267.006"/>
<path fill="none" stroke="#231F20" stroke-width="0.78" d="M399.965,438.418h44.523 M333.015,438.422h45.5 M266.55,438.504h46.8
	 M197.653,438.614h50.7 M198.465,425.823h46.475 M310.346,425.823h-43.631 M376.89,425.823h-44.2 M399.314,426.147h44.851"/>
<line fill="none" stroke="#000000" stroke-width="0.65" x1="404.992" y1="179.955" x2="404.992" y2="215.705"/>
<rect x="407.118" y="192.656" fill="none" stroke="#000000" stroke-width="0.78" width="1.462" height="2.763"/>
<rect x="377.031" y="180.172" fill="none" stroke="#000000" stroke-width="0.78" width="30.062" height="35.245"/>
<rect x="407.118" y="201.352" fill="none" stroke="#000000" stroke-width="0.78" width="1.462" height="2.763"/>
<g>
	<g>
		<defs>
			<rect id="SVGID_73_" x="-55.039" y="57.412" width="528.521" height="656.686"/>
		</defs>
		<clipPath id="SVGID_74_">
			<use xlink:href="#SVGID_73_"  overflow="visible"/>
		</clipPath>
		<circle clip-path="url(#SVGID_74_)" fill="none" stroke="#000000" stroke-width="0.52" cx="303.338" cy="152.817" r="1.189"/>
	</g>
	<g>
		<defs>
			<rect id="SVGID_75_" x="-55.039" y="57.412" width="528.521" height="656.686"/>
		</defs>
		<clipPath id="SVGID_76_">
			<use xlink:href="#SVGID_75_"  overflow="visible"/>
		</clipPath>
		<path clip-path="url(#SVGID_76_)" fill="none" stroke="#000000" stroke-width="0.65" d="M293.507,152.817
			c0-0.638,0.515-1.156,1.154-1.156c0.637,0,1.152,0.518,1.152,1.156c0,0.637-0.517,1.154-1.152,1.154
			C294.021,153.972,293.507,153.455,293.507,152.817z M295.99,152.287h4.717v1.06h-4.717V152.287z M293.394,147.625h2.487v10.384
			h-2.487V147.625z"/>
	</g>
</g>
<rect x="293.013" y="142.287" fill="none" stroke="#000000" stroke-width="0.78" width="19.075" height="21.06"/>
<rect x="295.938" y="143.958" fill="none" stroke="#000000" stroke-width="0.585" width="14.521" height="17.758"/>
<g>
	<g>
		<defs>
			<rect id="SVGID_77_" x="-55.039" y="57.412" width="528.521" height="656.686"/>
		</defs>
		<clipPath id="SVGID_78_">
			<use xlink:href="#SVGID_77_"  overflow="visible"/>
		</clipPath>
		<path clip-path="url(#SVGID_78_)" fill="#FFFFFF" d="M381.152,119.719c-1.008,0-1.843,0.83-1.843,1.843v22.406
			c0,1.011,0.833,1.837,1.843,1.837h15.758c1.017,0,1.845-0.826,1.845-1.837v-22.406c0-1.013-0.828-1.843-1.845-1.843H381.152z"/>
	</g>
	<g>
		<defs>
			<rect id="SVGID_79_" x="-55.039" y="57.412" width="528.521" height="656.686"/>
		</defs>
		<clipPath id="SVGID_80_">
			<use xlink:href="#SVGID_79_"  overflow="visible"/>
		</clipPath>
		<path clip-path="url(#SVGID_80_)" fill="none" stroke="#231F20" stroke-width="0.78" d="M381.152,119.719
			c-1.008,0-1.843,0.83-1.843,1.843v22.406c0,1.011,0.833,1.837,1.843,1.837h15.758c1.017,0,1.845-0.826,1.845-1.837v-22.406
			c0-1.013-0.828-1.843-1.845-1.843H381.152z"/>
	</g>
	<g>
		<defs>
			<rect id="SVGID_81_" x="-55.039" y="57.412" width="528.521" height="656.686"/>
		</defs>
		<clipPath id="SVGID_82_">
			<use xlink:href="#SVGID_81_"  overflow="visible"/>
		</clipPath>
		<path clip-path="url(#SVGID_82_)" fill="#FFFFFF" d="M383.621,142.003c0.002,1.038,0.835,1.89,1.851,1.89h9.463
			c1.018-0.003,1.849-0.852,1.849-1.89V123.58c0-1.038-0.834-1.886-1.849-1.886h-9.463c-1.016,0-1.851,0.848-1.851,1.886V142.003z"
			/>
	</g>
	<g>
		<defs>
			<rect id="SVGID_83_" x="-55.039" y="57.412" width="528.521" height="656.686"/>
		</defs>
		<clipPath id="SVGID_84_">
			<use xlink:href="#SVGID_83_"  overflow="visible"/>
		</clipPath>
		<path clip-path="url(#SVGID_84_)" fill="none" stroke="#231F20" stroke-width="0.585" d="M383.621,142.003
			c0.002,1.038,0.835,1.89,1.851,1.89h9.463c1.018-0.003,1.849-0.852,1.849-1.89V123.58c0-1.038-0.834-1.886-1.849-1.886h-9.463
			c-1.016,0-1.851,0.848-1.851,1.886V142.003z"/>
	</g>
	<g>
		<defs>
			<rect id="SVGID_85_" x="-55.039" y="57.412" width="528.521" height="656.686"/>
		</defs>
		<clipPath id="SVGID_86_">
			<use xlink:href="#SVGID_85_"  overflow="visible"/>
		</clipPath>
		<path clip-path="url(#SVGID_86_)" fill="#FFFFFF" d="M390.418,131.196c-0.763,0-1.386,0.622-1.386,1.389
			c0,0.769,0.623,1.384,1.386,1.384c0.764,0,1.391-0.612,1.391-1.384C391.809,131.818,391.182,131.196,390.418,131.196"/>
	</g>
	<g>
		<defs>
			<rect id="SVGID_87_" x="-55.039" y="57.412" width="528.521" height="656.686"/>
		</defs>
		<clipPath id="SVGID_88_">
			<use xlink:href="#SVGID_87_"  overflow="visible"/>
		</clipPath>
		<path clip-path="url(#SVGID_88_)" fill="none" stroke="#231F20" stroke-width="0.52" d="M390.418,131.196
			c-0.763,0-1.386,0.622-1.386,1.389c0,0.769,0.623,1.384,1.386,1.384c0.764,0,1.391-0.612,1.391-1.384
			C391.809,131.818,391.182,131.196,390.418,131.196z"/>
	</g>
	<g>
		<defs>
			<rect id="SVGID_89_" x="-55.039" y="57.412" width="528.521" height="656.686"/>
		</defs>
		<clipPath id="SVGID_90_">
			<use xlink:href="#SVGID_89_"  overflow="visible"/>
		</clipPath>
		<path clip-path="url(#SVGID_90_)" fill="#FFFFFF" d="M381.416,127.607c-0.74,0-1.425,0.6-1.425,1.341v7.312
			c0,0.74,0.685,1.341,1.425,1.341c0.738,0,1.424-0.601,1.424-1.341v-7.312C382.84,128.207,382.155,127.607,381.416,127.607"/>
	</g>
	<g>
		<defs>
			<rect id="SVGID_91_" x="-55.039" y="57.412" width="528.521" height="656.686"/>
		</defs>
		<clipPath id="SVGID_92_">
			<use xlink:href="#SVGID_91_"  overflow="visible"/>
		</clipPath>
		<path clip-path="url(#SVGID_92_)" fill="none" stroke="#231F20" stroke-width="0.52" d="M381.416,127.607
			c-0.74,0-1.425,0.6-1.425,1.341v7.312c0,0.74,0.685,1.341,1.425,1.341c0.738,0,1.424-0.601,1.424-1.341v-7.312
			C382.84,128.207,382.155,127.607,381.416,127.607z"/>
	</g>
	<g>
		<defs>
			<rect id="SVGID_93_" x="-55.039" y="57.412" width="528.521" height="656.686"/>
		</defs>
		<clipPath id="SVGID_94_">
			<use xlink:href="#SVGID_93_"  overflow="visible"/>
		</clipPath>
		<path clip-path="url(#SVGID_94_)" fill="#FFFFFF" d="M389.194,127.121l-6.814,6.274c-0.399,0.348-0.998,0.311-1.35-0.088
			c-0.357-0.389-0.321-0.999,0.08-1.35l7.062-5.99C388.498,125.688,389.509,126.835,389.194,127.121"/>
	</g>
	<g>
		<defs>
			<rect id="SVGID_95_" x="-55.039" y="57.412" width="528.521" height="656.686"/>
		</defs>
		<clipPath id="SVGID_96_">
			<use xlink:href="#SVGID_95_"  overflow="visible"/>
		</clipPath>
		<path clip-path="url(#SVGID_96_)" fill="none" stroke="#231F20" stroke-width="0.65" d="M389.194,127.121l-6.814,6.274
			c-0.399,0.348-0.998,0.311-1.35-0.088c-0.357-0.389-0.321-0.999,0.08-1.35l7.062-5.99
			C388.498,125.688,389.509,126.835,389.194,127.121z"/>
	</g>
	<g>
		<defs>
			<rect id="SVGID_97_" x="-55.039" y="57.412" width="528.521" height="656.686"/>
		</defs>
		<clipPath id="SVGID_98_">
			<use xlink:href="#SVGID_97_"  overflow="visible"/>
		</clipPath>
		<path clip-path="url(#SVGID_98_)" fill="#FFFFFF" d="M384.785,133.398h-3.292c-0.352,0-0.641-0.287-0.641-0.645
			c0-0.349,0.289-0.632,0.641-0.632h3.292c0.355,0,0.642,0.283,0.642,0.635C385.427,133.11,385.142,133.398,384.785,133.398"/>
	</g>
	<g>
		<defs>
			<rect id="SVGID_99_" x="-55.039" y="57.412" width="528.521" height="656.686"/>
		</defs>
		<clipPath id="SVGID_100_">
			<use xlink:href="#SVGID_99_"  overflow="visible"/>
		</clipPath>
		<path clip-path="url(#SVGID_100_)" fill="none" stroke="#231F20" stroke-width="0.52" d="M384.785,133.398h-3.292
			c-0.352,0-0.641-0.287-0.641-0.645c0-0.349,0.289-0.632,0.641-0.632h3.292c0.355,0,0.642,0.283,0.642,0.635
			C385.427,133.11,385.142,133.398,384.785,133.398z"/>
	</g>
	<g>
		<defs>
			<rect id="SVGID_101_" x="-55.039" y="57.412" width="528.521" height="656.686"/>
		</defs>
		<clipPath id="SVGID_102_">
			<use xlink:href="#SVGID_101_"  overflow="visible"/>
		</clipPath>
		<path clip-path="url(#SVGID_102_)" fill="#FFFFFF" d="M381.54,134.781c-0.423,0-0.768,0.348-0.768,0.773
			c0,0.422,0.345,0.763,0.768,0.763c0.416,0,0.764-0.341,0.764-0.767C382.304,135.126,381.96,134.781,381.54,134.781"/>
	</g>
	<g>
		<defs>
			<rect id="SVGID_103_" x="-55.039" y="57.412" width="528.521" height="656.686"/>
		</defs>
		<clipPath id="SVGID_104_">
			<use xlink:href="#SVGID_103_"  overflow="visible"/>
		</clipPath>
		<path clip-path="url(#SVGID_104_)" fill="none" stroke="#231F20" stroke-width="0.455" d="M381.54,134.781
			c-0.423,0-0.768,0.348-0.768,0.773c0,0.422,0.345,0.763,0.768,0.763c0.416,0,0.764-0.341,0.764-0.767
			C382.304,135.126,381.96,134.781,381.54,134.781z"/>
	</g>
	<g>
		<defs>
			<rect id="SVGID_105_" x="-55.039" y="57.412" width="528.521" height="656.686"/>
		</defs>
		<clipPath id="SVGID_106_">
			<use xlink:href="#SVGID_105_"  overflow="visible"/>
		</clipPath>
		<path clip-path="url(#SVGID_106_)" fill="#FFFFFF" d="M381.472,128.883c-0.423,0-0.768,0.348-0.768,0.772
			c0,0.421,0.345,0.764,0.768,0.764c0.418,0,0.764-0.343,0.764-0.767C382.236,129.228,381.892,128.883,381.472,128.883"/>
	</g>
	<g>
		<defs>
			<rect id="SVGID_107_" x="-55.039" y="57.412" width="528.521" height="656.686"/>
		</defs>
		<clipPath id="SVGID_108_">
			<use xlink:href="#SVGID_107_"  overflow="visible"/>
		</clipPath>
		<path clip-path="url(#SVGID_108_)" fill="none" stroke="#231F20" stroke-width="0.455" d="M381.472,128.883
			c-0.423,0-0.768,0.348-0.768,0.772c0,0.421,0.345,0.764,0.768,0.764c0.418,0,0.764-0.343,0.764-0.767
			C382.236,129.228,381.892,128.883,381.472,128.883z"/>
	</g>
</g>
<line fill="none" stroke="#000000" stroke-width="0.65" stroke-dasharray="1.936,1.936,1.936,1.936,1.936,1.936" stroke-dashoffset="3" x1="399.661" y1="151.124" x2="381.272" y2="151.124"/>
<line fill="none" stroke="#000000" stroke-width="0.65" stroke-dasharray="1.899,1.899,1.899,1.899,1.899,1.899" stroke-dashoffset="3" x1="379.336" y1="153.972" x2="379.336" y2="172.009"/>
<line fill="none" stroke="#000000" stroke-width="0.65" stroke-dasharray="1.892,1.892,1.892,1.892,1.892,1.892" stroke-dashoffset="3" x1="382.175" y1="173.907" x2="400.152" y2="173.907"/>
<path fill="none" stroke="#000000" stroke-width="0.65" d="M401.099,173.907h0.946 M379.336,172.958v0.949h0.946 M380.304,151.124
	h-0.968v0.949 M402.566,151.124h-0.969"/>
<polyline fill="none" stroke="#000000" stroke-width="0.65" points="402.046,173.942 404.511,173.942 404.511,151.123 
	402.575,151.123 "/>
<polyline fill="#BBBDBF" points="463.469,61.172 463.469,424.502 445.186,424.502 445.186,436.854 471.501,436.854 471.532,61.822 
	"/>
<g>
	<g>
		<defs>
			<rect id="SVGID_109_" x="-55.039" y="57.412" width="528.521" height="656.686"/>
		</defs>
		<clipPath id="SVGID_110_">
			<use xlink:href="#SVGID_109_"  overflow="visible"/>
		</clipPath>
		<polyline clip-path="url(#SVGID_110_)" fill="none" stroke="#231F20" stroke-width="3.9" points="463.469,61.172 463.469,424.502 
			445.186,424.502 445.186,436.854 471.501,436.854 471.532,61.822 		"/>
	</g>
</g>
<rect x="288.814" y="60.198" fill="#BBBDBF" width="13.65" height="29.9"/>
<rect x="366.165" y="58.897" fill="#BBBDBF" width="8.45" height="33.475"/>
<path fill="none" stroke="#231F20" stroke-width="3.9" d="M443.515,431.672h-44.851 M377.432,431.672h-44.85 M312.54,431.672
	h-45.825 M243.965,431.672H197.49"/>
<g>
	<g>
		<defs>
			<rect id="SVGID_111_" x="-55.039" y="57.412" width="528.521" height="656.686"/>
		</defs>
		<clipPath id="SVGID_112_">
			<use xlink:href="#SVGID_111_"  overflow="visible"/>
		</clipPath>
		<path clip-path="url(#SVGID_112_)" fill="none" stroke="#231F20" stroke-width="5.2" d="M168.153,253.573h120.662V60.026
			l136.172-0.014 M454.236,60.012h19.236"/>
	</g>
	<g>
		<defs>
			<rect id="SVGID_113_" x="-55.039" y="57.412" width="528.521" height="656.686"/>
		</defs>
		<clipPath id="SVGID_114_">
			<use xlink:href="#SVGID_113_"  overflow="visible"/>
		</clipPath>
		<path clip-path="url(#SVGID_114_)" fill="none" stroke="#231F20" stroke-width="5.85" d="M270.568,253.247v31.852 M373.314,59.873
			v154.05h-8.125 M335.336,213.922h-46.521 M319.364,425.823v-89.701 M319.364,299.397v-22.75 M319.364,247.072v-35.1
			 M181.995,284.772h30.443 M242.665,284.772h78"/>
	</g>
</g>
<line fill="none" stroke="#231F20" stroke-width="6.5" x1="290.439" y1="170.697" x2="316.439" y2="170.697"/>
<g>
	<g>
		<defs>
			<rect id="SVGID_115_" x="-55.039" y="57.412" width="528.521" height="656.686"/>
		</defs>
		<clipPath id="SVGID_116_">
			<use xlink:href="#SVGID_115_"  overflow="visible"/>
		</clipPath>
		<polyline clip-path="url(#SVGID_116_)" fill="none" stroke="#231F20" stroke-width="5.2" points="302.465,61.497 302.465,91.242 
			291.415,91.242 		"/>
	</g>
	<g>
		<defs>
			<rect id="SVGID_117_" x="-55.039" y="57.412" width="528.521" height="656.686"/>
		</defs>
		<clipPath id="SVGID_118_">
			<use xlink:href="#SVGID_117_"  overflow="visible"/>
		</clipPath>
		<polyline clip-path="url(#SVGID_118_)" fill="none" stroke="#231F20" stroke-width="3.9" points="366.165,61.172 366.165,91.891 
			371.689,91.891 		"/>
	</g>
</g>
<rect x="322.01" y="279.361" fill="none" stroke="#231F20" stroke-width="0.78" width="1.95" height="47.126"/>
<polygon fill="#BBBDBF" points="378.431,423.321 378.431,436.881 398.664,436.881 398.664,423.362 "/>
<polygon fill="none" stroke="#231F20" stroke-width="3.9" points="378.431,423.321 378.431,436.881 398.664,436.881 
	398.664,423.362 "/>
<polygon fill="#BBBDBF" points="311.516,423.266 311.516,436.938 331.75,436.881 331.75,423.278 "/>
<polygon fill="none" stroke="#231F20" stroke-width="3.9" points="311.516,423.266 311.516,436.938 331.75,436.881 331.75,423.278 
	"/>
<polygon fill="#BBBDBF" points="244.482,423.293 244.482,437.022 264.94,436.938 264.94,423.278 "/>
<polygon fill="none" stroke="#231F20" stroke-width="3.9" points="244.482,423.293 244.482,437.022 264.94,436.938 264.94,423.278 
	"/>
<polyline fill="none" stroke="#231F20" stroke-width="3.9" points="183.637,252.426 183.587,424.127 197.053,424.127 
	197.053,437.049 170.017,437.049 170.017,253.57 "/>
<rect x="318.386" y="238.78" fill="none" stroke="#231F20" stroke-width="0.78" width="1.95" height="47.125"/>
<g>
	<g>
		<defs>
			<rect id="SVGID_119_" x="-55.039" y="57.412" width="528.521" height="656.686"/>
		</defs>
		<clipPath id="SVGID_120_">
			<use xlink:href="#SVGID_119_"  overflow="visible"/>
		</clipPath>
		
			<line clip-path="url(#SVGID_120_)" fill="none" stroke="#231F20" stroke-width="3.9" stroke-dasharray="5.952,1.952,5.952,1.952,5.952,1.952" stroke-dashoffset="7" x1="460.733" y1="62.457" x2="460.733" y2="424.084"/>
	</g>
</g>
<rect x="220.433" y="430.116" fill="#FFFFFF" width="18.58" height="3.164"/>
<rect x="220.433" y="430.116" fill="none" stroke="#000000" stroke-width="0.78" width="18.58" height="3.164"/>
<line fill="none" stroke="#000000" stroke-width="0.78" x1="220.433" y1="431.768" x2="238.903" y2="431.768"/>
<rect x="201.313" y="430.116" fill="#FFFFFF" width="19.069" height="3.164"/>
<rect x="201.313" y="430.116" fill="none" stroke="#000000" stroke-width="0.78" width="19.069" height="3.164"/>
<line fill="none" stroke="#000000" stroke-width="0.78" x1="201.313" y1="431.768" x2="220.382" y2="431.768"/>
<rect x="421.742" y="430.096" fill="#FFFFFF" width="18.58" height="3.164"/>
<rect x="421.742" y="430.096" fill="none" stroke="#000000" stroke-width="0.78" width="18.58" height="3.164"/>
<line fill="none" stroke="#000000" stroke-width="0.78" x1="421.743" y1="431.749" x2="440.214" y2="431.749"/>
<rect x="402.622" y="430.096" fill="#FFFFFF" width="19.07" height="3.164"/>
<rect x="402.622" y="430.096" fill="none" stroke="#000000" stroke-width="0.78" width="19.07" height="3.164"/>
<line fill="none" stroke="#000000" stroke-width="0.78" x1="402.622" y1="431.749" x2="421.693" y2="431.749"/>
<rect x="356.101" y="430.084" fill="#FFFFFF" width="18.58" height="3.164"/>
<rect x="356.101" y="430.084" fill="none" stroke="#000000" stroke-width="0.78" width="18.58" height="3.164"/>
<line fill="none" stroke="#000000" stroke-width="0.78" x1="356.102" y1="431.739" x2="374.572" y2="431.739"/>
<rect x="336.98" y="430.084" fill="#FFFFFF" width="19.069" height="3.164"/>
<rect x="336.98" y="430.084" fill="none" stroke="#000000" stroke-width="0.78" width="19.069" height="3.164"/>
<line fill="none" stroke="#000000" stroke-width="0.78" x1="336.981" y1="431.739" x2="356.051" y2="431.739"/>
<rect x="288.062" y="430.104" fill="#FFFFFF" width="18.58" height="3.164"/>
<rect x="288.062" y="430.104" fill="none" stroke="#000000" stroke-width="0.78" width="18.58" height="3.164"/>
<line fill="none" stroke="#000000" stroke-width="0.78" x1="288.063" y1="431.756" x2="306.534" y2="431.756"/>
<rect x="268.943" y="430.104" fill="#FFFFFF" width="19.068" height="3.164"/>
<rect x="268.943" y="430.104" fill="none" stroke="#000000" stroke-width="0.78" width="19.068" height="3.164"/>
<line fill="none" stroke="#000000" stroke-width="0.78" x1="268.943" y1="431.756" x2="288.013" y2="431.756"/>
<g>
	<g>
		<defs>
			<rect id="SVGID_121_" x="45.101" y="158.946" width="100.145" height="4.562"/>
		</defs>
		<clipPath id="SVGID_122_">
			<use xlink:href="#SVGID_121_"  overflow="visible"/>
		</clipPath>
		<path clip-path="url(#SVGID_122_)" fill="#231F20" d="M145.245,159.324v-0.302h-3.402v0.302h1.537v4.108h0.328v-4.108H145.245z
			 M139.453,163.432v-0.303h-2.841v-1.771h2.524v-0.302h-2.524v-1.733h2.811v-0.302h-3.139v4.41L139.453,163.432L139.453,163.432z
			 M133.579,163.432v-0.303h-2.841v-1.771h2.525v-0.302h-2.525v-1.733h2.81v-0.302h-3.138v4.41L133.579,163.432L133.579,163.432z
			 M127.302,160.299c0,0.638-0.547,1.01-1.284,1.01h-1.486v-1.985h1.506c0.8,0,1.266,0.372,1.266,0.963L127.302,160.299
			L127.302,160.299z M127.794,163.432l-1.455-1.885c0.743-0.102,1.291-0.522,1.291-1.26v-0.013c0-0.737-0.623-1.254-1.574-1.254
			h-1.853v4.41h0.327v-1.827h1.442l1.404,1.827L127.794,163.432L127.794,163.432z M121.553,159.324v-0.302h-3.4v0.302h1.538v4.108
			h0.326v-4.108H121.553z M115.831,162.291v-0.013c0-0.644-0.428-1.008-1.449-1.216c-1.046-0.214-1.285-0.498-1.285-0.964v-0.013
			c0-0.461,0.43-0.833,1.078-0.833c0.484,0,0.9,0.14,1.316,0.499l0.208-0.258c-0.448-0.36-0.87-0.536-1.513-0.536
			c-0.818,0-1.418,0.504-1.418,1.16v0.012c0,0.668,0.43,1.027,1.487,1.242c1.002,0.2,1.246,0.471,1.246,0.938v0.012
			c0,0.505-0.453,0.876-1.115,0.876c-0.647,0-1.096-0.207-1.579-0.654l-0.216,0.244c0.529,0.475,1.071,0.707,1.776,0.707
			C115.219,163.494,115.831,163.002,115.831,162.291 M104.669,163.432v-4.41h-0.313v3.837l-3.043-3.837h-0.31v4.41h0.315v-3.919
			l3.104,3.919H104.669z M97.894,161.24c0,1.088-0.78,1.971-1.871,1.971c-1.09,0-1.884-0.895-1.884-1.983v-0.015
			c0-1.09,0.781-1.97,1.871-1.97s1.883,0.895,1.883,1.984L97.894,161.24L97.894,161.24z M98.236,161.227
			c0.006-0.006,0.006-0.006,0-0.014c0-1.203-0.876-2.269-2.212-2.269c-1.335,0-2.225,1.078-2.225,2.281v0.013
			c0,1.203,0.876,2.268,2.212,2.268C97.346,163.506,98.236,162.43,98.236,161.227 M91.693,159.324v-0.302h-3.402v0.302h1.538v4.108
			h0.327v-4.108H91.693z M85.894,162.846v-1.701h-1.789v0.302h1.474v1.267c-0.321,0.271-0.844,0.504-1.405,0.504
			c-1.178,0-1.89-0.85-1.89-1.989v-0.015c0-1.062,0.75-1.97,1.821-1.97c0.668,0,1.07,0.226,1.418,0.529l0.214-0.246
			c-0.441-0.365-0.896-0.58-1.613-0.58c-1.316,0-2.18,1.09-2.18,2.281v0.014c0,1.24,0.825,2.268,2.218,2.268
			C84.881,163.506,85.497,163.199,85.894,162.846 M79.177,163.432v-4.41h-0.314v3.837l-3.043-3.837H75.51v4.41h0.315v-3.919
			l3.104,3.919H79.177z M72.502,159.021h-0.328v4.41h0.328V159.021z M69.167,163.432v-4.41H68.84v2.041h-2.822v-2.041H65.69v4.41
			h0.327v-2.066h2.822v2.066H69.167z M62.959,162.291v-0.013c0-0.644-0.428-1.008-1.449-1.216c-1.045-0.214-1.284-0.498-1.284-0.964
			v-0.013c0-0.461,0.429-0.833,1.076-0.833c0.486,0,0.901,0.14,1.317,0.499l0.208-0.258c-0.447-0.36-0.869-0.536-1.512-0.536
			c-0.819,0-1.417,0.504-1.417,1.16v0.012c0,0.668,0.428,1.027,1.485,1.242c1.002,0.2,1.248,0.471,1.248,0.938v0.012
			c0,0.505-0.454,0.876-1.114,0.876c-0.649,0-1.098-0.207-1.582-0.654l-0.215,0.244c0.529,0.475,1.071,0.707,1.777,0.707
			C62.347,163.494,62.959,163.002,62.959,162.291 M56.455,161.9H54.13l1.166-2.551L56.455,161.9z M57.513,163.432l-2.054-4.441
			h-0.314l-2.054,4.441h0.341l0.56-1.235h2.602l0.562,1.235H57.513z M51.413,159.021h-0.34l-1.386,3.925l-1.292-3.938h-0.252
			l-1.291,3.938l-1.387-3.925H45.1l1.601,4.439h0.264l1.292-3.83l1.291,3.83h0.266L51.413,159.021z"/>
	</g>
</g>
</svg>
