<?xml version="1.0" encoding="utf-8"?>
<!-- Generator: Adobe Illustrator 15.0.2, SVG Export Plug-In . SVG Version: 6.00 Build 0)  -->
<!DOCTYPE svg PUBLIC "-//W3C//DTD SVG 1.1//EN" "http://www.w3.org/Graphics/SVG/1.1/DTD/svg11.dtd">
<svg version="1.1" id="Layer_1" xmlns="http://www.w3.org/2000/svg" xmlns:xlink="http://www.w3.org/1999/xlink" x="0px" y="0px"
	 width="513.359px" height="495.36px" viewBox="0 0 513.359 495.36" enable-background="new 0 0 513.359 495.36"
	 xml:space="preserve">
<path fill="#FFFFFF" d="M78.8,59.52h33.15v44.2H78.8V59.52z M111.95,59.52h33.15v44.2h-33.15V59.52z M144.25,111.37v-7.65h-23.8
	v7.65h-8.5v41.65h33.15v-41.65H144.25z"/>
<path fill="#BBBDBF" d="M78.8,110.52H58.4v22.1H45.65v20.4H78.8V110.52z"/>
<path fill="#FFFFFF" d="M77.95,110.52v42.5h34v-17h-6.8v-13.6H89v-12.75L77.95,110.52z M45.65,58.67h32.3v45.05h-13.6v-6.8H60.1
	v-10.2H45.65V58.67z"/>
<g>
	<defs>
		<rect id="SVGID_1_" x="-55.04" y="57.4" width="528.521" height="656.7"/>
	</defs>
	<clipPath id="SVGID_2_">
		<use xlink:href="#SVGID_1_"  overflow="visible"/>
	</clipPath>
	<path clip-path="url(#SVGID_2_)" fill="none" stroke="#262626" stroke-width="2.053" stroke-miterlimit="10" d="M145,153.25H45.3
		v-94.3H145V153.25z"/>
</g>
<path fill="none" stroke="#262626" stroke-width="1.173" stroke-miterlimit="10" d="M58.74,110.87h61.45v-7.33 M49.05,96.5h11.3
	 M48.75,104.42h10v0.88 M58.73,108.53v24.2H46.28 M45.4,104.43h3.37V86.37h11.6V96.8h3.95v7.03h81.1 M78.54,153.55v-43.02
	 M111.84,153.55v-43.02 M111.84,103.25V59.62 M78.4,103.25V59.62"/>
<g>
	<defs>
		<rect id="SVGID_3_" x="-55.04" y="57.4" width="528.521" height="656.7"/>
	</defs>
	<clipPath id="SVGID_4_">
		<use xlink:href="#SVGID_3_"  overflow="visible"/>
	</clipPath>
	<path clip-path="url(#SVGID_4_)" fill="none" stroke="#000000" stroke-width="0.425" d="M55.4,105.22c0,1.8,1.45,3.25,3.25,3.25
		 M55.39,105.22h3.25v-0.18H55.4v0.18H55.39z M110.43,114.02c-1.8,0-3.25-1.45-3.25-3.24 M110.61,114.03h-0.2v-3.25h0.2V114.03z
		 M77.37,113.95c-1.8,0-3.26-1.45-3.26-3.25 M77.55,113.95h-0.2v-3.25h0.2V113.95z M113.25,114.03c1.8,0,3.26-1.46,3.26-3.26
		 M113.08,114.03h0.2v-3.25h-0.2V114.03z M80.58,113.95c1.8,0,3.25-1.45,3.25-3.25 M80.4,113.95h0.18v-3.25H80.4V113.95z
		 M113.88,100.42c1.8,0,3.26,1.46,3.26,3.25 M113.7,100.42h0.2v3.25h-0.2V100.42z M94.9,100.32c-1.78,0-3.24,1.45-3.24,3.24
		 M95.1,100.31h-0.2v3.27h0.2v-3.26V100.31z M67.74,102.59c0-1.8-1.45-3.25-3.25-3.25 M67.76,102.59H64.5v0.2h3.27v-0.2H67.76z"/>
</g>
<path fill="none" stroke="#000000" stroke-width="0.452" d="M49.35,119.67h8.96 M46.11,120.87h12.2 M46.09,122.07h12.2
	 M46.13,123.27h12.23 M46.16,124.47h12.2 M46.16,125.67h12.2 M46.19,126.91h12.17"/>
<path fill="none" stroke="#000000" stroke-width="0.425" d="M46.13,122.42l3.66-2.7l-0.2-0.55l0.93,0.88l-0.26-0.64l1.76-1.06
	 M45.78,111.73h6.37 M45.77,112.93h6.37 M45.76,114.13h6.37 M45.75,115.33h6.37 M45.74,116.53h6.37 M45.73,117.71h6.3 M45.6,118.91
	h5.47 M45.95,119.86h3.56"/>
<path fill="none" stroke="#000000" stroke-width="0.452" d="M51.6,118.47h6.77"/>
<path fill="none" stroke="#000000" stroke-width="0.425" d="M94.43,110.72l0.93,2.88l0.6-0.05l-1.1,0.7l0.7-0.1l0.6,2.1
	 M103.56,111.25v5 M102.36,111.25v5 M101.16,111.25v5 M99.98,111.25v5 M98.78,111.25v4.9 M97.58,111.25v4.9 M96.38,111.25v4.9
	 M95.18,111.25v1.66"/>
<path fill="#FFFFFF" d="M92.62,116.97h11.3v-0.58H92.6v0.57L92.62,116.97z M104.22,117.27H92.3v-1.18h11.9v1.17L104.22,117.27z"/>
<path fill="none" stroke="#262626" stroke-width="0.425" d="M92.62,116.97h11.3v-0.58H92.6v0.57L92.62,116.97z M104.22,117.27H92.3
	v-1.18h11.9v1.17L104.22,117.27z"/>
<path fill="#FFFFFF" d="M52.36,127.18h0.58v-15.33h-0.58V127.18z M52.06,111.45h1.18v16.13h-1.18V111.45z"/>
<path fill="none" stroke="#262626" stroke-width="0.495" d="M52.36,127.18h0.58v-15.33h-0.58V127.18z M52.06,111.45h1.18v16.13
	h-1.18V111.45z"/>
<path fill="none" stroke="#000000" stroke-width="0.425" d="M95.08,114.24v1.93 M93.88,111.27v4.9 M92.68,111.27v4.9 M95.04,117.32
	v4.9 M93.84,117.32v4.9 M92.64,117.32v4.9 M103.67,117.29v4.98 M102.47,117.27v5 M101.27,117.27v5 M99.95,117.27v5 M98.75,117.27
	v4.9 M97.55,117.27v4.9 M96.35,117.27v4.9"/>
<path fill="none" stroke="#262626" stroke-width="1.173" stroke-miterlimit="10" d="M104.94,116.45v6.45 M88.5,110.87v11.3h16.44
	v13.2h6.74"/>
<path fill="none" stroke="#000000" stroke-width="0.442" d="M105.18,121.92h6.3 M105.18,123.12h6.3 M105.18,124.32h6.3
	 M105.18,125.52h6.3 M105.18,126.72h6.3 M105.18,127.92h6.3 M105.18,129.12h6.3 M105.18,130.3h6.3 M105.18,131.5h6.3 M105.18,132.7
	h6.3 M105.18,133.9h6.3"/>
<path d="M56.85,89.43h-3.37v1.55h3v0.93h-3v1.6h3.4v0.95h-4.44V88.5h4.4v0.93H56.85z"/>
<g>
	<defs>
		<rect id="SVGID_5_" x="-55.04" y="57.4" width="528.521" height="656.7"/>
	</defs>
	<clipPath id="SVGID_6_">
		<use xlink:href="#SVGID_5_"  overflow="visible"/>
	</clipPath>
	<path clip-path="url(#SVGID_6_)" fill="#231F20" d="M445.3,143.43l-2.93-3.73h-0.5v4.65h0.53v-3.8l3,3.8h0.42v-4.65h-0.5v3.73
		H445.3z M440.8,139.7h-3.37v4.65h3.4v-0.47h-2.88v-1.63h2.54v-0.48h-2.55v-1.6h2.84v-0.47H440.8z M435.58,142.26v2.1h0.53v-4.66
		h-0.521v2.07h-2.68v-2.07h-0.53v4.65h0.53v-2.1h2.7L435.58,142.26z M431.45,143.62l-0.34-0.34c-0.44,0.42-0.86,0.67-1.5,0.67
		c-1.021,0-1.801-0.85-1.801-1.93s0.771-1.92,1.801-1.92c0.64,0,1.08,0.27,1.47,0.64l0.36-0.38c-0.471-0.44-0.98-0.74-1.82-0.74
		c-1.36,0-2.34,1.08-2.34,2.4c0,1.36,1,2.4,2.33,2.4c0.84,0,1.369-0.3,1.85-0.8 M425.26,140.18h1.55v-0.48h-3.659v0.5h1.569v4.15
		h0.54v-4.16V140.18z M421.6,144.35h0.5v-4.65h-0.5V144.35z M418.64,141.73l2-2.03h-0.68l-2.68,2.78v-2.78h-0.521v4.65h0.521v-1.25
		l1-1l1.779,2.25h0.66L418.64,141.73L418.64,141.73z"/>
</g>
<g>
	<defs>
		<rect id="SVGID_7_" x="-55.04" y="57.4" width="528.521" height="656.7"/>
	</defs>
	<clipPath id="SVGID_8_">
		<use xlink:href="#SVGID_7_"  overflow="visible"/>
	</clipPath>
	<path clip-path="url(#SVGID_8_)" fill="#231F20" d="M401.38,356.44v3.77h0.521v-4.639h-0.53l-1.7,2.539l-1.7-2.539h-0.52v4.648h0.5
		v-3.75l1.7,2.5h0.029l1.7-2.5V356.44z M395.779,357.889c0,1.061-0.75,1.9-1.799,1.9c-1.08,0-1.851-0.85-1.851-1.92
		c0-1.061,0.761-1.92,1.83-1.92c1.06,0,1.83,0.871,1.83,1.93 M396.33,357.86c0-1.301-0.95-2.4-2.37-2.4s-2.38,1.121-2.38,2.4
		c0,1.301,0.939,2.4,2.359,2.4c1.4,0,2.381-1.1,2.381-2.4 M390.12,357.86c0,1.08-0.761,1.93-1.82,1.93s-1.84-0.85-1.84-1.92
		c0-1.061,0.76-1.92,1.819-1.92c1.061,0,1.841,0.871,1.841,1.93 M390.66,357.86c0-1.301-0.95-2.4-2.36-2.4
		c-1.409,0-2.38,1.121-2.38,2.4c0,1.301,0.95,2.4,2.359,2.4C389.7,360.26,390.66,359.161,390.66,357.86 M384.46,356.959
		c0,0.6-0.5,0.951-1.2,0.951h-1.42v-1.9h1.439c0.75,0,1.201,0.359,1.201,0.939 M385.18,360.19l-1.439-1.9
		c0.729-0.119,1.26-0.57,1.26-1.35c0-0.84-0.66-1.4-1.68-1.4h-2v4.66h0.52v-1.799h1.33l1.34,1.799h0.641L385.18,360.19z"/>
</g>
<g>
	<defs>
		<rect id="SVGID_9_" x="-55.04" y="57.4" width="528.521" height="656.7"/>
	</defs>
	<clipPath id="SVGID_10_">
		<use xlink:href="#SVGID_9_"  overflow="visible"/>
	</clipPath>
	<path clip-path="url(#SVGID_10_)" fill="#231F20" d="M417.2,351.081v-1.85h-1.92v0.469h1.42v1.16
		c-0.32,0.26-0.82,0.461-1.351,0.461c-1.13,0-1.84-0.82-1.84-1.941c0-1.039,0.75-1.898,1.78-1.898c0.66,0,1.06,0.199,1.42,0.52
		l0.34-0.4c-0.47-0.4-0.95-0.619-1.74-0.619c-1.399,0-2.329,1.129-2.329,2.42c0,1.34,0.899,2.398,2.359,2.398
		c0.8,0,1.44-0.33,1.87-0.719 M411.36,350.78l-2.94-3.721h-0.479v4.65h0.5v-3.799l3.02,3.799h0.42v-4.639h-0.5v3.729L411.36,350.78z
		 M406.04,351.709h0.53v-4.639h-0.53v4.648V351.709z M402.84,351.081l-1.649-4h-0.58l2,4.68h0.47l2-4.701h-0.57l-1.66,4.021H402.84z
		 M399.12,351.719h0.53v-4.639h-0.521v4.65L399.12,351.719z M394.971,351.719h3.14v-0.469h-2.63v-4.17h-0.521v4.65L394.971,351.719z
		 M392.641,350.741h-0.881v1h0.881V350.741z M389.79,351.1v-1.85h-1.92v0.469h1.42v1.16c-0.319,0.26-0.8,0.461-1.351,0.461
		c-1.129,0-1.84-0.82-1.84-1.939c0-1.041,0.74-1.9,1.771-1.9c0.659,0,1.06,0.199,1.42,0.52l0.34-0.4
		c-0.46-0.4-0.95-0.619-1.729-0.619c-1.4,0-2.33,1.129-2.33,2.42c0,1.34,0.9,2.4,2.359,2.4c0.801,0,1.44-0.33,1.87-0.721
		 M383.95,350.799l-2.94-3.719h-0.5v4.65h0.52v-3.801l3,3.801h0.431v-4.641h-0.521v3.73h0.021L383.95,350.799z M378.63,351.731h0.53
		v-4.641h-0.53v4.65V351.731z M376.76,350.831l-2.939-3.74h-0.5v4.65h0.5v-3.801l3.02,3.801h0.42V347.1h-0.5V350.831z
		 M371.439,351.731h0.541v-4.641h-0.53v4.65L371.439,351.731z M369.74,349.43c0,1.029-0.74,1.83-1.92,1.83h-1.101v-3.701h1.101
		c1.18,0.021,1.93,0.83,1.93,1.861 M370.311,349.401c0-1.301-1.021-2.32-2.48-2.32h-1.6v4.648h1.6c1.46,0,2.48-1,2.48-2.318"/>
</g>
<g>
	<defs>
		<rect id="SVGID_11_" x="-55.04" y="57.4" width="528.521" height="656.7"/>
	</defs>
	<clipPath id="SVGID_12_">
		<use xlink:href="#SVGID_11_"  overflow="visible"/>
	</clipPath>
	<path clip-path="url(#SVGID_12_)" fill="#231F20" d="M265.46,364.04H265l-0.48,1.551h0.301l0.64-1.561V364.04z M264.52,364.04
		h-0.47l-0.47,1.551h0.3l0.64-1.561V364.04z M261.141,364.299c0.459,0,0.85,0.32,0.85,0.801c0,0.43-0.25,0.75-0.9,1.33l-1.5,1.34
		v0.369h2.92v-0.43h-2.22l1.12-1c0.74-0.629,1.061-1,1.061-1.629c0-0.701-0.541-1.201-1.301-1.201c-0.74,0-1.141,0.34-1.5,0.9
		l0.33,0.26c0.35-0.469,0.66-0.719,1.141-0.719 M258.09,364.059h-0.48l-0.469,1.551h0.299l0.641-1.561L258.09,364.059z
		 M254.39,364.28l0.12,0.4l0.8-0.26v3.74h0.46v-4.23h-0.35l-1.02,0.359L254.39,364.28z M251.52,364.28l0.1,0.4l0.8-0.26v3.74h0.47
		v-4.23h-0.35l-1.02,0.359V364.28z M248.16,367.661l-1.13-1.5l1.1-1.441h-0.4l-0.9,1.201l-0.9-1.201h-0.4l1.1,1.441l-1.13,1.5h0.4
		l0.93-1.271l0.94,1.271h0.4H248.16z M242.56,364.059h-0.48l-0.48,1.551h0.3l0.64-1.561L242.56,364.059z M241.6,364.059h-0.45
		l-0.48,1.551h0.3l0.64-1.561L241.6,364.059z M238,364.28l0.12,0.4l0.8-0.26v3.74h0.46v-4.23h-0.35l-1.02,0.359L238,364.28z
		 M236.63,364.059h-0.46l-0.48,1.551h0.3l0.63-1.561L236.63,364.059z M232.95,364.28l0.1,0.4l0.8-0.26v3.74h0.47v-4.23h-0.35
		l-1.02,0.359V364.28z M230.07,364.28l0.1,0.4l0.8-0.26v3.74h0.47v-4.23h-0.35l-1.03,0.359L230.07,364.28z"/>
</g>
<g>
	<defs>
		<rect id="SVGID_13_" x="-55.04" y="57.4" width="528.521" height="656.7"/>
	</defs>
	<clipPath id="SVGID_14_">
		<use xlink:href="#SVGID_13_"  overflow="visible"/>
	</clipPath>
	<path clip-path="url(#SVGID_14_)" fill="#231F20" d="M265.061,356.34v3.779h0.52v-4.66h-0.53l-1.7,2.541l-1.699-2.541h-0.521v4.66
		h0.521v-3.77l1.699,2.48l1.7-2.5L265.061,356.34z M259.48,357.79c0,1.061-0.76,1.9-1.83,1.9s-1.831-0.859-1.831-1.92
		s0.76-1.9,1.821-1.9c1.06,0,1.84,0.85,1.84,1.9 M260.02,357.77c0-1.301-0.949-2.4-2.369-2.4c-1.4,0-2.38,1.121-2.38,2.4
		c0,1.301,0.95,2.4,2.371,2.4C259.061,360.17,260.02,359.071,260.02,357.77 M253.82,357.77c0,1.08-0.76,1.93-1.82,1.93
		s-1.83-0.859-1.83-1.92s0.75-1.9,1.82-1.9c1.05,0,1.82,0.852,1.82,1.9 M254.36,357.78c0-1.299-0.95-2.4-2.37-2.4
		c-1.42,0-2.38,1.121-2.38,2.4c0,1.301,0.95,2.4,2.36,2.4c1.42,0,2.4-1.1,2.4-2.4 M248.17,356.879c0,0.602-0.5,0.951-1.2,0.951
		h-1.44v-1.9h1.44c0.75,0,1.2,0.359,1.2,0.939 M248.87,360.11l-1.44-1.9c0.73-0.119,1.26-0.57,1.26-1.35c0-0.84-0.66-1.4-1.68-1.4
		h-2v4.66h0.52v-1.799h1.33l1.35,1.799h0.65L248.87,360.11z M243.35,357.809c0,1.031-0.75,1.83-1.93,1.83h-1.1v-3.699h1.1
		c1.18,0,1.93,0.83,1.93,1.859 M243.9,357.78c0-1.32-1-2.32-2.47-2.32h-1.6v4.65h1.6c1.47,0,2.48-1,2.48-2.32 M238.74,355.469h-3.37
		v4.65h3.4v-0.469h-2.87V358h2.53v-0.48h-2.54v-1.58h2.83v-0.48L238.74,355.469z M232.64,359.651h-1.55V358h1.47
		c0.8,0,1.24,0.299,1.24,0.799c0,0.531-0.45,0.84-1.16,0.84 M232.46,357.54h-1.38v-1.6h1.4c0.68,0,1.04,0.301,1.04,0.76
		c0,0.551-0.43,0.83-1.06,0.83 M232.54,355.459h-1.98v4.65h2.07c1.02,0,1.7-0.459,1.7-1.26c0-0.65-0.46-0.971-1-1.131
		c0.36-0.148,0.73-0.469,0.73-1.08c0-0.699-0.6-1.16-1.52-1.16"/>
</g>
<g>
	<defs>
		<rect id="SVGID_15_" x="-55.04" y="57.4" width="528.521" height="656.7"/>
	</defs>
	<clipPath id="SVGID_16_">
		<use xlink:href="#SVGID_15_"  overflow="visible"/>
	</clipPath>
	<path clip-path="url(#SVGID_16_)" fill="#231F20" d="M350.859,148.74v2.1h0.521v-4.66h-0.521v2.07h-2.699v-2.07h-0.5v4.65h0.5v-2.1
		h2.699V148.74z M345.1,146.66h1.561v-0.48H343v0.48h1.561v4.17h0.539V146.66L345.1,146.66z M341.7,149.13h-2.12l1.061-2.37
		L341.7,149.13z M340.9,146.15h-0.5l-2.121,4.68h0.541l0.55-1.23h2.54l0.55,1.23h0.569l-2.119-4.68H340.9z M335.96,150.35h-1.56
		v-1.63h1.47c0.8,0,1.239,0.3,1.239,0.8c0,0.53-0.43,0.84-1.14,0.84 M335.79,148.26h-1.38v-1.6h1.42c0.66,0,1.029,0.3,1.029,0.76
		c0,0.55-0.439,0.83-1.069,0.83 M335.87,146.18h-1.979v4.65h2.069c1.021,0,1.7-0.47,1.7-1.27c0-0.65-0.46-0.97-1-1.13
		c0.359-0.16,0.73-0.47,0.73-1.1C337.391,146.63,336.79,146.18,335.87,146.18"/>
</g>
<g>
	<defs>
		<rect id="SVGID_17_" x="-55.04" y="57.4" width="528.521" height="656.7"/>
	</defs>
	<clipPath id="SVGID_18_">
		<use xlink:href="#SVGID_17_"  overflow="visible"/>
	</clipPath>
	<path clip-path="url(#SVGID_18_)" fill="#231F20" d="M302.2,187.9c1.04,0,1.84,0.74,1.84,1.9v1.1h-3.7v-1.08
		c0.02-1.18,0.83-1.93,1.86-1.93 M302.2,187.33c-1.33,0-2.33,1-2.33,2.48v1.6h4.649v-1.6c0-1.47-1-2.48-2.33-2.48 M304.51,192.8h-1
		v0.88h1v-0.87V192.8z M303.74,198.63l-3.881,1.33v0.57l4.701-1.66v-0.44l-3.801-1.3l3.801-1.26v-0.45l-4.701-1.66v0.55l3.881,1.34
		l-3.9,1.28v0.43l3.9,1.28V198.63z"/>
</g>
<g>
	<defs>
		<rect id="SVGID_19_" x="-55.04" y="57.4" width="528.521" height="656.7"/>
	</defs>
	<clipPath id="SVGID_20_">
		<use xlink:href="#SVGID_19_"  overflow="visible"/>
	</clipPath>
	<path clip-path="url(#SVGID_20_)" fill="#231F20" d="M397.4,195.18h-3.36v4.65h0.53v-2.02h2.52v-0.47h-2.529v-1.67h2.819v-0.48
		L397.4,195.18z M392.95,195.18h-3.36v4.65h3.381v-0.48H390.1v-1.62h2.551v-0.48h-2.541v-1.6h2.851v-0.47H392.95z M387.93,196.58
		c0,0.6-0.5,0.97-1.199,0.97h-1.42v-1.9h1.439c0.75,0,1.2,0.36,1.2,0.94 M388.65,199.82l-1.44-1.9c0.729-0.13,1.261-0.58,1.261-1.36
		c0-0.84-0.65-1.4-1.681-1.4h-2v4.66h0.521v-1.8h1.33l1.35,1.8h0.65H388.65z"/>
</g>
<g>
	<defs>
		<rect id="SVGID_21_" x="-55.04" y="57.4" width="528.521" height="656.7"/>
	</defs>
	<clipPath id="SVGID_22_">
		<use xlink:href="#SVGID_21_"  overflow="visible"/>
	</clipPath>
	<path clip-path="url(#SVGID_22_)" fill="#231F20" d="M392,164.2l-1.34-3.88h-0.58l1.67,4.7h0.43l1.301-3.8l1.26,3.8h0.449l1.65-4.7
		h-0.55l-1.33,3.88l-1.28-3.9h-0.439l-1.27,3.9H392z M389.02,162.66c0,1.04-0.75,1.83-1.92,1.83H386v-3.7h1.1
		c1.17,0,1.92,0.82,1.92,1.86 M389.57,162.63c0-1.3-1-2.32-2.471-2.32h-1.619v4.66h1.619
		C388.561,164.97,389.57,163.95,389.57,162.63"/>
</g>
<g>
	<defs>
		<rect id="SVGID_23_" x="-55.04" y="57.4" width="528.521" height="656.7"/>
	</defs>
	<clipPath id="SVGID_24_">
		<use xlink:href="#SVGID_23_"  overflow="visible"/>
	</clipPath>
	<path clip-path="url(#SVGID_24_)" fill="#231F20" d="M237.84,274.26h1.56v-0.48h-3.65v0.48h1.56v4.17h0.54v-4.17H237.84z
		 M234.99,273.78h-3.37v4.65h3.4v-0.48h-2.88v-1.619h2.54v-0.48h-2.55v-1.6H235v-0.471H234.99z M227.77,274.94
		c0-0.42,0.38-0.76,1-0.76c0.46,0,0.9,0.16,1.33,0.5l0.32-0.4c-0.48-0.369-0.96-0.57-1.64-0.57c-0.9,0-1.53,0.551-1.53,1.301
		c0,0.76,0.5,1.1,1.56,1.34c1,0.199,1.22,0.449,1.22,0.9c0,0.459-0.4,0.799-1.03,0.799c-0.66,0-1.12-0.229-1.6-0.67l-0.34,0.4
		c0.56,0.5,1.17,0.73,1.9,0.73c0.93,0,1.6-0.521,1.6-1.32c0-0.721-0.5-1.1-1.52-1.32c-1.03-0.229-1.26-0.47-1.26-0.92
		 M225.75,276.12c0,1.08-0.76,1.93-1.83,1.93c-1.07,0-1.83-0.859-1.83-1.93c0-1.06,0.75-1.92,1.8-1.92c1.07,0,1.85,0.87,1.85,1.93
		 M226.28,276.129c0-1.299-0.96-2.399-2.38-2.399c-1.4,0-2.38,1.13-2.38,2.399c0,1.301,0.95,2.4,2.37,2.4c1.43,0,2.4-1.1,2.4-2.4
		 M217.89,278.459h3.15v-0.479h-2.62v-4.17h-0.53V278.459L217.89,278.459z M216.97,277.73l-0.34-0.341
		c-0.45,0.421-0.87,0.671-1.5,0.671c-1.03,0-1.8-0.851-1.8-1.931s0.76-1.899,1.8-1.899c0.62,0,1.06,0.25,1.46,0.62l0.35-0.381
		c-0.46-0.439-0.97-0.739-1.8-0.739c-1.38,0-2.36,1.08-2.36,2.399c-0.02,1.36,0.97,2.4,2.32,2.4c0.84,0,1.38-0.3,1.86-0.8"/>
</g>
<g>
	<defs>
		<rect id="SVGID_25_" x="-55.04" y="57.4" width="528.521" height="656.7"/>
	</defs>
	<clipPath id="SVGID_26_">
		<use xlink:href="#SVGID_25_"  overflow="visible"/>
	</clipPath>
	<path clip-path="url(#SVGID_26_)" fill="#231F20" d="M306.8,270.37h-0.86v1h0.871v-1H306.8z M304.02,269.27v2.1h0.521v-4.66h-0.521
		v2.08h-2.699v-2.07h-0.5v4.66h0.5v-2.1h2.699V269.27z M299.891,270.62l-0.361-0.33c-0.439,0.4-0.859,0.66-1.5,0.66
		c-1.02,0-1.799-0.85-1.799-1.93s0.77-1.92,1.799-1.92c0.631,0,1.07,0.279,1.461,0.65l0.359-0.381c-0.459-0.439-0.97-0.74-1.8-0.74
		c-1.38,0-2.37,1.08-2.37,2.4c0,1.36,0.98,2.4,2.33,2.4c0.84,0,1.37-0.301,1.86-0.801 M294.77,266.709h-3.359v4.66h3.4v-0.479
		h-2.871v-1.63h2.541v-0.471h-2.53v-1.6h2.84v-0.471L294.77,266.709z M289.57,267.61v3.76h0.529v-4.649h-0.529l-1.7,2.55l-1.7-2.54
		h-0.529v4.66h0.52v-3.761l1.68,2.5h0.03l1.7-2.5V267.61z"/>
</g>
<path fill="#BBBDBF" d="M171.16,253.78v183.74l26.44-0.869v-13.432h-14.3V254.22L171.16,253.78z"/>
<path fill="#FFFFFF" d="M304.439,62.66h59.4v30.7h-59.4V62.66z"/>
<path fill="none" stroke="#000000" stroke-width="0.78" d="M304.439,62.66h59.4v30.7h-59.4V62.66z"/>
<g>
	<defs>
		<rect id="SVGID_27_" x="-55.04" y="57.4" width="528.521" height="656.7"/>
	</defs>
	<clipPath id="SVGID_28_">
		<use xlink:href="#SVGID_27_"  overflow="visible"/>
	</clipPath>
	<circle clip-path="url(#SVGID_28_)" fill="none" stroke="#231F20" stroke-width="0.65" cx="317.977" cy="77.867" r="1.26"/>
</g>
<g>
	<defs>
		<rect id="SVGID_29_" x="-55.04" y="57.4" width="528.521" height="656.7"/>
	</defs>
	<clipPath id="SVGID_30_">
		<use xlink:href="#SVGID_29_"  overflow="visible"/>
	</clipPath>
	<path clip-path="url(#SVGID_30_)" fill="none" stroke="#000000" stroke-width="0.65" d="M360.45,77.92c0,8.8-2.03,12.02-4.88,12.02
		h-43.4c-0.68,0-2.12-0.18-2.12-2.02V67.9c0-1.84,1.44-2.03,2.13-2.03h43.391C358.42,65.87,360.45,69.17,360.45,77.92z"/>
</g>
<g>
	<defs>
		<rect id="SVGID_31_" x="-55.04" y="57.4" width="528.521" height="656.7"/>
	</defs>
	<clipPath id="SVGID_32_">
		<use xlink:href="#SVGID_31_"  overflow="visible"/>
	</clipPath>
	<path clip-path="url(#SVGID_32_)" fill="none" stroke="#231F20" stroke-width="0.585" d="M307.84,72.52c0.7,0,1.28,0.58,1.28,1.3
		c0,0.7-0.57,1.28-1.28,1.28c-0.699,0-1.3-0.58-1.279-1.3C306.561,73.1,307.13,72.52,307.84,72.52z M307.84,80.52
		c0.7,0,1.28,0.56,1.28,1.28c0,0.7-0.57,1.28-1.28,1.3c-0.699-0.02-1.3-0.6-1.3-1.3c0-0.72,0.58-1.3,1.3-1.3V80.52z"/>
</g>
<g>
	<defs>
		<rect id="SVGID_33_" x="-55.04" y="57.4" width="528.521" height="656.7"/>
	</defs>
	<clipPath id="SVGID_34_">
		<use xlink:href="#SVGID_33_"  overflow="visible"/>
	</clipPath>
	<path clip-path="url(#SVGID_34_)" fill="#FFFFFF" d="M307.46,79.6c-1.06,0-1.899-0.7-1.899-1.77c0-1.05,0.84-1.63,1.899-1.63
		l7.271,0.68c0.699,0,0.699,1.93,0,1.93l-7.271,0.8V79.6z"/>
</g>
<g>
	<defs>
		<rect id="SVGID_35_" x="-55.04" y="57.4" width="528.521" height="656.7"/>
	</defs>
	<clipPath id="SVGID_36_">
		<use xlink:href="#SVGID_35_"  overflow="visible"/>
	</clipPath>
	<path clip-path="url(#SVGID_36_)" fill="none" stroke="#231F20" stroke-width="0.585" d="M307.46,79.6
		c-1.06,0-1.899-0.7-1.899-1.77c0-1.05,0.84-1.63,1.899-1.63l7.271,0.68c0.699,0,0.699,1.93,0,1.93l-7.271,0.8V79.6z"/>
</g>
<path fill="none" stroke="#000000" stroke-width="0.78" d="M310.05,179.47v26.44 M310.05,200.76h3.671l0.85-3.17v-9.7l-0.85-3.22
	h-3.671 M293.13,205.92h24.101v-26.24H293.13v26.25V205.92z"/>
<path fill="#FFFFFF" d="M311.63,180.94v2.12l-1.47,0.47v-3.06L311.63,180.94z"/>
<path fill="none" stroke="#231F20" stroke-width="0.78" d="M311.63,180.94v2.12l-1.47,0.47v-3.06L311.63,180.94z"/>
<g>
	<defs>
		<rect id="SVGID_37_" x="-55.04" y="57.4" width="528.521" height="656.7"/>
	</defs>
	<clipPath id="SVGID_38_">
		<use xlink:href="#SVGID_37_"  overflow="visible"/>
	</clipPath>
	<path clip-path="url(#SVGID_38_)" fill="none" stroke="#000000" stroke-width="0.975" d="M453.12,87.5
		c-15.9,0-28.82-12.9-28.82-28.8 M454.78,87.53h-1.66V58.69h1.66v28.83V87.53z M213.85,312.059c15.92,0,28.82-12.898,28.82-28.799
		 M212.19,312.081h1.65v-28.83h-1.66v28.83H212.19z M363.24,184.88c-15.9,0-28.801,12.9-28.801,28.82 M364.9,184.87h-1.65v28.83
		h1.66v-28.83H364.9z"/>
</g>
<g>
	<defs>
		<rect id="SVGID_39_" x="-55.04" y="57.4" width="528.521" height="656.7"/>
	</defs>
	<clipPath id="SVGID_40_">
		<use xlink:href="#SVGID_39_"  overflow="visible"/>
	</clipPath>
	<path clip-path="url(#SVGID_40_)" fill="#FFFFFF" d="M307.7,104.23c5.8,0,12.17,3.52,12.17,7.87c0,4.34-6.399,7.86-12.181,7.86
		c-5.819,0-8.84-3.52-8.84-7.86c0-4.35,3.021-7.87,8.83-7.87"/>
</g>
<g>
	<defs>
		<rect id="SVGID_41_" x="-55.04" y="57.4" width="528.521" height="656.7"/>
	</defs>
	<clipPath id="SVGID_42_">
		<use xlink:href="#SVGID_41_"  overflow="visible"/>
	</clipPath>
	<path clip-path="url(#SVGID_42_)" fill="none" stroke="#000000" stroke-width="0.78" d="M307.7,104.23c5.8,0,12.17,3.52,12.17,7.87
		c0,4.34-6.399,7.86-12.181,7.86c-5.819,0-8.84-3.52-8.84-7.86c0-4.35,3.021-7.87,8.83-7.87H307.7z"/>
</g>
<g>
	<defs>
		<rect id="SVGID_43_" x="-55.04" y="57.4" width="528.521" height="656.7"/>
	</defs>
	<clipPath id="SVGID_44_">
		<use xlink:href="#SVGID_43_"  overflow="visible"/>
	</clipPath>
	<path clip-path="url(#SVGID_44_)" fill="#FFFFFF" d="M300.77,116.8c0.32,0,0.601,0.27,0.601,0.6v2.75c0,0.33-0.28,0.6-0.601,0.6
		h-0.1c-0.33,0-0.6-0.27-0.6-0.6v-2.75c0-0.33,0.27-0.6,0.6-0.6H300.77z"/>
</g>
<g>
	<defs>
		<rect id="SVGID_45_" x="-55.04" y="57.4" width="528.521" height="656.7"/>
	</defs>
	<clipPath id="SVGID_46_">
		<use xlink:href="#SVGID_45_"  overflow="visible"/>
	</clipPath>
	<path clip-path="url(#SVGID_46_)" fill="none" stroke="#231F20" stroke-width="0.78" d="M300.77,116.8c0.32,0,0.601,0.27,0.601,0.6
		v2.75c0,0.33-0.28,0.6-0.601,0.6h-0.1c-0.33,0-0.6-0.27-0.6-0.6v-2.75c0-0.33,0.27-0.6,0.6-0.6H300.77z"/>
</g>
<g>
	<defs>
		<rect id="SVGID_47_" x="-55.04" y="57.4" width="528.521" height="656.7"/>
	</defs>
	<clipPath id="SVGID_48_">
		<use xlink:href="#SVGID_47_"  overflow="visible"/>
	</clipPath>
	<path clip-path="url(#SVGID_48_)" fill="#FFFFFF" d="M300.061,121.16c0,0.98-2.67,1.8-3.66,1.8s-3.66-0.82-3.66-1.8V103.2
		c0-1,2.67-1.8,3.66-1.8s3.66,0.8,3.66,1.8V121.16z"/>
</g>
<g>
	<defs>
		<rect id="SVGID_49_" x="-55.04" y="57.4" width="528.521" height="656.7"/>
	</defs>
	<clipPath id="SVGID_50_">
		<use xlink:href="#SVGID_49_"  overflow="visible"/>
	</clipPath>
	<path clip-path="url(#SVGID_50_)" fill="none" stroke="#000000" stroke-width="0.78" d="M300.061,121.16c0,0.98-2.67,1.8-3.66,1.8
		s-3.66-0.82-3.66-1.8V103.2c0-1,2.67-1.8,3.66-1.8s3.66,0.8,3.66,1.8V121.16z"/>
</g>
<g>
	<defs>
		<rect id="SVGID_51_" x="-55.04" y="57.4" width="528.521" height="656.7"/>
	</defs>
	<clipPath id="SVGID_52_">
		<use xlink:href="#SVGID_51_"  overflow="visible"/>
	</clipPath>
	<path clip-path="url(#SVGID_52_)" fill="#FFFFFF" d="M307.93,106.3c4.26,0,8.961,2.6,8.961,5.8c0,3.2-4.701,5.78-8.971,5.78
		s-6.48-2.6-6.48-5.78c0-3.2,2.221-5.8,6.48-5.8"/>
</g>
<g>
	<defs>
		<rect id="SVGID_53_" x="-55.04" y="57.4" width="528.521" height="656.7"/>
	</defs>
	<clipPath id="SVGID_54_">
		<use xlink:href="#SVGID_53_"  overflow="visible"/>
	</clipPath>
	<path clip-path="url(#SVGID_54_)" fill="none" stroke="#000000" stroke-width="0.65" d="M307.93,106.3c4.26,0,8.961,2.6,8.961,5.8
		c0,3.2-4.701,5.78-8.971,5.78s-6.48-2.6-6.48-5.78c0-3.2,2.221-5.8,6.48-5.8H307.93z"/>
</g>
<path fill="none" stroke="#231F20" stroke-width="0.78" d="M373.96,178.93h28.93V61.83 M290.54,138.09h24.05v31.4"/>
<path fill="#FFFFFF" d="M403,77.2l-25.67-0.1l-0.051,30.23l25.671,0.06L403,77.2z"/>
<path fill="none" stroke="#000000" stroke-width="0.78" d="M403,77.2l-25.67-0.1l-0.051,30.23l25.671,0.06L403,77.2z"/>
<path fill="none" stroke="#000000" stroke-width="0.39" d="M379.57,107.55V77.3"/>
<g>
	<defs>
		<rect id="SVGID_55_" x="-55.04" y="57.4" width="528.521" height="656.7"/>
	</defs>
	<clipPath id="SVGID_56_">
		<use xlink:href="#SVGID_55_"  overflow="visible"/>
	</clipPath>
	<path clip-path="url(#SVGID_56_)" fill="#FFFFFF" d="M388.85,98.95c0-2.18-1.8-3.92-3.949-3.9c-2.18,0-3.92,1.78-3.9,3.95
		c0,2.17,1.779,3.92,3.95,3.9C387.12,102.9,388.87,101.1,388.85,98.95"/>
</g>
<g>
	<defs>
		<rect id="SVGID_57_" x="-55.04" y="57.4" width="528.521" height="656.7"/>
	</defs>
	<clipPath id="SVGID_58_">
		<use xlink:href="#SVGID_57_"  overflow="visible"/>
	</clipPath>
	<path clip-path="url(#SVGID_58_)" fill="none" stroke="#231F20" stroke-width="0.65" d="M388.85,98.95c0-2.18-1.8-3.92-3.949-3.9
		c-2.18,0-3.92,1.78-3.9,3.95c0,2.17,1.779,3.92,3.95,3.9C387.12,102.9,388.87,101.1,388.85,98.95z"/>
</g>
<g>
	<defs>
		<rect id="SVGID_59_" x="-55.04" y="57.4" width="528.521" height="656.7"/>
	</defs>
	<clipPath id="SVGID_60_">
		<use xlink:href="#SVGID_59_"  overflow="visible"/>
	</clipPath>
	<path clip-path="url(#SVGID_60_)" fill="#FFFFFF" d="M388.77,87.17c-0.02-2.17-1.799-3.9-3.959-3.9c-2.16,0.02-3.9,1.8-3.9,3.96
		c0.029,2.16,1.8,3.92,3.97,3.9c2.16-0.02,3.899-1.8,3.899-3.96"/>
</g>
<g>
	<defs>
		<rect id="SVGID_61_" x="-55.04" y="57.4" width="528.521" height="656.7"/>
	</defs>
	<clipPath id="SVGID_62_">
		<use xlink:href="#SVGID_61_"  overflow="visible"/>
	</clipPath>
	<path clip-path="url(#SVGID_62_)" fill="none" stroke="#231F20" stroke-width="0.65" d="M388.77,87.17
		c-0.02-2.17-1.799-3.9-3.959-3.9c-2.16,0.02-3.9,1.8-3.9,3.96c0.029,2.16,1.8,3.92,3.97,3.9c2.16-0.02,3.899-1.8,3.899-3.96H388.77
		z"/>
</g>
<g>
	<defs>
		<rect id="SVGID_63_" x="-55.04" y="57.4" width="528.521" height="656.7"/>
	</defs>
	<clipPath id="SVGID_64_">
		<use xlink:href="#SVGID_63_"  overflow="visible"/>
	</clipPath>
	<path clip-path="url(#SVGID_64_)" fill="#FFFFFF" d="M399.54,98.87c-0.021-2.17-1.8-3.92-3.95-3.9c-2.199,0-3.93,1.8-3.92,3.95
		c0.02,2.17,1.8,3.92,3.971,3.9C397.8,102.82,399.54,101.04,399.54,98.87"/>
</g>
<g>
	<defs>
		<rect id="SVGID_65_" x="-55.04" y="57.4" width="528.521" height="656.7"/>
	</defs>
	<clipPath id="SVGID_66_">
		<use xlink:href="#SVGID_65_"  overflow="visible"/>
	</clipPath>
	<path clip-path="url(#SVGID_66_)" fill="none" stroke="#231F20" stroke-width="0.65" d="M399.54,98.87
		c-0.021-2.17-1.8-3.92-3.95-3.9c-2.199,0-3.93,1.8-3.92,3.95c0.02,2.17,1.8,3.92,3.971,3.9
		C397.8,102.82,399.54,101.04,399.54,98.87L399.54,98.87z"/>
</g>
<g>
	<defs>
		<rect id="SVGID_67_" x="-55.04" y="57.4" width="528.521" height="656.7"/>
	</defs>
	<clipPath id="SVGID_68_">
		<use xlink:href="#SVGID_67_"  overflow="visible"/>
	</clipPath>
	<path clip-path="url(#SVGID_68_)" fill="#FFFFFF" d="M399.45,87.1c0-2.18-1.78-3.92-3.95-3.9c-2.17,0-3.92,1.78-3.9,3.95
		c0.021,2.17,1.801,3.92,3.961,3.9c2.17-0.02,3.899-1.8,3.899-3.96"/>
</g>
<g>
	<defs>
		<rect id="SVGID_69_" x="-55.04" y="57.4" width="528.521" height="656.7"/>
	</defs>
	<clipPath id="SVGID_70_">
		<use xlink:href="#SVGID_69_"  overflow="visible"/>
	</clipPath>
	<path clip-path="url(#SVGID_70_)" fill="none" stroke="#231F20" stroke-width="0.65" d="M399.45,87.1c0-2.18-1.78-3.92-3.95-3.9
		c-2.17,0-3.92,1.78-3.9,3.95c0.021,2.17,1.801,3.92,3.961,3.9c2.17-0.02,3.899-1.8,3.899-3.96L399.45,87.1z"/>
</g>
<path fill="#FFFFFF" d="M402.9,78.62h1.199v28.17H402.9V78.62z"/>
<path fill="none" stroke="#231F20" stroke-width="0.78" d="M402.9,78.62h1.199v28.17H402.9V78.62z"/>
<path fill="none" stroke="#000000" stroke-width="0.975" d="M268.88,267h-1.3 M185.9,269.44h82.98"/>
<path fill="none" stroke="#000000" stroke-width="0.975" stroke-dasharray="1.966,1.966,1.966,1.966" stroke-dashoffset="3" d="
	M264.77,267h-9.83"/>
<path fill="none" stroke="#000000" stroke-width="0.975" stroke-dasharray="2.13,2.13,2.13,2.13,2.13,2.13" stroke-dashoffset="4" d="
	M253.53,267h-66"/>
<path fill="none" stroke="#000000" stroke-width="0.975" d="M186.12,267h-1.3"/>
<path fill="none" stroke="#231F20" stroke-width="0.78" d="M399.96,438.42h44.53 M332.99,438.42h45.5 M266.54,438.5h46.8
	 M197.64,438.6h50.7 M198.46,425.821h46.47 M310.33,425.821h-43.62 M376.88,425.821h-44.2 M399.28,426.151h44.87"/>
<path fill="none" stroke="#000000" stroke-width="0.65" d="M405,179.96v35.75"/>
<path fill="none" stroke="#000000" stroke-width="0.78" d="M407.12,192.66h1.46v2.76h-1.46V192.66z M377.029,180.17h30.061v35.25
	h-30.07L377.029,180.17z M407.12,201.35h1.46v2.77h-1.46V201.35z"/>
<g>
	<defs>
		<rect id="SVGID_71_" x="-55.04" y="57.4" width="528.521" height="656.7"/>
	</defs>
	<clipPath id="SVGID_72_">
		<use xlink:href="#SVGID_71_"  overflow="visible"/>
	</clipPath>
	<circle clip-path="url(#SVGID_72_)" fill="none" stroke="#000000" stroke-width="0.52" cx="303.338" cy="152.817" r="1.189"/>
</g>
<g>
	<defs>
		<rect id="SVGID_73_" x="-55.04" y="57.4" width="528.521" height="656.7"/>
	</defs>
	<clipPath id="SVGID_74_">
		<use xlink:href="#SVGID_73_"  overflow="visible"/>
	</clipPath>
	<path clip-path="url(#SVGID_74_)" fill="none" stroke="#000000" stroke-width="0.65" d="M293.5,152.82c0-0.64,0.52-1.16,1.16-1.16
		c0.64,0,1.15,0.52,1.15,1.16c0,0.63-0.5,1.15-1.141,1.15s-1.15-0.5-1.15-1.15H293.5z M296,152.29h4.7v1.05H296v-1.06V152.29z
		 M293.4,147.61h2.479v10.4h-2.5v-10.4H293.4z"/>
</g>
<path fill="none" stroke="#000000" stroke-width="0.78" d="M293,142.3h19.1v21.05H293V142.3z"/>
<path fill="none" stroke="#000000" stroke-width="0.585" d="M295.939,143.96h14.521v17.76h-14.521V143.96z"/>
<g>
	<defs>
		<rect id="SVGID_75_" x="-55.04" y="57.4" width="528.521" height="656.7"/>
	</defs>
	<clipPath id="SVGID_76_">
		<use xlink:href="#SVGID_75_"  overflow="visible"/>
	</clipPath>
	<path clip-path="url(#SVGID_76_)" fill="#FFFFFF" d="M381.15,119.72c-1,0-1.84,0.83-1.84,1.84v22.4c0,1.02,0.84,1.84,1.85,1.84
		h15.76c1.03,0,1.85-0.82,1.85-1.83v-22.4c0-1.02-0.819-1.85-1.84-1.85h-15.75L381.15,119.72z"/>
</g>
<g>
	<defs>
		<rect id="SVGID_77_" x="-55.04" y="57.4" width="528.521" height="656.7"/>
	</defs>
	<clipPath id="SVGID_78_">
		<use xlink:href="#SVGID_77_"  overflow="visible"/>
	</clipPath>
	<path clip-path="url(#SVGID_78_)" fill="none" stroke="#231F20" stroke-width="0.78" d="M381.15,119.72c-1,0-1.84,0.83-1.84,1.84
		v22.4c0,1.02,0.84,1.84,1.85,1.84h15.76c1.03,0,1.85-0.82,1.85-1.83v-22.4c0-1.02-0.819-1.85-1.84-1.85h-15.75L381.15,119.72z"/>
</g>
<g>
	<defs>
		<rect id="SVGID_79_" x="-55.04" y="57.4" width="528.521" height="656.7"/>
	</defs>
	<clipPath id="SVGID_80_">
		<use xlink:href="#SVGID_79_"  overflow="visible"/>
	</clipPath>
	<path clip-path="url(#SVGID_80_)" fill="#FFFFFF" d="M383.62,142c0,1.04,0.84,1.9,1.851,1.9h9.459c1.021,0,1.851-0.86,1.851-1.9
		v-18.42c0-1.04-0.83-1.9-1.841-1.9h-9.469c-1,0-1.851,0.86-1.851,1.9V142z"/>
</g>
<g>
	<defs>
		<rect id="SVGID_81_" x="-55.04" y="57.4" width="528.521" height="656.7"/>
	</defs>
	<clipPath id="SVGID_82_">
		<use xlink:href="#SVGID_81_"  overflow="visible"/>
	</clipPath>
	<path clip-path="url(#SVGID_82_)" fill="none" stroke="#231F20" stroke-width="0.585" d="M383.62,142c0,1.04,0.84,1.9,1.851,1.9
		h9.459c1.021,0,1.851-0.86,1.851-1.9v-18.42c0-1.04-0.83-1.9-1.841-1.9h-9.469c-1,0-1.851,0.86-1.851,1.9V142z"/>
</g>
<g>
	<defs>
		<rect id="SVGID_83_" x="-55.04" y="57.4" width="528.521" height="656.7"/>
	</defs>
	<clipPath id="SVGID_84_">
		<use xlink:href="#SVGID_83_"  overflow="visible"/>
	</clipPath>
	<path clip-path="url(#SVGID_84_)" fill="#FFFFFF" d="M390.42,131.2c-0.77,0-1.4,0.62-1.4,1.4c0,0.75,0.641,1.37,1.4,1.37
		s1.4-0.6,1.4-1.4C391.82,131.82,391.18,131.2,390.42,131.2"/>
</g>
<g>
	<defs>
		<rect id="SVGID_85_" x="-55.04" y="57.4" width="528.521" height="656.7"/>
	</defs>
	<clipPath id="SVGID_86_">
		<use xlink:href="#SVGID_85_"  overflow="visible"/>
	</clipPath>
	<path clip-path="url(#SVGID_86_)" fill="none" stroke="#231F20" stroke-width="0.52" d="M390.42,131.2c-0.77,0-1.4,0.62-1.4,1.4
		c0,0.75,0.641,1.37,1.4,1.37s1.4-0.6,1.4-1.4C391.82,131.82,391.18,131.2,390.42,131.2z"/>
</g>
<g>
	<defs>
		<rect id="SVGID_87_" x="-55.04" y="57.4" width="528.521" height="656.7"/>
	</defs>
	<clipPath id="SVGID_88_">
		<use xlink:href="#SVGID_87_"  overflow="visible"/>
	</clipPath>
	<path clip-path="url(#SVGID_88_)" fill="#FFFFFF" d="M381.42,127.6c-0.74,0-1.43,0.6-1.43,1.35v7.3c0,0.75,0.68,1.35,1.42,1.35
		c0.73,0,1.42-0.6,1.42-1.34v-7.3c0-0.75-0.7-1.35-1.42-1.35"/>
</g>
<g>
	<defs>
		<rect id="SVGID_89_" x="-55.04" y="57.4" width="528.521" height="656.7"/>
	</defs>
	<clipPath id="SVGID_90_">
		<use xlink:href="#SVGID_89_"  overflow="visible"/>
	</clipPath>
	<path clip-path="url(#SVGID_90_)" fill="none" stroke="#231F20" stroke-width="0.52" d="M381.42,127.6c-0.74,0-1.43,0.6-1.43,1.35
		v7.3c0,0.75,0.68,1.35,1.42,1.35c0.73,0,1.42-0.6,1.42-1.34v-7.3c0-0.75-0.7-1.35-1.42-1.35L381.42,127.6z"/>
</g>
<g>
	<defs>
		<rect id="SVGID_91_" x="-55.04" y="57.4" width="528.521" height="656.7"/>
	</defs>
	<clipPath id="SVGID_92_">
		<use xlink:href="#SVGID_91_"  overflow="visible"/>
	</clipPath>
	<path clip-path="url(#SVGID_92_)" fill="#FFFFFF" d="M389.2,127.12l-6.82,6.27c-0.399,0.34-1,0.3-1.351-0.1
		c-0.359-0.38-0.319-1,0.08-1.34l7.07-6c0.33-0.27,1.34,0.88,1.021,1.16"/>
</g>
<g>
	<defs>
		<rect id="SVGID_93_" x="-55.04" y="57.4" width="528.521" height="656.7"/>
	</defs>
	<clipPath id="SVGID_94_">
		<use xlink:href="#SVGID_93_"  overflow="visible"/>
	</clipPath>
	<path clip-path="url(#SVGID_94_)" fill="none" stroke="#231F20" stroke-width="0.65" d="M389.2,127.12l-6.82,6.27
		c-0.399,0.34-1,0.3-1.351-0.1c-0.359-0.38-0.319-1,0.08-1.34l7.07-6c0.33-0.27,1.34,0.88,1.021,1.16V127.12z"/>
</g>
<g>
	<defs>
		<rect id="SVGID_95_" x="-55.04" y="57.4" width="528.521" height="656.7"/>
	</defs>
	<clipPath id="SVGID_96_">
		<use xlink:href="#SVGID_95_"  overflow="visible"/>
	</clipPath>
	<path clip-path="url(#SVGID_96_)" fill="#FFFFFF" d="M384.8,133.4h-3.3c-0.359,0-0.65-0.3-0.65-0.65s0.301-0.63,0.641-0.63h3.3
		c0.34,0,0.63,0.28,0.63,0.64c0,0.35-0.3,0.64-0.641,0.64"/>
</g>
<g>
	<defs>
		<rect id="SVGID_97_" x="-55.04" y="57.4" width="528.521" height="656.7"/>
	</defs>
	<clipPath id="SVGID_98_">
		<use xlink:href="#SVGID_97_"  overflow="visible"/>
	</clipPath>
	<path clip-path="url(#SVGID_98_)" fill="none" stroke="#231F20" stroke-width="0.52" d="M384.8,133.4h-3.3
		c-0.359,0-0.65-0.3-0.65-0.65s0.301-0.63,0.641-0.63h3.3c0.34,0,0.63,0.28,0.63,0.64c0,0.35-0.3,0.64-0.641,0.64H384.8z"/>
</g>
<g>
	<defs>
		<rect id="SVGID_99_" x="-55.04" y="57.4" width="528.521" height="656.7"/>
	</defs>
	<clipPath id="SVGID_100_">
		<use xlink:href="#SVGID_99_"  overflow="visible"/>
	</clipPath>
	<path clip-path="url(#SVGID_100_)" fill="#FFFFFF" d="M381.54,134.78c-0.42,0-0.771,0.35-0.771,0.77c0,0.43,0.351,0.77,0.771,0.77
		s0.76-0.34,0.76-0.77C382.3,135.13,381.96,134.78,381.54,134.78"/>
</g>
<g>
	<defs>
		<rect id="SVGID_101_" x="-55.04" y="57.4" width="528.521" height="656.7"/>
	</defs>
	<clipPath id="SVGID_102_">
		<use xlink:href="#SVGID_101_"  overflow="visible"/>
	</clipPath>
	<path clip-path="url(#SVGID_102_)" fill="none" stroke="#231F20" stroke-width="0.455" d="M381.54,134.78
		c-0.42,0-0.771,0.35-0.771,0.77c0,0.43,0.351,0.77,0.771,0.77s0.76-0.34,0.76-0.77C382.3,135.13,381.96,134.78,381.54,134.78z"/>
</g>
<g>
	<defs>
		<rect id="SVGID_103_" x="-55.04" y="57.4" width="528.521" height="656.7"/>
	</defs>
	<clipPath id="SVGID_104_">
		<use xlink:href="#SVGID_103_"  overflow="visible"/>
	</clipPath>
	<path clip-path="url(#SVGID_104_)" fill="#FFFFFF" d="M381.471,128.88c-0.421,0-0.771,0.35-0.771,0.78c0,0.42,0.35,0.76,0.771,0.76
		c0.42,0,0.77-0.34,0.77-0.77C382.24,129.23,381.891,128.88,381.471,128.88"/>
</g>
<g>
	<defs>
		<rect id="SVGID_105_" x="-55.04" y="57.4" width="528.521" height="656.7"/>
	</defs>
	<clipPath id="SVGID_106_">
		<use xlink:href="#SVGID_105_"  overflow="visible"/>
	</clipPath>
	<path clip-path="url(#SVGID_106_)" fill="none" stroke="#231F20" stroke-width="0.455" d="M381.471,128.88
		c-0.421,0-0.771,0.35-0.771,0.78c0,0.42,0.35,0.76,0.771,0.76c0.42,0,0.77-0.34,0.77-0.77
		C382.24,129.23,381.891,128.88,381.471,128.88z"/>
</g>
<path fill="none" stroke="#000000" stroke-width="0.65" stroke-dasharray="1.936,1.936,1.936,1.936,1.936,1.936" stroke-dashoffset="3" d="
	M399.66,151.12h-18.4"/>
<path fill="none" stroke="#000000" stroke-width="0.65" stroke-dasharray="1.899,1.899,1.899,1.899,1.899,1.899" stroke-dashoffset="3" d="
	M379.34,153.97V172"/>
<path fill="none" stroke="#000000" stroke-width="0.65" stroke-dasharray="1.892,1.892,1.892,1.892,1.892,1.892" stroke-dashoffset="3" d="
	M382.18,173.9h17.971"/>
<path fill="none" stroke="#000000" stroke-width="0.65" d="M401.1,173.9h0.94 M379.34,172.96v0.95h0.939 M380.3,151.13h-0.96v0.95
	 M402.57,151.13H401.6 M402.05,173.94h2.46v-22.82h-1.93"/>
<path fill="#BBBDBF" d="M463.47,61.17V424.5H445.2v12.35h26.3l0.03-375.03"/>
<g>
	<defs>
		<rect id="SVGID_107_" x="-55.04" y="57.4" width="528.521" height="656.7"/>
	</defs>
	<clipPath id="SVGID_108_">
		<use xlink:href="#SVGID_107_"  overflow="visible"/>
	</clipPath>
	<path clip-path="url(#SVGID_108_)" fill="none" stroke="#231F20" stroke-width="3.9" d="M463.47,61.17V424.5H445.2v12.35h26.3
		l0.03-375.03"/>
</g>
<path fill="#BBBDBF" d="M288.8,60.2h13.66v29.9H288.8V60.2z M366.17,58.9h8.439v33.47h-8.439V58.9z"/>
<path fill="none" stroke="#231F20" stroke-width="3.9" d="M443.5,431.67h-44.84 M377.43,431.67h-44.85 M312.54,431.67H266.7
	 M243.97,431.67H197.5"/>
<g>
	<defs>
		<rect id="SVGID_109_" x="-55.04" y="57.4" width="528.521" height="656.7"/>
	</defs>
	<clipPath id="SVGID_110_">
		<use xlink:href="#SVGID_109_"  overflow="visible"/>
	</clipPath>
	<path clip-path="url(#SVGID_110_)" fill="none" stroke="#231F20" stroke-width="5.2" d="M168.15,253.57H288.8V60.03L425,60
		 M454.24,60h19.229"/>
</g>
<g>
	<defs>
		<rect id="SVGID_111_" x="-55.04" y="57.4" width="528.521" height="656.7"/>
	</defs>
	<clipPath id="SVGID_112_">
		<use xlink:href="#SVGID_111_"  overflow="visible"/>
	</clipPath>
	<path clip-path="url(#SVGID_112_)" fill="none" stroke="#231F20" stroke-width="5.85" d="M270.57,253.25v31.85 M373.3,59.87v154.05
		h-8.1 M335.34,213.92h-46.52 M319.359,425.821V336.12 M319.359,299.4v-22.75 M319.359,247.07v-35.1 M182,284.77h30.44
		 M242.66,284.77h78"/>
</g>
<path fill="none" stroke="#231F20" stroke-width="6.5" d="M290.439,170.7h26"/>
<g>
	<defs>
		<rect id="SVGID_113_" x="-55.04" y="57.4" width="528.521" height="656.7"/>
	</defs>
	<clipPath id="SVGID_114_">
		<use xlink:href="#SVGID_113_"  overflow="visible"/>
	</clipPath>
	<path clip-path="url(#SVGID_114_)" fill="none" stroke="#231F20" stroke-width="5.2" d="M302.46,61.5v29.74h-11.04"/>
</g>
<g>
	<defs>
		<rect id="SVGID_115_" x="-55.04" y="57.4" width="528.521" height="656.7"/>
	</defs>
	<clipPath id="SVGID_116_">
		<use xlink:href="#SVGID_115_"  overflow="visible"/>
	</clipPath>
	<path clip-path="url(#SVGID_116_)" fill="none" stroke="#231F20" stroke-width="3.9" d="M366.17,61.17V91.9h5.52"/>
</g>
<path fill="none" stroke="#231F20" stroke-width="0.78" d="M322,279.36h1.96v47.131H322V279.36z"/>
<path fill="#BBBDBF" d="M378.43,423.321v13.559h20.23v-13.52L378.43,423.321z"/>
<path fill="none" stroke="#231F20" stroke-width="3.9" d="M378.43,423.321v13.559h20.23v-13.52L378.43,423.321z"/>
<path fill="#BBBDBF" d="M311.52,423.27v13.67l20.23-0.061v-13.6L311.52,423.27z"/>
<path fill="none" stroke="#231F20" stroke-width="3.9" d="M311.52,423.27v13.67l20.23-0.061v-13.6L311.52,423.27z"/>
<path fill="#BBBDBF" d="M244.48,423.299V437l20.459-0.08v-13.66L244.48,423.299z"/>
<path fill="none" stroke="#231F20" stroke-width="3.9" d="M244.48,423.299V437l20.459-0.08v-13.66L244.48,423.299z M183.64,252.43
	l-0.05,171.699h13.45v12.92h-27.03V253.57"/>
<path fill="none" stroke="#231F20" stroke-width="0.78" d="M318.4,238.78h1.939v47.12h-1.949L318.4,238.78z"/>
<g>
	<defs>
		<rect id="SVGID_117_" x="-55.04" y="57.4" width="528.521" height="656.7"/>
	</defs>
	<clipPath id="SVGID_118_">
		<use xlink:href="#SVGID_117_"  overflow="visible"/>
	</clipPath>
	
		<path clip-path="url(#SVGID_118_)" fill="none" stroke="#231F20" stroke-width="3.9" stroke-dasharray="5.952,1.952,5.952,1.952,5.952,1.952" stroke-dashoffset="7" d="
		M460.73,62.46v361.621"/>
</g>
<path fill="#FFFFFF" d="M220.43,430.12H239v3.16h-18.57V430.12z"/>
<path fill="none" stroke="#000000" stroke-width="0.78" d="M220.43,430.12H239v3.16h-18.57V430.12z M220.43,431.77h18.47"/>
<path fill="#FFFFFF" d="M201.3,430.12h19.08v3.16H201.3V430.12z"/>
<path fill="none" stroke="#000000" stroke-width="0.78" d="M201.3,430.12h19.08v3.16H201.3V430.12z M201.3,431.77h19.08"/>
<path fill="#FFFFFF" d="M421.74,430.1h18.58v3.16h-18.58V430.1z"/>
<path fill="none" stroke="#000000" stroke-width="0.78" d="M421.74,430.1h18.58v3.16h-18.58V430.1z M421.74,431.75h18.47"/>
<path fill="#FFFFFF" d="M402.62,430.1h19.07v3.16H402.6L402.62,430.1z"/>
<path fill="none" stroke="#000000" stroke-width="0.78" d="M402.62,430.1h19.07v3.16H402.6L402.62,430.1z M402.62,431.75h19.07"/>
<path fill="#FFFFFF" d="M356.1,430.081h18.58v3.17H356.1V430.081z"/>
<path fill="none" stroke="#000000" stroke-width="0.78" d="M356.1,430.081h18.58v3.17H356.1V430.081z M356.1,431.741h18.471"/>
<path fill="#FFFFFF" d="M336.98,430.081h19.069v3.17H336.98V430.081z"/>
<path fill="none" stroke="#000000" stroke-width="0.78" d="M336.98,430.081h19.069v3.17H336.98V430.081z M336.98,431.741h19.069"/>
<path fill="#FFFFFF" d="M288.061,430.1h18.58v3.17h-18.58V430.1z"/>
<path fill="none" stroke="#000000" stroke-width="0.78" d="M288.061,430.1h18.58v3.17h-18.58V430.1z M288.061,431.76h18.469"/>
<path fill="#FFFFFF" d="M268.939,430.1H288v3.17h-19.061V430.1z"/>
<path fill="none" stroke="#000000" stroke-width="0.78" d="M268.939,430.1H288v3.17h-19.061V430.1z M268.939,431.76H288"/>
<g>
	<defs>
		<rect id="SVGID_119_" x="45.1" y="158.95" width="100.15" height="4.56"/>
	</defs>
	<clipPath id="SVGID_120_">
		<use xlink:href="#SVGID_119_"  overflow="visible"/>
	</clipPath>
	<path clip-path="url(#SVGID_120_)" fill="#231F20" d="M145.25,159.32v-0.3h-3.4v0.3h1.53v4.1h0.33v-4.1h1.55H145.25z
		 M139.45,163.42v-0.3h-2.84v-1.76h2.54v-0.3h-2.53v-1.74h2.82v-0.3h-3.14v4.4h3.17H139.45z M133.58,163.42v-0.3h-2.84v-1.76h2.52
		v-0.3h-2.52v-1.74h2.8v-0.3h-3.13v4.4h3.18H133.58z M127.3,160.3c0,0.64-0.54,1-1.28,1h-1.5v-1.98h1.52c0.8,0,1.26,0.38,1.26,0.97
		V160.3z M127.8,163.43l-1.46-1.88c0.74-0.1,1.3-0.53,1.3-1.26v-0.03c0-0.729-0.63-1.25-1.58-1.25h-1.86v4.4h0.33v-1.82h1.44
		l1.4,1.83h0.42L127.8,163.43z M121.55,159.33v-0.3h-3.4v0.3h1.54v4.1h0.32v-4.1h1.53H121.55z M115.83,162.29v-0.02
		c0-0.65-0.43-1-1.45-1.22c-1.04-0.2-1.28-0.5-1.28-0.96v-0.02c0-0.46,0.43-0.83,1.08-0.83c0.48,0,0.9,0.14,1.3,0.5l0.22-0.26
		c-0.45-0.37-0.87-0.54-1.5-0.54c-0.83,0-1.43,0.5-1.43,1.16c0,0.68,0.43,1.04,1.5,1.25c1,0.2,1.23,0.47,1.23,0.94v0.02
		c0,0.5-0.45,0.88-1.1,0.88c-0.66,0-1.1-0.2-1.6-0.66l-0.2,0.25c0.52,0.46,1.06,0.7,1.77,0.7c0.85,0,1.46-0.5,1.46-1.2
		 M104.67,163.41v-4.4h-0.3v3.83l-3.06-3.84h-0.3v4.4h0.32v-3.9l3.1,3.9h0.25L104.67,163.41z M97.89,161.21
		c0,1.1-0.8,1.98-1.88,1.98c-1.1,0-1.88-0.88-1.88-1.97v-0.02c0-1.08,0.78-1.96,1.87-1.96s1.9,0.9,1.9,2L97.89,161.21z
		 M98.23,161.21c0,0,0,0,0-0.02c0-1.2-0.88-2.26-2.22-2.26c-1.33,0-2.22,1.08-2.22,2.28v0.02c0,1.2,0.88,2.27,2.2,2.27
		c1.35,0,2.24-1.07,2.24-2.27 M91.68,159.33v-0.3h-3.4v0.3h1.53v4.1h0.33v-4.1h1.53H91.68z M85.88,162.85v-1.7h-1.8v0.3h1.48v1.26
		c-0.32,0.3-0.84,0.52-1.4,0.52c-1.18,0-1.9-0.85-1.9-2c0-1.07,0.75-1.98,1.83-1.98c0.67,0,1.08,0.23,1.42,0.53l0.22-0.24
		c-0.44-0.37-0.9-0.58-1.62-0.58c-1.3,0-2.18,1.1-2.18,2.28c0,1.25,0.83,2.28,2.22,2.28c0.72,0,1.34-0.3,1.73-0.65 M79.16,163.45
		v-4.4h-0.32v3.83l-3.04-3.84h-0.3v4.4h0.3v-3.9l3.1,3.9h0.26V163.45z M72.48,159.05h-0.33v4.4h0.33V159.05z M69.15,163.45v-4.4
		h-0.33v2.03H66v-2.04h-0.33v4.4H66v-2.05h2.82v2.06H69.15z M62.95,162.31v-0.02c0-0.65-0.44-1-1.46-1.22
		c-1.03-0.2-1.27-0.5-1.27-0.96v-0.02c0-0.46,0.43-0.83,1.07-0.83c0.5,0,0.9,0.14,1.32,0.5l0.2-0.26c-0.44-0.37-0.86-0.54-1.5-0.54
		c-0.82,0-1.42,0.5-1.42,1.16c0,0.68,0.43,1.04,1.48,1.25c1,0.2,1.25,0.47,1.25,0.94v0.02c0,0.5-0.45,0.88-1.1,0.88
		c-0.66,0-1.1-0.2-1.6-0.66l-0.2,0.25c0.52,0.46,1.06,0.7,1.77,0.7c0.85,0,1.46-0.5,1.46-1.2 M56.45,161.9h-2.33l1.17-2.55
		L56.45,161.9z M57.5,163.43L55.47,159h-0.32l-2.05,4.43h0.33l0.56-1.23h2.6l0.56,1.23H57.5L57.5,163.43z M51.4,159.03h-0.33
		l-1.38,3.92l-1.3-3.94h-0.26l-1.3,3.95l-1.38-3.93h-0.36l1.6,4.44h0.26l1.3-3.83l1.3,3.83h0.25L51.4,159.03z"/>
</g>
<g id="Layer_1_1_">
	<g>
		<polygon points="45.1,375.404 78.019,358.11 78.019,393.911 		"/>
		<polygon points="120.949,375.404 88.031,358.11 88.031,393.911 		"/>
		<polygon points="82.567,310.325 64.366,376.165 100.668,376.165 		"/>
		<g>
			<polygon fill="#FFFFFF" points="65.17,376.615 99.861,376.615 82.467,437.213 			"/>
			<path d="M99.057,377.221l-16.587,57.786l-16.495-57.786H99.057 M100.668,376.008H64.366l18.099,63.41L100.668,376.008
				L100.668,376.008z"/>
		</g>
		<g>
			<path fill="#FFFFFF" d="M86.734,355.383h3.148v18.225h-2.682l-10.05-12.965v12.965h-3.15v-18.225h2.968l9.763,12.602v-12.602
				H86.734z"/>
		</g>
	</g>
</g>
</svg>
