<?xml version="1.0" encoding="utf-8"?>
<!-- Generator: Adobe Illustrator 15.0.0, SVG Export Plug-In . SVG Version: 6.00 Build 0)  -->
<!DOCTYPE svg PUBLIC "-//W3C//DTD SVG 1.1//EN" "http://www.w3.org/Graphics/SVG/1.1/DTD/svg11.dtd">
<svg version="1.1" id="Layer_1" xmlns="http://www.w3.org/2000/svg" xmlns:xlink="http://www.w3.org/1999/xlink" x="0px" y="0px"
	 width="513.359px" height="495.36px" viewBox="0 0 513.359 495.36" enable-background="new 0 0 513.359 495.36"
	 xml:space="preserve">
<g id="Layer_4">
	<rect x="79.176" y="47.99" fill="#BBBDBF" width="33.15" height="44.2"/>
	<rect x="112.326" y="47.99" fill="#FFFFFF" width="33.149" height="44.2"/>
	<polygon fill="#FFFFFF" points="145.477,99.839 145.477,92.189 120.826,92.189 120.826,99.839 112.326,99.839 112.326,141.489 
		145.477,141.489 	"/>
	<polygon fill="#FFFFFF" points="79.176,99.839 58.776,99.839 58.776,116.839 46.026,116.839 46.026,142.339 79.176,142.339 	"/>
	<polygon fill="#FFFFFF" points="78.326,98.989 78.326,141.489 112.326,141.489 112.326,124.489 112.326,110.889 89.376,110.889 
		89.376,98.139 	"/>
	<polygon fill="#FFFFFF" points="46.026,47.139 78.327,47.139 78.327,92.189 64.727,92.189 64.727,85.389 60.477,85.389 
		60.477,75.189 49.426,75.189 46.026,75.189 	"/>
	<g>
		<g>
			<defs>
				<rect id="SVGID_1_" x="-89.049" y="45.872" width="575.169" height="745.353"/>
			</defs>
			<clipPath id="SVGID_2_">
				<use xlink:href="#SVGID_1_"  overflow="visible"/>
			</clipPath>
			<path clip-path="url(#SVGID_2_)" fill="none" stroke="#000000" stroke-width="0.425" d="M56.283,93.982
				c0,1.796,1.454,3.252,3.25,3.252 M56.281,93.982h3.253v-0.188h-3.253V93.982z"/>
		</g>
	</g>
	<path fill="none" stroke="#000000" stroke-width="0.452" d="M49.895,105.435l8.957,0.004 M46.637,106.633l12.214,0.003
		 M46.618,107.831l12.204,0.01 M46.661,109.028l12.23,0.007 M46.701,110.227l12.19,0.003 M46.701,111.424l12.19,0.006
		 M46.722,112.677l12.17-0.002"/>
	<path fill="none" stroke="#000000" stroke-width="0.425" d="M46.394,98.678h6.378 M46.394,99.875h6.378 M46.394,101.073h6.378
		 M46.394,102.27h6.378 M46.394,103.468h6.316 M46.271,104.665h5.475 M46.626,105.619h3.554"/>
	<line fill="none" stroke="#000000" stroke-width="1.18" x1="46.393" y1="97.542" x2="52.771" y2="97.542"/>
	<polyline fill="none" stroke="#000000" stroke-width="0.425" points="46.91,108.187 50.576,105.493 50.386,104.937 51.311,105.814 
		51.05,105.173 52.818,104.104 	"/>
	<line fill="none" stroke="#000000" stroke-width="0.452" x1="52.389" y1="104.239" x2="59.15" y2="104.239"/>
	<path fill="#FFFFFF" d="M53.14,112.944h0.588V97.611H53.14V112.944z M52.848,97.213h1.172v16.128h-1.172V97.213z"/>
	<path fill="none" stroke="#262626" stroke-width="0.495" d="M53.14,112.944h0.588V97.611H53.14V112.944z M52.848,97.213h1.172
		v16.128h-1.172V97.213z"/>
	<g>
		<g>
			<defs>
				<rect id="SVGID_3_" x="-89.049" y="45.872" width="575.169" height="745.353"/>
			</defs>
			<clipPath id="SVGID_4_">
				<use xlink:href="#SVGID_3_"  overflow="visible"/>
			</clipPath>
			<polygon clip-path="url(#SVGID_4_)" fill="none" stroke="#262626" stroke-width="2.065" stroke-miterlimit="10" points="
				145.911,142.136 45.602,142.136 45.602,47.285 79.086,47.285 145.911,47.285 			"/>
		</g>
	</g>
	<path fill="none" stroke="#262626" stroke-width="1.18" stroke-miterlimit="10" d="M59.024,99.503h61.809v-7.374 M49.289,85.048
		h11.358 M48.994,93.014h10.03v0.885 M59.024,97.145v19.766H46.487 M45.749,93.162h3.393V75.017h11.653v10.621h3.982v6.934h47.795
		l0.058-0.878h8.056l-0.07-0.156h25.737 M78.939,142.43V99.159 M112.425,142.43V99.159 M112.425,92.572V47.948 M78.792,92.615
		V47.948"/>
	<g>
		<g>
			<defs>
				<rect id="SVGID_5_" x="-89.049" y="45.872" width="575.169" height="745.353"/>
			</defs>
			<clipPath id="SVGID_6_">
				<use xlink:href="#SVGID_5_"  overflow="visible"/>
			</clipPath>
			<path clip-path="url(#SVGID_6_)" fill="none" stroke="#000000" stroke-width="0.425" d="M102.91,99.887v5.016 M101.706,99.887
				v5.016 M100.501,99.887v5.016 M99.296,99.887v4.918 M98.092,99.887v4.918 M96.886,99.887v4.918 M95.682,99.887v1.666
				 M111.023,102.677c-1.805,0-3.27-1.463-3.27-3.269 M111.212,102.679h-0.188v-3.271h0.188V102.679z M77.78,102.602
				c-1.806,0-3.27-1.464-3.27-3.27 M77.968,102.604H77.78v-3.271h0.188V102.604z M113.895,102.674c1.806,0,3.27-1.462,3.27-3.269
				 M113.706,102.677h0.188v-3.271h-0.188V102.677z M81.013,102.602c1.806,0,3.271-1.464,3.271-3.27 M80.825,102.604h0.188v-3.271
				h-0.188V102.604z M114.511,87.951c1.806,0,3.271,1.464,3.271,3.27 M114.323,87.949h0.188v3.272h-0.188V87.949z M95.425,89.498
				c-1.807,0-3.271,1.465-3.271,3.27 M95.613,89.496h-0.188v3.272h0.188V89.496z M67.975,91.837c0-1.806-1.465-3.269-3.271-3.269
				 M67.976,91.837h-3.271v0.188h3.271V91.837z"/>
		</g>
	</g>
	<line fill="none" stroke="#000000" stroke-width="1.18" x1="104.115" y1="99.887" x2="104.115" y2="104.902"/>
	<polyline fill="none" stroke="#000000" stroke-width="0.425" points="94.92,99.347 95.854,102.248 96.444,102.199 95.363,102.887 
		96.052,102.789 96.666,104.928 	"/>
	<path fill="#FFFFFF" d="M93.101,105.641h11.359v-0.59H93.101V105.641z M104.754,105.936H92.805v-1.18h11.949V105.936z"/>
	<path fill="none" stroke="#262626" stroke-width="0.425" d="M93.101,105.641h11.359v-0.59H93.101V105.641z M104.754,105.936H92.805
		v-1.18h11.949V105.936z"/>
	<path fill="none" stroke="#000000" stroke-width="0.425" d="M95.58,102.887v1.941 M94.375,99.913v4.916 M93.171,99.913v4.916
		 M95.532,105.987v4.918 M94.326,105.987v4.918 M93.122,105.987v4.918 M104.214,105.964v5.014 M103.009,105.964v5.014
		 M101.804,105.964v5.014 M100.473,105.964v5.014 M99.269,105.964v4.917 M98.062,105.964v4.917 M96.859,105.964v4.917"/>
	<polyline fill="none" stroke="#262626" stroke-width="1.18" stroke-miterlimit="10" points="88.971,99.503 88.971,110.863 
		112.573,110.863 	"/>
	<g>
		<path d="M57.083,78.185h-3.365v1.547h2.983v0.935h-2.983v1.598h3.408V83.2h-4.453v-5.95h4.411L57.083,78.185L57.083,78.185z"/>
	</g>
	<g>
		<g>
			<defs>
				<rect id="SVGID_7_" x="-89.049" y="45.872" width="575.169" height="745.353"/>
			</defs>
			<clipPath id="SVGID_8_">
				<use xlink:href="#SVGID_7_"  overflow="visible"/>
			</clipPath>
		</g>
		<g>
			<defs>
				<rect id="SVGID_9_" x="-89.049" y="45.872" width="575.169" height="745.353"/>
			</defs>
			<clipPath id="SVGID_10_">
				<use xlink:href="#SVGID_9_"  overflow="visible"/>
			</clipPath>
			<path clip-path="url(#SVGID_10_)" fill="#231F20" d="M289.55,310.76l-2.933-3.73h-0.492v4.654h0.513v-3.816l3.006,3.816h0.419
				v-4.654h-0.513V310.76z M285.034,307.028h-3.364v4.654h3.396v-0.479h-2.872v-1.629h2.54v-0.479h-2.54v-1.59h2.84V307.028
				L285.034,307.028z M279.827,309.588v2.096h0.525v-4.654h-0.525v2.066h-2.687v-2.066h-0.526v4.654h0.526v-2.096H279.827z
				 M275.698,310.946l-0.346-0.34c-0.446,0.426-0.865,0.672-1.503,0.672c-1.023,0-1.802-0.846-1.802-1.93s0.771-1.914,1.802-1.914
				c0.632,0,1.071,0.266,1.463,0.639l0.359-0.387c-0.466-0.438-0.972-0.738-1.815-0.738c-1.37,0-2.354,1.084-2.354,2.414
				c0,1.344,0.99,2.4,2.335,2.4C274.681,311.764,275.213,311.438,275.698,310.946 M269.481,307.514h1.562v-0.484h-3.656v0.484h1.562
				v4.17h0.531V307.514L269.481,307.514z M265.83,311.684h0.524v-4.654h-0.524V311.684z M262.885,309.063l1.995-2.035h-0.679
				l-2.675,2.779v-2.779h-0.524v4.654h0.524v-1.25l0.991-1.004l1.789,2.254h0.658L262.885,309.063z"/>
		</g>
		<g>
			<defs>
				<rect id="SVGID_11_" x="-89.049" y="45.872" width="575.169" height="745.353"/>
			</defs>
			<clipPath id="SVGID_12_">
				<use xlink:href="#SVGID_11_"  overflow="visible"/>
			</clipPath>
			<path clip-path="url(#SVGID_12_)" fill="#231F20" d="M422.349,143.808h-0.468l-0.477,1.547h0.296L422.349,143.808z
				 M421.402,143.808h-0.469l-0.471,1.547h0.293L421.402,143.808z M419.226,146.592c0,0.54-0.396,0.966-1.014,0.966
				c-0.618,0-1.062-0.402-1.062-0.948c0-0.474,0.42-0.924,1.05-0.924C418.806,145.686,419.226,146.07,419.226,146.592
				 M419.562,144.114c-0.366-0.3-0.738-0.48-1.242-0.48c-1.098,0-1.746,1.002-1.746,2.286c0,0.864,0.192,1.296,0.528,1.632
				c0.264,0.264,0.642,0.426,1.104,0.426c0.854,0,1.508-0.588,1.508-1.404c0-0.792-0.666-1.296-1.452-1.296
				c-0.612,0-0.966,0.306-1.194,0.642c-0.006-1.086,0.468-1.854,1.23-1.854c0.384,0,0.678,0.15,0.988,0.414L419.562,144.114z
				 M415.313,143.808h-0.469l-0.473,1.547h0.293L415.313,143.808z M412.169,144.072c0.455,0,0.846,0.312,0.846,0.804
				c0,0.42-0.234,0.744-0.876,1.32l-1.524,1.344v0.366h2.936v-0.432h-2.228l1.122-0.996c0.738-0.642,1.062-1.02,1.062-1.638
				c0-0.69-0.54-1.194-1.304-1.194c-0.736,0-1.134,0.33-1.512,0.894l0.35,0.252C411.377,144.324,411.688,144.072,412.169,144.072
				 M408.059,144.03l0.114,0.384l0.792-0.246v3.738h0.468v-4.23h-0.348L408.059,144.03z M405.321,147.406l-1.129-1.504l1.087-1.436
				h-0.386l-0.896,1.201l-0.902-1.201h-0.392l1.09,1.441l-1.131,1.499h0.383l0.939-1.264l0.941,1.264H405.321z M400.339,143.808
				h-0.471l-0.475,1.547h0.296L400.339,143.808z M399.393,143.808h-0.469l-0.474,1.547h0.293L399.393,143.808z M397.215,145.812
				c0,0.924-0.486,1.734-1.272,1.734s-1.29-0.816-1.29-1.746c0-0.93,0.492-1.734,1.278-1.734S397.215,144.888,397.215,145.812
				 M397.706,145.8c0-1.182-0.685-2.166-1.765-2.166c-1.086,0-1.781,0.996-1.781,2.178s0.685,2.166,1.771,2.166
				C397.011,147.978,397.706,146.981,397.706,145.8 M392.895,143.808h-0.468l-0.473,1.547h0.294L392.895,143.808z M389.522,144.03
				l0.114,0.384l0.792-0.246v3.738h0.468v-4.23h-0.348L389.522,144.03z M386.937,144.03l0.114,0.384l0.792-0.246v3.738h0.468v-4.23
				h-0.348L386.937,144.03z"/>
		</g>
		<g>
			<defs>
				<rect id="SVGID_13_" x="-89.049" y="45.872" width="575.169" height="745.353"/>
			</defs>
			<clipPath id="SVGID_14_">
				<use xlink:href="#SVGID_13_"  overflow="visible"/>
			</clipPath>
			<path clip-path="url(#SVGID_14_)" fill="#231F20" d="M421.927,136.11v3.771h0.523v-4.655h-0.53l-1.696,2.54l-1.695-2.54h-0.531
				v4.655h0.513v-3.764l1.695,2.487h0.025L421.927,136.11z M416.341,137.56c0,1.064-0.758,1.915-1.822,1.915
				c-1.063,0-1.836-0.864-1.836-1.928s0.759-1.915,1.823-1.915C415.569,135.632,416.341,136.496,416.341,137.56 M416.886,137.547
				c0-1.29-0.951-2.401-2.367-2.401c-1.417,0-2.381,1.124-2.381,2.414s0.951,2.401,2.368,2.401
				C415.922,139.961,416.886,138.837,416.886,137.547 M410.688,137.56c0,1.064-0.758,1.915-1.822,1.915
				c-1.062,0-1.836-0.864-1.836-1.928s0.759-1.915,1.822-1.915C409.917,135.632,410.688,136.496,410.688,137.56 M411.233,137.547
				c0-1.29-0.951-2.401-2.367-2.401c-1.417,0-2.381,1.124-2.381,2.414s0.951,2.401,2.367,2.401
				C410.27,139.961,411.233,138.837,411.233,137.547 M405.034,136.636c0,0.605-0.498,0.964-1.195,0.964h-1.432v-1.889h1.438
				C404.597,135.711,405.034,136.057,405.034,136.636 M405.733,139.881l-1.429-1.902c0.729-0.133,1.263-0.585,1.263-1.363
				c0-0.838-0.658-1.39-1.682-1.39h-2.002v4.655h0.523v-1.809h1.331l1.351,1.809H405.733z M400.228,137.56
				c0,1.038-0.751,1.836-1.928,1.836h-1.092v-3.685h1.092C399.477,135.711,400.228,136.523,400.228,137.56 M400.773,137.547
				c0-1.317-1.011-2.321-2.474-2.321h-1.616v4.655h1.616C399.763,139.881,400.773,138.864,400.773,137.547 M395.593,135.226h-3.365
				v4.655h3.399v-0.479h-2.873v-1.629h2.54v-0.479h-2.54v-1.589h2.839V135.226z M389.509,139.409h-1.563v-1.643h1.472
				c0.811,0,1.235,0.293,1.235,0.805C390.652,139.096,390.214,139.409,389.509,139.409 M389.322,137.301h-1.377v-1.603h1.416
				c0.665,0,1.031,0.299,1.031,0.765C390.393,137.015,389.954,137.301,389.322,137.301 M389.408,135.226h-1.981v4.655h2.068
				c1.018,0,1.688-0.472,1.688-1.277c0-0.645-0.446-0.964-0.998-1.13c0.366-0.16,0.738-0.472,0.738-1.084
				C390.925,135.678,390.326,135.226,389.408,135.226"/>
		</g>
		<g>
			<defs>
				<rect id="SVGID_15_" x="-89.049" y="45.872" width="575.169" height="745.353"/>
			</defs>
			<clipPath id="SVGID_16_">
				<use xlink:href="#SVGID_15_"  overflow="visible"/>
			</clipPath>
			<path clip-path="url(#SVGID_16_)" fill="#231F20" d="M445.866,427.522v1.561h0.486v-3.658h-0.486v1.564h-4.169v0.531h4.169
				V427.522z M446.354,424.667v-3.365h-4.655v3.4h0.479v-2.873h1.629v2.539h0.479v-2.539h1.589v2.838H446.354z M445.189,417.452
				c0.426,0,0.758,0.387,0.758,0.992c0,0.479-0.152,0.91-0.505,1.342l0.404,0.307c0.38-0.473,0.571-0.957,0.571-1.637
				c0-0.883-0.531-1.529-1.275-1.529c-0.771,0-1.117,0.492-1.351,1.564c-0.206,0.977-0.452,1.209-0.891,1.209
				c-0.474,0-0.798-0.412-0.798-1.037c0-0.646,0.219-1.111,0.657-1.596l-0.387-0.326c-0.499,0.559-0.744,1.164-0.744,1.9
				c0,0.926,0.52,1.592,1.323,1.592c0.719,0,1.098-0.48,1.323-1.518C444.497,417.692,444.743,417.452,445.189,417.452
				 M444.02,415.422c-1.064,0-1.915-0.758-1.915-1.82c0-1.064,0.863-1.836,1.928-1.836c1.063,0,1.915,0.76,1.915,1.822
				C445.947,414.653,445.083,415.422,444.02,415.422 M444.031,415.967c1.29,0,2.4-0.949,2.4-2.365s-1.124-2.381-2.413-2.381
				c-1.29,0-2.401,0.949-2.401,2.367C441.617,415.004,442.741,415.967,444.031,415.967 M441.698,407.577v3.146h0.484v-2.621h4.171
				v-0.523h-4.655V407.577z M442.437,406.659l0.339-0.346c-0.426-0.445-0.671-0.863-0.671-1.504c0-1.023,0.844-1.803,1.928-1.803
				s1.915,0.773,1.915,1.803c0,0.633-0.267,1.07-0.639,1.465l0.386,0.357c0.438-0.465,0.738-0.971,0.738-1.814
				c0-1.369-1.084-2.354-2.413-2.354c-1.345,0-2.401,0.99-2.401,2.334C441.617,405.643,441.944,406.174,442.437,406.659"/>
		</g>
		<g>
			<defs>
				<rect id="SVGID_17_" x="-89.049" y="45.872" width="575.169" height="745.353"/>
			</defs>
			<clipPath id="SVGID_18_">
				<use xlink:href="#SVGID_17_"  overflow="visible"/>
			</clipPath>
			<path clip-path="url(#SVGID_18_)" fill="#231F20" d="M445.795,245.154h1.562v-0.486h-3.657v0.486h1.562v4.169h0.532
				L445.795,245.154L445.795,245.154z M442.941,244.668h-3.364v4.655h3.398v-0.479h-2.873v-1.629h2.54v-0.479h-2.54v-1.589h2.839
				V244.668z M435.727,245.832c0-0.426,0.387-0.758,0.991-0.758c0.479,0,0.911,0.153,1.343,0.505l0.307-0.405
				c-0.473-0.38-0.957-0.572-1.637-0.572c-0.884,0-1.528,0.532-1.528,1.276c0,0.772,0.491,1.118,1.562,1.35
				c0.979,0.207,1.211,0.453,1.211,0.891c0,0.473-0.413,0.797-1.038,0.797c-0.645,0-1.109-0.219-1.596-0.656l-0.325,0.386
				c0.559,0.499,1.163,0.745,1.9,0.745c0.926,0,1.591-0.52,1.591-1.324c0-0.718-0.479-1.097-1.517-1.323
				C435.966,246.523,435.727,246.277,435.727,245.832 M433.698,247.002c0,1.064-0.759,1.915-1.821,1.915
				c-1.064,0-1.836-0.862-1.836-1.927c0-1.064,0.759-1.915,1.822-1.915C432.927,245.074,433.698,245.938,433.698,247.002
				 M434.242,246.989c0-1.29-0.949-2.401-2.366-2.401c-1.416,0-2.382,1.124-2.382,2.414c0,1.29,0.951,2.401,2.368,2.401
				C433.279,249.403,434.242,248.279,434.242,246.989 M425.852,249.323h3.146v-0.484h-2.619v-4.17h-0.525L425.852,249.323
				L425.852,249.323z M424.934,248.584l-0.346-0.338c-0.445,0.426-0.864,0.67-1.503,0.67c-1.024,0-1.803-0.843-1.803-1.927
				s0.771-1.915,1.803-1.915c0.632,0,1.07,0.266,1.463,0.638l0.358-0.385c-0.466-0.439-0.971-0.739-1.814-0.739
				c-1.37,0-2.354,1.084-2.354,2.414c0,1.344,0.99,2.401,2.334,2.401C423.917,249.403,424.448,249.077,424.934,248.584"/>
		</g>
		<g>
			<defs>
				<rect id="SVGID_19_" x="-89.049" y="45.872" width="575.169" height="745.353"/>
			</defs>
			<clipPath id="SVGID_20_">
				<use xlink:href="#SVGID_19_"  overflow="visible"/>
			</clipPath>
			<path clip-path="url(#SVGID_20_)" fill="#231F20" d="M242.388,419.995l1.935-2.807h-0.609l-1.583,2.328l-1.57-2.328h-0.638
				l1.935,2.812v1.842h0.532L242.388,419.995L242.388,419.995z M238.909,418.598c0,0.605-0.499,0.965-1.196,0.965h-1.431v-1.889
				h1.437C238.471,417.674,238.909,418.02,238.909,418.598 M239.607,421.844l-1.43-1.902c0.731-0.133,1.264-0.584,1.264-1.363
				c0-0.838-0.658-1.389-1.683-1.389h-2.001v4.654h0.523v-1.811h1.33l1.352,1.811H239.607L239.607,421.844z M233.211,417.674h1.562
				v-0.484h-3.656v0.484h1.562v4.17h0.532V417.674z M229.619,420.918l-2.934-3.729h-0.492v4.654h0.513v-3.816l3.007,3.816h0.419
				v-4.654h-0.513V420.918z M223.961,420.141h-2.122l1.062-2.373L223.961,420.141z M223.155,417.155h-0.491l-2.121,4.688h0.538
				l0.553-1.229h2.533l0.546,1.229h0.563L223.155,417.155z M219.917,418.692c0,0.617-0.505,1.029-1.276,1.029h-1.149v-2.047h1.177
				C219.418,417.674,219.917,418.02,219.917,418.692 M220.449,418.672c0-0.926-0.691-1.482-1.742-1.482h-1.742v4.654h0.524V420.2
				h1.131C219.611,420.2,220.449,419.682,220.449,418.672"/>
		</g>
		<g>
			<defs>
				<rect id="SVGID_21_" x="-89.049" y="45.872" width="575.169" height="745.353"/>
			</defs>
			<clipPath id="SVGID_22_">
				<use xlink:href="#SVGID_21_"  overflow="visible"/>
			</clipPath>
			<path clip-path="url(#SVGID_22_)" fill="#231F20" d="M387.05,272.749v2.096h0.525v-4.655h-0.525v2.067h-2.688v-2.067h-0.524
				v4.655h0.524v-2.096H387.05z M381.291,270.674h1.562v-0.485h-3.658v0.485h1.562v4.17h0.532L381.291,270.674L381.291,270.674z
				 M377.895,273.142h-2.122l1.063-2.374L377.895,273.142z M377.089,270.155h-0.491l-2.122,4.688h0.538l0.553-1.229h2.534
				l0.545,1.229h0.564L377.089,270.155z M372.155,274.372h-1.562v-1.644h1.471c0.812,0,1.236,0.293,1.236,0.806
				C373.299,274.059,372.86,274.372,372.155,274.372 M371.969,272.264h-1.377v-1.604h1.416c0.665,0,1.031,0.299,1.031,0.766
				C373.039,271.978,372.601,272.264,371.969,272.264 M372.055,270.188h-1.98v4.654h2.067c1.019,0,1.689-0.473,1.689-1.276
				c0-0.646-0.446-0.964-0.998-1.13c0.366-0.16,0.737-0.473,0.737-1.084C373.571,270.641,372.974,270.188,372.055,270.188"/>
		</g>
		<g>
			<defs>
				<rect id="SVGID_23_" x="-89.049" y="45.872" width="575.169" height="745.353"/>
			</defs>
			<clipPath id="SVGID_24_">
				<use xlink:href="#SVGID_23_"  overflow="visible"/>
			</clipPath>
			<path clip-path="url(#SVGID_24_)" fill="#231F20" d="M461.424,357.766h-0.874v0.996h0.874V357.766z M458.635,356.668v2.096h0.524
				v-4.654h-0.524v2.066h-2.688v-2.066h-0.524v4.654h0.524v-2.096H458.635z M454.505,358.026l-0.346-0.34
				c-0.445,0.426-0.864,0.672-1.503,0.672c-1.023,0-1.803-0.846-1.803-1.93s0.771-1.916,1.803-1.916
				c0.631,0,1.069,0.268,1.463,0.641l0.358-0.387c-0.466-0.438-0.971-0.736-1.815-0.736c-1.369,0-2.354,1.084-2.354,2.414
				c0,1.342,0.991,2.398,2.334,2.398C453.488,358.842,454.02,358.516,454.505,358.026 M449.425,354.11h-3.365v4.652h3.398v-0.479
				h-2.873v-1.629h2.541v-0.479h-2.541v-1.59h2.84V354.11L449.425,354.11z M444.218,354.993v3.771h0.524v-4.654h-0.531l-1.695,2.541
				l-1.695-2.541h-0.532v4.654h0.513V355l1.695,2.486h0.025L444.218,354.993z"/>
		</g>
		<g>
			<defs>
				<rect id="SVGID_25_" x="-89.049" y="45.872" width="575.169" height="745.353"/>
			</defs>
			<clipPath id="SVGID_26_">
				<use xlink:href="#SVGID_25_"  overflow="visible"/>
			</clipPath>
			<path clip-path="url(#SVGID_26_)" fill="#231F20" d="M462.122,297.502c-1.037,0-1.836-0.752-1.836-1.93v-1.091h3.685v1.091
				C463.971,296.75,463.159,297.502,462.122,297.502 M462.136,298.047c1.316,0,2.32-1.012,2.32-2.475v-1.615h-4.654v1.615
				C459.802,297.036,460.819,298.047,462.136,298.047 M459.802,292.577h0.998v-0.873h-0.998V292.577z M460.579,286.76l3.877-1.329
				v-0.571l-4.688,1.663v0.438l3.776,1.283l-3.776,1.277v0.443l4.688,1.664v-0.553l-3.877-1.33l3.891-1.277v-0.432L460.579,286.76z"
				/>
		</g>
		<g>
			<defs>
				<rect id="SVGID_27_" x="-89.049" y="45.872" width="575.169" height="745.353"/>
			</defs>
			<clipPath id="SVGID_28_">
				<use xlink:href="#SVGID_27_"  overflow="visible"/>
			</clipPath>
			<path clip-path="url(#SVGID_28_)" fill="#231F20" d="M272.69,144.772v3.771h0.526v-4.655h-0.532l-1.696,2.54l-1.694-2.54h-0.532
				v4.655h0.512v-3.764l1.696,2.487h0.027L272.69,144.772z M267.104,146.222c0,1.064-0.758,1.915-1.821,1.915
				s-1.836-0.864-1.836-1.928c0-1.063,0.76-1.915,1.822-1.915C266.334,144.294,267.104,145.158,267.104,146.222 M267.65,146.209
				c0-1.29-0.95-2.401-2.368-2.401c-1.415,0-2.38,1.124-2.38,2.414s0.951,2.401,2.367,2.401
				C266.687,148.623,267.65,147.499,267.65,146.209 M261.453,146.222c0,1.064-0.76,1.915-1.822,1.915
				c-1.064,0-1.835-0.864-1.835-1.928c0-1.063,0.758-1.915,1.821-1.915C260.682,144.294,261.453,145.158,261.453,146.222
				 M261.998,146.209c0-1.29-0.951-2.401-2.367-2.401s-2.381,1.124-2.381,2.414s0.95,2.401,2.367,2.401
				C261.033,148.623,261.998,147.499,261.998,146.209 M255.801,145.298c0,0.605-0.499,0.964-1.197,0.964h-1.43v-1.888h1.436
				C255.361,144.374,255.801,144.719,255.801,145.298 M256.499,148.543l-1.432-1.902c0.732-0.133,1.266-0.585,1.266-1.363
				c0-0.838-0.659-1.39-1.685-1.39h-2.001v4.655h0.525v-1.809h1.33l1.35,1.809H256.499z"/>
		</g>
		<g>
			<defs>
				<rect id="SVGID_29_" x="-89.049" y="45.872" width="575.169" height="745.353"/>
			</defs>
			<clipPath id="SVGID_30_">
				<use xlink:href="#SVGID_29_"  overflow="visible"/>
			</clipPath>
			<path clip-path="url(#SVGID_30_)" fill="#231F20" d="M288.518,139.411v-1.855h-1.922v0.472h1.417v1.157
				c-0.319,0.26-0.812,0.466-1.344,0.466c-1.13,0-1.843-0.825-1.843-1.942c0-1.044,0.738-1.915,1.77-1.915
				c0.659,0,1.058,0.219,1.417,0.532l0.339-0.399c-0.466-0.393-0.951-0.619-1.735-0.619c-1.396,0-2.335,1.131-2.335,2.414
				c0,1.337,0.904,2.401,2.367,2.401C287.434,140.123,288.086,139.797,288.518,139.411 M282.659,139.119l-2.934-3.731h-0.492v4.655
				h0.513v-3.817l3.007,3.817h0.419v-4.655h-0.513V139.119L282.659,139.119z M277.346,140.043h0.524v-4.655h-0.524V140.043z
				 M274.153,139.398l-1.654-4.01h-0.586l2.003,4.688h0.465l2.002-4.688h-0.565L274.153,139.398z M270.424,140.043h0.523v-4.655
				h-0.523V140.043z M266.261,140.043h3.145v-0.485h-2.619v-4.17h-0.524L266.261,140.043L266.261,140.043z M263.931,139.046h-0.874
				v0.997h0.874V139.046z M261.087,139.411v-1.855h-1.921v0.472h1.416v1.157c-0.319,0.26-0.812,0.466-1.345,0.466
				c-1.131,0-1.842-0.825-1.842-1.942c0-1.044,0.738-1.915,1.771-1.915c0.656,0,1.057,0.219,1.416,0.532l0.339-0.399
				c-0.466-0.393-0.951-0.619-1.736-0.619c-1.396,0-2.334,1.131-2.334,2.414c0,1.337,0.905,2.401,2.368,2.401
				C260.003,140.123,260.654,139.797,261.087,139.411 M255.229,139.119l-2.933-3.731h-0.492v4.655h0.512v-3.817l3.006,3.817h0.42
				v-4.655h-0.513V139.119z M249.916,140.043h0.523v-4.655h-0.523V140.043z M248.039,139.119l-2.933-3.731h-0.492v4.655h0.514
				v-3.817l3.005,3.817h0.419v-4.655h-0.513V139.119z M242.727,140.043h0.525v-4.655h-0.525V140.043z M241.024,137.722
				c0,1.038-0.752,1.836-1.929,1.836h-1.09v-3.684h1.09C240.272,135.874,241.024,136.685,241.024,137.722 M241.569,137.709
				c0-1.317-1.011-2.321-2.474-2.321h-1.616v4.655h1.616C240.559,140.043,241.569,139.026,241.569,137.709"/>
		</g>
		<g>
			<defs>
				<rect id="SVGID_31_" x="-89.049" y="45.872" width="575.169" height="745.353"/>
			</defs>
			<clipPath id="SVGID_32_">
				<use xlink:href="#SVGID_31_"  overflow="visible"/>
			</clipPath>
			<path clip-path="url(#SVGID_32_)" fill="#231F20" d="M216.59,280.788h-3.345v4.654h0.523v-2.027h2.521v-0.479h-2.521v-1.663h2.82
				L216.59,280.788L216.59,280.788z M212.154,280.788h-3.364v4.654h3.397v-0.479h-2.873v-1.629h2.54v-0.479h-2.54v-1.589h2.84
				V280.788L212.154,280.788z M207.134,282.197c0,0.604-0.499,0.964-1.197,0.964h-1.43v-1.889h1.437
				C206.695,281.272,207.134,281.618,207.134,282.197 M207.832,285.442l-1.431-1.9c0.731-0.135,1.265-0.586,1.265-1.363
				c0-0.838-0.659-1.391-1.684-1.391h-2.001v4.654h0.524v-1.809h1.33l1.35,1.809H207.832z"/>
		</g>
		<g>
			<defs>
				<rect id="SVGID_33_" x="-89.049" y="45.872" width="575.169" height="745.353"/>
			</defs>
			<clipPath id="SVGID_34_">
				<use xlink:href="#SVGID_33_"  overflow="visible"/>
			</clipPath>
			<path clip-path="url(#SVGID_34_)" fill="#231F20" d="M210.138,320.465l-1.33-3.877h-0.572l1.662,4.688h0.439l1.284-3.777
				l1.274,3.777h0.446l1.662-4.688h-0.552l-1.33,3.877l-1.276-3.891h-0.433L210.138,320.465z M207.178,318.922
				c0,1.037-0.752,1.836-1.929,1.836h-1.091v-3.684h1.091C206.426,317.075,207.178,317.885,207.178,318.922 M207.723,318.909
				c0-1.316-1.011-2.32-2.474-2.32h-1.616v4.654h1.616C206.712,321.243,207.723,320.227,207.723,318.909"/>
		</g>
	</g>
	<rect x="402.856" y="308.866" fill="#BBBDBF" width="31.112" height="23.252"/>
	<polygon fill="#BBBDBF" points="177.6,47.827 198.683,47.783 198.683,64.857 188.484,64.865 188.466,264.583 192.937,264.583 
		192.937,386.864 188.469,386.864 188.469,446.743 176.007,446.307 	"/>
	<polygon fill="#BBBDBF" points="457.658,48.066 457.658,65.533 471.194,65.533 471.194,219.241 473.379,219.241 473.379,307.01 
		465.954,307.01 465.954,385.61 472.505,385.61 472.505,447.18 483.421,447.18 482.984,48.065 	"/>
	<rect x="338.044" y="300.42" fill="#FFFFFF" width="59.857" height="30.949"/>
	<rect x="338.044" y="300.42" fill="none" stroke="#000000" stroke-width="0.786" width="59.857" height="30.949"/>
	<g>
		<g>
			<defs>
				<rect id="SVGID_35_" x="-89.049" y="45.872" width="575.169" height="745.353"/>
			</defs>
			<clipPath id="SVGID_36_">
				<use xlink:href="#SVGID_35_"  overflow="visible"/>
			</clipPath>
			<path clip-path="url(#SVGID_36_)" fill="#FFFFFF" d="M384.261,317.018c-0.701,0-1.27-0.568-1.27-1.271
				c0-0.699,0.567-1.27,1.27-1.27c0.7,0,1.269,0.568,1.269,1.27C385.529,316.448,384.961,317.018,384.261,317.018"/>
		</g>
		<g>
			<defs>
				<rect id="SVGID_37_" x="-89.049" y="45.872" width="575.169" height="745.353"/>
			</defs>
			<clipPath id="SVGID_38_">
				<use xlink:href="#SVGID_37_"  overflow="visible"/>
			</clipPath>
			<circle clip-path="url(#SVGID_38_)" fill="none" stroke="#231F20" stroke-width="0.655" cx="384.261" cy="315.748" r="1.271"/>
		</g>
		<g>
			<defs>
				<rect id="SVGID_39_" x="-89.049" y="45.872" width="575.169" height="745.353"/>
			</defs>
			<clipPath id="SVGID_40_">
				<use xlink:href="#SVGID_39_"  overflow="visible"/>
			</clipPath>
			<path clip-path="url(#SVGID_40_)" fill="#FFFFFF" d="M341.463,315.799c0,8.871,2.047,12.117,4.915,12.117h43.723
				c0.701,0,2.149-0.188,2.149-2.045v-10.072v-0.02v-10.074c0-1.854-1.448-2.045-2.149-2.045h-43.693l-0.028,0.004
				C343.51,303.665,341.463,306.985,341.463,315.799"/>
		</g>
		<g>
			<defs>
				<rect id="SVGID_41_" x="-89.049" y="45.872" width="575.169" height="745.353"/>
			</defs>
			<clipPath id="SVGID_42_">
				<use xlink:href="#SVGID_41_"  overflow="visible"/>
			</clipPath>
			<path clip-path="url(#SVGID_42_)" fill="none" stroke="#000000" stroke-width="0.655" d="M341.463,315.799
				c0,8.871,2.047,12.117,4.915,12.117h43.723c0.701,0,2.149-0.188,2.149-2.045v-10.072v-0.02v-10.074
				c0-1.854-1.448-2.045-2.149-2.045h-43.693l-0.028,0.004C343.51,303.665,341.463,306.985,341.463,315.799z"/>
		</g>
		<g>
			<defs>
				<rect id="SVGID_43_" x="-89.049" y="45.872" width="575.169" height="745.353"/>
			</defs>
			<clipPath id="SVGID_44_">
				<use xlink:href="#SVGID_43_"  overflow="visible"/>
			</clipPath>
			<path clip-path="url(#SVGID_44_)" fill="#FFFFFF" d="M394.476,318.409c-0.719-0.002-1.295,0.578-1.295,1.305
				c0,0.703,0.576,1.287,1.295,1.291c0.714-0.004,1.304-0.588,1.304-1.291C395.779,318.987,395.197,318.407,394.476,318.409"/>
		</g>
		<g>
			<defs>
				<rect id="SVGID_45_" x="-89.049" y="45.872" width="575.169" height="745.353"/>
			</defs>
			<clipPath id="SVGID_46_">
				<use xlink:href="#SVGID_45_"  overflow="visible"/>
			</clipPath>
			<path clip-path="url(#SVGID_46_)" fill="none" stroke="#231F20" stroke-width="0.589" d="M394.476,318.409
				c-0.719-0.002-1.295,0.578-1.295,1.305c0,0.703,0.576,1.287,1.295,1.291c0.714-0.004,1.304-0.588,1.304-1.291
				C395.779,318.987,395.197,318.407,394.476,318.409z"/>
		</g>
		<g>
			<defs>
				<rect id="SVGID_47_" x="-89.049" y="45.872" width="575.169" height="745.353"/>
			</defs>
			<clipPath id="SVGID_48_">
				<use xlink:href="#SVGID_47_"  overflow="visible"/>
			</clipPath>
			<path clip-path="url(#SVGID_48_)" fill="#FFFFFF" d="M394.476,310.364c-0.719-0.008-1.295,0.582-1.295,1.297
				c0,0.711,0.576,1.297,1.295,1.297c0.714,0,1.304-0.586,1.295-1.297C395.779,310.944,395.189,310.364,394.476,310.364"/>
		</g>
		<g>
			<defs>
				<rect id="SVGID_49_" x="-89.049" y="45.872" width="575.169" height="745.353"/>
			</defs>
			<clipPath id="SVGID_50_">
				<use xlink:href="#SVGID_49_"  overflow="visible"/>
			</clipPath>
			<path clip-path="url(#SVGID_50_)" fill="none" stroke="#231F20" stroke-width="0.589" d="M394.476,310.364
				c-0.719-0.008-1.295,0.582-1.295,1.297c0,0.711,0.576,1.297,1.295,1.297c0.714,0,1.304-0.586,1.295-1.297
				C395.779,310.944,395.189,310.364,394.476,310.364z"/>
		</g>
		<g>
			<defs>
				<rect id="SVGID_51_" x="-89.049" y="45.872" width="575.169" height="745.353"/>
			</defs>
			<clipPath id="SVGID_52_">
				<use xlink:href="#SVGID_51_"  overflow="visible"/>
			</clipPath>
			<path clip-path="url(#SVGID_52_)" fill="#FFFFFF" d="M394.859,317.495c1.063,0,1.924-0.719,1.927-1.783
				c-0.003-1.062-0.862-1.643-1.927-1.643l-7.324,0.682c-0.72,0-0.72,1.943,0,1.943L394.859,317.495z"/>
		</g>
		<g>
			<defs>
				<rect id="SVGID_53_" x="-89.049" y="45.872" width="575.169" height="745.353"/>
			</defs>
			<clipPath id="SVGID_54_">
				<use xlink:href="#SVGID_53_"  overflow="visible"/>
			</clipPath>
			<path clip-path="url(#SVGID_54_)" fill="none" stroke="#231F20" stroke-width="0.589" d="M394.859,317.495
				c1.063,0,1.924-0.719,1.927-1.783c-0.003-1.062-0.862-1.643-1.927-1.643l-7.324,0.682c-0.72,0-0.72,1.943,0,1.943
				L394.859,317.495z"/>
		</g>
		<g>
			<defs>
				<rect id="SVGID_55_" x="-89.049" y="45.872" width="575.169" height="745.353"/>
			</defs>
			<clipPath id="SVGID_56_">
				<use xlink:href="#SVGID_55_"  overflow="visible"/>
			</clipPath>
			<path clip-path="url(#SVGID_56_)" fill="none" stroke="#000000" stroke-width="0.982" d="M407.656,429.643
				c0-16.035,13-29.039,29.04-29.039 M407.639,429.643h29.058v1.674h-29.058V429.643z M328.52,418.137
				c-16.038,0-29.04,13-29.04,29.041 M330.192,418.12h-1.673v29.059h1.673V418.12z M431.46,289.708c0-16.037-13-29.041-29.04-29.041
				 M431.479,289.708H402.42v1.672h29.059V289.708z M363.34,286.637c0-16.038-13-29.04-29.04-29.04 M363.358,286.637H334.3v1.673
				h29.059L363.358,286.637L363.358,286.637z"/>
		</g>
		<g>
			<defs>
				<rect id="SVGID_57_" x="-89.049" y="45.872" width="575.169" height="745.353"/>
			</defs>
			<clipPath id="SVGID_58_">
				<use xlink:href="#SVGID_57_"  overflow="visible"/>
			</clipPath>
			<path clip-path="url(#SVGID_58_)" fill="#FFFFFF" d="M377.408,239.374c0,5.845,3.551,12.283,7.929,12.283
				c4.379,0,7.928-6.439,7.928-12.283c0-5.846-3.549-8.889-7.928-8.889C380.959,230.485,377.408,233.528,377.408,239.374"/>
		</g>
		<g>
			<defs>
				<rect id="SVGID_59_" x="-89.049" y="45.872" width="575.169" height="745.353"/>
			</defs>
			<clipPath id="SVGID_60_">
				<use xlink:href="#SVGID_59_"  overflow="visible"/>
			</clipPath>
			<path clip-path="url(#SVGID_60_)" fill="none" stroke="#000000" stroke-width="0.786" d="M377.408,239.374
				c0,5.845,3.551,12.283,7.929,12.283c4.379,0,7.928-6.439,7.928-12.283c0-5.846-3.549-8.889-7.928-8.889
				C380.959,230.485,377.408,233.528,377.408,239.374z"/>
		</g>
		<g>
			<defs>
				<rect id="SVGID_61_" x="-89.049" y="45.872" width="575.169" height="745.353"/>
			</defs>
			<clipPath id="SVGID_62_">
				<use xlink:href="#SVGID_61_"  overflow="visible"/>
			</clipPath>
			<path clip-path="url(#SVGID_62_)" fill="#FFFFFF" d="M390.084,232.402c0,0.327,0.267,0.595,0.595,0.595h2.776
				c0.325,0,0.595-0.268,0.595-0.595V232.3c0-0.328-0.27-0.595-0.595-0.595h-2.776c-0.328,0-0.595,0.267-0.595,0.595V232.402z"/>
		</g>
		<g>
			<defs>
				<rect id="SVGID_63_" x="-89.049" y="45.872" width="575.169" height="745.353"/>
			</defs>
			<clipPath id="SVGID_64_">
				<use xlink:href="#SVGID_63_"  overflow="visible"/>
			</clipPath>
			<path clip-path="url(#SVGID_64_)" fill="none" stroke="#231F20" stroke-width="0.786" d="M390.084,232.402
				c0,0.327,0.267,0.595,0.595,0.595h2.776c0.325,0,0.595-0.268,0.595-0.595V232.3c0-0.328-0.27-0.595-0.595-0.595h-2.776
				c-0.328,0-0.595,0.267-0.595,0.595V232.402z"/>
		</g>
		<g>
			<defs>
				<rect id="SVGID_65_" x="-89.049" y="45.872" width="575.169" height="745.353"/>
			</defs>
			<clipPath id="SVGID_66_">
				<use xlink:href="#SVGID_65_"  overflow="visible"/>
			</clipPath>
			<path clip-path="url(#SVGID_66_)" fill="#FFFFFF" d="M394.469,231.689c0.993,0,1.802-2.694,1.802-3.69
				c0-0.995-0.809-3.689-1.802-3.689H376.36c-0.995,0-1.801,2.694-1.801,3.689c0,0.996,0.806,3.687,1.801,3.687L394.469,231.689z"/>
		</g>
		<g>
			<defs>
				<rect id="SVGID_67_" x="-89.049" y="45.872" width="575.169" height="745.353"/>
			</defs>
			<clipPath id="SVGID_68_">
				<use xlink:href="#SVGID_67_"  overflow="visible"/>
			</clipPath>
			<path clip-path="url(#SVGID_68_)" fill="none" stroke="#000000" stroke-width="0.786" d="M394.469,231.689
				c0.993,0,1.802-2.694,1.802-3.69c0-0.995-0.809-3.689-1.802-3.689H376.36c-0.995,0-1.801,2.694-1.801,3.689
				c0,0.996,0.806,3.687,1.801,3.687L394.469,231.689z"/>
		</g>
		<g>
			<defs>
				<rect id="SVGID_69_" x="-89.049" y="45.872" width="575.169" height="745.353"/>
			</defs>
			<clipPath id="SVGID_70_">
				<use xlink:href="#SVGID_69_"  overflow="visible"/>
			</clipPath>
			<path clip-path="url(#SVGID_70_)" fill="#FFFFFF" d="M379.509,239.618c0,4.296,2.61,9.029,5.829,9.029
				c3.217,0,5.825-4.733,5.825-9.029c0-4.296-2.608-6.532-5.825-6.532C382.119,233.086,379.509,235.322,379.509,239.618"/>
		</g>
		<g>
			<defs>
				<rect id="SVGID_71_" x="-89.049" y="45.872" width="575.169" height="745.353"/>
			</defs>
			<clipPath id="SVGID_72_">
				<use xlink:href="#SVGID_71_"  overflow="visible"/>
			</clipPath>
			<path clip-path="url(#SVGID_72_)" fill="none" stroke="#000000" stroke-width="0.655" d="M379.509,239.618
				c0,4.296,2.61,9.029,5.829,9.029c3.217,0,5.825-4.733,5.825-9.029c0-4.296-2.608-6.532-5.825-6.532
				C382.119,233.086,379.509,235.322,379.509,239.618z"/>
		</g>
	</g>
	<path fill="none" stroke="#000000" stroke-width="0.786" d="M453.538,278.092v26.638 M453.538,299.53h-3.693l-0.862-3.191v-9.784
		l0.862-3.234h3.693 M470.585,304.729H446.29v-26.445h24.295V304.729z M337.356,246.095h31.439v-24.672"/>
	<polygon fill="#FFFFFF" points="451.945,279.571 451.94,281.708 453.433,282.176 453.438,279.1 	"/>
	<polygon fill="none" stroke="#231F20" stroke-width="0.786" points="451.945,279.571 451.94,281.708 453.433,282.176 
		453.438,279.1 	"/>
	<polyline fill="none" stroke="#231F20" stroke-width="0.786" points="278.57,391.069 278.57,362.413 220.111,362.413 
		220.111,301.988 194.565,301.988 	"/>
	<polygon fill="none" stroke="#000000" stroke-width="0.786" points="236.929,360.94 237.008,386.815 267.463,386.87 
		267.357,360.999 	"/>
	<line fill="none" stroke="#000000" stroke-width="0.393" x1="267.488" y1="384.563" x2="236.99" y2="384.563"/>
	<g>
		<g>
			<defs>
				<rect id="SVGID_73_" x="-89.049" y="45.872" width="575.169" height="745.353"/>
			</defs>
			<clipPath id="SVGID_74_">
				<use xlink:href="#SVGID_73_"  overflow="visible"/>
			</clipPath>
			<path clip-path="url(#SVGID_74_)" fill="none" stroke="#231F20" stroke-width="0.655" d="M246.421,364.526
				c-2.186,0.018-3.942,1.799-3.925,3.98c0.015,2.193,1.799,3.951,3.983,3.936c2.186-0.018,3.947-1.803,3.931-3.992
				C250.395,366.268,248.606,364.51,246.421,364.526z M258.288,364.438c-2.188,0.016-3.946,1.801-3.929,3.982
				c0.014,2.189,1.8,3.949,3.983,3.932c2.188-0.014,3.948-1.799,3.931-3.99C262.259,366.178,260.473,364.42,258.288,364.438z
				 M246.5,375.293c-2.186,0.02-3.941,1.809-3.928,3.992c0.019,2.188,1.802,3.945,3.986,3.928c2.184-0.018,3.947-1.801,3.934-3.988
				C250.477,377.043,248.686,375.28,246.5,375.293z M258.367,375.208c-2.188,0.016-3.945,1.807-3.931,3.988
				c0.019,2.189,1.801,3.945,3.988,3.93c2.186-0.016,3.945-1.801,3.928-3.986C262.338,376.956,260.552,375.19,258.367,375.208z"/>
		</g>
		<g>
			<defs>
				<rect id="SVGID_75_" x="-89.049" y="45.872" width="575.169" height="745.353"/>
			</defs>
			<clipPath id="SVGID_76_">
				<use xlink:href="#SVGID_75_"  overflow="visible"/>
			</clipPath>
			<path clip-path="url(#SVGID_76_)" fill="none" stroke="#231F20" stroke-width="0.786" d="M457.221,46.32h-49.125 M385.826,46.303
				h-45.851 M244.346,46.265h-46.178 M313.776,46.349h-44.213 M412.354,62.818h44.213 M385.826,62.491h-45.195 M269.892,62.818
				h45.194 M198.168,62.491h45.195 M237.883,359.836h28.385v1.201h-28.385V359.836L237.883,359.836z"/>
		</g>
	</g>
	
		<line fill="none" stroke="#231F20" stroke-width="0.786" stroke-dasharray="1.954,1.954,1.954,1.954,1.954,1.954" stroke-dashoffset="3" x1="453.783" y1="386.483" x2="453.783" y2="447.071"/>
	<path fill="none" stroke="#231F20" stroke-width="0.786" d="M459.405,220.987v52.836 M450.89,386.592v60.479"/>
	
		<line fill="none" stroke="#231F20" stroke-width="0.786" stroke-dasharray="2.109,2.109,2.109,2.109,2.109,2.109" stroke-dashoffset="4" x1="461.314" y1="221.259" x2="461.314" y2="273.986"/>
	<g>
		<g>
			<defs>
				<rect id="SVGID_77_" x="-89.049" y="45.872" width="575.169" height="745.353"/>
			</defs>
			<clipPath id="SVGID_78_">
				<use xlink:href="#SVGID_77_"  overflow="visible"/>
			</clipPath>
			<path clip-path="url(#SVGID_78_)" fill="none" stroke="#000000" stroke-width="0.982" d="M296.983,418.317
				c-5.522-6.73-13.442-10.342-21.513-10.605 M298.058,419.6l-1.062-1.293l-22.464,18.432l1.062,1.293L298.058,419.6z
				 M436.621,380.26h-3.021v-44.539h3.021V380.26z"/>
		</g>
	</g>
	<line fill="none" stroke="#000000" stroke-width="0.655" x1="223.565" y1="265.066" x2="223.565" y2="301.092"/>
	<rect x="225.707" y="277.866" fill="none" stroke="#000000" stroke-width="0.786" width="1.475" height="2.783"/>
	<rect x="195.387" y="265.286" fill="none" stroke="#000000" stroke-width="0.786" width="30.295" height="35.516"/>
	<rect x="225.707" y="286.627" fill="none" stroke="#000000" stroke-width="0.786" width="1.475" height="2.785"/>
	<g>
		<g>
			<defs>
				<rect id="SVGID_79_" x="-89.049" y="45.872" width="575.169" height="745.353"/>
			</defs>
			<clipPath id="SVGID_80_">
				<use xlink:href="#SVGID_79_"  overflow="visible"/>
			</clipPath>
			<circle clip-path="url(#SVGID_80_)" fill="none" stroke="#000000" stroke-width="0.524" cx="354.386" cy="235.407" r="1.198"/>
		</g>
		<g>
			<defs>
				<rect id="SVGID_81_" x="-89.049" y="45.872" width="575.169" height="745.353"/>
			</defs>
			<clipPath id="SVGID_82_">
				<use xlink:href="#SVGID_81_"  overflow="visible"/>
			</clipPath>
			<path clip-path="url(#SVGID_82_)" fill="none" stroke="#000000" stroke-width="0.655" d="M354.386,225.5
				c0.643,0,1.163,0.521,1.163,1.163s-0.521,1.164-1.163,1.164s-1.163-0.522-1.163-1.164S353.744,225.5,354.386,225.5z
				 M354.921,232.754h-1.068v-4.753h1.068V232.754z M359.618,227.891h-10.466v-2.505h10.466V227.891z"/>
		</g>
	</g>
	<rect x="343.776" y="225.002" fill="none" stroke="#000000" stroke-width="0.786" width="21.222" height="19.22"/>
	<rect x="345.417" y="227.95" fill="none" stroke="#000000" stroke-width="0.589" width="17.896" height="14.63"/>
	<g>
		<g>
			<defs>
				<rect id="SVGID_83_" x="-89.049" y="45.872" width="575.169" height="745.353"/>
			</defs>
			<clipPath id="SVGID_84_">
				<use xlink:href="#SVGID_83_"  overflow="visible"/>
			</clipPath>
			<path clip-path="url(#SVGID_84_)" fill="#FFFFFF" d="M200.001,333.958c-1.019,0-1.857,0.838-1.857,1.857v22.578
				c0,1.02,0.837,1.852,1.857,1.852h15.877c1.022,0,1.856-0.832,1.856-1.852v-22.578c0-1.021-0.834-1.857-1.856-1.857H200.001z"/>
		</g>
		<g>
			<defs>
				<rect id="SVGID_85_" x="-89.049" y="45.872" width="575.169" height="745.353"/>
			</defs>
			<clipPath id="SVGID_86_">
				<use xlink:href="#SVGID_85_"  overflow="visible"/>
			</clipPath>
			<path clip-path="url(#SVGID_86_)" fill="none" stroke="#231F20" stroke-width="0.786" d="M200.001,333.958
				c-1.019,0-1.857,0.838-1.857,1.857v22.578c0,1.02,0.837,1.852,1.857,1.852h15.877c1.022,0,1.856-0.832,1.856-1.852v-22.578
				c0-1.021-0.834-1.857-1.856-1.857H200.001z"/>
		</g>
		<g>
			<defs>
				<rect id="SVGID_87_" x="-89.049" y="45.872" width="575.169" height="745.353"/>
			</defs>
			<clipPath id="SVGID_88_">
				<use xlink:href="#SVGID_87_"  overflow="visible"/>
			</clipPath>
			<path clip-path="url(#SVGID_88_)" fill="#FFFFFF" d="M202.486,356.413c0.003,1.047,0.843,1.906,1.865,1.906h9.537
				c1.022-0.004,1.862-0.859,1.862-1.906v-18.564c0-1.045-0.842-1.898-1.862-1.898h-9.537c-1.022,0-1.865,0.854-1.865,1.898V356.413
				z"/>
		</g>
		<g>
			<defs>
				<rect id="SVGID_89_" x="-89.049" y="45.872" width="575.169" height="745.353"/>
			</defs>
			<clipPath id="SVGID_90_">
				<use xlink:href="#SVGID_89_"  overflow="visible"/>
			</clipPath>
			<path clip-path="url(#SVGID_90_)" fill="none" stroke="#231F20" stroke-width="0.589" d="M202.486,356.413
				c0.003,1.047,0.843,1.906,1.865,1.906h9.537c1.022-0.004,1.862-0.859,1.862-1.906v-18.564c0-1.045-0.842-1.898-1.862-1.898
				h-9.537c-1.022,0-1.865,0.854-1.865,1.898V356.413z"/>
		</g>
		<g>
			<defs>
				<rect id="SVGID_91_" x="-89.049" y="45.872" width="575.169" height="745.353"/>
			</defs>
			<clipPath id="SVGID_92_">
				<use xlink:href="#SVGID_91_"  overflow="visible"/>
			</clipPath>
			<path clip-path="url(#SVGID_92_)" fill="#FFFFFF" d="M209.336,345.522c-0.77,0-1.396,0.627-1.396,1.4s0.628,1.395,1.396,1.395
				c0.771,0,1.401-0.617,1.401-1.395C210.738,346.149,210.106,345.522,209.336,345.522"/>
		</g>
		<g>
			<defs>
				<rect id="SVGID_93_" x="-89.049" y="45.872" width="575.169" height="745.353"/>
			</defs>
			<clipPath id="SVGID_94_">
				<use xlink:href="#SVGID_93_"  overflow="visible"/>
			</clipPath>
			<path clip-path="url(#SVGID_94_)" fill="none" stroke="#231F20" stroke-width="0.524" d="M209.336,345.522
				c-0.77,0-1.396,0.627-1.396,1.4s0.628,1.395,1.396,1.395c0.771,0,1.401-0.617,1.401-1.395
				C210.738,346.149,210.106,345.522,209.336,345.522z"/>
		</g>
		<g>
			<defs>
				<rect id="SVGID_95_" x="-89.049" y="45.872" width="575.169" height="745.353"/>
			</defs>
			<clipPath id="SVGID_96_">
				<use xlink:href="#SVGID_95_"  overflow="visible"/>
			</clipPath>
			<path clip-path="url(#SVGID_96_)" fill="#FFFFFF" d="M200.264,341.907c-0.743,0-1.435,0.604-1.435,1.35v7.369
				c0,0.746,0.69,1.352,1.435,1.352c0.747,0,1.437-0.604,1.437-1.352v-7.369C201.699,342.51,201.011,341.907,200.264,341.907"/>
		</g>
		<g>
			<defs>
				<rect id="SVGID_97_" x="-89.049" y="45.872" width="575.169" height="745.353"/>
			</defs>
			<clipPath id="SVGID_98_">
				<use xlink:href="#SVGID_97_"  overflow="visible"/>
			</clipPath>
			<path clip-path="url(#SVGID_98_)" fill="none" stroke="#231F20" stroke-width="0.524" d="M200.264,341.907
				c-0.743,0-1.435,0.604-1.435,1.35v7.369c0,0.746,0.69,1.352,1.435,1.352c0.747,0,1.437-0.604,1.437-1.352v-7.369
				C201.699,342.51,201.011,341.907,200.264,341.907z"/>
		</g>
		<g>
			<defs>
				<rect id="SVGID_99_" x="-89.049" y="45.872" width="575.169" height="745.353"/>
			</defs>
			<clipPath id="SVGID_100_">
				<use xlink:href="#SVGID_99_"  overflow="visible"/>
			</clipPath>
			<path clip-path="url(#SVGID_100_)" fill="#FFFFFF" d="M208.104,341.417l-6.867,6.322c-0.403,0.35-1.006,0.312-1.359-0.088
				c-0.361-0.395-0.323-1.01,0.081-1.361l7.117-6.037C207.402,339.971,208.421,341.127,208.104,341.417"/>
		</g>
		<g>
			<defs>
				<rect id="SVGID_101_" x="-89.049" y="45.872" width="575.169" height="745.353"/>
			</defs>
			<clipPath id="SVGID_102_">
				<use xlink:href="#SVGID_101_"  overflow="visible"/>
			</clipPath>
			<path clip-path="url(#SVGID_102_)" fill="none" stroke="#231F20" stroke-width="0.655" d="M208.104,341.417l-6.867,6.322
				c-0.403,0.35-1.006,0.312-1.359-0.088c-0.361-0.395-0.323-1.01,0.081-1.361l7.117-6.037
				C207.402,339.971,208.421,341.127,208.104,341.417z"/>
		</g>
		<g>
			<defs>
				<rect id="SVGID_103_" x="-89.049" y="45.872" width="575.169" height="745.353"/>
			</defs>
			<clipPath id="SVGID_104_">
				<use xlink:href="#SVGID_103_"  overflow="visible"/>
			</clipPath>
			<path clip-path="url(#SVGID_104_)" fill="#FFFFFF" d="M203.659,347.743h-3.315c-0.354,0-0.646-0.289-0.646-0.65
				c0-0.352,0.293-0.637,0.646-0.637h3.315c0.36,0,0.646,0.285,0.646,0.639C204.307,347.452,204.021,347.743,203.659,347.743"/>
		</g>
		<g>
			<defs>
				<rect id="SVGID_105_" x="-89.049" y="45.872" width="575.169" height="745.353"/>
			</defs>
			<clipPath id="SVGID_106_">
				<use xlink:href="#SVGID_105_"  overflow="visible"/>
			</clipPath>
			<path clip-path="url(#SVGID_106_)" fill="none" stroke="#231F20" stroke-width="0.524" d="M203.659,347.743h-3.315
				c-0.354,0-0.646-0.289-0.646-0.65c0-0.352,0.293-0.637,0.646-0.637h3.315c0.36,0,0.646,0.285,0.646,0.639
				C204.307,347.452,204.021,347.743,203.659,347.743z"/>
		</g>
		<g>
			<defs>
				<rect id="SVGID_107_" x="-89.049" y="45.872" width="575.169" height="745.353"/>
			</defs>
			<clipPath id="SVGID_108_">
				<use xlink:href="#SVGID_107_"  overflow="visible"/>
			</clipPath>
			<path clip-path="url(#SVGID_108_)" fill="#FFFFFF" d="M200.39,349.135c-0.425,0-0.772,0.352-0.772,0.779
				c0,0.424,0.349,0.77,0.772,0.77c0.42,0,0.771-0.346,0.771-0.773C201.159,349.483,200.814,349.135,200.39,349.135"/>
		</g>
		<g>
			<defs>
				<rect id="SVGID_109_" x="-89.049" y="45.872" width="575.169" height="745.353"/>
			</defs>
			<clipPath id="SVGID_110_">
				<use xlink:href="#SVGID_109_"  overflow="visible"/>
			</clipPath>
			<path clip-path="url(#SVGID_110_)" fill="none" stroke="#231F20" stroke-width="0.458" d="M200.39,349.135
				c-0.425,0-0.772,0.352-0.772,0.779c0,0.424,0.349,0.77,0.772,0.77c0.42,0,0.771-0.346,0.771-0.773
				C201.159,349.483,200.814,349.135,200.39,349.135z"/>
		</g>
		<g>
			<defs>
				<rect id="SVGID_111_" x="-89.049" y="45.872" width="575.169" height="745.353"/>
			</defs>
			<clipPath id="SVGID_112_">
				<use xlink:href="#SVGID_111_"  overflow="visible"/>
			</clipPath>
			<path clip-path="url(#SVGID_112_)" fill="#FFFFFF" d="M200.32,343.192c-0.425,0-0.771,0.352-0.771,0.777
				c0,0.424,0.348,0.77,0.771,0.77c0.423,0,0.771-0.346,0.771-0.771C201.091,343.54,200.745,343.192,200.32,343.192"/>
		</g>
		<g>
			<defs>
				<rect id="SVGID_113_" x="-89.049" y="45.872" width="575.169" height="745.353"/>
			</defs>
			<clipPath id="SVGID_114_">
				<use xlink:href="#SVGID_113_"  overflow="visible"/>
			</clipPath>
			<path clip-path="url(#SVGID_114_)" fill="none" stroke="#231F20" stroke-width="0.458" d="M200.32,343.192
				c-0.425,0-0.771,0.352-0.771,0.777c0,0.424,0.348,0.77,0.771,0.77c0.423,0,0.771-0.346,0.771-0.771
				C201.091,343.54,200.745,343.192,200.32,343.192z"/>
		</g>
	</g>
	
		<line fill="none" stroke="#000000" stroke-width="0.655" stroke-dasharray="1.951,1.951,1.951,1.951,1.951,1.951" stroke-dashoffset="3" x1="217.27" y1="329.444" x2="198.738" y2="329.444"/>
	
		<line fill="none" stroke="#000000" stroke-width="0.655" stroke-dasharray="1.913,1.913,1.913,1.913,1.913,1.913" stroke-dashoffset="3" x1="196.788" y1="326.573" x2="196.788" y2="308.399"/>
	
		<line fill="none" stroke="#000000" stroke-width="0.655" stroke-dasharray="1.907,1.907,1.907,1.907,1.907,1.907" stroke-dashoffset="3" x1="199.648" y1="306.484" x2="217.765" y2="306.484"/>
	<path fill="none" stroke="#000000" stroke-width="0.655" d="M218.718,306.485h0.953 M196.789,307.442v-0.957h0.952
		 M197.764,329.444h-0.975v-0.957 M220.195,329.444h-0.975"/>
	<polyline fill="none" stroke="#000000" stroke-width="0.655" points="219.671,306.45 222.155,306.45 222.155,329.444 
		220.206,329.444 	"/>
	<g>
		<g>
			<defs>
				<rect id="SVGID_115_" x="-89.049" y="45.872" width="575.169" height="745.353"/>
			</defs>
			<clipPath id="SVGID_116_">
				<use xlink:href="#SVGID_115_"  overflow="visible"/>
			</clipPath>
			<path clip-path="url(#SVGID_116_)" fill="none" stroke="#231F20" stroke-width="3.93" d="M199.479,52.169h45.687 M268.417,52.169
				h45.687 M341.122,52.169h45.03 M411.533,52.169h45.032 M188.031,446.743v-59.781h4.468V262.765h-4.471l0.02-197.802l10.198-0.008
				V47.881l-21.409,0.101l-0.353,397.45h122.994"/>
		</g>
	</g>
	<path fill="none" stroke="#231F20" stroke-width="5.24" d="M275.786,437.245v8.844 M338.011,391.069v56.984 M335.392,63.473
		v103.585 M335.392,206.358v51.417 M335.392,288.725v44.521h100.869"/>
	<g>
		<g>
			<defs>
				<rect id="SVGID_117_" x="-89.049" y="45.872" width="575.169" height="745.353"/>
			</defs>
			<clipPath id="SVGID_118_">
				<use xlink:href="#SVGID_117_"  overflow="visible"/>
			</clipPath>
			<path clip-path="url(#SVGID_118_)" fill="none" stroke="#231F20" stroke-width="6.55" d="M337.356,220.062h86.46 M453.29,220.062
				h20.633"/>
		</g>
	</g>
	<path fill="none" stroke="#231F20" stroke-width="5.24" d="M400.778,300.144v33.61 M475.562,386.155h-38.974 M434.95,309.194
		v30.783 M434.95,370.762v30.084 M434.95,431.024v18.012 M404.165,308.538h61.354 M403.511,218.803v42.032 M403.511,291.569v40.549
		 M474.906,274.831H442.86"/>
	<rect x="330.479" y="190.638" fill="none" stroke="#231F20" stroke-width="0.786" width="1.965" height="47.488"/>
	<polygon fill="#BBBDBF" points="245.086,47.868 245.086,64.927 268.233,64.871 268.233,47.881 	"/>
	<g>
		<g>
			<defs>
				<rect id="SVGID_119_" x="-89.049" y="45.872" width="575.169" height="745.353"/>
			</defs>
			<clipPath id="SVGID_120_">
				<use xlink:href="#SVGID_119_"  overflow="visible"/>
			</clipPath>
			<polygon clip-path="url(#SVGID_120_)" fill="none" stroke="#231F20" stroke-width="3.93" points="245.086,47.868 245.086,64.927 
				268.233,64.871 268.233,47.881 			"/>
		</g>
	</g>
	<polygon fill="#BBBDBF" points="315.707,47.894 315.707,64.952 339.726,64.868 339.726,47.879 	"/>
	<g>
		<g>
			<defs>
				<rect id="SVGID_121_" x="-89.049" y="45.872" width="575.169" height="745.353"/>
			</defs>
			<clipPath id="SVGID_122_">
				<use xlink:href="#SVGID_121_"  overflow="visible"/>
			</clipPath>
			<polygon clip-path="url(#SVGID_122_)" fill="none" stroke="#231F20" stroke-width="3.93" points="315.707,47.894 315.707,64.952 
				339.726,64.868 339.726,47.879 			"/>
		</g>
	</g>
	<polygon fill="#BBBDBF" points="386.884,47.894 386.884,64.924 410.903,64.868 410.903,47.879 	"/>
	<g>
		<g>
			<defs>
				<rect id="SVGID_123_" x="-89.049" y="45.872" width="575.169" height="745.353"/>
			</defs>
			<clipPath id="SVGID_124_">
				<use xlink:href="#SVGID_123_"  overflow="visible"/>
			</clipPath>
			<polygon clip-path="url(#SVGID_124_)" fill="none" stroke="#231F20" stroke-width="3.93" points="386.884,47.894 386.884,64.924 
				410.903,64.868 410.903,47.879 			"/>
		</g>
		<g>
			<defs>
				<rect id="SVGID_125_" x="-89.049" y="45.872" width="575.169" height="745.353"/>
			</defs>
			<clipPath id="SVGID_126_">
				<use xlink:href="#SVGID_125_"  overflow="visible"/>
			</clipPath>
			<polyline clip-path="url(#SVGID_126_)" fill="none" stroke="#231F20" stroke-width="3.93" points="474.101,447.725 
				473.883,382.836 466.623,382.836 466.699,307.938 474.09,307.938 474.09,217 471.581,217 471.668,64.89 457.623,64.895 
				457.623,47.892 482.985,47.883 484.15,447.112 329.934,447.073 			"/>
		</g>
	</g>
	<polyline fill="none" stroke="#231F20" stroke-width="5.24" points="276.441,408.426 276.441,390.418 188.031,390.418 	"/>
	<line fill="none" stroke="#231F20" stroke-width="3.93" x1="192.499" y1="262.765" x2="227.644" y2="262.765"/>
	<rect x="403.078" y="308.758" fill="#BBBDBF" width="31.876" height="24.891"/>
	<rect x="403.078" y="308.758" fill="none" stroke="#231F20" stroke-width="3.93" width="31.876" height="24.891"/>
	
		<line fill="none" stroke="#231F20" stroke-width="3.93" stroke-dasharray="5.97,1.97,5.97,1.97,5.97,1.97" stroke-dashoffset="7" x1="191.497" y1="65.522" x2="191.497" y2="262.034"/>
	<rect x="415.989" y="50.576" fill="#FFFFFF" width="18.725" height="3.188"/>
	<rect x="415.989" y="50.576" fill="none" stroke="#000000" stroke-width="0.786" width="18.725" height="3.188"/>
	<line fill="none" stroke="#000000" stroke-width="0.786" x1="434.713" y1="52.098" x2="416.1" y2="52.098"/>
	<rect x="434.764" y="50.576" fill="#FFFFFF" width="19.216" height="3.188"/>
	<rect x="434.764" y="50.576" fill="none" stroke="#000000" stroke-width="0.786" width="19.216" height="3.188"/>
	<line fill="none" stroke="#000000" stroke-width="0.786" x1="453.979" y1="52.098" x2="434.765" y2="52.098"/>
	<rect x="343.903" y="50.576" fill="#FFFFFF" width="18.725" height="3.188"/>
	<rect x="343.903" y="50.576" fill="none" stroke="#000000" stroke-width="0.786" width="18.725" height="3.188"/>
	<line fill="none" stroke="#000000" stroke-width="0.786" x1="362.627" y1="52.098" x2="344.014" y2="52.098"/>
	<rect x="362.678" y="50.576" fill="#FFFFFF" width="19.216" height="3.188"/>
	<rect x="362.678" y="50.576" fill="none" stroke="#000000" stroke-width="0.786" width="19.216" height="3.188"/>
	<line fill="none" stroke="#000000" stroke-width="0.786" x1="381.894" y1="52.098" x2="362.679" y2="52.098"/>
	<rect x="273.368" y="50.576" fill="#FFFFFF" width="18.724" height="3.188"/>
	<rect x="273.368" y="50.576" fill="none" stroke="#000000" stroke-width="0.786" width="18.724" height="3.188"/>
	<line fill="none" stroke="#000000" stroke-width="0.786" x1="292.092" y1="52.098" x2="273.479" y2="52.098"/>
	<rect x="292.144" y="50.576" fill="#FFFFFF" width="19.215" height="3.188"/>
	<rect x="292.144" y="50.576" fill="none" stroke="#000000" stroke-width="0.786" width="19.215" height="3.188"/>
	<line fill="none" stroke="#000000" stroke-width="0.786" x1="311.358" y1="52.098" x2="292.144" y2="52.098"/>
	<rect x="203.329" y="50.576" fill="#FFFFFF" width="18.724" height="3.188"/>
	<rect x="203.329" y="50.576" fill="none" stroke="#000000" stroke-width="0.786" width="18.724" height="3.188"/>
	<line fill="none" stroke="#000000" stroke-width="0.786" x1="222.053" y1="52.098" x2="203.439" y2="52.098"/>
	<rect x="222.104" y="50.576" fill="#FFFFFF" width="19.215" height="3.188"/>
	<rect x="222.104" y="50.576" fill="none" stroke="#000000" stroke-width="0.786" width="19.215" height="3.188"/>
	<line fill="none" stroke="#000000" stroke-width="0.786" x1="241.319" y1="52.098" x2="222.104" y2="52.098"/>
</g>
<g id="Layer_3">
</g>
<g id="_x32_03">
</g>
<g>
	<g>
		<defs>
			<rect id="SVGID_127_" x="44.996" y="147.602" width="100.145" height="4.562"/>
		</defs>
		<clipPath id="SVGID_128_">
			<use xlink:href="#SVGID_127_"  overflow="visible"/>
		</clipPath>
		<path clip-path="url(#SVGID_128_)" fill="#231F20" d="M145.139,147.979v-0.302h-3.402v0.302h1.537v4.108h0.328v-4.108H145.139z
			 M139.348,152.088v-0.303h-2.842v-1.771h2.525v-0.303h-2.525v-1.732h2.811v-0.303h-3.139v4.41h3.17V152.088z M133.473,152.088
			v-0.303h-2.84v-1.771h2.525v-0.303h-2.525v-1.732h2.809v-0.303h-3.137v4.41h3.168V152.088z M127.196,148.955
			c0,0.637-0.547,1.01-1.283,1.01h-1.486v-1.985h1.506c0.799,0,1.266,0.372,1.266,0.964v0.012H127.196z M127.688,152.088
			l-1.455-1.885c0.744-0.102,1.291-0.523,1.291-1.26v-0.014c0-0.736-0.623-1.254-1.574-1.254h-1.852v4.41h0.326v-1.826h1.443
			l1.404,1.826h0.416V152.088z M121.448,147.979v-0.302h-3.4v0.302h1.539v4.108h0.326v-4.108H121.448z M115.725,150.947v-0.014
			c0-0.643-0.428-1.008-1.449-1.215c-1.045-0.215-1.285-0.498-1.285-0.965v-0.012c0-0.461,0.43-0.833,1.078-0.833
			c0.484,0,0.9,0.14,1.316,0.499l0.209-0.259c-0.449-0.36-0.871-0.536-1.514-0.536c-0.818,0-1.418,0.504-1.418,1.16v0.012
			c0,0.668,0.43,1.027,1.488,1.242c1.002,0.199,1.246,0.471,1.246,0.938v0.012c0,0.506-0.453,0.877-1.115,0.877
			c-0.648,0-1.096-0.207-1.58-0.654l-0.215,0.244c0.529,0.475,1.07,0.707,1.775,0.707
			C115.114,152.15,115.725,151.658,115.725,150.947 M104.563,152.088v-4.41h-0.312v3.836l-3.043-3.836h-0.311v4.41h0.316v-3.92
			l3.104,3.92H104.563z M97.79,149.896c0,1.088-0.781,1.971-1.871,1.971s-1.885-0.895-1.885-1.984v-0.014
			c0-1.09,0.781-1.971,1.871-1.971s1.883,0.895,1.883,1.984v0.014H97.79z M98.132,149.883c0.006-0.006,0.006-0.006,0-0.014
			c0-1.203-0.877-2.27-2.213-2.27c-1.334,0-2.225,1.078-2.225,2.281v0.014c0,1.203,0.877,2.268,2.213,2.268
			C97.241,152.162,98.132,151.086,98.132,149.883 M91.588,147.979v-0.302h-3.402v0.302h1.538v4.108h0.327v-4.108H91.588z
			 M85.789,151.502v-1.701H84v0.301h1.474v1.268c-0.321,0.271-0.844,0.504-1.405,0.504c-1.178,0-1.89-0.85-1.89-1.99v-0.014
			c0-1.062,0.75-1.971,1.821-1.971c0.668,0,1.07,0.226,1.418,0.529l0.214-0.246c-0.441-0.365-0.896-0.58-1.613-0.58
			c-1.316,0-2.18,1.09-2.18,2.281v0.014c0,1.24,0.825,2.268,2.218,2.268C84.776,152.162,85.392,151.855,85.789,151.502
			 M79.072,152.088v-4.41h-0.314v3.836l-3.043-3.836h-0.309v4.41h0.315v-3.92l3.104,3.92H79.072z M72.397,147.678h-0.328v4.41h0.328
			V147.678z M69.062,152.088v-4.41h-0.327v2.041h-2.822v-2.041h-0.327v4.41h0.327v-2.066h2.822v2.066H69.062z M62.854,150.947
			v-0.014c0-0.643-0.428-1.008-1.449-1.215c-1.045-0.215-1.284-0.498-1.284-0.965v-0.012c0-0.461,0.429-0.833,1.076-0.833
			c0.486,0,0.901,0.14,1.317,0.499l0.208-0.259c-0.447-0.36-0.869-0.536-1.512-0.536c-0.819,0-1.417,0.504-1.417,1.16v0.012
			c0,0.668,0.428,1.027,1.485,1.242c1.002,0.199,1.248,0.471,1.248,0.938v0.012c0,0.506-0.454,0.877-1.114,0.877
			c-0.649,0-1.098-0.207-1.582-0.654l-0.215,0.244c0.529,0.475,1.071,0.707,1.777,0.707
			C62.242,152.15,62.854,151.658,62.854,150.947 M56.35,150.557h-2.325l1.166-2.551L56.35,150.557z M57.408,152.088l-2.054-4.441
			H55.04l-2.054,4.441h0.341l0.56-1.236h2.602l0.562,1.236H57.408z M51.308,147.678h-0.34l-1.386,3.924l-1.292-3.938h-0.252
			l-1.291,3.938l-1.387-3.924h-0.365l1.601,4.439h0.264l1.292-3.83l1.291,3.83h0.266L51.308,147.678z"/>
	</g>
</g>
</svg>
