<svg xmlns="http://www.w3.org/2000/svg" width="513.359" height="495.36" xmlns:xlink="http://www.w3.org/1999/xlink"><g><path fill="#BBBDBF" d="M79.18 48h33.15v44.2H79.18z"/><path fill="#fff" d="M112.33 48h33.14v44.2h-33.14zM145.48 99.84V92.2h-24.65v7.64h-8.5v41.65h33.15zM79.18 99.84h-20.4v17H46.03v25.5h33.15zM78.33 99v42.5h34v-30.6H89.38V98.13zM46.03 47.14h32.3V92.2h-13.6v-6.8h-4.25V75.2H46.03z"/><defs><path id="a" d="M-89.05 45.87h575.17v745.35H-89.05z"/></defs><clipPath id="b"><use xlink:href="#a" overflow="visible"/></clipPath><path fill="none" stroke="#000" stroke-width=".425" d="M56.28 93.98c0 1.8 1.46 3.25 3.25 3.25m-3.25-3.25h3.25v-.2h-3.25v.2z" clip-path="url(#b)"/><path fill="none" stroke="#000" stroke-width=".452" d="M49.9 105.44h8.95m-12.2 1.2h12.2m-12.23 1.2h12.2m-12.16 1.2H58.9m-12.2 1.2h12.2m-12.2 1.18h12.2M46.7 112.7H58.9"/><path fill="none" stroke="#000" stroke-width=".425" d="M46.4 98.68h6.37m-6.38 1.2h6.37m-6.38 1.2h6.37m-6.38 1.2h6.37m-6.38 1.2h6.3m-6.43 1.2h5.48m-5.12.94h3.55"/><path fill="none" stroke="#000" stroke-width="1.18" d="M46.4 97.54h6.37"/><path fill="none" stroke="#000" stroke-width=".425" d="M46.9 108.2l3.68-2.7-.2-.56.93.87-.25-.63 1.77-1.07"/><path fill="none" stroke="#000" stroke-width=".452" d="M52.4 104.24h6.75"/><path fill="#fff" d="M53.14 112.94h.6V97.6h-.6v15.34zm-.3-15.73h1.18v16.14h-1.17V97.2z"/><path fill="none" stroke="#262626" stroke-width=".495" d="M53.14 112.94h.6V97.6h-.6v15.34zm-.3-15.73h1.18v16.14h-1.17V97.2z"/><defs><path id="c" d="M-89.05 45.87h575.17v745.35H-89.05z"/></defs><clipPath id="d"><use xlink:href="#c" overflow="visible"/></clipPath><path fill="none" stroke="#262626" stroke-width="2.065" stroke-miterlimit="10" d="M145.9 142.14H45.6V47.3l33.5-.02h66.8z" clip-path="url(#d)"/><path fill="none" stroke="#262626" stroke-width="1.18" stroke-miterlimit="10" d="M59.02 99.5h61.8v-7.37M49.3 85.05h11.35M49 93H59v.9m0 3.24v19.77H46.5m-.75-23.74h3.4V75.02H60.8v10.62h3.98v6.93h47.8l.05-.88h8.06l-.08-.16h25.73m-67.4 50.9V99.15m33.47 43.27V99.16m0-6.6v-44.6M78.8 92.6V47.96"/><defs><path id="e" d="M-89.05 45.87h575.17v745.35H-89.05z"/></defs><clipPath id="f"><use xlink:href="#e" overflow="visible"/></clipPath><path fill="none" stroke="#000" stroke-width=".425" d="M102.9 99.9v5m-1.2-5v5m-1.2-5v5m-1.2-5v4.9m-1.2-4.9v4.9m-1.2-4.9v4.9m-1.22-4.9v1.65m15.34 1.13c-1.8 0-3.27-1.47-3.27-3.27m3.46 3.28h-.18V99.4h.2v3.28zm-33.42-.08c-1.8 0-3.27-1.46-3.27-3.27m3.47 3.27h-.2v-3.27h.2v3.27zm35.92.07c1.8 0 3.26-1.46 3.26-3.26m-3.45 3.28h.2V99.4h-.2v3.28zM81 102.6c1.82 0 3.28-1.46 3.28-3.27m-3.45 3.27H81v-3.27h-.17v3.27zm33.68-14.65c1.82 0 3.28 1.46 3.28 3.27m-3.46-3.27h.2v3.27h-.2v-3.27zm-18.9 1.55c-1.8 0-3.27 1.46-3.27 3.27m3.46-3.27h-.17v3.27h.18V89.5zm-27.63 2.34c0-1.8-1.46-3.27-3.27-3.27m3.28 3.27H64.7v.18h3.28v-.18z" clip-path="url(#f)"/><path fill="none" stroke="#000" stroke-width="1.18" d="M104.11 99.9l.02 5"/><path fill="none" stroke="#000" stroke-width=".425" d="M94.92 99.35l.93 2.9.6-.05-1.1.7.7-.1.62 2.13"/><path fill="#fff" d="M93.1 105.64h11.36v-.6H93.1v.6zm11.65.3H92.8v-1.18h11.95v1.18z"/><path fill="none" stroke="#262626" stroke-width=".425" d="M93.1 105.64h11.36v-.6H93.1v.6zm11.65.3H92.8v-1.18h11.95v1.18z"/><path fill="none" stroke="#000" stroke-width=".425" d="M95.58 102.9v1.93m-1.2-4.92v4.93m-1.2-4.92v4.93m2.35 1.16v4.9m-1.2-4.9v4.9m-1.2-4.9v4.9m11.08-4.94v5.02m-1.2-5.02v5.02m-1.2-5.02v5.02m-1.33-5.02v5.02m-1.2-5.02v4.92m-1.2-4.92v4.92m-1.2-4.92v4.92"/><path fill="none" stroke="#262626" stroke-width="1.18" stroke-miterlimit="10" d="M88.97 99.5v11.36h23.6"/><path d="M57.08 78.19h-3.36v1.53h2.98v.94h-2.98v1.6h3.4v.93h-4.45v-5.95h4.4v.94-.02z"/><defs><path id="g" d="M-89.05 45.87h575.17v745.35H-89.05z"/></defs><clipPath><use xlink:href="#g" overflow="visible"/></clipPath><defs><path id="h" d="M-89.05 45.87h575.17v745.35H-89.05z"/></defs><clipPath id="i"><use xlink:href="#h" overflow="visible"/></clipPath><path fill="#231F20" d="M289.55 310.76l-2.93-3.73h-.5v4.65h.52v-3.8l3 3.8h.42v-4.65h-.5v3.73zm-4.52-3.73h-3.36v4.65h3.4v-.48h-2.88v-1.63h2.53v-.47h-2.54v-1.6h2.83v-.47zm-5.2 2.56v2.08h.52v-4.65h-.52v2.07h-2.7v-2.07h-.52v4.65h.54v-2.1h2.7zm-4.13 1.35l-.35-.34c-.44.43-.86.68-1.5.68-1.02 0-1.8-.85-1.8-1.93s.77-1.92 1.8-1.92c.63 0 1.07.27 1.46.64l.37-.38c-.47-.45-.97-.75-1.8-.75-1.38 0-2.37 1.08-2.37 2.4 0 1.36 1 2.4 2.34 2.4.84 0 1.37-.3 1.86-.8m-6.22-3.44h1.56v-.47h-3.65v.48h1.55v4.18h.53v-4.17zm-3.65 4.18h.52v-4.65h-.52v4.65zm-2.94-2.62l1.98-2.03h-.68l-2.67 2.78v-2.77H261v4.65h.53v-1.25l1-1 1.78 2.25h.66l-2.07-2.62z" clip-path="url(#i)"/><defs><path id="j" d="M-89.05 45.87h575.17v745.35H-89.05z"/></defs><clipPath id="k"><use xlink:href="#j" overflow="visible"/></clipPath><path fill="#231F20" d="M422.35 143.8h-.47l-.48 1.55h.3l.65-1.54zm-.95 0h-.47l-.47 1.55h.3l.64-1.54zm-2.17 2.8c0 .53-.4.96-1.02.96-.6 0-1.05-.4-1.05-.95 0-.46.42-.9 1.05-.9.6 0 1.03.37 1.03.9m.33-2.5c-.36-.3-.74-.47-1.24-.47-1.1 0-1.75 1-1.75 2.3 0 .85.2 1.3.53 1.62.27.27.64.43 1.1.43.86 0 1.5-.6 1.5-1.4 0-.8-.65-1.3-1.44-1.3-.6 0-.96.3-1.2.64 0-1.1.48-1.85 1.24-1.85.38 0 .68.15 1 .4l.26-.36zm-4.25-.3h-.46l-.47 1.55h.3l.64-1.54zm-3.13.27c.45 0 .84.3.84.8 0 .43-.22.75-.86 1.33l-1.52 1.34v.37h2.93v-.43h-2.23l1.12-1c.74-.63 1.07-1 1.07-1.63 0-.7-.53-1.2-1.3-1.2-.73 0-1.13.34-1.5.9l.34.25c.34-.48.65-.73 1.13-.73m-4.1-.04l.1.38.8-.23v3.74h.46v-4.22h-.35l-1.02.35zm-2.75 3.38l-1.13-1.5 1.08-1.43h-.4l-.88 1.2-.9-1.2h-.4l1.1 1.44-1.14 1.5h.38l.94-1.26.94 1.27h.4zm-4.98-3.6h-.47l-.48 1.55h.3l.64-1.54zm-.95 0h-.48l-.47 1.55h.3l.64-1.54zm-2.2 2c0 .94-.47 1.75-1.26 1.75s-1.3-.82-1.3-1.75.5-1.73 1.3-1.73 1.27.82 1.27 1.74m.5 0c0-1.18-.68-2.17-1.76-2.17s-1.78 1-1.78 2.18.7 2.18 1.77 2.18c1.08 0 1.78-1 1.78-2.18m-4.8-2h-.47l-.48 1.55h.3l.64-1.54zm-3.38.23l.12.38.8-.23v3.74h.46v-4.22h-.35l-1.03.35zm-2.58 0l.1.38.8-.23v3.74h.47v-4.22h-.34l-1.02.35z" clip-path="url(#k)"/><defs><path id="l" d="M-89.05 45.87h575.17v745.35H-89.05z"/></defs><clipPath id="m"><use xlink:href="#l" overflow="visible"/></clipPath><path fill="#231F20" d="M421.93 136.1v3.78h.52v-4.65h-.53l-1.7 2.54-1.7-2.54H418v4.65h.5v-3.76l1.7 2.48h.03l1.7-2.5zm-5.6 1.46c0 1.06-.75 1.92-1.8 1.92-1.07 0-1.85-.87-1.85-1.93s.76-1.92 1.83-1.92 1.84.87 1.84 1.93m.55 0c0-1.3-.96-2.4-2.38-2.4s-2.38 1.1-2.38 2.4.95 2.4 2.37 2.4c1.42 0 2.4-1.12 2.4-2.4m-6.2 0c0 1.06-.77 1.92-1.83 1.92-1.07 0-1.84-.87-1.84-1.93s.76-1.92 1.82-1.92c1.07 0 1.84.87 1.84 1.93m.53 0c0-1.3-.95-2.4-2.36-2.4-1.42 0-2.4 1.1-2.4 2.4s.97 2.4 2.38 2.4c1.42 0 2.38-1.12 2.38-2.4m-6.2-.92c0 .6-.5.96-1.2.96h-1.42v-1.9h1.45c.75 0 1.18.36 1.18.94m.7 3.24l-1.43-1.9c.73-.13 1.27-.6 1.27-1.36 0-.84-.66-1.4-1.68-1.4h-2.02v4.66h.53v-1.8h1.34l1.35 1.8h.63zm-5.5-2.32c0 1.04-.75 1.84-1.93 1.84h-1.1v-3.7h1.1c1.18 0 1.93.82 1.93 1.86m.54 0c0-1.33-1-2.33-2.47-2.33h-1.62v4.65h1.62c1.46 0 2.47-1.02 2.47-2.33m-5.18-2.32h-3.37v4.65h3.4v-.48h-2.88v-1.63h2.54v-.48h-2.55v-1.6h2.84v-.47zm-6.1 4.18h-1.55v-1.63h1.47c.8 0 1.23.3 1.23.8 0 .53-.44.84-1.14.84m-.18-2.1h-1.37v-1.6h1.4c.68 0 1.04.3 1.04.76 0 .55-.45.84-1.08.84m.1-2.07h-2v4.65h2.08c1 0 1.68-.47 1.68-1.28 0-.64-.44-.96-1-1.13.37-.16.74-.47.74-1.08 0-.72-.6-1.17-1.5-1.17" clip-path="url(#m)"/><defs><path id="n" d="M-89.05 45.87h575.17v745.35H-89.05z"/></defs><clipPath id="o"><use xlink:href="#n" overflow="visible"/></clipPath><path fill="#231F20" d="M445.87 427.52v1.56h.48v-3.66h-.48V427h-4.17v.52h4.17zm.48-2.85v-3.37h-4.65v3.4h.48v-2.87h1.63v2.54h.5v-2.54h1.57v2.84h.48zm-1.16-7.22c.42 0 .75.4.75 1 0 .47-.15.9-.5 1.34l.4.3c.38-.48.57-.96.57-1.64 0-.9-.53-1.53-1.28-1.53-.77 0-1.1.5-1.35 1.56-.2.97-.46 1.2-.9 1.2-.47 0-.8-.4-.8-1.04s.22-1.1.66-1.6l-.4-.32c-.5.56-.73 1.17-.73 1.9 0 .93.52 1.6 1.32 1.6.72 0 1.1-.5 1.32-1.53.23-1 .47-1.25.92-1.25m-1.18-2.03c-1.06 0-1.92-.76-1.92-1.82s.87-1.83 1.93-1.83c1.07 0 1.92.76 1.92 1.82 0 1.05-.87 1.82-1.93 1.82m0 .55c1.3 0 2.4-.95 2.4-2.37s-1.1-2.38-2.4-2.38c-1.3 0-2.4.95-2.4 2.37 0 1.4 1.12 2.37 2.4 2.37m-2.32-8.4v3.15h.48v-2.62h4.17v-.52h-4.65zm.74-.9l.34-.36c-.43-.43-.67-.85-.67-1.5 0-1 .85-1.8 1.93-1.8s1.92.78 1.92 1.8c0 .64-.27 1.08-.64 1.47l.4.36c.43-.46.73-.97.73-1.8 0-1.38-1.08-2.37-2.4-2.37-1.35 0-2.4 1-2.4 2.34 0 .84.3 1.37.8 1.86" clip-path="url(#o)"/><defs><path id="p" d="M-89.05 45.87h575.17v745.35H-89.05z"/></defs><clipPath id="q"><use xlink:href="#p" overflow="visible"/></clipPath><path fill="#231F20" d="M445.8 245.15h1.56v-.48h-3.66v.48h1.56v4.17h.53v-4.17zm-2.86-.48h-3.36v4.65h3.4v-.48h-2.88v-1.63h2.54v-.46h-2.54v-1.6h2.84v-.47zm-7.2 1.16c0-.42.37-.76.98-.76.48 0 .9.16 1.34.5l.3-.4c-.47-.38-.95-.57-1.63-.57-.88 0-1.53.53-1.53 1.28 0 .77.5 1.12 1.56 1.35.98.2 1.22.45 1.22.9 0 .46-.42.8-1.04.8-.65 0-1.1-.23-1.6-.67l-.32.4c.56.48 1.16.73 1.9.73.92 0 1.6-.53 1.6-1.33 0-.72-.5-1.1-1.53-1.33-1.03-.22-1.27-.46-1.27-.9M433.7 247c0 1.07-.76 1.92-1.82 1.92-1.07 0-1.84-.86-1.84-1.93 0-1.07.76-1.92 1.82-1.92 1.07 0 1.84.86 1.84 1.92m.54 0c0-1.3-.95-2.4-2.36-2.4-1.42 0-2.4 1.1-2.4 2.4 0 1.3.97 2.4 2.38 2.4 1.42 0 2.38-1.12 2.38-2.4m-8.4 2.32H429v-.48h-2.62v-4.17h-.53v4.65zm-.9-.74l-.35-.33c-.46.42-.88.67-1.52.67-1.02 0-1.8-.85-1.8-1.93s.77-1.93 1.8-1.93c.64 0 1.08.27 1.47.64l.36-.37c-.46-.44-.96-.74-1.8-.74-1.38 0-2.36 1.07-2.36 2.4 0 1.35 1 2.4 2.33 2.4.85 0 1.38-.32 1.86-.82" clip-path="url(#q)"/><defs><path id="r" d="M-89.05 45.87h575.17v745.35H-89.05z"/></defs><clipPath id="s"><use xlink:href="#r" overflow="visible"/></clipPath><path fill="#231F20" d="M242.4 420l1.92-2.8h-.6l-1.6 2.32-1.56-2.33h-.64l1.94 2.8v1.84h.53V420zm-3.5-1.4c0 .6-.5.96-1.2.96h-1.42v-1.9h1.44c.75 0 1.2.36 1.2.94m.7 3.24l-1.44-1.9c.73-.13 1.26-.58 1.26-1.36 0-.84-.66-1.4-1.68-1.4h-2v4.66h.52v-1.8h1.33l1.36 1.8h.65zm-6.4-4.17h1.55v-.48h-3.65v.47h1.56v4.17h.53v-4.17zm-3.6 3.25l-2.94-3.73h-.5v4.64h.53v-3.8l3 3.8h.43v-4.65h-.5v3.72zm-5.66-.78h-2.12l1.06-2.37 1.06 2.37zm-.8-3h-.5l-2.12 4.7h.54l.55-1.23h2.54l.54 1.24h.58l-2.13-4.7zm-3.24 1.55c0 .6-.5 1.02-1.28 1.02h-1.15v-2.05h1.17c.75 0 1.25.35 1.25 1.02m.53-.03c0-.92-.7-1.48-1.74-1.48h-1.73v4.64h.52v-1.64h1.12c1 0 1.83-.52 1.83-1.53" clip-path="url(#s)"/><defs><path id="t" d="M-89.05 45.87h575.17v745.35H-89.05z"/></defs><clipPath id="u"><use xlink:href="#t" overflow="visible"/></clipPath><path fill="#231F20" d="M387.05 272.75v2.1h.53v-4.66h-.53v2.06h-2.7v-2.07h-.5v4.65h.5v-2.1h2.7zm-5.76-2.08h1.55v-.48h-3.66v.47h1.56v4.17h.53v-4.17zm-3.4 2.47h-2.13l1.07-2.37 1.06 2.37zm-.8-3h-.5l-2.12 4.7h.53l.57-1.23h2.53l.55 1.24h.56l-2.1-4.7zm-4.95 4.23h-1.56v-1.64h1.46c.82 0 1.24.3 1.24.8 0 .53-.44.84-1.15.84m-.18-2.1h-1.38v-1.6h1.4c.67 0 1.04.3 1.04.76 0 .55-.44.83-1.07.83m.08-2.07h-1.98v4.64h2.07c1.02 0 1.7-.47 1.7-1.27 0-.65-.45-.97-1-1.13.36-.16.73-.48.73-1.1 0-.7-.6-1.15-1.5-1.15" clip-path="url(#u)"/><defs><path id="v" d="M-89.05 45.87h575.17v745.35H-89.05z"/></defs><clipPath id="w"><use xlink:href="#v" overflow="visible"/></clipPath><path fill="#231F20" d="M461.42 357.77h-.87v1h.87v-1zm-2.8-1.1v2.1h.54v-4.66h-.53v2.08h-2.68v-2.07h-.53v4.66h.53v-2.1h2.7zm-4.12 1.36l-.34-.34c-.45.4-.87.66-1.5.66-1.03 0-1.8-.85-1.8-1.93s.76-1.92 1.8-1.92c.63 0 1.06.28 1.46.65l.36-.38c-.47-.44-.97-.74-1.82-.74-1.37 0-2.35 1.08-2.35 2.4 0 1.36 1 2.4 2.34 2.4.85 0 1.38-.3 1.87-.8m-5.07-3.92h-3.37v4.66h3.4v-.48h-2.87v-1.63h2.53v-.47h-2.54v-1.6h2.83v-.47zm-5.2.9v3.76h.5v-4.65h-.52l-1.68 2.55-1.7-2.54h-.53v4.66h.5V355l1.7 2.5h.02l1.7-2.5z" clip-path="url(#w)"/><defs><path id="x" d="M-89.05 45.87h575.17v745.35H-89.05z"/></defs><clipPath id="y"><use xlink:href="#x" overflow="visible"/></clipPath><path fill="#231F20" d="M462.12 297.5c-1.03 0-1.83-.75-1.83-1.93v-1.1h3.67v1.1c0 1.18-.8 1.93-1.85 1.93m.02.55c1.3 0 2.32-1 2.32-2.48v-1.6h-4.66v1.6c0 1.47 1.02 2.48 2.34 2.48m-2.34-5.47h1v-.88h-1v.88zm.78-5.82l3.88-1.33v-.57l-4.7 1.66v.44l3.78 1.28-3.77 1.28v.44l4.7 1.67v-.56l-3.9-1.33 3.9-1.27v-.43l-3.9-1.28z" clip-path="url(#y)"/><defs><path id="z" d="M-89.05 45.87h575.17v745.35H-89.05z"/></defs><clipPath id="A"><use xlink:href="#z" overflow="visible"/></clipPath><path fill="#231F20" d="M272.7 144.77v3.77h.52v-4.65h-.54l-1.7 2.53-1.7-2.54h-.52v4.64h.5v-3.76l1.7 2.5h.04l1.7-2.5zm-5.6 1.45c0 1.07-.75 1.92-1.82 1.92s-1.83-.87-1.83-1.93c0-1.05.76-1.9 1.82-1.9s1.83.86 1.83 1.92m.55 0c0-1.3-.95-2.4-2.37-2.4-1.4 0-2.38 1.1-2.38 2.4s.95 2.4 2.37 2.4c1.42 0 2.38-1.12 2.38-2.4m-6.2 0c0 1.07-.76 1.92-1.82 1.92s-1.83-.87-1.83-1.93c0-1.05.75-1.9 1.82-1.9 1.06 0 1.83.86 1.83 1.92m.55 0c0-1.3-.95-2.4-2.37-2.4s-2.38 1.1-2.38 2.4.95 2.4 2.37 2.4c1.4 0 2.38-1.12 2.38-2.4m-6.2-.92c0 .6-.5.96-1.2.96h-1.43v-1.9h1.44c.76 0 1.2.36 1.2.94m.7 3.24l-1.43-1.9c.73-.13 1.26-.58 1.26-1.36 0-.84-.66-1.4-1.68-1.4h-2v4.66h.52v-1.8h1.33l1.35 1.8h.65z" clip-path="url(#A)"/><defs><path id="B" d="M-89.05 45.87h575.17v745.35H-89.05z"/></defs><clipPath id="C"><use xlink:href="#B" overflow="visible"/></clipPath><path fill="#231F20" d="M288.52 139.4v-1.84h-1.92v.47h1.4v1.16c-.3.25-.8.45-1.33.45-1.13 0-1.84-.82-1.84-1.94 0-1.03.73-1.9 1.77-1.9.65 0 1.05.2 1.4.53l.35-.4c-.46-.4-.95-.62-1.73-.62-1.4 0-2.34 1.14-2.34 2.42 0 1.34.9 2.4 2.37 2.4.78 0 1.44-.32 1.87-.7m-5.86-.3l-2.94-3.73h-.5v4.64h.53v-3.8l3 3.8h.42v-4.65h-.5v3.72zm-5.3.92h.5v-4.65h-.5v4.64zm-3.2-.64l-1.66-4h-.6l2.02 4.68h.46l2-4.7h-.56l-1.67 4.02zm-3.74.64h.53v-4.65h-.53v4.64zm-4.16 0h3.15v-.48h-2.6v-4.17h-.54v4.64zm-2.33-1h-.87v1h.87v-1zm-2.84.37v-1.84h-1.93v.47h1.4v1.16c-.3.25-.8.45-1.33.45-1.13 0-1.85-.82-1.85-1.94 0-1.03.73-1.9 1.77-1.9.65 0 1.05.2 1.4.53l.35-.4c-.47-.4-.95-.62-1.74-.62-1.4 0-2.33 1.14-2.33 2.42 0 1.34.9 2.4 2.37 2.4.78 0 1.43-.32 1.87-.7m-5.87-.3l-2.93-3.73h-.5v4.64h.52v-3.8l3 3.8h.42v-4.65h-.5v3.72zm-5.3.92h.5v-4.65h-.5v4.64zm-1.9-.92l-2.92-3.73h-.5v4.64h.53v-3.8l3 3.8h.42v-4.65h-.5v3.72zm-5.3.92h.52v-4.65h-.52v4.64zm-1.7-2.32c0 1.04-.76 1.84-1.94 1.84H238v-3.7h1.1c1.17 0 1.92.82 1.92 1.86m.55 0c0-1.33-1-2.33-2.48-2.33h-1.62v4.64h1.6c1.48 0 2.5-1 2.5-2.33" clip-path="url(#C)"/><defs><path id="D" d="M-89.05 45.87h575.17v745.35H-89.05z"/></defs><clipPath id="E"><use xlink:href="#D" overflow="visible"/></clipPath><path fill="#231F20" d="M216.6 280.8h-3.35v4.64h.52v-2.02h2.52v-.48h-2.53v-1.67h2.82v-.48zm-4.45 0h-3.36v4.64h3.4v-.48h-2.9v-1.63h2.55v-.47h-2.54v-1.6h2.85v-.47zm-5.02 1.4c0 .6-.5.96-1.2.96h-1.42v-1.9h1.44c.75 0 1.2.36 1.2.94m.7 3.24l-1.44-1.9c.73-.13 1.27-.58 1.27-1.36 0-.84-.66-1.4-1.7-1.4h-2v4.66h.53v-1.8h1.33l1.35 1.8h.65z" clip-path="url(#E)"/><defs><path id="F" d="M-89.05 45.87h575.17v745.35H-89.05z"/></defs><clipPath id="G"><use xlink:href="#F" overflow="visible"/></clipPath><path fill="#231F20" d="M210.14 320.46l-1.33-3.87h-.56l1.66 4.68h.44l1.28-3.78 1.27 3.78h.44l1.66-4.7h-.55l-1.33 3.88-1.28-3.9h-.43l-1.26 3.9zm-2.96-1.54c0 1.04-.75 1.84-1.93 1.84h-1.1v-3.7h1.1c1.18 0 1.93.82 1.93 1.86m.54 0c0-1.33-1-2.33-2.47-2.33h-1.62v4.64h1.62c1.46 0 2.47-1 2.47-2.33" clip-path="url(#G)"/><path fill="#BBBDBF" d="M402.86 308.87h31.1v23.25h-31.1zM177.6 47.83l21.08-.05v17.08h-10.2v199.72h4.46v122.28h-4.47v59.88L176 446.3zM457.66 48.07v17.46h13.53v153.7h2.18v87.78h-7.43v78.6h6.56v61.58h10.92l-.44-399.1z"/><path fill="#fff" d="M338.04 300.42h59.86v30.95h-59.86z"/><path fill="none" stroke="#000" stroke-width=".786" d="M338.04 300.42h59.86v30.95h-59.86z"/><defs><path id="H" d="M-89.05 45.87h575.17v745.35H-89.05z"/></defs><clipPath id="I"><use xlink:href="#H" overflow="visible"/></clipPath><path fill="#fff" d="M384.26 317.02c-.7 0-1.27-.57-1.27-1.27 0-.7.56-1.27 1.26-1.27s1.27.56 1.27 1.27c0 .7-.57 1.27-1.27 1.27" clip-path="url(#I)"/><defs><path id="J" d="M-89.05 45.87h575.17v745.35H-89.05z"/></defs><clipPath id="K"><use xlink:href="#J" overflow="visible"/></clipPath><circle cx="384.261" cy="315.748" r="1.271" fill="none" stroke="#231F20" stroke-width=".655" clip-path="url(#K)"/><defs><path id="L" d="M-89.05 45.87h575.17v745.35H-89.05z"/></defs><clipPath id="M"><use xlink:href="#L" overflow="visible"/></clipPath><path fill="#fff" d="M341.46 315.8c0 8.87 2.05 12.12 4.92 12.12h43.72c.7 0 2.15-.2 2.15-2.05V305.7c0-1.85-1.45-2.04-2.15-2.04H346.38c-2.87 0-4.92 3.32-4.92 12.14" clip-path="url(#M)"/><defs><path id="N" d="M-89.05 45.87h575.17v745.35H-89.05z"/></defs><clipPath id="O"><use xlink:href="#N" overflow="visible"/></clipPath><path fill="none" stroke="#000" stroke-width=".655" d="M341.46 315.8c0 8.87 2.05 12.12 4.92 12.12h43.72c.7 0 2.15-.2 2.15-2.05V305.7c0-1.85-1.45-2.04-2.15-2.04H346.38c-2.87 0-4.92 3.32-4.92 12.14z" clip-path="url(#O)"/><defs><path id="P" d="M-89.05 45.87h575.17v745.35H-89.05z"/></defs><clipPath id="Q"><use xlink:href="#P" overflow="visible"/></clipPath><path fill="#fff" d="M394.48 318.4c-.72 0-1.3.6-1.3 1.3 0 .72.58 1.3 1.3 1.3.7 0 1.3-.58 1.3-1.3 0-.7-.58-1.3-1.3-1.3" clip-path="url(#Q)"/><defs><path id="R" d="M-89.05 45.87h575.17v745.35H-89.05z"/></defs><clipPath id="S"><use xlink:href="#R" overflow="visible"/></clipPath><path fill="none" stroke="#231F20" stroke-width=".589" d="M394.48 318.4c-.72 0-1.3.6-1.3 1.3 0 .72.58 1.3 1.3 1.3.7 0 1.3-.58 1.3-1.3 0-.7-.58-1.3-1.3-1.3z" clip-path="url(#S)"/><defs><path id="T" d="M-89.05 45.87h575.17v745.35H-89.05z"/></defs><clipPath id="U"><use xlink:href="#T" overflow="visible"/></clipPath><path fill="#fff" d="M394.48 310.36c-.72 0-1.3.6-1.3 1.3 0 .7.58 1.3 1.3 1.3.7 0 1.3-.6 1.3-1.3 0-.72-.6-1.3-1.3-1.3" clip-path="url(#U)"/><defs><path id="V" d="M-89.05 45.87h575.17v745.35H-89.05z"/></defs><clipPath id="W"><use xlink:href="#V" overflow="visible"/></clipPath><path fill="none" stroke="#231F20" stroke-width=".589" d="M394.48 310.36c-.72 0-1.3.6-1.3 1.3 0 .7.58 1.3 1.3 1.3.7 0 1.3-.6 1.3-1.3 0-.72-.6-1.3-1.3-1.3z" clip-path="url(#W)"/><defs><path id="X" d="M-89.05 45.87h575.17v745.35H-89.05z"/></defs><clipPath id="Y"><use xlink:href="#X" overflow="visible"/></clipPath><path fill="#fff" d="M394.86 317.5c1.06 0 1.92-.72 1.93-1.8-.02-1.05-.88-1.63-1.94-1.63l-7.33.68c-.72 0-.72 1.94 0 1.94l7.33.8z" clip-path="url(#Y)"/><defs><path id="Z" d="M-89.05 45.87h575.17v745.35H-89.05z"/></defs><clipPath id="aa"><use xlink:href="#Z" overflow="visible"/></clipPath><path fill="none" stroke="#231F20" stroke-width=".589" d="M394.86 317.5c1.06 0 1.92-.72 1.93-1.8-.02-1.05-.88-1.63-1.94-1.63l-7.33.68c-.72 0-.72 1.94 0 1.94l7.33.8z" clip-path="url(#aa)"/><defs><path id="ab" d="M-89.05 45.87h575.17v745.35H-89.05z"/></defs><clipPath id="ac"><use xlink:href="#ab" overflow="visible"/></clipPath><path fill="none" stroke="#000" stroke-width=".982" d="M407.66 429.64c0-16.03 13-29.04 29.04-29.04m-29.06 29.04h29.06v1.68h-29.06v-1.68zm-79.12-11.5c-16.04 0-29.04 13-29.04 29.04m30.7-29.06h-1.66v29.06h1.67v-29.06zm101.28-128.4c0-16.05-13-29.05-29.04-29.05m29.06 29.04h-29.06v1.68h29.06v-1.67zm-68.14-3.06c0-16.04-13-29.04-29.04-29.04m29.06 29.04H334.3v1.67h29.06v-1.66z" clip-path="url(#ac)"/><defs><path id="ad" d="M-89.05 45.87h575.17v745.35H-89.05z"/></defs><clipPath id="ae"><use xlink:href="#ad" overflow="visible"/></clipPath><path fill="#fff" d="M377.4 239.37c0 5.85 3.56 12.3 7.94 12.3 4.38 0 7.93-6.45 7.93-12.3 0-5.84-3.55-8.9-7.93-8.9-4.38.02-7.93 3.06-7.93 8.9" clip-path="url(#ae)"/><defs><path id="af" d="M-89.05 45.87h575.17v745.35H-89.05z"/></defs><clipPath id="ag"><use xlink:href="#af" overflow="visible"/></clipPath><path fill="none" stroke="#000" stroke-width=".786" d="M377.4 239.37c0 5.85 3.56 12.3 7.94 12.3 4.38 0 7.93-6.45 7.93-12.3 0-5.84-3.55-8.9-7.93-8.9-4.38.02-7.93 3.06-7.93 8.9z" clip-path="url(#ag)"/><defs><path id="ah" d="M-89.05 45.87h575.17v745.35H-89.05z"/></defs><clipPath id="ai"><use xlink:href="#ah" overflow="visible"/></clipPath><path fill="#fff" d="M390.08 232.4c0 .33.27.6.6.6h2.78c.32 0 .6-.27.6-.6v-.1c0-.33-.28-.6-.6-.6h-2.78c-.33 0-.6.27-.6.6v.1z" clip-path="url(#ai)"/><defs><path id="aj" d="M-89.05 45.87h575.17v745.35H-89.05z"/></defs><clipPath id="ak"><use xlink:href="#aj" overflow="visible"/></clipPath><path fill="none" stroke="#231F20" stroke-width=".786" d="M390.08 232.4c0 .33.27.6.6.6h2.78c.32 0 .6-.27.6-.6v-.1c0-.33-.28-.6-.6-.6h-2.78c-.33 0-.6.27-.6.6v.1z" clip-path="url(#ak)"/><defs><path id="al" d="M-89.05 45.87h575.17v745.35H-89.05z"/></defs><clipPath id="am"><use xlink:href="#al" overflow="visible"/></clipPath><path fill="#fff" d="M394.47 231.7c1 0 1.8-2.7 1.8-3.7s-.8-3.7-1.8-3.7h-18.1c-1 0-1.8 2.7-1.8 3.7s.8 3.7 1.8 3.7h18.1z" clip-path="url(#am)"/><defs><path id="an" d="M-89.05 45.87h575.17v745.35H-89.05z"/></defs><clipPath id="ao"><use xlink:href="#an" overflow="visible"/></clipPath><path fill="none" stroke="#000" stroke-width=".786" d="M394.47 231.7c1 0 1.8-2.7 1.8-3.7s-.8-3.7-1.8-3.7h-18.1c-1 0-1.8 2.7-1.8 3.7s.8 3.7 1.8 3.7h18.1z" clip-path="url(#ao)"/><defs><path id="ap" d="M-89.05 45.87h575.17v745.35H-89.05z"/></defs><clipPath id="aq"><use xlink:href="#ap" overflow="visible"/></clipPath><path fill="#fff" d="M379.5 239.62c0 4.3 2.62 9.03 5.84 9.03 3.22 0 5.82-4.74 5.82-9.03 0-4.3-2.6-6.53-5.82-6.53s-5.83 2.22-5.83 6.52" clip-path="url(#aq)"/><defs><path id="ar" d="M-89.05 45.87h575.17v745.35H-89.05z"/></defs><clipPath id="as"><use xlink:href="#ar" overflow="visible"/></clipPath><path fill="none" stroke="#000" stroke-width=".655" d="M379.5 239.62c0 4.3 2.62 9.03 5.84 9.03 3.22 0 5.82-4.74 5.82-9.03 0-4.3-2.6-6.53-5.82-6.53s-5.83 2.22-5.83 6.52z" clip-path="url(#as)"/><path fill="none" stroke="#000" stroke-width=".786" d="M453.54 278.1v26.63m0-5.2h-3.7l-.86-3.2v-9.77l.86-3.24h3.7m17.04 21.4h-24.3V278.3h24.3v26.45zM337.37 246.1h31.43V221.4"/><path fill="#fff" d="M451.94 279.57v2.14l1.5.48v-3.08z"/><path fill="none" stroke="#231F20" stroke-width=".786" d="M451.94 279.57v2.14l1.5.48v-3.08zM278.57 391.07V362.4H220.1V302h-25.53"/><path fill="none" stroke="#000" stroke-width=".786" d="M236.93 360.94l.08 25.88 30.46.05-.1-25.87z"/><path fill="none" stroke="#000" stroke-width=".393" d="M267.5 384.56H237"/><defs><path id="at" d="M-89.05 45.87h575.17v745.35H-89.05z"/></defs><clipPath id="au"><use xlink:href="#at" overflow="visible"/></clipPath><path fill="none" stroke="#231F20" stroke-width=".655" d="M246.42 364.53c-2.18 0-3.94 1.8-3.92 3.98 0 2.2 1.8 3.96 3.98 3.94 2.18-.02 3.95-1.8 3.93-4 0-2.17-1.8-3.93-3.98-3.9zm11.87-.1c-2.2.02-3.96 1.8-3.94 4 0 2.18 1.8 3.94 3.98 3.92 2.2 0 3.95-1.8 3.93-4 0-2.17-1.8-3.93-3.98-3.9zm-11.8 10.86c-2.2 0-3.94 1.8-3.93 3.98.02 2.2 1.8 3.95 4 3.93 2.17 0 3.93-1.8 3.92-3.97-.02-2.2-1.8-3.95-4-3.94zm11.87-.1c-2.2.02-3.95 1.82-3.93 4 .02 2.2 1.8 3.94 3.98 3.93 2.2-.02 3.95-1.8 3.93-4 0-2.17-1.8-3.94-3.98-3.92z" clip-path="url(#au)"/><defs><path id="av" d="M-89.05 45.87h575.17v745.35H-89.05z"/></defs><clipPath id="aw"><use xlink:href="#av" overflow="visible"/></clipPath><path fill="none" stroke="#231F20" stroke-width=".786" d="M457.22 46.32H408.1m-22.27-.02h-45.85m-95.63-.03h-46.18m115.6.08h-44.2m142.78 16.47h44.22m-70.74-.33h-45.2m-70.74.32h45.2m-116.93-.33h45.2m-5.5 297.34h28.4v1.2h-28.4v-1.2z" clip-path="url(#aw)"/><path fill="none" stroke="#231F20" stroke-width=".786" stroke-dashoffset="3" d="M453.78 386.48v60.6" stroke-dasharray="1.954,1.954,1.954,1.954,1.954,1.954"/><path fill="none" stroke="#231F20" stroke-width=".786" d="M459.4 221v52.82m-8.5 112.77v60.47"/><path fill="none" stroke="#231F20" stroke-width=".786" stroke-dashoffset="4" d="M461.3 221.26V274" stroke-dasharray="2.109,2.109,2.109,2.109,2.109,2.109"/><defs><path id="ax" d="M-89.05 45.87h575.17v745.35H-89.05z"/></defs><clipPath id="ay"><use xlink:href="#ax" overflow="visible"/></clipPath><path fill="none" stroke="#000" stroke-width=".982" d="M296.98 418.32c-5.52-6.73-13.44-10.34-21.5-10.6m22.58 11.88l-1.06-1.3-22.47 18.44 1.06 1.3 22.46-18.44zm138.56-39.34h-3.02v-44.54h3.02v44.54z" clip-path="url(#ay)"/><path fill="none" stroke="#000" stroke-width=".655" d="M223.56 265.07v36.02"/><path fill="none" stroke="#000" stroke-width=".786" d="M225.7 277.87h1.48v2.78h-1.47zM195.4 265.3h30.28v35.5h-30.3zM225.7 286.63h1.48v2.78h-1.47z"/><defs><path id="az" d="M-89.05 45.87h575.17v745.35H-89.05z"/></defs><clipPath id="aA"><use xlink:href="#az" overflow="visible"/></clipPath><circle cx="354.386" cy="235.407" r="1.198" fill="none" stroke="#000" stroke-width=".524" clip-path="url(#aA)"/><defs><path id="aB" d="M-89.05 45.87h575.17v745.35H-89.05z"/></defs><clipPath id="aC"><use xlink:href="#aB" overflow="visible"/></clipPath><path fill="none" stroke="#000" stroke-width=".655" d="M354.4 225.5c.63 0 1.15.52 1.15 1.16s-.52 1.17-1.16 1.17-1.18-.53-1.18-1.17.52-1.16 1.17-1.16zm.52 7.25h-1.07V228h1.07v4.75zm4.7-4.86h-10.47v-2.5h10.47v2.5z" clip-path="url(#aC)"/><path fill="none" stroke="#000" stroke-width=".786" d="M343.78 225H365v19.22h-21.22z"/><path fill="none" stroke="#000" stroke-width=".589" d="M345.42 227.95h17.9v14.63h-17.9z"/><defs><path id="aD" d="M-89.05 45.87h575.17v745.35H-89.05z"/></defs><clipPath id="aE"><use xlink:href="#aD" overflow="visible"/></clipPath><path fill="#fff" d="M200 333.96c-1.02 0-1.86.84-1.86 1.86v22.57c0 1 .84 1.85 1.86 1.85h15.88c1.02 0 1.85-.84 1.85-1.86V335.8c0-1.03-.83-1.86-1.85-1.86H200z" clip-path="url(#aE)"/><defs><path id="aF" d="M-89.05 45.87h575.17v745.35H-89.05z"/></defs><clipPath id="aG"><use xlink:href="#aF" overflow="visible"/></clipPath><path fill="none" stroke="#231F20" stroke-width=".786" d="M200 333.96c-1.02 0-1.86.84-1.86 1.86v22.57c0 1 .84 1.85 1.86 1.85h15.88c1.02 0 1.85-.84 1.85-1.86V335.8c0-1.03-.83-1.86-1.85-1.86H200z" clip-path="url(#aG)"/><defs><path id="aH" d="M-89.05 45.87h575.17v745.35H-89.05z"/></defs><clipPath id="aI"><use xlink:href="#aH" overflow="visible"/></clipPath><path fill="#fff" d="M202.5 356.4c0 1.06.83 1.92 1.85 1.92h9.54c1 0 1.85-.86 1.85-1.9v-18.57c0-1.05-.84-1.9-1.86-1.9h-9.55c-1.02 0-1.86.85-1.86 1.9v18.56z" clip-path="url(#aI)"/><defs><path id="aJ" d="M-89.05 45.87h575.17v745.35H-89.05z"/></defs><clipPath id="aK"><use xlink:href="#aJ" overflow="visible"/></clipPath><path fill="none" stroke="#231F20" stroke-width=".589" d="M202.5 356.4c0 1.06.83 1.92 1.85 1.92h9.54c1 0 1.85-.86 1.85-1.9v-18.57c0-1.05-.84-1.9-1.86-1.9h-9.55c-1.02 0-1.86.85-1.86 1.9v18.56z" clip-path="url(#aK)"/><defs><path id="aL" d="M-89.05 45.87h575.17v745.35H-89.05z"/></defs><clipPath id="aM"><use xlink:href="#aL" overflow="visible"/></clipPath><path fill="#fff" d="M209.34 345.52c-.77 0-1.4.63-1.4 1.4s.63 1.4 1.4 1.4c.77 0 1.4-.62 1.4-1.4 0-.77-.63-1.4-1.4-1.4" clip-path="url(#aM)"/><defs><path id="aN" d="M-89.05 45.87h575.17v745.35H-89.05z"/></defs><clipPath id="aO"><use xlink:href="#aN" overflow="visible"/></clipPath><path fill="none" stroke="#231F20" stroke-width=".524" d="M209.34 345.52c-.77 0-1.4.63-1.4 1.4s.63 1.4 1.4 1.4c.77 0 1.4-.62 1.4-1.4 0-.77-.63-1.4-1.4-1.4z" clip-path="url(#aO)"/><defs><path id="aP" d="M-89.05 45.87h575.17v745.35H-89.05z"/></defs><clipPath id="aQ"><use xlink:href="#aP" overflow="visible"/></clipPath><path fill="#fff" d="M200.26 341.9c-.74 0-1.43.6-1.43 1.36v7.37c0 .74.7 1.35 1.43 1.35.75 0 1.44-.6 1.44-1.35v-7.37c0-.75-.7-1.35-1.44-1.35" clip-path="url(#aQ)"/><defs><path id="aR" d="M-89.05 45.87h575.17v745.35H-89.05z"/></defs><clipPath id="aS"><use xlink:href="#aR" overflow="visible"/></clipPath><path fill="none" stroke="#231F20" stroke-width=".524" d="M200.26 341.9c-.74 0-1.43.6-1.43 1.36v7.37c0 .74.7 1.35 1.43 1.35.75 0 1.44-.6 1.44-1.35v-7.37c0-.75-.7-1.35-1.44-1.35z" clip-path="url(#aS)"/><defs><path id="aT" d="M-89.05 45.87h575.17v745.35H-89.05z"/></defs><clipPath id="aU"><use xlink:href="#aT" overflow="visible"/></clipPath><path fill="#fff" d="M208.1 341.42l-6.86 6.32c-.4.35-1 .3-1.36-.1-.36-.38-.32-1 .08-1.35l7.12-6.05c.32-.28 1.34.88 1.02 1.17" clip-path="url(#aU)"/><defs><path id="aV" d="M-89.05 45.87h575.17v745.35H-89.05z"/></defs><clipPath id="aW"><use xlink:href="#aV" overflow="visible"/></clipPath><path fill="none" stroke="#231F20" stroke-width=".655" d="M208.1 341.42l-6.86 6.32c-.4.35-1 .3-1.36-.1-.36-.38-.32-1 .08-1.35l7.12-6.05c.32-.28 1.34.88 1.02 1.17z" clip-path="url(#aW)"/><defs><path id="aX" d="M-89.05 45.87h575.17v745.35H-89.05z"/></defs><clipPath id="aY"><use xlink:href="#aX" overflow="visible"/></clipPath><path fill="#fff" d="M203.66 347.74h-3.32c-.35 0-.64-.3-.64-.65 0-.36.3-.64.64-.64h3.32c.36 0 .64.28.64.64 0 .35-.28.64-.64.64" clip-path="url(#aY)"/><defs><path id="aZ" d="M-89.05 45.87h575.17v745.35H-89.05z"/></defs><clipPath id="ba"><use xlink:href="#aZ" overflow="visible"/></clipPath><path fill="none" stroke="#231F20" stroke-width=".524" d="M203.66 347.74h-3.32c-.35 0-.64-.3-.64-.65 0-.36.3-.64.64-.64h3.32c.36 0 .64.28.64.64 0 .35-.28.64-.64.64z" clip-path="url(#ba)"/><defs><path id="bb" d="M-89.05 45.87h575.17v745.35H-89.05z"/></defs><clipPath id="bc"><use xlink:href="#bb" overflow="visible"/></clipPath><path fill="#fff" d="M200.4 349.13c-.44 0-.78.36-.78.78 0 .44.35.78.77.78.4 0 .76-.34.76-.77 0-.42-.35-.76-.77-.76" clip-path="url(#bc)"/><defs><path id="bd" d="M-89.05 45.87h575.17v745.35H-89.05z"/></defs><clipPath id="be"><use xlink:href="#bd" overflow="visible"/></clipPath><path fill="none" stroke="#231F20" stroke-width=".458" d="M200.4 349.13c-.44 0-.78.36-.78.78 0 .44.35.78.77.78.4 0 .76-.34.76-.77 0-.42-.35-.76-.77-.76z" clip-path="url(#be)"/><defs><path id="bf" d="M-89.05 45.87h575.17v745.35H-89.05z"/></defs><clipPath id="bg"><use xlink:href="#bf" overflow="visible"/></clipPath><path fill="#fff" d="M200.32 343.2c-.42 0-.77.34-.77.77 0 .42.35.77.77.77.42 0 .77-.35.77-.77 0-.43-.35-.78-.78-.78" clip-path="url(#bg)"/><defs><path id="bh" d="M-89.05 45.87h575.17v745.35H-89.05z"/></defs><clipPath id="bi"><use xlink:href="#bh" overflow="visible"/></clipPath><path fill="none" stroke="#231F20" stroke-width=".458" d="M200.32 343.2c-.42 0-.77.34-.77.77 0 .42.35.77.77.77.42 0 .77-.35.77-.77 0-.43-.35-.78-.78-.78z" clip-path="url(#bi)"/><path fill="none" stroke="#000" stroke-width=".655" stroke-dashoffset="3" d="M217.27 329.44h-18.53" stroke-dasharray="1.951,1.951,1.951,1.951,1.951,1.951"/><path fill="none" stroke="#000" stroke-width=".655" stroke-dashoffset="3" d="M196.8 326.57V308.4" stroke-dasharray="1.913,1.913,1.913,1.913,1.913,1.913"/><path fill="none" stroke="#000" stroke-width=".655" stroke-dashoffset="3" d="M199.65 306.48h18.1" stroke-dasharray="1.907,1.907,1.907,1.907,1.907,1.907"/><path fill="none" stroke="#000" stroke-width=".655" d="M218.72 306.5h.95m-22.88.94v-.95h.94m.02 22.94h-.97v-.95m23.4.94h-.98M219.67 306.45h2.5v23h-1.96"/><defs><path id="bj" d="M-89.05 45.87h575.17v745.35H-89.05z"/></defs><clipPath id="bk"><use xlink:href="#bj" overflow="visible"/></clipPath><path fill="none" stroke="#231F20" stroke-width="3.93" d="M199.48 52.17h45.7m23.24 0h45.68m27.02 0h45.03m25.38 0h45.04M188.02 446.74v-59.78h4.47v-124.2h-4.47l.02-197.8h10.2V47.88l-21.4.1-.37 397.45h123" clip-path="url(#bk)"/><path fill="none" stroke="#231F20" stroke-width="5.24" d="M275.8 437.25v8.84m62.2-55.03v56.98m-2.6-384.58v103.6m0 39.3v51.4m0 30.96v44.52h100.86"/><defs><path id="bl" d="M-89.05 45.87h575.17v745.35H-89.05z"/></defs><clipPath id="bm"><use xlink:href="#bl" overflow="visible"/></clipPath><path fill="none" stroke="#231F20" stroke-width="6.55" d="M337.36 220.06h86.46m29.47 0h20.62" clip-path="url(#bm)"/><path fill="none" stroke="#231F20" stroke-width="5.24" d="M400.78 300.14v33.6m74.78 52.4H436.6m-1.65-76.95v30.78m0 30.78v30.1m0 30.16v18.02m-30.78-140.5h61.35m-62-89.74v42.03m0 30.74v40.55m71.4-57.3h-32.06"/><path fill="none" stroke="#231F20" stroke-width=".786" d="M330.48 190.64h1.96v47.5h-1.96z"/><path fill="#BBBDBF" d="M245.1 47.87v17.06l23.13-.06v-17z"/><defs><path id="bn" d="M-89.05 45.87h575.17v745.35H-89.05z"/></defs><clipPath id="bo"><use xlink:href="#bn" overflow="visible"/></clipPath><path fill="none" stroke="#231F20" stroke-width="3.93" d="M245.1 47.87v17.06l23.13-.06v-17z" clip-path="url(#bo)"/><path fill="#BBBDBF" d="M315.7 47.9v17.05l24.03-.08v-17z"/><defs><path id="bp" d="M-89.05 45.87h575.17v745.35H-89.05z"/></defs><clipPath id="bq"><use xlink:href="#bp" overflow="visible"/></clipPath><path fill="none" stroke="#231F20" stroke-width="3.93" d="M315.7 47.9v17.05l24.03-.08v-17z" clip-path="url(#bq)"/><path fill="#BBBDBF" d="M386.88 47.9V64.9l24.02-.05v-17z"/><defs><path id="br" d="M-89.05 45.87h575.17v745.35H-89.05z"/></defs><clipPath id="bs"><use xlink:href="#br" overflow="visible"/></clipPath><path fill="none" stroke="#231F20" stroke-width="3.93" d="M386.88 47.9V64.9l24.02-.05v-17z" clip-path="url(#bs)"/><defs><path id="bt" d="M-89.05 45.87h575.17v745.35H-89.05z"/></defs><clipPath id="bu"><use xlink:href="#bt" overflow="visible"/></clipPath><path fill="none" stroke="#231F20" stroke-width="3.93" d="M474.1 447.73l-.22-64.9h-7.26l.08-74.9h7.4V217h-2.52l.1-152.1H457.6v-17l25.37-.02 1.15 399.23-154.22-.03" clip-path="url(#bu)"/><path fill="none" stroke="#231F20" stroke-width="5.24" d="M276.44 408.43v-18h-88.4"/><path fill="none" stroke="#231F20" stroke-width="3.93" d="M192.5 262.76h35.14"/><path fill="#BBBDBF" d="M403.08 308.76h31.87v24.9h-31.87z"/><path fill="none" stroke="#231F20" stroke-width="3.93" d="M403.08 308.76h31.87v24.9h-31.87z"/><path fill="none" stroke="#231F20" stroke-width="3.93" stroke-dashoffset="7" d="M191.5 65.52v196.5" stroke-dasharray="5.97,1.97,5.97,1.97,5.97,1.97"/><path fill="#fff" d="M416 50.58h18.7v3.18H416z"/><path fill="none" stroke="#000" stroke-width=".786" d="M416 50.58h18.7v3.18H416zM434.7 52.1h-18.6"/><path fill="#fff" d="M434.76 50.58h19.22v3.18h-19.22z"/><path fill="none" stroke="#000" stroke-width=".786" d="M434.76 50.58h19.22v3.18h-19.22zM453.98 52.1h-19.22"/><path fill="#fff" d="M343.9 50.58h18.73v3.18H343.9z"/><path fill="none" stroke="#000" stroke-width=".786" d="M343.9 50.58h18.73v3.18H343.9zM362.63 52.1H344"/><path fill="#fff" d="M362.68 50.58h19.2v3.18h-19.2z"/><path fill="none" stroke="#000" stroke-width=".786" d="M362.68 50.58h19.2v3.18h-19.2zM381.9 52.1h-19.22"/><path fill="#fff" d="M273.37 50.58h18.72v3.18h-18.73z"/><path fill="none" stroke="#000" stroke-width=".786" d="M273.37 50.58h18.72v3.18h-18.73zM292.1 52.1h-18.62"/><path fill="#fff" d="M292.14 50.58h19.22v3.18h-19.22z"/><path fill="none" stroke="#000" stroke-width=".786" d="M292.14 50.58h19.22v3.18h-19.22zM311.36 52.1h-19.22"/><path fill="#fff" d="M203.33 50.58h18.72v3.18h-18.72z"/><path fill="none" stroke="#000" stroke-width=".786" d="M203.33 50.58h18.72v3.18h-18.72zM222.05 52.1h-18.6"/><path fill="#fff" d="M222.1 50.58h19.22v3.18H222.1z"/><path fill="none" stroke="#000" stroke-width=".786" d="M222.1 50.58h19.22v3.18H222.1zM241.32 52.1H222.1"/></g><defs><path id="bv" d="M45 147.6h100.14v4.56H45z"/></defs><clipPath id="bw"><use xlink:href="#bv" overflow="visible"/></clipPath><path fill="#231F20" d="M145.14 147.98v-.3h-3.4v.3h1.53v4.1h.33V148h1.54zm-5.8 4.1v-.3h-2.83V150h2.53v-.3h-2.52V148h2.82v-.3h-3.14v4.4h3.17zm-5.87 0v-.3h-2.84V150h2.53v-.3h-2.53V148h2.8v-.3h-3.12v4.4h3.17zm-6.27-3.13c0 .64-.55 1.02-1.3 1.02h-1.47v-2h1.5c.8 0 1.27.38 1.27.97v.02zm.5 3.14l-1.47-1.9c.75-.1 1.3-.52 1.3-1.26 0-.75-.63-1.26-1.58-1.26h-1.85v4.4h.32v-1.82h1.45l1.4 1.83h.42zm-6.25-4.12v-.3h-3.4v.3h1.54v4.1h.3V148h1.55zm-5.73 2.97v-.02c0-.64-.42-1-1.44-1.2-1.05-.23-1.3-.5-1.3-.98 0-.47.44-.84 1.1-.84.47 0 .9.15 1.3.5l.2-.25c-.43-.36-.86-.54-1.5-.54-.82 0-1.42.52-1.42 1.17 0 .68.43 1.04 1.5 1.26 1 .2 1.24.47 1.24.93v.02c0 .5-.46.87-1.12.87-.65 0-1.1-.2-1.58-.65l-.2.24c.52.48 1.06.7 1.76.7.85 0 1.46-.48 1.46-1.2m-11.16 1.15v-4.42h-.3v3.83l-3.05-3.82h-.3v4.4h.3v-3.9l3.12 3.9h.24zm-6.77-2.2c0 1.08-.8 1.97-1.88 1.97s-1.9-.9-1.9-2 .8-1.97 1.9-1.97 1.87.9 1.87 1.98v.02zm.33-.02c0-1.2-.87-2.28-2.2-2.28-1.34 0-2.24 1.08-2.24 2.28 0 1.22.87 2.28 2.2 2.28 1.34 0 2.23-1.07 2.23-2.28m-6.54-1.9v-.3h-3.4v.3h1.52v4.1h.33V148h1.54zm-5.8 3.52v-1.7H84v.3h1.47v1.27c-.32.27-.84.5-1.4.5-1.18 0-1.9-.85-1.9-2 0-1.06.76-1.97 1.83-1.97.67 0 1.07.22 1.42.53l.2-.25c-.43-.36-.88-.58-1.6-.58-1.32 0-2.18 1.1-2.18 2.28v.02c0 1.24.82 2.26 2.22 2.26.72 0 1.33-.3 1.73-.66m-6.73.6v-4.42h-.3v3.83l-3.05-3.82h-.3v4.4h.3v-3.9l3.1 3.9h.25zm-6.67-4.42h-.33v4.4h.33v-4.4zm-3.34 4.4v-4.4h-.33v2.04h-2.82v-2.04h-.3v4.4h.3v-2.06h2.83v2.07h.33zm-6.2-1.13v-.02c0-.64-.43-1-1.46-1.2-1.04-.23-1.28-.5-1.28-.98 0-.47.43-.84 1.08-.84.48 0 .9.15 1.3.5l.22-.25c-.44-.36-.87-.54-1.5-.54-.83 0-1.43.52-1.43 1.17 0 .68.42 1.04 1.48 1.26 1 .2 1.25.47 1.25.93v.02c0 .5-.46.87-1.12.87-.64 0-1.1-.2-1.57-.65l-.2.24c.5.48 1.06.7 1.76.7.84 0 1.45-.48 1.45-1.2m-6.5-.38h-2.33L55.2 148l1.15 2.56zm1.06 1.53l-2.05-4.45h-.3l-2.06 4.44h.33l.56-1.25h2.6l.55 1.24h.36zm-6.1-4.42h-.33l-1.4 3.92-1.28-3.94h-.26l-1.3 3.94-1.38-3.92H45l1.6 4.44h.26l1.3-3.83 1.28 3.82h.27l1.6-4.44z" clip-path="url(#bw)"/></svg>