<?xml version="1.0" encoding="utf-8"?>
<!-- Generator: Adobe Illustrator 15.0.0, SVG Export Plug-In . SVG Version: 6.00 Build 0)  -->
<!DOCTYPE svg PUBLIC "-//W3C//DTD SVG 1.1//EN" "http://www.w3.org/Graphics/SVG/1.1/DTD/svg11.dtd">
<svg version="1.1" id="Layer_1" xmlns="http://www.w3.org/2000/svg" xmlns:xlink="http://www.w3.org/1999/xlink" x="0px" y="0px"
	 width="513.359px" height="495.36px" viewBox="0 0 513.359 495.36" enable-background="new 0 0 513.359 495.36"
	 xml:space="preserve">
<g id="Layer_2">
	<rect x="78.964" y="59.513" fill="#FFFFFF" width="33.149" height="44.2"/>
	<rect x="112.114" y="59.513" fill="#FFFFFF" width="33.15" height="44.2"/>
	<polygon fill="#FFFFFF" points="144.414,111.362 144.414,103.712 120.613,103.712 120.613,111.362 112.113,111.362 
		112.113,153.013 145.264,153.013 145.264,111.362 	"/>
	<polygon fill="#FFFFFF" points="78.963,110.512 58.563,110.512 58.563,132.612 45.813,132.612 45.813,153.012 78.963,153.012 	"/>
	<polygon fill="#BBBDBF" points="78.113,110.512 78.113,153.012 112.113,153.012 112.113,136.012 105.313,136.012 105.313,122.413 
		89.164,122.413 89.164,111.362 	"/>
	<polygon fill="#FFFFFF" points="45.813,58.663 78.113,58.663 78.113,103.712 64.514,103.712 64.514,96.913 60.264,96.913 
		60.264,86.712 49.213,86.712 45.813,86.712 	"/>
	<g>
		<g>
			<defs>
				<rect id="SVGID_1_" x="-54.653" y="57.201" width="538.856" height="700.866"/>
			</defs>
			<clipPath id="SVGID_2_">
				<use xlink:href="#SVGID_1_"  overflow="visible"/>
			</clipPath>
			<polygon clip-path="url(#SVGID_2_)" fill="none" stroke="#262626" stroke-width="2.053" stroke-miterlimit="10" points="
				145.287,153.244 45.566,153.244 45.566,58.948 78.854,58.948 145.287,58.948 			"/>
		</g>
	</g>
	<path fill="none" stroke="#262626" stroke-width="1.173" stroke-miterlimit="10" d="M58.911,110.862h61.445v-7.333 M49.231,96.49
		h11.292 M48.938,104.411h9.974v0.879 M58.911,108.517v24.196H46.446 M45.565,104.411h3.372V86.373h11.586V96.93h3.959v6.893h81.099
		 M78.708,153.538v-43.017 M111.998,153.538v-43.017 M111.998,103.236V59.608 M78.562,103.236V59.608"/>
	<g>
		<g>
			<defs>
				<rect id="SVGID_3_" x="-54.653" y="57.201" width="538.856" height="700.866"/>
			</defs>
			<clipPath id="SVGID_4_">
				<use xlink:href="#SVGID_3_"  overflow="visible"/>
			</clipPath>
			<path clip-path="url(#SVGID_4_)" fill="none" stroke="#000000" stroke-width="0.425" d="M55.562,105.212
				c0,1.796,1.455,3.251,3.251,3.251 M55.561,105.212h3.252v-0.188h-3.252V105.212z M110.604,114.018
				c-1.796,0-3.251-1.456-3.251-3.251 M110.792,114.02h-0.188v-3.253h0.188V114.02z M77.556,113.942
				c-1.796,0-3.251-1.455-3.251-3.251 M77.744,113.945h-0.188v-3.254h0.188V113.945z M113.458,114.015
				c1.795,0,3.252-1.454,3.252-3.251 M113.272,114.018h0.187v-3.253h-0.187V114.018z M80.77,113.942
				c1.795,0,3.251-1.455,3.251-3.251 M80.582,113.945h0.188v-3.254h-0.188V113.945z M114.072,100.413
				c1.796,0,3.251,1.455,3.251,3.251 M113.885,100.411h0.187v3.253h-0.187V100.411z M95.097,100.304c-1.794,0-3.25,1.456-3.25,3.251
				 M95.285,100.303h-0.188v3.253h0.188V100.303z M67.93,102.57c0-1.796-1.456-3.251-3.252-3.251 M67.932,102.57h-3.254v0.187h3.254
				V102.57z"/>
		</g>
	</g>
	<path fill="none" stroke="#000000" stroke-width="0.452" d="M49.52,119.662l8.957,0.004 M46.263,120.859l12.214,0.003
		 M46.244,122.057l12.205,0.009 M46.287,123.254l12.23,0.006 M46.327,124.453l12.19,0.003 M46.327,125.649l12.19,0.006
		 M46.348,126.902l12.17-0.002"/>
	<path fill="none" stroke="#000000" stroke-width="0.425" d="M46.292,122.413l3.666-2.693l-0.189-0.557l0.924,0.877l-0.26-0.64
		l1.769-1.07 M45.958,111.706h6.378 M45.958,112.904h6.378 M45.958,114.101h6.378 M45.958,115.299h6.378 M45.958,116.497h6.378
		 M45.958,117.694h6.315 M45.835,118.892h5.474 M46.19,119.845h3.555"/>
	<line fill="none" stroke="#000000" stroke-width="0.452" x1="51.77" y1="118.464" x2="58.532" y2="118.464"/>
	<path fill="none" stroke="#000000" stroke-width="0.425" d="M94.596,110.707l0.929,2.883l0.587-0.048l-1.075,0.684l0.684-0.098
		l0.611,2.127 M103.736,111.244v4.986 M102.539,111.244v4.986 M101.342,111.244v4.986 M100.144,111.244v4.986 M98.946,111.244v4.889
		 M97.749,111.244v4.889 M96.552,111.244v4.889 M95.353,111.244v1.655"/>
	<path fill="#FFFFFF" d="M92.786,116.963h11.292v-0.586H92.786V116.963z M104.373,117.257H92.494v-1.173h11.879V117.257z"/>
	<path fill="none" stroke="#262626" stroke-width="0.425" d="M92.786,116.963h11.292v-0.586H92.786V116.963z M104.373,117.257
		H92.494v-1.173h11.879V117.257z"/>
	<path fill="#FFFFFF" d="M52.522,127.17h0.588v-15.332h-0.588V127.17z M52.229,111.439h1.172v16.128h-1.172V111.439z"/>
	<path fill="none" stroke="#262626" stroke-width="0.495" d="M52.522,127.17h0.588v-15.332h-0.588V127.17z M52.229,111.439h1.172
		v16.128h-1.172V111.439z"/>
	<path fill="none" stroke="#000000" stroke-width="0.425" d="M95.251,114.226v1.931 M94.053,111.269v4.888 M92.856,111.269v4.888
		 M95.203,117.309v4.888 M94.005,117.309v4.888 M92.808,117.309v4.888 M103.834,117.284v4.987 M102.637,117.284v4.987
		 M101.439,117.284v4.987 M100.116,117.284v4.987 M98.918,117.284v4.889 M97.72,117.284v4.889 M96.523,117.284v4.889"/>
	<path fill="none" stroke="#262626" stroke-width="1.173" stroke-miterlimit="10" d="M105.105,116.436v6.452 M88.68,110.862v11.292
		h16.425v13.199h6.746"/>
	<path fill="none" stroke="#000000" stroke-width="0.442" d="M105.348,121.911h6.295 M105.348,123.107h6.295 M105.348,124.306h6.295
		 M105.348,125.503h6.295 M105.348,126.701h6.295 M105.348,127.898h6.295 M105.348,129.097h6.295 M105.348,130.293h6.295
		 M105.348,131.492h6.295 M105.348,132.688h6.295 M105.348,133.887h6.295"/>
	<g>
		<path d="M56.801,89.42h-3.365v1.547h2.983v0.935h-2.983V93.5h3.408v0.935H52.39v-5.949h4.411V89.42z"/>
	</g>
	<g>
		<g>
			<defs>
				<rect id="SVGID_5_" x="-54.653" y="57.201" width="538.856" height="700.866"/>
			</defs>
			<clipPath id="SVGID_6_">
				<use xlink:href="#SVGID_5_"  overflow="visible"/>
			</clipPath>
		</g>
		<g>
			<defs>
				<rect id="SVGID_7_" x="-54.653" y="57.201" width="538.856" height="700.866"/>
			</defs>
			<clipPath id="SVGID_8_">
				<use xlink:href="#SVGID_7_"  overflow="visible"/>
			</clipPath>
			<path clip-path="url(#SVGID_8_)" fill="#231F20" d="M291.824,244.9l-2.934-3.731H288.4v4.655h0.513v-3.817l3.006,3.817h0.419
				v-4.655h-0.513V244.9z M287.31,241.169h-3.365v4.655h3.397v-0.479h-2.872v-1.629h2.54v-0.479h-2.54v-1.589h2.84V241.169z
				 M282.103,243.729v2.095h0.525v-4.655h-0.525v2.068h-2.687v-2.068h-0.526v4.655h0.526v-2.095H282.103z M277.973,245.086
				l-0.346-0.339c-0.446,0.425-0.865,0.671-1.503,0.671c-1.024,0-1.803-0.844-1.803-1.928s0.771-1.915,1.803-1.915
				c0.632,0,1.07,0.266,1.463,0.638l0.358-0.386c-0.465-0.438-0.972-0.738-1.814-0.738c-1.37,0-2.354,1.084-2.354,2.414
				c0,1.344,0.989,2.401,2.334,2.401C276.955,245.904,277.487,245.578,277.973,245.086 M271.756,241.655h1.562v-0.486h-3.656v0.486
				h1.562v4.169h0.532L271.756,241.655L271.756,241.655z M268.105,245.824h0.524v-4.655h-0.524V245.824z M265.159,243.204
				l1.994-2.035h-0.679l-2.674,2.78v-2.78h-0.524v4.655h0.524v-1.25l0.991-1.004l1.789,2.254h0.657L265.159,243.204z"/>
		</g>
		<g>
			<defs>
				<rect id="SVGID_9_" x="-54.653" y="57.201" width="538.856" height="700.866"/>
			</defs>
			<clipPath id="SVGID_10_">
				<use xlink:href="#SVGID_9_"  overflow="visible"/>
			</clipPath>
			<path clip-path="url(#SVGID_10_)" fill="#231F20" d="M432.427,374.59h-0.468l-0.477,1.547h0.296L432.427,374.59z M431.48,374.59
				h-0.469l-0.472,1.547h0.294L431.48,374.59z M429.231,377.374c0,0.541-0.396,0.967-1.014,0.967s-1.062-0.402-1.062-0.949
				c0-0.473,0.421-0.924,1.051-0.924C428.812,376.467,429.231,376.852,429.231,377.374 M429.567,374.897
				c-0.365-0.301-0.737-0.48-1.241-0.48c-1.099,0-1.746,1.002-1.746,2.285c0,0.865,0.191,1.297,0.527,1.633
				c0.265,0.264,0.643,0.426,1.104,0.426c0.852,0,1.506-0.588,1.506-1.402c0-0.793-0.666-1.297-1.452-1.297
				c-0.612,0-0.966,0.307-1.194,0.643c-0.006-1.086,0.469-1.855,1.23-1.855c0.384,0,0.678,0.15,0.989,0.414L429.567,374.897z
				 M425.247,374.59h-0.47l-0.472,1.547h0.293L425.247,374.59z M422.842,375.795c0,0.486-0.403,0.955-1.045,0.955
				c-0.612,0-1.032-0.385-1.032-0.924c0-0.529,0.378-0.99,1.008-0.99S422.842,375.256,422.842,375.795 M423.417,376.479
				c0-0.846-0.192-1.303-0.522-1.633c-0.269-0.27-0.624-0.432-1.104-0.432c-0.894,0-1.513,0.629-1.513,1.434
				c0,0.764,0.602,1.311,1.465,1.311c0.582,0,0.961-0.309,1.188-0.672c0.019,1.072-0.493,1.842-1.249,1.842
				c-0.371,0-0.689-0.15-1.031-0.451l-0.274,0.367c0.353,0.293,0.75,0.516,1.295,0.516
				C422.709,378.76,423.417,377.819,423.417,376.479 M417.188,378.188l-1.129-1.504l1.087-1.436h-0.386l-0.896,1.201l-0.901-1.201
				h-0.392l1.089,1.439l-1.131,1.498h0.383l0.94-1.264l0.941,1.264h0.395V378.188z M412.061,374.59h-0.469l-0.475,1.547h0.295
				L412.061,374.59z M411.114,374.59h-0.469l-0.472,1.547h0.293L411.114,374.59z M408.864,377.374c0,0.541-0.396,0.967-1.014,0.967
				s-1.062-0.402-1.062-0.949c0-0.473,0.421-0.924,1.051-0.924C408.444,376.467,408.864,376.852,408.864,377.374 M409.2,374.897
				c-0.365-0.301-0.737-0.48-1.242-0.48c-1.099,0-1.745,1.002-1.745,2.285c0,0.865,0.19,1.297,0.527,1.633
				c0.265,0.264,0.643,0.426,1.104,0.426c0.852,0,1.506-0.588,1.506-1.402c0-0.793-0.666-1.297-1.452-1.297
				c-0.611,0-0.966,0.307-1.193,0.643c-0.006-1.086,0.469-1.855,1.229-1.855c0.384,0,0.678,0.15,0.99,0.414L409.2,374.897z
				 M404.881,374.59h-0.469l-0.473,1.547h0.293L404.881,374.59z M402.553,376.594c0,0.924-0.486,1.734-1.272,1.734
				c-0.785,0-1.289-0.816-1.289-1.746s0.491-1.734,1.277-1.734S402.553,375.67,402.553,376.594 M403.045,376.583
				c0-1.184-0.686-2.166-1.766-2.166c-1.086,0-1.781,0.996-1.781,2.178s0.685,2.166,1.771,2.166
				C402.349,378.76,403.045,377.764,403.045,376.583 M396.786,374.813l0.113,0.383l0.792-0.246v3.738h0.469v-4.23h-0.349
				L396.786,374.813z"/>
		</g>
		<g>
			<defs>
				<rect id="SVGID_11_" x="-54.653" y="57.201" width="538.856" height="700.866"/>
			</defs>
			<clipPath id="SVGID_12_">
				<use xlink:href="#SVGID_11_"  overflow="visible"/>
			</clipPath>
			<path clip-path="url(#SVGID_12_)" fill="#231F20" d="M431.776,366.891v3.771h0.525v-4.654h-0.532l-1.695,2.541l-1.694-2.541
				h-0.532v4.654h0.512v-3.764l1.696,2.486h0.025L431.776,366.891z M426.19,368.342c0,1.064-0.758,1.914-1.821,1.914
				s-1.836-0.863-1.836-1.928s0.76-1.914,1.822-1.914C425.42,366.415,426.19,367.278,426.19,368.342 M426.735,368.329
				c0-1.289-0.95-2.4-2.366-2.4c-1.417,0-2.382,1.123-2.382,2.414c0,1.289,0.951,2.4,2.368,2.4
				C425.771,370.743,426.735,369.62,426.735,368.329 M420.538,368.342c0,1.064-0.759,1.914-1.821,1.914
				c-1.064,0-1.836-0.863-1.836-1.928s0.758-1.914,1.821-1.914C419.767,366.415,420.538,367.278,420.538,368.342 M421.084,368.329
				c0-1.289-0.951-2.4-2.367-2.4c-1.417,0-2.381,1.123-2.381,2.414c0,1.289,0.95,2.4,2.366,2.4
				C420.119,370.743,421.084,369.62,421.084,368.329 M414.886,367.418c0,0.604-0.499,0.963-1.197,0.963h-1.43v-1.889h1.437
				C414.446,366.493,414.886,366.838,414.886,367.418 M415.584,370.663l-1.43-1.902c0.73-0.133,1.264-0.584,1.264-1.361
				c0-0.84-0.658-1.391-1.684-1.391h-2.002v4.654h0.525v-1.811h1.331l1.349,1.811H415.584L415.584,370.663z M410.077,368.342
				c0,1.037-0.751,1.836-1.929,1.836h-1.091v-3.686h1.091C409.326,366.493,410.077,367.305,410.077,368.342 M410.623,368.329
				c0-1.316-1.012-2.32-2.475-2.32h-1.615v4.654h1.615C409.612,370.663,410.623,369.647,410.623,368.329 M405.442,366.008h-3.364
				v4.654h3.398v-0.48h-2.873v-1.629h2.54v-0.479h-2.54v-1.59h2.839V366.008z M399.358,370.19h-1.562v-1.643h1.47
				c0.812,0,1.237,0.293,1.237,0.805C400.503,369.877,400.063,370.19,399.358,370.19 M399.173,368.083h-1.377v-1.604h1.416
				c0.665,0,1.03,0.301,1.03,0.766C400.242,367.797,399.804,368.083,399.173,368.083 M399.259,366.008h-1.982v4.654h2.068
				c1.018,0,1.689-0.473,1.689-1.277c0-0.645-0.445-0.963-0.998-1.129c0.365-0.16,0.737-0.473,0.737-1.084
				C400.774,366.459,400.177,366.008,399.259,366.008"/>
		</g>
		<g>
			<defs>
				<rect id="SVGID_13_" x="-54.653" y="57.201" width="538.856" height="700.866"/>
			</defs>
			<clipPath id="SVGID_14_">
				<use xlink:href="#SVGID_13_"  overflow="visible"/>
			</clipPath>
			<path clip-path="url(#SVGID_14_)" fill="#231F20" d="M466.048,296.295h1.562v-0.486h-3.658v0.486h1.562v4.168h0.532
				L466.048,296.295L466.048,296.295z M463.195,295.809h-3.365v4.654h3.399v-0.479h-2.873v-1.628h2.54v-0.479h-2.54v-1.588h2.839
				V295.809z M455.98,296.973c0-0.426,0.386-0.758,0.99-0.758c0.479,0,0.911,0.152,1.344,0.505l0.306-0.404
				c-0.472-0.38-0.957-0.571-1.636-0.571c-0.885,0-1.529,0.531-1.529,1.274c0,0.772,0.492,1.118,1.563,1.351
				c0.977,0.207,1.209,0.453,1.209,0.893c0,0.472-0.412,0.798-1.037,0.798c-0.646,0-1.11-0.22-1.597-0.658l-0.325,0.386
				c0.559,0.5,1.163,0.746,1.901,0.746c0.925,0,1.59-0.521,1.59-1.324c0-0.719-0.479-1.098-1.517-1.323
				C456.22,297.665,455.98,297.418,455.98,296.973 M453.95,298.143c0,1.064-0.758,1.916-1.821,1.916s-1.835-0.865-1.835-1.93
				c0-1.063,0.758-1.914,1.821-1.914C453.18,296.215,453.95,297.079,453.95,298.143 M454.496,298.129c0-1.289-0.95-2.4-2.367-2.4
				c-1.416,0-2.382,1.124-2.382,2.414s0.951,2.4,2.368,2.4C453.531,300.543,454.496,299.42,454.496,298.129 M446.105,300.463h3.145
				v-0.484h-2.619v-4.17h-0.524L446.105,300.463L446.105,300.463z M445.188,299.726l-0.347-0.339
				c-0.444,0.425-0.863,0.672-1.503,0.672c-1.023,0-1.803-0.846-1.803-1.93s0.771-1.914,1.803-1.914c0.632,0,1.07,0.267,1.463,0.638
				l0.358-0.386c-0.465-0.438-0.97-0.738-1.814-0.738c-1.37,0-2.354,1.084-2.354,2.414c0,1.344,0.991,2.4,2.334,2.4
				C444.17,300.543,444.701,300.217,445.188,299.726"/>
		</g>
		<g>
			<defs>
				<rect id="SVGID_15_" x="-54.653" y="57.201" width="538.856" height="700.866"/>
			</defs>
			<clipPath id="SVGID_16_">
				<use xlink:href="#SVGID_15_"  overflow="visible"/>
			</clipPath>
			<path clip-path="url(#SVGID_16_)" fill="#231F20" d="M408.773,238.009v2.095h0.525v-4.655h-0.525v2.068h-2.687v-2.068h-0.525
				v4.655h0.525v-2.095H408.773z M403.015,235.934h1.562v-0.485h-3.657v0.485h1.562v4.17h0.532L403.015,235.934L403.015,235.934z
				 M399.617,238.402h-2.122l1.063-2.374L399.617,238.402z M398.812,235.416h-0.492l-2.12,4.688h0.537l0.553-1.23h2.534l0.545,1.23
				h0.564L398.812,235.416z M393.879,239.632h-1.563v-1.643h1.472c0.811,0,1.235,0.293,1.235,0.805
				C395.022,239.319,394.584,239.632,393.879,239.632 M393.692,237.524h-1.377v-1.603h1.416c0.665,0,1.031,0.299,1.031,0.765
				C394.763,237.238,394.324,237.524,393.692,237.524 M393.778,235.449h-1.98v4.655h2.068c1.018,0,1.688-0.472,1.688-1.277
				c0-0.645-0.446-0.964-0.998-1.13c0.366-0.16,0.738-0.472,0.738-1.084C395.295,235.901,394.696,235.449,393.778,235.449"/>
		</g>
		<g>
			<defs>
				<rect id="SVGID_17_" x="-54.653" y="57.201" width="538.856" height="700.866"/>
			</defs>
			<clipPath id="SVGID_18_">
				<use xlink:href="#SVGID_17_"  overflow="visible"/>
			</clipPath>
			<path clip-path="url(#SVGID_18_)" fill="#231F20" d="M273.253,182.226h-0.874v0.998h0.874V182.226z M270.464,181.129v2.095h0.524
				v-4.655h-0.524v2.068h-2.688v-2.068h-0.524v4.655h0.524v-2.095H270.464z M266.334,182.485l-0.346-0.339
				c-0.445,0.426-0.864,0.672-1.503,0.672c-1.023,0-1.802-0.845-1.802-1.929s0.771-1.915,1.802-1.915
				c0.632,0,1.07,0.266,1.464,0.639l0.358-0.386c-0.467-0.439-0.972-0.738-1.815-0.738c-1.37,0-2.354,1.084-2.354,2.414
				c0,1.343,0.99,2.4,2.334,2.4C265.317,183.303,265.85,182.978,266.334,182.485 M261.254,178.569h-3.364v4.655h3.397v-0.479h-2.873
				v-1.63h2.541v-0.478h-2.541v-1.59h2.84V178.569z M256.047,179.453v3.771h0.524v-4.655h-0.531l-1.694,2.54l-1.696-2.54h-0.531
				v4.655h0.512v-3.764l1.696,2.487h0.025L256.047,179.453z"/>
		</g>
		<g>
			<defs>
				<rect id="SVGID_19_" x="-54.653" y="57.201" width="538.856" height="700.866"/>
			</defs>
			<clipPath id="SVGID_20_">
				<use xlink:href="#SVGID_19_"  overflow="visible"/>
			</clipPath>
			<path clip-path="url(#SVGID_20_)" fill="#231F20" d="M365.52,279.157c1.038,0,1.836,0.752,1.836,1.928v1.092h-3.684v-1.092
				C363.672,279.909,364.482,279.157,365.52,279.157 M365.507,278.611c-1.317,0-2.321,1.011-2.321,2.474v1.617h4.655v-1.617
				C367.841,279.622,366.823,278.611,365.507,278.611 M367.841,284.081h-0.997v0.875h0.997V284.081z M367.062,289.897l-3.877,1.33
				v0.57l4.688-1.662v-0.438l-3.777-1.285l3.777-1.276v-0.444l-4.688-1.663v0.552l3.877,1.33l-3.89,1.277v0.432L367.062,289.897z"/>
		</g>
		<g>
			<defs>
				<rect id="SVGID_21_" x="-54.653" y="57.201" width="538.856" height="700.866"/>
			</defs>
			<clipPath id="SVGID_22_">
				<use xlink:href="#SVGID_21_"  overflow="visible"/>
			</clipPath>
			<path clip-path="url(#SVGID_22_)" fill="#231F20" d="M281.014,365.616v3.77h0.525v-4.652h-0.532l-1.695,2.539l-1.696-2.539
				h-0.531v4.652h0.513v-3.764l1.695,2.486h0.026L281.014,365.616z M275.428,367.067c0,1.062-0.759,1.914-1.822,1.914
				s-1.835-0.863-1.835-1.93c0-1.064,0.758-1.914,1.822-1.914C274.656,365.139,275.428,366.002,275.428,367.067 M275.974,367.053
				c0-1.289-0.951-2.4-2.368-2.4c-1.416,0-2.38,1.123-2.38,2.414c0,1.289,0.951,2.4,2.367,2.4S275.974,368.342,275.974,367.053
				 M269.775,367.067c0,1.062-0.758,1.914-1.821,1.914s-1.835-0.863-1.835-1.93c0-1.064,0.758-1.914,1.821-1.914
				C269.004,365.139,269.775,366.002,269.775,367.067 M270.32,367.053c0-1.289-0.95-2.4-2.366-2.4s-2.382,1.123-2.382,2.414
				c0,1.289,0.951,2.4,2.368,2.4C269.356,369.467,270.32,368.342,270.32,367.053 M264.123,366.143c0,0.604-0.499,0.963-1.196,0.963
				h-1.431v-1.889h1.437C263.685,365.217,264.123,365.563,264.123,366.143 M264.821,369.387l-1.43-1.902
				c0.731-0.133,1.264-0.584,1.264-1.361c0-0.84-0.658-1.391-1.683-1.391h-2.001v4.654h0.524v-1.809h1.33l1.351,1.809H264.821
				L264.821,369.387z"/>
		</g>
		<g>
			<defs>
				<rect id="SVGID_23_" x="-54.653" y="57.201" width="538.856" height="700.866"/>
			</defs>
			<clipPath id="SVGID_24_">
				<use xlink:href="#SVGID_23_"  overflow="visible"/>
			</clipPath>
			<path clip-path="url(#SVGID_24_)" fill="#231F20" d="M296.84,360.254v-1.854h-1.922v0.471h1.417v1.158
				c-0.318,0.26-0.812,0.465-1.344,0.465c-1.131,0-1.843-0.824-1.843-1.941c0-1.045,0.739-1.916,1.77-1.916
				c0.659,0,1.059,0.221,1.417,0.533l0.339-0.398c-0.466-0.395-0.95-0.619-1.735-0.619c-1.396,0-2.334,1.131-2.334,2.414
				c0,1.336,0.903,2.4,2.367,2.4C295.756,360.967,296.408,360.641,296.84,360.254 M290.982,359.963l-2.934-3.73h-0.491v4.654h0.512
				v-3.816l3.007,3.816h0.419v-4.654h-0.513V359.963L290.982,359.963z M285.668,360.887h0.524v-4.654h-0.524V360.887z
				 M282.477,360.243l-1.656-4.01h-0.585l2.002,4.688h0.466l2.002-4.688h-0.564L282.477,360.243z M278.746,360.887h0.524v-4.654
				h-0.524V360.887z M274.583,360.887h3.146v-0.484h-2.62v-4.17h-0.524L274.583,360.887L274.583,360.887z M272.253,359.889h-0.874
				v0.998h0.874V359.889z M269.409,360.254v-1.854h-1.922v0.471h1.416v1.158c-0.318,0.26-0.812,0.465-1.343,0.465
				c-1.131,0-1.842-0.824-1.842-1.941c0-1.045,0.737-1.916,1.769-1.916c0.658,0,1.058,0.221,1.416,0.533l0.34-0.398
				c-0.466-0.395-0.951-0.619-1.736-0.619c-1.396,0-2.334,1.131-2.334,2.414c0,1.336,0.905,2.4,2.368,2.4
				C268.325,360.967,268.978,360.641,269.409,360.254 M263.552,359.963l-2.934-3.73h-0.492v4.654h0.513v-3.816l3.006,3.816h0.419
				v-4.654h-0.512V359.963L263.552,359.963z M258.238,360.887h0.525v-4.654h-0.525V360.887z M256.362,359.963l-2.932-3.73h-0.492
				v4.654h0.513v-3.816l3.005,3.816h0.419v-4.654h-0.513V359.963z M251.049,360.887h0.525v-4.654h-0.525V360.887z M249.348,358.567
				c0,1.035-0.752,1.836-1.93,1.836h-1.09v-3.686h1.09C248.596,356.717,249.348,357.53,249.348,358.567 M249.893,358.553
				c0-1.316-1.012-2.32-2.475-2.32h-1.616v4.654h1.616C248.881,360.887,249.893,359.87,249.893,358.553"/>
		</g>
		<g>
			<defs>
				<rect id="SVGID_25_" x="-54.653" y="57.201" width="538.856" height="700.866"/>
			</defs>
			<clipPath id="SVGID_26_">
				<use xlink:href="#SVGID_25_"  overflow="visible"/>
			</clipPath>
			<path clip-path="url(#SVGID_26_)" fill="#231F20" d="M338.325,284.809h-3.346v4.654h0.525v-2.026h2.521v-0.479h-2.521v-1.662
				h2.819L338.325,284.809L338.325,284.809z M333.89,284.809h-3.364v4.654h3.398v-0.479h-2.873v-1.629h2.54v-0.479h-2.54v-1.59
				h2.839V284.809z M328.869,286.219c0,0.605-0.499,0.964-1.196,0.964h-1.431v-1.89h1.437
				C328.431,285.293,328.869,285.64,328.869,286.219 M329.567,289.463l-1.43-1.9c0.731-0.134,1.264-0.585,1.264-1.363
				c0-0.838-0.658-1.391-1.683-1.391h-2.001v4.654h0.523v-1.809h1.33l1.352,1.809H329.567z"/>
		</g>
		<g>
			<defs>
				<rect id="SVGID_27_" x="-54.653" y="57.201" width="538.856" height="700.866"/>
			</defs>
			<clipPath id="SVGID_28_">
				<use xlink:href="#SVGID_27_"  overflow="visible"/>
			</clipPath>
			<path clip-path="url(#SVGID_28_)" fill="#231F20" d="M335.23,248.502l-1.33-3.877h-0.571l1.662,4.688h0.438l1.284-3.777
				l1.275,3.777h0.446l1.661-4.688h-0.552l-1.33,3.877l-1.275-3.891h-0.434L335.23,248.502z M332.271,246.959
				c0,1.038-0.752,1.836-1.93,1.836h-1.09v-3.685h1.09C331.519,245.111,332.271,245.922,332.271,246.959 M332.815,246.946
				c0-1.317-1.012-2.321-2.475-2.321h-1.615v4.655h1.615C331.804,249.28,332.815,248.263,332.815,246.946"/>
		</g>
	</g>
	<rect x="366.064" y="163.775" fill="#FFFFFF" width="59.401" height="30.712"/>
	<rect x="366.064" y="163.775" fill="none" stroke="#000000" stroke-width="0.78" width="59.401" height="30.712"/>
	<g>
		<g>
			<defs>
				<rect id="SVGID_29_" x="-54.653" y="57.201" width="538.856" height="700.866"/>
			</defs>
			<clipPath id="SVGID_30_">
				<use xlink:href="#SVGID_29_"  overflow="visible"/>
			</clipPath>
			<circle clip-path="url(#SVGID_30_)" fill="none" stroke="#231F20" stroke-width="0.65" cx="379.603" cy="178.985" r="1.26"/>
		</g>
		<g>
			<defs>
				<rect id="SVGID_31_" x="-54.653" y="57.201" width="538.856" height="700.866"/>
			</defs>
			<clipPath id="SVGID_32_">
				<use xlink:href="#SVGID_31_"  overflow="visible"/>
			</clipPath>
			<path clip-path="url(#SVGID_32_)" fill="none" stroke="#000000" stroke-width="0.65" d="M422.073,179.037
				c0,8.803-2.03,12.025-4.878,12.025h-43.388c-0.696,0-2.133-0.188-2.133-2.029v-9.996v-0.02v-9.997
				c0-1.84,1.437-2.028,2.133-2.028h43.36l0.026,0.002C420.042,166.994,422.073,170.29,422.073,179.037z"/>
		</g>
		<g>
			<defs>
				<rect id="SVGID_33_" x="-54.653" y="57.201" width="538.856" height="700.866"/>
			</defs>
			<clipPath id="SVGID_34_">
				<use xlink:href="#SVGID_33_"  overflow="visible"/>
			</clipPath>
			<path clip-path="url(#SVGID_34_)" fill="none" stroke="#231F20" stroke-width="0.585" d="M369.465,173.643
				c0.714-0.008,1.285,0.579,1.285,1.287c0,0.706-0.571,1.288-1.285,1.288c-0.708,0-1.294-0.582-1.284-1.288
				C368.171,174.218,368.757,173.643,369.465,173.643z M369.465,181.626c0.714-0.003,1.285,0.573,1.285,1.294
				c0,0.698-0.571,1.277-1.285,1.282c-0.708-0.005-1.294-0.584-1.294-1.282C368.171,182.199,368.749,181.624,369.465,181.626z"/>
		</g>
		<g>
			<defs>
				<rect id="SVGID_35_" x="-54.653" y="57.201" width="538.856" height="700.866"/>
			</defs>
			<clipPath id="SVGID_36_">
				<use xlink:href="#SVGID_35_"  overflow="visible"/>
			</clipPath>
			<path clip-path="url(#SVGID_36_)" fill="#FFFFFF" d="M369.084,180.718c-1.057,0-1.908-0.714-1.911-1.77
				c0.003-1.053,0.854-1.63,1.911-1.63l7.27,0.678c0.714,0,0.714,1.927,0,1.927L369.084,180.718z"/>
		</g>
		<g>
			<defs>
				<rect id="SVGID_37_" x="-54.653" y="57.201" width="538.856" height="700.866"/>
			</defs>
			<clipPath id="SVGID_38_">
				<use xlink:href="#SVGID_37_"  overflow="visible"/>
			</clipPath>
			<path clip-path="url(#SVGID_38_)" fill="none" stroke="#231F20" stroke-width="0.585" d="M369.084,180.718
				c-1.057,0-1.908-0.714-1.911-1.77c0.003-1.053,0.854-1.63,1.911-1.63l7.27,0.678c0.714,0,0.714,1.927,0,1.927L369.084,180.718z"
				/>
		</g>
		<g>
			<defs>
				<rect id="SVGID_39_" x="-54.653" y="57.201" width="538.856" height="700.866"/>
			</defs>
			<clipPath id="SVGID_40_">
				<use xlink:href="#SVGID_39_"  overflow="visible"/>
			</clipPath>
			<path clip-path="url(#SVGID_40_)" fill="none" stroke="#000000" stroke-width="0.975" d="M210.331,87.388
				c15.914,0,28.816-12.901,28.816-28.818 M208.67,87.406h1.66V58.57h-1.66V87.406z M417.312,275.686
				c-15.915,0-28.816,12.9-28.816,28.816 M418.974,275.667h-1.66v28.836h1.66V275.667z M439.943,331.563
				c15.913,0,28.817-12.902,28.817-28.82 M438.281,331.579h1.661v-28.836h-1.661V331.579z"/>
		</g>
		<g>
			<defs>
				<rect id="SVGID_41_" x="-54.653" y="57.201" width="538.856" height="700.866"/>
			</defs>
			<clipPath id="SVGID_42_">
				<use xlink:href="#SVGID_41_"  overflow="visible"/>
			</clipPath>
			<path clip-path="url(#SVGID_42_)" fill="#FFFFFF" d="M369.815,202.632c5.802,0,12.189,3.524,12.189,7.869
				c0,4.344-6.39,7.866-12.189,7.866c-5.802,0-8.819-3.522-8.819-7.866C360.995,206.156,364.014,202.632,369.815,202.632"/>
		</g>
		<g>
			<defs>
				<rect id="SVGID_43_" x="-54.653" y="57.201" width="538.856" height="700.866"/>
			</defs>
			<clipPath id="SVGID_44_">
				<use xlink:href="#SVGID_43_"  overflow="visible"/>
			</clipPath>
			<path clip-path="url(#SVGID_44_)" fill="none" stroke="#000000" stroke-width="0.78" d="M369.815,202.632
				c5.802,0,12.189,3.524,12.189,7.869c0,4.344-6.39,7.866-12.189,7.866c-5.802,0-8.819-3.522-8.819-7.866
				C360.995,206.156,364.014,202.632,369.815,202.632z"/>
		</g>
		<g>
			<defs>
				<rect id="SVGID_45_" x="-54.653" y="57.201" width="538.856" height="700.866"/>
			</defs>
			<clipPath id="SVGID_46_">
				<use xlink:href="#SVGID_45_"  overflow="visible"/>
			</clipPath>
			<path clip-path="url(#SVGID_46_)" fill="#FFFFFF" d="M362.896,215.21c0.325,0,0.59,0.265,0.59,0.59v2.755
				c0,0.325-0.265,0.59-0.59,0.59h-0.102c-0.325,0-0.59-0.265-0.59-0.59V215.8c0-0.325,0.265-0.59,0.59-0.59H362.896z"/>
		</g>
		<g>
			<defs>
				<rect id="SVGID_47_" x="-54.653" y="57.201" width="538.856" height="700.866"/>
			</defs>
			<clipPath id="SVGID_48_">
				<use xlink:href="#SVGID_47_"  overflow="visible"/>
			</clipPath>
			<path clip-path="url(#SVGID_48_)" fill="none" stroke="#231F20" stroke-width="0.78" d="M362.896,215.21
				c0.325,0,0.59,0.265,0.59,0.59v2.755c0,0.325-0.265,0.59-0.59,0.59h-0.102c-0.325,0-0.59-0.265-0.59-0.59V215.8
				c0-0.325,0.265-0.59,0.59-0.59H362.896z"/>
		</g>
		<g>
			<defs>
				<rect id="SVGID_49_" x="-54.653" y="57.201" width="538.856" height="700.866"/>
			</defs>
			<clipPath id="SVGID_50_">
				<use xlink:href="#SVGID_49_"  overflow="visible"/>
			</clipPath>
			<path clip-path="url(#SVGID_50_)" fill="#FFFFFF" d="M362.189,219.562c0,0.985-2.674,1.787-3.661,1.787
				c-0.986,0-3.661-0.802-3.661-1.787v-17.971c0-0.988,2.675-1.788,3.661-1.788c0.987,0,3.659,0.8,3.659,1.788L362.189,219.562z"/>
		</g>
		<g>
			<defs>
				<rect id="SVGID_51_" x="-54.653" y="57.201" width="538.856" height="700.866"/>
			</defs>
			<clipPath id="SVGID_52_">
				<use xlink:href="#SVGID_51_"  overflow="visible"/>
			</clipPath>
			<path clip-path="url(#SVGID_52_)" fill="none" stroke="#000000" stroke-width="0.78" d="M362.189,219.562
				c0,0.985-2.674,1.787-3.661,1.787c-0.986,0-3.661-0.802-3.661-1.787v-17.971c0-0.988,2.675-1.788,3.661-1.788
				c0.987,0,3.659,0.8,3.659,1.788L362.189,219.562z"/>
		</g>
		<g>
			<defs>
				<rect id="SVGID_53_" x="-54.653" y="57.201" width="538.856" height="700.866"/>
			</defs>
			<clipPath id="SVGID_54_">
				<use xlink:href="#SVGID_53_"  overflow="visible"/>
			</clipPath>
			<path clip-path="url(#SVGID_54_)" fill="#FFFFFF" d="M370.059,204.716c4.263,0,8.96,2.59,8.96,5.784
				c0,3.193-4.697,5.781-8.96,5.781c-4.264,0-6.481-2.588-6.481-5.781C363.576,207.307,365.795,204.716,370.059,204.716"/>
		</g>
		<g>
			<defs>
				<rect id="SVGID_55_" x="-54.653" y="57.201" width="538.856" height="700.866"/>
			</defs>
			<clipPath id="SVGID_56_">
				<use xlink:href="#SVGID_55_"  overflow="visible"/>
			</clipPath>
			<path clip-path="url(#SVGID_56_)" fill="none" stroke="#000000" stroke-width="0.65" d="M370.059,204.716
				c4.263,0,8.96,2.59,8.96,5.784c0,3.193-4.697,5.781-8.96,5.781c-4.264,0-6.481-2.588-6.481-5.781
				C363.576,207.307,365.795,204.716,370.059,204.716z"/>
		</g>
	</g>
	<polyline fill="none" stroke="#231F20" stroke-width="0.78" points="352.917,231.479 377.4,231.479 377.4,260.295 	"/>
	<path fill="none" stroke="#000000" stroke-width="0.78" d="M373.607,270.586v26.435 M373.607,291.861h3.667l0.855-3.169v-9.709
		l-0.855-3.209h-3.667 M356.692,297.021H380.8v-26.244h-24.108V297.021z"/>
	<polygon fill="#FFFFFF" points="375.189,272.054 375.194,274.174 373.715,274.639 373.71,271.586 	"/>
	<polygon fill="none" stroke="#231F20" stroke-width="0.78" points="375.189,272.054 375.194,274.174 373.715,274.639 
		373.71,271.586 	"/>
	<polyline fill="none" stroke="#231F20" stroke-width="0.78" points="285.641,189.661 322.69,189.661 322.69,267.691 
		348.365,267.691 	"/>
	<polygon fill="#FFFFFF" points="320.384,190.693 320.333,165.015 290.109,164.962 290.159,190.636 	"/>
	<polygon fill="none" stroke="#000000" stroke-width="0.78" points="320.384,190.693 320.333,165.015 290.109,164.962 
		290.159,190.636 	"/>
	<line fill="none" stroke="#000000" stroke-width="0.39" x1="289.945" y1="167.251" x2="320.21" y2="167.25"/>
	<g>
		<g>
			<defs>
				<rect id="SVGID_57_" x="-54.653" y="57.201" width="538.856" height="700.866"/>
			</defs>
			<clipPath id="SVGID_58_">
				<use xlink:href="#SVGID_57_"  overflow="visible"/>
			</clipPath>
			<path clip-path="url(#SVGID_58_)" fill="#FFFFFF" d="M298.997,176.536c2.172-0.015,3.914-1.793,3.898-3.958
				c-0.017-2.174-1.787-3.917-3.957-3.9c-2.169,0.016-3.916,1.787-3.898,3.957C295.057,174.8,296.829,176.551,298.997,176.536"/>
		</g>
		<g>
			<defs>
				<rect id="SVGID_59_" x="-54.653" y="57.201" width="538.856" height="700.866"/>
			</defs>
			<clipPath id="SVGID_60_">
				<use xlink:href="#SVGID_59_"  overflow="visible"/>
			</clipPath>
			<path clip-path="url(#SVGID_60_)" fill="none" stroke="#231F20" stroke-width="0.65" d="M298.997,176.536
				c2.172-0.015,3.914-1.793,3.898-3.958c-0.017-2.174-1.787-3.917-3.957-3.9c-2.169,0.016-3.916,1.787-3.898,3.957
				C295.057,174.8,296.829,176.551,298.997,176.536z"/>
		</g>
		<g>
			<defs>
				<rect id="SVGID_61_" x="-54.653" y="57.201" width="538.856" height="700.866"/>
			</defs>
			<clipPath id="SVGID_62_">
				<use xlink:href="#SVGID_61_"  overflow="visible"/>
			</clipPath>
			<path clip-path="url(#SVGID_62_)" fill="#FFFFFF" d="M310.772,176.449c2.17-0.018,3.913-1.794,3.896-3.961
				c-0.017-2.17-1.785-3.915-3.953-3.897c-2.168,0.016-3.918,1.787-3.903,3.957C306.828,174.712,308.605,176.464,310.772,176.449"/>
		</g>
		<g>
			<defs>
				<rect id="SVGID_63_" x="-54.653" y="57.201" width="538.856" height="700.866"/>
			</defs>
			<clipPath id="SVGID_64_">
				<use xlink:href="#SVGID_63_"  overflow="visible"/>
			</clipPath>
			<path clip-path="url(#SVGID_64_)" fill="none" stroke="#231F20" stroke-width="0.65" d="M310.772,176.449
				c2.17-0.018,3.913-1.794,3.896-3.961c-0.017-2.17-1.785-3.915-3.953-3.897c-2.168,0.016-3.918,1.787-3.903,3.957
				C306.828,174.712,308.605,176.464,310.772,176.449z"/>
		</g>
		<g>
			<defs>
				<rect id="SVGID_65_" x="-54.653" y="57.201" width="538.856" height="700.866"/>
			</defs>
			<clipPath id="SVGID_66_">
				<use xlink:href="#SVGID_65_"  overflow="visible"/>
			</clipPath>
			<path clip-path="url(#SVGID_66_)" fill="#FFFFFF" d="M299.076,187.222c2.171-0.016,3.915-1.786,3.896-3.953
				c-0.015-2.172-1.786-3.919-3.954-3.902c-2.17,0.014-3.917,1.785-3.899,3.961C295.135,185.495,296.908,187.239,299.076,187.222"/>
		</g>
		<g>
			<defs>
				<rect id="SVGID_67_" x="-54.653" y="57.201" width="538.856" height="700.866"/>
			</defs>
			<clipPath id="SVGID_68_">
				<use xlink:href="#SVGID_67_"  overflow="visible"/>
			</clipPath>
			<path clip-path="url(#SVGID_68_)" fill="none" stroke="#231F20" stroke-width="0.65" d="M299.076,187.222
				c2.171-0.016,3.915-1.786,3.896-3.953c-0.015-2.172-1.786-3.919-3.954-3.902c-2.17,0.014-3.917,1.785-3.899,3.961
				C295.135,185.495,296.908,187.239,299.076,187.222z"/>
		</g>
		<g>
			<defs>
				<rect id="SVGID_69_" x="-54.653" y="57.201" width="538.856" height="700.866"/>
			</defs>
			<clipPath id="SVGID_70_">
				<use xlink:href="#SVGID_69_"  overflow="visible"/>
			</clipPath>
			<path clip-path="url(#SVGID_70_)" fill="#FFFFFF" d="M310.851,187.135c2.171-0.016,3.914-1.784,3.896-3.951
				c-0.017-2.176-1.785-3.92-3.953-3.904c-2.168,0.017-3.918,1.788-3.899,3.961C306.909,185.407,308.684,187.152,310.851,187.135"/>
		</g>
		<g>
			<defs>
				<rect id="SVGID_71_" x="-54.653" y="57.201" width="538.856" height="700.866"/>
			</defs>
			<clipPath id="SVGID_72_">
				<use xlink:href="#SVGID_71_"  overflow="visible"/>
			</clipPath>
			<path clip-path="url(#SVGID_72_)" fill="none" stroke="#231F20" stroke-width="0.65" d="M310.851,187.135
				c2.171-0.016,3.914-1.784,3.896-3.951c-0.017-2.176-1.785-3.92-3.953-3.904c-2.168,0.017-3.918,1.788-3.899,3.961
				C306.909,185.407,308.684,187.152,310.851,187.135z"/>
		</g>
	</g>
	<rect x="291.157" y="190.597" fill="#FFFFFF" width="28.165" height="1.192"/>
	<rect x="291.157" y="190.597" fill="none" stroke="#231F20" stroke-width="0.78" width="28.165" height="1.192"/>
	
		<line fill="none" stroke="#000000" stroke-width="0.975" stroke-dasharray="1.993,1.993,1.993,1.993,1.993,1.993" stroke-dashoffset="3" x1="429.615" y1="289.53" x2="479.448" y2="289.53"/>
	<line fill="none" stroke="#000000" stroke-width="0.975" x1="479.882" y1="292.801" x2="429.182" y2="292.801"/>
	<path fill="none" stroke="#231F20" stroke-width="0.78" d="M350.315,437.711h55.25 M418.078,437.731h45.824 M284.341,437.651
		h45.825 M216.01,437.588h46.475 M351.291,424.961h43.875 M285.071,424.961h43.552 M215.766,424.311h44.2 M419.216,424.961h43.875"
		/>
	<g>
		<g>
			<defs>
				<rect id="SVGID_73_" x="-54.653" y="57.201" width="538.856" height="700.866"/>
			</defs>
			<clipPath id="SVGID_74_">
				<use xlink:href="#SVGID_73_"  overflow="visible"/>
			</clipPath>
			<path clip-path="url(#SVGID_74_)" fill="#BBBDBF" d="M188.447,435.79l26.866,0.195v-13.434c0,0-16.032,1.105-16.032-0.195v-176.8
				h1.189v-20.367h-2.923v-166.4h-9.101V435.79L188.447,435.79z"/>
		</g>
	</g>
	<rect x="465.347" y="424.088" fill="#BBBDBF" width="16.899" height="12.135"/>
	<g>
		<g>
			<defs>
				<rect id="SVGID_75_" x="-54.653" y="57.201" width="538.856" height="700.866"/>
			</defs>
			<clipPath id="SVGID_76_">
				<use xlink:href="#SVGID_75_"  overflow="visible"/>
			</clipPath>
			<circle clip-path="url(#SVGID_76_)" fill="none" stroke="#000000" stroke-width="0.52" cx="366.206" cy="244.824" r="1.189"/>
		</g>
		<g>
			<defs>
				<rect id="SVGID_77_" x="-54.653" y="57.201" width="538.856" height="700.866"/>
			</defs>
			<clipPath id="SVGID_78_">
				<use xlink:href="#SVGID_77_"  overflow="visible"/>
			</clipPath>
			<path clip-path="url(#SVGID_78_)" fill="none" stroke="#000000" stroke-width="0.65" d="M356.374,244.824
				c0-0.638,0.517-1.154,1.152-1.154c0.64,0,1.156,0.516,1.156,1.154c0,0.637-0.518,1.155-1.156,1.155
				C356.891,245.979,356.374,245.461,356.374,244.824z M358.856,244.293h4.716v1.061h-4.716V244.293z M356.261,239.631h2.486v10.386
				h-2.486V239.631z"/>
		</g>
	</g>
	<rect x="355.881" y="234.294" fill="none" stroke="#000000" stroke-width="0.78" width="19.073" height="21.06"/>
	<rect x="358.806" y="235.964" fill="none" stroke="#000000" stroke-width="0.585" width="14.519" height="17.761"/>
	<line fill="none" stroke="#000000" stroke-width="0.65" x1="318.381" y1="269.307" x2="318.381" y2="305.057"/>
	<rect x="314.794" y="282.008" fill="none" stroke="#000000" stroke-width="0.78" width="1.462" height="2.764"/>
	<rect x="316.28" y="269.523" fill="none" stroke="#000000" stroke-width="0.78" width="30.062" height="35.244"/>
	<rect x="314.794" y="290.704" fill="none" stroke="#000000" stroke-width="0.78" width="1.462" height="2.762"/>
	<g>
		<g>
			<defs>
				<rect id="SVGID_79_" x="-54.653" y="57.201" width="538.856" height="700.866"/>
			</defs>
			<clipPath id="SVGID_80_">
				<use xlink:href="#SVGID_79_"  overflow="visible"/>
			</clipPath>
			<path clip-path="url(#SVGID_80_)" fill="#FFFFFF" d="M343.09,204.419c1.009,0,1.843,0.83,1.843,1.843v22.408
				c0,1.01-0.831,1.835-1.843,1.835h-15.756c-1.018,0-1.846-0.825-1.846-1.835v-22.408c0-1.013,0.828-1.843,1.846-1.843H343.09z"/>
		</g>
		<g>
			<defs>
				<rect id="SVGID_81_" x="-54.653" y="57.201" width="538.856" height="700.866"/>
			</defs>
			<clipPath id="SVGID_82_">
				<use xlink:href="#SVGID_81_"  overflow="visible"/>
			</clipPath>
			<path clip-path="url(#SVGID_82_)" fill="none" stroke="#231F20" stroke-width="0.78" d="M343.09,204.419
				c1.009,0,1.843,0.83,1.843,1.843v22.408c0,1.01-0.831,1.835-1.843,1.835h-15.756c-1.018,0-1.846-0.825-1.846-1.835v-22.408
				c0-1.013,0.828-1.843,1.846-1.843H343.09z"/>
		</g>
		<g>
			<defs>
				<rect id="SVGID_83_" x="-54.653" y="57.201" width="538.856" height="700.866"/>
			</defs>
			<clipPath id="SVGID_84_">
				<use xlink:href="#SVGID_83_"  overflow="visible"/>
			</clipPath>
			<path clip-path="url(#SVGID_84_)" fill="#FFFFFF" d="M340.623,226.705c-0.003,1.039-0.835,1.889-1.853,1.889h-9.464
				c-1.015-0.002-1.849-0.85-1.849-1.889V208.28c0-1.037,0.836-1.885,1.849-1.885h9.464c1.018,0,1.853,0.848,1.853,1.885V226.705z"
				/>
		</g>
		<g>
			<defs>
				<rect id="SVGID_85_" x="-54.653" y="57.201" width="538.856" height="700.866"/>
			</defs>
			<clipPath id="SVGID_86_">
				<use xlink:href="#SVGID_85_"  overflow="visible"/>
			</clipPath>
			<path clip-path="url(#SVGID_86_)" fill="none" stroke="#231F20" stroke-width="0.585" d="M340.623,226.705
				c-0.003,1.039-0.835,1.889-1.853,1.889h-9.464c-1.015-0.002-1.849-0.85-1.849-1.889V208.28c0-1.037,0.836-1.885,1.849-1.885
				h9.464c1.018,0,1.853,0.848,1.853,1.885V226.705z"/>
		</g>
		<g>
			<defs>
				<rect id="SVGID_87_" x="-54.653" y="57.201" width="538.856" height="700.866"/>
			</defs>
			<clipPath id="SVGID_88_">
				<use xlink:href="#SVGID_87_"  overflow="visible"/>
			</clipPath>
			<path clip-path="url(#SVGID_88_)" fill="#FFFFFF" d="M333.826,215.896c0.762,0,1.385,0.622,1.385,1.389
				c0,0.769-0.623,1.384-1.385,1.384c-0.768,0-1.395-0.612-1.395-1.384C332.433,216.518,333.06,215.896,333.826,215.896"/>
		</g>
		<g>
			<defs>
				<rect id="SVGID_89_" x="-54.653" y="57.201" width="538.856" height="700.866"/>
			</defs>
			<clipPath id="SVGID_90_">
				<use xlink:href="#SVGID_89_"  overflow="visible"/>
			</clipPath>
			<path clip-path="url(#SVGID_90_)" fill="none" stroke="#231F20" stroke-width="0.52" d="M333.826,215.896
				c0.762,0,1.385,0.622,1.385,1.389c0,0.769-0.623,1.384-1.385,1.384c-0.768,0-1.395-0.612-1.395-1.384
				C332.433,216.518,333.06,215.896,333.826,215.896z"/>
		</g>
		<g>
			<defs>
				<rect id="SVGID_91_" x="-54.653" y="57.201" width="538.856" height="700.866"/>
			</defs>
			<clipPath id="SVGID_92_">
				<use xlink:href="#SVGID_91_"  overflow="visible"/>
			</clipPath>
			<path clip-path="url(#SVGID_92_)" fill="#FFFFFF" d="M342.828,212.307c0.738,0,1.424,0.6,1.424,1.341v7.312
				c0,0.74-0.686,1.341-1.424,1.341c-0.741,0-1.425-0.601-1.425-1.341v-7.312C341.404,212.907,342.087,212.307,342.828,212.307"/>
		</g>
		<g>
			<defs>
				<rect id="SVGID_93_" x="-54.653" y="57.201" width="538.856" height="700.866"/>
			</defs>
			<clipPath id="SVGID_94_">
				<use xlink:href="#SVGID_93_"  overflow="visible"/>
			</clipPath>
			<path clip-path="url(#SVGID_94_)" fill="none" stroke="#231F20" stroke-width="0.52" d="M342.828,212.307
				c0.738,0,1.424,0.6,1.424,1.341v7.312c0,0.74-0.686,1.341-1.424,1.341c-0.741,0-1.425-0.601-1.425-1.341v-7.312
				C341.404,212.907,342.087,212.307,342.828,212.307z"/>
		</g>
		<g>
			<defs>
				<rect id="SVGID_95_" x="-54.653" y="57.201" width="538.856" height="700.866"/>
			</defs>
			<clipPath id="SVGID_96_">
				<use xlink:href="#SVGID_95_"  overflow="visible"/>
			</clipPath>
			<path clip-path="url(#SVGID_96_)" fill="#FFFFFF" d="M335.049,211.821l6.813,6.274c0.401,0.348,0.998,0.311,1.352-0.088
				c0.357-0.389,0.32-0.999-0.081-1.35l-7.063-5.99C335.744,210.388,334.733,211.535,335.049,211.821"/>
		</g>
		<g>
			<defs>
				<rect id="SVGID_97_" x="-54.653" y="57.201" width="538.856" height="700.866"/>
			</defs>
			<clipPath id="SVGID_98_">
				<use xlink:href="#SVGID_97_"  overflow="visible"/>
			</clipPath>
			<path clip-path="url(#SVGID_98_)" fill="none" stroke="#231F20" stroke-width="0.65" d="M335.049,211.821l6.813,6.274
				c0.401,0.348,0.998,0.311,1.352-0.088c0.357-0.389,0.32-0.999-0.081-1.35l-7.063-5.99
				C335.744,210.388,334.733,211.535,335.049,211.821z"/>
		</g>
		<g>
			<defs>
				<rect id="SVGID_99_" x="-54.653" y="57.201" width="538.856" height="700.866"/>
			</defs>
			<clipPath id="SVGID_100_">
				<use xlink:href="#SVGID_99_"  overflow="visible"/>
			</clipPath>
			<path clip-path="url(#SVGID_100_)" fill="#FFFFFF" d="M339.459,218.099h3.291c0.35,0,0.639-0.287,0.639-0.645
				c0-0.349-0.289-0.632-0.639-0.632h-3.291c-0.358,0-0.644,0.283-0.644,0.635C338.816,217.811,339.101,218.099,339.459,218.099"/>
		</g>
		<g>
			<defs>
				<rect id="SVGID_101_" x="-54.653" y="57.201" width="538.856" height="700.866"/>
			</defs>
			<clipPath id="SVGID_102_">
				<use xlink:href="#SVGID_101_"  overflow="visible"/>
			</clipPath>
			<path clip-path="url(#SVGID_102_)" fill="none" stroke="#231F20" stroke-width="0.52" d="M339.459,218.099h3.291
				c0.35,0,0.639-0.287,0.639-0.645c0-0.349-0.289-0.632-0.639-0.632h-3.291c-0.358,0-0.644,0.283-0.644,0.635
				C338.816,217.811,339.101,218.099,339.459,218.099z"/>
		</g>
		<g>
			<defs>
				<rect id="SVGID_103_" x="-54.653" y="57.201" width="538.856" height="700.866"/>
			</defs>
			<clipPath id="SVGID_104_">
				<use xlink:href="#SVGID_103_"  overflow="visible"/>
			</clipPath>
			<path clip-path="url(#SVGID_104_)" fill="#FFFFFF" d="M342.704,219.481c0.421,0,0.767,0.348,0.767,0.773
				c0,0.422-0.346,0.763-0.767,0.763c-0.416,0-0.766-0.341-0.766-0.767C341.939,219.826,342.282,219.481,342.704,219.481"/>
		</g>
		<g>
			<defs>
				<rect id="SVGID_105_" x="-54.653" y="57.201" width="538.856" height="700.866"/>
			</defs>
			<clipPath id="SVGID_106_">
				<use xlink:href="#SVGID_105_"  overflow="visible"/>
			</clipPath>
			<path clip-path="url(#SVGID_106_)" fill="none" stroke="#231F20" stroke-width="0.455" d="M342.704,219.481
				c0.421,0,0.767,0.348,0.767,0.773c0,0.422-0.346,0.763-0.767,0.763c-0.416,0-0.766-0.341-0.766-0.767
				C341.939,219.826,342.282,219.481,342.704,219.481z"/>
		</g>
		<g>
			<defs>
				<rect id="SVGID_107_" x="-54.653" y="57.201" width="538.856" height="700.866"/>
			</defs>
			<clipPath id="SVGID_108_">
				<use xlink:href="#SVGID_107_"  overflow="visible"/>
			</clipPath>
			<path clip-path="url(#SVGID_108_)" fill="#FFFFFF" d="M342.772,213.583c0.421,0,0.768,0.348,0.768,0.772
				c0,0.421-0.347,0.764-0.768,0.764c-0.419,0-0.765-0.343-0.765-0.767S342.352,213.583,342.772,213.583"/>
		</g>
		<g>
			<defs>
				<rect id="SVGID_109_" x="-54.653" y="57.201" width="538.856" height="700.866"/>
			</defs>
			<clipPath id="SVGID_110_">
				<use xlink:href="#SVGID_109_"  overflow="visible"/>
			</clipPath>
			<path clip-path="url(#SVGID_110_)" fill="none" stroke="#231F20" stroke-width="0.455" d="M342.772,213.583
				c0.421,0,0.768,0.348,0.768,0.772c0,0.421-0.347,0.764-0.768,0.764c-0.419,0-0.765-0.343-0.765-0.767
				S342.352,213.583,342.772,213.583z"/>
		</g>
	</g>
	
		<line fill="none" stroke="#000000" stroke-width="0.65" stroke-dasharray="1.936,1.936,1.936,1.936,1.936,1.936" stroke-dashoffset="3" x1="325.692" y1="257.851" x2="344.081" y2="257.851"/>
	
		<line fill="none" stroke="#000000" stroke-width="0.65" stroke-dasharray="1.899,1.899,1.899,1.899,1.899,1.899" stroke-dashoffset="3" x1="346.017" y1="255.002" x2="346.017" y2="236.965"/>
	
		<line fill="none" stroke="#000000" stroke-width="0.65" stroke-dasharray="1.892,1.892,1.892,1.892,1.892,1.892" stroke-dashoffset="3" x1="343.179" y1="235.067" x2="325.201" y2="235.067"/>
	<path fill="none" stroke="#000000" stroke-width="0.65" d="M324.256,235.067h-0.946 M346.018,236.016v-0.949h-0.947
		 M345.05,257.851h0.968v-0.949 M322.788,257.851h0.969"/>
	<polyline fill="none" stroke="#000000" stroke-width="0.65" points="323.309,235.032 320.844,235.032 320.844,257.851 
		322.778,257.851 	"/>
	<rect x="350.315" y="161.061" fill="#BBBDBF" width="13.325" height="31.2"/>
	<g>
		<g>
			<defs>
				<rect id="SVGID_111_" x="-54.653" y="57.201" width="538.856" height="700.866"/>
			</defs>
			<clipPath id="SVGID_112_">
				<use xlink:href="#SVGID_111_"  overflow="visible"/>
			</clipPath>
			<path clip-path="url(#SVGID_112_)" fill="none" stroke="#231F20" stroke-width="3.9" d="M208.616,59.151h-20.111L188.4,435.993
				h26.536v-12.412h-17.294V245.584h3.441v-21.163h-3.448V60.961 M463.415,430.811h-44.417 M402.531,430.811h-50.915
				 M328.866,430.811h-45.015 M260.183,430.811h-43.44"/>
		</g>
		<g>
			<defs>
				<rect id="SVGID_113_" x="-54.653" y="57.201" width="538.856" height="700.866"/>
			</defs>
			<clipPath id="SVGID_114_">
				<use xlink:href="#SVGID_113_"  overflow="visible"/>
			</clipPath>
			<path clip-path="url(#SVGID_114_)" fill="none" stroke="#231F20" stroke-width="5.2" d="M480.965,304.061h-12.343
				 M437.74,304.061h-19.151 M388.668,304.061h-41.604"/>
		</g>
	</g>
	<path fill="none" stroke="#231F20" stroke-width="6.5" d="M350.315,160.167v222.347 M349.071,412.981v11.33"/>
	<g>
		<g>
			<defs>
				<rect id="SVGID_115_" x="-54.653" y="57.201" width="538.856" height="700.866"/>
			</defs>
			<clipPath id="SVGID_116_">
				<use xlink:href="#SVGID_115_"  overflow="visible"/>
			</clipPath>
			<polyline clip-path="url(#SVGID_116_)" fill="none" stroke="#231F20" stroke-width="3.9" points="427.016,278.062 
				482.253,278.088 482.223,436.104 464.574,436.104 464.574,423.315 479.128,423.315 479.128,304.439 481.428,304.491 
				481.428,278.706 			"/>
		</g>
	</g>
	<line fill="none" stroke="#231F20" stroke-width="7.8" x1="352.916" y1="262.812" x2="383.141" y2="262.812"/>
	<path fill="none" stroke="#231F20" stroke-width="6.5" d="M278.815,126.616h-36.101v40.117 M242.715,196.161v6.5h40.417v-39"/>
	<polyline fill="none" stroke="#231F20" stroke-width="3.9" points="353.24,193.059 363.882,193.059 363.786,161.343 	"/>
	<polygon fill="#BBBDBF" points="395.907,422.461 395.907,436.104 417.442,436.104 417.442,422.502 	"/>
	<polygon fill="none" stroke="#231F20" stroke-width="3.9" points="395.907,422.461 395.907,436.104 417.442,436.104 
		417.442,422.502 	"/>
	<polygon fill="#BBBDBF" points="330.298,422.461 330.298,436.104 350.421,436.104 350.421,422.502 	"/>
	<polygon fill="none" stroke="#231F20" stroke-width="3.9" points="330.298,422.461 330.298,436.104 350.421,436.104 
		350.421,422.502 	"/>
	<polygon fill="#BBBDBF" points="261.615,422.461 261.615,436.049 283.248,436.049 283.248,422.502 	"/>
	<polygon fill="none" stroke="#231F20" stroke-width="3.9" points="261.615,422.461 261.615,436.049 283.248,436.049 
		283.248,422.502 	"/>
	<g>
		<g>
			<defs>
				<rect id="SVGID_117_" x="-54.653" y="57.201" width="538.856" height="700.866"/>
			</defs>
			<clipPath id="SVGID_118_">
				<use xlink:href="#SVGID_117_"  overflow="visible"/>
			</clipPath>
			<polyline clip-path="url(#SVGID_118_)" fill="none" stroke="#231F20" stroke-width="3.9" points="238.462,59.43 278.593,59.43 
				278.62,161.747 426.876,162.001 426.876,305.327 			"/>
		</g>
	</g>
	<path fill="none" stroke="#231F20" stroke-width="0.78" d="M347.112,408.499l-1.754,0.029v-47.125l1.754-0.029V408.499z
		 M243.715,199.892h-1.95v-47.125h1.95V199.892z"/>
	<g>
		<g>
			<defs>
				<rect id="SVGID_119_" x="-54.653" y="57.201" width="538.856" height="700.866"/>
			</defs>
			<clipPath id="SVGID_120_">
				<use xlink:href="#SVGID_119_"  overflow="visible"/>
			</clipPath>
			
				<line clip-path="url(#SVGID_120_)" fill="none" stroke="#231F20" stroke-width="3.9" stroke-dasharray="5.952,1.952,5.952,1.952,5.952,1.952" stroke-dashoffset="7" x1="201.119" y1="60.343" x2="201.119" y2="421.969"/>
		</g>
	</g>
	<rect x="238.216" y="429.225" fill="#FFFFFF" width="18.58" height="3.162"/>
	<rect x="238.216" y="429.225" fill="none" stroke="#000000" stroke-width="0.78" width="18.58" height="3.162"/>
	<line fill="none" stroke="#000000" stroke-width="0.78" x1="238.216" y1="430.877" x2="256.687" y2="430.877"/>
	<rect x="219.096" y="429.225" fill="#FFFFFF" width="19.07" height="3.162"/>
	<rect x="219.096" y="429.225" fill="none" stroke="#000000" stroke-width="0.78" width="19.07" height="3.162"/>
	<line fill="none" stroke="#000000" stroke-width="0.78" x1="219.096" y1="430.877" x2="238.166" y2="430.877"/>
	<rect x="307.237" y="429.231" fill="#FFFFFF" width="18.581" height="3.162"/>
	<rect x="307.237" y="429.231" fill="none" stroke="#000000" stroke-width="0.78" width="18.581" height="3.162"/>
	<line fill="none" stroke="#000000" stroke-width="0.78" x1="307.238" y1="430.883" x2="325.71" y2="430.883"/>
	<rect x="288.12" y="429.231" fill="#FFFFFF" width="19.066" height="3.162"/>
	<rect x="288.12" y="429.231" fill="none" stroke="#000000" stroke-width="0.78" width="19.066" height="3.162"/>
	<line fill="none" stroke="#000000" stroke-width="0.78" x1="288.119" y1="430.883" x2="307.187" y2="430.883"/>
	<rect x="373.733" y="429.231" fill="#FFFFFF" width="18.581" height="3.162"/>
	<rect x="373.733" y="429.231" fill="none" stroke="#000000" stroke-width="0.78" width="18.581" height="3.162"/>
	<line fill="none" stroke="#000000" stroke-width="0.78" x1="373.733" y1="430.883" x2="392.205" y2="430.883"/>
	<rect x="354.614" y="429.231" fill="#FFFFFF" width="19.068" height="3.162"/>
	<rect x="354.614" y="429.231" fill="none" stroke="#000000" stroke-width="0.78" width="19.068" height="3.162"/>
	<line fill="none" stroke="#000000" stroke-width="0.78" x1="354.614" y1="430.883" x2="373.683" y2="430.883"/>
	<rect x="441.603" y="429.208" fill="#FFFFFF" width="18.581" height="3.164"/>
	<rect x="441.603" y="429.208" fill="none" stroke="#000000" stroke-width="0.78" width="18.581" height="3.164"/>
	<line fill="none" stroke="#000000" stroke-width="0.78" x1="441.603" y1="430.862" x2="460.073" y2="430.862"/>
	<rect x="422.483" y="429.208" fill="#FFFFFF" width="19.068" height="3.164"/>
	<rect x="422.483" y="429.208" fill="none" stroke="#000000" stroke-width="0.78" width="19.068" height="3.164"/>
	<line fill="none" stroke="#000000" stroke-width="0.78" x1="422.483" y1="430.862" x2="441.552" y2="430.862"/>
</g>
<g id="Layer_3">
</g>
<g>
	<g>
		<defs>
			<rect id="SVGID_121_" x="45.405" y="158.854" width="100.145" height="4.562"/>
		</defs>
		<clipPath id="SVGID_122_">
			<use xlink:href="#SVGID_121_"  overflow="visible"/>
		</clipPath>
		<path clip-path="url(#SVGID_122_)" fill="#231F20" d="M145.547,159.231v-0.302h-3.402v0.302h1.537v4.108h0.328v-4.108H145.547z
			 M139.756,163.34v-0.303h-2.842v-1.771h2.525v-0.303h-2.525v-1.732h2.811v-0.303h-3.139v4.41h3.17V163.34z M133.881,163.34v-0.303
			h-2.84v-1.771h2.525v-0.303h-2.525v-1.732h2.809v-0.303h-3.137v4.41h3.168V163.34z M127.604,160.207
			c0,0.637-0.547,1.01-1.283,1.01h-1.486v-1.985h1.506c0.799,0,1.266,0.372,1.266,0.964v0.012H127.604z M128.096,163.34
			l-1.455-1.885c0.744-0.102,1.291-0.523,1.291-1.26v-0.014c0-0.736-0.623-1.254-1.574-1.254h-1.852v4.41h0.326v-1.826h1.443
			l1.404,1.826h0.416V163.34z M121.856,159.231v-0.302h-3.4v0.302h1.539v4.108h0.326v-4.108H121.856z M116.133,162.199v-0.014
			c0-0.643-0.428-1.008-1.449-1.215c-1.045-0.215-1.285-0.498-1.285-0.965v-0.012c0-0.461,0.43-0.833,1.078-0.833
			c0.484,0,0.9,0.14,1.316,0.499l0.209-0.259c-0.449-0.36-0.871-0.536-1.514-0.536c-0.818,0-1.418,0.504-1.418,1.16v0.012
			c0,0.668,0.43,1.027,1.488,1.242c1.002,0.199,1.246,0.471,1.246,0.938v0.012c0,0.506-0.453,0.877-1.115,0.877
			c-0.648,0-1.096-0.207-1.58-0.654l-0.215,0.244c0.529,0.475,1.07,0.707,1.775,0.707
			C115.522,163.402,116.133,162.91,116.133,162.199 M104.971,163.34v-4.41h-0.312v3.836l-3.043-3.836h-0.311v4.41h0.316v-3.92
			l3.104,3.92H104.971z M98.198,161.148c0,1.088-0.781,1.971-1.871,1.971s-1.885-0.895-1.885-1.984v-0.014
			c0-1.09,0.781-1.971,1.871-1.971s1.883,0.895,1.883,1.984v0.014H98.198z M98.539,161.135c0.006-0.006,0.006-0.006,0-0.014
			c0-1.203-0.877-2.27-2.213-2.27c-1.334,0-2.225,1.078-2.225,2.281v0.014c0,1.203,0.877,2.268,2.213,2.268
			C97.649,163.414,98.539,162.338,98.539,161.135 M91.996,159.231v-0.302h-3.402v0.302h1.538v4.108h0.327v-4.108H91.996z
			 M86.198,162.754v-1.701h-1.789v0.301h1.474v1.268c-0.321,0.271-0.844,0.504-1.405,0.504c-1.178,0-1.89-0.85-1.89-1.99v-0.014
			c0-1.062,0.75-1.971,1.821-1.971c0.668,0,1.07,0.226,1.418,0.529l0.214-0.246c-0.441-0.365-0.896-0.58-1.613-0.58
			c-1.316,0-2.18,1.09-2.18,2.281v0.014c0,1.24,0.825,2.268,2.218,2.268C85.184,163.414,85.8,163.107,86.198,162.754 M79.48,163.34
			v-4.41h-0.314v3.836l-3.043-3.836h-0.309v4.41h0.315v-3.92l3.104,3.92H79.48z M72.805,158.93h-0.328v4.41h0.328V158.93z
			 M69.47,163.34v-4.41h-0.327v2.041h-2.822v-2.041h-0.327v4.41h0.327v-2.066h2.822v2.066H69.47z M63.262,162.199v-0.014
			c0-0.643-0.428-1.008-1.449-1.215c-1.045-0.215-1.284-0.498-1.284-0.965v-0.012c0-0.461,0.429-0.833,1.076-0.833
			c0.486,0,0.901,0.14,1.317,0.499l0.208-0.259c-0.447-0.36-0.869-0.536-1.512-0.536c-0.819,0-1.417,0.504-1.417,1.16v0.012
			c0,0.668,0.428,1.027,1.485,1.242c1.002,0.199,1.248,0.471,1.248,0.938v0.012c0,0.506-0.454,0.877-1.114,0.877
			c-0.649,0-1.098-0.207-1.582-0.654l-0.215,0.244c0.529,0.475,1.071,0.707,1.777,0.707
			C62.651,163.402,63.262,162.91,63.262,162.199 M56.758,161.809h-2.325l1.166-2.551L56.758,161.809z M57.817,163.34l-2.054-4.441
			h-0.314l-2.054,4.441h0.341l0.56-1.236h2.602l0.562,1.236H57.817z M51.716,158.93h-0.34l-1.386,3.924l-1.292-3.938h-0.252
			l-1.291,3.938l-1.387-3.924h-0.365l1.601,4.439h0.264l1.292-3.83l1.291,3.83h0.266L51.716,158.93z"/>
	</g>
</g>
</svg>
