<svg xmlns="http://www.w3.org/2000/svg" width="513.359" height="495.36" xmlns:xlink="http://www.w3.org/1999/xlink"><g><path fill="#fff" d="M78.96 59.5h33.15v44.2H78.97zM112.1 59.5h33.16v44.2H112.1zM144.4 111.36v-7.65h-23.8v7.66h-8.5V153h33.16v-41.64zM78.96 110.5h-20.4v22.1H45.8V153h33.16z"/><path fill="#BBBDBF" d="M78.1 110.5V153h34v-17h-6.8v-13.6H89.17v-11.04z"/><path fill="#fff" d="M45.8 58.66h32.3v45.05H64.5v-6.8h-4.24V86.7H45.8z"/><defs><path id="a" d="M-54.65 57.2H484.2v700.87H-54.65z"/></defs><clipPath id="b"><use xlink:href="#a" overflow="visible"/></clipPath><path fill="none" stroke="#262626" stroke-width="2.053" stroke-miterlimit="10" d="M145.3 153.24H45.56v-94.3h99.72z" clip-path="url(#b)"/><path fill="none" stroke="#262626" stroke-width="1.173" stroke-miterlimit="10" d="M58.9 110.86h61.46v-7.33M49.23 96.5h11.3m-11.6 7.9h9.98v.9m0 3.22v24.2H46.46m-.9-28.3h3.4V86.36H60.5v10.56h3.96v6.9h81.1m-66.87 49.7v-43m33.3 43v-43m0-7.3V59.62m-33.44 43.64V59.6"/><defs><path id="c" d="M-54.65 57.2H484.2v700.87H-54.65z"/></defs><clipPath id="d"><use xlink:href="#c" overflow="visible"/></clipPath><path fill="none" stroke="#000" stroke-width=".425" d="M55.56 105.2c0 1.8 1.46 3.26 3.25 3.26m-3.24-3.25h3.25v-.18h-3.24v.2zm55.04 8.82c-1.8 0-3.25-1.46-3.25-3.25m3.44 3.25h-.2v-3.25h.2v3.25zm-33.24-.08c-1.8 0-3.26-1.45-3.26-3.25m3.44 3.24h-.18v-3.25h.18v3.24zm35.72.08c1.8 0 3.25-1.46 3.25-3.26m-3.43 3.26h.2v-3.25h-.2v3.25zm-32.5-.08c1.8 0 3.25-1.45 3.25-3.25m-3.44 3.24h.2v-3.25h-.2v3.24zm33.5-13.53c1.8 0 3.24 1.47 3.24 3.26m-3.43-3.25h.17v3.26h-.18v-3.25zm-18.8-.1c-1.8 0-3.25 1.46-3.25 3.26m3.44-3.26h-.2v3.26h.18v-3.26zm-27.37 2.27c0-1.8-1.46-3.25-3.25-3.25m3.25 3.25h-3.25v.2h3.25v-.2z" clip-path="url(#d)"/><path fill="none" stroke="#000" stroke-width=".452" d="M49.52 119.66h8.96m-12.22 1.2h12.22m-12.24 1.2h12.2m-12.15 1.2H58.5m-12.2 1.2h12.2m-12.2 1.2h12.2m-12.17 1.24h12.17"/><path fill="none" stroke="#000" stroke-width=".425" d="M46.3 122.4l3.66-2.68-.2-.56.93.88-.27-.64 1.77-1.07m-6.24-6.62h6.38m-6.38 1.2h6.38m-6.38 1.2h6.38m-6.38 1.2h6.38m-6.38 1.2h6.38m-6.38 1.2h6.3m-6.42 1.2h5.47m-5.1.94h3.54"/><path fill="none" stroke="#000" stroke-width=".452" d="M51.77 118.46h6.76"/><path fill="none" stroke="#000" stroke-width=".425" d="M94.6 110.7l.93 2.9.58-.06-1.06.7.68-.1.6 2.1m7.42-5v5m-1.2-5v5m-1.2-5v5m-1.2-5v5m-1.2-5v4.9m-1.2-4.9v4.9m-1.2-4.9v4.9m-1.2-4.9v1.66"/><path fill="#fff" d="M92.8 116.96h11.28v-.58h-11.3v.58zm11.57.3H92.5v-1.18h11.87v1.18z"/><path fill="none" stroke="#262626" stroke-width=".425" d="M92.8 116.96h11.28v-.58h-11.3v.58zm11.57.3H92.5v-1.18h11.87v1.18z"/><path fill="#fff" d="M52.52 127.17h.6v-15.33h-.6v15.33zm-.3-15.73h1.18v16.13h-1.17v-16.13z"/><path fill="none" stroke="#262626" stroke-width=".495" d="M52.52 127.17h.6v-15.33h-.6v15.33zm-.3-15.73h1.18v16.13h-1.17v-16.13z"/><path fill="none" stroke="#000" stroke-width=".425" d="M95.25 114.23v1.93m-1.2-4.9v4.9m-1.2-4.9v4.9m2.35 1.15v4.9m-1.2-4.9v4.9m-1.2-4.9v4.9m11.03-4.92v5m-1.2-5v5m-1.2-5v5m-1.3-5v5m-1.2-5v4.9m-1.2-4.9v4.9m-1.2-4.9v4.9"/><path fill="none" stroke="#262626" stroke-width="1.173" stroke-miterlimit="10" d="M105.1 116.44v6.45m-16.42-12.04v11.3h16.43v13.2h6.75"/><path fill="none" stroke="#000" stroke-width=".442" d="M105.35 121.9h6.3m-6.3 1.2h6.3m-6.3 1.2h6.3m-6.3 1.2h6.3m-6.3 1.2h6.3m-6.3 1.2h6.3m-6.3 1.2h6.3m-6.3 1.2h6.3m-6.3 1.2h6.3m-6.3 1.2h6.3m-6.3 1.2h6.3"/><path d="M56.8 89.42h-3.36v1.55h2.98v.93h-2.98v1.6h3.4v.94H52.4v-5.95h4.4v.92z"/><defs><path id="e" d="M-54.65 57.2H484.2v700.87H-54.65z"/></defs><clipPath><use xlink:href="#e" overflow="visible"/></clipPath><defs><path id="f" d="M-54.65 57.2H484.2v700.87H-54.65z"/></defs><clipPath id="g"><use xlink:href="#f" overflow="visible"/></clipPath><path fill="#231F20" d="M291.82 244.9l-2.93-3.73h-.5v4.65h.5v-3.8l3.02 3.8h.42v-4.65h-.52v3.73zm-4.5-3.73h-3.37v4.65h3.4v-.47h-2.88v-1.63H287v-.48h-2.53v-1.6h2.84v-.47zm-5.22 2.56v2.1h.53v-4.66h-.53v2.07h-2.68v-2.07h-.53v4.65h.52v-2.1h2.68zm-4.13 1.36l-.34-.35c-.45.42-.87.67-1.5.67-1.03 0-1.8-.85-1.8-1.93s.76-1.92 1.8-1.92c.63 0 1.06.26 1.46.63l.35-.37c-.47-.44-.98-.74-1.82-.74-1.37 0-2.35 1.07-2.35 2.4 0 1.35 1 2.4 2.33 2.4.85 0 1.4-.32 1.87-.8m-6.2-3.44h1.55v-.5h-3.66v.5h1.56v4.16h.54v-4.16zm-3.66 4.16h.53v-4.65h-.52v4.65zm-2.94-2.62l2-2.03h-.7l-2.66 2.78v-2.78h-.52v4.65h.52v-1.25l1-1 1.78 2.25h.66l-2.08-2.62z" clip-path="url(#g)"/><defs><path id="h" d="M-54.65 57.2H484.2v700.87H-54.65z"/></defs><clipPath id="i"><use xlink:href="#h" overflow="visible"/></clipPath><path fill="#231F20" d="M432.43 374.6h-.47l-.48 1.54h.3l.65-1.55zm-.95 0H431l-.46 1.54h.3l.64-1.55zm-2.25 2.77c0 .55-.4.97-1 .97s-1.08-.4-1.08-.95c0-.48.43-.93 1.06-.93.6 0 1.03.38 1.03.9m.34-2.47c-.37-.3-.74-.48-1.24-.48-1.1 0-1.75 1-1.75 2.28 0 .87.2 1.3.53 1.64.27.26.65.42 1.1.42.86 0 1.52-.6 1.52-1.4 0-.8-.67-1.3-1.46-1.3-.6 0-.96.3-1.2.64 0-1.08.48-1.85 1.24-1.85.38 0 .68.15 1 .4l.27-.35zm-4.32-.3h-.47l-.47 1.54h.3l.65-1.55zm-2.4 1.2c0 .48-.4.95-1.05.95-.62 0-1.04-.39-1.04-.92s.38-1 1-1 1.08.43 1.08.97m.58.68c0-.85-.2-1.3-.53-1.63-.27-.27-.63-.44-1.1-.44-.9 0-1.52.64-1.52 1.45 0 .76.6 1.3 1.46 1.3.58 0 .96-.3 1.2-.66 0 1.06-.5 1.83-1.26 1.83-.37 0-.7-.15-1.03-.45l-.27.36c.35.3.75.52 1.3.52 1.03 0 1.74-.94 1.74-2.28m-6.23 1.7l-1.14-1.5 1.1-1.43h-.4l-.9 1.2-.9-1.2h-.4l1.1 1.44-1.13 1.5h.38l.95-1.28.94 1.26h.4zm-5.14-3.6h-.47l-.48 1.56h.3l.64-1.55zm-.95 0h-.46l-.47 1.56h.3l.64-1.55zm-2.24 2.8c0 .54-.4.96-1 .96s-1.07-.4-1.07-.95c0-.48.4-.93 1.04-.93.6 0 1.02.38 1.02.9m.34-2.47c-.36-.3-.74-.48-1.24-.48-1.1 0-1.75 1-1.75 2.28 0 .87.2 1.3.54 1.64.26.26.64.42 1.1.42.86 0 1.5-.6 1.5-1.4 0-.8-.66-1.3-1.44-1.3-.6 0-.97.3-1.2.64 0-1.08.47-1.85 1.23-1.85.4 0 .68.15 1 .4l.27-.35zm-4.32-.3h-.47l-.46 1.54h.3l.64-1.55zm-2.33 2c0 .92-.48 1.73-1.27 1.73-.78 0-1.3-.82-1.3-1.75s.5-1.73 1.3-1.73 1.27.82 1.27 1.74m.5-.02c0-1.18-.7-2.16-1.77-2.16-1.1 0-1.78 1-1.78 2.18s.68 2.16 1.77 2.16c1.08 0 1.78-1 1.78-2.18m-6.26-1.77l.1.4.8-.25v3.74h.46v-4.24h-.35l-1 .35z" clip-path="url(#i)"/><defs><path id="j" d="M-54.65 57.2H484.2v700.87H-54.65z"/></defs><clipPath id="k"><use xlink:href="#j" overflow="visible"/></clipPath><path fill="#231F20" d="M431.78 366.9v3.76h.52V366h-.53l-1.7 2.55-1.7-2.54h-.52v4.66h.5v-3.76l1.7 2.48h.03l1.7-2.5zm-5.6 1.44c0 1.07-.75 1.92-1.8 1.92s-1.85-.87-1.85-1.93.76-1.92 1.82-1.92c1.07.02 1.84.88 1.84 1.94m.54 0c0-1.3-.95-2.4-2.37-2.4-1.42 0-2.38 1.1-2.38 2.4 0 1.3.94 2.4 2.36 2.4 1.4 0 2.38-1.12 2.38-2.4m-6.2 0c0 1.07-.76 1.92-1.82 1.92-1.07 0-1.84-.87-1.84-1.93s.76-1.92 1.82-1.92c1.07.02 1.84.88 1.84 1.94m.54 0c0-1.3-.95-2.4-2.36-2.4-1.42 0-2.38 1.1-2.38 2.4 0 1.3.95 2.4 2.36 2.4 1.42 0 2.38-1.12 2.38-2.4m-6.2-.92c0 .6-.5.96-1.2.96h-1.42v-1.9h1.44c.75 0 1.2.36 1.2.94m.68 3.24l-1.43-1.9c.73-.13 1.27-.58 1.27-1.36 0-.84-.66-1.4-1.7-1.4h-2v4.66h.54v-1.8h1.33l1.34 1.8h.64zm-5.5-2.32c0 1.04-.75 1.84-1.93 1.84h-1.1v-3.7h1.1c1.18 0 1.93.82 1.93 1.86m.54 0c0-1.33-1-2.33-2.47-2.33h-1.62v4.66h1.62c1.46 0 2.47-1 2.47-2.33m-5.18-2.32h-3.36v4.66h3.4v-.48h-2.88v-1.63h2.54v-.48h-2.54v-1.6h2.84v-.46zm-6.08 4.2h-1.56v-1.65h1.47c.8 0 1.23.3 1.23.8 0 .53-.44.84-1.14.84m-.2-2.12h-1.36v-1.6h1.4c.68 0 1.04.3 1.04.77 0 .55-.44.83-1.07.83m.1-2.07h-2v4.66h2.08c1 0 1.68-.47 1.68-1.28 0-.64-.44-.96-1-1.12.37-.16.74-.48.74-1.1 0-.7-.6-1.15-1.5-1.15" clip-path="url(#k)"/><defs><path id="l" d="M-54.65 57.2H484.2v700.87H-54.65z"/></defs><clipPath id="m"><use xlink:href="#l" overflow="visible"/></clipPath><path fill="#231F20" d="M466.05 296.3h1.56v-.5h-3.65v.5h1.56v4.16h.55v-4.16zm-2.86-.5h-3.37v4.66h3.4v-.48h-2.87v-1.62h2.54v-.48h-2.54v-1.6h2.83v-.47zm-7.22 1.17c0-.42.4-.76 1-.76.47.02.9.17 1.33.52l.32-.4c-.47-.38-.96-.57-1.64-.57-.88 0-1.53.53-1.53 1.27 0 .77.5 1.12 1.57 1.35.97.2 1.2.45 1.2.9 0 .46-.4.8-1.03.8-.66 0-1.12-.23-1.6-.67l-.33.4c.56.5 1.16.73 1.9.73.92 0 1.6-.52 1.6-1.32 0-.7-.5-1.1-1.53-1.3-1.02-.23-1.26-.48-1.26-.93m-2.03 1.17c0 1.07-.76 1.92-1.82 1.92s-1.84-.87-1.84-1.93.75-1.92 1.8-1.92c1.08 0 1.85.88 1.85 1.94m.55 0c0-1.3-.95-2.4-2.37-2.4-1.42 0-2.38 1.1-2.38 2.4s.95 2.4 2.36 2.4c1.43 0 2.4-1.12 2.4-2.4m-8.4 2.32h3.15v-.48h-2.62v-4.17h-.52v4.66zm-.9-.73l-.36-.34c-.44.4-.86.66-1.5.66-1.02 0-1.8-.85-1.8-1.93s.77-1.9 1.8-1.9c.63 0 1.07.25 1.46.62l.36-.38c-.47-.44-.97-.74-1.8-.74-1.38 0-2.37 1.08-2.37 2.4 0 1.36.98 2.4 2.33 2.4.84 0 1.37-.3 1.86-.8" clip-path="url(#m)"/><defs><path id="n" d="M-54.65 57.2H484.2v700.87H-54.65z"/></defs><clipPath id="o"><use xlink:href="#n" overflow="visible"/></clipPath><path fill="#231F20" d="M408.77 238v2.1h.53v-4.65h-.53v2.07h-2.68v-2.07h-.54v4.65h.53V238h2.67zm-5.75-2.07h1.56v-.48h-3.66v.48h1.56v4.17h.53v-4.17zm-3.4 2.47h-2.12l1.06-2.37 1.06 2.37zm-.8-2.98h-.5l-2.12 4.68h.54l.55-1.23h2.52l.55 1.23h.56l-2.12-4.68zm-4.94 4.2h-1.56V238h1.47c.8 0 1.22.28 1.22.8s-.44.83-1.14.83m-.2-2.1h-1.36v-1.6h1.4c.68 0 1.04.3 1.04.76 0 .54-.44.82-1.07.82m.08-2.07h-1.98v4.65h2.07c1 0 1.68-.47 1.68-1.27 0-.65-.44-.97-1-1.13.37-.16.74-.47.74-1.1 0-.7-.6-1.15-1.52-1.15" clip-path="url(#o)"/><defs><path id="p" d="M-54.65 57.2H484.2v700.87H-54.65z"/></defs><clipPath id="q"><use xlink:href="#p" overflow="visible"/></clipPath><path fill="#231F20" d="M273.25 182.23h-.87v1h.87v-1zm-2.8-1.1v2.1h.54v-4.66h-.54v2.07h-2.68v-2.07h-.53v4.65h.53v-2.1h2.68zm-4.12 1.36l-.34-.35c-.46.42-.88.67-1.52.67-1.02 0-1.8-.85-1.8-1.93s.77-1.93 1.8-1.93c.64 0 1.07.27 1.47.64l.36-.37c-.46-.44-.96-.74-1.8-.74-1.38 0-2.36 1.07-2.36 2.4 0 1.35 1 2.4 2.33 2.4.85 0 1.38-.32 1.86-.8m-5.08-3.93h-3.36v4.65h3.4v-.48h-2.9v-1.63h2.56v-.46h-2.55v-1.6h2.85v-.47zm-5.2.88v3.77h.52v-4.65h-.53l-1.7 2.54-1.7-2.53h-.52v4.65h.5v-3.76l1.7 2.5h.03l1.7-2.5z" clip-path="url(#q)"/><defs><path id="r" d="M-54.65 57.2H484.2v700.87H-54.65z"/></defs><clipPath id="s"><use xlink:href="#r" overflow="visible"/></clipPath><path fill="#231F20" d="M365.52 279.16c1.04 0 1.84.75 1.84 1.92v1.1h-3.7v-1.1c0-1.17.82-1.92 1.86-1.92m0-.55c-1.33 0-2.33 1.02-2.33 2.48v1.62h4.64v-1.6c0-1.48-1.02-2.5-2.33-2.5m2.34 5.48h-1v.88h1v-.88zm-.78 5.82l-3.87 1.33v.57l4.67-1.67v-.43l-3.77-1.3 3.77-1.26v-.45l-4.7-1.67v.55l3.9 1.33-3.9 1.3v.42l3.9 1.28z" clip-path="url(#s)"/><defs><path id="t" d="M-54.65 57.2H484.2v700.87H-54.65z"/></defs><clipPath id="u"><use xlink:href="#t" overflow="visible"/></clipPath><path fill="#231F20" d="M281 365.62v3.77h.54v-4.67H281l-1.7 2.54-1.68-2.54h-.54v4.66h.52v-3.78l1.7 2.5h.02l1.7-2.5zm-5.57 1.45c0 1.06-.76 1.9-1.82 1.9s-1.83-.85-1.83-1.92c0-1.06.76-1.9 1.82-1.9s1.83.85 1.83 1.92m.54-.02c0-1.3-.95-2.4-2.36-2.4-1.4 0-2.37 1.13-2.37 2.42 0 1.3.95 2.4 2.36 2.4s2.37-1.13 2.37-2.42m-6.2.02c0 1.06-.75 1.9-1.82 1.9s-1.83-.85-1.83-1.92c0-1.06.76-1.9 1.82-1.9s1.83.85 1.83 1.92m.55-.02c0-1.3-.95-2.4-2.37-2.4s-2.38 1.13-2.38 2.42c0 1.3.95 2.4 2.37 2.4 1.42 0 2.38-1.13 2.38-2.42m-6.2-.9c0 .6-.5.96-1.2.96h-1.42v-1.88h1.43c.75 0 1.2.34 1.2.92m.7 3.25l-1.44-1.9c.72-.15 1.26-.6 1.26-1.38 0-.84-.66-1.4-1.7-1.4h-2v4.67h.54v-1.82h1.33l1.35 1.8h.64z" clip-path="url(#u)"/><defs><path id="v" d="M-54.65 57.2H484.2v700.87H-54.65z"/></defs><clipPath id="w"><use xlink:href="#v" overflow="visible"/></clipPath><path fill="#231F20" d="M296.84 360.25v-1.85h-1.92v.47h1.4v1.16c-.3.26-.8.46-1.33.46-1.14 0-1.85-.83-1.85-1.95 0-1.04.74-1.9 1.77-1.9.66 0 1.06.2 1.4.52l.35-.4c-.46-.4-.95-.62-1.73-.62-1.4 0-2.34 1.13-2.34 2.42 0 1.33.9 2.4 2.37 2.4.8 0 1.44-.33 1.87-.72m-5.86-.3l-2.93-3.72h-.5v4.66h.52v-3.83l3 3.82h.43v-4.67h-.52v3.73zm-5.3.94h.5v-4.67h-.5v4.66zm-3.2-.66l-1.66-4h-.58l2 4.68h.46l2-4.7h-.56l-1.66 4.02zm-3.73.65h.52v-4.67h-.52v4.66zm-4.17 0h3.15v-.5h-2.62v-4.17h-.5l-.02 4.66zm-2.33-1h-.87v1h.87v-1zm-2.84.35v-1.85h-1.9v.47h1.4v1.16c-.32.26-.8.46-1.34.46-1.13 0-1.84-.83-1.84-1.95 0-1.04.73-1.9 1.77-1.9.64 0 1.04.2 1.4.52l.34-.4c-.46-.4-.95-.62-1.73-.62-1.4 0-2.33 1.13-2.33 2.42 0 1.33.9 2.4 2.37 2.4.78 0 1.44-.33 1.87-.72m-5.85-.3l-2.93-3.72h-.5v4.66h.52v-3.83l3 3.82h.42v-4.67h-.5v3.73zm-5.3.94h.5v-4.67h-.5v4.66zm-1.9-.94l-2.92-3.73h-.5v4.66h.52v-3.83l3 3.82h.43v-4.67h-.52v3.73zm-5.3.93h.52v-4.67h-.52v4.66zm-1.7-2.33c0 1.03-.75 1.83-1.93 1.83h-1.1v-3.68h1.1c1.18 0 1.93.8 1.93 1.85m.54-.02c0-1.3-1.02-2.32-2.48-2.32h-1.62v4.66h1.62c1.46 0 2.47-1.03 2.47-2.35" clip-path="url(#w)"/><defs><path id="x" d="M-54.65 57.2H484.2v700.87H-54.65z"/></defs><clipPath id="y"><use xlink:href="#x" overflow="visible"/></clipPath><path fill="#231F20" d="M338.32 284.8H335v4.66h.52v-2.02h2.52v-.48h-2.52v-1.66h2.82v-.5zm-4.43 0h-3.37v4.66h3.4v-.48h-2.88v-1.62h2.54v-.48h-2.55v-1.6h2.84v-.47zm-5.03 1.42c0 .6-.5.96-1.2.96h-1.43v-1.9h1.44c.75 0 1.2.36 1.2.94m.7 3.24l-1.44-1.9c.73-.13 1.26-.58 1.26-1.36 0-.84-.66-1.4-1.68-1.4h-2v4.66h.52v-1.8h1.33l1.35 1.8h.65z" clip-path="url(#y)"/><defs><path id="z" d="M-54.65 57.2H484.2v700.87H-54.65z"/></defs><clipPath id="A"><use xlink:href="#z" overflow="visible"/></clipPath><path fill="#231F20" d="M335.23 248.5l-1.33-3.87h-.57l1.66 4.68h.43l1.28-3.76 1.3 3.77h.43l1.66-4.68h-.56l-1.33 3.88-1.26-3.9h-.44l-1.27 3.9zm-2.96-1.54c0 1.04-.75 1.83-1.93 1.83h-1.1v-3.7h1.1c1.18 0 1.93.82 1.93 1.86m.55 0c0-1.33-1.02-2.34-2.48-2.34h-1.6v4.66h1.6c1.46 0 2.48-1.02 2.48-2.33" clip-path="url(#A)"/><path fill="#fff" d="M366.06 163.78h59.4v30.7h-59.4z"/><path fill="none" stroke="#000" stroke-width=".78" d="M366.06 163.78h59.4v30.7h-59.4z"/><defs><path id="B" d="M-54.65 57.2H484.2v700.87H-54.65z"/></defs><clipPath id="C"><use xlink:href="#B" overflow="visible"/></clipPath><circle cx="379.603" cy="178.985" r="1.26" fill="none" stroke="#231F20" stroke-width=".65" clip-path="url(#C)"/><defs><path id="D" d="M-54.65 57.2H484.2v700.87H-54.65z"/></defs><clipPath id="E"><use xlink:href="#D" overflow="visible"/></clipPath><path fill="none" stroke="#000" stroke-width=".65" d="M422.07 179.04c0 8.8-2.03 12.02-4.88 12.02h-43.4c-.7 0-2.13-.2-2.13-2.03v-20c0-1.85 1.44-2.04 2.14-2.04h43.39c2.84 0 4.87 3.3 4.87 12.04z" clip-path="url(#E)"/><defs><path id="F" d="M-54.65 57.2H484.2v700.87H-54.65z"/></defs><clipPath id="G"><use xlink:href="#F" overflow="visible"/></clipPath><path fill="none" stroke="#231F20" stroke-width=".585" d="M369.46 173.64c.72 0 1.3.58 1.3 1.3 0 .7-.58 1.28-1.3 1.28-.7 0-1.3-.58-1.28-1.3 0-.7.58-1.28 1.28-1.28zm0 8c.72-.02 1.3.56 1.3 1.28 0 .7-.58 1.28-1.3 1.28-.7 0-1.3-.58-1.3-1.28 0-.72.6-1.3 1.3-1.3z" clip-path="url(#G)"/><defs><path id="H" d="M-54.65 57.2H484.2v700.87H-54.65z"/></defs><clipPath id="I"><use xlink:href="#H" overflow="visible"/></clipPath><path fill="#fff" d="M369.08 180.72c-1.05 0-1.9-.72-1.9-1.77 0-1.06.85-1.63 1.9-1.63l7.27.68c.72 0 .72 1.92 0 1.92l-7.27.8z" clip-path="url(#I)"/><defs><path id="J" d="M-54.65 57.2H484.2v700.87H-54.65z"/></defs><clipPath id="K"><use xlink:href="#J" overflow="visible"/></clipPath><path fill="none" stroke="#231F20" stroke-width=".585" d="M369.08 180.72c-1.05 0-1.9-.72-1.9-1.77 0-1.06.85-1.63 1.9-1.63l7.27.68c.72 0 .72 1.92 0 1.92l-7.27.8z" clip-path="url(#K)"/><defs><path id="L" d="M-54.65 57.2H484.2v700.87H-54.65z"/></defs><clipPath id="M"><use xlink:href="#L" overflow="visible"/></clipPath><path fill="none" stroke="#000" stroke-width=".975" d="M210.33 87.4c15.9 0 28.82-12.9 28.82-28.83M208.67 87.4h1.66V58.58h-1.66V87.4zM417.3 275.7c-15.9 0-28.8 12.9-28.8 28.8m30.47-28.83h-1.66v28.83h1.67v-28.83zm20.97 55.9c15.92 0 28.82-12.9 28.82-28.83m-30.48 28.84h1.66v-28.84h-1.66v28.84z" clip-path="url(#M)"/><defs><path id="N" d="M-54.65 57.2H484.2v700.87H-54.65z"/></defs><clipPath id="O"><use xlink:href="#N" overflow="visible"/></clipPath><path fill="#fff" d="M369.8 202.63c5.82 0 12.2 3.53 12.2 7.87 0 4.35-6.4 7.87-12.18 7.87-5.8 0-8.82-3.52-8.82-7.87 0-4.34 3-7.87 8.8-7.87" clip-path="url(#O)"/><defs><path id="P" d="M-54.65 57.2H484.2v700.87H-54.65z"/></defs><clipPath id="Q"><use xlink:href="#P" overflow="visible"/></clipPath><path fill="none" stroke="#000" stroke-width=".78" d="M369.8 202.63c5.82 0 12.2 3.53 12.2 7.87 0 4.35-6.4 7.87-12.18 7.87-5.8 0-8.82-3.52-8.82-7.87 0-4.34 3-7.87 8.8-7.87z" clip-path="url(#Q)"/><defs><path id="R" d="M-54.65 57.2H484.2v700.87H-54.65z"/></defs><clipPath id="S"><use xlink:href="#R" overflow="visible"/></clipPath><path fill="#fff" d="M362.9 215.2c.32 0 .6.28.6.6v2.75c0 .33-.28.6-.6.6h-.1c-.33 0-.6-.27-.6-.6v-2.75c0-.33.27-.6.6-.6h.1z" clip-path="url(#S)"/><defs><path id="T" d="M-54.65 57.2H484.2v700.87H-54.65z"/></defs><clipPath id="U"><use xlink:href="#T" overflow="visible"/></clipPath><path fill="none" stroke="#231F20" stroke-width=".78" d="M362.9 215.2c.32 0 .6.28.6.6v2.75c0 .33-.28.6-.6.6h-.1c-.33 0-.6-.27-.6-.6v-2.75c0-.33.27-.6.6-.6h.1z" clip-path="url(#U)"/><defs><path id="V" d="M-54.65 57.2H484.2v700.87H-54.65z"/></defs><clipPath id="W"><use xlink:href="#V" overflow="visible"/></clipPath><path fill="#fff" d="M362.2 219.56c0 1-2.68 1.8-3.67 1.8-1 0-3.66-.8-3.66-1.8V201.6c0-1 2.67-1.8 3.66-1.8 1 0 3.66.8 3.66 1.8v17.96z" clip-path="url(#W)"/><defs><path id="X" d="M-54.65 57.2H484.2v700.87H-54.65z"/></defs><clipPath id="Y"><use xlink:href="#X" overflow="visible"/></clipPath><path fill="none" stroke="#000" stroke-width=".78" d="M362.2 219.56c0 1-2.68 1.8-3.67 1.8-1 0-3.66-.8-3.66-1.8V201.6c0-1 2.67-1.8 3.66-1.8 1 0 3.66.8 3.66 1.8v17.96z" clip-path="url(#Y)"/><defs><path id="Z" d="M-54.65 57.2H484.2v700.87H-54.65z"/></defs><clipPath id="aa"><use xlink:href="#Z" overflow="visible"/></clipPath><path fill="#fff" d="M370.06 204.72c4.26 0 8.96 2.6 8.96 5.78 0 3.2-4.7 5.78-8.96 5.78-4.26 0-6.48-2.6-6.48-5.78 0-3.2 2.22-5.78 6.48-5.78" clip-path="url(#aa)"/><defs><path id="ab" d="M-54.65 57.2H484.2v700.87H-54.65z"/></defs><clipPath id="ac"><use xlink:href="#ab" overflow="visible"/></clipPath><path fill="none" stroke="#000" stroke-width=".65" d="M370.06 204.72c4.26 0 8.96 2.6 8.96 5.78 0 3.2-4.7 5.78-8.96 5.78-4.26 0-6.48-2.6-6.48-5.78 0-3.2 2.22-5.78 6.48-5.78z" clip-path="url(#ac)"/><path fill="none" stroke="#231F20" stroke-width=".78" d="M352.92 231.48h24.48v28.82"/><path fill="none" stroke="#000" stroke-width=".78" d="M373.6 270.6V297m0-5.16h3.67l.86-3.17v-9.72l-.86-3.2h-3.66M356.7 297h24.1v-26.24h-24.1v26.24z"/><path fill="#fff" d="M375.2 272.05v2.12l-1.5.47v-3.05z"/><path fill="none" stroke="#231F20" stroke-width=".78" d="M375.2 272.05v2.12l-1.5.47v-3.05zM285.64 189.66h37.05v78.03h25.67"/><path fill="#fff" d="M320.38 190.7l-.05-25.7-30.22-.04.06 25.68z"/><path fill="none" stroke="#000" stroke-width=".78" d="M320.38 190.7l-.05-25.7-30.22-.04.06 25.68z"/><path fill="none" stroke="#000" stroke-width=".39" d="M289.94 167.25h30.27"/><defs><path id="ad" d="M-54.65 57.2H484.2v700.87H-54.65z"/></defs><clipPath id="ae"><use xlink:href="#ad" overflow="visible"/></clipPath><path fill="#fff" d="M299 176.54c2.17-.02 3.9-1.8 3.9-3.96-.02-2.18-1.8-3.92-3.96-3.9-2.17 0-3.92 1.78-3.9 3.95.02 2.17 1.8 3.92 3.96 3.9" clip-path="url(#ae)"/><defs><path id="af" d="M-54.65 57.2H484.2v700.87H-54.65z"/></defs><clipPath id="ag"><use xlink:href="#af" overflow="visible"/></clipPath><path fill="none" stroke="#231F20" stroke-width=".65" d="M299 176.54c2.17-.02 3.9-1.8 3.9-3.96-.02-2.18-1.8-3.92-3.96-3.9-2.17 0-3.92 1.78-3.9 3.95.02 2.17 1.8 3.92 3.96 3.9z" clip-path="url(#ag)"/><defs><path id="ah" d="M-54.65 57.2H484.2v700.87H-54.65z"/></defs><clipPath id="ai"><use xlink:href="#ah" overflow="visible"/></clipPath><path fill="#fff" d="M310.77 176.45c2.17-.02 3.92-1.8 3.9-3.96-.02-2.18-1.8-3.93-3.96-3.9-2.15 0-3.9 1.78-3.9 3.95.03 2.16 1.8 3.9 3.97 3.9" clip-path="url(#ai)"/><defs><path id="aj" d="M-54.65 57.2H484.2v700.87H-54.65z"/></defs><clipPath id="ak"><use xlink:href="#aj" overflow="visible"/></clipPath><path fill="none" stroke="#231F20" stroke-width=".65" d="M310.77 176.45c2.17-.02 3.92-1.8 3.9-3.96-.02-2.18-1.8-3.93-3.96-3.9-2.15 0-3.9 1.78-3.9 3.95.03 2.16 1.8 3.9 3.97 3.9z" clip-path="url(#ak)"/><defs><path id="al" d="M-54.65 57.2H484.2v700.87H-54.65z"/></defs><clipPath id="am"><use xlink:href="#al" overflow="visible"/></clipPath><path fill="#fff" d="M299.08 187.22c2.17 0 3.9-1.78 3.9-3.95-.02-2.17-1.8-3.92-3.96-3.9-2.17 0-3.92 1.78-3.9 3.96 0 2.16 1.8 3.9 3.96 3.9" clip-path="url(#am)"/><defs><path id="an" d="M-54.65 57.2H484.2v700.87H-54.65z"/></defs><clipPath id="ao"><use xlink:href="#an" overflow="visible"/></clipPath><path fill="none" stroke="#231F20" stroke-width=".65" d="M299.08 187.22c2.17 0 3.9-1.78 3.9-3.95-.02-2.17-1.8-3.92-3.96-3.9-2.17 0-3.92 1.78-3.9 3.96 0 2.16 1.8 3.9 3.96 3.9z" clip-path="url(#ao)"/><defs><path id="ap" d="M-54.65 57.2H484.2v700.87H-54.65z"/></defs><clipPath id="aq"><use xlink:href="#ap" overflow="visible"/></clipPath><path fill="#fff" d="M310.85 187.13c2.17 0 3.9-1.78 3.9-3.95-.02-2.17-1.8-3.92-3.96-3.9-2.17.02-3.92 1.8-3.9 3.96 0 2.17 1.78 3.9 3.95 3.9" clip-path="url(#aq)"/><defs><path id="ar" d="M-54.65 57.2H484.2v700.87H-54.65z"/></defs><clipPath id="as"><use xlink:href="#ar" overflow="visible"/></clipPath><path fill="none" stroke="#231F20" stroke-width=".65" d="M310.85 187.13c2.17 0 3.9-1.78 3.9-3.95-.02-2.17-1.8-3.92-3.96-3.9-2.17.02-3.92 1.8-3.9 3.96 0 2.17 1.78 3.9 3.95 3.9z" clip-path="url(#as)"/><path fill="#fff" d="M291.16 190.6h28.16v1.2h-28.16z"/><path fill="none" stroke="#231F20" stroke-width=".78" d="M291.16 190.6h28.16v1.2h-28.16z"/><path fill="none" stroke="#000" stroke-width=".975" stroke-dashoffset="3" d="M429.6 289.53h49.85" stroke-dasharray="1.993,1.993,1.993,1.993,1.993,1.993"/><path fill="none" stroke="#000" stroke-width=".975" d="M479.88 292.8h-50.7"/><path fill="none" stroke="#231F20" stroke-width=".78" d="M350.3 437.7h55.26m12.52.03h45.82m-179.56-.08h45.83M216 437.6h46.48m88.8-12.64h43.9m-110.1 0h43.54m-112.85-.65h44.2m159.25.66h43.87"/><defs><path id="at" d="M-54.65 57.2H484.2v700.87H-54.65z"/></defs><clipPath id="au"><use xlink:href="#at" overflow="visible"/></clipPath><path fill="#BBBDBF" d="M188.45 435.8l26.86.2v-13.45s-16.02 1.1-16.02-.2v-176.8h1.2V225.2h-2.93V58.8h-9.1v377z" clip-path="url(#au)"/><path fill="#BBBDBF" d="M465.35 424.1h16.9v12.12h-16.9z"/><defs><path id="av" d="M-54.65 57.2H484.2v700.87H-54.65z"/></defs><clipPath id="aw"><use xlink:href="#av" overflow="visible"/></clipPath><circle cx="366.206" cy="244.824" r="1.189" fill="none" stroke="#000" stroke-width=".52" clip-path="url(#aw)"/><defs><path id="ax" d="M-54.65 57.2H484.2v700.87H-54.65z"/></defs><clipPath id="ay"><use xlink:href="#ax" overflow="visible"/></clipPath><path fill="none" stroke="#000" stroke-width=".65" d="M356.37 244.82c0-.63.52-1.15 1.16-1.15.64 0 1.15.52 1.15 1.15 0 .64-.52 1.16-1.15 1.16-.64 0-1.16-.52-1.16-1.16zm2.5-.53h4.7v1.05h-4.7v-1.06zm-2.6-4.67h2.48v10.4h-2.5v-10.4z" clip-path="url(#ay)"/><path fill="none" stroke="#000" stroke-width=".78" d="M355.88 234.3h19.07v21.05h-19.07z"/><path fill="none" stroke="#000" stroke-width=".585" d="M358.8 235.96h14.52v17.76h-14.5z"/><path fill="none" stroke="#000" stroke-width=".65" d="M318.38 269.3v35.76"/><path fill="none" stroke="#000" stroke-width=".78" d="M314.8 282h1.46v2.77h-1.47zM316.28 269.52h30.06v35.25h-30.06zM314.8 290.7h1.46v2.77h-1.47z"/><defs><path id="az" d="M-54.65 57.2H484.2v700.87H-54.65z"/></defs><clipPath id="aA"><use xlink:href="#az" overflow="visible"/></clipPath><path fill="#fff" d="M343.1 204.42c1 0 1.83.83 1.83 1.84v22.4c0 1.02-.83 1.85-1.84 1.85h-15.77c-1 0-1.84-.82-1.84-1.83v-22.4c0-1.02.82-1.85 1.83-1.85h15.76z" clip-path="url(#aA)"/><defs><path id="aB" d="M-54.65 57.2H484.2v700.87H-54.65z"/></defs><clipPath id="aC"><use xlink:href="#aB" overflow="visible"/></clipPath><path fill="none" stroke="#231F20" stroke-width=".78" d="M343.1 204.42c1 0 1.83.83 1.83 1.84v22.4c0 1.02-.83 1.85-1.84 1.85h-15.77c-1 0-1.84-.82-1.84-1.83v-22.4c0-1.02.82-1.85 1.83-1.85h15.76z" clip-path="url(#aC)"/><defs><path id="aD" d="M-54.65 57.2H484.2v700.87H-54.65z"/></defs><clipPath id="aE"><use xlink:href="#aD" overflow="visible"/></clipPath><path fill="#fff" d="M340.62 226.7c0 1.04-.83 1.9-1.85 1.9h-9.46c-1 0-1.84-.86-1.84-1.9V208.3c0-1.04.83-1.9 1.85-1.9h9.47c1.02.02 1.85.86 1.85 1.9v18.43z" clip-path="url(#aE)"/><defs><path id="aF" d="M-54.65 57.2H484.2v700.87H-54.65z"/></defs><clipPath id="aG"><use xlink:href="#aF" overflow="visible"/></clipPath><path fill="none" stroke="#231F20" stroke-width=".585" d="M340.62 226.7c0 1.04-.83 1.9-1.85 1.9h-9.46c-1 0-1.84-.86-1.84-1.9V208.3c0-1.04.83-1.9 1.85-1.9h9.47c1.02.02 1.85.86 1.85 1.9v18.43z" clip-path="url(#aG)"/><defs><path id="aH" d="M-54.65 57.2H484.2v700.87H-54.65z"/></defs><clipPath id="aI"><use xlink:href="#aH" overflow="visible"/></clipPath><path fill="#fff" d="M333.83 215.9c.76 0 1.38.62 1.38 1.38 0 .77-.6 1.4-1.37 1.4-.77 0-1.4-.62-1.4-1.4 0-.76.63-1.38 1.4-1.38" clip-path="url(#aI)"/><defs><path id="aJ" d="M-54.65 57.2H484.2v700.87H-54.65z"/></defs><clipPath id="aK"><use xlink:href="#aJ" overflow="visible"/></clipPath><path fill="none" stroke="#231F20" stroke-width=".52" d="M333.83 215.9c.76 0 1.38.62 1.38 1.38 0 .77-.6 1.4-1.37 1.4-.77 0-1.4-.62-1.4-1.4 0-.76.63-1.38 1.4-1.38z" clip-path="url(#aK)"/><defs><path id="aL" d="M-54.65 57.2H484.2v700.87H-54.65z"/></defs><clipPath id="aM"><use xlink:href="#aL" overflow="visible"/></clipPath><path fill="#fff" d="M342.83 212.3c.74 0 1.42.6 1.42 1.35v7.3c0 .75-.68 1.35-1.42 1.35-.74 0-1.43-.6-1.43-1.34v-7.3c0-.75.7-1.35 1.43-1.35" clip-path="url(#aM)"/><defs><path id="aN" d="M-54.65 57.2H484.2v700.87H-54.65z"/></defs><clipPath id="aO"><use xlink:href="#aN" overflow="visible"/></clipPath><path fill="none" stroke="#231F20" stroke-width=".52" d="M342.83 212.3c.74 0 1.42.6 1.42 1.35v7.3c0 .75-.68 1.35-1.42 1.35-.74 0-1.43-.6-1.43-1.34v-7.3c0-.75.7-1.35 1.43-1.35z" clip-path="url(#aO)"/><defs><path id="aP" d="M-54.65 57.2H484.2v700.87H-54.65z"/></defs><clipPath id="aQ"><use xlink:href="#aP" overflow="visible"/></clipPath><path fill="#fff" d="M335.05 211.82l6.8 6.28c.4.34 1 .3 1.36-.1.37-.38.33-1-.07-1.34l-7.06-6c-.33-.27-1.34.88-1.02 1.16" clip-path="url(#aQ)"/><defs><path id="aR" d="M-54.65 57.2H484.2v700.87H-54.65z"/></defs><clipPath id="aS"><use xlink:href="#aR" overflow="visible"/></clipPath><path fill="none" stroke="#231F20" stroke-width=".65" d="M335.05 211.82l6.8 6.28c.4.34 1 .3 1.36-.1.37-.38.33-1-.07-1.34l-7.06-6c-.33-.27-1.34.88-1.02 1.16z" clip-path="url(#aS)"/><defs><path id="aT" d="M-54.65 57.2H484.2v700.87H-54.65z"/></defs><clipPath id="aU"><use xlink:href="#aT" overflow="visible"/></clipPath><path fill="#fff" d="M339.46 218.1h3.3c.34 0 .63-.3.63-.65 0-.35-.3-.63-.65-.63h-3.3c-.35 0-.63.28-.63.64 0 .35.28.64.64.64" clip-path="url(#aU)"/><defs><path id="aV" d="M-54.65 57.2H484.2v700.87H-54.65z"/></defs><clipPath id="aW"><use xlink:href="#aV" overflow="visible"/></clipPath><path fill="none" stroke="#231F20" stroke-width=".52" d="M339.46 218.1h3.3c.34 0 .63-.3.63-.65 0-.35-.3-.63-.65-.63h-3.3c-.35 0-.63.28-.63.64 0 .35.28.64.64.64z" clip-path="url(#aW)"/><defs><path id="aX" d="M-54.65 57.2H484.2v700.87H-54.65z"/></defs><clipPath id="aY"><use xlink:href="#aX" overflow="visible"/></clipPath><path fill="#fff" d="M342.7 219.48c.43 0 .77.35.77.77 0 .43-.35.77-.77.77-.4 0-.76-.34-.76-.77 0-.42.34-.77.76-.77" clip-path="url(#aY)"/><defs><path id="aZ" d="M-54.65 57.2H484.2v700.87H-54.65z"/></defs><clipPath id="ba"><use xlink:href="#aZ" overflow="visible"/></clipPath><path fill="none" stroke="#231F20" stroke-width=".455" d="M342.7 219.48c.43 0 .77.35.77.77 0 .43-.35.77-.77.77-.4 0-.76-.34-.76-.77 0-.42.34-.77.76-.77z" clip-path="url(#ba)"/><defs><path id="bb" d="M-54.65 57.2H484.2v700.87H-54.65z"/></defs><clipPath id="bc"><use xlink:href="#bb" overflow="visible"/></clipPath><path fill="#fff" d="M342.77 213.58c.42 0 .77.35.77.77 0 .43-.35.77-.77.77-.42 0-.76-.34-.76-.77s.35-.77.77-.77" clip-path="url(#bc)"/><defs><path id="bd" d="M-54.65 57.2H484.2v700.87H-54.65z"/></defs><clipPath id="be"><use xlink:href="#bd" overflow="visible"/></clipPath><path fill="none" stroke="#231F20" stroke-width=".455" d="M342.77 213.58c.42 0 .77.35.77.77 0 .43-.35.77-.77.77-.42 0-.76-.34-.76-.77s.35-.77.77-.77z" clip-path="url(#be)"/><path fill="none" stroke="#000" stroke-width=".65" stroke-dashoffset="3" d="M325.7 257.85h18.38" stroke-dasharray="1.936,1.936,1.936,1.936,1.936,1.936"/><path fill="none" stroke="#000" stroke-width=".65" stroke-dashoffset="3" d="M346.02 255v-18.03" stroke-dasharray="1.899,1.899,1.899,1.899,1.899,1.899"/><path fill="none" stroke="#000" stroke-width=".65" stroke-dashoffset="3" d="M343.18 235.07H325.2" stroke-dasharray="1.892,1.892,1.892,1.892,1.892,1.892"/><path fill="none" stroke="#000" stroke-width=".65" d="M324.26 235.07h-.95m22.72.95v-.95h-.95m-.02 22.78h.97v-.95m-23.23.95h.96M323.3 235.03h-2.46v22.82h1.94"/><path fill="#BBBDBF" d="M350.3 161.06h13.34v31.2h-13.32z"/><defs><path id="bf" d="M-54.65 57.2H484.2v700.87H-54.65z"/></defs><clipPath id="bg"><use xlink:href="#bf" overflow="visible"/></clipPath><path fill="none" stroke="#231F20" stroke-width="3.9" d="M208.62 59.15h-20.1L188.4 436h26.54v-12.42h-17.3v-178h3.44v-21.16h-3.45V60.96m265.8 369.85H419m-16.47 0h-50.9m-22.76 0h-45.02m-23.67 0h-43.44" clip-path="url(#bg)"/><defs><path id="bh" d="M-54.65 57.2H484.2v700.87H-54.65z"/></defs><clipPath id="bi"><use xlink:href="#bh" overflow="visible"/></clipPath><path fill="none" stroke="#231F20" stroke-width="5.2" d="M480.96 304.06h-12.34m-30.88 0H418.6m-29.93 0h-41.6" clip-path="url(#bi)"/><path fill="none" stroke="#231F20" stroke-width="6.5" d="M350.3 160.17V382.5M349.08 413v11.33"/><defs><path id="bj" d="M-54.65 57.2H484.2v700.87H-54.65z"/></defs><clipPath id="bk"><use xlink:href="#bj" overflow="visible"/></clipPath><path fill="none" stroke="#231F20" stroke-width="3.9" d="M427.02 278.06l55.23.03-.03 158h-17.65v-12.8h14.56V304.45l2.3.05v-25.8" clip-path="url(#bk)"/><path fill="none" stroke="#231F20" stroke-width="7.8" d="M352.92 262.8h30.22"/><path fill="none" stroke="#231F20" stroke-width="6.5" d="M278.8 126.62h-36.1v40.1m.02 29.44v6.5h40.4v-39"/><path fill="none" stroke="#231F20" stroke-width="3.9" d="M353.24 193.06h10.64l-.1-31.72"/><path fill="#BBBDBF" d="M395.9 422.46v13.64h21.54v-13.6z"/><path fill="none" stroke="#231F20" stroke-width="3.9" d="M395.9 422.46v13.64h21.54v-13.6z"/><path fill="#BBBDBF" d="M330.3 422.46v13.64h20.12v-13.6z"/><path fill="none" stroke="#231F20" stroke-width="3.9" d="M330.3 422.46v13.64h20.12v-13.6z"/><path fill="#BBBDBF" d="M261.6 422.46v13.6h21.65V422.5z"/><path fill="none" stroke="#231F20" stroke-width="3.9" d="M261.6 422.46v13.6h21.65V422.5z"/><defs><path id="bl" d="M-54.65 57.2H484.2v700.87H-54.65z"/></defs><clipPath id="bm"><use xlink:href="#bl" overflow="visible"/></clipPath><path fill="none" stroke="#231F20" stroke-width="3.9" d="M238.46 59.43h40.13l.02 102.32 148.26.25v143.33" clip-path="url(#bm)"/><path fill="none" stroke="#231F20" stroke-width=".78" d="M347.1 408.5l-1.74.03V361.4l1.75-.03v47.13zM243.7 199.9h-1.93v-47.13h1.95v47.12z"/><defs><path id="bn" d="M-54.65 57.2H484.2v700.87H-54.65z"/></defs><clipPath id="bo"><use xlink:href="#bn" overflow="visible"/></clipPath><path fill="none" stroke="#231F20" stroke-width="3.9" stroke-dashoffset="7" d="M201.12 60.34v361.63" clip-path="url(#bo)" stroke-dasharray="5.952,1.952,5.952,1.952,5.952,1.952"/><path fill="#fff" d="M238.22 429.23h18.58v3.16h-18.58z"/><path fill="none" stroke="#000" stroke-width=".78" d="M238.22 429.23h18.58v3.16h-18.58zM238.22 430.88h18.47"/><path fill="#fff" d="M219.1 429.23h19.07v3.16H219.1z"/><path fill="none" stroke="#000" stroke-width=".78" d="M219.1 429.23h19.07v3.16H219.1zM219.1 430.88h19.07"/><path fill="#fff" d="M307.24 429.23h18.58v3.16h-18.58z"/><path fill="none" stroke="#000" stroke-width=".78" d="M307.24 429.23h18.58v3.16h-18.58zM307.24 430.88h18.47"/><path fill="#fff" d="M288.12 429.23h19.07v3.16H288.1z"/><path fill="none" stroke="#000" stroke-width=".78" d="M288.12 429.23h19.07v3.16H288.1zM288.12 430.88h19.07"/><path fill="#fff" d="M373.73 429.23h18.58v3.16h-18.57z"/><path fill="none" stroke="#000" stroke-width=".78" d="M373.73 429.23h18.58v3.16h-18.57zM373.73 430.88h18.47"/><path fill="#fff" d="M354.6 429.23h19.08v3.16H354.6z"/><path fill="none" stroke="#000" stroke-width=".78" d="M354.6 429.23h19.08v3.16H354.6zM354.6 430.88h19.08"/><path fill="#fff" d="M441.6 429.2h18.58v3.17H441.6z"/><path fill="none" stroke="#000" stroke-width=".78" d="M441.6 429.2h18.58v3.17H441.6zM441.6 430.86h18.47"/><path fill="#fff" d="M422.48 429.2h19.07v3.17h-19.07z"/><path fill="none" stroke="#000" stroke-width=".78" d="M422.48 429.2h19.07v3.17h-19.07zM422.48 430.86h19.07"/></g><defs><path id="bp" d="M45.4 158.85h100.15v4.57H45.4z"/></defs><clipPath id="bq"><use xlink:href="#bp" overflow="visible"/></clipPath><path fill="#231F20" d="M145.55 159.23v-.3h-3.4v.3h1.53v4.1h.33v-4.1h1.55zm-5.8 4.1v-.3h-2.84v-1.76h2.54v-.3h-2.53v-1.74h2.82v-.3h-3.13v4.4h3.16zm-5.87 0v-.3h-2.84v-1.76h2.53v-.3h-2.53v-1.74h2.8v-.3h-3.13v4.4h3.18zm-6.28-3.12c0 .64-.54 1.02-1.28 1.02h-1.48v-2h1.5c.8 0 1.27.38 1.27.98zm.5 3.14l-1.46-1.9c.75-.1 1.3-.5 1.3-1.24v-.02c0-.73-.63-1.25-1.58-1.25h-1.85v4.4h.33v-1.82h1.44l1.4 1.84h.42zm-6.24-4.1v-.3h-3.4v.3H120v4.1h.32v-4.1h1.54zm-5.73 2.96c0-.66-.42-1.02-1.45-1.23-1.04-.2-1.28-.5-1.28-.96 0-.47.43-.84 1.08-.84.48 0 .9.14 1.3.5l.22-.26c-.45-.36-.87-.54-1.5-.54-.83 0-1.43.5-1.43 1.16v.02c0 .66.43 1.02 1.5 1.24 1 .2 1.23.47 1.23.94 0 .5-.45.88-1.1.88-.66 0-1.1-.2-1.6-.65l-.2.25c.52.47 1.06.7 1.77.7.85 0 1.46-.5 1.46-1.2m-11.16 1.14v-4.4h-.3v3.83l-3.05-3.84h-.32v4.4h.32v-3.9l3.1 3.9h.25zm-6.77-2.2c0 1.1-.78 1.98-1.87 1.98s-1.9-.9-1.9-2 .8-1.97 1.88-1.97 1.9.9 1.9 1.98v.02zm.34 0s0 0 0-.02c0-1.2-.88-2.27-2.2-2.27-1.35 0-2.24 1.08-2.24 2.28v.02c0 1.2.88 2.26 2.2 2.26 1.35 0 2.24-1.06 2.24-2.27m-6.54-1.9v-.3h-3.4v.3h1.53v4.1h.33v-4.1H92zm-5.8 3.52v-1.7h-1.8v.3h1.48v1.27c-.32.27-.84.5-1.4.5-1.18 0-1.9-.84-1.9-1.98v-.02c0-1.06.76-1.97 1.83-1.97.68 0 1.08.23 1.43.53l.2-.25c-.43-.36-.9-.58-1.6-.58-1.32 0-2.18 1.1-2.18 2.28v.02c0 1.24.82 2.27 2.22 2.27.7 0 1.33-.3 1.73-.67m-6.72.6v-4.42h-.3v3.84l-3.06-3.84h-.3v4.4h.3v-3.9l3.1 3.9h.26zm-6.67-4.42h-.32v4.4h.32v-4.4zm-3.33 4.4v-4.4h-.33v2.04h-2.82v-2.04H66v4.4h.32v-2.06h2.82v2.07h.33zm-6.2-1.13c0-.66-.44-1.02-1.46-1.23-1.03-.2-1.27-.5-1.27-.96 0-.47.43-.84 1.08-.84.5 0 .9.14 1.32.5l.2-.26c-.44-.36-.86-.54-1.5-.54-.82 0-1.42.5-1.42 1.16v.02c0 .66.43 1.02 1.5 1.24 1 .2 1.23.47 1.23.94 0 .5-.45.88-1.1.88-.66 0-1.1-.2-1.6-.65l-.2.25c.52.47 1.06.7 1.77.7.85 0 1.46-.5 1.46-1.2m-6.5-.4h-2.33l1.17-2.54 1.16 2.55zm1.06 1.54l-2.06-4.44h-.3l-2.07 4.44h.34l.56-1.24h2.6l.56 1.24h.36zm-6.1-4.4h-.34l-1.4 3.9-1.28-3.92h-.25l-1.3 3.93-1.38-3.92h-.37l1.6 4.44h.27l1.3-3.83 1.28 3.83h.27l1.6-4.44z" clip-path="url(#bq)"/></svg>