<?xml version="1.0" encoding="utf-8"?>
<!-- Generator: Adobe Illustrator 15.0.0, SVG Export Plug-In . SVG Version: 6.00 Build 0)  -->
<!DOCTYPE svg PUBLIC "-//W3C//DTD SVG 1.1//EN" "http://www.w3.org/Graphics/SVG/1.1/DTD/svg11.dtd">
<svg version="1.1" id="Layer_1" xmlns="http://www.w3.org/2000/svg" xmlns:xlink="http://www.w3.org/1999/xlink" x="0px" y="0px"
	 width="513.359px" height="495.36px" viewBox="0 0 513.359 495.36" enable-background="new 0 0 513.359 495.36"
	 xml:space="preserve">
<g id="Layer_4">
	<g>
		<g>
			<defs>
				<rect id="SVGID_1_" x="-77.667" y="45.323" width="562.414" height="723.335"/>
			</defs>
			<clipPath id="SVGID_2_">
				<use xlink:href="#SVGID_1_"  overflow="visible"/>
			</clipPath>
			<path clip-path="url(#SVGID_2_)" fill="#231F20" d="M416.709,127.944h-0.47l-0.475,1.547h0.295L416.709,127.944z
				 M415.762,127.944h-0.469l-0.472,1.547h0.293L415.762,127.944z M413.543,130.728c0,0.54-0.396,0.966-1.015,0.966
				c-0.619,0-1.062-0.402-1.062-0.948c0-0.474,0.42-0.924,1.051-0.924C413.122,129.822,413.543,130.206,413.543,130.728
				 M413.879,128.25c-0.365-0.3-0.738-0.48-1.242-0.48c-1.099,0-1.746,1.002-1.746,2.286c0,0.864,0.192,1.296,0.529,1.632
				c0.264,0.264,0.641,0.426,1.104,0.426c0.853,0,1.506-0.588,1.506-1.404c0-0.792-0.666-1.296-1.453-1.296
				c-0.61,0-0.965,0.306-1.192,0.642c-0.006-1.086,0.469-1.854,1.229-1.854c0.386,0,0.679,0.15,0.99,0.414L413.879,128.25z
				 M409.59,127.944h-0.472l-0.471,1.547h0.293L409.59,127.944z M407.213,129.15c0,0.486-0.402,0.954-1.043,0.954
				c-0.613,0-1.033-0.384-1.033-0.924c0-0.528,0.379-0.99,1.008-0.99C406.775,128.19,407.213,128.61,407.213,129.15
				 M407.788,129.834c0-0.846-0.19-1.302-0.521-1.632c-0.271-0.27-0.625-0.432-1.104-0.432c-0.895,0-1.514,0.63-1.514,1.434
				c0,0.762,0.603,1.308,1.465,1.308c0.582,0,0.959-0.306,1.188-0.672c0.018,1.074-0.492,1.842-1.248,1.842
				c-0.371,0-0.689-0.15-1.031-0.45l-0.275,0.366c0.354,0.294,0.75,0.516,1.296,0.516
				C407.081,132.114,407.788,131.172,407.788,129.834 M401.618,131.542l-1.129-1.504l1.086-1.436h-0.385l-0.895,1.201l-0.904-1.201
				h-0.389l1.088,1.441l-1.131,1.499h0.383l0.938-1.264l0.941,1.264H401.618z M396.553,127.944h-0.469l-0.476,1.547h0.295
				L396.553,127.944z M395.605,127.944h-0.469l-0.471,1.547h0.293L395.605,127.944z M391.082,128.274h2.311l-1.896,3.768h0.526
				l1.908-3.846v-0.354h-2.85V128.274z M389.738,127.944h-0.469l-0.471,1.547h0.293L389.738,127.944z M387.439,129.948
				c0,0.924-0.485,1.734-1.271,1.734s-1.289-0.816-1.289-1.746s0.49-1.734,1.276-1.734
				C386.941,128.202,387.439,129.024,387.439,129.948 M387.932,129.936c0-1.182-0.684-2.166-1.764-2.166
				c-1.086,0-1.781,0.996-1.781,2.178c0,1.182,0.684,2.166,1.77,2.166C387.236,132.114,387.932,131.118,387.932,129.936
				 M381.549,128.166l0.113,0.384l0.791-0.246v3.738h0.469v-4.23h-0.348L381.549,128.166z"/>
		</g>
		<g>
			<defs>
				<rect id="SVGID_3_" x="-77.667" y="45.323" width="562.414" height="723.335"/>
			</defs>
			<clipPath id="SVGID_4_">
				<use xlink:href="#SVGID_3_"  overflow="visible"/>
			</clipPath>
			<path clip-path="url(#SVGID_4_)" fill="#231F20" d="M416.538,120.246v3.771h0.523v-4.655h-0.531l-1.694,2.54l-1.695-2.54h-0.533
				v4.655h0.512v-3.764l1.697,2.487h0.025L416.538,120.246z M410.95,121.696c0,1.064-0.758,1.915-1.819,1.915
				c-1.064,0-1.836-0.864-1.836-1.928s0.758-1.915,1.821-1.915C410.181,119.768,410.95,120.632,410.95,121.696 M411.497,121.683
				c0-1.29-0.95-2.401-2.366-2.401c-1.418,0-2.382,1.124-2.382,2.414c0,1.29,0.949,2.401,2.367,2.401
				C410.532,124.097,411.497,122.973,411.497,121.683 M405.301,121.696c0,1.064-0.758,1.915-1.822,1.915s-1.836-0.864-1.836-1.928
				s0.758-1.915,1.822-1.915C404.527,119.768,405.301,120.632,405.301,121.696 M405.846,121.683c0-1.29-0.951-2.401-2.367-2.401
				c-1.418,0-2.381,1.124-2.381,2.414c0,1.29,0.951,2.401,2.367,2.401S405.846,122.973,405.846,121.683 M399.646,120.771
				c0,0.605-0.498,0.964-1.197,0.964h-1.43v-1.889h1.438C399.209,119.847,399.646,120.193,399.646,120.771 M400.346,124.017
				l-1.431-1.902c0.73-0.133,1.265-0.585,1.265-1.363c0-0.838-0.658-1.39-1.683-1.39h-2.004v4.655h0.525v-1.809h1.332l1.348,1.809
				H400.346z M394.84,121.696c0,1.038-0.752,1.836-1.93,1.836h-1.091v-3.685h1.091C394.088,119.847,394.84,120.659,394.84,121.696
				 M395.385,121.683c0-1.317-1.01-2.321-2.475-2.321h-1.615v4.655h1.615C394.375,124.017,395.385,123,395.385,121.683
				 M390.205,119.362h-3.365v4.655h3.397v-0.479h-2.872v-1.629h2.538v-0.479h-2.538v-1.589h2.84V119.362L390.205,119.362z
				 M384.119,123.545h-1.562v-1.643h1.471c0.812,0,1.236,0.293,1.236,0.805C385.264,123.232,384.824,123.545,384.119,123.545
				 M383.934,121.437h-1.377v-1.603h1.416c0.666,0,1.031,0.299,1.031,0.765C385.004,121.151,384.564,121.437,383.934,121.437
				 M384.02,119.362h-1.979v4.655h2.065c1.021,0,1.691-0.472,1.691-1.277c0-0.645-0.447-0.964-0.998-1.13
				c0.365-0.16,0.736-0.472,0.736-1.084C385.535,119.813,384.938,119.362,384.02,119.362"/>
		</g>
		<g>
			<defs>
				<rect id="SVGID_5_" x="-77.667" y="45.323" width="562.414" height="723.335"/>
			</defs>
			<clipPath id="SVGID_6_">
				<use xlink:href="#SVGID_5_"  overflow="visible"/>
			</clipPath>
			<path clip-path="url(#SVGID_6_)" fill="#231F20" d="M417.115,386.995h-0.467l-0.475,1.547h0.295L417.115,386.995z
				 M416.17,386.995h-0.47l-0.471,1.547h0.293L416.17,386.995z M413.95,388.999c0,0.926-0.485,1.734-1.271,1.734
				c-0.787,0-1.291-0.816-1.291-1.746s0.492-1.734,1.279-1.734C413.452,387.252,413.95,388.075,413.95,388.999 M414.443,388.987
				c0-1.182-0.684-2.166-1.764-2.166c-1.086,0-1.783,0.996-1.783,2.178c0,1.184,0.686,2.166,1.771,2.166
				C413.747,391.165,414.443,390.168,414.443,388.987 M409.59,386.995h-0.472l-0.471,1.547h0.293L409.59,386.995z M407.213,388.202
				c0,0.484-0.402,0.953-1.043,0.953c-0.613,0-1.033-0.383-1.033-0.924c0-0.527,0.379-0.99,1.008-0.99
				C406.775,387.241,407.213,387.661,407.213,388.202 M407.788,388.885c0-0.846-0.19-1.303-0.521-1.633
				c-0.271-0.27-0.625-0.432-1.104-0.432c-0.895,0-1.514,0.631-1.514,1.436c0,0.762,0.603,1.309,1.465,1.309
				c0.582,0,0.959-0.307,1.188-0.674c0.018,1.074-0.492,1.844-1.248,1.844c-0.371,0-0.689-0.15-1.031-0.449l-0.275,0.365
				c0.354,0.293,0.75,0.516,1.296,0.516C407.081,391.165,407.788,390.223,407.788,388.885 M401.618,390.594l-1.129-1.504
				l1.086-1.438h-0.385l-0.895,1.201l-0.904-1.201h-0.389l1.088,1.441l-1.131,1.498h0.383l0.938-1.264l0.941,1.264h0.396V390.594z
				 M396.553,386.995h-0.469l-0.476,1.547h0.295L396.553,386.995z M395.605,386.995h-0.469l-0.471,1.547h0.293L395.605,386.995z
				 M391.082,387.325h2.311l-1.896,3.77h0.526l1.908-3.848v-0.354h-2.85V387.325z M389.738,386.995h-0.469l-0.471,1.547h0.293
				L389.738,386.995z M387.439,388.999c0,0.926-0.485,1.734-1.271,1.734s-1.289-0.816-1.289-1.746s0.49-1.734,1.276-1.734
				C386.941,387.252,387.439,388.075,387.439,388.999 M387.932,388.987c0-1.182-0.684-2.166-1.764-2.166
				c-1.086,0-1.781,0.996-1.781,2.178c0,1.184,0.684,2.166,1.77,2.166C387.236,391.165,387.932,390.168,387.932,388.987
				 M381.549,387.217l0.113,0.385l0.791-0.246v3.738h0.469v-4.229h-0.348L381.549,387.217z"/>
		</g>
		<g>
			<defs>
				<rect id="SVGID_7_" x="-77.667" y="45.323" width="562.414" height="723.335"/>
			</defs>
			<clipPath id="SVGID_8_">
				<use xlink:href="#SVGID_7_"  overflow="visible"/>
			</clipPath>
			<path clip-path="url(#SVGID_8_)" fill="#231F20" d="M416.538,379.297v3.771h0.523v-4.656h-0.531l-1.694,2.541l-1.695-2.541
				h-0.533v4.656h0.512v-3.766l1.697,2.488h0.025L416.538,379.297z M410.95,380.747c0,1.064-0.758,1.916-1.819,1.916
				c-1.064,0-1.836-0.863-1.836-1.928s0.758-1.916,1.821-1.916C410.181,378.819,410.95,379.684,410.95,380.747 M411.497,380.735
				c0-1.291-0.95-2.402-2.366-2.402c-1.418,0-2.382,1.125-2.382,2.414c0,1.291,0.949,2.402,2.367,2.402
				C410.532,383.149,411.497,382.024,411.497,380.735 M405.301,380.747c0,1.064-0.758,1.916-1.822,1.916s-1.836-0.863-1.836-1.928
				s0.758-1.916,1.822-1.916C404.527,378.819,405.301,379.684,405.301,380.747 M405.846,380.735c0-1.291-0.951-2.402-2.367-2.402
				c-1.418,0-2.381,1.125-2.381,2.414c0,1.291,0.951,2.402,2.367,2.402S405.846,382.024,405.846,380.735 M399.646,379.823
				c0,0.605-0.498,0.965-1.197,0.965h-1.43v-1.889h1.438C399.209,378.899,399.646,379.245,399.646,379.823 M400.346,383.069
				l-1.431-1.902c0.73-0.133,1.265-0.586,1.265-1.363c0-0.838-0.658-1.391-1.683-1.391h-2.004v4.656h0.525v-1.811h1.332l1.348,1.811
				H400.346z M394.84,380.747c0,1.039-0.752,1.836-1.93,1.836h-1.091v-3.684h1.091C394.088,378.899,394.84,379.709,394.84,380.747
				 M395.385,380.735c0-1.318-1.01-2.322-2.475-2.322h-1.615v4.656h1.615C394.375,383.069,395.385,382.051,395.385,380.735
				 M390.205,378.413h-3.365v4.656h3.397v-0.479h-2.872v-1.631h2.538v-0.479h-2.538v-1.59h2.84V378.413L390.205,378.413z
				 M384.119,382.596h-1.562v-1.643h1.471c0.812,0,1.236,0.293,1.236,0.805C385.264,382.284,384.824,382.596,384.119,382.596
				 M383.934,380.489h-1.377v-1.604h1.416c0.666,0,1.031,0.299,1.031,0.766C385.004,380.202,384.564,380.489,383.934,380.489
				 M384.02,378.413h-1.979v4.656h2.065c1.021,0,1.691-0.473,1.691-1.277c0-0.645-0.447-0.965-0.998-1.131
				c0.365-0.16,0.736-0.471,0.736-1.084C385.535,378.866,384.938,378.413,384.02,378.413"/>
		</g>
	</g>
	<rect x="78.958" y="47.534" fill="#FFFFFF" width="33.149" height="44.2"/>
	<rect x="112.107" y="47.534" fill="#BBBDBF" width="33.15" height="44.2"/>
	<polygon fill="#FFFFFF" points="144.407,99.384 144.407,91.734 120.607,91.734 120.607,99.384 112.107,99.384 112.107,141.034 
		145.257,141.034 145.257,99.384 	"/>
	<polygon fill="#FFFFFF" points="78.958,98.534 58.557,98.534 58.557,120.634 45.807,120.634 45.807,141.034 78.958,141.034 	"/>
	<polygon fill="#FFFFFF" points="78.107,98.534 78.107,141.034 112.107,141.034 112.107,124.034 105.307,124.034 105.307,110.434 
		89.157,110.434 89.157,97.684 	"/>
	<polygon fill="#FFFFFF" points="45.807,46.684 78.107,46.684 78.107,91.734 64.507,91.734 64.507,84.934 60.257,84.934 
		60.257,74.734 49.208,74.734 45.807,74.734 	"/>
	<g>
		<g>
			<defs>
				<rect id="SVGID_9_" x="-77.667" y="45.323" width="562.414" height="723.335"/>
			</defs>
			<clipPath id="SVGID_10_">
				<use xlink:href="#SVGID_9_"  overflow="visible"/>
			</clipPath>
			<polygon clip-path="url(#SVGID_10_)" fill="none" stroke="#262626" stroke-width="2.053" stroke-miterlimit="10" points="
				145.28,141.266 45.56,141.266 45.56,46.97 78.849,46.97 145.28,46.97 			"/>
		</g>
	</g>
	<path fill="none" stroke="#262626" stroke-width="1.173" stroke-miterlimit="10" d="M58.904,98.884h61.445v-7.332 M49.226,84.512
		h11.292 M48.932,92.432h9.973v0.879 M58.904,96.538v24.197H46.438 M45.56,92.432h3.372V74.394h11.586v10.558h3.959v6.893h81.099
		 M78.702,141.559V98.542 M111.992,141.559V98.542 M111.992,91.258V47.63 M78.556,91.258V47.63"/>
	<g>
		<g>
			<defs>
				<rect id="SVGID_11_" x="-77.667" y="45.323" width="562.414" height="723.335"/>
			</defs>
			<clipPath id="SVGID_12_">
				<use xlink:href="#SVGID_11_"  overflow="visible"/>
			</clipPath>
			<path clip-path="url(#SVGID_12_)" fill="none" stroke="#000000" stroke-width="0.425" d="M55.556,93.233
				c0,1.796,1.455,3.251,3.251,3.251 M55.555,93.233h3.252v-0.188h-3.252V93.233z M110.599,102.039
				c-1.796,0-3.251-1.455-3.251-3.251 M110.786,102.041h-0.188v-3.253h0.188V102.041z M77.549,101.963
				c-1.796,0-3.251-1.455-3.251-3.251 M77.737,101.966h-0.188v-3.253h0.188V101.966z M113.452,102.037
				c1.796,0,3.253-1.455,3.253-3.251 M113.267,102.039h0.187v-3.253h-0.187V102.039z M80.764,101.963
				c1.795,0,3.251-1.455,3.251-3.251 M80.576,101.966h0.188v-3.253h-0.188V101.966z M114.065,88.434
				c1.795,0,3.251,1.455,3.251,3.251 M113.878,88.432h0.187v3.253h-0.187V88.432z M95.09,88.325c-1.794,0-3.25,1.456-3.25,3.251
				 M95.278,88.324H95.09v3.253h0.188V88.324z M67.923,90.591c0-1.796-1.456-3.251-3.252-3.251 M67.925,90.591h-3.254v0.187h3.254
				V90.591z"/>
		</g>
	</g>
	<path fill="none" stroke="#000000" stroke-width="0.452" d="M49.514,107.683l8.957,0.004 M46.257,108.881l12.214,0.003
		 M46.238,110.079l12.205,0.009 M46.281,111.276l12.231,0.006 M46.321,112.474l12.191,0.003 M46.321,113.671l12.191,0.006
		 M46.342,114.924l12.17-0.002"/>
	<path fill="none" stroke="#000000" stroke-width="0.425" d="M46.285,110.434l3.666-2.693l-0.189-0.557l0.924,0.877l-0.26-0.64
		l1.768-1.07 M45.952,99.727h6.378 M45.952,100.925h6.378 M45.952,102.122h6.378 M45.952,103.32h6.378 M45.952,104.517h6.378
		 M45.952,105.715h6.315 M45.829,106.913h5.474 M46.184,107.866h3.554"/>
	<line fill="none" stroke="#000000" stroke-width="0.452" x1="51.764" y1="106.486" x2="58.526" y2="106.486"/>
	<path fill="none" stroke="#000000" stroke-width="0.425" d="M94.589,98.729l0.929,2.883l0.587-0.048l-1.076,0.684l0.685-0.098
		l0.611,2.127 M103.73,99.266v4.986 M102.532,99.266v4.986 M101.335,99.266v4.986 M100.137,99.266v4.986 M98.939,99.266v4.889
		 M97.742,99.266v4.889 M96.545,99.266v4.889 M95.346,99.266v1.655"/>
	<path fill="#FFFFFF" d="M92.779,104.984h11.292v-0.586H92.779V104.984z M104.366,105.278H92.486v-1.173h11.88L104.366,105.278
		L104.366,105.278z"/>
	<path fill="none" stroke="#262626" stroke-width="0.425" d="M92.779,104.984h11.292v-0.586H92.779V104.984z M104.366,105.278
		H92.486v-1.173h11.88L104.366,105.278L104.366,105.278z"/>
	<path fill="#FFFFFF" d="M52.516,115.191h0.588V99.859h-0.588V115.191z M52.224,99.46h1.172v16.128h-1.172V99.46z"/>
	<path fill="none" stroke="#262626" stroke-width="0.495" d="M52.516,115.191h0.588V99.859h-0.588V115.191z M52.224,99.46h1.172
		v16.128h-1.172V99.46z"/>
	<path fill="none" stroke="#000000" stroke-width="0.425" d="M95.245,102.247v1.931 M94.048,99.291v4.888 M92.85,99.291v4.888
		 M95.197,105.33v4.888 M93.999,105.33v4.888 M92.802,105.33v4.888 M103.828,105.305v4.987 M102.631,105.305v4.987 M101.433,105.305
		v4.987 M100.11,105.305v4.987 M98.912,105.305v4.889 M97.714,105.305v4.889 M96.517,105.305v4.889"/>
	<path fill="none" stroke="#262626" stroke-width="1.173" stroke-miterlimit="10" d="M105.099,104.457v6.452 M88.674,98.884v11.292
		h16.425v13.199h6.746"/>
	<path fill="none" stroke="#000000" stroke-width="0.442" d="M105.341,109.932h6.295 M105.341,111.129h6.295 M105.341,112.327h6.295
		 M105.341,113.525h6.295 M105.341,114.722h6.295 M105.341,115.92h6.295 M105.341,117.118h6.295 M105.341,118.315h6.295
		 M105.341,119.513h6.295 M105.341,120.71h6.295 M105.341,121.908h6.295"/>
	<g>
		<path d="M56.795,77.439H53.43v1.547h2.983v0.935H53.43v1.598h3.408v0.935h-4.453v-5.949h4.411L56.795,77.439L56.795,77.439z"/>
	</g>
	<g>
		<g>
			<defs>
				<rect id="SVGID_13_" x="-77.667" y="45.323" width="562.414" height="723.335"/>
			</defs>
			<clipPath id="SVGID_14_">
				<use xlink:href="#SVGID_13_"  overflow="visible"/>
			</clipPath>
		</g>
		<g>
			<defs>
				<rect id="SVGID_15_" x="-77.667" y="45.323" width="562.414" height="723.335"/>
			</defs>
			<clipPath id="SVGID_16_">
				<use xlink:href="#SVGID_15_"  overflow="visible"/>
			</clipPath>
			<path clip-path="url(#SVGID_16_)" fill="#231F20" d="M288.445,297.661l-2.932-3.731h-0.492v4.655h0.513v-3.817l3.006,3.817h0.418
				v-4.655h-0.513V297.661z M283.932,293.929h-3.365v4.655h3.396v-0.479h-2.871v-1.629h2.539v-0.479h-2.539v-1.59h2.84V293.929z
				 M278.725,296.489v2.096h0.525v-4.655h-0.525v2.067h-2.688v-2.067h-0.525v4.655h0.525v-2.096H278.725z M274.596,297.846
				l-0.348-0.34c-0.445,0.427-0.863,0.672-1.502,0.672c-1.023,0-1.804-0.844-1.804-1.928s0.771-1.916,1.804-1.916
				c0.631,0,1.069,0.267,1.463,0.639l0.358-0.387c-0.465-0.438-0.971-0.737-1.815-0.737c-1.369,0-2.354,1.084-2.354,2.414
				c0,1.344,0.99,2.401,2.334,2.401C273.576,298.665,274.109,298.338,274.596,297.846 M268.377,294.415h1.562v-0.485h-3.655v0.485
				h1.562v4.17h0.531L268.377,294.415L268.377,294.415z M264.727,298.584h0.525v-4.655h-0.525V298.584z M261.781,295.963
				l1.994-2.034h-0.678l-2.674,2.78v-2.78h-0.525v4.655h0.525v-1.25l0.99-1.004l1.789,2.254h0.657L261.781,295.963z"/>
		</g>
		<g>
			<defs>
				<rect id="SVGID_17_" x="-77.667" y="45.323" width="562.414" height="723.335"/>
			</defs>
			<clipPath id="SVGID_18_">
				<use xlink:href="#SVGID_17_"  overflow="visible"/>
			</clipPath>
			<path clip-path="url(#SVGID_18_)" fill="#231F20" d="M376.771,313.295h1.562v-0.486h-3.658v0.486h1.562v4.168h0.533
				L376.771,313.295L376.771,313.295z M373.918,312.809h-3.365v4.654h3.398v-0.479h-2.873v-1.629h2.541v-0.479h-2.541v-1.59h2.84
				V312.809L373.918,312.809z M366.703,313.973c0-0.426,0.387-0.758,0.989-0.758c0.48,0,0.912,0.152,1.345,0.504l0.307-0.402
				c-0.473-0.379-0.957-0.572-1.637-0.572c-0.886,0-1.529,0.531-1.529,1.273c0,0.773,0.492,1.119,1.562,1.352
				c0.979,0.207,1.211,0.453,1.211,0.893c0,0.473-0.412,0.797-1.037,0.797c-0.646,0-1.111-0.219-1.599-0.658l-0.323,0.387
				c0.559,0.498,1.161,0.744,1.899,0.744c0.926,0,1.59-0.52,1.59-1.322c0-0.719-0.479-1.098-1.516-1.324
				C366.943,314.665,366.703,314.418,366.703,313.973 M364.674,315.143c0,1.064-0.758,1.916-1.822,1.916
				c-1.062,0-1.834-0.863-1.834-1.93c0-1.064,0.758-1.914,1.822-1.914C363.902,313.215,364.674,314.079,364.674,315.143
				 M365.219,315.129c0-1.289-0.949-2.398-2.367-2.398c-1.416,0-2.381,1.121-2.381,2.412c0,1.289,0.951,2.4,2.369,2.4
				C364.256,317.543,365.219,316.42,365.219,315.129 M356.828,317.463h3.145v-0.482h-2.619v-4.172h-0.524L356.828,317.463
				L356.828,317.463z M355.91,316.725l-0.347-0.338c-0.444,0.426-0.864,0.672-1.504,0.672c-1.022,0-1.801-0.846-1.801-1.93
				s0.771-1.914,1.801-1.914c0.633,0,1.072,0.268,1.463,0.639l0.359-0.387c-0.465-0.438-0.969-0.736-1.814-0.736
				c-1.371,0-2.354,1.084-2.354,2.412c0,1.346,0.99,2.4,2.334,2.4C354.893,317.543,355.426,317.217,355.91,316.725"/>
		</g>
		<g>
			<defs>
				<rect id="SVGID_19_" x="-77.667" y="45.323" width="562.414" height="723.335"/>
			</defs>
			<clipPath id="SVGID_20_">
				<use xlink:href="#SVGID_19_"  overflow="visible"/>
			</clipPath>
			<path clip-path="url(#SVGID_20_)" fill="#231F20" d="M440.471,199.295h1.562v-0.486h-3.655v0.486h1.562v4.169h0.531
				L440.471,199.295L440.471,199.295z M437.616,198.809h-3.362v4.655h3.397v-0.479h-2.873v-1.629h2.539v-0.479h-2.539v-1.589h2.838
				V198.809L437.616,198.809z M430.402,199.973c0-0.426,0.387-0.758,0.992-0.758c0.479,0,0.91,0.153,1.342,0.505l0.308-0.405
				c-0.474-0.38-0.957-0.572-1.638-0.572c-0.883,0-1.526,0.532-1.526,1.276c0,0.772,0.489,1.118,1.562,1.35
				c0.978,0.207,1.209,0.453,1.209,0.891c0,0.473-0.412,0.798-1.037,0.798c-0.645,0-1.108-0.219-1.596-0.658l-0.326,0.386
				c0.56,0.499,1.164,0.745,1.902,0.745c0.924,0,1.59-0.519,1.59-1.324c0-0.718-0.479-1.097-1.516-1.323
				C430.643,200.664,430.402,200.418,430.402,199.973 M428.374,201.143c0,1.064-0.76,1.915-1.821,1.915
				c-1.064,0-1.836-0.864-1.836-1.928s0.758-1.915,1.821-1.915C427.603,199.215,428.374,200.079,428.374,201.143 M428.92,201.13
				c0-1.29-0.951-2.401-2.367-2.401s-2.381,1.124-2.381,2.414s0.95,2.401,2.366,2.401S428.92,202.42,428.92,201.13 M420.527,203.464
				h3.146v-0.485h-2.621v-4.17h-0.525V203.464z M419.609,202.726l-0.346-0.339c-0.445,0.425-0.863,0.671-1.502,0.671
				c-1.025,0-1.804-0.844-1.804-1.928s0.771-1.915,1.804-1.915c0.631,0,1.069,0.266,1.463,0.638l0.359-0.385
				c-0.468-0.439-0.972-0.739-1.816-0.739c-1.369,0-2.354,1.084-2.354,2.414c0,1.344,0.99,2.401,2.334,2.401
				C418.594,203.544,419.124,203.218,419.609,202.726"/>
		</g>
		<g>
			<defs>
				<rect id="SVGID_21_" x="-77.667" y="45.323" width="562.414" height="723.335"/>
			</defs>
			<clipPath id="SVGID_22_">
				<use xlink:href="#SVGID_21_"  overflow="visible"/>
			</clipPath>
			<path clip-path="url(#SVGID_22_)" fill="#231F20" d="M411.387,278.29v2.094h0.524v-4.653h-0.524v2.067h-2.688v-2.067h-0.524
				v4.653h0.524v-2.094H411.387z M405.627,276.213h1.563v-0.483h-3.658v0.483h1.562v4.17h0.531L405.627,276.213L405.627,276.213z
				 M402.23,278.683h-2.121l1.062-2.375L402.23,278.683z M401.426,275.696h-0.492l-2.123,4.688h0.539l0.553-1.229h2.533l0.547,1.229
				h0.564L401.426,275.696z M396.491,279.913h-1.563v-1.645h1.471c0.812,0,1.236,0.293,1.236,0.807
				C397.635,279.599,397.197,279.913,396.491,279.913 M396.305,277.804h-1.377v-1.603h1.416c0.666,0,1.03,0.299,1.03,0.764
				C397.374,277.519,396.936,277.804,396.305,277.804 M396.391,275.729h-1.979v4.654h2.065c1.02,0,1.691-0.473,1.691-1.277
				c0-0.645-0.447-0.963-0.998-1.129c0.364-0.16,0.737-0.473,0.737-1.084C397.907,276.181,397.309,275.729,396.391,275.729"/>
		</g>
		<g>
			<defs>
				<rect id="SVGID_23_" x="-77.667" y="45.323" width="562.414" height="723.335"/>
			</defs>
			<clipPath id="SVGID_24_">
				<use xlink:href="#SVGID_23_"  overflow="visible"/>
			</clipPath>
			<path clip-path="url(#SVGID_24_)" fill="#231F20" d="M370.258,202.466h-0.875v0.998h0.875V202.466z M367.469,201.37v2.095h0.523
				v-4.655h-0.523v2.068h-2.688v-2.068h-0.524v4.655h0.524v-2.095H367.469z M363.338,202.726l-0.346-0.339
				c-0.445,0.426-0.863,0.672-1.503,0.672c-1.022,0-1.803-0.845-1.803-1.929s0.771-1.915,1.803-1.915
				c0.632,0,1.07,0.266,1.464,0.639l0.358-0.386c-0.467-0.439-0.971-0.738-1.815-0.738c-1.369,0-2.354,1.084-2.354,2.414
				c0,1.343,0.99,2.4,2.334,2.4C362.32,203.543,362.854,203.217,363.338,202.726 M358.258,198.81h-3.365v4.655h3.398v-0.479h-2.873
				v-1.63h2.541v-0.478h-2.541v-1.59h2.84V198.81L358.258,198.81z M353.051,199.693v3.771h0.525v-4.655h-0.531l-1.695,2.54
				l-1.697-2.54h-0.53v4.655h0.512V199.7l1.695,2.487h0.026L353.051,199.693z"/>
		</g>
		<g>
			<defs>
				<rect id="SVGID_25_" x="-77.667" y="45.323" width="562.414" height="723.335"/>
			</defs>
			<clipPath id="SVGID_26_">
				<use xlink:href="#SVGID_25_"  overflow="visible"/>
			</clipPath>
			<path clip-path="url(#SVGID_26_)" fill="#231F20" d="M387.309,233.658c0,1.038-0.752,1.836-1.928,1.836h-1.092v-3.684h1.092
				C386.557,231.81,387.309,232.621,387.309,233.658 M387.854,233.645c0-1.317-1.01-2.321-2.473-2.321h-1.617v4.655h1.617
				C386.844,235.979,387.854,234.961,387.854,233.645 M382.385,234.981h-0.875v0.997h0.875V234.981z M376.568,235.201l-1.33-3.877
				h-0.571l1.662,4.688h0.438l1.283-3.777l1.277,3.777h0.444l1.662-4.688h-0.551l-1.33,3.877l-1.277-3.89h-0.432L376.568,235.201z"
				/>
		</g>
		<g>
			<defs>
				<rect id="SVGID_27_" x="-77.667" y="45.323" width="562.414" height="723.335"/>
			</defs>
			<clipPath id="SVGID_28_">
				<use xlink:href="#SVGID_27_"  overflow="visible"/>
			</clipPath>
			<path clip-path="url(#SVGID_28_)" fill="#231F20" d="M267.955,128.713v3.771h0.524v-4.655h-0.531l-1.696,2.54l-1.695-2.54h-0.531
				v4.655h0.513v-3.764l1.694,2.487h0.027L267.955,128.713z M262.369,130.163c0,1.064-0.759,1.915-1.822,1.915
				c-1.064,0-1.836-0.864-1.836-1.928s0.758-1.915,1.822-1.915C261.597,128.235,262.369,129.099,262.369,130.163 M262.914,130.15
				c0-1.29-0.951-2.401-2.367-2.401s-2.381,1.124-2.381,2.414s0.951,2.401,2.367,2.401
				C261.951,132.564,262.914,131.44,262.914,130.15 M256.716,130.163c0,1.064-0.758,1.915-1.821,1.915s-1.835-0.864-1.835-1.928
				s0.758-1.915,1.821-1.915C255.946,128.235,256.716,129.099,256.716,130.163 M257.261,130.15c0-1.29-0.95-2.401-2.366-2.401
				s-2.382,1.124-2.382,2.414s0.951,2.401,2.368,2.401C256.297,132.564,257.261,131.44,257.261,130.15 M251.065,129.239
				c0,0.604-0.499,0.964-1.196,0.964h-1.431v-1.889h1.437C250.625,128.314,251.065,128.66,251.065,129.239 M251.762,132.484
				l-1.43-1.902c0.731-0.133,1.264-0.585,1.264-1.363c0-0.838-0.658-1.39-1.683-1.39h-2.001v4.655h0.524v-1.809h1.329l1.352,1.809
				H251.762z"/>
		</g>
		<g>
			<defs>
				<rect id="SVGID_29_" x="-77.667" y="45.323" width="562.414" height="723.335"/>
			</defs>
			<clipPath id="SVGID_30_">
				<use xlink:href="#SVGID_29_"  overflow="visible"/>
			</clipPath>
			<path clip-path="url(#SVGID_30_)" fill="#231F20" d="M283.781,123.352v-1.854h-1.922v0.472h1.418v1.157
				c-0.319,0.26-0.812,0.466-1.346,0.466c-1.129,0-1.842-0.825-1.842-1.942c0-1.044,0.738-1.915,1.77-1.915
				c0.66,0,1.06,0.219,1.418,0.532l0.338-0.399c-0.465-0.393-0.95-0.619-1.735-0.619c-1.396,0-2.334,1.131-2.334,2.414
				c0,1.337,0.903,2.401,2.367,2.401C282.697,124.064,283.35,123.738,283.781,123.352 M277.924,123.06l-2.934-3.731h-0.492v4.655
				h0.512v-3.817l3.006,3.817h0.42v-4.655h-0.512V123.06L277.924,123.06z M272.609,123.984h0.525v-4.655h-0.525V123.984z
				 M269.418,123.339l-1.656-4.01h-0.586l2.002,4.688h0.467l2.002-4.688h-0.565L269.418,123.339z M265.688,123.984h0.525v-4.655
				h-0.525V123.984z M261.525,123.984h3.146v-0.485h-2.621v-4.17h-0.523L261.525,123.984L261.525,123.984z M259.195,122.987h-0.875
				v0.998h0.875V122.987z M256.351,123.352v-1.854h-1.922v0.472h1.416v1.157c-0.318,0.26-0.811,0.466-1.343,0.466
				c-1.131,0-1.842-0.825-1.842-1.942c0-1.044,0.737-1.915,1.769-1.915c0.658,0,1.058,0.219,1.416,0.532l0.34-0.399
				c-0.466-0.393-0.951-0.619-1.735-0.619c-1.396,0-2.334,1.131-2.334,2.414c0,1.337,0.904,2.401,2.367,2.401
				C255.266,124.064,255.918,123.738,256.351,123.352 M250.493,123.06l-2.934-3.731h-0.492v4.655h0.513v-3.817l3.006,3.817h0.419
				v-4.655h-0.512V123.06z M245.179,123.984h0.525v-4.655h-0.525V123.984z M243.303,123.06l-2.932-3.731h-0.492v4.655h0.512v-3.817
				l3.006,3.817h0.419v-4.655h-0.513V123.06L243.303,123.06z M237.991,123.984h0.523v-4.655h-0.523V123.984z M236.289,121.663
				c0,1.038-0.752,1.836-1.93,1.836h-1.09v-3.684h1.09C235.537,119.815,236.289,120.626,236.289,121.663 M236.833,121.65
				c0-1.317-1.012-2.321-2.475-2.321h-1.615v4.655h1.615C235.823,123.984,236.833,122.967,236.833,121.65"/>
		</g>
		<g>
			<defs>
				<rect id="SVGID_31_" x="-77.667" y="45.323" width="562.414" height="723.335"/>
			</defs>
			<clipPath id="SVGID_32_">
				<use xlink:href="#SVGID_31_"  overflow="visible"/>
			</clipPath>
			<path clip-path="url(#SVGID_32_)" fill="#231F20" d="M212.995,234.849h-3.347v4.655h0.525v-2.028h2.521v-0.479h-2.521v-1.662
				h2.82L212.995,234.849L212.995,234.849z M208.558,234.849h-3.365v4.655h3.399v-0.479h-2.873v-1.629h2.54v-0.479h-2.54v-1.589
				h2.839V234.849z M203.539,236.259c0,0.605-0.499,0.965-1.197,0.965h-1.43v-1.889h1.436
				C203.099,235.335,203.539,235.68,203.539,236.259 M204.236,239.504l-1.43-1.901c0.732-0.134,1.264-0.586,1.264-1.363
				c0-0.838-0.657-1.39-1.683-1.39h-2.001v4.655h0.525v-1.81h1.33l1.35,1.81L204.236,239.504L204.236,239.504z"/>
		</g>
		<g>
			<defs>
				<rect id="SVGID_33_" x="-77.667" y="45.323" width="562.414" height="723.335"/>
			</defs>
			<clipPath id="SVGID_34_">
				<use xlink:href="#SVGID_33_"  overflow="visible"/>
			</clipPath>
			<path clip-path="url(#SVGID_34_)" fill="#231F20" d="M207.542,273.062l-1.329-3.877h-0.572l1.662,4.688h0.438l1.283-3.777
				l1.276,3.777h0.445l1.662-4.688h-0.553l-1.33,3.877l-1.274-3.892h-0.435L207.542,273.062z M204.582,271.519
				c0,1.037-0.752,1.836-1.93,1.836h-1.09v-3.685h1.09C203.83,269.67,204.582,270.481,204.582,271.519 M205.127,271.504
				c0-1.315-1.012-2.319-2.476-2.319h-1.615v4.653h1.615C204.116,273.838,205.127,272.822,205.127,271.504"/>
		</g>
	</g>
	<rect x="248.901" y="425.231" fill="#BBBDBF" width="81.99" height="8.424"/>
	<polygon fill="#BBBDBF" points="175.213,47.348 175.373,435.407 186.315,435.407 186.315,433.543 189.378,430.481 189.378,216.899 
		185.439,216.899 185.439,63.717 191.895,63.717 191.895,46.866 	"/>
	<rect x="333.371" y="219.089" fill="#BBBDBF" width="28.885" height="26.259"/>
	<rect x="403.018" y="227.536" fill="#FFFFFF" width="59.996" height="31.02"/>
	<rect x="403.018" y="227.536" fill="none" stroke="#000000" stroke-width="0.788" width="59.996" height="31.02"/>
	<g>
		<g>
			<defs>
				<rect id="SVGID_35_" x="-77.667" y="45.323" width="562.414" height="723.335"/>
			</defs>
			<clipPath id="SVGID_36_">
				<use xlink:href="#SVGID_35_"  overflow="visible"/>
			</clipPath>
			<path clip-path="url(#SVGID_36_)" fill="#FFFFFF" d="M416.691,244.173c0.703,0,1.273-0.571,1.273-1.273
				c0-0.702-0.57-1.271-1.273-1.271s-1.271,0.569-1.271,1.271C415.42,243.602,415.988,244.173,416.691,244.173"/>
		</g>
		<g>
			<defs>
				<rect id="SVGID_37_" x="-77.667" y="45.323" width="562.414" height="723.335"/>
			</defs>
			<clipPath id="SVGID_38_">
				<use xlink:href="#SVGID_37_"  overflow="visible"/>
			</clipPath>
			<circle clip-path="url(#SVGID_38_)" fill="none" stroke="#231F20" stroke-width="0.656" cx="416.691" cy="242.9" r="1.272"/>
		</g>
		<g>
			<defs>
				<rect id="SVGID_39_" x="-77.667" y="45.323" width="562.414" height="723.335"/>
			</defs>
			<clipPath id="SVGID_40_">
				<use xlink:href="#SVGID_39_"  overflow="visible"/>
			</clipPath>
			<path clip-path="url(#SVGID_40_)" fill="#FFFFFF" d="M459.588,242.952c0,8.89-2.054,12.145-4.927,12.145h-43.823
				c-0.701,0-2.152-0.188-2.152-2.05v-10.095v-0.021v-10.096c0-1.859,1.451-2.049,2.152-2.049h43.795l0.028,0.003
				C457.534,230.789,459.588,234.117,459.588,242.952"/>
		</g>
		<g>
			<defs>
				<rect id="SVGID_41_" x="-77.667" y="45.323" width="562.414" height="723.335"/>
			</defs>
			<clipPath id="SVGID_42_">
				<use xlink:href="#SVGID_41_"  overflow="visible"/>
			</clipPath>
			<path clip-path="url(#SVGID_42_)" fill="none" stroke="#000000" stroke-width="0.656" d="M459.588,242.952
				c0,8.89-2.054,12.145-4.927,12.145h-43.823c-0.701,0-2.152-0.188-2.152-2.05v-10.095v-0.021v-10.096
				c0-1.859,1.451-2.049,2.152-2.049h43.795l0.028,0.003C457.534,230.789,459.588,234.117,459.588,242.952z"/>
		</g>
		<g>
			<defs>
				<rect id="SVGID_43_" x="-77.667" y="45.323" width="562.414" height="723.335"/>
			</defs>
			<clipPath id="SVGID_44_">
				<use xlink:href="#SVGID_43_"  overflow="visible"/>
			</clipPath>
			<path clip-path="url(#SVGID_44_)" fill="#FFFFFF" d="M406.452,245.567c0.722-0.003,1.3,0.578,1.3,1.307
				c0,0.705-0.578,1.289-1.3,1.296c-0.715-0.007-1.307-0.591-1.307-1.296C405.146,246.146,405.73,245.564,406.452,245.567"/>
		</g>
		<g>
			<defs>
				<rect id="SVGID_45_" x="-77.667" y="45.323" width="562.414" height="723.335"/>
			</defs>
			<clipPath id="SVGID_46_">
				<use xlink:href="#SVGID_45_"  overflow="visible"/>
			</clipPath>
			<path clip-path="url(#SVGID_46_)" fill="none" stroke="#231F20" stroke-width="0.591" d="M406.452,245.567
				c0.722-0.003,1.3,0.578,1.3,1.307c0,0.705-0.578,1.289-1.3,1.296c-0.715-0.007-1.307-0.591-1.307-1.296
				C405.146,246.146,405.73,245.564,406.452,245.567z"/>
		</g>
		<g>
			<defs>
				<rect id="SVGID_47_" x="-77.667" y="45.323" width="562.414" height="723.335"/>
			</defs>
			<clipPath id="SVGID_48_">
				<use xlink:href="#SVGID_47_"  overflow="visible"/>
			</clipPath>
			<path clip-path="url(#SVGID_48_)" fill="#FFFFFF" d="M406.452,237.503c0.722-0.008,1.3,0.586,1.3,1.301
				c0,0.713-0.578,1.3-1.3,1.3c-0.715,0-1.307-0.587-1.297-1.3C405.146,238.085,405.738,237.503,406.452,237.503"/>
		</g>
		<g>
			<defs>
				<rect id="SVGID_49_" x="-77.667" y="45.323" width="562.414" height="723.335"/>
			</defs>
			<clipPath id="SVGID_50_">
				<use xlink:href="#SVGID_49_"  overflow="visible"/>
			</clipPath>
			<path clip-path="url(#SVGID_50_)" fill="none" stroke="#231F20" stroke-width="0.591" d="M406.452,237.503
				c0.722-0.008,1.3,0.586,1.3,1.301c0,0.713-0.578,1.3-1.3,1.3c-0.715,0-1.307-0.587-1.297-1.3
				C405.146,238.085,405.738,237.503,406.452,237.503z"/>
		</g>
		<g>
			<defs>
				<rect id="SVGID_51_" x="-77.667" y="45.323" width="562.414" height="723.335"/>
			</defs>
			<clipPath id="SVGID_52_">
				<use xlink:href="#SVGID_51_"  overflow="visible"/>
			</clipPath>
			<path clip-path="url(#SVGID_52_)" fill="#FFFFFF" d="M406.068,244.651c-1.065,0-1.928-0.722-1.93-1.787
				c0.002-1.065,0.863-1.647,1.93-1.647l7.342,0.685c0.722,0,0.722,1.946,0,1.946L406.068,244.651z"/>
		</g>
		<g>
			<defs>
				<rect id="SVGID_53_" x="-77.667" y="45.323" width="562.414" height="723.335"/>
			</defs>
			<clipPath id="SVGID_54_">
				<use xlink:href="#SVGID_53_"  overflow="visible"/>
			</clipPath>
			<path clip-path="url(#SVGID_54_)" fill="none" stroke="#231F20" stroke-width="0.591" d="M406.068,244.651
				c-1.065,0-1.928-0.722-1.93-1.787c0.002-1.065,0.863-1.647,1.93-1.647l7.342,0.685c0.722,0,0.722,1.946,0,1.946L406.068,244.651z
				"/>
		</g>
		<g>
			<defs>
				<rect id="SVGID_55_" x="-77.667" y="45.323" width="562.414" height="723.335"/>
			</defs>
			<clipPath id="SVGID_56_">
				<use xlink:href="#SVGID_55_"  overflow="visible"/>
			</clipPath>
			<path clip-path="url(#SVGID_56_)" fill="#FFFFFF" d="M453.743,299.486c0-5.858-3.561-12.312-7.946-12.312
				c-4.39,0-7.945,6.453-7.945,12.312c0,5.86,3.557,8.909,7.945,8.909C450.184,308.397,453.743,305.347,453.743,299.486"/>
		</g>
		<g>
			<defs>
				<rect id="SVGID_57_" x="-77.667" y="45.323" width="562.414" height="723.335"/>
			</defs>
			<clipPath id="SVGID_58_">
				<use xlink:href="#SVGID_57_"  overflow="visible"/>
			</clipPath>
			<path clip-path="url(#SVGID_58_)" fill="none" stroke="#000000" stroke-width="0.788" d="M453.743,299.486
				c0-5.858-3.561-12.312-7.946-12.312c-4.39,0-7.945,6.453-7.945,12.312c0,5.86,3.557,8.909,7.945,8.909
				C450.184,308.397,453.743,305.347,453.743,299.486z"/>
		</g>
		<g>
			<defs>
				<rect id="SVGID_59_" x="-77.667" y="45.323" width="562.414" height="723.335"/>
			</defs>
			<clipPath id="SVGID_60_">
				<use xlink:href="#SVGID_59_"  overflow="visible"/>
			</clipPath>
			<path clip-path="url(#SVGID_60_)" fill="#FFFFFF" d="M441.038,306.475c0-0.328-0.268-0.598-0.596-0.598h-2.783
				c-0.328,0-0.596,0.27-0.596,0.598v0.104c0,0.328,0.268,0.596,0.596,0.596h2.783c0.328,0,0.596-0.268,0.596-0.596V306.475z"/>
		</g>
		<g>
			<defs>
				<rect id="SVGID_61_" x="-77.667" y="45.323" width="562.414" height="723.335"/>
			</defs>
			<clipPath id="SVGID_62_">
				<use xlink:href="#SVGID_61_"  overflow="visible"/>
			</clipPath>
			<path clip-path="url(#SVGID_62_)" fill="none" stroke="#231F20" stroke-width="0.788" d="M441.038,306.475
				c0-0.328-0.268-0.598-0.596-0.598h-2.783c-0.328,0-0.596,0.27-0.596,0.598v0.104c0,0.328,0.268,0.596,0.596,0.596h2.783
				c0.328,0,0.596-0.268,0.596-0.596V306.475z"/>
		</g>
		<g>
			<defs>
				<rect id="SVGID_63_" x="-77.667" y="45.323" width="562.414" height="723.335"/>
			</defs>
			<clipPath id="SVGID_64_">
				<use xlink:href="#SVGID_63_"  overflow="visible"/>
			</clipPath>
			<path clip-path="url(#SVGID_64_)" fill="#FFFFFF" d="M436.645,307.188c-0.996,0-1.807,2.699-1.807,3.697s0.811,3.699,1.807,3.699
				h18.15c0.997,0,1.807-2.701,1.807-3.699s-0.809-3.693-1.807-3.693L436.645,307.188z"/>
		</g>
		<g>
			<defs>
				<rect id="SVGID_65_" x="-77.667" y="45.323" width="562.414" height="723.335"/>
			</defs>
			<clipPath id="SVGID_66_">
				<use xlink:href="#SVGID_65_"  overflow="visible"/>
			</clipPath>
			<path clip-path="url(#SVGID_66_)" fill="none" stroke="#000000" stroke-width="0.788" d="M436.645,307.188
				c-0.996,0-1.807,2.699-1.807,3.697s0.811,3.699,1.807,3.699h18.15c0.997,0,1.807-2.701,1.807-3.699s-0.809-3.693-1.807-3.693
				L436.645,307.188z"/>
		</g>
		<g>
			<defs>
				<rect id="SVGID_67_" x="-77.667" y="45.323" width="562.414" height="723.335"/>
			</defs>
			<clipPath id="SVGID_68_">
				<use xlink:href="#SVGID_67_"  overflow="visible"/>
			</clipPath>
			<path clip-path="url(#SVGID_68_)" fill="#FFFFFF" d="M451.639,299.241c0-4.306-2.617-9.05-5.844-9.05
				c-3.226,0-5.839,4.744-5.839,9.05c0,4.307,2.613,6.547,5.839,6.547S451.639,303.547,451.639,299.241"/>
		</g>
		<g>
			<defs>
				<rect id="SVGID_69_" x="-77.667" y="45.323" width="562.414" height="723.335"/>
			</defs>
			<clipPath id="SVGID_70_">
				<use xlink:href="#SVGID_69_"  overflow="visible"/>
			</clipPath>
			<path clip-path="url(#SVGID_70_)" fill="none" stroke="#000000" stroke-width="0.656" d="M451.639,299.241
				c0-4.306-2.617-9.05-5.844-9.05c-3.226,0-5.839,4.744-5.839,9.05c0,4.307,2.613,6.547,5.839,6.547
				S451.639,303.547,451.639,299.241z"/>
		</g>
		<g>
			<defs>
				<rect id="SVGID_71_" x="-77.667" y="45.323" width="562.414" height="723.335"/>
			</defs>
			<clipPath id="SVGID_72_">
				<use xlink:href="#SVGID_71_"  overflow="visible"/>
			</clipPath>
			<path clip-path="url(#SVGID_72_)" fill="none" stroke="#000000" stroke-width="0.985" d="M352.611,350.17
				c16.074,0,29.107-13.029,29.107-29.104 M350.934,350.19h1.678v-29.125h-1.678V350.19z M199.763,404.667
				c16.074,0,29.107,13.029,29.107,29.107 M198.086,404.649h1.677v29.125h-1.677V404.649z M360.838,287.851
				c0-16.074-13.031-29.106-29.107-29.106 M360.855,287.851H331.73v1.677h29.125V287.851z M360.92,398.877
				c0-16.074-13.031-29.105-29.107-29.105 M360.938,398.877h-29.125v1.678h29.125V398.877z"/>
		</g>
	</g>
	<path fill="none" stroke="#000000" stroke-width="0.788" d="M368.316,241.818h26.697 M389.803,241.818v3.702l-3.199,0.865h-9.807
		l-3.242-0.865v-3.702 M395.014,249.083h-26.506v-24.349h26.506V249.083z"/>
	<polygon fill="#FFFFFF" points="369.799,243.416 371.939,243.421 372.41,241.926 369.326,241.921 	"/>
	<polygon fill="none" stroke="#231F20" stroke-width="0.788" points="369.799,243.416 371.939,243.421 372.41,241.926 
		369.326,241.921 	"/>
	<path fill="none" stroke="#231F20" stroke-width="0.788" d="M190.253,255.743h26.917v70.246 M217.17,354.875v18.053h-28.229"/>
	<polygon fill="none" stroke="#000000" stroke-width="0.788" points="217.658,325.02 191.723,325.014 191.725,355.542 
		217.598,355.575 	"/>
	<line fill="none" stroke="#000000" stroke-width="0.394" x1="193.98" y1="355.565" x2="193.98" y2="324.999"/>
	<g>
		<g>
			<defs>
				<rect id="SVGID_73_" x="-77.667" y="45.323" width="562.414" height="723.335"/>
			</defs>
			<clipPath id="SVGID_74_">
				<use xlink:href="#SVGID_73_"  overflow="visible"/>
			</clipPath>
			<path clip-path="url(#SVGID_74_)" fill="none" stroke="#231F20" stroke-width="0.656" d="M214.062,334.452
				c-0.016-2.193-1.8-3.955-3.99-3.938c-2.197,0.02-3.96,1.805-3.941,3.994c0.017,2.189,1.807,3.957,4.001,3.938
				C212.318,338.432,214.08,336.639,214.062,334.452z M214.152,346.342c-0.019-2.191-1.806-3.955-3.992-3.936
				c-2.195,0.014-3.96,1.805-3.942,3.994c0.017,2.191,1.804,3.955,4.002,3.939C212.408,350.323,214.167,348.534,214.152,346.342z
				 M203.271,334.532c-0.019-2.193-1.812-3.953-4.001-3.938c-2.191,0.016-3.954,1.803-3.937,3.992
				c0.016,2.189,1.806,3.957,3.995,3.941C201.517,338.512,203.286,336.717,203.271,334.532z M203.358,346.422
				c-0.015-2.191-1.811-3.953-3.998-3.936c-2.194,0.014-3.957,1.801-3.938,3.994c0.016,2.189,1.806,3.953,3.996,3.939
				C201.604,350.403,203.373,348.612,203.358,346.422z"/>
		</g>
	</g>
	<rect x="217.559" y="325.893" fill="none" stroke="#231F20" stroke-width="0.788" width="1.203" height="28.447"/>
	
		<line fill="none" stroke="#000000" stroke-width="0.985" stroke-dasharray="1.969,1.969,1.969,1.969,1.969,1.969" stroke-dashoffset="3" x1="334.684" y1="306.143" x2="395.738" y2="306.143"/>
	<line fill="none" stroke="#000000" stroke-width="0.985" x1="395.41" y1="308.44" x2="334.027" y2="308.44"/>
	<g>
		<g>
			<defs>
				<rect id="SVGID_75_" x="-77.667" y="45.323" width="562.414" height="723.335"/>
			</defs>
			<clipPath id="SVGID_76_">
				<use xlink:href="#SVGID_75_"  overflow="visible"/>
			</clipPath>
			<path clip-path="url(#SVGID_76_)" fill="none" stroke="#231F20" stroke-width="0.788" d="M239.819,45.735h-45.955
				 M312.033,45.756h-48.58 M412.807,45.717h45.545 M339.279,45.851h46.359 M484.234,137.684V88.241 M484.264,223.466v-47.377
				 M484.264,318.44v-49.564 M484.273,356.844v50.225 M411.493,62.309h47.104 M239.491,61.653H192.63 M311.705,62.309h-45.953
				 M385.234,61.981h-47.596 M466.641,268.217v49.35 M466.969,357.172v45.299 M466.969,176.965v43.656 M466.641,136.808V88.651"/>
		</g>
	</g>
	<polyline fill="none" stroke="#000000" stroke-width="0.788" points="396.395,294.148 427.906,294.148 427.906,318.877 	"/>
	<g>
		<g>
			<defs>
				<rect id="SVGID_77_" x="-77.667" y="45.323" width="562.414" height="723.335"/>
			</defs>
			<clipPath id="SVGID_78_">
				<use xlink:href="#SVGID_77_"  overflow="visible"/>
			</clipPath>
			<circle clip-path="url(#SVGID_78_)" fill="none" stroke="#000000" stroke-width="0.525" cx="413.463" cy="304.86" r="1.2"/>
		</g>
		<g>
			<defs>
				<rect id="SVGID_79_" x="-77.667" y="45.323" width="562.414" height="723.335"/>
			</defs>
			<clipPath id="SVGID_80_">
				<use xlink:href="#SVGID_79_"  overflow="visible"/>
			</clipPath>
			<path clip-path="url(#SVGID_80_)" fill="none" stroke="#000000" stroke-width="0.656" d="M413.463,314.79
				c0.645,0,1.166-0.521,1.166-1.164s-0.521-1.166-1.166-1.166c-0.644,0-1.166,0.523-1.166,1.166S412.82,314.79,413.463,314.79z
				 M413.999,307.518h-1.071v4.764h1.071V307.518z M418.706,312.393h-10.487v2.514h10.487V312.393z"/>
		</g>
	</g>
	<rect x="402.827" y="296.024" fill="none" stroke="#000000" stroke-width="0.788" width="21.271" height="19.266"/>
	<rect x="404.473" y="297.67" fill="none" stroke="#000000" stroke-width="0.591" width="17.938" height="14.666"/>
	<line fill="none" stroke="#000000" stroke-width="0.656" x1="219.975" y1="218.483" x2="219.975" y2="254.59"/>
	<rect x="222.122" y="231.312" fill="none" stroke="#000000" stroke-width="0.788" width="1.477" height="2.79"/>
	<rect x="191.734" y="218.702" fill="none" stroke="#000000" stroke-width="0.788" width="30.362" height="35.597"/>
	<rect x="222.122" y="240.095" fill="none" stroke="#000000" stroke-width="0.788" width="1.477" height="2.789"/>
	
		<line fill="none" stroke="#231F20" stroke-width="0.788" stroke-dasharray="2.118,2.118,2.118,2.118,2.118,2.118" stroke-dashoffset="4" x1="401.318" y1="215.697" x2="466.969" y2="215.697"/>
	<g>
		<g>
			<defs>
				<rect id="SVGID_81_" x="-77.667" y="45.323" width="562.414" height="723.335"/>
			</defs>
			<clipPath id="SVGID_82_">
				<use xlink:href="#SVGID_81_"  overflow="visible"/>
			</clipPath>
			<path clip-path="url(#SVGID_82_)" fill="#FFFFFF" d="M195.709,286.377c-1.021,0-1.862,0.84-1.862,1.863v22.629
				c0,1.02,0.84,1.855,1.862,1.855h15.914c1.024,0,1.86-0.836,1.86-1.855v-22.629c0-1.023-0.836-1.863-1.86-1.863H195.709z"/>
		</g>
		<g>
			<defs>
				<rect id="SVGID_83_" x="-77.667" y="45.323" width="562.414" height="723.335"/>
			</defs>
			<clipPath id="SVGID_84_">
				<use xlink:href="#SVGID_83_"  overflow="visible"/>
			</clipPath>
			<path clip-path="url(#SVGID_84_)" fill="none" stroke="#231F20" stroke-width="0.788" d="M195.709,286.377
				c-1.021,0-1.862,0.84-1.862,1.863v22.629c0,1.02,0.84,1.855,1.862,1.855h15.914c1.024,0,1.86-0.836,1.86-1.855v-22.629
				c0-1.023-0.836-1.863-1.86-1.863H195.709z"/>
		</g>
		<g>
			<defs>
				<rect id="SVGID_85_" x="-77.667" y="45.323" width="562.414" height="723.335"/>
			</defs>
			<clipPath id="SVGID_86_">
				<use xlink:href="#SVGID_85_"  overflow="visible"/>
			</clipPath>
			<path clip-path="url(#SVGID_86_)" fill="#FFFFFF" d="M198.201,308.883c0.002,1.049,0.844,1.912,1.868,1.912h9.56
				c1.024-0.006,1.867-0.863,1.867-1.912v-18.606c0-1.047-0.844-1.901-1.867-1.901h-9.56c-1.024,0-1.868,0.854-1.868,1.901V308.883z
				"/>
		</g>
		<g>
			<defs>
				<rect id="SVGID_87_" x="-77.667" y="45.323" width="562.414" height="723.335"/>
			</defs>
			<clipPath id="SVGID_88_">
				<use xlink:href="#SVGID_87_"  overflow="visible"/>
			</clipPath>
			<path clip-path="url(#SVGID_88_)" fill="none" stroke="#231F20" stroke-width="0.591" d="M198.201,308.883
				c0.002,1.049,0.844,1.912,1.868,1.912h9.56c1.024-0.006,1.867-0.863,1.867-1.912v-18.606c0-1.047-0.844-1.901-1.867-1.901h-9.56
				c-1.024,0-1.868,0.854-1.868,1.901V308.883z"/>
		</g>
		<g>
			<defs>
				<rect id="SVGID_89_" x="-77.667" y="45.323" width="562.414" height="723.335"/>
			</defs>
			<clipPath id="SVGID_90_">
				<use xlink:href="#SVGID_89_"  overflow="visible"/>
			</clipPath>
			<path clip-path="url(#SVGID_90_)" fill="#FFFFFF" d="M205.066,297.97c-0.77,0-1.398,0.628-1.398,1.401
				c0,0.777,0.63,1.397,1.398,1.397c0.772,0,1.407-0.618,1.407-1.397C206.473,298.598,205.838,297.97,205.066,297.97"/>
		</g>
		<g>
			<defs>
				<rect id="SVGID_91_" x="-77.667" y="45.323" width="562.414" height="723.335"/>
			</defs>
			<clipPath id="SVGID_92_">
				<use xlink:href="#SVGID_91_"  overflow="visible"/>
			</clipPath>
			<path clip-path="url(#SVGID_92_)" fill="none" stroke="#231F20" stroke-width="0.525" d="M205.066,297.97
				c-0.77,0-1.398,0.628-1.398,1.401c0,0.777,0.63,1.397,1.398,1.397c0.772,0,1.407-0.618,1.407-1.397
				C206.473,298.598,205.838,297.97,205.066,297.97z"/>
		</g>
		<g>
			<defs>
				<rect id="SVGID_93_" x="-77.667" y="45.323" width="562.414" height="723.335"/>
			</defs>
			<clipPath id="SVGID_94_">
				<use xlink:href="#SVGID_93_"  overflow="visible"/>
			</clipPath>
			<path clip-path="url(#SVGID_94_)" fill="#FFFFFF" d="M195.973,294.342c-0.746,0-1.438,0.609-1.438,1.354v7.386
				c0,0.748,0.691,1.354,1.438,1.354c0.749,0,1.439-0.606,1.439-1.354v-7.386C197.413,294.952,196.722,294.342,195.973,294.342"/>
		</g>
		<g>
			<defs>
				<rect id="SVGID_95_" x="-77.667" y="45.323" width="562.414" height="723.335"/>
			</defs>
			<clipPath id="SVGID_96_">
				<use xlink:href="#SVGID_95_"  overflow="visible"/>
			</clipPath>
			<path clip-path="url(#SVGID_96_)" fill="none" stroke="#231F20" stroke-width="0.525" d="M195.973,294.342
				c-0.746,0-1.438,0.609-1.438,1.354v7.386c0,0.748,0.691,1.354,1.438,1.354c0.749,0,1.439-0.606,1.439-1.354v-7.386
				C197.413,294.952,196.722,294.342,195.973,294.342z"/>
		</g>
		<g>
			<defs>
				<rect id="SVGID_97_" x="-77.667" y="45.323" width="562.414" height="723.335"/>
			</defs>
			<clipPath id="SVGID_98_">
				<use xlink:href="#SVGID_97_"  overflow="visible"/>
			</clipPath>
			<path clip-path="url(#SVGID_98_)" fill="#FFFFFF" d="M203.831,293.854l-6.884,6.337c-0.404,0.353-1.008,0.312-1.363-0.09
				c-0.361-0.394-0.322-1.009,0.082-1.363l7.135-6.051C203.128,292.405,204.149,293.563,203.831,293.854"/>
		</g>
		<g>
			<defs>
				<rect id="SVGID_99_" x="-77.667" y="45.323" width="562.414" height="723.335"/>
			</defs>
			<clipPath id="SVGID_100_">
				<use xlink:href="#SVGID_99_"  overflow="visible"/>
			</clipPath>
			<path clip-path="url(#SVGID_100_)" fill="none" stroke="#231F20" stroke-width="0.656" d="M203.831,293.854l-6.884,6.337
				c-0.404,0.353-1.008,0.312-1.363-0.09c-0.361-0.394-0.322-1.009,0.082-1.363l7.135-6.051
				C203.128,292.405,204.149,293.563,203.831,293.854z"/>
		</g>
		<g>
			<defs>
				<rect id="SVGID_101_" x="-77.667" y="45.323" width="562.414" height="723.335"/>
			</defs>
			<clipPath id="SVGID_102_">
				<use xlink:href="#SVGID_101_"  overflow="visible"/>
			</clipPath>
			<path clip-path="url(#SVGID_102_)" fill="#FFFFFF" d="M199.376,300.192h-3.323c-0.354,0-0.646-0.289-0.646-0.65
				c0-0.352,0.293-0.639,0.646-0.639h3.323c0.361,0,0.648,0.287,0.648,0.641C200.026,299.903,199.739,300.192,199.376,300.192"/>
		</g>
		<g>
			<defs>
				<rect id="SVGID_103_" x="-77.667" y="45.323" width="562.414" height="723.335"/>
			</defs>
			<clipPath id="SVGID_104_">
				<use xlink:href="#SVGID_103_"  overflow="visible"/>
			</clipPath>
			<path clip-path="url(#SVGID_104_)" fill="none" stroke="#231F20" stroke-width="0.525" d="M199.376,300.192h-3.323
				c-0.354,0-0.646-0.289-0.646-0.65c0-0.352,0.293-0.639,0.646-0.639h3.323c0.361,0,0.648,0.287,0.648,0.641
				C200.026,299.903,199.739,300.192,199.376,300.192z"/>
		</g>
		<g>
			<defs>
				<rect id="SVGID_105_" x="-77.667" y="45.323" width="562.414" height="723.335"/>
			</defs>
			<clipPath id="SVGID_106_">
				<use xlink:href="#SVGID_105_"  overflow="visible"/>
			</clipPath>
			<path clip-path="url(#SVGID_106_)" fill="#FFFFFF" d="M196.099,301.59c-0.426,0-0.773,0.352-0.773,0.779
				c0,0.426,0.349,0.772,0.773,0.772c0.421,0,0.771-0.347,0.771-0.774C196.871,301.939,196.525,301.59,196.099,301.59"/>
		</g>
		<g>
			<defs>
				<rect id="SVGID_107_" x="-77.667" y="45.323" width="562.414" height="723.335"/>
			</defs>
			<clipPath id="SVGID_108_">
				<use xlink:href="#SVGID_107_"  overflow="visible"/>
			</clipPath>
			<path clip-path="url(#SVGID_108_)" fill="none" stroke="#231F20" stroke-width="0.46" d="M196.099,301.59
				c-0.426,0-0.773,0.352-0.773,0.779c0,0.426,0.349,0.772,0.773,0.772c0.421,0,0.771-0.347,0.771-0.774
				C196.871,301.939,196.525,301.59,196.099,301.59z"/>
		</g>
		<g>
			<defs>
				<rect id="SVGID_109_" x="-77.667" y="45.323" width="562.414" height="723.335"/>
			</defs>
			<clipPath id="SVGID_110_">
				<use xlink:href="#SVGID_109_"  overflow="visible"/>
			</clipPath>
			<path clip-path="url(#SVGID_110_)" fill="#FFFFFF" d="M196.03,295.633c-0.426,0-0.773,0.352-0.773,0.779
				c0,0.426,0.349,0.771,0.773,0.771c0.424,0,0.772-0.346,0.772-0.773C196.802,295.982,196.456,295.633,196.03,295.633"/>
		</g>
		<g>
			<defs>
				<rect id="SVGID_111_" x="-77.667" y="45.323" width="562.414" height="723.335"/>
			</defs>
			<clipPath id="SVGID_112_">
				<use xlink:href="#SVGID_111_"  overflow="visible"/>
			</clipPath>
			<path clip-path="url(#SVGID_112_)" fill="none" stroke="#231F20" stroke-width="0.46" d="M196.03,295.633
				c-0.426,0-0.773,0.352-0.773,0.779c0,0.426,0.349,0.771,0.773,0.771c0.424,0,0.772-0.346,0.772-0.773
				C196.802,295.982,196.456,295.633,196.03,295.633z"/>
		</g>
	</g>
	
		<line fill="none" stroke="#000000" stroke-width="0.656" stroke-dasharray="1.955,1.955,1.955,1.955,1.955,1.955" stroke-dashoffset="3" x1="214.362" y1="282.436" x2="195.789" y2="282.436"/>
	
		<line fill="none" stroke="#000000" stroke-width="0.656" stroke-dasharray="1.918,1.918,1.918,1.918,1.918,1.918" stroke-dashoffset="3" x1="193.833" y1="279.56" x2="193.833" y2="261.342"/>
	
		<line fill="none" stroke="#000000" stroke-width="0.656" stroke-dasharray="1.911,1.911,1.911,1.911,1.911,1.911" stroke-dashoffset="3" x1="196.701" y1="259.424" x2="214.857" y2="259.424"/>
	<path fill="none" stroke="#000000" stroke-width="0.656" d="M215.813,259.424h0.955 M193.833,260.383v-0.959h0.956
		 M194.811,282.436h-0.978v-0.959 M217.294,282.436h-0.979"/>
	<polyline fill="none" stroke="#000000" stroke-width="0.656" points="216.769,259.389 219.258,259.389 219.258,282.436 
		217.304,282.436 	"/>
	<rect x="341.18" y="182.045" fill="none" stroke="#000000" stroke-width="0.985" width="35.123" height="1.97"/>
	<g>
		<g>
			<defs>
				<rect id="SVGID_113_" x="-77.667" y="45.323" width="562.414" height="723.335"/>
			</defs>
			<clipPath id="SVGID_114_">
				<use xlink:href="#SVGID_113_"  overflow="visible"/>
			</clipPath>
			<path clip-path="url(#SVGID_114_)" fill="none" stroke="#231F20" stroke-width="3.939" d="M193.536,51.636h46.61 M265.914,51.636
				h45.627 M339.607,51.636h45.791 M410.182,51.636h48.252 M477.079,88.789v47.582 M477.053,177.376v45.653 M477.107,265.263v50.552
				 M477.107,356.188v47.924"/>
		</g>
	</g>
	<path fill="none" stroke="#231F20" stroke-width="5.252" d="M397.709,224.634h68.602 M463.795,319.411h-68.604 M332.057,295.681
		h65.033v25.823 M333.371,322.049h17.396 M380.68,322.487h88.586 M331.926,63.622v71.436 M331.898,174.448v84.988 M331.898,289.116
		v80.768 M331.898,400.719v35.562 M185.001,433.983h12.784 M228.516,433.983h242.063"/>
	<polyline fill="none" stroke="#231F20" stroke-width="6.565" points="400.006,260.229 400.006,218.469 333.371,218.469 	"/>
	<rect x="327.244" y="154.259" fill="none" stroke="#231F20" stroke-width="0.788" width="1.969" height="47.596"/>
	<polygon fill="#BBBDBF" points="240.769,47.322 240.769,64.419 264.844,64.363 264.844,47.335 	"/>
	<g>
		<g>
			<defs>
				<rect id="SVGID_115_" x="-77.667" y="45.323" width="562.414" height="723.335"/>
			</defs>
			<clipPath id="SVGID_116_">
				<use xlink:href="#SVGID_115_"  overflow="visible"/>
			</clipPath>
			<polygon clip-path="url(#SVGID_116_)" fill="none" stroke="#231F20" stroke-width="3.939" points="240.769,47.322 
				240.769,64.419 264.844,64.363 264.844,47.335 			"/>
		</g>
	</g>
	<polygon fill="#BBBDBF" points="312.766,47.325 312.766,64.422 338.809,64.366 338.809,47.338 	"/>
	<g>
		<g>
			<defs>
				<rect id="SVGID_117_" x="-77.667" y="45.323" width="562.414" height="723.335"/>
			</defs>
			<clipPath id="SVGID_118_">
				<use xlink:href="#SVGID_117_"  overflow="visible"/>
			</clipPath>
			<polygon clip-path="url(#SVGID_118_)" fill="none" stroke="#231F20" stroke-width="3.939" points="312.766,47.325 
				312.766,64.422 338.809,64.366 338.809,47.338 			"/>
		</g>
	</g>
	<polygon fill="#BBBDBF" points="385.639,47.325 385.639,64.422 411.241,64.366 411.241,47.338 	"/>
	<g>
		<g>
			<defs>
				<rect id="SVGID_119_" x="-77.667" y="45.323" width="562.414" height="723.335"/>
			</defs>
			<clipPath id="SVGID_120_">
				<use xlink:href="#SVGID_119_"  overflow="visible"/>
			</clipPath>
			<polygon clip-path="url(#SVGID_120_)" fill="none" stroke="#231F20" stroke-width="3.939" points="385.639,47.325 
				385.639,64.422 411.241,64.366 411.241,47.338 			"/>
		</g>
	</g>
	<polygon fill="#BBBDBF" points="465.034,136.16 465.034,180.514 482.672,180.429 482.672,136.116 	"/>
	<g>
		<g>
			<defs>
				<rect id="SVGID_121_" x="-77.667" y="45.323" width="562.414" height="723.335"/>
			</defs>
			<clipPath id="SVGID_122_">
				<use xlink:href="#SVGID_121_"  overflow="visible"/>
			</clipPath>
			<polygon clip-path="url(#SVGID_122_)" fill="none" stroke="#231F20" stroke-width="3.939" points="465.034,136.16 
				465.034,180.514 482.672,180.429 482.672,136.116 			"/>
		</g>
	</g>
	<polygon fill="#BBBDBF" points="459.447,47.297 459.447,64.061 464.98,64.104 464.98,87.083 482.615,87.055 482.615,47.338 	"/>
	<g>
		<g>
			<defs>
				<rect id="SVGID_123_" x="-77.667" y="45.323" width="562.414" height="723.335"/>
			</defs>
			<clipPath id="SVGID_124_">
				<use xlink:href="#SVGID_123_"  overflow="visible"/>
			</clipPath>
			<polygon clip-path="url(#SVGID_124_)" fill="none" stroke="#231F20" stroke-width="3.939" points="459.447,47.297 
				459.447,64.061 464.98,64.104 464.98,87.083 482.615,87.055 482.615,47.338 			"/>
		</g>
	</g>
	<rect x="465.243" y="221.715" fill="#BBBDBF" width="17.484" height="48.235"/>
	<g>
		<g>
			<defs>
				<rect id="SVGID_125_" x="-77.667" y="45.323" width="562.414" height="723.335"/>
			</defs>
			<clipPath id="SVGID_126_">
				<use xlink:href="#SVGID_125_"  overflow="visible"/>
			</clipPath>
			
				<rect x="465.243" y="221.715" clip-path="url(#SVGID_126_)" fill="none" stroke="#231F20" stroke-width="3.939" width="17.484" height="48.235"/>
		</g>
	</g>
	<rect x="465.215" y="317.004" fill="#BBBDBF" width="17.483" height="42.021"/>
	<g>
		<g>
			<defs>
				<rect id="SVGID_127_" x="-77.667" y="45.323" width="562.414" height="723.335"/>
			</defs>
			<clipPath id="SVGID_128_">
				<use xlink:href="#SVGID_127_"  overflow="visible"/>
			</clipPath>
			
				<rect x="465.215" y="317.004" clip-path="url(#SVGID_128_)" fill="none" stroke="#231F20" stroke-width="3.939" width="17.483" height="42.021"/>
		</g>
	</g>
	<polygon fill="#BBBDBF" points="482.695,434.581 465.04,434.581 465.118,403.594 482.773,403.594 	"/>
	<g>
		<g>
			<defs>
				<rect id="SVGID_129_" x="-77.667" y="45.323" width="562.414" height="723.335"/>
			</defs>
			<clipPath id="SVGID_130_">
				<use xlink:href="#SVGID_129_"  overflow="visible"/>
			</clipPath>
			<polygon clip-path="url(#SVGID_130_)" fill="none" stroke="#231F20" stroke-width="3.939" points="482.695,434.581 
				465.04,434.581 465.118,403.594 482.773,403.594 			"/>
		</g>
		<g>
			<defs>
				<rect id="SVGID_131_" x="-77.667" y="45.323" width="562.414" height="723.335"/>
			</defs>
			<clipPath id="SVGID_132_">
				<use xlink:href="#SVGID_131_"  overflow="visible"/>
			</clipPath>
			<polyline clip-path="url(#SVGID_132_)" fill="none" stroke="#231F20" stroke-width="3.939" points="185.986,430.969 
				189.23,430.969 189.23,215.748 184.784,215.748 184.715,64.34 192.629,64.369 192.629,47.341 175.213,47.348 175.405,434.67 
				187.627,434.67 			"/>
		</g>
	</g>
	<path fill="none" stroke="#231F20" stroke-width="6.565" d="M434.473,183.2h-60.836 M342.928,183.2h-10.869"/>
	<path fill="none" stroke="#231F20" stroke-width="5.252" d="M331.184,408.161H252.84v18.385h-18.816v6.127 M331.621,245.787h31.948
		v-25.384 M385.893,183.2v35.014"/>
	<line fill="none" stroke="#231F20" stroke-width="3.939" x1="189.23" y1="215.748" x2="225.376" y2="215.748"/>
	<line fill="none" stroke="#231F20" stroke-width="5.252" x1="236.212" y1="429.608" x2="331.186" y2="429.608"/>
	<rect x="252.84" y="408.163" fill="#BBBDBF" width="79.658" height="23.635"/>
	<rect x="252.84" y="408.163" fill="none" stroke="#231F20" stroke-width="3.939" width="79.658" height="23.635"/>
	<line fill="none" stroke="#231F20" stroke-width="7.878" x1="197.655" y1="428.368" x2="189.381" y2="428.368"/>
	
		<line fill="none" stroke="#231F20" stroke-width="3.939" stroke-dasharray="6.003,2.003,6.003,2.003,6.003,2.003" stroke-dashoffset="8" x1="187.52" y1="64.752" x2="187.52" y2="214.871"/>
	<rect x="475.497" y="361.114" fill="#FFFFFF" width="3.195" height="18.766"/>
	<rect x="475.497" y="361.114" fill="none" stroke="#000000" stroke-width="0.788" width="3.195" height="18.766"/>
	<line fill="none" stroke="#000000" stroke-width="0.788" x1="477.168" y1="379.879" x2="477.168" y2="361.223"/>
	<rect x="475.497" y="379.93" fill="#FFFFFF" width="3.195" height="19.262"/>
	<rect x="475.497" y="379.93" fill="none" stroke="#000000" stroke-width="0.788" width="3.195" height="19.262"/>
	<line fill="none" stroke="#000000" stroke-width="0.788" x1="477.168" y1="399.19" x2="477.168" y2="379.93"/>
	<rect x="475.497" y="271.646" fill="#FFFFFF" width="3.195" height="18.767"/>
	<rect x="475.497" y="271.646" fill="none" stroke="#000000" stroke-width="0.788" width="3.195" height="18.767"/>
	<line fill="none" stroke="#000000" stroke-width="0.788" x1="477.168" y1="290.413" x2="477.168" y2="271.756"/>
	<rect x="475.497" y="290.463" fill="#FFFFFF" width="3.195" height="19.258"/>
	<rect x="475.497" y="290.463" fill="none" stroke="#000000" stroke-width="0.788" width="3.195" height="19.258"/>
	<line fill="none" stroke="#000000" stroke-width="0.788" x1="477.168" y1="309.723" x2="477.168" y2="290.463"/>
	<rect x="475.497" y="183.311" fill="#FFFFFF" width="3.195" height="16.469"/>
	<rect x="475.497" y="183.311" fill="none" stroke="#000000" stroke-width="0.788" width="3.195" height="16.469"/>
	<line fill="none" stroke="#000000" stroke-width="0.788" x1="477.168" y1="199.78" x2="477.168" y2="181.125"/>
	<rect x="475.497" y="199.832" fill="#FFFFFF" width="3.195" height="17.07"/>
	<rect x="475.497" y="199.832" fill="none" stroke="#000000" stroke-width="0.788" width="3.195" height="17.07"/>
	<line fill="none" stroke="#000000" stroke-width="0.788" x1="477.168" y1="219.089" x2="477.168" y2="199.832"/>
	<rect x="475.497" y="93.077" fill="#FFFFFF" width="3.195" height="18.767"/>
	<rect x="475.497" y="93.077" fill="none" stroke="#000000" stroke-width="0.788" width="3.195" height="18.767"/>
	<line fill="none" stroke="#000000" stroke-width="0.788" x1="477.168" y1="111.844" x2="477.168" y2="93.188"/>
	<rect x="475.497" y="111.895" fill="#FFFFFF" width="3.195" height="19.259"/>
	<rect x="475.497" y="111.895" fill="none" stroke="#000000" stroke-width="0.788" width="3.195" height="19.259"/>
	<line fill="none" stroke="#000000" stroke-width="0.788" x1="477.168" y1="131.154" x2="477.168" y2="111.896"/>
	<rect x="270.193" y="50.038" fill="#FFFFFF" width="18.767" height="3.195"/>
	<rect x="270.193" y="50.038" fill="none" stroke="#000000" stroke-width="0.788" width="18.767" height="3.195"/>
	<line fill="none" stroke="#000000" stroke-width="0.788" x1="288.959" y1="51.564" x2="270.303" y2="51.564"/>
	<rect x="289.01" y="50.038" fill="#FFFFFF" width="19.26" height="3.195"/>
	<rect x="289.01" y="50.038" fill="none" stroke="#000000" stroke-width="0.788" width="19.26" height="3.195"/>
	<line fill="none" stroke="#000000" stroke-width="0.788" x1="308.27" y1="51.564" x2="289.01" y2="51.564"/>
	<rect x="343.615" y="50.038" fill="#FFFFFF" width="18.769" height="3.195"/>
	<rect x="343.615" y="50.038" fill="none" stroke="#000000" stroke-width="0.788" width="18.769" height="3.195"/>
	<line fill="none" stroke="#000000" stroke-width="0.788" x1="362.383" y1="51.564" x2="343.727" y2="51.564"/>
	<rect x="362.434" y="50.038" fill="#FFFFFF" width="19.26" height="3.195"/>
	<rect x="362.434" y="50.038" fill="none" stroke="#000000" stroke-width="0.788" width="19.26" height="3.195"/>
	<line fill="none" stroke="#000000" stroke-width="0.788" x1="381.693" y1="51.564" x2="362.434" y2="51.564"/>
	<rect x="416.639" y="50.038" fill="#FFFFFF" width="18.768" height="3.195"/>
	<rect x="416.639" y="50.038" fill="none" stroke="#000000" stroke-width="0.788" width="18.768" height="3.195"/>
	<line fill="none" stroke="#000000" stroke-width="0.788" x1="435.404" y1="51.564" x2="416.747" y2="51.564"/>
	<rect x="435.456" y="50.038" fill="#FFFFFF" width="19.259" height="3.195"/>
	<rect x="435.456" y="50.038" fill="none" stroke="#000000" stroke-width="0.788" width="19.259" height="3.195"/>
	<line fill="none" stroke="#000000" stroke-width="0.788" x1="454.715" y1="51.564" x2="435.456" y2="51.564"/>
	<rect x="197.042" y="50.038" fill="#FFFFFF" width="18.767" height="3.195"/>
	<rect x="197.042" y="50.038" fill="none" stroke="#000000" stroke-width="0.788" width="18.767" height="3.195"/>
	<line fill="none" stroke="#000000" stroke-width="0.788" x1="215.808" y1="51.564" x2="197.152" y2="51.564"/>
	<rect x="215.86" y="50.038" fill="#FFFFFF" width="19.26" height="3.195"/>
	<rect x="215.86" y="50.038" fill="none" stroke="#000000" stroke-width="0.788" width="19.26" height="3.195"/>
	<line fill="none" stroke="#000000" stroke-width="0.788" x1="235.119" y1="51.564" x2="215.86" y2="51.564"/>
</g>
<g id="Layer_3">
</g>
<g id="_x32_03">
</g>
<g>
	<g>
		<defs>
			<rect id="SVGID_133_" x="45.16" y="145.803" width="100.145" height="4.562"/>
		</defs>
		<clipPath id="SVGID_134_">
			<use xlink:href="#SVGID_133_"  overflow="visible"/>
		</clipPath>
		<path clip-path="url(#SVGID_134_)" fill="#231F20" d="M145.303,146.18v-0.301h-3.402v0.301h1.537v4.109h0.328v-4.109H145.303z
			 M139.512,150.29v-0.303h-2.842v-1.771h2.525v-0.303h-2.525v-1.732h2.811v-0.303h-3.139v4.41h3.17V150.29z M133.637,150.29v-0.303
			h-2.84v-1.771h2.525v-0.303h-2.525v-1.732h2.809v-0.303h-3.137v4.41h3.168V150.29z M127.36,147.157c0,0.637-0.547,1.01-1.283,1.01
			h-1.486v-1.986h1.506c0.799,0,1.266,0.373,1.266,0.965v0.012H127.36z M127.852,150.29l-1.455-1.885
			c0.744-0.102,1.291-0.523,1.291-1.26v-0.014c0-0.736-0.623-1.254-1.574-1.254h-1.852v4.41h0.326v-1.826h1.443l1.404,1.826h0.416
			V150.29z M121.612,146.18v-0.301h-3.4v0.301h1.539v4.109h0.326v-4.109H121.612z M115.889,149.149v-0.014
			c0-0.643-0.428-1.008-1.449-1.215c-1.045-0.215-1.285-0.498-1.285-0.965v-0.012c0-0.461,0.43-0.834,1.078-0.834
			c0.484,0,0.9,0.141,1.316,0.5l0.209-0.26c-0.449-0.359-0.871-0.535-1.514-0.535c-0.818,0-1.418,0.504-1.418,1.16v0.012
			c0,0.668,0.43,1.027,1.488,1.242c1.002,0.199,1.246,0.471,1.246,0.938v0.012c0,0.506-0.453,0.877-1.115,0.877
			c-0.648,0-1.096-0.207-1.58-0.654l-0.215,0.244c0.529,0.475,1.07,0.707,1.775,0.707
			C115.278,150.352,115.889,149.86,115.889,149.149 M104.727,150.29v-4.41h-0.312v3.836l-3.043-3.836h-0.311v4.41h0.316v-3.92
			l3.104,3.92H104.727z M97.953,148.098c0,1.088-0.781,1.971-1.871,1.971s-1.885-0.895-1.885-1.984v-0.014
			c0-1.09,0.781-1.971,1.871-1.971s1.883,0.895,1.883,1.984v0.014H97.953z M98.295,148.084c0.006-0.006,0.006-0.006,0-0.014
			c0-1.203-0.877-2.27-2.213-2.27c-1.334,0-2.225,1.078-2.225,2.281v0.014c0,1.203,0.877,2.268,2.213,2.268
			C97.405,150.364,98.295,149.288,98.295,148.084 M91.752,146.18v-0.301H88.35v0.301h1.538v4.109h0.327v-4.109H91.752z
			 M85.953,149.704v-1.701h-1.789v0.301h1.474v1.268c-0.321,0.271-0.844,0.504-1.405,0.504c-1.178,0-1.89-0.85-1.89-1.99v-0.014
			c0-1.062,0.75-1.971,1.821-1.971c0.668,0,1.07,0.225,1.418,0.529l0.214-0.246c-0.441-0.365-0.896-0.58-1.613-0.58
			c-1.316,0-2.18,1.09-2.18,2.281v0.014c0,1.24,0.825,2.268,2.218,2.268C84.94,150.364,85.556,150.057,85.953,149.704
			 M79.236,150.29v-4.41h-0.314v3.836l-3.043-3.836H75.57v4.41h0.315v-3.92l3.104,3.92H79.236z M72.561,145.879h-0.328v4.41h0.328
			V145.879z M69.226,150.29v-4.41h-0.327v2.041h-2.822v-2.041h-0.327v4.41h0.327v-2.066h2.822v2.066H69.226z M63.018,149.149v-0.014
			c0-0.643-0.428-1.008-1.449-1.215c-1.045-0.215-1.284-0.498-1.284-0.965v-0.012c0-0.461,0.429-0.834,1.076-0.834
			c0.486,0,0.901,0.141,1.317,0.5l0.208-0.26c-0.447-0.359-0.869-0.535-1.512-0.535c-0.819,0-1.417,0.504-1.417,1.16v0.012
			c0,0.668,0.428,1.027,1.485,1.242c1.002,0.199,1.248,0.471,1.248,0.938v0.012c0,0.506-0.454,0.877-1.114,0.877
			c-0.649,0-1.098-0.207-1.582-0.654l-0.215,0.244c0.529,0.475,1.071,0.707,1.777,0.707
			C62.406,150.352,63.018,149.86,63.018,149.149 M56.514,148.758h-2.325l1.166-2.551L56.514,148.758z M57.573,150.29l-2.054-4.441
			h-0.314l-2.054,4.441h0.341l0.56-1.236h2.602l0.562,1.236H57.573z M51.472,145.879h-0.34l-1.386,3.924l-1.292-3.938h-0.252
			l-1.291,3.938l-1.387-3.924h-0.365l1.601,4.439h0.264l1.292-3.83l1.291,3.83h0.266L51.472,145.879z"/>
	</g>
</g>
</svg>
