<svg xmlns="http://www.w3.org/2000/svg" width="513.359" height="495.36" xmlns:xlink="http://www.w3.org/1999/xlink"><g><defs><path id="a" d="M-77.67 45.32h562.42v723.34H-77.67z"/></defs><clipPath id="b"><use xlink:href="#a" overflow="visible"/></clipPath><path fill="#231F20" d="M416.7 127.94h-.46l-.48 1.55h.3l.65-1.56zm-.94 0h-.47l-.48 1.55h.3l.64-1.56zm-2.22 2.8c0 .53-.4.95-1 .95-.63 0-1.07-.4-1.07-.95 0-.48.42-.93 1.05-.93.6 0 1.02.4 1.02.9m.34-2.47c-.37-.3-.74-.48-1.24-.48-1.1 0-1.75 1-1.75 2.3 0 .85.18 1.28.52 1.62.26.25.64.4 1.1.4.86 0 1.5-.57 1.5-1.4 0-.78-.66-1.3-1.44-1.3-.6 0-.97.32-1.2.66 0-1.1.47-1.86 1.23-1.86.4 0 .7.15 1 .42l.28-.37zm-4.3-.3h-.46l-.47 1.54h.3l.64-1.56zm-2.37 1.2c0 .5-.4.95-1.03.95-.6 0-1.03-.38-1.03-.92 0-.53.38-1 1-1 .63 0 1.07.43 1.07.97m.6.68c0-.84-.2-1.3-.53-1.63-.27-.27-.63-.43-1.1-.43-.9 0-1.52.63-1.52 1.43 0 .77.6 1.3 1.46 1.3.6 0 .97-.3 1.2-.66.02 1.07-.5 1.84-1.25 1.84-.37 0-.7-.15-1.03-.45l-.27.37c.35.3.75.5 1.3.5 1.03 0 1.74-.93 1.74-2.27m-6.18 1.7l-1.13-1.5 1.07-1.43h-.38l-.9 1.2-.9-1.2h-.4l1.1 1.44-1.14 1.5h.38l.94-1.26.94 1.26h.4zm-5.07-3.6h-.47l-.47 1.56h.3l.65-1.56zm-.94 0h-.46l-.47 1.56h.3l.63-1.56zm-4.52.34h2.3l-1.88 3.77h.52l1.9-3.84v-.36h-2.84v.43zm-1.34-.33h-.47l-.47 1.55h.3l.64-1.56zm-2.3 2c0 .93-.5 1.74-1.27 1.74s-1.3-.8-1.3-1.74.5-1.74 1.3-1.74c.77 0 1.27.82 1.27 1.75m.5 0c0-1.2-.7-2.18-1.77-2.18-1.1 0-1.78 1-1.78 2.18 0 1.18.67 2.16 1.76 2.16 1.08 0 1.77-.98 1.77-2.16m-6.38-1.77l.1.38.8-.25v3.74h.47v-4.23h-.35l-1.02.37z" clip-path="url(#b)"/><defs><path id="c" d="M-77.67 45.32h562.42v723.34H-77.67z"/></defs><clipPath id="d"><use xlink:href="#c" overflow="visible"/></clipPath><path fill="#231F20" d="M416.54 120.25v3.77h.52v-4.66h-.53l-1.7 2.54-1.7-2.54h-.52v4.66h.52v-3.77l1.7 2.5h.02l1.7-2.5zm-5.6 1.45c0 1.06-.75 1.9-1.8 1.9-1.07 0-1.85-.85-1.85-1.92s.75-1.9 1.82-1.9c1.06 0 1.83.85 1.83 1.92m.55-.02c0-1.3-.95-2.4-2.37-2.4-1.42 0-2.38 1.13-2.38 2.42 0 1.3.95 2.4 2.37 2.4 1.4 0 2.38-1.13 2.38-2.42m-6.2.02c0 1.06-.76 1.9-1.82 1.9s-1.84-.85-1.84-1.92.76-1.9 1.82-1.9c1.07 0 1.84.85 1.84 1.92m.55-.02c0-1.3-.96-2.4-2.37-2.4-1.42 0-2.38 1.13-2.38 2.42 0 1.3.95 2.4 2.36 2.4s2.4-1.13 2.4-2.42m-6.2-.9c0 .6-.5.95-1.2.95H397v-1.88h1.44c.75 0 1.2.34 1.2.92m.7 3.25l-1.45-1.9c.75-.14 1.28-.6 1.28-1.37 0-.84-.66-1.4-1.68-1.4h-2v4.67h.52v-1.8h1.33l1.35 1.8h.65zm-5.52-2.32c0 1.03-.75 1.83-1.93 1.83h-1.08v-3.68h1.1c1.17 0 1.92.8 1.92 1.85m.55-.02c0-1.3-1.02-2.32-2.5-2.32h-1.6v4.66h1.6c1.48 0 2.5-1.02 2.5-2.34m-5.2-2.32h-3.36v4.66h3.4v-.48h-2.88v-1.63h2.54v-.47h-2.54v-1.6h2.84v-.47zm-6.08 4.2h-1.56v-1.66h1.47c.8 0 1.23.3 1.23.8 0 .53-.44.84-1.14.84m-.2-2.1h-1.36v-1.6h1.4c.68 0 1.04.3 1.04.76 0 .55-.44.84-1.07.84m.1-2.08h-2v4.66h2.08c1.03 0 1.7-.48 1.7-1.28 0-.65-.45-.96-1-1.13.36-.15.73-.46.73-1.07 0-.72-.6-1.17-1.5-1.17" clip-path="url(#d)"/><defs><path id="e" d="M-77.67 45.32h562.42v723.34H-77.67z"/></defs><clipPath id="f"><use xlink:href="#e" overflow="visible"/></clipPath><path fill="#231F20" d="M417.1 387h-.45l-.48 1.54h.3l.64-1.55zm-.93 0h-.47l-.47 1.54h.3l.64-1.55zm-2.22 2c0 .93-.48 1.73-1.27 1.73-.8 0-1.3-.8-1.3-1.74s.5-1.75 1.3-1.75c.77 0 1.27.82 1.27 1.75m.5 0c0-1.2-.7-2.18-1.77-2.18-1.1 0-1.78 1-1.78 2.18 0 1.18.68 2.17 1.77 2.17 1.08 0 1.77-1 1.77-2.18m-4.85-2h-.48l-.47 1.54h.3l.64-1.55zm-2.4 1.2c0 .5-.4.96-1.03.96-.6 0-1.03-.4-1.03-.93s.38-1 1-1c.63 0 1.07.43 1.07.97m.6.7c0-.86-.2-1.32-.53-1.65-.27-.27-.63-.43-1.1-.43-.9 0-1.52.63-1.52 1.44 0 .76.6 1.3 1.46 1.3.6 0 .97-.3 1.2-.67.02 1.07-.5 1.84-1.25 1.84-.37 0-.7-.15-1.03-.45l-.27.35c.35.3.75.52 1.3.52 1.03 0 1.74-.95 1.74-2.3m-6.18 1.72l-1.13-1.5 1.07-1.45h-.38l-.9 1.2-.9-1.2h-.4l1.1 1.44-1.14 1.5h.38l.94-1.27.94 1.26h.4zm-5.07-3.6h-.47l-.47 1.54h.3l.65-1.55zm-.94 0h-.46l-.47 1.54h.3l.63-1.55zm-4.52.32h2.3l-1.88 3.77h.52l1.9-3.85v-.36h-2.84v.43zm-1.34-.32h-.47l-.47 1.54h.3l.64-1.55zm-2.3 2c0 .93-.5 1.73-1.27 1.73s-1.3-.8-1.3-1.74.5-1.75 1.3-1.75c.77 0 1.27.82 1.27 1.75m.5 0c0-1.2-.7-2.18-1.77-2.18-1.1 0-1.78 1-1.78 2.18 0 1.18.67 2.17 1.76 2.17 1.08 0 1.77-1 1.77-2.18m-6.38-1.78l.1.38.8-.24v3.73h.47v-4.24h-.35l-1.02.36z" clip-path="url(#f)"/><defs><path id="g" d="M-77.67 45.32h562.42v723.34H-77.67z"/></defs><clipPath id="h"><use xlink:href="#g" overflow="visible"/></clipPath><path fill="#231F20" d="M416.54 379.3v3.77h.52v-4.66h-.53l-1.7 2.55-1.7-2.54h-.52v4.67h.52v-3.77l1.7 2.5h.02l1.7-2.5zm-5.6 1.45c0 1.06-.75 1.9-1.8 1.9-1.07 0-1.85-.85-1.85-1.9s.75-1.93 1.82-1.93c1.06 0 1.83.86 1.83 1.93m.55 0c0-1.3-.95-2.42-2.37-2.42-1.42 0-2.38 1.13-2.38 2.42 0 1.3.95 2.4 2.37 2.4 1.4 0 2.38-1.13 2.38-2.4m-6.2 0c0 1.06-.76 1.9-1.82 1.9s-1.84-.85-1.84-1.9.76-1.93 1.82-1.93c1.07 0 1.84.86 1.84 1.93m.55 0c0-1.3-.96-2.42-2.37-2.42-1.42 0-2.38 1.13-2.38 2.42 0 1.3.95 2.4 2.36 2.4s2.4-1.13 2.4-2.4m-6.2-.93c0 .6-.5.97-1.2.97H397v-1.9h1.44c.75 0 1.2.35 1.2.92m.7 3.25l-1.45-1.9c.75-.14 1.28-.6 1.28-1.37 0-.83-.66-1.4-1.68-1.4h-2v4.67h.52v-1.8h1.33l1.35 1.8h.65zm-5.52-2.32c0 1.04-.75 1.83-1.93 1.83h-1.08v-3.68h1.1c1.17 0 1.92.8 1.92 1.85m.55 0c0-1.33-1.02-2.34-2.5-2.34h-1.6v4.67h1.6c1.48 0 2.5-1.02 2.5-2.33m-5.2-2.33h-3.36v4.67h3.4v-.48h-2.88v-1.64h2.54v-.48h-2.54v-1.6h2.84v-.47zm-6.08 4.2h-1.56v-1.65h1.47c.8 0 1.23.3 1.23.8 0 .53-.44.85-1.14.85m-.2-2.1h-1.36v-1.62h1.4c.68 0 1.04.3 1.04.77 0 .55-.44.84-1.07.84m.1-2.1h-2v4.67h2.08c1.03 0 1.7-.47 1.7-1.28 0-.65-.45-.97-1-1.14.36-.16.73-.47.73-1.08 0-.7-.6-1.17-1.5-1.17" clip-path="url(#h)"/><path fill="#fff" d="M78.96 47.53h33.15v44.2H78.97z"/><path fill="#BBBDBF" d="M112.1 47.53h33.16v44.2H112.1z"/><path fill="#fff" d="M144.4 99.38v-7.65h-23.8v7.65h-8.5v41.65h33.16V99.38zM78.96 98.53h-20.4v22.1H45.8v20.4h33.16zM78.1 98.53v42.5h34v-17h-6.8v-13.6H89.17V97.68zM45.8 46.68h32.3v45.05H64.5v-6.8h-4.24v-10.2H45.8z"/><defs><path id="i" d="M-77.67 45.32h562.42v723.34H-77.67z"/></defs><clipPath id="j"><use xlink:href="#i" overflow="visible"/></clipPath><path fill="none" stroke="#262626" stroke-width="2.053" stroke-miterlimit="10" d="M145.28 141.27H45.56v-94.3h99.72z" clip-path="url(#j)"/><path fill="none" stroke="#262626" stroke-width="1.173" stroke-miterlimit="10" d="M58.9 98.88h61.45v-7.33M49.23 84.5h11.3m-11.6 7.93h9.98v.88m0 3.24v24.2H46.44m-.88-28.3h3.37V74.38h11.6v10.55h3.95v6.9h81.1m-66.88 49.7v-43m33.3 43v-43m0-7.3V47.64M78.55 91.26V47.63"/><defs><path id="k" d="M-77.67 45.32h562.42v723.34H-77.67z"/></defs><clipPath id="l"><use xlink:href="#k" overflow="visible"/></clipPath><path fill="none" stroke="#000" stroke-width=".425" d="M55.56 93.23c0 1.8 1.45 3.25 3.25 3.25m-3.24-3.25h3.25v-.18h-3.24v.18zm55.04 8.8c-1.8 0-3.25-1.45-3.25-3.24m3.44 3.24h-.2V98.8h.2v3.24zm-33.25-.08c-1.8 0-3.25-1.45-3.25-3.25m3.44 3.27h-.2V98.7h.2v3.27zm35.7.07c1.8 0 3.27-1.46 3.27-3.25m-3.43 3.24h.18V98.8h-.18v3.24zm-32.5-.08c1.8 0 3.24-1.45 3.24-3.25m-3.42 3.27h.18V98.7h-.18v3.27zm33.48-13.54c1.8 0 3.26 1.46 3.26 3.25m-3.44-3.25h.2v3.25h-.2v-3.25zm-18.8-.1c-1.78 0-3.24 1.45-3.24 3.25m3.44-3.26h-.2v3.26h.2v-3.26zM67.92 90.6c0-1.8-1.45-3.26-3.25-3.26m3.25 3.25h-3.25v.18h3.25v-.2z" clip-path="url(#l)"/><path fill="none" stroke="#000" stroke-width=".452" d="M49.5 107.68h8.97m-12.2 1.2h12.2m-12.23 1.2h12.2m-12.16 1.2H58.5m-12.18 1.2h12.2m-12.2 1.2h12.2m-12.18 1.24H58.5"/><path fill="none" stroke="#000" stroke-width=".425" d="M46.28 110.43l3.67-2.7-.2-.55.94.88-.27-.64 1.76-1.07m-6.25-6.62h6.38m-6.38 1.2h6.38m-6.38 1.2h6.38m-6.38 1.2h6.38m-6.38 1.2h6.38m-6.38 1.2h6.32m-6.44 1.18h5.47m-5.12.97h3.56"/><path fill="none" stroke="#000" stroke-width=".452" d="M51.76 106.5h6.77"/><path fill="none" stroke="#000" stroke-width=".425" d="M94.6 98.73l.92 2.88.6-.04-1.1.7.7-.1.6 2.12m7.4-5v4.97m-1.2-4.98v4.98m-1.2-4.98v4.98m-1.18-4.98v4.98m-1.2-4.98v4.9m-1.2-4.9v4.9m-1.2-4.9v4.9m-1.2-4.9v1.65"/><path fill="#fff" d="M92.78 104.98h11.3v-.58h-11.3v.58zm11.6.3h-11.9v-1.17h11.9v1.18z"/><path fill="none" stroke="#262626" stroke-width=".425" d="M92.78 104.98h11.3v-.58h-11.3v.58zm11.6.3h-11.9v-1.17h11.9v1.18z"/><path fill="#fff" d="M52.52 115.2h.58V99.85h-.58v15.33zm-.3-15.74h1.18v16.13h-1.18V99.45z"/><path fill="none" stroke="#262626" stroke-width=".495" d="M52.52 115.2h.58V99.85h-.58v15.33zm-.3-15.74h1.18v16.13h-1.18V99.45z"/><path fill="none" stroke="#000" stroke-width=".425" d="M95.25 102.25v1.93m-1.2-4.9v4.9m-1.2-4.9v4.9m2.35 1.15v4.9m-1.2-4.9v4.9m-1.2-4.9v4.9m11.03-4.92v5m-1.2-5v5m-1.2-5v5m-1.32-5v5m-1.2-5v4.9m-1.2-4.9v4.9m-1.18-4.9v4.9"/><path fill="none" stroke="#262626" stroke-width="1.173" stroke-miterlimit="10" d="M105.1 104.46v6.45M88.67 98.9v11.3h16.43v13.2h6.75"/><path fill="none" stroke="#000" stroke-width=".442" d="M105.34 109.93h6.3m-6.3 1.2h6.3m-6.3 1.2h6.3m-6.3 1.2h6.3m-6.3 1.2h6.3m-6.3 1.2h6.3m-6.3 1.2h6.3m-6.3 1.2h6.3m-6.3 1.18h6.3m-6.3 1.2h6.3m-6.3 1.2h6.3"/><path d="M56.8 77.44h-3.37V79h2.98v.92h-2.97v1.6h3.4v.93H52.4V76.5h4.4v.94z"/><defs><path id="m" d="M-77.67 45.32h562.42v723.34H-77.67z"/></defs><clipPath><use xlink:href="#m" overflow="visible"/></clipPath><defs><path id="n" d="M-77.67 45.32h562.42v723.34H-77.67z"/></defs><clipPath id="o"><use xlink:href="#n" overflow="visible"/></clipPath><path fill="#231F20" d="M288.44 297.66l-2.93-3.73h-.48v4.66h.5v-3.83l3.02 3.8h.42v-4.64h-.52v3.73zm-4.5-3.73h-3.37v4.65h3.4v-.48h-2.88v-1.62h2.53V296h-2.54v-1.6h2.83v-.47zm-5.2 2.56v2.08h.5v-4.65h-.52V296h-2.68v-2.07h-.53v4.66h.54v-2.1h2.7zm-4.14 1.35l-.35-.34c-.45.43-.87.68-1.5.68-1.03 0-1.8-.85-1.8-1.93s.76-1.92 1.8-1.92c.63 0 1.06.27 1.46.64l.37-.38c-.47-.45-.97-.75-1.82-.75-1.37 0-2.35 1.08-2.35 2.4 0 1.36 1 2.4 2.33 2.4.85.02 1.38-.3 1.87-.8m-6.22-3.44h1.56v-.47h-3.66v.48h1.57v4.2h.53v-4.2.02zm-3.65 4.18h.52v-4.65h-.52v4.65zm-2.95-2.62l2-2.03h-.68l-2.68 2.78v-2.77h-.52v4.65h.52v-1.25l1-1 1.78 2.25h.66l-2.08-2.62z" clip-path="url(#o)"/><defs><path id="p" d="M-77.67 45.32h562.42v723.34H-77.67z"/></defs><clipPath id="q"><use xlink:href="#p" overflow="visible"/></clipPath><path fill="#231F20" d="M376.77 313.3h1.56v-.5h-3.65v.5h1.56v4.16h.53v-4.16zm-2.85-.5h-3.37v4.66h3.4v-.48h-2.87v-1.62h2.54v-.48h-2.54v-1.6h2.84v-.47zm-7.22 1.17c0-.42.4-.76 1-.76.47.02.9.17 1.34.52l.3-.4c-.47-.38-.95-.57-1.63-.57-.88 0-1.52.53-1.52 1.27 0 .77.5 1.12 1.56 1.35.98.2 1.2.45 1.2.9 0 .47-.4.8-1.03.8s-1.1-.23-1.58-.67l-.33.4c.55.5 1.15.73 1.9.73.92 0 1.58-.52 1.58-1.32 0-.7-.48-1.1-1.5-1.3-1.04-.23-1.28-.48-1.28-.93m-2.03 1.17c0 1.07-.75 1.92-1.82 1.92-1.06 0-1.83-.86-1.83-1.93 0-1.07.76-1.92 1.82-1.92s1.83.88 1.83 1.94m.55 0c0-1.3-.95-2.4-2.37-2.4-1.4 0-2.38 1.1-2.38 2.4 0 1.3.95 2.4 2.37 2.4 1.42 0 2.38-1.12 2.38-2.4m-8.4 2.32h3.15v-.48h-2.62v-4.17h-.52v4.66zm-.9-.73l-.36-.34c-.44.4-.86.66-1.5.66-1.02 0-1.8-.85-1.8-1.93s.77-1.9 1.8-1.9c.63 0 1.07.25 1.46.62l.36-.38c-.46-.44-.97-.74-1.8-.74-1.38 0-2.37 1.1-2.37 2.4 0 1.36 1 2.4 2.35 2.4.84 0 1.38-.3 1.86-.8" clip-path="url(#q)"/><defs><path id="r" d="M-77.67 45.32h562.42v723.34H-77.67z"/></defs><clipPath id="s"><use xlink:href="#r" overflow="visible"/></clipPath><path fill="#231F20" d="M440.47 199.3h1.56v-.5h-3.65v.5h1.56v4.16h.53v-4.17zm-2.85-.5h-3.37v4.66h3.4v-.48h-2.87v-1.62h2.54v-.48h-2.54v-1.6h2.84v-.47zm-7.22 1.17c0-.42.4-.75 1-.75.47 0 .9.15 1.34.5l.3-.4c-.47-.38-.95-.58-1.63-.58-.88 0-1.52.53-1.52 1.28 0 .77.5 1.12 1.56 1.35.98.2 1.2.45 1.2.9 0 .46-.4.8-1.03.8s-1.1-.23-1.58-.67l-.33.4c.55.48 1.16.73 1.9.73.92 0 1.58-.52 1.58-1.32 0-.7-.48-1.1-1.5-1.32-1.04-.22-1.28-.46-1.28-.9m-2.03 1.16c0 1.07-.76 1.92-1.82 1.92s-1.83-.87-1.83-1.93.75-1.92 1.82-1.92c1.06.02 1.83.88 1.83 1.94m.55 0c0-1.3-.95-2.4-2.37-2.4s-2.38 1.1-2.38 2.4.95 2.4 2.37 2.4 2.38-1.12 2.38-2.4m-8.4 2.32h3.15v-.48h-2.62v-4.17h-.52v4.66zm-.9-.73l-.36-.34c-.44.4-.86.66-1.5.66-1.02 0-1.8-.85-1.8-1.93s.77-1.92 1.8-1.92c.63.02 1.07.28 1.46.65l.36-.38c-.47-.44-.97-.74-1.8-.74-1.38 0-2.37 1.08-2.37 2.4 0 1.36 1 2.4 2.35 2.4.84 0 1.37-.3 1.86-.8" clip-path="url(#s)"/><defs><path id="t" d="M-77.67 45.32h562.42v723.34H-77.67z"/></defs><clipPath id="u"><use xlink:href="#t" overflow="visible"/></clipPath><path fill="#231F20" d="M411.4 278.3v2.08h.5v-4.65h-.5v2.07h-2.7v-2.07h-.52v4.65h.52v-2.1h2.7zm-5.77-2.1h1.56v-.47h-3.67v.48h1.56v4.18h.52v-4.17zm-3.4 2.48h-2.12l1.07-2.37 1.06 2.38zm-.8-2.98h-.5l-2.12 4.68h.55l.55-1.22h2.54l.54 1.22h.57l-2.12-4.68zm-4.94 4.2h-1.57v-1.63h1.47c.8 0 1.24.3 1.24.8 0 .53-.44.84-1.15.84m-.2-2.1h-1.37v-1.6h1.4c.68 0 1.04.3 1.04.76 0 .56-.43.84-1.06.84m.1-2.07h-2v4.65h2.08c1.02 0 1.7-.47 1.7-1.27 0-.64-.46-.96-1-1.12.35-.16.73-.48.73-1.1 0-.7-.6-1.15-1.5-1.15" clip-path="url(#u)"/><defs><path id="v" d="M-77.67 45.32h562.42v723.34H-77.67z"/></defs><clipPath id="w"><use xlink:href="#v" overflow="visible"/></clipPath><path fill="#231F20" d="M370.26 202.47h-.88v1h.88v-1zm-2.8-1.1v2.1h.53v-4.66h-.53v2.08h-2.7v-2.07h-.5v4.66h.5v-2.1h2.7zm-4.12 1.36l-.35-.34c-.45.4-.87.66-1.5.66-1.03 0-1.8-.85-1.8-1.93s.76-1.92 1.8-1.92c.62.02 1.06.28 1.45.65l.36-.38c-.46-.44-.96-.74-1.8-.74-1.37 0-2.36 1.08-2.36 2.4 0 1.36 1 2.4 2.34 2.4.84 0 1.37-.3 1.86-.8m-5.08-3.92h-3.37v4.66h3.4V203h-2.88v-1.64h2.54v-.48h-2.54v-1.6h2.84v-.47zm-5.2.9v3.76h.52v-4.65h-.54l-1.7 2.55-1.7-2.54h-.52v4.66h.5v-3.76l1.7 2.5h.04l1.7-2.5z" clip-path="url(#w)"/><defs><path id="x" d="M-77.67 45.32h562.42v723.34H-77.67z"/></defs><clipPath id="y"><use xlink:href="#x" overflow="visible"/></clipPath><path fill="#231F20" d="M387.3 233.66c0 1.04-.74 1.83-1.92 1.83h-1.1v-3.7h1.1c1.18 0 1.93.82 1.93 1.86m.55 0c0-1.33-1-2.34-2.47-2.34h-1.62v4.66h1.62c1.46 0 2.47-1.02 2.47-2.33m-5.47 1.33h-.87v1h.88v-1zm-5.8.22l-1.34-3.88h-.57l1.66 4.7h.44l1.28-3.8 1.28 3.8h.44l1.66-4.7h-.55l-1.33 3.88-1.28-3.9h-.43l-1.27 3.9z" clip-path="url(#y)"/><defs><path id="z" d="M-77.67 45.32h562.42v723.34H-77.67z"/></defs><clipPath id="A"><use xlink:href="#z" overflow="visible"/></clipPath><path fill="#231F20" d="M267.95 128.7v3.78h.53v-4.65h-.53l-1.7 2.54-1.7-2.54h-.52v4.65h.5v-3.76l1.7 2.5h.03l1.7-2.5zm-5.58 1.46c0 1.07-.76 1.92-1.82 1.92-1.07 0-1.84-.87-1.84-1.93s.77-1.92 1.83-1.92c1.07 0 1.84.87 1.84 1.93m.54 0c0-1.3-.94-2.4-2.35-2.4s-2.38 1.1-2.38 2.4.95 2.4 2.36 2.4c1.42 0 2.38-1.12 2.38-2.4m-6.18 0c0 1.07-.76 1.92-1.83 1.92s-1.84-.87-1.84-1.93.76-1.92 1.82-1.92c1.07 0 1.84.87 1.84 1.93m.54 0c0-1.3-.95-2.4-2.36-2.4s-2.4 1.1-2.4 2.4.96 2.4 2.38 2.4 2.38-1.12 2.38-2.4m-6.2-.92c0 .6-.5.96-1.2.96h-1.42v-1.9h1.43c.75 0 1.2.36 1.2.94m.7 3.24l-1.44-1.9c.73-.13 1.27-.58 1.27-1.36 0-.84-.66-1.4-1.7-1.4h-2v4.66h.54v-1.8h1.33l1.35 1.8h.64z" clip-path="url(#A)"/><defs><path id="B" d="M-77.67 45.32h562.42v723.34H-77.67z"/></defs><clipPath id="C"><use xlink:href="#B" overflow="visible"/></clipPath><path fill="#231F20" d="M283.78 123.35v-1.85h-1.92v.47h1.42v1.16c-.32.26-.8.46-1.35.46-1.13 0-1.84-.83-1.84-1.95 0-1.04.73-1.9 1.76-1.9.66 0 1.06.2 1.42.52l.34-.4c-.47-.4-.95-.62-1.74-.62-1.4 0-2.33 1.13-2.33 2.4 0 1.35.9 2.4 2.36 2.4.8 0 1.45-.3 1.88-.7m-5.86-.3l-2.93-3.72h-.5v4.65h.5v-3.8l3.02 3.8h.42v-4.65h-.52v3.73zm-5.3.93h.5v-4.65h-.5v4.65zm-3.2-.64l-1.66-4h-.58l2 4.68h.46l2-4.7h-.56l-1.66 4.02zm-3.73.64h.5v-4.65h-.5v4.65zm-4.18 0h3.15v-.48h-2.62v-4.17h-.52v4.65zm-2.32-1h-.88v1h.88v-1zm-2.85.37v-1.85h-1.92v.47h1.4v1.16c-.3.26-.8.46-1.33.46-1.13 0-1.84-.83-1.84-1.95 0-1.04.74-1.9 1.77-1.9.66 0 1.06.2 1.4.52l.35-.4c-.46-.4-.95-.62-1.73-.62-1.4 0-2.33 1.13-2.33 2.4 0 1.35.9 2.4 2.36 2.4.8 0 1.44-.3 1.87-.7m-5.86-.3l-2.94-3.72h-.5v4.65h.52v-3.8l3 3.8h.43v-4.65h-.5v3.73zm-5.32.93h.52v-4.65h-.52v4.65zm-1.88-.92l-2.93-3.73h-.5v4.65h.52v-3.8l3 3.8h.42v-4.65h-.52v3.73zm-5.3.92h.5v-4.65h-.5v4.65zm-1.7-2.32c0 1.04-.76 1.84-1.94 1.84h-1.1v-3.7h1.1c1.18.02 1.93.83 1.93 1.86m.53 0c0-1.33-1-2.33-2.47-2.33h-1.62v4.65h1.62c1.46 0 2.47-1 2.47-2.33" clip-path="url(#C)"/><defs><path id="D" d="M-77.67 45.32h562.42v723.34H-77.67z"/></defs><clipPath id="E"><use xlink:href="#D" overflow="visible"/></clipPath><path fill="#231F20" d="M213 234.85h-3.35v4.65h.52v-2.02h2.52V237h-2.53v-1.67H213v-.48zm-4.44 0h-3.37v4.65h3.4v-.48h-2.88v-1.62h2.54v-.48h-2.54v-1.6h2.84v-.47zm-5.02 1.4c0 .6-.5.97-1.2.97h-1.43v-1.9h1.45c.75.02 1.2.36 1.2.94m.7 3.24l-1.44-1.9c.74-.13 1.27-.58 1.27-1.36 0-.84-.66-1.4-1.68-1.4h-2v4.66h.5v-1.8h1.34l1.35 1.8h.64z" clip-path="url(#E)"/><defs><path id="F" d="M-77.67 45.32h562.42v723.34H-77.67z"/></defs><clipPath id="G"><use xlink:href="#F" overflow="visible"/></clipPath><path fill="#231F20" d="M207.54 273.06l-1.33-3.87h-.56l1.66 4.67h.44l1.28-3.77 1.28 3.77h.44l1.67-4.7h-.55l-1.33 3.9-1.27-3.9h-.44l-1.26 3.9zm-2.96-1.54c0 1.04-.75 1.84-1.93 1.84h-1.1v-3.7h1.1c1.18 0 1.93.82 1.93 1.86m.55-.02c0-1.3-1-2.3-2.48-2.3h-1.6v4.64h1.6c1.47 0 2.48-1.02 2.48-2.34" clip-path="url(#G)"/><path fill="#BBBDBF" d="M248.9 425.23h82v8.42h-82zM175.2 47.35l.17 388.06h10.94v-1.86l3.08-3.06V216.9h-3.94V63.72h6.46V46.87zM333.37 219.1h28.9v26.25h-28.9z"/><path fill="#fff" d="M403.02 227.54h60v31.02h-60z"/><path fill="none" stroke="#000" stroke-width=".788" d="M403.02 227.54h60v31.02h-60z"/><defs><path id="H" d="M-77.67 45.32h562.42v723.34H-77.67z"/></defs><clipPath id="I"><use xlink:href="#H" overflow="visible"/></clipPath><path fill="#fff" d="M416.7 244.17c.7 0 1.26-.57 1.26-1.27 0-.7-.57-1.27-1.27-1.27s-1.28.57-1.28 1.27c0 .7.57 1.27 1.27 1.27" clip-path="url(#I)"/><defs><path id="J" d="M-77.67 45.32h562.42v723.34H-77.67z"/></defs><clipPath id="K"><use xlink:href="#J" overflow="visible"/></clipPath><circle cx="416.691" cy="242.9" r="1.272" fill="none" stroke="#231F20" stroke-width=".656" clip-path="url(#K)"/><defs><path id="L" d="M-77.67 45.32h562.42v723.34H-77.67z"/></defs><clipPath id="M"><use xlink:href="#L" overflow="visible"/></clipPath><path fill="#fff" d="M459.6 242.95c0 8.9-2.07 12.15-4.94 12.15h-43.82c-.7 0-2.15-.2-2.15-2.05v-20.22c0-1.85 1.44-2.04 2.14-2.04h43.82c2.87 0 4.93 3.32 4.93 12.15" clip-path="url(#M)"/><defs><path id="N" d="M-77.67 45.32h562.42v723.34H-77.67z"/></defs><clipPath id="O"><use xlink:href="#N" overflow="visible"/></clipPath><path fill="none" stroke="#000" stroke-width=".656" d="M459.6 242.95c0 8.9-2.07 12.15-4.94 12.15h-43.82c-.7 0-2.15-.2-2.15-2.05v-20.22c0-1.85 1.44-2.04 2.14-2.04h43.82c2.87 0 4.93 3.32 4.93 12.15z" clip-path="url(#O)"/><defs><path id="P" d="M-77.67 45.32h562.42v723.34H-77.67z"/></defs><clipPath id="Q"><use xlink:href="#P" overflow="visible"/></clipPath><path fill="#fff" d="M406.45 245.57c.72 0 1.3.58 1.3 1.3 0 .7-.58 1.3-1.3 1.3-.7 0-1.3-.6-1.3-1.3 0-.72.58-1.3 1.3-1.3" clip-path="url(#Q)"/><defs><path id="R" d="M-77.67 45.32h562.42v723.34H-77.67z"/></defs><clipPath id="S"><use xlink:href="#R" overflow="visible"/></clipPath><path fill="none" stroke="#231F20" stroke-width=".591" d="M406.45 245.57c.72 0 1.3.58 1.3 1.3 0 .7-.58 1.3-1.3 1.3-.7 0-1.3-.6-1.3-1.3 0-.72.58-1.3 1.3-1.3z" clip-path="url(#S)"/><defs><path id="T" d="M-77.67 45.32h562.42v723.34H-77.67z"/></defs><clipPath id="U"><use xlink:href="#T" overflow="visible"/></clipPath><path fill="#fff" d="M406.45 237.5c.72 0 1.3.6 1.3 1.3 0 .72-.58 1.3-1.3 1.3-.7 0-1.3-.58-1.3-1.3 0-.72.6-1.3 1.3-1.3" clip-path="url(#U)"/><defs><path id="V" d="M-77.67 45.32h562.42v723.34H-77.67z"/></defs><clipPath id="W"><use xlink:href="#V" overflow="visible"/></clipPath><path fill="none" stroke="#231F20" stroke-width=".591" d="M406.45 237.5c.72 0 1.3.6 1.3 1.3 0 .72-.58 1.3-1.3 1.3-.7 0-1.3-.58-1.3-1.3 0-.72.6-1.3 1.3-1.3z" clip-path="url(#W)"/><defs><path id="X" d="M-77.67 45.32h562.42v723.34H-77.67z"/></defs><clipPath id="Y"><use xlink:href="#X" overflow="visible"/></clipPath><path fill="#fff" d="M406.07 244.65c-1.07 0-1.93-.72-1.93-1.8 0-1.05.86-1.63 1.93-1.63l7.34.68c.73 0 .73 1.95 0 1.95l-7.33.8z" clip-path="url(#Y)"/><defs><path id="Z" d="M-77.67 45.32h562.42v723.34H-77.67z"/></defs><clipPath id="aa"><use xlink:href="#Z" overflow="visible"/></clipPath><path fill="none" stroke="#231F20" stroke-width=".591" d="M406.07 244.65c-1.07 0-1.93-.72-1.93-1.8 0-1.05.86-1.63 1.93-1.63l7.34.68c.73 0 .73 1.95 0 1.95l-7.33.8z" clip-path="url(#aa)"/><defs><path id="ab" d="M-77.67 45.32h562.42v723.34H-77.67z"/></defs><clipPath id="ac"><use xlink:href="#ab" overflow="visible"/></clipPath><path fill="#fff" d="M453.74 299.5c0-5.87-3.56-12.33-7.94-12.33-4.4 0-7.95 6.46-7.95 12.32 0 5.85 3.56 8.9 7.95 8.9 4.38 0 7.94-3.05 7.94-8.9" clip-path="url(#ac)"/><defs><path id="ad" d="M-77.67 45.32h562.42v723.34H-77.67z"/></defs><clipPath id="ae"><use xlink:href="#ad" overflow="visible"/></clipPath><path fill="none" stroke="#000" stroke-width=".788" d="M453.74 299.5c0-5.87-3.56-12.33-7.94-12.33-4.4 0-7.95 6.46-7.95 12.32 0 5.85 3.56 8.9 7.95 8.9 4.38 0 7.94-3.05 7.94-8.9z" clip-path="url(#ae)"/><defs><path id="af" d="M-77.67 45.32h562.42v723.34H-77.67z"/></defs><clipPath id="ag"><use xlink:href="#af" overflow="visible"/></clipPath><path fill="#fff" d="M441.04 306.48c0-.33-.27-.6-.6-.6h-2.78c-.33 0-.6.27-.6.6v.1c0 .33.27.6.6.6h2.78c.33 0 .6-.27.6-.6v-.1z" clip-path="url(#ag)"/><defs><path id="ah" d="M-77.67 45.32h562.42v723.34H-77.67z"/></defs><clipPath id="ai"><use xlink:href="#ah" overflow="visible"/></clipPath><path fill="none" stroke="#231F20" stroke-width=".788" d="M441.04 306.48c0-.33-.27-.6-.6-.6h-2.78c-.33 0-.6.27-.6.6v.1c0 .33.27.6.6.6h2.78c.33 0 .6-.27.6-.6v-.1z" clip-path="url(#ai)"/><defs><path id="aj" d="M-77.67 45.32h562.42v723.34H-77.67z"/></defs><clipPath id="ak"><use xlink:href="#aj" overflow="visible"/></clipPath><path fill="#fff" d="M436.64 307.2c-1 0-1.8 2.7-1.8 3.68s.8 3.7 1.8 3.7h18.15c1 0 1.8-2.7 1.8-3.7s-.8-3.7-1.8-3.7h-18.16z" clip-path="url(#ak)"/><defs><path id="al" d="M-77.67 45.32h562.42v723.34H-77.67z"/></defs><clipPath id="am"><use xlink:href="#al" overflow="visible"/></clipPath><path fill="none" stroke="#000" stroke-width=".788" d="M436.64 307.2c-1 0-1.8 2.7-1.8 3.68s.8 3.7 1.8 3.7h18.15c1 0 1.8-2.7 1.8-3.7s-.8-3.7-1.8-3.7h-18.16z" clip-path="url(#am)"/><defs><path id="an" d="M-77.67 45.32h562.42v723.34H-77.67z"/></defs><clipPath id="ao"><use xlink:href="#an" overflow="visible"/></clipPath><path fill="#fff" d="M451.64 299.24c0-4.3-2.62-9.05-5.84-9.05-3.23 0-5.84 4.73-5.84 9.04 0 4.3 2.6 6.55 5.84 6.55s5.84-2.25 5.84-6.56" clip-path="url(#ao)"/><defs><path id="ap" d="M-77.67 45.32h562.42v723.34H-77.67z"/></defs><clipPath id="aq"><use xlink:href="#ap" overflow="visible"/></clipPath><path fill="none" stroke="#000" stroke-width=".656" d="M451.64 299.24c0-4.3-2.62-9.05-5.84-9.05-3.23 0-5.84 4.73-5.84 9.04 0 4.3 2.6 6.55 5.84 6.55s5.84-2.25 5.84-6.56z" clip-path="url(#aq)"/><defs><path id="ar" d="M-77.67 45.32h562.42v723.34H-77.67z"/></defs><clipPath id="as"><use xlink:href="#ar" overflow="visible"/></clipPath><path fill="none" stroke="#000" stroke-width=".985" d="M352.6 350.17c16.08 0 29.12-13.03 29.12-29.1m-30.8 29.12h1.7v-29.13h-1.7v29.12zm-151.16 54.47c16.08 0 29.1 13.03 29.1 29.1m-30.77-29.12h1.66v29.12h-1.67v-29.12zm162.74-116.8c0-16.07-13.03-29.1-29.1-29.1m29.12 29.1h-29.13v1.68h29.13v-1.68zm.06 111.03c0-16.08-13.03-29.1-29.1-29.1m29.12 29.1H331.8v1.68h29.14v-1.68z" clip-path="url(#as)"/><path fill="none" stroke="#000" stroke-width=".788" d="M368.32 241.82h26.7m-5.22 0v3.7l-3.2.86h-9.8l-3.25-.86v-3.7m21.46 7.26h-26.5v-24.35H395v24.35z"/><path fill="#fff" d="M369.8 243.42h2.14l.47-1.5h-3.07z"/><path fill="none" stroke="#231F20" stroke-width=".788" d="M369.8 243.42h2.14l.47-1.5h-3.07zM190.25 255.74h26.92V326m0 28.88v18.05h-28.23"/><path fill="none" stroke="#000" stroke-width=".788" d="M217.66 325.02h-25.94v30.52l25.88.03z"/><path fill="none" stroke="#000" stroke-width=".394" d="M193.98 355.56V325"/><defs><path id="at" d="M-77.67 45.32h562.42v723.34H-77.67z"/></defs><clipPath id="au"><use xlink:href="#at" overflow="visible"/></clipPath><path fill="none" stroke="#231F20" stroke-width=".656" d="M214.06 334.45c0-2.2-1.8-3.95-4-3.94-2.18.03-3.95 1.82-3.93 4 .02 2.2 1.8 3.97 4 3.95 2.2-.02 3.95-1.8 3.93-4zm.1 11.9c-.03-2.2-1.8-3.96-4-3.94-2.2.02-3.96 1.8-3.94 4 0 2.2 1.8 3.96 4 3.94 2.2-.02 3.95-1.8 3.93-4zm-10.9-11.82c0-2.2-1.8-3.95-4-3.94-2.18 0-3.94 1.8-3.93 4 .02 2.17 1.8 3.94 4 3.93 2.2-.02 3.96-1.8 3.94-4zm.1 11.9c-.02-2.2-1.8-3.96-4-3.94-2.2 0-3.96 1.8-3.94 3.98.02 2.2 1.8 3.95 4 3.94 2.18-.02 3.95-1.8 3.94-4z" clip-path="url(#au)"/><path fill="none" stroke="#231F20" stroke-width=".788" d="M217.56 325.9h1.2v28.44h-1.2z"/><path fill="none" stroke="#000" stroke-width=".985" stroke-dashoffset="3" d="M334.68 306.14h61.06" stroke-dasharray="1.969,1.969,1.969,1.969,1.969,1.969"/><path fill="none" stroke="#000" stroke-width=".985" d="M395.4 308.44h-61.37"/><defs><path id="av" d="M-77.67 45.32h562.42v723.34H-77.67z"/></defs><clipPath id="aw"><use xlink:href="#av" overflow="visible"/></clipPath><path fill="none" stroke="#231F20" stroke-width=".788" d="M239.82 45.73h-45.96m118.17.03h-48.58m149.36-.04h45.55m-119.07.13h46.36m98.6 91.83V88.24m.02 135.23V176.1m0 142.34v-49.56m0 87.96v50.23M411.5 62.3h47.1m-219.1-.65h-46.87m119.07.66h-45.95M385.23 62h-47.6m129 206.24v49.35m.34 39.6v45.3m0-225.5v43.65m-.33-83.8V88.64" clip-path="url(#aw)"/><path fill="none" stroke="#000" stroke-width=".788" d="M396.4 294.15h31.5v24.73"/><defs><path id="ax" d="M-77.67 45.32h562.42v723.34H-77.67z"/></defs><clipPath id="ay"><use xlink:href="#ax" overflow="visible"/></clipPath><circle cx="413.463" cy="304.86" r="1.2" fill="none" stroke="#000" stroke-width=".525" clip-path="url(#ay)"/><defs><path id="az" d="M-77.67 45.32h562.42v723.34H-77.67z"/></defs><clipPath id="aA"><use xlink:href="#az" overflow="visible"/></clipPath><path fill="none" stroke="#000" stroke-width=".656" d="M413.46 314.8c.65 0 1.17-.53 1.17-1.17s-.52-1.17-1.17-1.17c-.64 0-1.16.52-1.16 1.17s.52 1.16 1.16 1.16zm.54-7.28h-1.07v4.76H414v-4.76zm4.7 4.87h-10.48v2.5h10.5v-2.5z" clip-path="url(#aA)"/><path fill="none" stroke="#000" stroke-width=".788" d="M402.83 296.02h21.27v19.27h-21.27z"/><path fill="none" stroke="#000" stroke-width=".591" d="M404.47 297.67h17.94v14.67h-17.93z"/><path fill="none" stroke="#000" stroke-width=".656" d="M219.97 218.48v36.1"/><path fill="none" stroke="#000" stroke-width=".788" d="M222.12 231.3h1.48v2.8h-1.48zM191.73 218.7h30.37v35.6h-30.37zM222.12 240.1h1.48v2.78h-1.48z"/><path fill="none" stroke="#231F20" stroke-width=".788" stroke-dashoffset="4" d="M401.32 215.7h65.65" stroke-dasharray="2.118,2.118,2.118,2.118,2.118,2.118"/><defs><path id="aB" d="M-77.67 45.32h562.42v723.34H-77.67z"/></defs><clipPath id="aC"><use xlink:href="#aB" overflow="visible"/></clipPath><path fill="#fff" d="M195.7 286.38c-1 0-1.85.84-1.85 1.86v22.63c0 1.02.84 1.85 1.86 1.85h15.92c1.03 0 1.86-.83 1.86-1.85v-22.63c0-1.02-.83-1.86-1.86-1.86h-15.9z" clip-path="url(#aC)"/><defs><path id="aD" d="M-77.67 45.32h562.42v723.34H-77.67z"/></defs><clipPath id="aE"><use xlink:href="#aD" overflow="visible"/></clipPath><path fill="none" stroke="#231F20" stroke-width=".788" d="M195.7 286.38c-1 0-1.85.84-1.85 1.86v22.63c0 1.02.84 1.85 1.86 1.85h15.92c1.03 0 1.86-.83 1.86-1.85v-22.63c0-1.02-.83-1.86-1.86-1.86h-15.9z" clip-path="url(#aE)"/><defs><path id="aF" d="M-77.67 45.32h562.42v723.34H-77.67z"/></defs><clipPath id="aG"><use xlink:href="#aF" overflow="visible"/></clipPath><path fill="#fff" d="M198.2 308.88c0 1.05.85 1.9 1.87 1.9h9.56c1.02 0 1.87-.85 1.87-1.9v-18.6c0-1.05-.85-1.9-1.87-1.9h-9.56c-1.03 0-1.87.85-1.87 1.9v18.6z" clip-path="url(#aG)"/><defs><path id="aH" d="M-77.67 45.32h562.42v723.34H-77.67z"/></defs><clipPath id="aI"><use xlink:href="#aH" overflow="visible"/></clipPath><path fill="none" stroke="#231F20" stroke-width=".591" d="M198.2 308.88c0 1.05.85 1.9 1.87 1.9h9.56c1.02 0 1.87-.85 1.87-1.9v-18.6c0-1.05-.85-1.9-1.87-1.9h-9.56c-1.03 0-1.87.85-1.87 1.9v18.6z" clip-path="url(#aI)"/><defs><path id="aJ" d="M-77.67 45.32h562.42v723.34H-77.67z"/></defs><clipPath id="aK"><use xlink:href="#aJ" overflow="visible"/></clipPath><path fill="#fff" d="M205.07 297.97c-.77 0-1.4.63-1.4 1.4 0 .78.63 1.4 1.4 1.4.77 0 1.4-.62 1.4-1.4 0-.77-.63-1.4-1.4-1.4" clip-path="url(#aK)"/><defs><path id="aL" d="M-77.67 45.32h562.42v723.34H-77.67z"/></defs><clipPath id="aM"><use xlink:href="#aL" overflow="visible"/></clipPath><path fill="none" stroke="#231F20" stroke-width=".525" d="M205.07 297.97c-.77 0-1.4.63-1.4 1.4 0 .78.63 1.4 1.4 1.4.77 0 1.4-.62 1.4-1.4 0-.77-.63-1.4-1.4-1.4z" clip-path="url(#aM)"/><defs><path id="aN" d="M-77.67 45.32h562.42v723.34H-77.67z"/></defs><clipPath id="aO"><use xlink:href="#aN" overflow="visible"/></clipPath><path fill="#fff" d="M195.97 294.34c-.74 0-1.43.6-1.43 1.36v7.38c0 .75.7 1.36 1.43 1.36.75 0 1.44-.6 1.44-1.36v-7.38c0-.75-.68-1.36-1.43-1.36" clip-path="url(#aO)"/><defs><path id="aP" d="M-77.67 45.32h562.42v723.34H-77.67z"/></defs><clipPath id="aQ"><use xlink:href="#aP" overflow="visible"/></clipPath><path fill="none" stroke="#231F20" stroke-width=".525" d="M195.97 294.34c-.74 0-1.43.6-1.43 1.36v7.38c0 .75.7 1.36 1.43 1.36.75 0 1.44-.6 1.44-1.36v-7.38c0-.75-.68-1.36-1.43-1.36z" clip-path="url(#aQ)"/><defs><path id="aR" d="M-77.67 45.32h562.42v723.34H-77.67z"/></defs><clipPath id="aS"><use xlink:href="#aR" overflow="visible"/></clipPath><path fill="#fff" d="M203.83 293.85l-6.88 6.34c-.4.34-1 .3-1.37-.1-.36-.4-.32-1 .1-1.36l7.12-6.05c.33-.3 1.35.86 1.03 1.15" clip-path="url(#aS)"/><defs><path id="aT" d="M-77.67 45.32h562.42v723.34H-77.67z"/></defs><clipPath id="aU"><use xlink:href="#aT" overflow="visible"/></clipPath><path fill="none" stroke="#231F20" stroke-width=".656" d="M203.83 293.85l-6.88 6.34c-.4.34-1 .3-1.37-.1-.36-.4-.32-1 .1-1.36l7.12-6.05c.33-.3 1.35.86 1.03 1.15z" clip-path="url(#aU)"/><defs><path id="aV" d="M-77.67 45.32h562.42v723.34H-77.67z"/></defs><clipPath id="aW"><use xlink:href="#aV" overflow="visible"/></clipPath><path fill="#fff" d="M199.38 300.2h-3.33c-.35 0-.64-.3-.64-.66 0-.35.3-.64.65-.64h3.33c.36 0 .64.3.64.64 0 .36-.28.65-.64.65" clip-path="url(#aW)"/><defs><path id="aX" d="M-77.67 45.32h562.42v723.34H-77.67z"/></defs><clipPath id="aY"><use xlink:href="#aX" overflow="visible"/></clipPath><path fill="none" stroke="#231F20" stroke-width=".525" d="M199.38 300.2h-3.33c-.35 0-.64-.3-.64-.66 0-.35.3-.64.65-.64h3.33c.36 0 .64.3.64.64 0 .36-.28.65-.64.65z" clip-path="url(#aY)"/><defs><path id="aZ" d="M-77.67 45.32h562.42v723.34H-77.67z"/></defs><clipPath id="ba"><use xlink:href="#aZ" overflow="visible"/></clipPath><path fill="#fff" d="M196.1 301.6c-.43 0-.77.34-.77.77 0 .42.34.77.77.77.42 0 .77-.35.77-.77 0-.43-.34-.78-.77-.78" clip-path="url(#ba)"/><defs><path id="bb" d="M-77.67 45.32h562.42v723.34H-77.67z"/></defs><clipPath id="bc"><use xlink:href="#bb" overflow="visible"/></clipPath><path fill="none" stroke="#231F20" stroke-width=".46" d="M196.1 301.6c-.43 0-.77.34-.77.77 0 .42.34.77.77.77.42 0 .77-.35.77-.77 0-.43-.34-.78-.77-.78z" clip-path="url(#bc)"/><defs><path id="bd" d="M-77.67 45.32h562.42v723.34H-77.67z"/></defs><clipPath id="be"><use xlink:href="#bd" overflow="visible"/></clipPath><path fill="#fff" d="M196.03 295.63c-.43 0-.77.35-.77.78 0 .44.35.78.77.78.42 0 .77-.34.77-.77 0-.42-.34-.77-.77-.77" clip-path="url(#be)"/><defs><path id="bf" d="M-77.67 45.32h562.42v723.34H-77.67z"/></defs><clipPath id="bg"><use xlink:href="#bf" overflow="visible"/></clipPath><path fill="none" stroke="#231F20" stroke-width=".46" d="M196.03 295.63c-.43 0-.77.35-.77.78 0 .44.35.78.77.78.42 0 .77-.34.77-.77 0-.42-.34-.77-.77-.77z" clip-path="url(#bg)"/><path fill="none" stroke="#000" stroke-width=".656" stroke-dashoffset="3" d="M214.36 282.44H195.8" stroke-dasharray="1.955,1.955,1.955,1.955,1.955,1.955"/><path fill="none" stroke="#000" stroke-width=".656" stroke-dashoffset="3" d="M193.83 279.56v-18.22" stroke-dasharray="1.918,1.918,1.918,1.918,1.918,1.918"/><path fill="none" stroke="#000" stroke-width=".656" stroke-dashoffset="3" d="M196.7 259.42h18.16" stroke-dasharray="1.911,1.911,1.911,1.911,1.911,1.911"/><path fill="none" stroke="#000" stroke-width=".656" d="M215.8 259.42h.97m-22.94.96v-.96h.96m0 23.02h-.97v-.96m23.46.96h-1M216.77 259.4h2.5v23.04h-1.97"/><path fill="none" stroke="#000" stroke-width=".985" d="M341.18 182.04h35.12V184h-35.12z"/><defs><path id="bh" d="M-77.67 45.32h562.42v723.34H-77.67z"/></defs><clipPath id="bi"><use xlink:href="#bh" overflow="visible"/></clipPath><path fill="none" stroke="#231F20" stroke-width="3.939" d="M193.54 51.64h46.6m25.77 0h45.64m28.07 0h45.8m24.78 0h48.25m18.65 37.15v47.57m-.03 41v45.66m.06 42.23v50.55m0 40.4v47.9" clip-path="url(#bi)"/><path fill="none" stroke="#231F20" stroke-width="5.252" d="M397.7 224.63h68.6m-2.5 94.78h-68.6m-63.14-23.72h65.03v25.82m-63.73.55h17.4m29.9.44h88.6M331.93 63.6v71.44m-.03 39.4v84.98m0 29.68v80.76m0 30.84v35.56m-146.9-2.3h12.8m30.72 0h242.06"/><path fill="none" stroke="#231F20" stroke-width="6.565" d="M400 260.23v-41.76h-66.63"/><path fill="none" stroke="#231F20" stroke-width=".788" d="M327.24 154.26h1.97v47.6h-1.96z"/><path fill="#BBBDBF" d="M240.77 47.32v17.1l24.07-.06V47.34z"/><defs><path id="bj" d="M-77.67 45.32h562.42v723.34H-77.67z"/></defs><clipPath id="bk"><use xlink:href="#bj" overflow="visible"/></clipPath><path fill="none" stroke="#231F20" stroke-width="3.939" d="M240.77 47.32v17.1l24.07-.06V47.34z" clip-path="url(#bk)"/><path fill="#BBBDBF" d="M312.77 47.33v17.1l26.04-.06V47.34z"/><defs><path id="bl" d="M-77.67 45.32h562.42v723.34H-77.67z"/></defs><clipPath id="bm"><use xlink:href="#bl" overflow="visible"/></clipPath><path fill="none" stroke="#231F20" stroke-width="3.939" d="M312.77 47.33v17.1l26.04-.06V47.34z" clip-path="url(#bm)"/><path fill="#BBBDBF" d="M385.64 47.33v17.1l25.6-.06V47.34z"/><defs><path id="bn" d="M-77.67 45.32h562.42v723.34H-77.67z"/></defs><clipPath id="bo"><use xlink:href="#bn" overflow="visible"/></clipPath><path fill="none" stroke="#231F20" stroke-width="3.939" d="M385.64 47.33v17.1l25.6-.06V47.34z" clip-path="url(#bo)"/><path fill="#BBBDBF" d="M465.03 136.16v44.35l17.64-.07v-44.3z"/><defs><path id="bp" d="M-77.67 45.32h562.42v723.34H-77.67z"/></defs><clipPath id="bq"><use xlink:href="#bp" overflow="visible"/></clipPath><path fill="none" stroke="#231F20" stroke-width="3.939" d="M465.03 136.16v44.35l17.64-.07v-44.3z" clip-path="url(#bq)"/><path fill="#BBBDBF" d="M459.45 47.3v16.76l5.53.04v22.98l17.63-.02V47.34z"/><defs><path id="br" d="M-77.67 45.32h562.42v723.34H-77.67z"/></defs><clipPath id="bs"><use xlink:href="#br" overflow="visible"/></clipPath><path fill="none" stroke="#231F20" stroke-width="3.939" d="M459.45 47.3v16.76l5.53.04v22.98l17.63-.02V47.34z" clip-path="url(#bs)"/><path fill="#BBBDBF" d="M465.24 221.72h17.5v48.23h-17.5z"/><defs><path id="bt" d="M-77.67 45.32h562.42v723.34H-77.67z"/></defs><clipPath id="bu"><use xlink:href="#bt" overflow="visible"/></clipPath><path fill="none" stroke="#231F20" stroke-width="3.939" d="M465.24 221.72h17.5v48.23h-17.5z" clip-path="url(#bu)"/><path fill="#BBBDBF" d="M465.2 317h17.5v42.03h-17.5z"/><defs><path id="bv" d="M-77.67 45.32h562.42v723.34H-77.67z"/></defs><clipPath id="bw"><use xlink:href="#bv" overflow="visible"/></clipPath><path fill="none" stroke="#231F20" stroke-width="3.939" d="M465.2 317h17.5v42.03h-17.5z" clip-path="url(#bw)"/><path fill="#BBBDBF" d="M482.7 434.58h-17.66l.08-31h17.65z"/><defs><path id="bx" d="M-77.67 45.32h562.42v723.34H-77.67z"/></defs><clipPath id="by"><use xlink:href="#bx" overflow="visible"/></clipPath><path fill="none" stroke="#231F20" stroke-width="3.939" d="M482.7 434.58h-17.66l.08-31h17.65z" clip-path="url(#by)"/><defs><path id="bz" d="M-77.67 45.32h562.42v723.34H-77.67z"/></defs><clipPath id="bA"><use xlink:href="#bz" overflow="visible"/></clipPath><path fill="none" stroke="#231F20" stroke-width="3.939" d="M186 430.97h3.23V215.75h-4.45l-.06-151.4 7.9.02V47.34h-17.4l.2 387.33h12.2" clip-path="url(#bA)"/><path fill="none" stroke="#231F20" stroke-width="6.565" d="M434.47 183.2h-60.83m-30.7 0h-10.88"/><path fill="none" stroke="#231F20" stroke-width="5.252" d="M331.18 408.16h-78.34v18.4h-18.82v6.1m97.6-186.87h31.95v-25.4m22.32-37.2v35"/><path fill="none" stroke="#231F20" stroke-width="3.939" d="M189.23 215.75h36.15"/><path fill="none" stroke="#231F20" stroke-width="5.252" d="M236.2 429.6h95"/><path fill="#BBBDBF" d="M252.84 408.16h79.66v23.64h-79.66z"/><path fill="none" stroke="#231F20" stroke-width="3.939" d="M252.84 408.16h79.66v23.64h-79.66z"/><path fill="none" stroke="#231F20" stroke-width="7.878" d="M197.66 428.37h-8.28"/><path fill="none" stroke="#231F20" stroke-width="3.939" stroke-dashoffset="8" d="M187.52 64.75v150.12" stroke-dasharray="6.003,2.003,6.003,2.003,6.003,2.003"/><path fill="#fff" d="M475.5 361.1h3.2v18.78h-3.2z"/><path fill="none" stroke="#000" stroke-width=".788" d="M475.5 361.1h3.2v18.78h-3.2zM477.17 379.88v-18.66"/><path fill="#fff" d="M475.5 379.93h3.2v19.26h-3.2z"/><path fill="none" stroke="#000" stroke-width=".788" d="M475.5 379.93h3.2v19.26h-3.2zM477.17 399.2v-19.27"/><path fill="#fff" d="M475.5 271.65h3.2v18.76h-3.2z"/><path fill="none" stroke="#000" stroke-width=".788" d="M475.5 271.65h3.2v18.76h-3.2zM477.17 290.4v-18.64"/><path fill="#fff" d="M475.5 290.46h3.2v19.26h-3.2z"/><path fill="none" stroke="#000" stroke-width=".788" d="M475.5 290.46h3.2v19.26h-3.2zM477.17 309.72v-19.26"/><path fill="#fff" d="M475.5 183.3h3.2v16.48h-3.2z"/><path fill="none" stroke="#000" stroke-width=".788" d="M475.5 183.3h3.2v16.48h-3.2zM477.17 199.78v-18.66"/><path fill="#fff" d="M475.5 199.83h3.2v17.07h-3.2z"/><path fill="none" stroke="#000" stroke-width=".788" d="M475.5 199.83h3.2v17.07h-3.2zM477.17 219.1v-19.27"/><path fill="#fff" d="M475.5 93.08h3.2v18.76h-3.2z"/><path fill="none" stroke="#000" stroke-width=".788" d="M475.5 93.08h3.2v18.76h-3.2zM477.17 111.84V93.2"/><path fill="#fff" d="M475.5 111.9h3.2v19.25h-3.2z"/><path fill="none" stroke="#000" stroke-width=".788" d="M475.5 111.9h3.2v19.25h-3.2zM477.17 131.15V111.9"/><path fill="#fff" d="M270.2 50.04h18.76v3.2H270.2z"/><path fill="none" stroke="#000" stroke-width=".788" d="M270.2 50.04h18.76v3.2H270.2zM288.96 51.56H270.3"/><path fill="#fff" d="M289 50.04h19.27v3.2H289z"/><path fill="none" stroke="#000" stroke-width=".788" d="M289 50.04h19.27v3.2H289zM308.27 51.56H289"/><path fill="#fff" d="M343.6 50.04h18.78v3.2h-18.76z"/><path fill="none" stroke="#000" stroke-width=".788" d="M343.6 50.04h18.78v3.2h-18.76zM362.38 51.56h-18.65"/><path fill="#fff" d="M362.43 50.04h19.26v3.2h-19.27z"/><path fill="none" stroke="#000" stroke-width=".788" d="M362.43 50.04h19.26v3.2h-19.27zM381.7 51.56h-19.27"/><path fill="#fff" d="M416.64 50.04h18.77v3.2h-18.76z"/><path fill="none" stroke="#000" stroke-width=".788" d="M416.64 50.04h18.77v3.2h-18.76zM435.4 51.56h-18.65"/><path fill="#fff" d="M435.46 50.04h19.26v3.2h-19.26z"/><path fill="none" stroke="#000" stroke-width=".788" d="M435.46 50.04h19.26v3.2h-19.26zM454.7 51.56h-19.24"/><path fill="#fff" d="M197.04 50.04h18.77v3.2h-18.76z"/><path fill="none" stroke="#000" stroke-width=".788" d="M197.04 50.04h18.77v3.2h-18.76zM215.8 51.56h-18.65"/><path fill="#fff" d="M215.86 50.04h19.26v3.2h-19.26z"/><path fill="none" stroke="#000" stroke-width=".788" d="M215.86 50.04h19.26v3.2h-19.26zM235.12 51.56h-19.26"/></g><defs><path id="bB" d="M45.16 145.8H145.3v4.56H45.17z"/></defs><clipPath id="bC"><use xlink:href="#bB" overflow="visible"/></clipPath><path fill="#231F20" d="M145.3 146.18v-.3h-3.4v.3h1.54v4.1h.33v-4.1h1.53zm-5.8 4.1v-.3h-2.83v-1.76h2.52v-.3h-2.53v-1.74h2.8v-.3h-3.13v4.4h3.17zm-5.86 0v-.3h-2.84v-1.76h2.52v-.3h-2.52v-1.74h2.8v-.3h-3.13v4.4h3.17zm-6.28-3.12c0 .63-.55 1-1.28 1h-1.5v-1.98h1.52c.8 0 1.26.37 1.26.97zm.5 3.13l-1.46-1.9c.74-.1 1.3-.52 1.3-1.26s-.64-1.26-1.6-1.26h-1.84v4.4h.33v-1.82h1.43l1.4 1.83h.42zm-6.25-4.12v-.3h-3.4v.3h1.55v4.1h.33v-4.1h1.53zm-5.7 2.97v-.02c0-.64-.44-1-1.46-1.2-1.04-.23-1.28-.5-1.28-.98 0-.47.43-.84 1.07-.84.5 0 .9.15 1.32.5l.2-.25c-.44-.36-.86-.54-1.5-.54-.82 0-1.42.52-1.42 1.17v.02c0 .65.43 1 1.48 1.23 1.02.2 1.26.47 1.26.94 0 .5-.45.88-1.1.88-.66 0-1.1-.2-1.6-.65l-.2.24c.52.48 1.06.7 1.77.7.85 0 1.46-.48 1.46-1.2m-11.17 1.15v-4.42h-.32v3.84l-3.03-3.84h-.3v4.4h.3v-3.9l3.1 3.9h.26zm-6.78-2.2c0 1.1-.78 1.97-1.87 1.97s-1.88-.9-1.88-1.98v-.03c0-1.1.78-1.97 1.87-1.97s1.88.9 1.88 1.98v.02zm.34-.02c0-1.2-.88-2.28-2.22-2.28-1.33 0-2.22 1.08-2.22 2.28 0 1.22.87 2.28 2.2 2.28 1.34 0 2.23-1.07 2.23-2.28m-6.55-1.9v-.3h-3.4v.3h1.54v4.1h.3v-4.1h1.55zm-5.8 3.52V148h-1.8v.3h1.5v1.27c-.33.27-.86.5-1.42.5-1.17 0-1.9-.84-1.9-1.98v-.03c0-1.06.76-1.97 1.83-1.97.67 0 1.07.23 1.42.53l.22-.25c-.44-.36-.9-.58-1.62-.58-1.3 0-2.18 1.1-2.18 2.28v.02c0 1.24.83 2.27 2.22 2.27.72 0 1.34-.3 1.73-.67m-6.7.6v-4.42h-.33v3.84l-3.04-3.84h-.3v4.4h.3v-3.9l3.1 3.9h.26zm-6.7-4.42h-.32v4.4h.33v-4.4zm-3.32 4.4v-4.4h-.33v2.04h-2.82v-2.04h-.33v4.4h.33v-2.06h2.82v2.07h.33zm-6.2-1.13v-.02c0-.64-.44-1-1.46-1.2-1.05-.23-1.28-.5-1.28-.98 0-.47.4-.84 1.06-.84.5 0 .9.15 1.32.5l.2-.25c-.44-.36-.86-.54-1.5-.54-.83 0-1.42.52-1.42 1.17v.02c0 .65.42 1 1.48 1.23 1 .2 1.25.47 1.25.94 0 .5-.46.88-1.12.88-.65 0-1.1-.2-1.6-.65l-.2.24c.53.48 1.07.7 1.78.7.85 0 1.46-.48 1.46-1.2m-6.5-.38h-2.33l1.15-2.55 1.16 2.56zm1.05 1.53l-2.05-4.45h-.32l-2.05 4.44h.34l.55-1.25h2.6l.57 1.24h.35zm-6.1-4.42h-.34l-1.38 3.92-1.3-3.94h-.25l-1.3 3.94-1.38-3.92h-.36l1.6 4.44h.26l1.3-3.83 1.3 3.82h.25l1.6-4.44z" clip-path="url(#bC)"/></svg>