<svg xmlns="http://www.w3.org/2000/svg" width="513.359" height="495.36" xmlns:xlink="http://www.w3.org/1999/xlink"><g><path fill="#fff" d="M78.57 22.1h33.15v44.2H78.57zM111.72 22.1h33.15v44.2h-33.15z"/><path fill="#BBBDBF" d="M144.02 73.94V66.3h-23.8v7.64h-8.5v41.65h33.15V73.93z"/><path fill="#fff" d="M78.57 73.1h-20.4v22.1H45.42v20.4h33.15zM77.72 73.1v42.5h34v-17h-6.8V85H88.77V72.23zM45.42 21.24h32.3V66.3h-13.6v-6.8h-4.25V49.3H45.42z"/><defs><path id="a" d="M-46.03 20.5h530.8v739.63h-530.8z"/></defs><clipPath id="b"><use xlink:href="#a" overflow="visible"/></clipPath><path fill="none" stroke="#262626" stroke-width="2.053" stroke-miterlimit="10" d="M144.9 115.82H45.16v-94.3h99.72z" clip-path="url(#b)"/><defs><path id="c" d="M-46.03 20.5h530.8v739.63h-530.8z"/></defs><clipPath id="d"><use xlink:href="#c" overflow="visible"/></clipPath><path fill="none" stroke="#262626" stroke-width="1.173" stroke-miterlimit="10" d="M58.52 73.44h61.44V66.1m-71.12-7.03h11.3m-11.6 7.9h9.98v.9m0 3.22v24.2H46.05M45.17 67h3.37V48.94h11.6V59.5h3.95v6.9h81.1m-66.9 49.7v-43m33.3 43v-43m0-7.3V22.2M78.17 65.8V22.2" clip-path="url(#d)"/><defs><path id="e" d="M-46.03 20.5h530.8v739.63h-530.8z"/></defs><clipPath id="f"><use xlink:href="#e" overflow="visible"/></clipPath><path fill="none" stroke="#000" stroke-width=".425" d="M55.17 67.8c0 1.78 1.45 3.24 3.25 3.24m-3.26-3.25h3.26v-.2h-3.26v.2zm55.05 8.8c-1.8 0-3.24-1.46-3.24-3.26m3.44 3.25h-.2v-3.26h.2v3.25zm-33.24-.08c-1.8 0-3.25-1.46-3.25-3.25m3.45 3.25h-.2v-3.25h.2v3.25zm35.7.07c1.8 0 3.27-1.46 3.27-3.26m-3.44 3.25h.18v-3.26h-.18v3.25zm-32.5-.08c1.8 0 3.24-1.46 3.24-3.25m-3.43 3.25h.17v-3.25h-.18v3.25zM113.67 63c1.8 0 3.25 1.44 3.25 3.24M113.5 63h.18v3.24h-.2V63zm-18.8-.12c-1.8 0-3.25 1.45-3.25 3.25m3.44-3.25h-.2v3.25h.2v-3.25zm-27.37 2.26c0-1.8-1.45-3.25-3.25-3.25m3.26 3.24h-3.26v.2h3.26v-.2z" clip-path="url(#f)"/><path fill="none" stroke="#000" stroke-width=".452" d="M49.12 82.24h8.96m-12.2 1.2h12.2m-12.23 1.2h12.2m-12.16 1.2H58.1m-12.2 1.2h12.2m-12.2 1.18h12.2M45.95 89.5h12.17"/><path fill="none" stroke="#000" stroke-width=".425" d="M45.9 85l3.66-2.7-.2-.56.94.88-.26-.65 1.77-1.07m-6.24-6.62h6.38m-6.38 1.2h6.38m-6.38 1.2h6.38m-6.38 1.2h6.38m-6.38 1.2h6.38m-6.38 1.2h6.32m-6.44 1.2h5.47m-5.1.94h3.55"/><path fill="none" stroke="#000" stroke-width=".452" d="M51.37 81.04h6.77"/><path fill="none" stroke="#000" stroke-width=".425" d="M94.2 73.28l.93 2.88.6-.04-1.1.68.7-.1.6 2.13m7.4-5v4.98m-1.2-4.98v5m-1.18-5v5m-1.2-5v5m-1.2-5v4.9m-1.2-4.9v4.9m-1.2-4.9v4.9m-1.2-4.9v1.65"/><path fill="#fff" d="M92.4 79.54h11.28v-.6h-11.3v.6zm11.58.3H92.1v-1.18h11.88v1.17z"/><path fill="none" stroke="#262626" stroke-width=".425" d="M92.4 79.54h11.28v-.6h-11.3v.6zm11.58.3H92.1v-1.18h11.88v1.17z"/><path fill="#fff" d="M52.13 89.75h.58V74.4h-.57v15.34zm-.3-15.73H53v16.12h-1.17V74z"/><path fill="none" stroke="#262626" stroke-width=".495" d="M52.13 89.75h.58V74.4h-.57v15.34zm-.3-15.73H53v16.12h-1.17V74z"/><path fill="none" stroke="#000" stroke-width=".425" d="M94.86 76.8v1.93m-1.2-4.9v4.9m-1.2-4.9v4.9m2.35 1.15v4.9m-1.2-4.9v4.9m-1.2-4.9v4.9m11.04-4.92v5m-1.2-5v5m-1.2-5v5m-1.32-5v5m-1.2-5v4.9m-1.2-4.9v4.9m-1.2-4.9v4.9"/><path fill="none" stroke="#262626" stroke-width="1.173" stroke-miterlimit="10" d="M104.7 79v6.46M88.3 73.44v11.3h16.43v13.2h6.76"/><path fill="none" stroke="#000" stroke-width=".442" d="M104.95 84.5h6.3m-6.3 1.18h6.3m-6.3 1.2h6.3m-6.3 1.2h6.3m-6.3 1.2h6.3m-6.3 1.2h6.3m-6.3 1.2h6.3m-6.3 1.2h6.3m-6.3 1.2h6.3m-6.3 1.18h6.3m-6.3 1.2h6.3"/><path d="M56.62 52h-3.37v1.54h3v.94h-3v1.6h3.4V57h-4.44v-5.94h4.42V52z"/><defs><path id="g" d="M-46.03 20.5h530.8v739.63h-530.8z"/></defs><clipPath><use xlink:href="#g" overflow="visible"/></clipPath><defs><path id="h" d="M-46.03 20.5h530.8v739.63h-530.8z"/></defs><clipPath id="i"><use xlink:href="#h" overflow="visible"/></clipPath><path fill="#231F20" d="M408.5 348.06l-2.94-3.73h-.5v4.65h.52v-3.82l3 3.82h.42v-4.66h-.5v3.74zm-4.52-3.74h-3.37v4.66h3.4v-.48h-2.86v-1.63h2.54v-.48h-2.54v-1.6h2.84v-.48zm-5.2 2.56v2.1h.52v-4.66h-.53v2.07h-2.7v-2.08h-.5V349h.5v-2.1h2.7zm-4.14 1.36l-.35-.34c-.45.43-.87.67-1.5.67-1.03 0-1.8-.84-1.8-1.93s.76-1.9 1.8-1.9c.62 0 1.06.26 1.45.63l.36-.4c-.45-.43-.96-.73-1.8-.73-1.37 0-2.36 1.1-2.36 2.42 0 1.34 1 2.4 2.34 2.4.84 0 1.37-.33 1.86-.82m-6.22-3.43h1.56v-.47h-3.65v.48h1.56V349h.52v-4.17zm-3.65 4.18h.53v-4.66h-.53V349zm-2.94-2.62l2-2.04h-.7l-2.66 2.78v-2.78h-.53v4.66h.53v-1.25l1-1 1.78 2.25h.65l-2.07-2.62z" clip-path="url(#i)"/><defs><path id="j" d="M-46.03 20.5h530.8v739.63h-530.8z"/></defs><clipPath id="k"><use xlink:href="#j" overflow="visible"/></clipPath><path fill="#231F20" d="M335.33 248.88v-1.57h-.5v3.67h.5v-1.56h4.17v-.52h-4.17zm-.5 2.85v3.36h4.67v-3.4h-.48v2.87h-1.63v-2.54h-.5v2.54h-1.58v-2.84h-.48zm1.18 7.2c-.42 0-.75-.37-.75-.98 0-.48.15-.9.5-1.34l-.4-.3c-.38.47-.57.96-.57 1.64 0 .88.53 1.53 1.27 1.53.78 0 1.12-.5 1.35-1.57.2-.97.46-1.2.9-1.2.47 0 .8.4.8 1.03 0 .65-.22 1.1-.66 1.6l.38.32c.5-.56.75-1.16.75-1.9 0-.92-.52-1.6-1.32-1.6-.72 0-1.1.5-1.33 1.53-.22 1.02-.47 1.26-.9 1.26m1.16 2.03c1.06 0 1.9.76 1.9 1.82s-.85 1.83-1.9 1.83c-1.08 0-1.93-.76-1.93-1.82s.86-1.83 1.93-1.83m0-.54c-1.3 0-2.42.95-2.42 2.36s1.13 2.37 2.42 2.37 2.4-.95 2.4-2.36c0-1.4-1.13-2.37-2.4-2.37m2.32 8.4v-3.16h-.5v2.62h-4.16v.52h4.66zm-.74.9l-.34.35c.43.45.67.87.67 1.5 0 1.03-.85 1.8-1.93 1.8s-1.92-.76-1.92-1.8c0-.63.27-1.06.64-1.46l-.4-.36c-.43.47-.74.97-.74 1.82 0 1.37 1.1 2.35 2.42 2.35 1.34 0 2.4-1 2.4-2.33 0-.85-.33-1.38-.82-1.87" clip-path="url(#k)"/><defs><path id="l" d="M-46.03 20.5h530.8v739.63h-530.8z"/></defs><clipPath id="m"><use xlink:href="#l" overflow="visible"/></clipPath><path fill="#231F20" d="M343.37 58.94h1.56v-.5h-3.66v.5h1.56v4.17h.54v-4.16zm-2.86-.5h-3.35v4.67h3.4v-.47h-2.87V61h2.54v-.48h-2.54v-1.6h2.83v-.47zm-7.2 1.18c0-.43.4-.76 1-.76.47 0 .9.15 1.33.5l.3-.4c-.46-.38-.95-.57-1.63-.57-.88 0-1.53.52-1.53 1.26 0 .78.5 1.12 1.57 1.35.97.22 1.2.47 1.2.9 0 .48-.4.8-1.03.8-.64 0-1.1-.22-1.6-.65l-.3.38c.55.5 1.15.75 1.9.75.9 0 1.58-.52 1.58-1.33 0-.72-.48-1.1-1.52-1.32-1.02-.22-1.26-.47-1.26-.9m-2.03 1.16c0 1.05-.76 1.9-1.82 1.9s-1.84-.86-1.84-1.93.77-1.9 1.84-1.9 1.83.85 1.83 1.92m.55-.02c0-1.3-.95-2.4-2.37-2.4-1.42 0-2.38 1.12-2.38 2.4s.95 2.4 2.37 2.4 2.38-1.12 2.38-2.4m-8.4 2.33h3.15v-.48h-2.62v-4.17h-.52v4.66zm-.9-.73l-.36-.34c-.44.43-.86.67-1.5.67-1.03 0-1.8-.84-1.8-1.92s.77-1.92 1.8-1.92c.63 0 1.07.27 1.46.64l.36-.4c-.47-.43-.97-.73-1.82-.73-1.36 0-2.35 1.1-2.35 2.42 0 1.33 1 2.4 2.34 2.4.85 0 1.38-.34 1.87-.83" clip-path="url(#m)"/><defs><path id="n" d="M-46.03 20.5h530.8v739.63h-530.8z"/></defs><clipPath id="o"><use xlink:href="#n" overflow="visible"/></clipPath><path fill="#231F20" d="M300.46 227.84v2.1h.53v-4.66h-.54v2.07h-2.7v-2.07h-.5v4.66h.5v-2.1h2.7zm-5.76-2.08h1.56v-.48h-3.65v.48h1.57v4.17h.53v-4.17zm-3.4 2.47h-2.12l1.07-2.37 1.06 2.37zm-.8-2.98h-.5l-2.1 4.7h.53l.55-1.24h2.53l.56 1.24h.56l-2.12-4.7zm-4.93 4.2H284v-1.63h1.47c.82 0 1.24.3 1.24.8 0 .53-.43.84-1.13.84m-.2-2.1H284v-1.6h1.42c.66 0 1.03.3 1.03.76 0 .55-.44.83-1.07.83m.1-2.07h-2v4.66h2.07c1.02 0 1.7-.48 1.7-1.28 0-.65-.45-.97-1-1.13.36-.16.73-.47.73-1.1 0-.7-.6-1.15-1.5-1.15" clip-path="url(#o)"/><defs><path id="p" d="M-46.03 20.5h530.8v739.63h-530.8z"/></defs><clipPath id="q"><use xlink:href="#p" overflow="visible"/></clipPath><path fill="#231F20" d="M335.4 102.26h-.88v1h.87v-1zm-2.8-1.1v2.1h.53V98.6h-.53v2.07h-2.7V98.6h-.5v4.66h.5v-2.1h2.7zm-4.13 1.36l-.34-.34c-.45.42-.87.67-1.5.67-1.03 0-1.8-.84-1.8-1.93s.76-1.9 1.8-1.9c.62 0 1.06.25 1.46.62l.34-.38c-.46-.44-.97-.74-1.8-.74-1.38 0-2.36 1.08-2.36 2.4 0 1.36 1 2.4 2.33 2.4.85.02 1.38-.3 1.87-.8m-5.08-3.92h-3.37v4.66h3.4v-.48h-2.88v-1.63h2.54v-.48h-2.55v-1.6h2.84v-.47zm-5.22.9v3.76h.53V98.6h-.52l-1.7 2.54-1.7-2.54h-.52v4.66h.5V99.5l1.7 2.48h.03l1.68-2.5z" clip-path="url(#q)"/><defs><path id="r" d="M-46.03 20.5h530.8v739.63h-530.8z"/></defs><clipPath id="s"><use xlink:href="#r" overflow="visible"/></clipPath><path fill="#231F20" d="M255 175.37c1.05 0 1.84.75 1.84 1.93v1.1h-3.68v-1.1c0-1.18.8-1.93 1.85-1.93m0-.55c-1.32 0-2.32 1-2.32 2.48v1.6h4.65v-1.6c0-1.47-1.02-2.48-2.33-2.48m2.33 5.47h-1v.87h1v-.88zm-.78 5.8l-3.87 1.34v.57l4.68-1.65v-.44l-3.77-1.28 3.76-1.27v-.45l-4.7-1.66v.55l3.9 1.32-3.9 1.28v.43l3.9 1.28z" clip-path="url(#s)"/><defs><path id="t" d="M-46.03 20.5h530.8v739.63h-530.8z"/></defs><clipPath id="u"><use xlink:href="#t" overflow="visible"/></clipPath><path fill="#231F20" d="M338.1 405.35v3.77h.54v-4.66h-.53l-1.7 2.54-1.68-2.54h-.54v4.66h.5v-3.77l1.7 2.5h.04l1.7-2.5zm-5.58 1.45c0 1.06-.75 1.9-1.82 1.9-1.06 0-1.83-.85-1.83-1.9 0-1.08.76-1.93 1.82-1.93s1.82.86 1.82 1.93m.55 0c0-1.3-.95-2.42-2.36-2.42-1.4 0-2.38 1.13-2.38 2.42 0 1.3.95 2.4 2.37 2.4 1.4 0 2.37-1.13 2.37-2.4m-6.2 0c0 1.06-.75 1.9-1.82 1.9-1.06 0-1.83-.85-1.83-1.9 0-1.08.76-1.93 1.82-1.93s1.83.86 1.83 1.93m.55 0c0-1.3-.95-2.42-2.37-2.42s-2.38 1.13-2.38 2.42c0 1.3.95 2.4 2.37 2.4 1.4 0 2.38-1.13 2.38-2.4m-6.2-.93c0 .6-.5.97-1.2.97h-1.43v-1.9h1.43c.75 0 1.2.36 1.2.93m.7 3.25l-1.44-1.9c.72-.14 1.25-.6 1.25-1.37 0-.83-.65-1.4-1.68-1.4h-2v4.67h.52v-1.8h1.32l1.35 1.8h.65z" clip-path="url(#u)"/><defs><path id="v" d="M-46.03 20.5h530.8v739.63h-530.8z"/></defs><clipPath id="w"><use xlink:href="#v" overflow="visible"/></clipPath><path fill="#231F20" d="M353.94 400v-1.87h-1.92v.48h1.4v1.16c-.3.26-.8.47-1.33.47-1.14 0-1.85-.83-1.85-1.94 0-1.06.73-1.93 1.77-1.93.65 0 1.06.22 1.4.53l.35-.4c-.46-.4-.95-.6-1.73-.6-1.4 0-2.34 1.12-2.34 2.4 0 1.34.9 2.4 2.37 2.4.78 0 1.44-.33 1.87-.7m-5.86-.3l-2.93-3.74h-.5v4.66h.52v-3.82l3 3.82h.42v-4.66h-.52v3.73zm-5.3.92h.5v-4.66h-.5v4.66zm-3.2-.65l-1.66-4h-.6l2.02 4.68h.46l2-4.7h-.56l-1.67 4.02zm-3.73.65h.52v-4.66h-.53v4.66zm-4.17 0h3.15v-.5h-2.62v-4.16h-.52v4.66zm-2.33-1h-.87v1h.87v-1zm-2.84.37v-1.87h-1.9v.48h1.4v1.16c-.32.26-.8.47-1.34.47-1.13 0-1.84-.83-1.84-1.94 0-1.06.73-1.93 1.77-1.93.64 0 1.04.22 1.4.53l.34-.4c-.46-.4-.95-.6-1.73-.6-1.4 0-2.33 1.12-2.33 2.4 0 1.34.9 2.4 2.37 2.4.78 0 1.44-.33 1.87-.7m-5.85-.3l-2.93-3.74h-.5v4.66h.52v-3.82l3 3.82h.42v-4.66h-.5v3.73zm-5.3.92h.5v-4.66h-.5v4.66zm-1.9-.93l-2.92-3.74h-.5v4.66h.52v-3.82l3 3.82h.42v-4.66h-.5v3.73zm-5.3.92h.52v-4.66h-.52v4.66zm-1.7-2.32c0 1.04-.76 1.83-1.93 1.83h-1.1v-3.68h1.1c1.17 0 1.93.8 1.93 1.85m.54-.02c0-1.3-1.02-2.32-2.5-2.32h-1.6v4.66h1.62c1.46 0 2.47-1.02 2.47-2.34" clip-path="url(#w)"/><defs><path id="x" d="M-46.03 20.5h530.8v739.63h-530.8z"/></defs><clipPath id="y"><use xlink:href="#x" overflow="visible"/></clipPath><path fill="#231F20" d="M341.7 306.88h-3.36v4.65h.53v-2.03h2.52v-.47h-2.53v-1.67h2.82v-.48zm-4.45 0h-3.36v4.65h3.4v-.48h-2.9v-1.63h2.55v-.48h-2.53v-1.58h2.83v-.48zm-5.02 1.4c0 .6-.5.97-1.2.97h-1.42v-1.9h1.44c.75 0 1.2.36 1.2.94m.7 3.23l-1.44-1.9c.73-.13 1.27-.58 1.27-1.36 0-.84-.66-1.4-1.7-1.4h-2v4.66h.54v-1.8h1.34l1.35 1.8h.63z" clip-path="url(#y)"/><defs><path id="z" d="M-46.03 20.5h530.8v739.63h-530.8z"/></defs><clipPath id="A"><use xlink:href="#z" overflow="visible"/></clipPath><path fill="#231F20" d="M370.03 308.75l-1.33-3.87h-.57l1.66 4.7h.43l1.28-3.8 1.3 3.8h.43l1.66-4.7h-.56l-1.33 3.87-1.27-3.88h-.43l-1.27 3.88zm-2.96-1.54c0 1.05-.76 1.85-1.93 1.85h-1.1v-3.7h1.1c1.17 0 1.93.82 1.93 1.86m.54 0c0-1.32-1-2.32-2.46-2.32h-1.62v4.65h1.62c1.46 0 2.47-1 2.47-2.33" clip-path="url(#A)"/><defs><path id="B" d="M-46.03 20.5h530.8v739.63h-530.8z"/></defs><clipPath id="C"><use xlink:href="#B" overflow="visible"/></clipPath><path fill="#231F20" d="M423.75 231.93h-.47l-.47 1.55h.3l.65-1.55zm-.94 0h-.46l-.48 1.55h.3l.65-1.55zm-3.54.22l.1.4.8-.26v3.73h.47v-4.23h-.34l-1.04.35zm-2.92 0l.1.4.8-.26v3.73h.47v-4.23h-.34l-1.02.35zm-1.32-.22h-.46l-.48 1.55h.3l.64-1.55zm-2.58 1.2c0 .5-.4.96-1.05.96-.62 0-1.04-.4-1.04-.93s.38-1 1-1 1.08.43 1.08.97m.57.68c0-.84-.18-1.3-.5-1.63-.28-.28-.63-.44-1.1-.44-.9 0-1.52.63-1.52 1.43 0 .76.6 1.3 1.46 1.3.58 0 .96-.3 1.2-.67 0 1.07-.5 1.84-1.26 1.84-.37 0-.7-.15-1.03-.45l-.27.37c.35.28.75.5 1.3.5 1.03 0 1.74-.94 1.74-2.28m-6.6 1.7l-1.12-1.5 1.08-1.43h-.4l-.88 1.2-.9-1.2h-.4l1.1 1.43-1.13 1.5h.38l.94-1.26.93 1.26h.4zm-5.48-3.6h-.47l-.48 1.56h.3l.64-1.55zm-.95 0h-.48l-.47 1.56h.3l.64-1.55zm-2.37 2.97c0 .42-.4.78-1.1.78-.68 0-1.1-.36-1.1-.8 0-.47.5-.8 1.1-.8.62 0 1.1.33 1.1.8m-.14-1.96c0 .46-.43.77-.97.77-.53 0-.95-.32-.95-.78 0-.43.4-.73.95-.73s.96.3.96.72m.6 1.97c0-.5-.35-.86-.85-1.04.4-.18.72-.48.72-.97 0-.67-.67-1.13-1.44-1.13-.76 0-1.43.46-1.43 1.12 0 .48.33.78.72.96-.5.18-.86.53-.86 1.04 0 .7.68 1.2 1.58 1.2s1.57-.5 1.57-1.2m-4.6-2.97h-.47l-.47 1.55h.3l.64-1.55zm-2.6 1.2c0 .5-.4.96-1.03.96-.6 0-1.03-.4-1.03-.93s.38-1 1-1 1.07.43 1.07.97m.6.68c0-.84-.2-1.3-.53-1.63-.27-.28-.63-.44-1.1-.44-.9 0-1.52.63-1.52 1.43 0 .76.6 1.3 1.47 1.3.58 0 .96-.3 1.18-.67.02 1.07-.5 1.84-1.24 1.84-.38 0-.7-.15-1.04-.45l-.27.37c.35.28.75.5 1.3.5 1.03 0 1.74-.94 1.74-2.28" clip-path="url(#C)"/><defs><path id="D" d="M-46.03 20.5h530.8v739.63h-530.8z"/></defs><clipPath id="E"><use xlink:href="#D" overflow="visible"/></clipPath><path fill="#231F20" d="M423.13 224.24V228h.53v-4.65h-.54l-1.7 2.54-1.7-2.55h-.52V228h.52v-3.76l1.7 2.5h.02l1.7-2.5zm-5.58 1.44c0 1.07-.76 1.92-1.83 1.92-1.06 0-1.83-.86-1.83-1.93s.75-1.9 1.8-1.9 1.85.85 1.85 1.9m.54 0c0-1.3-.96-2.4-2.38-2.4-1.4 0-2.38 1.12-2.38 2.4s.95 2.42 2.37 2.42c1.43 0 2.4-1.14 2.4-2.43m-6.2.02c0 1.05-.76 1.9-1.83 1.9-1.06 0-1.83-.86-1.83-1.93s.75-1.9 1.82-1.9c1.06 0 1.83.85 1.83 1.9m.54 0c0-1.3-.95-2.4-2.37-2.4-1.42 0-2.38 1.12-2.38 2.4s.94 2.42 2.36 2.42 2.38-1.14 2.38-2.43m-6.2-.9c0 .6-.5.95-1.2.95h-1.43v-1.88h1.45c.75 0 1.2.34 1.2.92m.7 3.25l-1.44-1.9c.74-.13 1.27-.58 1.27-1.36 0-.84-.66-1.4-1.68-1.4h-2v4.67h.5v-1.8h1.34l1.35 1.8h.64zm-5.52-2.3c0 1.02-.75 1.82-1.93 1.82h-1.1v-3.68h1.1c1.18 0 1.93.8 1.93 1.84m.55 0c0-1.33-1-2.33-2.48-2.33h-1.6V228h1.6c1.47 0 2.48-1 2.48-2.33m-5.18-2.32h-3.37V228h3.4v-.47h-2.87v-1.63h2.54v-.48h-2.54v-1.6h2.84v-.47zm-6.1 4.18h-1.55v-1.64h1.47c.8 0 1.24.28 1.24.8s-.44.83-1.15.83m-.17-2.1h-1.38v-1.6h1.42c.66 0 1.03.3 1.03.76 0 .54-.44.83-1.07.83m.08-2.08h-1.97V228h2.07c1.02 0 1.7-.47 1.7-1.27 0-.65-.46-.96-1-1.13.36-.16.73-.47.73-1.08 0-.72-.6-1.17-1.52-1.17" clip-path="url(#E)"/><defs><path id="F" d="M-46.03 20.5h530.8v739.63h-530.8z"/></defs><clipPath id="G"><use xlink:href="#F" overflow="visible"/></clipPath><path fill="#231F20" d="M433.38 98.1h-.47l-.47 1.55h.3l.65-1.55zm-.95 0h-.47l-.47 1.55h.3l.63-1.55zm-4.8.33h2.32l-1.9 3.77h.53l1.9-3.85V98h-2.84v.43zm-1.6-.33h-.47l-.48 1.55h.3l.65-1.55zm-3.7.22l.12.4.8-.26v3.74h.46v-4.23h-.33l-1.03.35zm-2.74 0l.1.4.8-.26v3.74h.47v-4.23h-.35l-1.03.35zm-3.37 3.38l-1.13-1.5 1.1-1.44h-.4l-.9 1.2-.9-1.2h-.4l1.1 1.44-1.13 1.5h.38l.94-1.27.93 1.27h.4zm-5.6-3.6h-.47l-.48 1.55h.3l.64-1.55zm-.95 0h-.47l-.46 1.55h.3l.64-1.55zm-2.73.32l-1.33 1.5.1.28h.27c.68 0 1.17.3 1.17.82 0 .5-.4.82-.92.82s-.9-.23-1.23-.63l-.34.32c.34.44.86.75 1.56.75.78 0 1.4-.52 1.4-1.27 0-.78-.64-1.13-1.38-1.2l1.32-1.45V98h-2.7v.42h2.07zm-3.78-.32h-.47l-.47 1.55h.3l.64-1.55zm-2.5 2.95c0 .43-.4.8-1.1.8-.68 0-1.1-.37-1.1-.8 0-.47.5-.8 1.1-.8s1.1.33 1.1.8m-.14-1.97c0 .47-.42.78-.96.78s-.96-.3-.96-.78c0-.42.43-.73.97-.73s.96.3.96.73m.62 1.98c0-.5-.36-.85-.86-1.03.38-.18.7-.48.7-.98 0-.65-.66-1.1-1.42-1.1s-1.44.45-1.44 1.1c0 .5.33.8.72.98-.5.18-.86.53-.86 1.03 0 .7.68 1.2 1.58 1.2s1.57-.48 1.57-1.2" clip-path="url(#G)"/><defs><path id="H" d="M-46.03 20.5h530.8v739.63h-530.8z"/></defs><clipPath id="I"><use xlink:href="#H" overflow="visible"/></clipPath><path fill="#231F20" d="M432.84 90.4v3.77h.53v-4.65h-.53l-1.7 2.54-1.7-2.54h-.53v4.65h.53V90.4l1.7 2.5h.02l1.7-2.5zm-5.58 1.45c0 1.07-.76 1.92-1.82 1.92s-1.84-.87-1.84-1.93.76-1.92 1.82-1.92 1.84.87 1.84 1.93m.54 0c0-1.3-.95-2.4-2.36-2.4-1.42 0-2.4 1.1-2.4 2.4s.97 2.4 2.38 2.4c1.42 0 2.38-1.12 2.38-2.4m-6.2 0c0 1.07-.75 1.92-1.82 1.92s-1.83-.87-1.83-1.93.76-1.92 1.82-1.92 1.84.87 1.84 1.93m.55 0c0-1.3-.95-2.4-2.37-2.4-1.4 0-2.38 1.1-2.38 2.4s.95 2.4 2.37 2.4c1.42 0 2.38-1.12 2.38-2.4m-6.2-.92c0 .6-.5.96-1.2.96h-1.43V90h1.44c.75 0 1.2.35 1.2.93m.7 3.24l-1.44-1.9c.73-.13 1.26-.58 1.26-1.36 0-.83-.65-1.38-1.68-1.38h-2v4.65h.52v-1.8h1.34l1.35 1.8h.65zm-5.52-2.32c0 1.04-.75 1.84-1.92 1.84h-1.1V90h1.1c1.17 0 1.92.8 1.92 1.85m.55 0c0-1.33-1.02-2.33-2.48-2.33h-1.62v4.65h1.62c1.46 0 2.47-1 2.47-2.33m-5.2-2.32h-3.36v4.65h3.4v-.48h-2.87v-1.64h2.54v-.47h-2.53V90h2.84v-.48zm-6.07 4.18h-1.57v-1.64h1.47c.82 0 1.24.3 1.24.8 0 .53-.44.84-1.14.84m-.2-2.1h-1.37V90h1.42c.66 0 1.03.3 1.03.75 0 .56-.43.84-1.06.84m.08-2.08h-1.98v4.65h2.07c1.03 0 1.7-.47 1.7-1.27 0-.65-.45-.97-1-1.13.37-.16.74-.48.74-1.1 0-.7-.6-1.15-1.52-1.15" clip-path="url(#I)"/><path fill="#fff" d="M254.82 256.36h59.4v30.7h-59.4z"/><path fill="none" stroke="#000" stroke-width=".78" d="M254.82 256.36h59.4v30.7h-59.4z"/><defs><path id="J" d="M-46.03 20.5h530.8v739.63h-530.8z"/></defs><clipPath id="K"><use xlink:href="#J" overflow="visible"/></clipPath><path fill="#fff" d="M268.36 272.83c.7 0 1.26-.56 1.26-1.26s-.56-1.26-1.26-1.26-1.26.57-1.26 1.27c0 .7.56 1.26 1.26 1.26" clip-path="url(#K)"/><defs><path id="L" d="M-46.03 20.5h530.8v739.63h-530.8z"/></defs><clipPath id="M"><use xlink:href="#L" overflow="visible"/></clipPath><circle cx="268.36" cy="271.569" r="1.26" fill="none" stroke="#231F20" stroke-width=".65" clip-path="url(#M)"/><defs><path id="N" d="M-46.03 20.5h530.8v739.63h-530.8z"/></defs><clipPath id="O"><use xlink:href="#N" overflow="visible"/></clipPath><path fill="#fff" d="M310.83 271.62c0 8.8-2.03 12.03-4.88 12.03h-43.4c-.68 0-2.12-.2-2.12-2.03V261.6c0-1.84 1.44-2.03 2.13-2.03h43.39c2.85 0 4.88 3.3 4.88 12.05" clip-path="url(#O)"/><defs><path id="P" d="M-46.03 20.5h530.8v739.63h-530.8z"/></defs><clipPath id="Q"><use xlink:href="#P" overflow="visible"/></clipPath><path fill="none" stroke="#000" stroke-width=".65" d="M310.83 271.62c0 8.8-2.03 12.03-4.88 12.03h-43.4c-.68 0-2.12-.2-2.12-2.03V261.6c0-1.84 1.44-2.03 2.13-2.03h43.39c2.85 0 4.88 3.3 4.88 12.05z" clip-path="url(#Q)"/><defs><path id="R" d="M-46.03 20.5h530.8v739.63h-530.8z"/></defs><clipPath id="S"><use xlink:href="#R" overflow="visible"/></clipPath><path fill="#fff" d="M258.22 274.2c.72 0 1.3.58 1.3 1.3 0 .7-.58 1.28-1.3 1.3-.7-.02-1.3-.6-1.3-1.3 0-.72.6-1.3 1.3-1.3" clip-path="url(#S)"/><defs><path id="T" d="M-46.03 20.5h530.8v739.63h-530.8z"/></defs><clipPath id="U"><use xlink:href="#T" overflow="visible"/></clipPath><path fill="none" stroke="#231F20" stroke-width=".585" d="M258.22 274.2c.72 0 1.3.58 1.3 1.3 0 .7-.58 1.28-1.3 1.3-.7-.02-1.3-.6-1.3-1.3 0-.72.6-1.3 1.3-1.3z" clip-path="url(#U)"/><defs><path id="V" d="M-46.03 20.5h530.8v739.63h-530.8z"/></defs><clipPath id="W"><use xlink:href="#V" overflow="visible"/></clipPath><path fill="#fff" d="M258.22 266.23c.72 0 1.3.57 1.3 1.28 0 .72-.58 1.3-1.3 1.3-.7 0-1.3-.58-1.28-1.3 0-.7.57-1.27 1.28-1.27" clip-path="url(#W)"/><defs><path id="X" d="M-46.03 20.5h530.8v739.63h-530.8z"/></defs><clipPath id="Y"><use xlink:href="#X" overflow="visible"/></clipPath><path fill="none" stroke="#231F20" stroke-width=".585" d="M258.22 266.23c.72 0 1.3.57 1.3 1.28 0 .72-.58 1.3-1.3 1.3-.7 0-1.3-.58-1.28-1.3 0-.7.57-1.27 1.28-1.27z" clip-path="url(#Y)"/><defs><path id="Z" d="M-46.03 20.5h530.8v739.63h-530.8z"/></defs><clipPath id="aa"><use xlink:href="#Z" overflow="visible"/></clipPath><path fill="#fff" d="M257.84 273.3c-1.05 0-1.9-.7-1.9-1.77 0-1.05.85-1.63 1.9-1.63l7.27.68c.73 0 .73 1.93 0 1.93l-7.26.8z" clip-path="url(#aa)"/><defs><path id="ab" d="M-46.03 20.5h530.8v739.63h-530.8z"/></defs><clipPath id="ac"><use xlink:href="#ab" overflow="visible"/></clipPath><path fill="none" stroke="#231F20" stroke-width=".585" d="M257.84 273.3c-1.05 0-1.9-.7-1.9-1.77 0-1.05.85-1.63 1.9-1.63l7.27.68c.73 0 .73 1.93 0 1.93l-7.26.8z" clip-path="url(#ac)"/><defs><path id="ad" d="M-46.03 20.5h530.8v739.63h-530.8z"/></defs><clipPath id="ae"><use xlink:href="#ad" overflow="visible"/></clipPath><path fill="none" stroke="#000" stroke-width=".975" d="M371.03 247.45c0 15.9-12.9 28.8-28.82 28.8m28.85-28.8H342.2v-1.66h28.85v1.65zm-45.6-52.94c15.92 0 28.83-12.9 28.83-28.8m-30.48 28.83h1.66V165.7h-1.66v28.83zm-126.78-70.87c15.9 0 28.8-12.9 28.8-28.82m-30.46 28.84h1.66V94.84h-1.66v28.84zm194.54 33.17c0-15.92-12.9-28.82-28.82-28.82m28.84 28.82h-28.84v1.66h28.84v-1.65z" clip-path="url(#ae)"/><path fill="none" stroke="#000" stroke-width=".78" d="M263.17 167.64v26.44m0-5.16h3.66l.86-3.17v-9.7l-.87-3.22h-3.66m-16.92 21.25h24.1v-26.25h-24.1v26.25z"/><path fill="#fff" d="M264.75 169.1v2.13l-1.48.46v-3.06z"/><path fill="none" stroke="#231F20" stroke-width=".78" d="M264.75 169.1v2.13l-1.48.46v-3.06zM354.47 292.33v26.33h65.87m30.22 0h16.25"/><path fill="none" stroke="#000" stroke-width=".78" d="M450.56 319.26l.04-25.68-30.23-.05-.03 25.68z"/><path fill="none" stroke="#000" stroke-width=".39" d="M420.12 295.82h30.27"/><defs><path id="af" d="M-46.03 20.5h530.8v739.63h-530.8z"/></defs><clipPath id="ag"><use xlink:href="#af" overflow="visible"/></clipPath><path fill="none" stroke="#231F20" stroke-width=".65" d="M441.03 315.7c2.17 0 3.9-1.78 3.9-3.94-.02-2.18-1.8-3.92-3.96-3.9-2.17 0-3.9 1.78-3.9 3.95.02 2.18 1.8 3.92 3.96 3.9zm-11.77.1c2.17-.03 3.9-1.8 3.9-3.96-.02-2.17-1.8-3.92-3.96-3.9-2.17 0-3.92 1.78-3.9 3.96 0 2.17 1.8 3.9 3.96 3.9zm11.7-10.78c2.16-.02 3.9-1.8 3.9-3.96-.03-2.17-1.8-3.92-3.97-3.9-2.17.02-3.92 1.8-3.9 3.96 0 2.16 1.78 3.9 3.95 3.9zm-11.78.1c2.17-.03 3.9-1.8 3.9-3.97-.02-2.18-1.8-3.92-3.96-3.9-2.17.02-3.92 1.78-3.9 3.95 0 2.17 1.8 3.92 3.96 3.9z" clip-path="url(#ag)"/><path fill="none" stroke="#231F20" stroke-width=".78" d="M421.34 319.17h28.16v1.2h-28.16z"/><path fill="none" stroke="#000" stroke-width=".975" d="M332.26 223.1v65.44"/><path fill="none" stroke="#000" stroke-width=".975" stroke-dashoffset="4" d="M328.53 288.1v-66.3" stroke-dasharray="2.139,2.139,2.139,2.139,2.139,2.139"/><defs><path id="ah" d="M-46.03 20.5h530.8v739.63h-530.8z"/></defs><clipPath id="ai"><use xlink:href="#ah" overflow="visible"/></clipPath><path fill="none" stroke="#231F20" stroke-width=".78" d="M484.2 31.36v46.8m-.02 86.77v-46.15m-.03 137.8v-44.95m.07 88.83v45.5m-.07 39.87v47.77m-78.92 40.73H453m-112.94 0h45.83m-112.6.06h43.54m-111.98 0h50.7m211.58-353.67v45.5m-261.3 295.43h44.85m21.1-.33h46.16m21.13 0h45.5m21.76.33h45.18m15.6-249.28v44.53m-.32 43.88v43.88m-.33 40.95v48.43" clip-path="url(#ai)"/><defs><path id="aj" d="M-46.03 20.5h530.8v739.63h-530.8z"/></defs><clipPath id="ak"><use xlink:href="#aj" overflow="visible"/></clipPath><path fill="#fff" d="M262.2 236.04c5.8 0 12.2 3.53 12.2 7.87 0 4.36-6.4 7.88-12.2 7.88-5.8 0-8.82-3.52-8.82-7.87 0-4.33 3.02-7.86 8.82-7.86" clip-path="url(#ak)"/><defs><path id="al" d="M-46.03 20.5h530.8v739.63h-530.8z"/></defs><clipPath id="am"><use xlink:href="#al" overflow="visible"/></clipPath><path fill="none" stroke="#000" stroke-width=".78" d="M262.2 236.04c5.8 0 12.2 3.53 12.2 7.87 0 4.36-6.4 7.88-12.2 7.88-5.8 0-8.82-3.52-8.82-7.87 0-4.33 3.02-7.86 8.82-7.86z" clip-path="url(#am)"/><defs><path id="an" d="M-46.03 20.5h530.8v739.63h-530.8z"/></defs><clipPath id="ao"><use xlink:href="#an" overflow="visible"/></clipPath><path fill="#fff" d="M255.28 248.62c.33 0 .6.27.6.6v2.75c0 .32-.27.6-.6.6h-.1c-.33 0-.6-.28-.6-.6v-2.76c0-.3.27-.58.6-.58h.1z" clip-path="url(#ao)"/><defs><path id="ap" d="M-46.03 20.5h530.8v739.63h-530.8z"/></defs><clipPath id="aq"><use xlink:href="#ap" overflow="visible"/></clipPath><path fill="none" stroke="#231F20" stroke-width=".78" d="M255.28 248.62c.33 0 .6.27.6.6v2.75c0 .32-.27.6-.6.6h-.1c-.33 0-.6-.28-.6-.6v-2.76c0-.3.27-.58.6-.58h.1z" clip-path="url(#aq)"/><defs><path id="ar" d="M-46.03 20.5h530.8v739.63h-530.8z"/></defs><clipPath id="as"><use xlink:href="#ar" overflow="visible"/></clipPath><path fill="#fff" d="M254.57 252.97c0 1-2.67 1.8-3.66 1.8-.97 0-3.65-.8-3.65-1.8V235c0-1 2.68-1.8 3.66-1.8 1 0 3.67.8 3.67 1.8v17.97z" clip-path="url(#as)"/><defs><path id="at" d="M-46.03 20.5h530.8v739.63h-530.8z"/></defs><clipPath id="au"><use xlink:href="#at" overflow="visible"/></clipPath><path fill="none" stroke="#000" stroke-width=".78" d="M254.57 252.97c0 1-2.67 1.8-3.66 1.8-.97 0-3.65-.8-3.65-1.8V235c0-1 2.68-1.8 3.66-1.8 1 0 3.67.8 3.67 1.8v17.97z" clip-path="url(#au)"/><defs><path id="av" d="M-46.03 20.5h530.8v739.63h-530.8z"/></defs><clipPath id="aw"><use xlink:href="#av" overflow="visible"/></clipPath><path fill="#fff" d="M262.44 238.13c4.26 0 8.96 2.6 8.96 5.78 0 3.2-4.7 5.8-8.96 5.8-4.26 0-6.48-2.6-6.48-5.8 0-3.18 2.22-5.77 6.48-5.77" clip-path="url(#aw)"/><defs><path id="ax" d="M-46.03 20.5h530.8v739.63h-530.8z"/></defs><clipPath id="ay"><use xlink:href="#ax" overflow="visible"/></clipPath><path fill="none" stroke="#000" stroke-width=".65" d="M262.44 238.13c4.26 0 8.96 2.6 8.96 5.78 0 3.2-4.7 5.8-8.96 5.8-4.26 0-6.48-2.6-6.48-5.8 0-3.18 2.22-5.77 6.48-5.77z" clip-path="url(#ay)"/><path fill="none" stroke="#231F20" stroke-width=".78" d="M245.8 229.65h24.5v-28.82"/><defs><path id="az" d="M-46.03 20.5h530.8v739.63h-530.8z"/></defs><clipPath id="aA"><use xlink:href="#az" overflow="visible"/></clipPath><circle cx="259.379" cy="215.257" r="1.189" fill="none" stroke="#000" stroke-width=".52" clip-path="url(#aA)"/><defs><path id="aB" d="M-46.03 20.5h530.8v739.63h-530.8z"/></defs><clipPath id="aC"><use xlink:href="#aB" overflow="visible"/></clipPath><path fill="none" stroke="#000" stroke-width=".65" d="M249.55 215.26c0 .63.5 1.15 1.15 1.15.64 0 1.15-.5 1.15-1.14 0-.64-.5-1.16-1.15-1.16-.64 0-1.15.52-1.15 1.16zm2.48.53h4.72v-1.07h-4.72v1.06zm-2.6 4.65h2.5v-10.4h-2.5v10.4z" clip-path="url(#aC)"/><path fill="none" stroke="#000" stroke-width=".78" d="M249.05 204.73h19.08v21.06h-19.08z"/><path fill="none" stroke="#000" stroke-width=".585" d="M251.98 206.35h14.52v17.76h-14.52z"/><defs><path id="aD" d="M-46.03 20.5h530.8v739.63h-530.8z"/></defs><clipPath id="aE"><use xlink:href="#aD" overflow="visible"/></clipPath><path fill="none" stroke="#000" stroke-width=".975" d="M309.22 191.43c-15.92 0-28.82-12.84-28.82-28.76m30.48 28.78h-1.66v-28.83h1.66v28.83z" clip-path="url(#aE)"/><path fill="none" stroke="#000" stroke-width=".65" d="M317.73 322.46h35.75"/><path fill="none" stroke="#000" stroke-width=".78" d="M330.44 324.6h2.76v1.45h-2.76zM317.95 294.5h35.24v30.06h-35.25zM339.13 324.6h2.76v1.45h-2.77z"/><path fill="none" stroke="#231F20" stroke-width=".78" stroke-dashoffset="3" d="M296.95 79.46V39.1" stroke-dasharray="1.878,1.878,1.878,1.878,1.878,1.878"/><path fill="none" stroke="#231F20" stroke-width=".78" stroke-dashoffset="4" d="M300.15 37.2h58.58" stroke-dasharray="2.13,2.13,2.13,2.13,2.13,2.13"/><path fill="none" stroke="#231F20" stroke-width=".78" d="M359.8 37.2h1.06m-63.9.95v-.94H298m-1.06 45.07v-.93"/><path fill="none" stroke="#000" stroke-width=".975" d="M360.43 39.8h-60.67V82.3"/><defs><path id="aF" d="M-46.03 20.5h530.8v739.63h-530.8z"/></defs><clipPath id="aG"><use xlink:href="#aF" overflow="visible"/></clipPath><path fill="#fff" d="M385.73 297.7c0-1 .83-1.83 1.84-1.83h22.4c1.02 0 1.85.83 1.85 1.84v15.77c0 1.02-.83 1.85-1.84 1.85h-22.4c-1.02 0-1.85-.83-1.85-1.85V297.7z" clip-path="url(#aG)"/><defs><path id="aH" d="M-46.03 20.5h530.8v739.63h-530.8z"/></defs><clipPath id="aI"><use xlink:href="#aH" overflow="visible"/></clipPath><path fill="none" stroke="#231F20" stroke-width=".78" d="M385.73 297.7c0-1 .83-1.83 1.84-1.83h22.4c1.02 0 1.85.83 1.85 1.84v15.77c0 1.02-.83 1.85-1.84 1.85h-22.4c-1.02 0-1.85-.83-1.85-1.85V297.7z" clip-path="url(#aI)"/><defs><path id="aJ" d="M-46.03 20.5h530.8v739.63h-530.8z"/></defs><clipPath id="aK"><use xlink:href="#aJ" overflow="visible"/></clipPath><path fill="#fff" d="M408 300.18c1.05 0 1.9.84 1.9 1.86v9.46c0 1.02-.85 1.85-1.9 1.85h-18.4c-1.05 0-1.9-.84-1.9-1.85v-9.46c0-1.02.85-1.86 1.9-1.86H408z" clip-path="url(#aK)"/><defs><path id="aL" d="M-46.03 20.5h530.8v739.63h-530.8z"/></defs><clipPath id="aM"><use xlink:href="#aL" overflow="visible"/></clipPath><path fill="none" stroke="#231F20" stroke-width=".585" d="M408 300.18c1.05 0 1.9.84 1.9 1.86v9.46c0 1.02-.85 1.85-1.9 1.85h-18.4c-1.05 0-1.9-.84-1.9-1.85v-9.46c0-1.02.85-1.86 1.9-1.86H408z" clip-path="url(#aM)"/><defs><path id="aN" d="M-46.03 20.5h530.8v739.63h-530.8z"/></defs><clipPath id="aO"><use xlink:href="#aN" overflow="visible"/></clipPath><path fill="#fff" d="M397.2 306.98c0-.76.63-1.4 1.4-1.4.77 0 1.38.64 1.38 1.4s-.6 1.4-1.38 1.4c-.77 0-1.4-.63-1.4-1.4" clip-path="url(#aO)"/><defs><path id="aP" d="M-46.03 20.5h530.8v739.63h-530.8z"/></defs><clipPath id="aQ"><use xlink:href="#aP" overflow="visible"/></clipPath><path fill="none" stroke="#231F20" stroke-width=".52" d="M397.2 306.98c0-.76.63-1.4 1.4-1.4.77 0 1.38.64 1.38 1.4s-.6 1.4-1.38 1.4c-.77 0-1.4-.63-1.4-1.4z" clip-path="url(#aQ)"/><defs><path id="aR" d="M-46.03 20.5h530.8v739.63h-530.8z"/></defs><clipPath id="aS"><use xlink:href="#aR" overflow="visible"/></clipPath><path fill="#fff" d="M393.62 297.98c0-.74.6-1.43 1.34-1.43h7.3c.75 0 1.35.7 1.35 1.43s-.6 1.42-1.33 1.42h-7.3c-.75 0-1.35-.68-1.35-1.42" clip-path="url(#aS)"/><defs><path id="aT" d="M-46.03 20.5h530.8v739.63h-530.8z"/></defs><clipPath id="aU"><use xlink:href="#aT" overflow="visible"/></clipPath><path fill="none" stroke="#231F20" stroke-width=".52" d="M393.62 297.98c0-.74.6-1.43 1.34-1.43h7.3c.75 0 1.35.7 1.35 1.43s-.6 1.42-1.33 1.42h-7.3c-.75 0-1.35-.68-1.35-1.42z" clip-path="url(#aU)"/><defs><path id="aV" d="M-46.03 20.5h530.8v739.63h-530.8z"/></defs><clipPath id="aW"><use xlink:href="#aV" overflow="visible"/></clipPath><path fill="#fff" d="M393.13 305.76l6.27-6.82c.35-.4.32-1-.08-1.35-.4-.37-1-.33-1.35.07l-6 7.06c-.27.33.88 1.34 1.16 1.03" clip-path="url(#aW)"/><defs><path id="aX" d="M-46.03 20.5h530.8v739.63h-530.8z"/></defs><clipPath id="aY"><use xlink:href="#aX" overflow="visible"/></clipPath><path fill="none" stroke="#231F20" stroke-width=".65" d="M393.13 305.76l6.27-6.82c.35-.4.32-1-.08-1.35-.4-.37-1-.33-1.35.07l-6 7.06c-.27.33.88 1.34 1.16 1.03z" clip-path="url(#aY)"/><defs><path id="aZ" d="M-46.03 20.5h530.8v739.63h-530.8z"/></defs><clipPath id="ba"><use xlink:href="#aZ" overflow="visible"/></clipPath><path fill="#fff" d="M399.4 301.35v-3.3c0-.34-.28-.63-.64-.63-.35 0-.63.3-.63.64v3.3c0 .34.28.63.64.63.35 0 .64-.3.64-.65" clip-path="url(#ba)"/><defs><path id="bb" d="M-46.03 20.5h530.8v739.63h-530.8z"/></defs><clipPath id="bc"><use xlink:href="#bb" overflow="visible"/></clipPath><path fill="none" stroke="#231F20" stroke-width=".52" d="M399.4 301.35v-3.3c0-.34-.28-.63-.64-.63-.35 0-.63.3-.63.64v3.3c0 .34.28.63.64.63.35 0 .64-.3.64-.65z" clip-path="url(#bc)"/><defs><path id="bd" d="M-46.03 20.5h530.8v739.63h-530.8z"/></defs><clipPath id="be"><use xlink:href="#bd" overflow="visible"/></clipPath><path fill="#fff" d="M400.8 298.1c0-.42.34-.76.76-.76.43 0 .77.34.77.76s-.34.77-.77.77c-.42 0-.77-.35-.77-.77" clip-path="url(#be)"/><defs><path id="bf" d="M-46.03 20.5h530.8v739.63h-530.8z"/></defs><clipPath id="bg"><use xlink:href="#bf" overflow="visible"/></clipPath><path fill="none" stroke="#231F20" stroke-width=".455" d="M400.8 298.1c0-.42.34-.76.76-.76.43 0 .77.34.77.76s-.34.77-.77.77c-.42 0-.77-.35-.77-.77z" clip-path="url(#bg)"/><defs><path id="bh" d="M-46.03 20.5h530.8v739.63h-530.8z"/></defs><clipPath id="bi"><use xlink:href="#bh" overflow="visible"/></clipPath><path fill="#fff" d="M394.9 298.03c0-.42.34-.76.77-.76.42 0 .76.34.76.76s-.34.77-.77.77c-.42 0-.77-.35-.77-.77" clip-path="url(#bi)"/><defs><path id="bj" d="M-46.03 20.5h530.8v739.63h-530.8z"/></defs><clipPath id="bk"><use xlink:href="#bj" overflow="visible"/></clipPath><path fill="none" stroke="#231F20" stroke-width=".455" d="M394.9 298.03c0-.42.34-.76.77-.76.42 0 .76.34.76.76s-.34.77-.77.77c-.42 0-.77-.35-.77-.77z" clip-path="url(#bk)"/><path fill="none" stroke="#000" stroke-width=".65" stroke-dashoffset="3" d="M357.42 315.74v-18.4" stroke-dasharray="1.936,1.936,1.936,1.936,1.936,1.936"/><path fill="none" stroke="#000" stroke-width=".65" stroke-dashoffset="3" d="M360.27 295.42h18.04" stroke-dasharray="1.899,1.899,1.899,1.899,1.899,1.899"/><path fill="none" stroke="#000" stroke-width=".65" stroke-dashoffset="3" d="M380.2 298.25v17.98" stroke-dasharray="1.892,1.892,1.892,1.892,1.892,1.892"/><path fill="none" stroke="#000" stroke-width=".65" d="M380.2 317.18v.94m-.94-22.7h.94v.94m-22.78.02v-.96h.95m-.95 23.23v-.97M380.24 318.13v2.46h-22.82v-1.94"/><path fill="none" stroke="#000" stroke-width=".975" d="M322.73 116.75h34.24v2.16h-34.24z"/><path fill="#BBBDBF" d="M187.18 96.14v363.9h17.45v12.76H178.5l.18-377.52"/><path fill="none" stroke="#231F20" stroke-width="3.9" d="M187.18 96.14v363.9h17.45v12.76H178.5l.18-377.52"/><defs><path id="bl" d="M-46.03 20.5h530.8v739.63h-530.8z"/></defs><clipPath id="bm"><use xlink:href="#bl" overflow="visible"/></clipPath><path fill="none" stroke="#231F20" stroke-width="3.9" d="M477.18 30.7v49.4m0 40.74v44.64m0 43.98v47.12m0 41.93v49.4m0 36.63v46.8m-26.4 36.18h-45.06m-21.02 0h-45.72m-18.85 0h-48.1m-20.7 0H204.7" clip-path="url(#bm)"/><path fill="none" stroke="#231F20" stroke-width="5.85" d="M176.78 95.85h18.34m30.72 0h58.76"/><defs><path id="bn" d="M-46.03 20.5h530.8v739.63h-530.8z"/></defs><clipPath id="bo"><use xlink:href="#bn" overflow="visible"/></clipPath><path fill="none" stroke="#231F20" stroke-width="5.2" d="M477.87 167h-124.7m-28.7 0h-9.1" clip-path="url(#bo)"/><path fill="none" stroke="#231F20" stroke-width="6.5" d="M343.3 288.1v-12.2m0-30.37v-24.37h-26.63m0 68.9V163.83l-6.08-.03m-28.82 0l-39.77.08v126.48h228.06"/><path fill="#BBBDBF" d="M318.75 459.16v13.64h19.62v-13.6z"/><path fill="none" stroke="#231F20" stroke-width="3.9" d="M318.75 459.16v13.64h19.62v-13.6z"/><path fill="#BBBDBF" d="M251.47 459.16v13.64h20.23v-13.6z"/><path fill="none" stroke="#231F20" stroke-width="3.9" d="M251.47 459.16v13.64h20.23v-13.6z"/><path fill="#BBBDBF" d="M385.44 459.75v13.05h19.62v-13z"/><path fill="none" stroke="#231F20" stroke-width="3.9" d="M385.44 459.75v13.05h19.62v-13z"/><path fill="#BBBDBF" d="M482.7 31.17h-17.47l.08-8.46h17.5z"/><defs><path id="bp" d="M-46.03 20.5h530.8v739.63h-530.8z"/></defs><clipPath id="bq"><use xlink:href="#bp" overflow="visible"/></clipPath><path fill="none" stroke="#231F20" stroke-width="3.9" d="M482.7 31.17h-17.47l.08-8.46h17.5z" clip-path="url(#bq)"/><path fill="#BBBDBF" d="M482.63 119.6h-17.3V86.5h3.98V78h13.33z"/><defs><path id="br" d="M-46.03 20.5h530.8v739.63h-530.8z"/></defs><clipPath id="bs"><use xlink:href="#br" overflow="visible"/></clipPath><path fill="none" stroke="#231F20" stroke-width="3.9" d="M482.63 119.6h-17.3V86.5h3.98V78h13.33z" clip-path="url(#bs)"/><path fill="#BBBDBF" d="M465.32 166.32h17.3v44.7h-17.3z"/><defs><path id="bt" d="M-46.03 20.5h530.8v739.63h-530.8z"/></defs><clipPath id="bu"><use xlink:href="#bt" overflow="visible"/></clipPath><path fill="none" stroke="#231F20" stroke-width="3.9" d="M465.32 166.32h17.3v44.7h-17.3z" clip-path="url(#bu)"/><path fill="#BBBDBF" d="M465.32 257.32h17.3v42.1h-17.3z"/><defs><path id="bv" d="M-46.03 20.5h530.8v739.63h-530.8z"/></defs><clipPath id="bw"><use xlink:href="#bv" overflow="visible"/></clipPath><path fill="none" stroke="#231F20" stroke-width="3.9" d="M465.32 257.32h17.3v42.1h-17.3z" clip-path="url(#bw)"/><path fill="#BBBDBF" d="M465.32 345.5h17.3v39.3h-17.3z"/><defs><path id="bx" d="M-46.03 20.5h530.8v739.63h-530.8z"/></defs><clipPath id="by"><use xlink:href="#bx" overflow="visible"/></clipPath><path fill="none" stroke="#231F20" stroke-width="3.9" d="M465.32 345.5h17.3v39.3h-17.3z" clip-path="url(#by)"/><path fill="#BBBDBF" d="M465.85 433.08v27.16H452.7v12.56h29.93v-39.78z"/><defs><path id="bz" d="M-46.03 20.5h530.8v739.63h-530.8z"/></defs><clipPath id="bA"><use xlink:href="#bz" overflow="visible"/></clipPath><path fill="none" stroke="#231F20" stroke-width="3.9" d="M465.85 433.08v27.16H452.7v12.56h29.93v-39.78z" clip-path="url(#bA)"/><path fill="none" stroke="#231F20" stroke-width="6.5" d="M242.13 259.27h9.55v28.84M243 197.93h29.9m40.73 92.8v37.26"/><defs><path id="bB" d="M-46.03 20.5h530.8v739.63h-530.8z"/></defs><clipPath id="bC"><use xlink:href="#bB" overflow="visible"/></clipPath><path fill="none" stroke="#231F20" stroke-width="5.85" d="M324.04 117.8h-37.27V23.8h177.66M353.5 117.8h9.53" clip-path="url(#bC)"/><defs><path id="bD" d="M-46.03 20.5h530.8v739.63h-530.8z"/></defs><clipPath id="bE"><use xlink:href="#bD" overflow="visible"/></clipPath><path fill="none" stroke="#231F20" stroke-width="6.5" d="M288.5 84.88h74.56l-.02 43.76m0-104.86V47.6m0 110.6v10.3" clip-path="url(#bE)"/><path fill="#BBBDBF" d="M242.13 259.27h9.1v30.57h-9.1z"/><path fill="none" stroke="#231F20" stroke-width="3.9" d="M242.13 259.27h9.1v30.57h-9.1z"/><path fill="none" stroke="#231F20" stroke-width="3.9" stroke-dashoffset="7" d="M189.8 98.75v361.63" stroke-dasharray="5.952,1.952,5.952,1.952,5.952,1.952"/><path fill="#fff" d="M228.58 465.94h18.58v3.16h-18.58z"/><path fill="none" stroke="#000" stroke-width=".78" d="M228.58 465.94h18.58v3.16h-18.58zM228.58 467.6h18.47"/><path fill="#fff" d="M209.46 465.94h19.07v3.16h-19.07z"/><path fill="none" stroke="#000" stroke-width=".78" d="M209.46 465.94h19.07v3.16h-19.07zM209.46 467.6h19.07"/><path fill="#fff" d="M296 465.9h18.6v3.18H296z"/><path fill="none" stroke="#000" stroke-width=".78" d="M296 465.9h18.6v3.18H296zM296 467.56h18.48"/><path fill="#fff" d="M276.9 465.9h19.06v3.18H276.9z"/><path fill="none" stroke="#000" stroke-width=".78" d="M276.9 465.9h19.06v3.18H276.9zM276.9 467.56h19.06"/><path fill="#fff" d="M362.08 465.94h18.58v3.16h-18.58z"/><path fill="none" stroke="#000" stroke-width=".78" d="M362.08 465.94h18.58v3.16h-18.58zM362.08 467.6h18.47"/><path fill="#fff" d="M342.96 465.94h19.07v3.16h-19.07z"/><path fill="none" stroke="#000" stroke-width=".78" d="M342.96 465.94h19.07v3.16h-19.07zM342.96 467.6h19.07"/><path fill="#fff" d="M428.57 465.9h18.58v3.18h-18.58z"/><path fill="none" stroke="#000" stroke-width=".78" d="M428.57 465.9h18.58v3.18h-18.58zM428.57 467.56h18.48"/><path fill="#fff" d="M409.45 465.9h19.07v3.18h-19.07z"/><path fill="none" stroke="#000" stroke-width=".78" d="M409.45 465.9h19.07v3.18h-19.07zM409.45 467.56h19.07"/><path fill="#fff" d="M475.6 389.84h3.15v18.58h-3.16z"/><path fill="none" stroke="#000" stroke-width=".78" d="M475.6 389.84h3.15v18.58h-3.16zM477.24 408.42v-18.47"/><path fill="#fff" d="M475.6 408.47h3.15v19.07h-3.16z"/><path fill="none" stroke="#000" stroke-width=".78" d="M475.6 408.47h3.15v19.07h-3.16zM477.24 427.54v-19.07"/><path fill="#fff" d="M475.6 303.3h3.15v18.6h-3.16z"/><path fill="none" stroke="#000" stroke-width=".78" d="M475.6 303.3h3.15v18.6h-3.16zM477.24 321.9V303.4"/><path fill="#fff" d="M475.6 321.94h3.15V341h-3.16z"/><path fill="none" stroke="#000" stroke-width=".78" d="M475.6 321.94h3.15V341h-3.16zM477.24 341v-19.06"/><path fill="#fff" d="M475.6 215.56h3.15v18.58h-3.16z"/><path fill="none" stroke="#000" stroke-width=".78" d="M475.6 215.56h3.15v18.58h-3.16zM477.24 234.14v-18.47"/><path fill="#fff" d="M475.6 234.2h3.15v19.06h-3.16z"/><path fill="none" stroke="#000" stroke-width=".78" d="M475.6 234.2h3.15v19.06h-3.16zM477.24 253.26V234.2"/><path fill="#fff" d="M475.6 124.3h3.15v18.6h-3.16z"/><path fill="none" stroke="#000" stroke-width=".78" d="M475.6 124.3h3.15v18.6h-3.16zM477.24 142.9V124.4"/><path fill="#fff" d="M475.6 142.94h3.15V162h-3.16z"/><path fill="none" stroke="#000" stroke-width=".78" d="M475.6 142.94h3.15V162h-3.16zM477.24 162v-19.06"/><path fill="#fff" d="M475.6 36.23h3.15v18.6h-3.16z"/><path fill="none" stroke="#000" stroke-width=".78" d="M475.6 36.23h3.15v18.6h-3.16zM477.24 54.82V36.34"/><path fill="#fff" d="M475.6 54.87h3.15v19.07h-3.16z"/><path fill="none" stroke="#000" stroke-width=".78" d="M475.6 54.87h3.15v19.07h-3.16zM477.24 73.94V54.87"/></g><defs><path id="bF" d="M44.5 120.46h100.14v4.56H44.5z"/></defs><clipPath id="bG"><use xlink:href="#bF" overflow="visible"/></clipPath><path fill="#231F20" d="M144.63 120.84v-.3h-3.4v.3h1.54v4.1h.33v-4.1h1.53zm-5.8 4.1v-.3H136v-1.77h2.53v-.3H136v-1.73h2.8v-.3h-3.13v4.4h3.17zm-5.86 0v-.3h-2.84v-1.77h2.52v-.3h-2.52v-1.73h2.8v-.3h-3.13v4.4h3.17zm-6.28-3.13c0 .65-.56 1.02-1.3 1.02h-1.48v-1.98h1.5c.8 0 1.27.37 1.27.96zm.48 3.15l-1.45-1.9c.74-.1 1.3-.5 1.3-1.25s-.63-1.27-1.58-1.27h-1.86v4.4h.32v-1.8h1.44l1.4 1.8h.42v.02zm-6.24-4.1v-.3h-3.4v.3h1.54v4.1h.33v-4.1h1.54zm-5.72 2.96c0-.65-.43-1.02-1.45-1.22-1.04-.22-1.28-.5-1.28-.97 0-.46.42-.83 1.07-.83.48 0 .9.14 1.3.5l.22-.26c-.46-.35-.88-.53-1.52-.53-.82 0-1.42.5-1.42 1.16 0 .68.43 1.04 1.5 1.25 1 .2 1.23.48 1.23.94v.02c0 .5-.46.87-1.12.87-.65 0-1.1-.2-1.58-.64l-.22.24c.53.48 1.07.7 1.78.7.85 0 1.46-.48 1.46-1.2m-11.16 1.15v-4.4h-.3v3.82l-3.06-3.83h-.3v4.4h.3v-3.9l3.1 3.9h.26zm-6.78-2.2c0 1.1-.78 1.98-1.87 1.98s-1.87-.9-1.87-2 .78-1.97 1.87-1.97 1.88.9 1.88 1.98v.02zm.35 0c0-.02 0-.02 0-.02 0-1.2-.88-2.27-2.22-2.27-1.32 0-2.2 1.08-2.2 2.28 0 1.22.87 2.28 2.2 2.28 1.34 0 2.23-1.08 2.23-2.28m-6.55-1.9v-.3h-3.4v.3h1.54v4.1h.33v-4.1h1.53zm-5.8 3.52v-1.7H83.5v.3h1.47v1.27c-.32.27-.84.5-1.4.5-1.18 0-1.9-.85-1.9-2 0-1.06.75-1.97 1.83-1.97.66 0 1.07.22 1.4.53l.23-.26c-.44-.36-.9-.58-1.6-.58-1.33 0-2.2 1.1-2.2 2.28v.02c0 1.24.83 2.26 2.22 2.26.72 0 1.34-.3 1.73-.66m-6.7.6v-4.42h-.33v3.83l-3.04-3.83h-.3v4.4h.32v-3.9l3.1 3.9h.25zm-6.7-4.42h-.3v4.4h.3v-4.4zm-3.32 4.4v-4.4h-.33v2.04H65.4v-2.04h-.32v4.4h.33v-2.06h2.83v2.07h.33zm-6.2-1.13c0-.65-.44-1.02-1.46-1.22-1.04-.22-1.28-.5-1.28-.97 0-.46.43-.83 1.07-.83.48 0 .9.14 1.3.5l.22-.26c-.45-.35-.87-.53-1.5-.53-.83 0-1.43.5-1.43 1.16 0 .68.42 1.04 1.47 1.25 1 .2 1.25.48 1.25.94v.02c0 .5-.45.87-1.1.87-.66 0-1.1-.2-1.6-.64l-.2.24c.52.48 1.06.7 1.77.7.84 0 1.45-.48 1.45-1.2m-6.5-.38h-2.33l1.17-2.56 1.15 2.56zm1.05 1.53l-2.05-4.45h-.3l-2.07 4.45h.34l.56-1.24h2.6l.57 1.25h.36zm-6.1-4.4h-.34l-1.38 3.9-1.3-3.93h-.25l-1.3 3.94-1.37-3.92h-.37l1.6 4.43h.26l1.3-3.83 1.28 3.83h.26l1.6-4.43z" clip-path="url(#bG)"/></svg>