<?xml version="1.0" encoding="utf-8"?>
<!-- Generator: Adobe Illustrator 15.0.0, SVG Export Plug-In . SVG Version: 6.00 Build 0)  -->
<!DOCTYPE svg PUBLIC "-//W3C//DTD SVG 1.1//EN" "http://www.w3.org/Graphics/SVG/1.1/DTD/svg11.dtd">
<svg version="1.1" id="Layer_1" xmlns="http://www.w3.org/2000/svg" xmlns:xlink="http://www.w3.org/1999/xlink" x="0px" y="0px"
	 width="513.359px" height="495.36px" viewBox="0 0 513.359 495.36" enable-background="new 0 0 513.359 495.36"
	 xml:space="preserve">
<g id="Layer_4">
	<rect x="78.568" y="22.088" fill="#FFFFFF" width="33.15" height="44.2"/>
	<rect x="111.718" y="22.088" fill="#FFFFFF" width="33.15" height="44.2"/>
	<polygon fill="#BBBDBF" points="144.018,73.938 144.018,66.288 120.217,66.288 120.217,73.938 111.717,73.938 111.717,115.587 
		144.868,115.587 144.868,73.938 	"/>
	<polygon fill="#FFFFFF" points="78.567,73.087 58.167,73.087 58.167,95.188 45.417,95.188 45.417,115.587 78.567,115.587 	"/>
	<polygon fill="#FFFFFF" points="77.717,73.087 77.717,115.587 111.717,115.587 111.717,98.587 104.917,98.587 104.917,84.987 
		88.768,84.987 88.768,72.237 	"/>
	<polygon fill="#FFFFFF" points="45.417,21.237 77.717,21.237 77.717,66.288 64.118,66.288 64.118,59.487 59.868,59.487 
		59.868,49.288 48.817,49.288 45.417,49.288 	"/>
	<g>
		<g>
			<defs>
				<rect id="SVGID_1_" x="-46.034" y="20.497" width="530.791" height="739.638"/>
			</defs>
			<clipPath id="SVGID_2_">
				<use xlink:href="#SVGID_1_"  overflow="visible"/>
			</clipPath>
			<polygon clip-path="url(#SVGID_2_)" fill="none" stroke="#262626" stroke-width="2.053" stroke-miterlimit="10" points="
				144.891,115.819 45.17,115.819 45.17,21.523 78.458,21.523 144.891,21.523 			"/>
		</g>
		<g>
			<defs>
				<rect id="SVGID_3_" x="-46.034" y="20.497" width="530.791" height="739.638"/>
			</defs>
			<clipPath id="SVGID_4_">
				<use xlink:href="#SVGID_3_"  overflow="visible"/>
			</clipPath>
			<path clip-path="url(#SVGID_4_)" fill="none" stroke="#262626" stroke-width="1.173" stroke-miterlimit="10" d="M58.515,73.438
				h61.445v-7.333 M48.836,59.065h11.292 M48.542,66.985h9.973v0.879 M58.515,71.091v24.197H46.049 M45.17,66.985h3.372V48.947
				h11.586v10.558h3.959v6.893h81.098 M78.312,116.112V73.096 M111.602,116.112V73.096 M111.602,65.812V22.184 M78.166,65.812
				V22.184"/>
		</g>
		<g>
			<defs>
				<rect id="SVGID_5_" x="-46.034" y="20.497" width="530.791" height="739.638"/>
			</defs>
			<clipPath id="SVGID_6_">
				<use xlink:href="#SVGID_5_"  overflow="visible"/>
			</clipPath>
			<path clip-path="url(#SVGID_6_)" fill="none" stroke="#000000" stroke-width="0.425" d="M55.166,67.787
				c0,1.796,1.455,3.251,3.251,3.251 M55.164,67.787h3.252v-0.188h-3.252V67.787z M110.209,76.593c-1.796,0-3.251-1.455-3.251-3.251
				 M110.396,76.595h-0.188v-3.253h0.188V76.595z M77.16,76.517c-1.797,0-3.251-1.454-3.251-3.251 M77.348,76.52H77.16v-3.253h0.188
				V76.52z M113.062,76.591c1.796,0,3.253-1.455,3.253-3.251 M112.876,76.593h0.186V73.34h-0.186V76.593z M80.374,76.517
				c1.795,0,3.25-1.454,3.25-3.251 M80.186,76.52h0.188v-3.253h-0.188V76.52z M113.676,62.988c1.795,0,3.251,1.455,3.251,3.251
				 M113.489,62.986h0.188v3.253h-0.188V62.986z M94.701,62.879c-1.796,0-3.25,1.456-3.25,3.251 M94.889,62.878h-0.188v3.253h0.188
				V62.878z M67.533,65.145c0-1.796-1.455-3.251-3.251-3.251 M67.536,65.145h-3.254v0.187h3.254V65.145z"/>
		</g>
	</g>
	<path fill="none" stroke="#000000" stroke-width="0.452" d="M49.124,82.236l8.957,0.004 M45.867,83.435l12.214,0.002
		 M45.848,84.632l12.205,0.009 M45.891,85.83l12.231,0.006 M45.931,87.027l12.191,0.003 M45.931,88.225l12.191,0.006 M45.952,89.478
		l12.17-0.002"/>
	<path fill="none" stroke="#000000" stroke-width="0.425" d="M45.896,84.988l3.666-2.693l-0.188-0.557l0.924,0.877l-0.26-0.64
		l1.768-1.07 M45.562,74.281h6.378 M45.562,75.479h6.378 M45.562,76.676h6.378 M45.562,77.874h6.378 M45.562,79.071h6.378
		 M45.562,80.269h6.316 M45.439,81.467h5.475 M45.794,82.419h3.554"/>
	<line fill="none" stroke="#000000" stroke-width="0.452" x1="51.374" y1="81.039" x2="58.136" y2="81.039"/>
	<path fill="none" stroke="#000000" stroke-width="0.425" d="M94.2,73.282l0.929,2.883l0.587-0.048l-1.076,0.684l0.685-0.098
		l0.61,2.127 M103.341,73.819v4.986 M102.143,73.819v4.986 M100.946,73.819v4.986 M99.748,73.819v4.986 M98.55,73.819v4.889
		 M97.353,73.819v4.889 M96.156,73.819v4.889 M94.957,73.819v1.655"/>
	<path fill="#FFFFFF" d="M92.39,79.538h11.292v-0.586H92.39V79.538z M103.976,79.832H92.097v-1.173h11.879V79.832z"/>
	<path fill="none" stroke="#262626" stroke-width="0.425" d="M92.39,79.538h11.292v-0.586H92.39V79.538z M103.976,79.832H92.097
		v-1.173h11.879V79.832z"/>
	<path fill="#FFFFFF" d="M52.126,89.745h0.588V74.413h-0.588V89.745z M51.834,74.015h1.172v16.128h-1.172V74.015z"/>
	<path fill="none" stroke="#262626" stroke-width="0.495" d="M52.126,89.745h0.588V74.413h-0.588V89.745z M51.834,74.015h1.172
		v16.128h-1.172V74.015z"/>
	<path fill="none" stroke="#000000" stroke-width="0.425" d="M94.855,76.801v1.931 M93.658,73.844v4.888 M92.46,73.844v4.888
		 M94.807,79.884v4.888 M93.609,79.884v4.888 M92.412,79.884v4.888 M103.438,79.859v4.987 M102.241,79.859v4.987 M101.043,79.859
		v4.987 M99.72,79.859v4.987 M98.522,79.859v4.889 M97.324,79.859v4.889 M96.127,79.859v4.889"/>
	<path fill="none" stroke="#262626" stroke-width="1.173" stroke-miterlimit="10" d="M104.709,79.01v6.452 M88.284,73.438V84.73
		h16.425v13.199h6.746"/>
	<path fill="none" stroke="#000000" stroke-width="0.442" d="M104.952,84.486h6.295 M104.952,85.683h6.295 M104.952,86.881h6.295
		 M104.952,88.079h6.295 M104.952,89.276h6.295 M104.952,90.474h6.295 M104.952,91.672h6.295 M104.952,92.869h6.295 M104.952,94.067
		h6.295 M104.952,95.264h6.295 M104.952,96.462h6.295"/>
	<g>
		<path d="M56.618,51.998h-3.365v1.547h2.982v0.935h-2.982v1.598h3.408v0.935h-4.453v-5.949h4.411L56.618,51.998L56.618,51.998z"/>
	</g>
	<g>
		<g>
			<defs>
				<rect id="SVGID_7_" x="-46.034" y="20.497" width="530.791" height="739.638"/>
			</defs>
			<clipPath id="SVGID_8_">
				<use xlink:href="#SVGID_7_"  overflow="visible"/>
			</clipPath>
		</g>
		<g>
			<defs>
				<rect id="SVGID_9_" x="-46.034" y="20.497" width="530.791" height="739.638"/>
			</defs>
			<clipPath id="SVGID_10_">
				<use xlink:href="#SVGID_9_"  overflow="visible"/>
			</clipPath>
			<path clip-path="url(#SVGID_10_)" fill="#231F20" d="M408.49,348.055l-2.932-3.73h-0.492v4.654h0.513v-3.816l3.007,3.816h0.418
				v-4.654h-0.514V348.055z M403.976,344.323h-3.365v4.654h3.398V348.5h-2.872v-1.631h2.54v-0.479h-2.54v-1.59h2.839V344.323z
				 M398.769,346.883v2.096h0.526v-4.654h-0.526v2.066h-2.686v-2.066h-0.526v4.654h0.526v-2.096H398.769z M394.64,348.241
				l-0.346-0.34c-0.446,0.426-0.865,0.672-1.503,0.672c-1.024,0-1.804-0.846-1.804-1.93s0.771-1.914,1.804-1.914
				c0.632,0,1.069,0.266,1.463,0.639l0.357-0.387c-0.465-0.438-0.971-0.738-1.813-0.738c-1.37,0-2.354,1.084-2.354,2.414
				c0,1.346,0.99,2.4,2.334,2.4C393.622,349.059,394.153,348.733,394.64,348.241 M388.423,344.809h1.562v-0.484h-3.655v0.484h1.562
				v4.17h0.532V344.809L388.423,344.809z M384.771,348.979h0.525v-4.654h-0.525V348.979z M381.826,346.358l1.993-2.035h-0.678
				l-2.674,2.779v-2.779h-0.525v4.654h0.525v-1.25l0.991-1.004l1.789,2.254h0.656L381.826,346.358z"/>
		</g>
		<g>
			<defs>
				<rect id="SVGID_11_" x="-46.034" y="20.497" width="530.791" height="739.638"/>
			</defs>
			<clipPath id="SVGID_12_">
				<use xlink:href="#SVGID_11_"  overflow="visible"/>
			</clipPath>
			<path clip-path="url(#SVGID_12_)" fill="#231F20" d="M335.33,248.875v-1.563h-0.486v3.658h0.486v-1.563h4.169v-0.531H335.33
				L335.33,248.875z M334.844,251.728v3.364h4.655v-3.398h-0.479v2.873h-1.63v-2.54h-0.479v2.54h-1.59v-2.839H334.844z
				 M336.008,258.942c-0.426,0-0.758-0.386-0.758-0.99c0-0.479,0.152-0.91,0.505-1.344l-0.404-0.307
				c-0.38,0.473-0.572,0.957-0.572,1.637c0,0.884,0.532,1.529,1.275,1.529c0.772,0,1.118-0.492,1.351-1.563
				c0.207-0.978,0.453-1.21,0.893-1.21c0.473,0,0.798,0.413,0.798,1.038c0,0.646-0.22,1.11-0.658,1.597l0.387,0.324
				c0.498-0.559,0.744-1.162,0.744-1.9c0-0.924-0.52-1.59-1.323-1.59c-0.719,0-1.098,0.479-1.323,1.517
				C336.7,258.704,336.453,258.942,336.008,258.942 M337.178,260.972c1.064,0,1.916,0.758,1.916,1.821s-0.864,1.836-1.929,1.836
				c-1.063,0-1.915-0.758-1.915-1.822S336.114,260.972,337.178,260.972 M337.165,260.426c-1.29,0-2.401,0.951-2.401,2.367
				s1.124,2.381,2.414,2.381s2.401-0.95,2.401-2.367C339.579,261.391,338.455,260.426,337.165,260.426 M339.499,268.817v-3.145
				h-0.485v2.619h-4.17v0.524L339.499,268.817L339.499,268.817z M338.761,269.735l-0.339,0.348c0.425,0.443,0.672,0.862,0.672,1.502
				c0,1.023-0.845,1.803-1.929,1.803s-1.915-0.772-1.915-1.803c0-0.631,0.266-1.07,0.638-1.463l-0.385-0.359
				c-0.438,0.466-0.739,0.971-0.739,1.816c0,1.368,1.084,2.354,2.414,2.354c1.345,0,2.401-0.991,2.401-2.334
				C339.579,270.752,339.253,270.221,338.761,269.735"/>
		</g>
		<g>
			<defs>
				<rect id="SVGID_13_" x="-46.034" y="20.497" width="530.791" height="739.638"/>
			</defs>
			<clipPath id="SVGID_14_">
				<use xlink:href="#SVGID_13_"  overflow="visible"/>
			</clipPath>
			<path clip-path="url(#SVGID_14_)" fill="#231F20" d="M343.367,58.94h1.562v-0.486h-3.658v0.486h1.563v4.169h0.531L343.367,58.94
				L343.367,58.94z M340.515,58.454h-3.365v4.655h3.399V62.63h-2.873v-1.629h2.54v-0.479h-2.54v-1.589h2.839V58.454z M333.3,59.618
				c0-0.426,0.386-0.758,0.99-0.758c0.479,0,0.911,0.153,1.344,0.505l0.306-0.405c-0.472-0.38-0.957-0.572-1.636-0.572
				c-0.884,0-1.529,0.532-1.529,1.276c0,0.772,0.492,1.118,1.563,1.35c0.977,0.207,1.21,0.453,1.21,0.891
				c0,0.473-0.413,0.798-1.038,0.798c-0.646,0-1.11-0.219-1.597-0.658l-0.324,0.386c0.558,0.499,1.163,0.745,1.899,0.745
				c0.926,0,1.591-0.519,1.591-1.324c0-0.718-0.479-1.097-1.517-1.323C333.539,60.309,333.3,60.063,333.3,59.618 M331.271,60.788
				c0,1.064-0.758,1.915-1.821,1.915s-1.836-0.864-1.836-1.928s0.759-1.915,1.822-1.915S331.271,59.724,331.271,60.788
				 M331.815,60.775c0-1.29-0.95-2.401-2.367-2.401c-1.415,0-2.381,1.124-2.381,2.414s0.951,2.401,2.368,2.401
				S331.815,62.065,331.815,60.775 M323.425,63.109h3.145v-0.485h-2.619v-4.17h-0.524L323.425,63.109L323.425,63.109z
				 M322.507,62.371l-0.347-0.339c-0.444,0.425-0.863,0.671-1.503,0.671c-1.023,0-1.803-0.844-1.803-1.928s0.772-1.915,1.803-1.915
				c0.632,0,1.07,0.266,1.463,0.638l0.358-0.385c-0.465-0.439-0.97-0.739-1.814-0.739c-1.369,0-2.354,1.084-2.354,2.414
				c0,1.344,0.991,2.401,2.334,2.401C321.489,63.189,322.021,62.863,322.507,62.371"/>
		</g>
		<g>
			<defs>
				<rect id="SVGID_15_" x="-46.034" y="20.497" width="530.791" height="739.638"/>
			</defs>
			<clipPath id="SVGID_16_">
				<use xlink:href="#SVGID_15_"  overflow="visible"/>
			</clipPath>
			<path clip-path="url(#SVGID_16_)" fill="#231F20" d="M300.462,227.84v2.095h0.524v-4.655h-0.524v2.068h-2.688v-2.068h-0.524
				v4.655h0.524v-2.095H300.462z M294.703,225.765h1.562v-0.485h-3.658v0.485h1.562v4.17h0.532L294.703,225.765L294.703,225.765z
				 M291.306,228.233h-2.121l1.063-2.374L291.306,228.233z M290.501,225.247h-0.492l-2.122,4.688h0.539l0.553-1.23h2.533l0.546,1.23
				h0.564L290.501,225.247z M285.567,229.463h-1.562v-1.643h1.47c0.812,0,1.237,0.293,1.237,0.805
				C286.711,229.15,286.272,229.463,285.567,229.463 M285.381,227.355h-1.377v-1.603h1.416c0.665,0,1.031,0.299,1.031,0.765
				C286.451,227.069,286.012,227.355,285.381,227.355 M285.467,225.28h-1.981v4.655h2.067c1.019,0,1.69-0.472,1.69-1.277
				c0-0.645-0.446-0.964-0.998-1.13c0.365-0.16,0.737-0.472,0.737-1.084C286.983,225.732,286.385,225.28,285.467,225.28"/>
		</g>
		<g>
			<defs>
				<rect id="SVGID_17_" x="-46.034" y="20.497" width="530.791" height="739.638"/>
			</defs>
			<clipPath id="SVGID_18_">
				<use xlink:href="#SVGID_17_"  overflow="visible"/>
			</clipPath>
			<path clip-path="url(#SVGID_18_)" fill="#231F20" d="M335.39,102.258h-0.874v0.997h0.874V102.258z M332.601,101.161v2.095h0.525
				v-4.655h-0.525v2.068h-2.687v-2.068h-0.525v4.655h0.525v-2.095H332.601z M328.471,102.517l-0.345-0.339
				c-0.446,0.426-0.865,0.672-1.503,0.672c-1.024,0-1.804-0.845-1.804-1.929s0.771-1.915,1.804-1.915
				c0.631,0,1.068,0.266,1.463,0.639l0.357-0.386c-0.466-0.439-0.971-0.738-1.814-0.738c-1.37,0-2.354,1.084-2.354,2.414
				c0,1.343,0.991,2.4,2.334,2.4C327.454,103.335,327.985,103.009,328.471,102.517 M323.391,98.601h-3.365v4.655h3.398v-0.479
				h-2.873v-1.63h2.541v-0.478h-2.541v-1.59h2.84V98.601L323.391,98.601z M318.184,99.485v3.771h0.525v-4.655h-0.532l-1.695,2.54
				l-1.695-2.54h-0.531v4.655h0.512v-3.764l1.696,2.487h0.024L318.184,99.485z"/>
		</g>
		<g>
			<defs>
				<rect id="SVGID_19_" x="-46.034" y="20.497" width="530.791" height="739.638"/>
			</defs>
			<clipPath id="SVGID_20_">
				<use xlink:href="#SVGID_19_"  overflow="visible"/>
			</clipPath>
			<path clip-path="url(#SVGID_20_)" fill="#231F20" d="M255.009,175.366c1.038,0,1.836,0.752,1.836,1.929v1.091h-3.685v-1.091
				C253.16,176.118,253.972,175.366,255.009,175.366 M254.995,174.821c-1.316,0-2.32,1.011-2.32,2.474v1.616h4.654v-1.616
				C257.329,175.833,256.312,174.821,254.995,174.821 M257.329,180.292h-0.996v0.874h0.996V180.292z M256.552,186.107l-3.877,1.33
				v0.572l4.688-1.663v-0.439l-3.775-1.283l3.775-1.277v-0.445l-4.688-1.663v0.552l3.877,1.33l-3.891,1.277v0.432L256.552,186.107z"
				/>
		</g>
		<g>
			<defs>
				<rect id="SVGID_21_" x="-46.034" y="20.497" width="530.791" height="739.638"/>
			</defs>
			<clipPath id="SVGID_22_">
				<use xlink:href="#SVGID_21_"  overflow="visible"/>
			</clipPath>
			<path clip-path="url(#SVGID_22_)" fill="#231F20" d="M338.112,405.348v3.771h0.525v-4.656h-0.532l-1.694,2.541l-1.696-2.541
				h-0.532v4.656h0.512v-3.766l1.696,2.486h0.027L338.112,405.348z M332.525,406.797c0,1.064-0.758,1.916-1.82,1.916
				c-1.064,0-1.835-0.865-1.835-1.928c0-1.064,0.758-1.916,1.82-1.916C331.755,404.87,332.525,405.733,332.525,406.797
				 M333.072,406.786c0-1.291-0.95-2.402-2.367-2.402c-1.416,0-2.381,1.125-2.381,2.414c0,1.291,0.95,2.4,2.366,2.4
				C332.107,409.198,333.072,408.075,333.072,406.786 M326.874,406.797c0,1.064-0.758,1.916-1.822,1.916
				c-1.063,0-1.835-0.865-1.835-1.928c0-1.064,0.758-1.916,1.822-1.916C326.103,404.87,326.874,405.733,326.874,406.797
				 M327.419,406.786c0-1.291-0.951-2.402-2.367-2.402s-2.381,1.125-2.381,2.414c0,1.291,0.951,2.4,2.368,2.4
				C326.455,409.198,327.419,408.075,327.419,406.786 M321.222,405.874c0,0.604-0.499,0.965-1.197,0.965h-1.43v-1.891h1.438
				C320.783,404.948,321.222,405.295,321.222,405.874 M321.92,409.12l-1.43-1.902c0.73-0.133,1.264-0.586,1.264-1.363
				c0-0.838-0.659-1.391-1.684-1.391h-2.002v4.656h0.525v-1.811h1.33l1.35,1.811H321.92L321.92,409.12z"/>
		</g>
		<g>
			<defs>
				<rect id="SVGID_23_" x="-46.034" y="20.497" width="530.791" height="739.638"/>
			</defs>
			<clipPath id="SVGID_24_">
				<use xlink:href="#SVGID_23_"  overflow="visible"/>
			</clipPath>
			<path clip-path="url(#SVGID_24_)" fill="#231F20" d="M353.938,399.987v-1.855h-1.922v0.473h1.417v1.156
				c-0.319,0.262-0.812,0.467-1.344,0.467c-1.13,0-1.842-0.824-1.842-1.941c0-1.045,0.737-1.916,1.769-1.916
				c0.659,0,1.06,0.221,1.417,0.533l0.339-0.398c-0.466-0.395-0.951-0.619-1.734-0.619c-1.396,0-2.334,1.131-2.334,2.414
				c0,1.336,0.902,2.4,2.365,2.4C352.854,400.698,353.507,400.372,353.938,399.987 M348.081,399.694l-2.935-3.73h-0.492v4.654h0.514
				v-3.816l3.006,3.816h0.419v-4.654h-0.512V399.694L348.081,399.694z M342.767,400.618h0.525v-4.654h-0.525V400.618z
				 M339.575,399.973l-1.656-4.01h-0.585l2.002,4.689h0.465l2.002-4.689h-0.565L339.575,399.973z M335.845,400.618h0.525v-4.654
				h-0.525V400.618z M331.682,400.618h3.146v-0.484h-2.62v-4.17h-0.525L331.682,400.618L331.682,400.618z M329.352,399.622h-0.874
				v0.996h0.874V399.622z M326.508,399.987v-1.855h-1.921v0.473h1.416v1.156c-0.319,0.262-0.812,0.467-1.343,0.467
				c-1.133,0-1.844-0.824-1.844-1.941c0-1.045,0.738-1.916,1.771-1.916c0.658,0,1.057,0.221,1.416,0.533l0.339-0.398
				c-0.465-0.395-0.951-0.619-1.736-0.619c-1.396,0-2.334,1.131-2.334,2.414c0,1.336,0.905,2.4,2.368,2.4
				C325.424,400.698,326.076,400.372,326.508,399.987 M320.649,399.694l-2.933-3.73h-0.492v4.654h0.512v-3.816l3.008,3.816h0.419
				v-4.654h-0.514V399.694L320.649,399.694z M315.337,400.618h0.523v-4.654h-0.523V400.618z M313.461,399.694l-2.934-3.73h-0.49
				v4.654h0.512v-3.816l3.005,3.816h0.419v-4.654h-0.512V399.694z M308.147,400.618h0.525v-4.654h-0.525V400.618z M306.445,398.297
				c0,1.039-0.752,1.836-1.929,1.836h-1.09v-3.684h1.09C305.693,396.45,306.445,397.26,306.445,398.297 M306.991,398.284
				c0-1.316-1.013-2.32-2.476-2.32H302.9v4.654h1.616C305.979,400.618,306.991,399.602,306.991,398.284"/>
		</g>
		<g>
			<defs>
				<rect id="SVGID_25_" x="-46.034" y="20.497" width="530.791" height="739.638"/>
			</defs>
			<clipPath id="SVGID_26_">
				<use xlink:href="#SVGID_25_"  overflow="visible"/>
			</clipPath>
			<path clip-path="url(#SVGID_26_)" fill="#231F20" d="M341.689,306.877h-3.345v4.656h0.524v-2.029h2.521v-0.479h-2.521v-1.662
				h2.819L341.689,306.877L341.689,306.877z M337.254,306.877h-3.365v4.656h3.399v-0.48h-2.873v-1.629h2.539v-0.479h-2.539v-1.588
				h2.839V306.877z M332.233,308.288c0,0.605-0.499,0.965-1.196,0.965h-1.431v-1.889h1.438
				C331.795,307.364,332.233,307.709,332.233,308.288 M332.932,311.534l-1.43-1.902c0.73-0.133,1.264-0.586,1.264-1.363
				c0-0.838-0.659-1.391-1.683-1.391h-2.001v4.656h0.523v-1.811h1.33l1.351,1.811H332.932z"/>
		</g>
		<g>
			<defs>
				<rect id="SVGID_27_" x="-46.034" y="20.497" width="530.791" height="739.638"/>
			</defs>
			<clipPath id="SVGID_28_">
				<use xlink:href="#SVGID_27_"  overflow="visible"/>
			</clipPath>
			<path clip-path="url(#SVGID_28_)" fill="#231F20" d="M370.027,308.754l-1.33-3.877h-0.571l1.662,4.689h0.438l1.284-3.777
				l1.276,3.777h0.444l1.662-4.689h-0.552l-1.33,3.877l-1.275-3.889h-0.434L370.027,308.754z M367.067,307.211
				c0,1.039-0.753,1.836-1.93,1.836h-1.09v-3.684h1.09C366.314,305.364,367.067,306.174,367.067,307.211 M367.612,307.2
				c0-1.318-1.012-2.322-2.475-2.322h-1.616v4.656h1.616C366.601,309.534,367.612,308.516,367.612,307.2"/>
		</g>
		<g>
			<defs>
				<rect id="SVGID_29_" x="-46.034" y="20.497" width="530.791" height="739.638"/>
			</defs>
			<clipPath id="SVGID_30_">
				<use xlink:href="#SVGID_29_"  overflow="visible"/>
			</clipPath>
			<path clip-path="url(#SVGID_30_)" fill="#231F20" d="M423.751,231.933h-0.469l-0.475,1.547h0.296L423.751,231.933z
				 M422.806,231.933h-0.47l-0.472,1.547h0.293L422.806,231.933z M419.261,232.155l0.112,0.384l0.792-0.246v3.738h0.47v-4.23h-0.35
				L419.261,232.155z M416.339,232.155l0.112,0.384l0.792-0.246v3.738h0.469v-4.23h-0.349L416.339,232.155z M415.024,231.933h-0.469
				l-0.472,1.547h0.293L415.024,231.933z M412.438,233.139c0,0.486-0.402,0.954-1.044,0.954c-0.612,0-1.032-0.384-1.032-0.924
				c0-0.528,0.378-0.99,1.008-0.99S412.438,232.599,412.438,233.139 M413.015,233.823c0-0.846-0.192-1.302-0.522-1.632
				c-0.27-0.27-0.624-0.432-1.104-0.432c-0.896,0-1.513,0.63-1.513,1.434c0,0.762,0.601,1.308,1.465,1.308
				c0.582,0,0.96-0.306,1.188-0.672c0.019,1.074-0.492,1.842-1.248,1.842c-0.372,0-0.688-0.15-1.032-0.45l-0.274,0.366
				c0.354,0.294,0.75,0.516,1.296,0.516C412.307,236.103,413.015,235.161,413.015,233.823 M406.425,235.531l-1.129-1.504
				l1.087-1.436h-0.388l-0.895,1.201l-0.903-1.201h-0.39l1.088,1.441l-1.13,1.499h0.382l0.941-1.264l0.939,1.264H406.425z
				 M400.938,231.933h-0.469l-0.476,1.547h0.295L400.938,231.933z M399.99,231.933h-0.469l-0.472,1.547h0.293L399.99,231.933z
				 M397.634,234.885c0,0.432-0.408,0.792-1.1,0.792c-0.688,0-1.098-0.36-1.098-0.792c0-0.474,0.486-0.804,1.098-0.804
				C397.147,234.081,397.634,234.411,397.634,234.885 M397.494,232.917c0,0.462-0.426,0.774-0.96,0.774
				c-0.533,0-0.959-0.312-0.959-0.774c0-0.426,0.413-0.732,0.959-0.732S397.494,232.497,397.494,232.917 M398.113,234.891
				c0-0.504-0.366-0.846-0.864-1.032c0.392-0.18,0.722-0.48,0.722-0.972c0-0.654-0.666-1.116-1.436-1.116
				c-0.768,0-1.434,0.462-1.434,1.116c0,0.492,0.33,0.792,0.72,0.972c-0.504,0.18-0.863,0.534-0.863,1.038
				c0,0.708,0.685,1.194,1.577,1.194C397.43,236.091,398.113,235.611,398.113,234.891 M393.499,231.933h-0.469l-0.472,1.547h0.293
				L393.499,231.933z M390.913,233.139c0,0.486-0.401,0.954-1.044,0.954c-0.611,0-1.032-0.384-1.032-0.924
				c0-0.528,0.379-0.99,1.009-0.99S390.913,232.599,390.913,233.139 M391.489,233.823c0-0.846-0.19-1.302-0.521-1.632
				c-0.271-0.27-0.624-0.432-1.104-0.432c-0.894,0-1.512,0.63-1.512,1.434c0,0.762,0.601,1.308,1.464,1.308
				c0.582,0,0.96-0.306,1.188-0.672c0.019,1.074-0.491,1.842-1.247,1.842c-0.372,0-0.69-0.15-1.032-0.45l-0.276,0.366
				c0.354,0.294,0.75,0.516,1.297,0.516C390.781,236.103,391.489,235.161,391.489,233.823"/>
		</g>
		<g>
			<defs>
				<rect id="SVGID_31_" x="-46.034" y="20.497" width="530.791" height="739.638"/>
			</defs>
			<clipPath id="SVGID_32_">
				<use xlink:href="#SVGID_31_"  overflow="visible"/>
			</clipPath>
			<path clip-path="url(#SVGID_32_)" fill="#231F20" d="M423.132,224.235v3.771h0.523v-4.655h-0.532l-1.694,2.54l-1.695-2.54h-0.532
				v4.655h0.514v-3.764l1.694,2.487h0.026L423.132,224.235z M417.546,225.685c0,1.064-0.76,1.915-1.822,1.915
				c-1.064,0-1.836-0.864-1.836-1.928s0.759-1.915,1.822-1.915S417.546,224.621,417.546,225.685 M418.091,225.672
				c0-1.29-0.951-2.401-2.367-2.401c-1.417,0-2.381,1.124-2.381,2.414s0.95,2.401,2.367,2.401
				C417.126,228.086,418.091,226.962,418.091,225.672 M411.894,225.685c0,1.064-0.758,1.915-1.822,1.915
				c-1.062,0-1.836-0.864-1.836-1.928s0.758-1.915,1.822-1.915C411.12,223.757,411.894,224.621,411.894,225.685 M412.438,225.672
				c0-1.29-0.951-2.401-2.367-2.401c-1.417,0-2.381,1.124-2.381,2.414s0.951,2.401,2.367,2.401
				C411.475,228.086,412.438,226.962,412.438,225.672 M406.24,224.761c0,0.605-0.499,0.964-1.196,0.964h-1.431v-1.889h1.438
				C405.802,223.836,406.24,224.182,406.24,224.761 M406.938,228.006l-1.429-1.902c0.729-0.133,1.263-0.585,1.263-1.363
				c0-0.838-0.658-1.39-1.682-1.39h-2.002v4.655h0.523v-1.809h1.331l1.349,1.809H406.938z M401.433,225.685
				c0,1.038-0.751,1.836-1.928,1.836h-1.093v-3.685h1.093C400.682,223.836,401.433,224.647,401.433,225.685 M401.979,225.672
				c0-1.317-1.011-2.321-2.474-2.321h-1.616v4.655h1.616C400.968,228.006,401.979,226.989,401.979,225.672 M396.798,223.351h-3.365
				v4.655h3.397v-0.479h-2.872v-1.629h2.539v-0.479h-2.539v-1.589h2.84V223.351L396.798,223.351z M390.714,227.534h-1.563v-1.643
				h1.471c0.812,0,1.236,0.293,1.236,0.805C391.857,227.221,391.418,227.534,390.714,227.534 M390.527,225.426h-1.377v-1.603h1.416
				c0.665,0,1.031,0.299,1.031,0.765C391.598,225.14,391.158,225.426,390.527,225.426 M390.613,223.351h-1.98v4.655h2.067
				c1.019,0,1.689-0.472,1.689-1.277c0-0.645-0.446-0.964-0.998-1.13c0.366-0.16,0.738-0.472,0.738-1.084
				C392.13,223.803,391.531,223.351,390.613,223.351"/>
		</g>
		<g>
			<defs>
				<rect id="SVGID_33_" x="-46.034" y="20.497" width="530.791" height="739.638"/>
			</defs>
			<clipPath id="SVGID_34_">
				<use xlink:href="#SVGID_33_"  overflow="visible"/>
			</clipPath>
			<path clip-path="url(#SVGID_34_)" fill="#231F20" d="M433.379,98.1h-0.469l-0.476,1.547h0.296L433.379,98.1z M432.433,98.1
				h-0.469l-0.472,1.547h0.293L432.433,98.1z M427.64,98.43h2.311l-1.896,3.768h0.528l1.907-3.846v-0.354h-2.851V98.43z
				 M426.026,98.1h-0.47l-0.472,1.547h0.293L426.026,98.1z M422.341,98.322l0.113,0.384l0.792-0.246v3.738h0.469v-4.23h-0.349
				L422.341,98.322z M419.594,98.322l0.114,0.384l0.791-0.246v3.738h0.469v-4.23h-0.349L419.594,98.322z M416.231,101.698
				l-1.129-1.504l1.087-1.436h-0.386l-0.896,1.201l-0.902-1.201h-0.391l1.088,1.441l-1.13,1.499h0.382l0.94-1.264l0.941,1.264
				H416.231z M410.624,98.1h-0.469l-0.475,1.547h0.295L410.624,98.1z M409.679,98.1h-0.469l-0.473,1.547h0.293L409.679,98.1z
				 M406.948,98.424l-1.326,1.494l0.097,0.282h0.271c0.695,0,1.176,0.288,1.176,0.816c0,0.498-0.407,0.822-0.918,0.822
				c-0.517,0-0.905-0.228-1.229-0.624l-0.342,0.306c0.342,0.444,0.863,0.75,1.565,0.75c0.779,0,1.403-0.516,1.403-1.272
				c0-0.774-0.647-1.128-1.386-1.188l1.319-1.464v-0.348h-2.683v0.426H406.948z M403.169,98.1H402.7l-0.473,1.547h0.293
				L403.169,98.1z M400.673,101.052c0,0.432-0.408,0.792-1.099,0.792c-0.689,0-1.099-0.36-1.099-0.792
				c0-0.474,0.486-0.804,1.099-0.804S400.673,100.578,400.673,101.052 M400.534,99.084c0,0.462-0.426,0.774-0.96,0.774
				s-0.96-0.312-0.96-0.774c0-0.426,0.414-0.732,0.96-0.732S400.534,98.664,400.534,99.084 M401.153,101.058
				c0-0.504-0.366-0.846-0.864-1.032c0.391-0.18,0.721-0.48,0.721-0.972c0-0.654-0.666-1.116-1.435-1.116s-1.435,0.462-1.435,1.116
				c0,0.492,0.33,0.792,0.721,0.972c-0.505,0.18-0.864,0.534-0.864,1.038c0,0.708,0.685,1.194,1.578,1.194
				C400.469,102.258,401.153,101.778,401.153,101.058"/>
		</g>
		<g>
			<defs>
				<rect id="SVGID_35_" x="-46.034" y="20.497" width="530.791" height="739.638"/>
			</defs>
			<clipPath id="SVGID_36_">
				<use xlink:href="#SVGID_35_"  overflow="visible"/>
			</clipPath>
			<path clip-path="url(#SVGID_36_)" fill="#231F20" d="M432.843,90.402v3.771h0.524v-4.655h-0.531l-1.696,2.54l-1.694-2.54h-0.532
				v4.655h0.513v-3.764l1.695,2.487h0.026L432.843,90.402z M427.257,91.852c0,1.064-0.759,1.915-1.822,1.915
				s-1.836-0.864-1.836-1.928s0.76-1.915,1.823-1.915S427.257,90.788,427.257,91.852 M427.802,91.839
				c0-1.29-0.951-2.401-2.367-2.401c-1.417,0-2.381,1.124-2.381,2.414s0.951,2.401,2.368,2.401
				C426.838,94.253,427.802,93.129,427.802,91.839 M421.605,91.852c0,1.064-0.759,1.915-1.822,1.915s-1.836-0.864-1.836-1.928
				s0.758-1.915,1.821-1.915C420.833,89.924,421.605,90.788,421.605,91.852 M422.15,91.839c0-1.29-0.951-2.401-2.367-2.401
				c-1.417,0-2.381,1.124-2.381,2.414s0.95,2.401,2.366,2.401C421.186,94.253,422.15,93.129,422.15,91.839 M415.951,90.928
				c0,0.605-0.499,0.964-1.196,0.964h-1.431v-1.889h1.438C415.513,90.003,415.951,90.349,415.951,90.928 M416.65,94.173l-1.43-1.902
				c0.73-0.133,1.264-0.585,1.264-1.363c0-0.838-0.658-1.39-1.683-1.39H412.8v4.655h0.524v-1.809h1.331l1.35,1.809H416.65z
				 M411.144,91.852c0,1.038-0.751,1.836-1.928,1.836h-1.092v-3.685h1.092C410.393,90.003,411.144,90.815,411.144,91.852
				 M411.69,91.839c0-1.317-1.012-2.321-2.475-2.321H407.6v4.655h1.616C410.679,94.173,411.69,93.156,411.69,91.839 M406.509,89.518
				h-3.365v4.655h3.399v-0.479h-2.873v-1.629h2.54v-0.479h-2.54v-1.589h2.839V89.518z M400.425,93.701h-1.562v-1.643h1.47
				c0.812,0,1.237,0.293,1.237,0.805C401.569,93.388,401.13,93.701,400.425,93.701 M400.239,91.593h-1.377V89.99h1.416
				c0.665,0,1.03,0.299,1.03,0.765C401.309,91.307,400.869,91.593,400.239,91.593 M400.324,89.518h-1.981v4.655h2.067
				c1.019,0,1.689-0.472,1.689-1.277c0-0.645-0.445-0.964-0.998-1.13c0.366-0.16,0.738-0.472,0.738-1.084
				C401.841,89.97,401.242,89.518,400.324,89.518"/>
		</g>
	</g>
	<rect x="254.822" y="256.359" fill="#FFFFFF" width="59.4" height="30.712"/>
	<rect x="254.822" y="256.359" fill="none" stroke="#000000" stroke-width="0.78" width="59.4" height="30.712"/>
	<g>
		<g>
			<defs>
				<rect id="SVGID_37_" x="-46.034" y="20.497" width="530.791" height="739.638"/>
			</defs>
			<clipPath id="SVGID_38_">
				<use xlink:href="#SVGID_37_"  overflow="visible"/>
			</clipPath>
			<path clip-path="url(#SVGID_38_)" fill="#FFFFFF" d="M268.36,272.829c0.695,0,1.26-0.564,1.26-1.261
				c0-0.694-0.563-1.26-1.26-1.26c-0.695,0-1.259,0.565-1.259,1.26C267.102,272.264,267.664,272.829,268.36,272.829"/>
		</g>
		<g>
			<defs>
				<rect id="SVGID_39_" x="-46.034" y="20.497" width="530.791" height="739.638"/>
			</defs>
			<clipPath id="SVGID_40_">
				<use xlink:href="#SVGID_39_"  overflow="visible"/>
			</clipPath>
			<circle clip-path="url(#SVGID_40_)" fill="none" stroke="#231F20" stroke-width="0.65" cx="268.36" cy="271.569" r="1.26"/>
		</g>
		<g>
			<defs>
				<rect id="SVGID_41_" x="-46.034" y="20.497" width="530.791" height="739.638"/>
			</defs>
			<clipPath id="SVGID_42_">
				<use xlink:href="#SVGID_41_"  overflow="visible"/>
			</clipPath>
			<path clip-path="url(#SVGID_42_)" fill="#FFFFFF" d="M310.831,271.62c0,8.805-2.031,12.025-4.877,12.025h-43.39
				c-0.695,0-2.134-0.188-2.134-2.029v-9.996v-0.02v-9.997c0-1.84,1.438-2.028,2.134-2.028h43.36l0.028,0.002
				C308.8,259.577,310.831,262.874,310.831,271.62"/>
		</g>
		<g>
			<defs>
				<rect id="SVGID_43_" x="-46.034" y="20.497" width="530.791" height="739.638"/>
			</defs>
			<clipPath id="SVGID_44_">
				<use xlink:href="#SVGID_43_"  overflow="visible"/>
			</clipPath>
			<path clip-path="url(#SVGID_44_)" fill="none" stroke="#000000" stroke-width="0.65" d="M310.831,271.62
				c0,8.805-2.031,12.025-4.877,12.025h-43.39c-0.695,0-2.134-0.188-2.134-2.029v-9.996v-0.02v-9.997
				c0-1.84,1.438-2.028,2.134-2.028h43.36l0.028,0.002C308.8,259.577,310.831,262.874,310.831,271.62z"/>
		</g>
		<g>
			<defs>
				<rect id="SVGID_45_" x="-46.034" y="20.497" width="530.791" height="739.638"/>
			</defs>
			<clipPath id="SVGID_46_">
				<use xlink:href="#SVGID_45_"  overflow="visible"/>
			</clipPath>
			<path clip-path="url(#SVGID_46_)" fill="#FFFFFF" d="M258.223,274.209c0.714-0.002,1.285,0.574,1.285,1.295
				c0,0.697-0.571,1.277-1.285,1.281c-0.708-0.004-1.294-0.584-1.294-1.281C256.929,274.784,257.507,274.208,258.223,274.209"/>
		</g>
		<g>
			<defs>
				<rect id="SVGID_47_" x="-46.034" y="20.497" width="530.791" height="739.638"/>
			</defs>
			<clipPath id="SVGID_48_">
				<use xlink:href="#SVGID_47_"  overflow="visible"/>
			</clipPath>
			<path clip-path="url(#SVGID_48_)" fill="none" stroke="#231F20" stroke-width="0.585" d="M258.223,274.209
				c0.714-0.002,1.285,0.574,1.285,1.295c0,0.697-0.571,1.277-1.285,1.281c-0.708-0.004-1.294-0.584-1.294-1.281
				C256.929,274.784,257.507,274.208,258.223,274.209z"/>
		</g>
		<g>
			<defs>
				<rect id="SVGID_49_" x="-46.034" y="20.497" width="530.791" height="739.638"/>
			</defs>
			<clipPath id="SVGID_50_">
				<use xlink:href="#SVGID_49_"  overflow="visible"/>
			</clipPath>
			<path clip-path="url(#SVGID_50_)" fill="#FFFFFF" d="M258.223,266.226c0.714-0.009,1.285,0.579,1.285,1.287
				c0,0.706-0.571,1.288-1.285,1.288c-0.708,0-1.294-0.582-1.285-1.288C256.929,266.801,257.515,266.226,258.223,266.226"/>
		</g>
		<g>
			<defs>
				<rect id="SVGID_51_" x="-46.034" y="20.497" width="530.791" height="739.638"/>
			</defs>
			<clipPath id="SVGID_52_">
				<use xlink:href="#SVGID_51_"  overflow="visible"/>
			</clipPath>
			<path clip-path="url(#SVGID_52_)" fill="none" stroke="#231F20" stroke-width="0.585" d="M258.223,266.226
				c0.714-0.009,1.285,0.579,1.285,1.287c0,0.706-0.571,1.288-1.285,1.288c-0.708,0-1.294-0.582-1.285-1.288
				C256.929,266.801,257.515,266.226,258.223,266.226z"/>
		</g>
		<g>
			<defs>
				<rect id="SVGID_53_" x="-46.034" y="20.497" width="530.791" height="739.638"/>
			</defs>
			<clipPath id="SVGID_54_">
				<use xlink:href="#SVGID_53_"  overflow="visible"/>
			</clipPath>
			<path clip-path="url(#SVGID_54_)" fill="#FFFFFF" d="M257.842,273.303c-1.056,0-1.909-0.713-1.912-1.771
				c0.003-1.053,0.856-1.63,1.912-1.63l7.27,0.679c0.715,0,0.715,1.928,0,1.928L257.842,273.303z"/>
		</g>
		<g>
			<defs>
				<rect id="SVGID_55_" x="-46.034" y="20.497" width="530.791" height="739.638"/>
			</defs>
			<clipPath id="SVGID_56_">
				<use xlink:href="#SVGID_55_"  overflow="visible"/>
			</clipPath>
			<path clip-path="url(#SVGID_56_)" fill="none" stroke="#231F20" stroke-width="0.585" d="M257.842,273.303
				c-1.056,0-1.909-0.713-1.912-1.771c0.003-1.053,0.856-1.63,1.912-1.63l7.27,0.679c0.715,0,0.715,1.928,0,1.928L257.842,273.303z"
				/>
		</g>
		<g>
			<defs>
				<rect id="SVGID_57_" x="-46.034" y="20.497" width="530.791" height="739.638"/>
			</defs>
			<clipPath id="SVGID_58_">
				<use xlink:href="#SVGID_57_"  overflow="visible"/>
			</clipPath>
			<path clip-path="url(#SVGID_58_)" fill="none" stroke="#000000" stroke-width="0.975" d="M371.028,247.446
				c0,15.915-12.899,28.817-28.817,28.817 M371.046,247.446H342.21v-1.66h28.836V247.446z M325.46,194.509
				c15.915,0,28.817-12.901,28.817-28.818 M323.799,194.527h1.66v-28.836h-1.66V194.527z M197.016,123.659
				c15.915,0,28.819-12.901,28.819-28.818 M195.356,123.677h1.66V94.841h-1.66V123.677z M389.899,156.846
				c0-15.915-12.899-28.819-28.816-28.819 M389.918,156.846h-28.836v1.661h28.836V156.846z"/>
		</g>
	</g>
	<path fill="none" stroke="#000000" stroke-width="0.78" d="M263.168,167.642v26.434 M263.168,188.917h3.666l0.854-3.169v-9.709
		l-0.854-3.21h-3.666 M246.253,194.076h24.106v-26.244h-24.106V194.076L246.253,194.076z"/>
	<polygon fill="#FFFFFF" points="264.75,169.109 264.755,171.229 263.274,171.694 263.27,168.642 	"/>
	<polygon fill="none" stroke="#231F20" stroke-width="0.78" points="264.75,169.109 264.755,171.229 263.274,171.694 
		263.27,168.642 	"/>
	<path fill="none" stroke="#231F20" stroke-width="0.78" d="M354.473,292.334v26.324h65.866 M450.563,318.659h16.252"/>
	<polygon fill="none" stroke="#000000" stroke-width="0.78" points="450.563,319.264 450.597,293.584 420.371,293.532 
		420.338,319.206 	"/>
	<line fill="none" stroke="#000000" stroke-width="0.39" x1="420.124" y1="295.821" x2="450.389" y2="295.82"/>
	<g>
		<g>
			<defs>
				<rect id="SVGID_59_" x="-46.034" y="20.497" width="530.791" height="739.638"/>
			</defs>
			<clipPath id="SVGID_60_">
				<use xlink:href="#SVGID_59_"  overflow="visible"/>
			</clipPath>
			<path clip-path="url(#SVGID_60_)" fill="none" stroke="#231F20" stroke-width="0.65" d="M441.031,315.704
				c2.169-0.016,3.913-1.781,3.896-3.949c-0.018-2.176-1.785-3.92-3.954-3.904c-2.168,0.018-3.917,1.787-3.899,3.963
				C437.089,313.977,438.862,315.721,441.031,315.704z M429.256,315.793c2.171-0.018,3.915-1.787,3.896-3.953
				c-0.014-2.174-1.785-3.92-3.953-3.902c-2.171,0.014-3.917,1.785-3.899,3.961C425.314,314.065,427.087,315.809,429.256,315.793z
				 M440.951,305.02c2.169-0.018,3.913-1.794,3.896-3.961c-0.017-2.17-1.786-3.916-3.954-3.898
				c-2.167,0.019-3.918,1.789-3.902,3.957C437.007,303.282,438.784,305.034,440.951,305.02z M429.177,305.105
				c2.171-0.015,3.914-1.793,3.898-3.958c-0.018-2.174-1.786-3.917-3.957-3.9c-2.169,0.018-3.916,1.787-3.898,3.957
				C425.235,303.37,427.009,305.122,429.177,305.105z"/>
		</g>
	</g>
	<rect x="421.337" y="319.167" fill="none" stroke="#231F20" stroke-width="0.78" width="28.166" height="1.193"/>
	<line fill="none" stroke="#000000" stroke-width="0.975" x1="332.265" y1="223.109" x2="332.265" y2="288.542"/>
	
		<line fill="none" stroke="#000000" stroke-width="0.975" stroke-dasharray="2.139,2.139,2.139,2.139,2.139,2.139" stroke-dashoffset="4" x1="328.532" y1="288.109" x2="328.532" y2="221.809"/>
	<g>
		<g>
			<defs>
				<rect id="SVGID_61_" x="-46.034" y="20.497" width="530.791" height="739.638"/>
			</defs>
			<clipPath id="SVGID_62_">
				<use xlink:href="#SVGID_61_"  overflow="visible"/>
			</clipPath>
			<path clip-path="url(#SVGID_62_)" fill="none" stroke="#231F20" stroke-width="0.78" d="M484.19,31.359v46.8 M484.184,164.934
				v-46.15 M484.152,256.584v-44.958 M484.216,300.459v45.5 M484.15,385.825V433.6 M405.228,474.329h47.774 M340.064,474.334h45.825
				 M273.287,474.391h43.55 M204.864,474.403h50.7 M467.141,120.734v45.5 M205.839,461.659h44.85 M271.814,461.334h46.149
				 M339.089,461.334h45.5 M406.364,461.659h45.175 M467.141,212.384v44.525 M466.815,300.784v43.875 M466.49,385.61v48.424"/>
		</g>
		<g>
			<defs>
				<rect id="SVGID_63_" x="-46.034" y="20.497" width="530.791" height="739.638"/>
			</defs>
			<clipPath id="SVGID_64_">
				<use xlink:href="#SVGID_63_"  overflow="visible"/>
			</clipPath>
			<path clip-path="url(#SVGID_64_)" fill="#FFFFFF" d="M262.199,236.043c5.801,0,12.188,3.524,12.188,7.869
				c0,4.344-6.388,7.867-12.188,7.867c-5.803,0-8.821-3.522-8.821-7.867C253.378,239.567,256.397,236.043,262.199,236.043"/>
		</g>
		<g>
			<defs>
				<rect id="SVGID_65_" x="-46.034" y="20.497" width="530.791" height="739.638"/>
			</defs>
			<clipPath id="SVGID_66_">
				<use xlink:href="#SVGID_65_"  overflow="visible"/>
			</clipPath>
			<path clip-path="url(#SVGID_66_)" fill="none" stroke="#000000" stroke-width="0.78" d="M262.199,236.043
				c5.801,0,12.188,3.524,12.188,7.869c0,4.344-6.388,7.867-12.188,7.867c-5.803,0-8.821-3.522-8.821-7.867
				C253.378,239.567,256.397,236.043,262.199,236.043z"/>
		</g>
		<g>
			<defs>
				<rect id="SVGID_67_" x="-46.034" y="20.497" width="530.791" height="739.638"/>
			</defs>
			<clipPath id="SVGID_68_">
				<use xlink:href="#SVGID_67_"  overflow="visible"/>
			</clipPath>
			<path clip-path="url(#SVGID_68_)" fill="#FFFFFF" d="M255.28,248.622c0.325,0,0.591,0.266,0.591,0.59v2.756
				c0,0.324-0.266,0.591-0.591,0.591h-0.103c-0.324,0-0.59-0.267-0.59-0.591v-2.756c0-0.324,0.266-0.59,0.59-0.59H255.28z"/>
		</g>
		<g>
			<defs>
				<rect id="SVGID_69_" x="-46.034" y="20.497" width="530.791" height="739.638"/>
			</defs>
			<clipPath id="SVGID_70_">
				<use xlink:href="#SVGID_69_"  overflow="visible"/>
			</clipPath>
			<path clip-path="url(#SVGID_70_)" fill="none" stroke="#231F20" stroke-width="0.78" d="M255.28,248.622
				c0.325,0,0.591,0.266,0.591,0.59v2.756c0,0.324-0.266,0.591-0.591,0.591h-0.103c-0.324,0-0.59-0.267-0.59-0.591v-2.756
				c0-0.324,0.266-0.59,0.59-0.59H255.28z"/>
		</g>
		<g>
			<defs>
				<rect id="SVGID_71_" x="-46.034" y="20.497" width="530.791" height="739.638"/>
			</defs>
			<clipPath id="SVGID_72_">
				<use xlink:href="#SVGID_71_"  overflow="visible"/>
			</clipPath>
			<path clip-path="url(#SVGID_72_)" fill="#FFFFFF" d="M254.573,252.974c0,0.983-2.674,1.786-3.66,1.786
				c-0.988,0-3.662-0.803-3.662-1.786v-17.972c0-0.988,2.674-1.788,3.662-1.788c0.986,0,3.658,0.8,3.658,1.788L254.573,252.974z"/>
		</g>
		<g>
			<defs>
				<rect id="SVGID_73_" x="-46.034" y="20.497" width="530.791" height="739.638"/>
			</defs>
			<clipPath id="SVGID_74_">
				<use xlink:href="#SVGID_73_"  overflow="visible"/>
			</clipPath>
			<path clip-path="url(#SVGID_74_)" fill="none" stroke="#000000" stroke-width="0.78" d="M254.573,252.974
				c0,0.983-2.674,1.786-3.66,1.786c-0.988,0-3.662-0.803-3.662-1.786v-17.972c0-0.988,2.674-1.788,3.662-1.788
				c0.986,0,3.658,0.8,3.658,1.788L254.573,252.974z"/>
		</g>
		<g>
			<defs>
				<rect id="SVGID_75_" x="-46.034" y="20.497" width="530.791" height="739.638"/>
			</defs>
			<clipPath id="SVGID_76_">
				<use xlink:href="#SVGID_75_"  overflow="visible"/>
			</clipPath>
			<path clip-path="url(#SVGID_76_)" fill="#FFFFFF" d="M262.441,238.127c4.264,0,8.96,2.59,8.96,5.784
				c0,3.193-4.696,5.781-8.96,5.781c-4.263,0-6.48-2.588-6.48-5.781C255.96,240.717,258.179,238.127,262.441,238.127"/>
		</g>
		<g>
			<defs>
				<rect id="SVGID_77_" x="-46.034" y="20.497" width="530.791" height="739.638"/>
			</defs>
			<clipPath id="SVGID_78_">
				<use xlink:href="#SVGID_77_"  overflow="visible"/>
			</clipPath>
			<path clip-path="url(#SVGID_78_)" fill="none" stroke="#000000" stroke-width="0.65" d="M262.441,238.127
				c4.264,0,8.96,2.59,8.96,5.784c0,3.193-4.696,5.781-8.96,5.781c-4.263,0-6.48-2.588-6.48-5.781
				C255.96,240.717,258.179,238.127,262.441,238.127z"/>
		</g>
	</g>
	<polyline fill="none" stroke="#231F20" stroke-width="0.78" points="245.808,229.646 270.291,229.646 270.291,200.829 	"/>
	<g>
		<g>
			<defs>
				<rect id="SVGID_79_" x="-46.034" y="20.497" width="530.791" height="739.638"/>
			</defs>
			<clipPath id="SVGID_80_">
				<use xlink:href="#SVGID_79_"  overflow="visible"/>
			</clipPath>
			<circle clip-path="url(#SVGID_80_)" fill="none" stroke="#000000" stroke-width="0.52" cx="259.379" cy="215.257" r="1.189"/>
		</g>
		<g>
			<defs>
				<rect id="SVGID_81_" x="-46.034" y="20.497" width="530.791" height="739.638"/>
			</defs>
			<clipPath id="SVGID_82_">
				<use xlink:href="#SVGID_81_"  overflow="visible"/>
			</clipPath>
			<path clip-path="url(#SVGID_82_)" fill="none" stroke="#000000" stroke-width="0.65" d="M249.547,215.257
				c0,0.637,0.517,1.154,1.154,1.154c0.637,0,1.153-0.517,1.153-1.154c0-0.637-0.518-1.155-1.153-1.155
				C250.063,214.102,249.547,214.62,249.547,215.257z M252.03,215.788h4.717v-1.061h-4.717V215.788z M249.434,220.449h2.486v-10.385
				h-2.486V220.449L249.434,220.449z"/>
		</g>
	</g>
	<rect x="249.054" y="204.727" fill="none" stroke="#000000" stroke-width="0.78" width="19.073" height="21.059"/>
	<rect x="251.979" y="206.355" fill="none" stroke="#000000" stroke-width="0.585" width="14.52" height="17.759"/>
	<g>
		<g>
			<defs>
				<rect id="SVGID_83_" x="-46.034" y="20.497" width="530.791" height="739.638"/>
			</defs>
			<clipPath id="SVGID_84_">
				<use xlink:href="#SVGID_83_"  overflow="visible"/>
			</clipPath>
			<path clip-path="url(#SVGID_84_)" fill="none" stroke="#000000" stroke-width="0.975" d="M309.216,191.434
				c-15.914,0-28.818-12.845-28.818-28.762 M310.877,191.452h-1.661v-28.836h1.661V191.452z"/>
		</g>
	</g>
	<line fill="none" stroke="#000000" stroke-width="0.65" x1="317.733" y1="322.459" x2="353.483" y2="322.459"/>
	<rect x="330.435" y="324.586" fill="none" stroke="#000000" stroke-width="0.78" width="2.765" height="1.461"/>
	<rect x="317.95" y="294.497" fill="none" stroke="#000000" stroke-width="0.78" width="35.243" height="30.062"/>
	<rect x="339.13" y="324.586" fill="none" stroke="#000000" stroke-width="0.78" width="2.762" height="1.461"/>
	
		<line fill="none" stroke="#231F20" stroke-width="0.78" stroke-dasharray="1.878,1.878,1.878,1.878,1.878,1.878" stroke-dashoffset="3" x1="296.955" y1="79.458" x2="296.955" y2="39.087"/>
	
		<line fill="none" stroke="#231F20" stroke-width="0.78" stroke-dasharray="2.13,2.13,2.13,2.13,2.13,2.13" stroke-dashoffset="4" x1="300.15" y1="37.209" x2="358.734" y2="37.209"/>
	<path fill="none" stroke="#231F20" stroke-width="0.78" d="M359.799,37.208h1.064 M296.955,38.147v-0.939h1.064 M296.955,82.274
		v-0.938"/>
	<polyline fill="none" stroke="#000000" stroke-width="0.975" points="360.432,39.809 299.765,39.809 299.765,82.275 	"/>
	<g>
		<g>
			<defs>
				<rect id="SVGID_85_" x="-46.034" y="20.497" width="530.791" height="739.638"/>
			</defs>
			<clipPath id="SVGID_86_">
				<use xlink:href="#SVGID_85_"  overflow="visible"/>
			</clipPath>
			<path clip-path="url(#SVGID_86_)" fill="#FFFFFF" d="M385.73,297.715c0-1.008,0.83-1.842,1.843-1.842h22.406
				c1.011,0,1.837,0.83,1.837,1.842v15.758c0,1.016-0.826,1.844-1.837,1.844h-22.406c-1.013,0-1.843-0.828-1.843-1.844V297.715z"/>
		</g>
		<g>
			<defs>
				<rect id="SVGID_87_" x="-46.034" y="20.497" width="530.791" height="739.638"/>
			</defs>
			<clipPath id="SVGID_88_">
				<use xlink:href="#SVGID_87_"  overflow="visible"/>
			</clipPath>
			<path clip-path="url(#SVGID_88_)" fill="none" stroke="#231F20" stroke-width="0.78" d="M385.73,297.715
				c0-1.008,0.83-1.842,1.843-1.842h22.406c1.011,0,1.837,0.83,1.837,1.842v15.758c0,1.016-0.826,1.844-1.837,1.844h-22.406
				c-1.013,0-1.843-0.828-1.843-1.844V297.715z"/>
		</g>
		<g>
			<defs>
				<rect id="SVGID_89_" x="-46.034" y="20.497" width="530.791" height="739.638"/>
			</defs>
			<clipPath id="SVGID_90_">
				<use xlink:href="#SVGID_89_"  overflow="visible"/>
			</clipPath>
			<path clip-path="url(#SVGID_90_)" fill="#FFFFFF" d="M408.015,300.184c1.038,0.003,1.89,0.835,1.89,1.852v9.463
				c-0.004,1.016-0.852,1.85-1.89,1.85h-18.424c-1.037,0-1.886-0.836-1.886-1.85v-9.463c0-1.017,0.849-1.852,1.886-1.852H408.015z"
				/>
		</g>
		<g>
			<defs>
				<rect id="SVGID_91_" x="-46.034" y="20.497" width="530.791" height="739.638"/>
			</defs>
			<clipPath id="SVGID_92_">
				<use xlink:href="#SVGID_91_"  overflow="visible"/>
			</clipPath>
			<path clip-path="url(#SVGID_92_)" fill="none" stroke="#231F20" stroke-width="0.585" d="M408.015,300.184
				c1.038,0.003,1.89,0.835,1.89,1.852v9.463c-0.004,1.016-0.852,1.85-1.89,1.85h-18.424c-1.037,0-1.886-0.836-1.886-1.85v-9.463
				c0-1.017,0.849-1.852,1.886-1.852H408.015z"/>
		</g>
		<g>
			<defs>
				<rect id="SVGID_93_" x="-46.034" y="20.497" width="530.791" height="739.638"/>
			</defs>
			<clipPath id="SVGID_94_">
				<use xlink:href="#SVGID_93_"  overflow="visible"/>
			</clipPath>
			<path clip-path="url(#SVGID_94_)" fill="#FFFFFF" d="M397.206,306.981c0-0.764,0.622-1.387,1.39-1.387
				c0.77,0,1.384,0.623,1.384,1.387s-0.611,1.391-1.384,1.391C397.828,308.372,397.206,307.745,397.206,306.981"/>
		</g>
		<g>
			<defs>
				<rect id="SVGID_95_" x="-46.034" y="20.497" width="530.791" height="739.638"/>
			</defs>
			<clipPath id="SVGID_96_">
				<use xlink:href="#SVGID_95_"  overflow="visible"/>
			</clipPath>
			<path clip-path="url(#SVGID_96_)" fill="none" stroke="#231F20" stroke-width="0.52" d="M397.206,306.981
				c0-0.764,0.622-1.387,1.39-1.387c0.77,0,1.384,0.623,1.384,1.387s-0.611,1.391-1.384,1.391
				C397.828,308.372,397.206,307.745,397.206,306.981z"/>
		</g>
		<g>
			<defs>
				<rect id="SVGID_97_" x="-46.034" y="20.497" width="530.791" height="739.638"/>
			</defs>
			<clipPath id="SVGID_98_">
				<use xlink:href="#SVGID_97_"  overflow="visible"/>
			</clipPath>
			<path clip-path="url(#SVGID_98_)" fill="#FFFFFF" d="M393.618,297.979c0-0.74,0.601-1.424,1.341-1.424h7.312
				c0.74,0,1.341,0.684,1.341,1.424s-0.601,1.424-1.341,1.424h-7.312C394.219,299.402,393.618,298.719,393.618,297.979"/>
		</g>
		<g>
			<defs>
				<rect id="SVGID_99_" x="-46.034" y="20.497" width="530.791" height="739.638"/>
			</defs>
			<clipPath id="SVGID_100_">
				<use xlink:href="#SVGID_99_"  overflow="visible"/>
			</clipPath>
			<path clip-path="url(#SVGID_100_)" fill="none" stroke="#231F20" stroke-width="0.52" d="M393.618,297.979
				c0-0.74,0.601-1.424,1.341-1.424h7.312c0.74,0,1.341,0.684,1.341,1.424s-0.601,1.424-1.341,1.424h-7.312
				C394.219,299.402,393.618,298.719,393.618,297.979z"/>
		</g>
		<g>
			<defs>
				<rect id="SVGID_101_" x="-46.034" y="20.497" width="530.791" height="739.638"/>
			</defs>
			<clipPath id="SVGID_102_">
				<use xlink:href="#SVGID_101_"  overflow="visible"/>
			</clipPath>
			<path clip-path="url(#SVGID_102_)" fill="#FFFFFF" d="M393.132,305.756l6.272-6.814c0.35-0.398,0.312-0.998-0.088-1.35
				c-0.389-0.357-0.999-0.321-1.35,0.08l-5.99,7.062C391.698,305.061,392.846,306.071,393.132,305.756"/>
		</g>
		<g>
			<defs>
				<rect id="SVGID_103_" x="-46.034" y="20.497" width="530.791" height="739.638"/>
			</defs>
			<clipPath id="SVGID_104_">
				<use xlink:href="#SVGID_103_"  overflow="visible"/>
			</clipPath>
			<path clip-path="url(#SVGID_104_)" fill="none" stroke="#231F20" stroke-width="0.65" d="M393.132,305.756l6.272-6.814
				c0.35-0.398,0.312-0.998-0.088-1.35c-0.389-0.357-0.999-0.321-1.35,0.08l-5.99,7.062
				C391.698,305.061,392.846,306.071,393.132,305.756z"/>
		</g>
		<g>
			<defs>
				<rect id="SVGID_105_" x="-46.034" y="20.497" width="530.791" height="739.638"/>
			</defs>
			<clipPath id="SVGID_106_">
				<use xlink:href="#SVGID_105_"  overflow="visible"/>
			</clipPath>
			<path clip-path="url(#SVGID_106_)" fill="#FFFFFF" d="M399.408,301.348v-3.292c0-0.351-0.287-0.64-0.645-0.64
				c-0.351,0-0.632,0.289-0.632,0.64v3.292c0,0.357,0.281,0.643,0.635,0.643C399.12,301.989,399.408,301.706,399.408,301.348"/>
		</g>
		<g>
			<defs>
				<rect id="SVGID_107_" x="-46.034" y="20.497" width="530.791" height="739.638"/>
			</defs>
			<clipPath id="SVGID_108_">
				<use xlink:href="#SVGID_107_"  overflow="visible"/>
			</clipPath>
			<path clip-path="url(#SVGID_108_)" fill="none" stroke="#231F20" stroke-width="0.52" d="M399.408,301.348v-3.292
				c0-0.351-0.287-0.64-0.645-0.64c-0.351,0-0.632,0.289-0.632,0.64v3.292c0,0.357,0.281,0.643,0.635,0.643
				C399.12,301.989,399.408,301.706,399.408,301.348z"/>
		</g>
		<g>
			<defs>
				<rect id="SVGID_109_" x="-46.034" y="20.497" width="530.791" height="739.638"/>
			</defs>
			<clipPath id="SVGID_110_">
				<use xlink:href="#SVGID_109_"  overflow="visible"/>
			</clipPath>
			<path clip-path="url(#SVGID_110_)" fill="#FFFFFF" d="M400.792,298.103c0-0.423,0.348-0.767,0.771-0.767
				c0.423,0,0.764,0.344,0.764,0.767c0,0.416-0.341,0.765-0.768,0.765C401.137,298.868,400.792,298.522,400.792,298.103"/>
		</g>
		<g>
			<defs>
				<rect id="SVGID_111_" x="-46.034" y="20.497" width="530.791" height="739.638"/>
			</defs>
			<clipPath id="SVGID_112_">
				<use xlink:href="#SVGID_111_"  overflow="visible"/>
			</clipPath>
			<path clip-path="url(#SVGID_112_)" fill="none" stroke="#231F20" stroke-width="0.455" d="M400.792,298.103
				c0-0.423,0.348-0.767,0.771-0.767c0.423,0,0.764,0.344,0.764,0.767c0,0.416-0.341,0.765-0.768,0.765
				C401.137,298.868,400.792,298.522,400.792,298.103z"/>
		</g>
		<g>
			<defs>
				<rect id="SVGID_113_" x="-46.034" y="20.497" width="530.791" height="739.638"/>
			</defs>
			<clipPath id="SVGID_114_">
				<use xlink:href="#SVGID_113_"  overflow="visible"/>
			</clipPath>
			<path clip-path="url(#SVGID_114_)" fill="#FFFFFF" d="M394.894,298.034c0-0.423,0.349-0.767,0.772-0.767
				c0.421,0,0.764,0.344,0.764,0.767c0,0.418-0.343,0.764-0.767,0.764C395.238,298.797,394.894,298.454,394.894,298.034"/>
		</g>
		<g>
			<defs>
				<rect id="SVGID_115_" x="-46.034" y="20.497" width="530.791" height="739.638"/>
			</defs>
			<clipPath id="SVGID_116_">
				<use xlink:href="#SVGID_115_"  overflow="visible"/>
			</clipPath>
			<path clip-path="url(#SVGID_116_)" fill="none" stroke="#231F20" stroke-width="0.455" d="M394.894,298.034
				c0-0.423,0.349-0.767,0.772-0.767c0.421,0,0.764,0.344,0.764,0.767c0,0.418-0.343,0.764-0.767,0.764
				C395.238,298.797,394.894,298.454,394.894,298.034z"/>
		</g>
	</g>
	
		<line fill="none" stroke="#000000" stroke-width="0.65" stroke-dasharray="1.936,1.936,1.936,1.936,1.936,1.936" stroke-dashoffset="3" x1="357.422" y1="315.743" x2="357.422" y2="297.353"/>
	
		<line fill="none" stroke="#000000" stroke-width="0.65" stroke-dasharray="1.899,1.899,1.899,1.899,1.899,1.899" stroke-dashoffset="3" x1="360.271" y1="295.417" x2="378.307" y2="295.417"/>
	
		<line fill="none" stroke="#000000" stroke-width="0.65" stroke-dasharray="1.892,1.892,1.892,1.892,1.892,1.892" stroke-dashoffset="3" x1="380.205" y1="298.254" x2="380.205" y2="316.233"/>
	<path fill="none" stroke="#000000" stroke-width="0.65" d="M380.205,317.18v0.945 M379.256,295.417h0.949v0.945 M357.422,296.385
		v-0.969h0.949 M357.422,318.647v-0.969"/>
	<polyline fill="none" stroke="#000000" stroke-width="0.65" points="380.241,318.125 380.241,320.59 357.422,320.59 
		357.422,318.657 	"/>
	<rect x="322.732" y="116.748" fill="none" stroke="#000000" stroke-width="0.975" width="34.233" height="2.166"/>
	<polyline fill="#BBBDBF" points="187.18,96.143 187.18,460.04 204.626,460.04 204.626,472.801 178.514,472.801 178.677,95.276 	"/>
	<polyline fill="none" stroke="#231F20" stroke-width="3.9" points="187.18,96.143 187.18,460.04 204.626,460.04 204.626,472.801 
		178.514,472.801 178.677,95.276 	"/>
	<g>
		<g>
			<defs>
				<rect id="SVGID_117_" x="-46.034" y="20.497" width="530.791" height="739.638"/>
			</defs>
			<clipPath id="SVGID_118_">
				<use xlink:href="#SVGID_117_"  overflow="visible"/>
			</clipPath>
			<path clip-path="url(#SVGID_118_)" fill="none" stroke="#231F20" stroke-width="3.9" d="M477.181,30.709v49.4 M477.181,120.843
				v44.633 M477.181,209.459v47.125 M477.181,298.508v49.4 M477.181,384.526v46.799 M450.783,467.508h-45.065 M384.7,467.508
				h-45.717 M320.131,467.508H272.03 M251.34,467.508h-46.637"/>
		</g>
	</g>
	<path fill="none" stroke="#231F20" stroke-width="5.85" d="M176.778,95.849h18.338 M225.835,95.849h58.767"/>
	<g>
		<g>
			<defs>
				<rect id="SVGID_119_" x="-46.034" y="20.497" width="530.791" height="739.638"/>
			</defs>
			<clipPath id="SVGID_120_">
				<use xlink:href="#SVGID_119_"  overflow="visible"/>
			</clipPath>
			<path clip-path="url(#SVGID_120_)" fill="none" stroke="#231F20" stroke-width="5.2" d="M477.865,167.013H353.166
				 M324.466,167.013h-9.099"/>
		</g>
	</g>
	<path fill="none" stroke="#231F20" stroke-width="6.5" d="M343.314,288.109v-12.216 M343.314,245.534v-24.375h-26.649
		 M316.664,290.06V163.826l-6.076-0.022 M281.776,163.809l-39.764,0.074v126.476h228.053"/>
	<polygon fill="#BBBDBF" points="318.747,459.157 318.747,472.801 338.367,472.801 338.367,459.198 	"/>
	<polygon fill="none" stroke="#231F20" stroke-width="3.9" points="318.747,459.157 318.747,472.801 338.367,472.801 
		338.367,459.198 	"/>
	<polygon fill="#BBBDBF" points="251.468,459.157 251.468,472.801 271.703,472.801 271.703,459.198 	"/>
	<polygon fill="none" stroke="#231F20" stroke-width="3.9" points="251.468,459.157 251.468,472.801 271.703,472.801 
		271.703,459.198 	"/>
	<polygon fill="#BBBDBF" points="385.444,459.745 385.444,472.801 405.064,472.801 405.064,459.786 	"/>
	<polygon fill="none" stroke="#231F20" stroke-width="3.9" points="385.444,459.745 385.444,472.801 405.064,472.801 
		405.064,459.786 	"/>
	<polygon fill="#BBBDBF" points="482.71,31.171 465.231,31.171 465.31,22.707 482.788,22.707 	"/>
	<g>
		<g>
			<defs>
				<rect id="SVGID_121_" x="-46.034" y="20.497" width="530.791" height="739.638"/>
			</defs>
			<clipPath id="SVGID_122_">
				<use xlink:href="#SVGID_121_"  overflow="visible"/>
			</clipPath>
			<polygon clip-path="url(#SVGID_122_)" fill="none" stroke="#231F20" stroke-width="3.9" points="482.71,31.171 465.231,31.171 
				465.31,22.707 482.788,22.707 			"/>
		</g>
	</g>
	<polygon fill="#BBBDBF" points="482.632,119.599 465.319,119.599 465.319,86.485 469.309,86.49 469.309,77.998 482.632,77.998 	"/>
	<g>
		<g>
			<defs>
				<rect id="SVGID_123_" x="-46.034" y="20.497" width="530.791" height="739.638"/>
			</defs>
			<clipPath id="SVGID_124_">
				<use xlink:href="#SVGID_123_"  overflow="visible"/>
			</clipPath>
			<polygon clip-path="url(#SVGID_124_)" fill="none" stroke="#231F20" stroke-width="3.9" points="482.632,119.599 
				465.319,119.599 465.319,86.485 469.309,86.49 469.309,77.998 482.632,77.998 			"/>
		</g>
	</g>
	<rect x="465.319" y="166.319" fill="#BBBDBF" width="17.312" height="44.713"/>
	<g>
		<g>
			<defs>
				<rect id="SVGID_125_" x="-46.034" y="20.497" width="530.791" height="739.638"/>
			</defs>
			<clipPath id="SVGID_126_">
				<use xlink:href="#SVGID_125_"  overflow="visible"/>
			</clipPath>
			
				<rect x="465.319" y="166.319" clip-path="url(#SVGID_126_)" fill="none" stroke="#231F20" stroke-width="3.9" width="17.312" height="44.713"/>
		</g>
	</g>
	<rect x="465.319" y="257.32" fill="#BBBDBF" width="17.312" height="42.112"/>
	<g>
		<g>
			<defs>
				<rect id="SVGID_127_" x="-46.034" y="20.497" width="530.791" height="739.638"/>
			</defs>
			<clipPath id="SVGID_128_">
				<use xlink:href="#SVGID_127_"  overflow="visible"/>
			</clipPath>
			
				<rect x="465.319" y="257.32" clip-path="url(#SVGID_128_)" fill="none" stroke="#231F20" stroke-width="3.9" width="17.312" height="42.112"/>
		</g>
	</g>
	<rect x="465.319" y="345.502" fill="#BBBDBF" width="17.312" height="39.295"/>
	<g>
		<g>
			<defs>
				<rect id="SVGID_129_" x="-46.034" y="20.497" width="530.791" height="739.638"/>
			</defs>
			<clipPath id="SVGID_130_">
				<use xlink:href="#SVGID_129_"  overflow="visible"/>
			</clipPath>
			
				<rect x="465.319" y="345.502" clip-path="url(#SVGID_130_)" fill="none" stroke="#231F20" stroke-width="3.9" width="17.312" height="39.295"/>
		</g>
	</g>
	<polygon fill="#BBBDBF" points="465.851,433.081 465.851,460.235 452.696,460.235 452.696,472.801 482.631,472.801 
		482.631,433.018 	"/>
	<g>
		<g>
			<defs>
				<rect id="SVGID_131_" x="-46.034" y="20.497" width="530.791" height="739.638"/>
			</defs>
			<clipPath id="SVGID_132_">
				<use xlink:href="#SVGID_131_"  overflow="visible"/>
			</clipPath>
			<polygon clip-path="url(#SVGID_132_)" fill="none" stroke="#231F20" stroke-width="3.9" points="465.851,433.081 
				465.851,460.235 452.696,460.235 452.696,472.801 482.631,472.801 482.631,433.018 			"/>
		</g>
	</g>
	<path fill="none" stroke="#231F20" stroke-width="6.5" d="M242.134,259.274h9.547v28.837 M243,197.92H272.9 M313.633,290.711
		v37.268"/>
	<g>
		<g>
			<defs>
				<rect id="SVGID_133_" x="-46.034" y="20.497" width="530.791" height="739.638"/>
			</defs>
			<clipPath id="SVGID_134_">
				<use xlink:href="#SVGID_133_"  overflow="visible"/>
			</clipPath>
			<path clip-path="url(#SVGID_134_)" fill="none" stroke="#231F20" stroke-width="5.85" d="M324.035,117.81h-37.268V23.777H464.43
				 M353.501,117.81h9.534"/>
		</g>
		<g>
			<defs>
				<rect id="SVGID_135_" x="-46.034" y="20.497" width="530.791" height="739.638"/>
			</defs>
			<clipPath id="SVGID_136_">
				<use xlink:href="#SVGID_135_"  overflow="visible"/>
			</clipPath>
			<path clip-path="url(#SVGID_136_)" fill="none" stroke="#231F20" stroke-width="6.5" d="M288.501,84.877h74.562l-0.027,43.767
				 M363.034,23.777v23.832 M363.034,158.194v10.316"/>
		</g>
	</g>
	<rect x="242.135" y="259.274" fill="#BBBDBF" width="9.097" height="30.566"/>
	<rect x="242.135" y="259.274" fill="none" stroke="#231F20" stroke-width="3.9" width="9.097" height="30.566"/>
	
		<line fill="none" stroke="#231F20" stroke-width="3.9" stroke-dasharray="5.952,1.952,5.952,1.952,5.952,1.952" stroke-dashoffset="7" x1="189.805" y1="98.753" x2="189.805" y2="460.379"/>
	<rect x="228.582" y="465.938" fill="#FFFFFF" width="18.581" height="3.162"/>
	<rect x="228.582" y="465.938" fill="none" stroke="#000000" stroke-width="0.78" width="18.581" height="3.162"/>
	<line fill="none" stroke="#000000" stroke-width="0.78" x1="228.582" y1="467.59" x2="247.054" y2="467.59"/>
	<rect x="209.463" y="465.938" fill="#FFFFFF" width="19.067" height="3.162"/>
	<rect x="209.463" y="465.938" fill="none" stroke="#000000" stroke-width="0.78" width="19.067" height="3.162"/>
	<line fill="none" stroke="#000000" stroke-width="0.78" x1="209.463" y1="467.59" x2="228.53" y2="467.59"/>
	<rect x="296.007" y="465.911" fill="#FFFFFF" width="18.581" height="3.164"/>
	<rect x="296.007" y="465.911" fill="none" stroke="#000000" stroke-width="0.78" width="18.581" height="3.164"/>
	<line fill="none" stroke="#000000" stroke-width="0.78" x1="296.007" y1="467.563" x2="314.479" y2="467.563"/>
	<rect x="276.888" y="465.911" fill="#FFFFFF" width="19.068" height="3.164"/>
	<rect x="276.888" y="465.911" fill="none" stroke="#000000" stroke-width="0.78" width="19.068" height="3.164"/>
	<line fill="none" stroke="#000000" stroke-width="0.78" x1="276.888" y1="467.563" x2="295.956" y2="467.563"/>
	<rect x="362.078" y="465.938" fill="#FFFFFF" width="18.581" height="3.162"/>
	<rect x="362.078" y="465.938" fill="none" stroke="#000000" stroke-width="0.78" width="18.581" height="3.162"/>
	<line fill="none" stroke="#000000" stroke-width="0.78" x1="362.078" y1="467.59" x2="380.55" y2="467.59"/>
	<rect x="342.96" y="465.938" fill="#FFFFFF" width="19.067" height="3.162"/>
	<rect x="342.96" y="465.938" fill="none" stroke="#000000" stroke-width="0.78" width="19.067" height="3.162"/>
	<line fill="none" stroke="#000000" stroke-width="0.78" x1="342.959" y1="467.59" x2="362.027" y2="467.59"/>
	<rect x="428.573" y="465.911" fill="#FFFFFF" width="18.581" height="3.164"/>
	<rect x="428.573" y="465.911" fill="none" stroke="#000000" stroke-width="0.78" width="18.581" height="3.164"/>
	<line fill="none" stroke="#000000" stroke-width="0.78" x1="428.573" y1="467.563" x2="447.046" y2="467.563"/>
	<rect x="409.454" y="465.911" fill="#FFFFFF" width="19.067" height="3.164"/>
	<rect x="409.454" y="465.911" fill="none" stroke="#000000" stroke-width="0.78" width="19.067" height="3.164"/>
	<line fill="none" stroke="#000000" stroke-width="0.78" x1="409.454" y1="467.563" x2="428.522" y2="467.563"/>
	<rect x="475.586" y="389.838" fill="#FFFFFF" width="3.163" height="18.58"/>
	<rect x="475.586" y="389.838" fill="none" stroke="#000000" stroke-width="0.78" width="3.163" height="18.58"/>
	<line fill="none" stroke="#000000" stroke-width="0.78" x1="477.238" y1="408.418" x2="477.238" y2="389.946"/>
	<rect x="475.586" y="408.469" fill="#FFFFFF" width="3.163" height="19.068"/>
	<rect x="475.586" y="408.469" fill="none" stroke="#000000" stroke-width="0.78" width="3.163" height="19.068"/>
	<line fill="none" stroke="#000000" stroke-width="0.78" x1="477.238" y1="427.538" x2="477.238" y2="408.469"/>
	<rect x="475.586" y="303.312" fill="#FFFFFF" width="3.163" height="18.581"/>
	<rect x="475.586" y="303.312" fill="none" stroke="#000000" stroke-width="0.78" width="3.163" height="18.581"/>
	<line fill="none" stroke="#000000" stroke-width="0.78" x1="477.238" y1="321.893" x2="477.238" y2="303.42"/>
	<rect x="475.586" y="321.944" fill="#FFFFFF" width="3.163" height="19.066"/>
	<rect x="475.586" y="321.944" fill="none" stroke="#000000" stroke-width="0.78" width="3.163" height="19.066"/>
	<line fill="none" stroke="#000000" stroke-width="0.78" x1="477.238" y1="341.012" x2="477.238" y2="321.944"/>
	<rect x="475.586" y="215.562" fill="#FFFFFF" width="3.163" height="18.581"/>
	<rect x="475.586" y="215.562" fill="none" stroke="#000000" stroke-width="0.78" width="3.163" height="18.581"/>
	<line fill="none" stroke="#000000" stroke-width="0.78" x1="477.238" y1="234.142" x2="477.238" y2="215.67"/>
	<rect x="475.586" y="234.193" fill="#FFFFFF" width="3.163" height="19.067"/>
	<rect x="475.586" y="234.193" fill="none" stroke="#000000" stroke-width="0.78" width="3.163" height="19.067"/>
	<line fill="none" stroke="#000000" stroke-width="0.78" x1="477.238" y1="253.262" x2="477.238" y2="234.193"/>
	<rect x="475.586" y="124.31" fill="#FFFFFF" width="3.163" height="18.581"/>
	<rect x="475.586" y="124.31" fill="none" stroke="#000000" stroke-width="0.78" width="3.163" height="18.581"/>
	<line fill="none" stroke="#000000" stroke-width="0.78" x1="477.238" y1="142.891" x2="477.238" y2="124.419"/>
	<rect x="475.586" y="142.942" fill="#FFFFFF" width="3.163" height="19.068"/>
	<rect x="475.586" y="142.942" fill="none" stroke="#000000" stroke-width="0.78" width="3.163" height="19.068"/>
	<line fill="none" stroke="#000000" stroke-width="0.78" x1="477.238" y1="162.01" x2="477.238" y2="142.942"/>
	<rect x="475.586" y="36.235" fill="#FFFFFF" width="3.163" height="18.581"/>
	<rect x="475.586" y="36.235" fill="none" stroke="#000000" stroke-width="0.78" width="3.163" height="18.581"/>
	<line fill="none" stroke="#000000" stroke-width="0.78" x1="477.238" y1="54.816" x2="477.238" y2="36.344"/>
	<rect x="475.586" y="54.867" fill="#FFFFFF" width="3.163" height="19.068"/>
	<rect x="475.586" y="54.867" fill="none" stroke="#000000" stroke-width="0.78" width="3.163" height="19.068"/>
	<line fill="none" stroke="#000000" stroke-width="0.78" x1="477.238" y1="73.935" x2="477.238" y2="54.867"/>
</g>
<g id="Layer_3">
</g>
<g id="_x32_03">
</g>
<g id="_x32_06">
</g>
<g>
	<g>
		<defs>
			<rect id="SVGID_137_" x="44.492" y="120.46" width="100.145" height="4.562"/>
		</defs>
		<clipPath id="SVGID_138_">
			<use xlink:href="#SVGID_137_"  overflow="visible"/>
		</clipPath>
		<path clip-path="url(#SVGID_138_)" fill="#231F20" d="M144.635,120.837v-0.301h-3.402v0.301h1.537v4.109h0.328v-4.109H144.635z
			 M138.844,124.946v-0.303h-2.842v-1.771h2.525v-0.303h-2.525v-1.732h2.811v-0.303h-3.139v4.41h3.17V124.946z M132.969,124.946
			v-0.303h-2.84v-1.771h2.525v-0.303h-2.525v-1.732h2.809v-0.303h-3.137v4.41h3.168V124.946z M126.692,121.813
			c0,0.637-0.547,1.01-1.283,1.01h-1.486v-1.986h1.506c0.799,0,1.266,0.373,1.266,0.965v0.012H126.692z M127.184,124.946
			l-1.455-1.885c0.744-0.102,1.291-0.523,1.291-1.26v-0.014c0-0.736-0.623-1.254-1.574-1.254h-1.852v4.41h0.326v-1.826h1.443
			l1.404,1.826h0.416V124.946z M120.944,120.837v-0.301h-3.4v0.301h1.539v4.109h0.326v-4.109H120.944z M115.221,123.806v-0.014
			c0-0.643-0.428-1.008-1.449-1.215c-1.045-0.215-1.285-0.498-1.285-0.965v-0.012c0-0.461,0.43-0.834,1.078-0.834
			c0.484,0,0.9,0.141,1.316,0.5l0.209-0.26c-0.449-0.359-0.871-0.535-1.514-0.535c-0.818,0-1.418,0.504-1.418,1.16v0.012
			c0,0.668,0.43,1.027,1.488,1.242c1.002,0.199,1.246,0.471,1.246,0.938v0.012c0,0.506-0.453,0.877-1.115,0.877
			c-0.648,0-1.096-0.207-1.58-0.654l-0.215,0.244c0.529,0.475,1.07,0.707,1.775,0.707
			C114.61,125.009,115.221,124.517,115.221,123.806 M104.059,124.946v-4.41h-0.312v3.836l-3.043-3.836h-0.311v4.41h0.316v-3.92
			l3.104,3.92H104.059z M97.285,122.755c0,1.088-0.781,1.971-1.871,1.971s-1.885-0.895-1.885-1.984v-0.014
			c0-1.09,0.781-1.971,1.871-1.971s1.883,0.895,1.883,1.984v0.014H97.285z M97.627,122.741c0.006-0.006,0.006-0.006,0-0.014
			c0-1.203-0.877-2.27-2.213-2.27c-1.334,0-2.225,1.078-2.225,2.281v0.014c0,1.203,0.877,2.268,2.213,2.268
			C96.737,125.021,97.627,123.944,97.627,122.741 M91.084,120.837v-0.301h-3.402v0.301h1.538v4.109h0.327v-4.109H91.084z
			 M85.285,124.36v-1.701h-1.789v0.301h1.474v1.268c-0.321,0.271-0.844,0.504-1.405,0.504c-1.178,0-1.89-0.85-1.89-1.99v-0.014
			c0-1.062,0.75-1.971,1.821-1.971c0.668,0,1.07,0.225,1.418,0.529l0.214-0.246c-0.441-0.365-0.896-0.58-1.613-0.58
			c-1.316,0-2.18,1.09-2.18,2.281v0.014c0,1.24,0.825,2.268,2.218,2.268C84.272,125.021,84.888,124.714,85.285,124.36
			 M78.568,124.946v-4.41h-0.314v3.836l-3.043-3.836h-0.309v4.41h0.315v-3.92l3.104,3.92H78.568z M71.893,120.536h-0.328v4.41h0.328
			V120.536z M68.558,124.946v-4.41h-0.327v2.041h-2.822v-2.041h-0.327v4.41h0.327v-2.066h2.822v2.066H68.558z M62.35,123.806v-0.014
			c0-0.643-0.428-1.008-1.449-1.215c-1.045-0.215-1.284-0.498-1.284-0.965v-0.012c0-0.461,0.429-0.834,1.076-0.834
			c0.486,0,0.901,0.141,1.317,0.5l0.208-0.26c-0.447-0.359-0.869-0.535-1.512-0.535c-0.819,0-1.417,0.504-1.417,1.16v0.012
			c0,0.668,0.428,1.027,1.485,1.242c1.002,0.199,1.248,0.471,1.248,0.938v0.012c0,0.506-0.454,0.877-1.114,0.877
			c-0.649,0-1.098-0.207-1.582-0.654l-0.215,0.244c0.529,0.475,1.071,0.707,1.777,0.707C61.739,125.009,62.35,124.517,62.35,123.806
			 M55.846,123.415h-2.325l1.166-2.551L55.846,123.415z M56.905,124.946l-2.054-4.441h-0.314l-2.054,4.441h0.341l0.56-1.236h2.602
			l0.562,1.236H56.905z M50.804,120.536h-0.34l-1.386,3.924l-1.292-3.938h-0.252l-1.291,3.938l-1.387-3.924h-0.365l1.601,4.439
			h0.264l1.292-3.83l1.291,3.83h0.266L50.804,120.536z"/>
	</g>
</g>
</svg>
