<svg xmlns="http://www.w3.org/2000/svg" width="513.359" height="495.36" xmlns:xlink="http://www.w3.org/1999/xlink"><g><path fill="#fff" d="M78.56 47.74h33.15v44.2H78.57zM111.7 47.74h33.15v44.2H111.7zM144 99.6v-7.66h-23.8v7.65h-8.5v41.64h33.15V99.6zM78.56 98.74h-20.4v22.1H45.4v20.4h33.16zM77.7 98.74v42.5h34v-17h-6.8v-13.6H88.75V97.9z"/><path fill="#BBBDBF" d="M45.4 46.9v28.04H59.86v10.2h4.25v6.8h13.6V46.9z"/><defs><path id="a" d="M-45.03 46.03h526.58V773.9h-526.6z"/></defs><clipPath id="b"><use xlink:href="#a" overflow="visible"/></clipPath><path fill="none" stroke="#262626" stroke-width="2.053" stroke-miterlimit="10" d="M144.88 141.47H45.16v-94.3h99.72z" clip-path="url(#b)"/><defs><path id="c" d="M-45.03 46.03h526.58V773.9h-526.6z"/></defs><clipPath id="d"><use xlink:href="#c" overflow="visible"/></clipPath><path fill="none" stroke="#262626" stroke-width="1.173" stroke-miterlimit="10" d="M58.5 99.1h61.45v-7.34M48.82 84.7h11.3m-11.6 7.94h9.98v.87m0 3.24v24.2H46.04m-.88-28.3h3.37V74.6H60.1v10.55h3.97v6.9h81.1m-66.87 49.7v-43m33.3 43v-43m0-7.3V47.84M78.14 91.46V47.83" clip-path="url(#d)"/><defs><path id="e" d="M-45.03 46.03h526.58V773.9h-526.6z"/></defs><clipPath id="f"><use xlink:href="#e" overflow="visible"/></clipPath><path fill="none" stroke="#000" stroke-width=".425" d="M55.15 93.44c0 1.8 1.46 3.25 3.25 3.25m-3.25-3.26h3.25v-.2h-3.25v.2zm55.05 8.8c-1.8 0-3.26-1.45-3.26-3.25m3.44 3.24h-.18V99h.18v3.24zm-33.23-.07c-1.8 0-3.25-1.46-3.25-3.26m3.43 3.27h-.18v-3.25h.18v3.25zm35.72.07c1.8 0 3.25-1.45 3.25-3.25m-3.44 3.24h.2V99h-.2v3.24zm-32.5-.07c1.8 0 3.25-1.46 3.25-3.26m-3.43 3.27h.2v-3.25h-.2v3.25zm33.5-13.53c1.8 0 3.24 1.45 3.24 3.25m-3.42-3.27h.18v3.26h-.18v-3.27zm-18.8-.1c-1.8 0-3.24 1.45-3.24 3.25m3.44-3.25h-.2v3.25h.2v-3.25zM67.52 90.8c0-1.8-1.45-3.26-3.25-3.26m3.25 3.25h-3.25v.18h3.25v-.2z" clip-path="url(#f)"/><path fill="none" stroke="#000" stroke-width=".452" d="M49.1 107.9h8.97m-12.22 1.18h12.22m-12.23 1.2h12.2m-12.16 1.2H58.1m-12.18 1.2h12.2m-12.2 1.2h12.2m-12.18 1.25H58.1"/><path fill="none" stroke="#000" stroke-width=".425" d="M45.88 110.64l3.67-2.7-.2-.55.93.86-.26-.64 1.77-1.07m-6.25-6.62h6.38m-6.38 1.2h6.38m-6.38 1.2h6.38m-6.38 1.2h6.38m-6.38 1.2h6.38m-6.38 1.2h6.32m-6.44 1.2h5.47m-5.12.94h3.56"/><path fill="none" stroke="#000" stroke-width=".452" d="M51.36 106.7h6.76"/><path fill="none" stroke="#000" stroke-width=".425" d="M94.2 98.93l.92 2.88.58-.03-1.07.68.68-.1.62 2.13m7.4-5v4.97m-1.2-4.98v4.98m-1.2-4.98v4.98m-1.2-4.98v4.98m-1.18-4.98v4.9m-1.2-4.9v4.9m-1.2-4.9v4.9m-1.2-4.9v1.65"/><path fill="#fff" d="M92.38 105.2h11.3v-.6h-11.3v.6zm11.58.28H92.08v-1.17h11.88v1.18z"/><path fill="none" stroke="#262626" stroke-width=".425" d="M92.38 105.2h11.3v-.6h-11.3v.6zm11.58.28H92.08v-1.17h11.88v1.18z"/><path fill="#fff" d="M52.1 115.4h.6v-15.34h-.6v15.33zm-.28-15.74H53v16.13h-1.18V99.65z"/><path fill="none" stroke="#262626" stroke-width=".495" d="M52.1 115.4h.6v-15.34h-.6v15.33zm-.28-15.74H53v16.13h-1.18V99.65z"/><path fill="none" stroke="#000" stroke-width=".425" d="M94.84 102.45v1.93m-1.2-4.9v4.9m-1.2-4.9v4.9m2.35 1.15v4.9m-1.2-4.9v4.9m-1.2-4.9v4.9m11.03-4.92v5m-1.2-5v5m-1.2-5v5m-1.32-5v5m-1.2-5v4.9m-1.2-4.9v4.9m-1.2-4.9v4.9"/><path fill="none" stroke="#262626" stroke-width="1.173" stroke-miterlimit="10" d="M104.7 104.66v6.45m-16.43-12v11.28h16.43v13.2h6.74"/><path fill="none" stroke="#000" stroke-width=".442" d="M104.94 110.14h6.3m-6.3 1.2h6.3m-6.3 1.2h6.3m-6.3 1.2h6.3m-6.3 1.2h6.3m-6.3 1.18h6.3m-6.3 1.2h6.3m-6.3 1.2h6.3m-6.3 1.2h6.3m-6.3 1.2h6.3m-6.3 1.2h6.3"/><path d="M56.6 77.65h-3.36v1.54h2.98v.93h-2.98v1.6h3.4v.93H52.2V76.7h4.4v.95z"/><defs><path id="g" d="M-45.03 46.03h526.58V773.9h-526.6z"/></defs><clipPath><use xlink:href="#g" overflow="visible"/></clipPath><defs><path id="h" d="M-45.03 46.03h526.58V773.9h-526.6z"/></defs><clipPath id="i"><use xlink:href="#h" overflow="visible"/></clipPath><path fill="#231F20" d="M421.1 302.34l-2.95-3.73h-.5v4.66h.52v-3.8l3 3.8h.43v-4.65h-.5v3.74zm-4.53-3.73h-3.36v4.66h3.4v-.48h-2.87v-1.63h2.54v-.48h-2.54v-1.58h2.84v-.5zm-5.2 2.57v2.1h.52v-4.66h-.54v2.08h-2.68v-2.07h-.53v4.66h.53v-2.1h2.68zm-4.13 1.35l-.35-.34c-.46.43-.88.68-1.5.68-1.04 0-1.82-.85-1.82-1.93s.77-1.92 1.8-1.92c.64 0 1.08.28 1.47.65l.36-.38c-.46-.44-.96-.74-1.8-.74-1.38 0-2.36 1.08-2.36 2.4 0 1.36 1 2.4 2.33 2.4.85 0 1.38-.3 1.87-.8m-6.22-3.44h1.56v-.5h-3.66v.5h1.57v4.16h.52v-4.17zm-3.65 4.16h.52v-4.65h-.53v4.66zm-2.95-2.62l2-2.03h-.68l-2.68 2.8v-2.8h-.52v4.66h.52V302l1-1 1.78 2.26h.66l-2.08-2.62z" clip-path="url(#i)"/><defs><path id="j" d="M-45.03 46.03h526.58V773.9h-526.6z"/></defs><clipPath id="k"><use xlink:href="#j" overflow="visible"/></clipPath><path fill="#231F20" d="M423.84 388.22v1.56h.48v-3.65h-.48v1.56h-4.17v.52h4.17zm.48-2.85V382h-4.65v3.4h.48v-2.87h1.63v2.54h.48v-2.54h1.58v2.84h.48zm-1.16-7.22c.42 0 .75.4.75 1 0 .47-.14.9-.5 1.34l.4.3c.4-.48.6-.96.6-1.64 0-.9-.55-1.53-1.3-1.53-.76 0-1.1.5-1.34 1.56-.2.97-.45 1.2-.9 1.2-.47 0-.8-.4-.8-1.04s.23-1.1.67-1.6l-.4-.32c-.5.56-.73 1.16-.73 1.9 0 .93.52 1.6 1.32 1.6.72 0 1.1-.5 1.32-1.53.23-1 .47-1.25.92-1.25m-1.17-2.03c-1.08 0-1.93-.75-1.93-1.82 0-1.06.87-1.83 1.93-1.83s1.92.75 1.92 1.82-.87 1.82-1.93 1.82m0 .55c1.3 0 2.4-.95 2.4-2.37s-1.12-2.38-2.4-2.38c-1.3 0-2.4.95-2.4 2.37s1.1 2.37 2.4 2.37m-2.33-8.4v3.15h.48v-2.62h4.17v-.52h-4.65zm.73-.9l.34-.36c-.42-.43-.67-.85-.67-1.5 0-1.02.85-1.8 1.93-1.8s1.92.78 1.92 1.8c0 .64-.27 1.08-.64 1.47l.38.36c.44-.47.74-.97.74-1.8 0-1.38-1.08-2.37-2.4-2.37-1.36 0-2.4 1-2.4 2.34 0 .84.3 1.37.8 1.86" clip-path="url(#k)"/><defs><path id="l" d="M-45.03 46.03h526.58V773.9h-526.6z"/></defs><clipPath id="m"><use xlink:href="#l" overflow="visible"/></clipPath><path fill="#231F20" d="M291.42 231.5v2.08h.52v-4.65h-.52V231h-2.7v-2.07h-.5v4.65h.5v-2.1h2.7zm-5.76-2.1h1.56v-.47h-3.66v.48h1.57v4.18h.53v-4.17zm-3.4 2.48h-2.12l1.06-2.37 1.06 2.38zm-.8-2.98h-.5l-2.12 4.68h.54l.55-1.23h2.54l.54 1.23h.58l-2.12-4.68zm-4.94 4.2h-1.56v-1.63h1.47c.8 0 1.24.3 1.24.8 0 .53-.44.84-1.15.84m-.18-2.1h-1.38v-1.6h1.42c.66 0 1.03.3 1.03.77 0 .55-.43.83-1.06.83m.08-2.07h-1.98v4.65h2.07c1.03 0 1.7-.47 1.7-1.27 0-.64-.45-.96-1-1.12.37-.16.74-.47.74-1.1 0-.7-.6-1.15-1.52-1.15" clip-path="url(#m)"/><defs><path id="n" d="M-45.03 46.03h526.58V773.9h-526.6z"/></defs><clipPath id="o"><use xlink:href="#n" overflow="visible"/></clipPath><path fill="#231F20" d="M449.05 427.7h-.87v1h.87v-1zm-2.8-1.1v2.1h.53v-4.65h-.52v2.07h-2.7v-2.07h-.5v4.65h.5v-2.1h2.7zm-4.12 1.36l-.35-.34c-.44.43-.86.68-1.5.68-1.02 0-1.8-.85-1.8-1.93s.77-1.92 1.8-1.92c.63 0 1.07.27 1.46.64l.36-.4c-.46-.43-.97-.73-1.8-.73-1.38 0-2.37 1.08-2.37 2.4 0 1.36 1 2.4 2.34 2.4.84 0 1.38-.3 1.86-.8m-5.08-3.92h-3.36v4.65h3.38v-.48h-2.87v-1.63h2.55v-.48h-2.54v-1.6h2.85v-.47zm-5.2.88v3.77h.52v-4.65h-.53l-1.7 2.54-1.7-2.55h-.53v4.65h.53v-3.76l1.7 2.5h.02l1.7-2.5z" clip-path="url(#o)"/><defs><path id="p" d="M-45.03 46.03h526.58V773.9h-526.6z"/></defs><clipPath id="q"><use xlink:href="#p" overflow="visible"/></clipPath><path fill="#231F20" d="M330.65 228.04c-1.03 0-1.83-.75-1.83-1.93v-1.08h3.68v1.1c0 1.17-.8 1.92-1.85 1.92m.02.55c1.3 0 2.32-1.02 2.32-2.5v-1.6h-4.67v1.6c0 1.48 1.02 2.5 2.34 2.5m-2.34-5.48h1v-.88h-1v.88zm.78-5.82l3.9-1.33v-.57l-4.7 1.66v.44l3.78 1.28-3.78 1.28v.45l4.7 1.67v-.55l-3.9-1.33 3.9-1.3v-.42l-3.9-1.28z" clip-path="url(#q)"/><defs><path id="r" d="M-45.03 46.03h526.58V773.9h-526.6z"/></defs><clipPath id="s"><use xlink:href="#r" overflow="visible"/></clipPath><path fill="#231F20" d="M409.1 138.2V142h.52v-4.66h-.53l-1.7 2.54-1.7-2.54h-.53v4.66h.5v-3.77l1.7 2.5h.03l1.7-2.5zm-5.6 1.45c0 1.07-.74 1.92-1.8 1.92s-1.84-.87-1.84-1.93.76-1.9 1.82-1.9 1.83.85 1.83 1.9m.56 0c0-1.3-.95-2.4-2.37-2.4-1.42 0-2.4 1.12-2.4 2.4 0 1.3.96 2.42 2.38 2.42s2.38-1.13 2.38-2.42m-6.2 0c0 1.08-.76 1.93-1.82 1.93s-1.84-.87-1.84-1.93.76-1.9 1.83-1.9c1.06 0 1.83.85 1.83 1.9m.55 0c0-1.3-.94-2.4-2.36-2.4s-2.38 1.12-2.38 2.4c0 1.3.95 2.42 2.37 2.42 1.4 0 2.38-1.13 2.38-2.42m-6.2-.9c0 .6-.5.95-1.2.95h-1.42v-1.9h1.44c.75 0 1.2.35 1.2.93m.7 3.25l-1.44-1.9c.73-.14 1.26-.6 1.26-1.37 0-.83-.66-1.38-1.68-1.38h-2v4.66h.52v-1.8h1.33l1.36 1.8h.65z" clip-path="url(#s)"/><defs><path id="t" d="M-45.03 46.03h526.58V773.9h-526.6z"/></defs><clipPath id="u"><use xlink:href="#t" overflow="visible"/></clipPath><path fill="#231F20" d="M424.93 132.84V131H423v.46h1.42v1.16c-.32.26-.8.46-1.34.46-1.13 0-1.85-.82-1.85-1.94 0-1.04.74-1.9 1.77-1.9.66 0 1.06.2 1.42.52l.34-.4c-.47-.4-.95-.62-1.74-.62-1.4 0-2.33 1.13-2.33 2.4 0 1.35.9 2.42 2.36 2.42.78 0 1.43-.33 1.87-.72m-5.86-.3l-2.94-3.72h-.5v4.66h.52v-3.82l3 3.8h.43v-4.64h-.5v3.73zm-5.32.94h.53v-4.66h-.53v4.66zm-3.2-.65l-1.64-4h-.58l2 4.68h.47l2-4.68h-.57l-1.67 4zm-3.72.65h.53v-4.66h-.53v4.66zm-4.16 0h3.14v-.5h-2.6v-4.16h-.53v4.66zm-2.33-1h-.87v1h.87v-1zm-2.85.36V131h-1.93v.46H397v1.16c-.33.26-.82.46-1.35.46-1.13 0-1.85-.82-1.85-1.94 0-1.04.74-1.9 1.77-1.9.66 0 1.06.2 1.42.52l.33-.4c-.47-.4-.95-.62-1.74-.62-1.4 0-2.34 1.13-2.34 2.4 0 1.35.9 2.42 2.37 2.42.78 0 1.43-.33 1.86-.72m-5.86-.3l-2.94-3.72h-.5v4.66h.52v-3.82l3 3.8h.43v-4.64h-.5v3.73zm-5.32.94h.53v-4.66h-.53v4.66zm-1.87-.93l-2.93-3.73h-.5v4.66h.52v-3.82l3 3.8h.42v-4.64h-.5v3.73zm-5.3.93h.5v-4.66h-.5v4.66zm-1.72-2.33c0 1.04-.75 1.84-1.93 1.84h-1.1v-3.7h1.1c1.18 0 1.93.82 1.93 1.85m.55 0c0-1.33-1-2.33-2.48-2.33h-1.6v4.66h1.6c1.47 0 2.48-1.02 2.48-2.34" clip-path="url(#u)"/><defs><path id="v" d="M-45.03 46.03h526.58V773.9h-526.6z"/></defs><clipPath id="w"><use xlink:href="#v" overflow="visible"/></clipPath><path fill="#231F20" d="M344.03 363.17h-3.35v4.65h.53v-2.02h2.53v-.48h-2.52v-1.67h2.82v-.48zm-4.44 0h-3.37v4.65h3.4v-.48h-2.88v-1.63h2.54v-.46h-2.55v-1.6h2.84v-.47zm-5.03 1.4c0 .6-.5.97-1.2.97h-1.43v-1.9h1.44c.75 0 1.2.36 1.2.94m.7 3.24l-1.44-1.9c.73-.13 1.26-.58 1.26-1.36 0-.84-.66-1.4-1.68-1.4h-2v4.66h.52v-1.8h1.33l1.35 1.8h.65z" clip-path="url(#w)"/><defs><path id="x" d="M-45.03 46.03h526.58V773.9h-526.6z"/></defs><clipPath id="y"><use xlink:href="#x" overflow="visible"/></clipPath><path fill="#231F20" d="M336.57 333.45l-1.33-3.88h-.57l1.66 4.7h.44l1.3-3.8 1.26 3.8h.45l1.66-4.7h-.55l-1.34 3.88-1.28-3.9h-.43l-1.28 3.9zm-2.96-1.54c0 1.04-.74 1.84-1.92 1.84h-1.1v-3.68h1.1c1.18 0 1.93.8 1.93 1.85m.56 0c0-1.32-1-2.33-2.48-2.33h-1.6v4.66h1.6c1.47 0 2.48-1.02 2.48-2.34" clip-path="url(#y)"/><path fill="#BBBDBF" d="M442.47 350.14h27.95v28.6h-27.95zM468.5 350.53v-91.5h-1.88v-21.4h2.2l.04-172.75h-11.8V47.97l22.54-.04.37 399.07H462.4v-40.96h-48.74v-6.5h57.63V378.1h-29.26v-27.53z"/><defs><path id="z" d="M-45.03 46.03h526.58V773.9h-526.6z"/></defs><clipPath id="A"><use xlink:href="#z" overflow="visible"/></clipPath><path fill="#BBBDBF" d="M177.92 48.1h21.88V65l-7.25.86v138.3h29.57v10.76h-29.57V278H178c-.05-61.25-.08-229.9-.08-229.9" clip-path="url(#A)"/><path fill="#fff" d="M193.27 217.3h30.7v59.4h-30.7z"/><path fill="none" stroke="#000" stroke-width=".78" d="M193.27 217.3h30.7v59.4h-30.7z"/><defs><path id="B" d="M-45.03 46.03h526.58V773.9h-526.6z"/></defs><clipPath id="C"><use xlink:href="#B" overflow="visible"/></clipPath><circle cx="208.478" cy="263.156" r="1.26" fill="none" stroke="#231F20" stroke-width=".65" clip-path="url(#C)"/><defs><path id="D" d="M-45.03 46.03h526.58V773.9h-526.6z"/></defs><clipPath id="E"><use xlink:href="#D" overflow="visible"/></clipPath><path fill="none" stroke="#000" stroke-width=".65" d="M208.53 220.7c8.8 0 12.02 2.02 12.02 4.86v43.4c0 .7-.18 2.13-2.03 2.13h-20c-1.85 0-2.04-1.45-2.04-2.14v-43.41c0-2.84 3.3-4.87 12.05-4.87z" clip-path="url(#E)"/><defs><path id="F" d="M-45.03 46.03h526.58V773.9h-526.6z"/></defs><clipPath id="G"><use xlink:href="#F" overflow="visible"/></clipPath><path fill="none" stroke="#231F20" stroke-width=".585" d="M203.13 273.3c0-.72.58-1.3 1.3-1.3.7 0 1.28.58 1.28 1.3 0 .7-.57 1.3-1.28 1.28-.7 0-1.28-.58-1.28-1.28zm8 0c0-.72.56-1.3 1.28-1.3.7 0 1.3.58 1.3 1.3 0 .7-.6 1.3-1.3 1.3-.7 0-1.28-.6-1.28-1.3z" clip-path="url(#G)"/><defs><path id="H" d="M-45.03 46.03h526.58V773.9h-526.6z"/></defs><clipPath id="I"><use xlink:href="#H" overflow="visible"/></clipPath><path fill="#fff" d="M210.2 273.68c0 1.05-.7 1.9-1.76 1.9-1.05 0-1.63-.85-1.63-1.9l.7-7.27c0-.7 1.92-.7 1.92 0l.8 7.28z" clip-path="url(#I)"/><defs><path id="J" d="M-45.03 46.03h526.58V773.9h-526.6z"/></defs><clipPath id="K"><use xlink:href="#J" overflow="visible"/></clipPath><path fill="none" stroke="#231F20" stroke-width=".585" d="M210.2 273.68c0 1.05-.7 1.9-1.76 1.9-1.05 0-1.63-.85-1.63-1.9l.7-7.27c0-.7 1.92-.7 1.92 0l.8 7.28z" clip-path="url(#K)"/><defs><path id="L" d="M-45.03 46.03h526.58V773.9h-526.6z"/></defs><clipPath id="M"><use xlink:href="#L" overflow="visible"/></clipPath><path fill="none" stroke="#000" stroke-width=".975" d="M385.5 363.5c0 15.93 12.9 28.83 28.8 28.83m-28.83-28.82h28.83v-1.65h-28.83v1.66zm-156.2-130.36c15.92 0 28.82-12.9 28.82-28.82m-30.5 28.84h1.67v-28.84h-1.66v28.84zm149.44 206.07c0-15.92-12.9-28.82-28.82-28.82m28.84 28.83h-28.84v1.66h28.84v-1.67z" clip-path="url(#M)"/><defs><path id="N" d="M-45.03 46.03h526.58V773.9h-526.6z"/></defs><clipPath id="O"><use xlink:href="#N" overflow="visible"/></clipPath><path fill="#fff" d="M250.82 259.8c0-5.8-3.52-12.2-7.86-12.2-4.35 0-7.87 6.4-7.87 12.2s3.5 8.82 7.86 8.82c4.34 0 7.86-3.02 7.86-8.82" clip-path="url(#O)"/><defs><path id="P" d="M-45.03 46.03h526.58V773.9h-526.6z"/></defs><clipPath id="Q"><use xlink:href="#P" overflow="visible"/></clipPath><path fill="none" stroke="#000" stroke-width=".78" d="M250.82 259.8c0-5.8-3.52-12.2-7.86-12.2-4.35 0-7.87 6.4-7.87 12.2s3.5 8.82 7.86 8.82c4.34 0 7.86-3.02 7.86-8.82z" clip-path="url(#Q)"/><defs><path id="R" d="M-45.03 46.03h526.58V773.9h-526.6z"/></defs><clipPath id="S"><use xlink:href="#R" overflow="visible"/></clipPath><path fill="#fff" d="M238.25 266.7c0-.3-.27-.58-.6-.58h-2.75c-.32 0-.6.27-.6.6v.1c0 .32.28.6.6.6h2.75c.33 0 .6-.28.6-.6v-.1z" clip-path="url(#S)"/><defs><path id="T" d="M-45.03 46.03h526.58V773.9h-526.6z"/></defs><clipPath id="U"><use xlink:href="#T" overflow="visible"/></clipPath><path fill="none" stroke="#231F20" stroke-width=".78" d="M238.25 266.7c0-.3-.27-.58-.6-.58h-2.75c-.32 0-.6.27-.6.6v.1c0 .32.28.6.6.6h2.75c.33 0 .6-.28.6-.6v-.1z" clip-path="url(#U)"/><defs><path id="V" d="M-45.03 46.03h526.58V773.9h-526.6z"/></defs><clipPath id="W"><use xlink:href="#V" overflow="visible"/></clipPath><path fill="#fff" d="M233.9 267.42c-1 0-1.8 2.67-1.8 3.66 0 1 .8 3.66 1.8 3.66h17.97c.98 0 1.78-2.67 1.78-3.66 0-1-.8-3.66-1.78-3.66H233.9z" clip-path="url(#W)"/><defs><path id="X" d="M-45.03 46.03h526.58V773.9h-526.6z"/></defs><clipPath id="Y"><use xlink:href="#X" overflow="visible"/></clipPath><path fill="none" stroke="#000" stroke-width=".78" d="M233.9 267.42c-1 0-1.8 2.67-1.8 3.66 0 1 .8 3.66 1.8 3.66h17.97c.98 0 1.78-2.67 1.78-3.66 0-1-.8-3.66-1.78-3.66H233.9z" clip-path="url(#Y)"/><defs><path id="Z" d="M-45.03 46.03h526.58V773.9h-526.6z"/></defs><clipPath id="aa"><use xlink:href="#Z" overflow="visible"/></clipPath><path fill="#fff" d="M248.74 259.55c0-4.26-2.6-8.96-5.78-8.96-3.2 0-5.78 4.7-5.78 8.95s2.58 6.48 5.78 6.48 5.78-2.22 5.78-6.48" clip-path="url(#aa)"/><defs><path id="ab" d="M-45.03 46.03h526.58V773.9h-526.6z"/></defs><clipPath id="ac"><use xlink:href="#ab" overflow="visible"/></clipPath><path fill="none" stroke="#000" stroke-width=".65" d="M248.74 259.55c0-4.26-2.6-8.96-5.78-8.96-3.2 0-5.78 4.7-5.78 8.95s2.58 6.48 5.78 6.48 5.78-2.22 5.78-6.48z" clip-path="url(#ac)"/><path fill="none" stroke="#231F20" stroke-width=".78" d="M270.87 276.26V252.2h29.47v24.7"/><path fill="none" stroke="#000" stroke-width=".78" d="M322.25 209.1v26.43m0-5.16h-3.67l-.85-3.17v-9.7l.85-3.22h3.67m16.92 21.25h-24.1v-26.25h24.1v26.25z"/><path fill="#fff" d="M320.67 210.56v2.12l1.47.46v-3.05z"/><path fill="none" stroke="#231F20" stroke-width=".78" d="M320.67 210.56v2.12l1.47.46v-3.05zM346.7 240.72v105.85h-25.34"/><path fill="#fff" d="M348.86 252.25l-25.68.2-.05 30.2 25.67-.18z"/><path fill="none" stroke="#000" stroke-width=".78" d="M348.86 252.25l-25.68.2-.05 30.2 25.67-.18z"/><path fill="none" stroke="#000" stroke-width=".39" d="M325.42 282.68v-30.26"/><defs><path id="ad" d="M-45.03 46.03h526.58V773.9h-526.6z"/></defs><clipPath id="ae"><use xlink:href="#ad" overflow="visible"/></clipPath><path fill="#fff" d="M334.7 273.63c-.02-2.17-1.8-3.9-3.96-3.9-2.17.02-3.92 1.8-3.9 3.96.02 2.16 1.8 3.9 3.96 3.9 2.16-.03 3.92-1.8 3.9-3.97" clip-path="url(#ae)"/><defs><path id="af" d="M-45.03 46.03h526.58V773.9h-526.6z"/></defs><clipPath id="ag"><use xlink:href="#af" overflow="visible"/></clipPath><path fill="none" stroke="#231F20" stroke-width=".65" d="M334.7 273.63c-.02-2.17-1.8-3.9-3.96-3.9-2.17.02-3.92 1.8-3.9 3.96.02 2.16 1.8 3.9 3.96 3.9 2.16-.03 3.92-1.8 3.9-3.97z" clip-path="url(#ag)"/><defs><path id="ah" d="M-45.03 46.03h526.58V773.9h-526.6z"/></defs><clipPath id="ai"><use xlink:href="#ah" overflow="visible"/></clipPath><path fill="#fff" d="M334.6 261.86c0-2.17-1.78-3.92-3.95-3.9-2.17.02-3.9 1.78-3.9 3.95.02 2.18 1.8 3.93 3.96 3.92 2.18-.02 3.93-1.8 3.9-3.96" clip-path="url(#ai)"/><defs><path id="aj" d="M-45.03 46.03h526.58V773.9h-526.6z"/></defs><clipPath id="ak"><use xlink:href="#aj" overflow="visible"/></clipPath><path fill="none" stroke="#231F20" stroke-width=".65" d="M334.6 261.86c0-2.17-1.78-3.92-3.95-3.9-2.17.02-3.9 1.78-3.9 3.95.02 2.18 1.8 3.93 3.96 3.92 2.18-.02 3.93-1.8 3.9-3.96z" clip-path="url(#ak)"/><defs><path id="al" d="M-45.03 46.03h526.58V773.9h-526.6z"/></defs><clipPath id="am"><use xlink:href="#al" overflow="visible"/></clipPath><path fill="#fff" d="M345.4 273.55c-.03-2.17-1.8-3.9-3.97-3.9-2.17.02-3.92 1.8-3.9 3.96.02 2.18 1.8 3.93 3.96 3.9 2.16 0 3.9-1.78 3.9-3.95" clip-path="url(#am)"/><defs><path id="an" d="M-45.03 46.03h526.58V773.9h-526.6z"/></defs><clipPath id="ao"><use xlink:href="#an" overflow="visible"/></clipPath><path fill="none" stroke="#231F20" stroke-width=".65" d="M345.4 273.55c-.03-2.17-1.8-3.9-3.97-3.9-2.17.02-3.92 1.8-3.9 3.96.02 2.18 1.8 3.93 3.96 3.9 2.16 0 3.9-1.78 3.9-3.95z" clip-path="url(#ao)"/><defs><path id="ap" d="M-45.03 46.03h526.58V773.9h-526.6z"/></defs><clipPath id="aq"><use xlink:href="#ap" overflow="visible"/></clipPath><path fill="#fff" d="M345.3 261.78c-.02-2.17-1.78-3.92-3.95-3.9-2.18.02-3.92 1.8-3.9 3.96 0 2.16 1.78 3.9 3.96 3.9 2.17-.02 3.92-1.8 3.9-3.96" clip-path="url(#aq)"/><defs><path id="ar" d="M-45.03 46.03h526.58V773.9h-526.6z"/></defs><clipPath id="as"><use xlink:href="#ar" overflow="visible"/></clipPath><path fill="none" stroke="#231F20" stroke-width=".65" d="M345.3 261.78c-.02-2.17-1.78-3.92-3.95-3.9-2.18.02-3.92 1.8-3.9 3.96 0 2.16 1.78 3.9 3.96 3.9 2.17-.02 3.92-1.8 3.9-3.96z" clip-path="url(#as)"/><path fill="#fff" d="M348.76 253.3h1.2v28.17h-1.2z"/><path fill="none" stroke="#231F20" stroke-width=".78" d="M348.76 253.3h1.2v28.17h-1.2z"/><defs><path id="at" d="M-45.03 46.03h526.58V773.9h-526.6z"/></defs><clipPath id="au"><use xlink:href="#at" overflow="visible"/></clipPath><path fill="none" stroke="#231F20" stroke-width=".78" d="M428 352.25v47.3m-17.38-353.1h47.13m-118.95-.02h47.12m-116.67.05h48.1m-118.3-.03h44.93m167.05 16.4h45.1m-115.06-.33h43.23m-114.4.32h45.5m-114.73 0h42.9" clip-path="url(#au)"/><path fill="none" stroke="#231F20" stroke-width=".78" stroke-dashoffset="3" d="M430.12 398.9v-47.3" stroke-dasharray="1.891,1.891,1.891,1.891,1.891,1.891"/><defs><path id="av" d="M-45.03 46.03h526.58V773.9h-526.6z"/></defs><clipPath id="aw"><use xlink:href="#av" overflow="visible"/></clipPath><circle cx="285.574" cy="264.045" r="1.188" fill="none" stroke="#000" stroke-width=".52" clip-path="url(#aw)"/><defs><path id="ax" d="M-45.03 46.03h526.58V773.9h-526.6z"/></defs><clipPath id="ay"><use xlink:href="#ax" overflow="visible"/></clipPath><path fill="none" stroke="#000" stroke-width=".65" d="M285.57 273.88c.64 0 1.16-.52 1.16-1.16s-.52-1.15-1.16-1.15c-.64 0-1.15.52-1.15 1.15s.52 1.16 1.15 1.16zm.53-7.2h-1.06v4.7h1.06v-4.7zm4.67 4.82h-10.4v2.5h10.4v-2.5z" clip-path="url(#ay)"/><path fill="none" stroke="#000" stroke-width=".78" d="M275.05 255.3h21.06v19.07h-21.06z"/><path fill="none" stroke="#000" stroke-width=".585" d="M276.67 256.93h17.76v14.52h-17.76z"/><path fill="none" stroke="#000" stroke-width=".65" d="M351 347.47v35.75"/><path fill="none" stroke="#000" stroke-width=".78" d="M353.13 360.17h1.46v2.76h-1.47zM323.04 347.7h30.06v35.23h-30.06zM353.13 368.87h1.46v2.76h-1.47z"/><defs><path id="az" d="M-45.03 46.03h526.58V773.9h-526.6z"/></defs><clipPath id="aA"><use xlink:href="#az" overflow="visible"/></clipPath><path fill="#fff" d="M326.03 290.16c-1 0-1.84.83-1.84 1.84v22.4c0 1.02.82 1.85 1.83 1.85h15.76c1 0 1.83-.83 1.83-1.84V292c0-1-.83-1.84-1.84-1.84h-15.77z" clip-path="url(#aA)"/><defs><path id="aB" d="M-45.03 46.03h526.58V773.9h-526.6z"/></defs><clipPath id="aC"><use xlink:href="#aB" overflow="visible"/></clipPath><path fill="none" stroke="#231F20" stroke-width=".78" d="M326.03 290.16c-1 0-1.84.83-1.84 1.84v22.4c0 1.02.82 1.85 1.83 1.85h15.76c1 0 1.83-.83 1.83-1.84V292c0-1-.83-1.84-1.84-1.84h-15.77z" clip-path="url(#aC)"/><defs><path id="aD" d="M-45.03 46.03h526.58V773.9h-526.6z"/></defs><clipPath id="aE"><use xlink:href="#aD" overflow="visible"/></clipPath><path fill="#fff" d="M328.5 312.45c0 1.03.83 1.9 1.85 1.9h9.46c1.03-.02 1.86-.87 1.86-1.9v-18.43c0-1.04-.83-1.9-1.85-1.9h-9.45c-1.02 0-1.85.86-1.85 1.9v18.43z" clip-path="url(#aE)"/><defs><path id="aF" d="M-45.03 46.03h526.58V773.9h-526.6z"/></defs><clipPath id="aG"><use xlink:href="#aF" overflow="visible"/></clipPath><path fill="none" stroke="#231F20" stroke-width=".585" d="M328.5 312.45c0 1.03.83 1.9 1.85 1.9h9.46c1.03-.02 1.86-.87 1.86-1.9v-18.43c0-1.04-.83-1.9-1.85-1.9h-9.45c-1.02 0-1.85.86-1.85 1.9v18.43z" clip-path="url(#aG)"/><defs><path id="aH" d="M-45.03 46.03h526.58V773.9h-526.6z"/></defs><clipPath id="aI"><use xlink:href="#aH" overflow="visible"/></clipPath><path fill="#fff" d="M335.3 301.63c-.77 0-1.4.63-1.4 1.4 0 .77.63 1.38 1.4 1.38.76 0 1.4-.6 1.4-1.37 0-.77-.64-1.4-1.4-1.4" clip-path="url(#aI)"/><defs><path id="aJ" d="M-45.03 46.03h526.58V773.9h-526.6z"/></defs><clipPath id="aK"><use xlink:href="#aJ" overflow="visible"/></clipPath><path fill="none" stroke="#231F20" stroke-width=".52" d="M335.3 301.63c-.77 0-1.4.63-1.4 1.4 0 .77.63 1.38 1.4 1.38.76 0 1.4-.6 1.4-1.37 0-.77-.64-1.4-1.4-1.4z" clip-path="url(#aK)"/><defs><path id="aL" d="M-45.03 46.03h526.58V773.9h-526.6z"/></defs><clipPath id="aM"><use xlink:href="#aL" overflow="visible"/></clipPath><path fill="#fff" d="M326.3 298.05c-.75 0-1.43.6-1.43 1.34v7.3c0 .74.68 1.34 1.42 1.34s1.42-.6 1.42-1.34v-7.3c0-.75-.7-1.35-1.43-1.35" clip-path="url(#aM)"/><defs><path id="aN" d="M-45.03 46.03h526.58V773.9h-526.6z"/></defs><clipPath id="aO"><use xlink:href="#aN" overflow="visible"/></clipPath><path fill="none" stroke="#231F20" stroke-width=".52" d="M326.3 298.05c-.75 0-1.43.6-1.43 1.34v7.3c0 .74.68 1.34 1.42 1.34s1.42-.6 1.42-1.34v-7.3c0-.75-.7-1.35-1.43-1.35z" clip-path="url(#aO)"/><defs><path id="aP" d="M-45.03 46.03h526.58V773.9h-526.6z"/></defs><clipPath id="aQ"><use xlink:href="#aP" overflow="visible"/></clipPath><path fill="#fff" d="M334.07 297.56l-6.8 6.27c-.4.35-1 .32-1.36-.08-.35-.4-.3-1 .1-1.35l7.05-6c.33-.27 1.34.88 1.02 1.16" clip-path="url(#aQ)"/><defs><path id="aR" d="M-45.03 46.03h526.58V773.9h-526.6z"/></defs><clipPath id="aS"><use xlink:href="#aR" overflow="visible"/></clipPath><path fill="none" stroke="#231F20" stroke-width=".65" d="M334.07 297.56l-6.8 6.27c-.4.35-1 .32-1.36-.08-.35-.4-.3-1 .1-1.35l7.05-6c.33-.27 1.34.88 1.02 1.16z" clip-path="url(#aS)"/><defs><path id="aT" d="M-45.03 46.03h526.58V773.9h-526.6z"/></defs><clipPath id="aU"><use xlink:href="#aT" overflow="visible"/></clipPath><path fill="#fff" d="M329.66 303.84h-3.3c-.34 0-.63-.3-.63-.65 0-.36.3-.64.64-.64h3.3c.35 0 .63.28.63.64s-.28.64-.64.64" clip-path="url(#aU)"/><defs><path id="aV" d="M-45.03 46.03h526.58V773.9h-526.6z"/></defs><clipPath id="aW"><use xlink:href="#aV" overflow="visible"/></clipPath><path fill="none" stroke="#231F20" stroke-width=".52" d="M329.66 303.84h-3.3c-.34 0-.63-.3-.63-.65 0-.36.3-.64.64-.64h3.3c.35 0 .63.28.63.64s-.28.64-.64.64z" clip-path="url(#aW)"/><defs><path id="aX" d="M-45.03 46.03h526.58V773.9h-526.6z"/></defs><clipPath id="aY"><use xlink:href="#aX" overflow="visible"/></clipPath><path fill="#fff" d="M326.42 305.22c-.43 0-.77.35-.77.77 0 .42.35.76.77.76.4 0 .76-.34.76-.77s-.34-.78-.76-.78" clip-path="url(#aY)"/><defs><path id="aZ" d="M-45.03 46.03h526.58V773.9h-526.6z"/></defs><clipPath id="ba"><use xlink:href="#aZ" overflow="visible"/></clipPath><path fill="none" stroke="#231F20" stroke-width=".455" d="M326.42 305.22c-.43 0-.77.35-.77.77 0 .42.35.76.77.76.4 0 .76-.34.76-.77s-.34-.78-.76-.78z" clip-path="url(#ba)"/><defs><path id="bb" d="M-45.03 46.03h526.58V773.9h-526.6z"/></defs><clipPath id="bc"><use xlink:href="#bb" overflow="visible"/></clipPath><path fill="#fff" d="M326.35 299.32c-.42 0-.77.35-.77.77 0 .4.35.76.77.76.42 0 .76-.35.76-.77 0-.43-.33-.78-.75-.78" clip-path="url(#bc)"/><defs><path id="bd" d="M-45.03 46.03h526.58V773.9h-526.6z"/></defs><clipPath id="be"><use xlink:href="#bd" overflow="visible"/></clipPath><path fill="none" stroke="#231F20" stroke-width=".455" d="M326.35 299.32c-.42 0-.77.35-.77.77 0 .4.35.76.77.76.42 0 .76-.35.76-.77 0-.43-.33-.78-.75-.78z" clip-path="url(#be)"/><path fill="none" stroke="#000" stroke-width=".65" stroke-dashoffset="3" d="M344.2 342.94h-18.4" stroke-dasharray="1.936,1.936,1.936,1.936,1.936,1.936"/><path fill="none" stroke="#000" stroke-width=".65" stroke-dashoffset="3" d="M323.88 340.1v-18.05" stroke-dasharray="1.899,1.899,1.899,1.899,1.899,1.899"/><path fill="none" stroke="#000" stroke-width=".65" stroke-dashoffset="3" d="M326.7 320.16h18" stroke-dasharray="1.892,1.892,1.892,1.892,1.892,1.892"/><path fill="none" stroke="#000" stroke-width=".65" d="M345.64 320.16h.94m-22.7.95v-.94h.94m.03 22.78h-.97V342m23.23.94h-.96M346.58 320.12h2.47v22.82h-1.94"/><defs><path id="bf" d="M-45.03 46.03h526.58V773.9h-526.6z"/></defs><clipPath id="bg"><use xlink:href="#bf" overflow="visible"/></clipPath><path fill="none" stroke="#231F20" stroke-width="3.9" d="M269.9 52.27h47.12m22.1 0h45.18m27.3 0h43.22m8.02 394.3v-40.98h-48.97l.44-5.63h56.08v-22.96m-2.3-28.32v-89.55h-1.02v-21.4h1.3l.07-172.75h-11.8V48.07l22.97-.04-.06 399.5" clip-path="url(#bg)"/><defs><path id="bh" d="M-45.03 46.03h526.58V773.9h-526.6z"/></defs><clipPath id="bi"><use xlink:href="#bh" overflow="visible"/></clipPath><path fill="none" stroke="#231F20" stroke-width="3.9" d="M201 52.27h43.22" clip-path="url(#bi)"/><defs><path id="bj" d="M-45.03 46.03h526.58V773.9h-526.6z"/></defs><clipPath id="bk"><use xlink:href="#bj" overflow="visible"/></clipPath><path fill="none" stroke="#231F20" stroke-width="5.2" d="M481.5 447.5H348.22v-6.68" clip-path="url(#bk)"/><path fill="none" stroke="#231F20" stroke-width="6.5" d="M328.07 206.5v-27.3m0-31.53V64.8"/><defs><path id="bl" d="M-45.03 46.03h526.58V773.9h-526.6z"/></defs><clipPath id="bm"><use xlink:href="#bl" overflow="visible"/></clipPath><path fill="none" stroke="#231F20" stroke-width="5.2" d="M257.94 205h85.4l.63 34.64H319.8l-.06 146.3h28.48v24.88m124.15-32.08h-29.9v-28.6m27.62 0h-56.44v11.7m0 30.4v18.04m0 30.2v7.16" clip-path="url(#bm)"/><path fill="none" stroke="#231F20" stroke-width=".78" d="M331.22 109.97h1.95v47.12h-1.95z"/><path fill="#BBBDBF" d="M245.27 48.06V65l23.84-.12V48.02z"/><defs><path id="bn" d="M-45.03 46.03h526.58V773.9h-526.6z"/></defs><clipPath id="bo"><use xlink:href="#bn" overflow="visible"/></clipPath><path fill="none" stroke="#231F20" stroke-width="3.9" d="M245.27 48.06V65l23.84-.12V48.02z" clip-path="url(#bo)"/><path fill="#BBBDBF" d="M315.7 48v16.93l23.82-.06V48.02z"/><defs><path id="bp" d="M-45.03 46.03h526.58V773.9h-526.6z"/></defs><clipPath id="bq"><use xlink:href="#bp" overflow="visible"/></clipPath><path fill="none" stroke="#231F20" stroke-width="3.9" d="M315.7 48v16.93l23.82-.06V48.02z" clip-path="url(#bq)"/><path fill="#BBBDBF" d="M386.2 48v16.93l23.84-.06V48.02z"/><defs><path id="br" d="M-45.03 46.03h526.58V773.9h-526.6z"/></defs><clipPath id="bs"><use xlink:href="#br" overflow="visible"/></clipPath><path fill="none" stroke="#231F20" stroke-width="3.9" d="M386.2 48v16.93l23.84-.06V48.02z" clip-path="url(#bs)"/><defs><path id="bt" d="M-45.03 46.03h526.58V773.9h-526.6z"/></defs><clipPath id="bu"><use xlink:href="#bt" overflow="visible"/></clipPath><path fill="none" stroke="#231F20" stroke-width="3.9" d="M319.64 278.26l-127.7-.08v-63.1l30.46-.08v-10.13m-19.78 73.38l-24.54-.13V48.02h21.44v17.97l-7.58-.07V204.5l35.38.04" clip-path="url(#bu)"/><path fill="none" stroke="#231F20" stroke-width=".78" d="M412.52 399.7h1.95v47.13h-1.95z"/><path fill="none" stroke="#231F20" stroke-width="3.9" stroke-dashoffset="7" d="M465.1 65.44v284.7" stroke-dasharray="5.873,1.873,5.873,1.873,5.873,1.873"/><path fill="#fff" d="M344.54 50.7h18.58v3.15h-18.58z"/><path fill="none" stroke="#000" stroke-width=".78" d="M344.54 50.7h18.58v3.15h-18.58zM363.12 52.2h-18.47"/><path fill="#fff" d="M363.17 50.7h19.07v3.15h-19.07z"/><path fill="none" stroke="#000" stroke-width=".78" d="M363.17 50.7h19.07v3.15h-19.07zM382.24 52.2h-19.07"/><path fill="#fff" d="M414.42 50.7H433v3.15h-18.58z"/><path fill="none" stroke="#000" stroke-width=".78" d="M414.42 50.7H433v3.15h-18.58zM433 52.2h-18.47"/><path fill="#fff" d="M433.05 50.7h19.07v3.15h-19.07z"/><path fill="none" stroke="#000" stroke-width=".78" d="M433.05 50.7h19.07v3.15h-19.07zM452.12 52.2h-19.07"/><path fill="#fff" d="M204 50.7h18.58v3.15H204z"/><path fill="none" stroke="#000" stroke-width=".78" d="M204 50.7h18.58v3.15H204zM222.58 52.2H204.1"/><path fill="#fff" d="M222.63 50.7h19.07v3.15h-19.07z"/><path fill="none" stroke="#000" stroke-width=".78" d="M222.63 50.7h19.07v3.15h-19.07zM241.7 52.2h-19.06"/><path fill="#fff" d="M273.2 50.7h18.6v3.15h-18.6z"/><path fill="none" stroke="#000" stroke-width=".78" d="M273.2 50.7h18.6v3.15h-18.6zM291.8 52.2h-18.5"/><path fill="#fff" d="M291.84 50.7h19.06v3.15h-19.06z"/><path fill="none" stroke="#000" stroke-width=".78" d="M291.84 50.7h19.06v3.15h-19.06zM310.9 52.2h-19.06"/><defs><path id="bv" d="M-45.03 46.03h526.58V773.9h-526.6z"/></defs><clipPath id="bw"><use xlink:href="#bv" overflow="visible"/></clipPath><path fill="#231F20" d="M275.48 137.4H275l-.46 1.55h.3l.64-1.55zm-.94 0h-.47l-.48 1.55h.3l.64-1.55zm-2.5 2.8c0 .53-.4.95-1 .95-.62 0-1.07-.4-1.07-.94 0-.47.42-.92 1.05-.92.6 0 1.03.38 1.03.9m.33-2.47c-.36-.3-.73-.47-1.24-.47-1.1 0-1.74 1-1.74 2.28 0 .88.2 1.3.52 1.65.27.26.65.42 1.1.42.86 0 1.52-.6 1.52-1.4 0-.8-.67-1.3-1.46-1.3-.6 0-.96.3-1.2.64 0-1.07.48-1.84 1.24-1.84.38 0 .68.15 1 .4l.26-.35zm-4.56-.3h-.47l-.47 1.55h.3l.64-1.55zm-3.68.22l.1.4.8-.26v3.74h.47v-4.23h-.34l-1.02.35zm-2.9 0l.1.4.8-.26v3.74h.47v-4.23h-.34l-1.03.35zm-3.37 3.38l-1.12-1.5 1.08-1.44h-.38l-.9 1.2-.9-1.2h-.4l1.1 1.44-1.14 1.5h.4l.94-1.26.94 1.26h.4zm-5.6-3.6h-.47l-.48 1.55h.3l.65-1.55zm-.95 0h-.47l-.47 1.55h.3l.64-1.55zm-3.6.22l.1.4.8-.26v3.74h.47v-4.23h-.36l-1.03.35zm-1.38-.22h-.47l-.47 1.55h.3l.64-1.55zm-3.68.22l.1.4.8-.26v3.74h.47v-4.23h-.35l-1.02.35zm-2.9 0l.1.4.8-.26v3.74h.47v-4.23h-.35l-1.03.35z" clip-path="url(#bw)"/><defs><path id="bx" d="M-45.03 46.03h526.58V773.9h-526.6z"/></defs><clipPath id="by"><use xlink:href="#bx" overflow="visible"/></clipPath><path fill="#231F20" d="M274.74 129.7v3.78h.53v-4.66h-.53l-1.7 2.54-1.7-2.54h-.53v4.66h.53v-3.77l1.7 2.5h.02l1.7-2.5zm-5.58 1.45c0 1.07-.76 1.92-1.83 1.92-1.06 0-1.83-.87-1.83-1.93s.76-1.9 1.82-1.9c1.07 0 1.84.85 1.84 1.9m.54 0c0-1.3-.95-2.4-2.36-2.4-1.42 0-2.4 1.12-2.4 2.4 0 1.3.96 2.42 2.38 2.42s2.38-1.13 2.38-2.42m-6.2 0c0 1.08-.75 1.93-1.82 1.93-1.06 0-1.83-.87-1.83-1.93s.75-1.9 1.82-1.9c1.06 0 1.83.85 1.83 1.9m.55 0c0-1.3-.95-2.4-2.37-2.4-1.4 0-2.38 1.12-2.38 2.4 0 1.3.95 2.42 2.37 2.42 1.42 0 2.38-1.13 2.38-2.42m-6.2-.9c0 .6-.5.95-1.2.95h-1.43v-1.9h1.44c.75 0 1.2.35 1.2.93m.7 3.25l-1.44-1.9c.73-.14 1.26-.6 1.26-1.37 0-.83-.65-1.38-1.68-1.38h-2v4.66h.52v-1.8h1.33l1.35 1.8h.65zm-5.52-2.33c0 1.04-.75 1.84-1.92 1.84h-1.1v-3.7h1.1c1.17 0 1.92.82 1.92 1.85m.55 0c0-1.33-1.02-2.33-2.48-2.33h-1.62v4.66h1.62c1.46 0 2.47-1.02 2.47-2.34m-5.2-2.32h-3.36v4.66h3.4V133h-2.87v-1.63h2.54v-.48h-2.53v-1.6h2.84v-.48zm-6.08 4.18h-1.56v-1.64h1.47c.8 0 1.24.3 1.24.8 0 .53-.44.84-1.15.84m-.18-2.1h-1.38v-1.6h1.42c.66 0 1.03.3 1.03.76 0 .55-.43.84-1.06.84m.1-2.08h-2v4.66h2.07c1.03 0 1.7-.48 1.7-1.28 0-.65-.44-.97-1-1.13.37-.16.74-.47.74-1.1 0-.7-.6-1.15-1.52-1.15" clip-path="url(#by)"/></g><defs><path id="bz" d="M44.73 146.46h100.15v4.56H44.73z"/></defs><clipPath id="bA"><use xlink:href="#bz" overflow="visible"/></clipPath><path fill="#231F20" d="M144.87 146.84v-.3h-3.4v.3H143v4.1h.34v-4.1h1.53zm-5.8 4.1v-.3h-2.83v-1.77h2.53v-.3h-2.53v-1.73h2.8v-.3h-3.13v4.4h3.18zm-5.86 0v-.3h-2.83v-1.77h2.52v-.3h-2.53v-1.73h2.8v-.3h-3.13v4.4h3.17zm-6.27-3.13c0 .65-.55 1.02-1.28 1.02h-1.5v-1.98h1.52c.8 0 1.26.37 1.26.96zm.5 3.15l-1.46-1.9c.74-.1 1.3-.5 1.3-1.25s-.63-1.26-1.58-1.26h-1.87v4.4h.33v-1.82h1.44l1.4 1.83h.42zm-6.25-4.1v-.3h-3.4v.3h1.54v4.1h.33v-4.1h1.53zm-5.72 2.96c0-.65-.43-1.02-1.45-1.22-1.03-.22-1.27-.5-1.27-.97 0-.46.43-.83 1.07-.83.5 0 .9.14 1.32.5l.2-.26c-.44-.35-.86-.53-1.5-.53-.82 0-1.42.5-1.42 1.16v.02c0 .66.43 1.02 1.48 1.24 1 .2 1.25.46 1.25.93 0 .5-.45.88-1.1.88-.66 0-1.1-.2-1.6-.64l-.2.24c.52.48 1.06.7 1.77.7.85 0 1.46-.48 1.46-1.2m-11.16 1.15v-4.4h-.3v3.82l-3.06-3.83h-.3v4.4h.3v-3.9l3.1 3.9h.26zm-6.78-2.2c0 1.1-.78 1.98-1.87 1.98s-1.88-.9-1.88-2 .78-1.97 1.87-1.97 1.88.9 1.88 1.98v.02zm.35 0s0 0 0-.02c0-1.2-.88-2.27-2.22-2.27-1.33 0-2.22 1.08-2.22 2.28 0 1.22.88 2.28 2.2 2.28 1.34 0 2.24-1.07 2.24-2.28m-6.55-1.9v-.3h-3.4v.3h1.54v4.1h.33v-4.1h1.52zm-5.8 3.52v-1.7h-1.78v.3h1.47v1.27c-.3.27-.83.5-1.4.5-1.17 0-1.9-.85-1.9-2 0-1.06.76-1.97 1.83-1.97.67 0 1.07.22 1.42.53l.22-.26c-.44-.36-.9-.58-1.62-.58-1.3 0-2.18 1.1-2.18 2.28v.02c0 1.24.83 2.27 2.22 2.27.7 0 1.33-.3 1.72-.67m-6.7.6v-4.42h-.33v3.83l-3.05-3.83h-.3v4.4h.3v-3.9l3.1 3.9h.26zm-6.7-4.42h-.32v4.4h.33v-4.4zm-3.32 4.4v-4.4h-.33v2.04h-2.82v-2.04h-.33v4.4h.33v-2.06h2.82v2.07h.33zm-6.2-1.13c0-.65-.44-1.02-1.46-1.22-1.04-.22-1.28-.5-1.28-.97 0-.46.43-.83 1.07-.83.5 0 .9.14 1.32.5l.2-.26c-.44-.35-.86-.53-1.5-.53-.82 0-1.42.5-1.42 1.16v.02c0 .66.43 1.02 1.48 1.24 1 .2 1.26.46 1.26.93 0 .5-.45.88-1.1.88-.66 0-1.1-.2-1.6-.64l-.2.24c.52.48 1.06.7 1.77.7.85 0 1.46-.48 1.46-1.2m-6.52-.38h-2.32l1.17-2.55 1.16 2.55zm1.06 1.53l-2.05-4.44h-.33l-2.05 4.45h.34l.56-1.24h2.6l.57 1.25h.34zm-6.1-4.4h-.34l-1.38 3.9-1.3-3.93h-.25l-1.3 3.94-1.38-3.92h-.37l1.6 4.44h.26l1.3-3.83 1.28 3.83h.26l1.6-4.44z" clip-path="url(#bA)"/></svg>