<?xml version="1.0" encoding="utf-8"?>
<!-- Generator: Adobe Illustrator 15.0.2, SVG Export Plug-In . SVG Version: 6.00 Build 0)  -->
<!DOCTYPE svg PUBLIC "-//W3C//DTD SVG 1.1//EN" "http://www.w3.org/Graphics/SVG/1.1/DTD/svg11.dtd">
<svg version="1.1" id="Layer_1" xmlns="http://www.w3.org/2000/svg" xmlns:xlink="http://www.w3.org/1999/xlink" x="0px" y="0px"
	 width="513.359px" height="495.36px" viewBox="0 0 513.359 495.36" enable-background="new 0 0 513.359 495.36"
	 xml:space="preserve">
<g>
	<path fill="#FFFFFF" d="M78.56,47.74h33.15v44.2H78.57L78.56,47.74z M111.7,47.74h33.15v44.2H111.7V47.74z M144,99.6v-7.66h-23.8
		v7.65h-8.5v41.64h33.15V99.6H144z M78.56,98.74h-20.4v22.1H45.4v20.4h33.16V98.74z M77.7,98.74v42.5h34v-17h-6.8v-13.6H88.75V97.9
		L77.7,98.74z"/>
	<path fill="#BBBDBF" d="M45.4,46.9v28.04h14.46v10.2h4.25v6.8h13.6V46.9H45.4z"/>
	<g>
		<defs>
			<polygon id="SVGID_1_" points="-45.03,46.03 481.55,46.03 481.55,773.901 -45.05,773.901 			"/>
		</defs>
		<clipPath id="SVGID_2_">
			<use xlink:href="#SVGID_1_"  overflow="visible"/>
		</clipPath>
		<path clip-path="url(#SVGID_2_)" fill="none" stroke="#262626" stroke-width="2.053" stroke-miterlimit="10" d="M144.88,141.47
			H45.16v-94.3h99.72V141.47z"/>
	</g>
	<g>
		<defs>
			<polygon id="SVGID_3_" points="-45.03,46.03 481.55,46.03 481.55,773.901 -45.05,773.901 			"/>
		</defs>
		<clipPath id="SVGID_4_">
			<use xlink:href="#SVGID_3_"  overflow="visible"/>
		</clipPath>
		<path clip-path="url(#SVGID_4_)" fill="none" stroke="#262626" stroke-width="1.173" stroke-miterlimit="10" d="M58.5,99.1h61.45
			v-7.34 M48.82,84.7h11.3 M48.52,92.64h9.98v0.87 M58.5,96.75v24.2H46.04 M45.16,92.65h3.37V74.6H60.1v10.55h3.97v6.9h81.1
			 M78.3,141.75v-43 M111.6,141.75v-43 M111.6,91.45V47.84 M78.14,91.46V47.83"/>
	</g>
	<g>
		<defs>
			<polygon id="SVGID_5_" points="-45.03,46.03 481.55,46.03 481.55,773.901 -45.05,773.901 			"/>
		</defs>
		<clipPath id="SVGID_6_">
			<use xlink:href="#SVGID_5_"  overflow="visible"/>
		</clipPath>
		<path clip-path="url(#SVGID_6_)" fill="none" stroke="#000000" stroke-width="0.425" d="M55.15,93.44c0,1.8,1.46,3.25,3.25,3.25
			 M55.15,93.43h3.25v-0.2h-3.25V93.43z M110.2,102.23c-1.8,0-3.26-1.45-3.26-3.25 M110.38,102.22h-0.18V99h0.18v3.24V102.22z
			 M77.15,102.15c-1.8,0-3.25-1.46-3.25-3.26 M77.33,102.16h-0.18v-3.25h0.18V102.16z M113.05,102.23c1.8,0,3.25-1.45,3.25-3.25
			 M112.86,102.22h0.2V99h-0.2v3.24V102.22z M80.36,102.15c1.8,0,3.25-1.46,3.25-3.26 M80.18,102.16h0.2v-3.25h-0.2V102.16z
			 M113.68,88.63c1.8,0,3.24,1.45,3.24,3.25 M113.5,88.61h0.18v3.26h-0.18V88.6V88.61z M94.7,88.51c-1.8,0-3.24,1.45-3.24,3.25
			 M94.9,88.51h-0.2v3.25h0.2V88.51z M67.52,90.8c0-1.8-1.45-3.26-3.25-3.26 M67.52,90.79h-3.25v0.18h3.25v-0.2V90.79z"/>
	</g>
	<path fill="none" stroke="#000000" stroke-width="0.452" d="M49.1,107.9h8.97 M45.85,109.08h12.22 M45.84,110.28h12.2
		 M45.88,111.48H58.1 M45.92,112.68h12.2 M45.92,113.88h12.2 M45.94,115.13H58.1"/>
	<path fill="none" stroke="#000000" stroke-width="0.425" d="M45.88,110.64l3.67-2.7l-0.2-0.55l0.93,0.86l-0.26-0.64l1.77-1.07
		 M45.54,99.92h6.38 M45.54,101.12h6.38 M45.54,102.32h6.38 M45.54,103.52h6.38 M45.54,104.72h6.38 M45.54,105.92h6.32
		 M45.42,107.12h5.47 M45.77,108.06h3.56"/>
	<path fill="none" stroke="#000000" stroke-width="0.452" d="M51.36,106.7h6.76"/>
	<path fill="none" stroke="#000000" stroke-width="0.425" d="M94.2,98.93l0.92,2.88l0.58-0.03l-1.07,0.68l0.68-0.1l0.62,2.13
		 M103.33,99.49v4.97 M102.13,99.48v4.98 M100.93,99.48v4.98 M99.73,99.48v4.98 M98.55,99.48v4.9 M97.35,99.48v4.9 M96.15,99.48v4.9
		 M94.95,99.48v1.65"/>
	<path fill="#FFFFFF" d="M92.38,105.2h11.3v-0.6h-11.3V105.2z M103.96,105.48H92.08v-1.17h11.88v1.18V105.48z"/>
	<path fill="none" stroke="#262626" stroke-width="0.425" d="M92.38,105.2h11.3v-0.6h-11.3V105.2z M103.96,105.48H92.08v-1.17h11.88
		v1.18V105.48z"/>
	<path fill="#FFFFFF" d="M52.1,115.4h0.6v-15.34h-0.6v15.33V115.4z M51.82,99.66H53v16.13h-1.18V99.65V99.66z"/>
	<path fill="none" stroke="#262626" stroke-width="0.495" d="M52.1,115.4h0.6v-15.34h-0.6v15.33V115.4z M51.82,99.66H53v16.13h-1.18
		V99.65V99.66z"/>
	<path fill="none" stroke="#000000" stroke-width="0.425" d="M94.84,102.45v1.93 M93.64,99.48v4.9 M92.44,99.48v4.9 M94.79,105.53
		v4.9 M93.59,105.53v4.9 M92.39,105.53v4.9 M103.42,105.51v5 M102.22,105.51v5 M101.02,105.51v5 M99.7,105.51v5 M98.5,105.51v4.9
		 M97.3,105.51v4.9 M96.1,105.51v4.9"/>
	<path fill="none" stroke="#262626" stroke-width="1.173" stroke-miterlimit="10" d="M104.7,104.66v6.45 M88.27,99.11v11.28h16.43
		v13.2h6.74"/>
	<path fill="none" stroke="#000000" stroke-width="0.442" d="M104.94,110.14h6.3 M104.94,111.34h6.3 M104.94,112.54h6.3
		 M104.94,113.74h6.3 M104.94,114.94h6.3 M104.94,116.12h6.3 M104.94,117.32h6.3 M104.94,118.52h6.3 M104.94,119.72h6.3
		 M104.94,120.92h6.3 M104.94,122.12h6.3"/>
	<path d="M56.6,77.65h-3.36v1.54h2.98v0.93h-2.98v1.6h3.4v0.93H52.2V76.7h4.4V77.65z"/>
	<g>
		<defs>
			<polygon id="SVGID_7_" points="-45.03,46.03 481.55,46.03 481.55,773.901 -45.05,773.901 			"/>
		</defs>
		<clipPath id="SVGID_8_">
			<use xlink:href="#SVGID_7_"  overflow="visible"/>
		</clipPath>
		<path clip-path="url(#SVGID_8_)" fill="#231F20" d="M421.1,302.34l-2.949-3.73h-0.5v4.66h0.52v-3.8l3,3.8h0.43v-4.65h-0.5v3.74
			V302.34z M416.57,298.61h-3.36v4.66h3.4v-0.48h-2.87v-1.629h2.54v-0.48h-2.54v-1.58h2.84v-0.5L416.57,298.61z M411.37,301.18v2.1
			h0.52v-4.66h-0.54v2.08h-2.68v-2.07h-0.53v4.66h0.53v-2.1h2.68L411.37,301.18z M407.24,302.53l-0.351-0.34
			c-0.46,0.43-0.88,0.68-1.5,0.68c-1.04,0-1.819-0.85-1.819-1.93s0.77-1.92,1.8-1.92c0.64,0,1.08,0.279,1.47,0.65l0.36-0.381
			c-0.46-0.439-0.96-0.74-1.8-0.74c-1.381,0-2.36,1.08-2.36,2.4c0,1.36,1,2.4,2.33,2.4c0.85,0,1.38-0.301,1.87-0.801 M401.02,299.11
			h1.561v-0.5h-3.66v0.5h1.57v4.16h0.52v-4.17L401.02,299.11z M397.37,303.27h0.52v-4.65h-0.529v4.66L397.37,303.27z M394.42,300.65
			l2-2.03h-0.68l-2.68,2.801v-2.801h-0.521v4.66h0.521V302l1-1l1.779,2.26h0.66l-2.08-2.62V300.65z"/>
	</g>
	<g>
		<defs>
			<polygon id="SVGID_9_" points="-45.03,46.03 481.55,46.03 481.55,773.901 -45.05,773.901 			"/>
		</defs>
		<clipPath id="SVGID_10_">
			<use xlink:href="#SVGID_9_"  overflow="visible"/>
		</clipPath>
		<path clip-path="url(#SVGID_10_)" fill="#231F20" d="M423.84,388.219v1.561h0.48v-3.65h-0.48v1.561h-4.17v0.52h4.17V388.219z
			 M424.32,385.37V382h-4.65v3.4h0.48v-2.871h1.63v2.541h0.479v-2.541h1.58v2.84H424.32L424.32,385.37z M423.16,378.151
			c0.42,0,0.75,0.398,0.75,1c0,0.469-0.141,0.898-0.5,1.34l0.399,0.299c0.4-0.48,0.601-0.959,0.601-1.639
			c0-0.9-0.55-1.531-1.3-1.531c-0.761,0-1.101,0.5-1.341,1.561c-0.199,0.971-0.449,1.199-0.899,1.199c-0.47,0-0.8-0.398-0.8-1.039
			s0.229-1.1,0.67-1.6l-0.4-0.32c-0.5,0.559-0.729,1.16-0.729,1.9c0,0.93,0.52,1.6,1.319,1.6c0.721,0,1.101-0.5,1.32-1.531
			c0.23-1,0.47-1.25,0.92-1.25 M422,376.11c-1.08,0-1.93-0.75-1.93-1.82c0-1.061,0.87-1.83,1.93-1.83c1.061,0,1.92,0.75,1.92,1.82
			s-0.87,1.82-1.93,1.82 M421.99,376.651c1.3,0,2.399-0.951,2.399-2.371s-1.119-2.379-2.399-2.379c-1.3,0-2.4,0.949-2.4,2.369
			s1.101,2.369,2.4,2.369 M419.66,368.241v3.148h0.479v-2.619h4.171v-0.52h-4.65V368.241z M420.39,367.34l0.341-0.359
			c-0.42-0.432-0.67-0.852-0.67-1.5c0-1.021,0.85-1.801,1.93-1.801s1.92,0.779,1.92,1.801c0,0.639-0.271,1.078-0.64,1.469
			l0.38,0.359c0.439-0.469,0.739-0.969,0.739-1.799c0-1.381-1.079-2.371-2.399-2.371c-1.36,0-2.4,1-2.4,2.342
			C419.59,366.321,419.89,366.85,420.39,367.34"/>
	</g>
	<g>
		<defs>
			<polygon id="SVGID_11_" points="-45.03,46.03 481.55,46.03 481.55,773.901 -45.05,773.901 			"/>
		</defs>
		<clipPath id="SVGID_12_">
			<use xlink:href="#SVGID_11_"  overflow="visible"/>
		</clipPath>
		<path clip-path="url(#SVGID_12_)" fill="#231F20" d="M291.42,231.5v2.08h0.52v-4.65h-0.52V231h-2.699v-2.07h-0.5v4.65h0.5v-2.1
			h2.699V231.5z M285.66,229.4h1.561v-0.47h-3.66v0.48h1.569v4.18h0.53v-4.17V229.4z M282.26,231.88h-2.119l1.06-2.37l1.06,2.38
			V231.88z M281.46,228.9h-0.5l-2.12,4.68h0.54l0.55-1.23h2.541l0.539,1.23h0.58l-2.119-4.68H281.46z M276.52,233.1h-1.56v-1.63
			h1.47c0.801,0,1.24,0.3,1.24,0.8c0,0.53-0.439,0.84-1.15,0.84 M276.34,231.01h-1.38v-1.6h1.42c0.66,0,1.03,0.3,1.03,0.77
			c0,0.55-0.43,0.83-1.061,0.83 M276.43,228.94h-1.979v4.65h2.069c1.03,0,1.701-0.47,1.701-1.27c0-0.64-0.451-0.96-1-1.12
			c0.369-0.16,0.739-0.47,0.739-1.1c0-0.7-0.601-1.15-1.521-1.15"/>
	</g>
	<g>
		<defs>
			<polygon id="SVGID_13_" points="-45.03,46.03 481.55,46.03 481.55,773.901 -45.05,773.901 			"/>
		</defs>
		<clipPath id="SVGID_14_">
			<use xlink:href="#SVGID_13_"  overflow="visible"/>
		</clipPath>
		<path clip-path="url(#SVGID_14_)" fill="#231F20" d="M449.05,427.7h-0.87v1h0.87V427.7z M446.25,426.6v2.1h0.53v-4.65h-0.521v2.07
			h-2.7v-2.07h-0.5v4.65h0.5v-2.1h2.7H446.25z M442.13,427.959l-0.35-0.34c-0.44,0.43-0.86,0.68-1.5,0.68
			c-1.021,0-1.8-0.85-1.8-1.93s0.77-1.92,1.8-1.92c0.63,0,1.069,0.27,1.46,0.641l0.359-0.4c-0.46-0.43-0.97-0.73-1.8-0.73
			c-1.38,0-2.37,1.08-2.37,2.4c0,1.359,1,2.4,2.34,2.4C441.11,428.76,441.65,428.459,442.13,427.959 M437.05,424.04h-3.359v4.65
			h3.38v-0.48h-2.87v-1.629h2.55v-0.48h-2.54v-1.6h2.85v-0.471L437.05,424.04z M431.85,424.92v3.77h0.521v-4.65h-0.53l-1.7,2.541
			l-1.7-2.551h-0.529v4.65h0.529v-3.76l1.7,2.5h0.021l1.7-2.5H431.85z"/>
	</g>
	<g>
		<defs>
			<polygon id="SVGID_15_" points="-45.03,46.03 481.55,46.03 481.55,773.901 -45.05,773.901 			"/>
		</defs>
		<clipPath id="SVGID_16_">
			<use xlink:href="#SVGID_15_"  overflow="visible"/>
		</clipPath>
		<path clip-path="url(#SVGID_16_)" fill="#231F20" d="M330.65,228.04c-1.03,0-1.83-0.75-1.83-1.93v-1.08h3.68v1.1
			c0,1.17-0.8,1.92-1.85,1.92 M330.67,228.6c1.3,0,2.32-1.02,2.32-2.5v-1.6h-4.67v1.6c0,1.48,1.02,2.5,2.34,2.5 M328.32,223.12h1
			v-0.88h-1V223.12z M329.1,217.3l3.9-1.33v-0.57l-4.7,1.66v0.44l3.78,1.28l-3.78,1.28v0.45l4.7,1.67v-0.55l-3.9-1.33l3.9-1.3v-0.42
			L329.1,217.3z"/>
	</g>
	<g>
		<defs>
			<polygon id="SVGID_17_" points="-45.03,46.03 481.55,46.03 481.55,773.901 -45.05,773.901 			"/>
		</defs>
		<clipPath id="SVGID_18_">
			<use xlink:href="#SVGID_17_"  overflow="visible"/>
		</clipPath>
		<path clip-path="url(#SVGID_18_)" fill="#231F20" d="M409.1,138.2v3.8h0.521v-4.66h-0.53l-1.7,2.54l-1.699-2.54h-0.53V142h0.5
			v-3.77l1.7,2.5h0.029l1.7-2.5L409.1,138.2z M403.5,139.65c0,1.07-0.74,1.92-1.8,1.92c-1.061,0-1.84-0.87-1.84-1.93
			s0.76-1.9,1.819-1.9c1.061,0,1.83,0.85,1.83,1.9 M404.07,139.64c0-1.3-0.95-2.4-2.37-2.4s-2.4,1.12-2.4,2.4
			c0,1.3,0.96,2.42,2.38,2.42s2.38-1.13,2.38-2.42 M397.86,139.64c0,1.08-0.761,1.93-1.82,1.93s-1.84-0.87-1.84-1.93
			s0.76-1.9,1.83-1.9C397.09,137.74,397.86,138.59,397.86,139.64 M398.41,139.64c0-1.3-0.94-2.4-2.36-2.4s-2.38,1.12-2.38,2.4
			c0,1.3,0.95,2.42,2.37,2.42c1.4,0,2.38-1.13,2.38-2.42 M392.22,138.74c0,0.6-0.5,0.95-1.2,0.95h-1.42v-1.9h1.44
			c0.75,0,1.2,0.35,1.2,0.93 M392.939,141.97l-1.439-1.9c0.73-0.14,1.26-0.6,1.26-1.37c0-0.83-0.66-1.38-1.68-1.38h-2v4.66h0.52
			v-1.8h1.33l1.36,1.8h0.649V141.97z"/>
	</g>
	<g>
		<defs>
			<polygon id="SVGID_19_" points="-45.03,46.03 481.55,46.03 481.55,773.901 -45.05,773.901 			"/>
		</defs>
		<clipPath id="SVGID_20_">
			<use xlink:href="#SVGID_19_"  overflow="visible"/>
		</clipPath>
		<path clip-path="url(#SVGID_20_)" fill="#231F20" d="M424.93,132.84V131H423v0.46h1.42v1.16c-0.32,0.26-0.8,0.46-1.34,0.46
			c-1.13,0-1.85-0.82-1.85-1.94c0-1.04,0.739-1.9,1.77-1.9c0.66,0,1.06,0.2,1.42,0.52l0.34-0.4c-0.47-0.4-0.95-0.62-1.74-0.62
			c-1.399,0-2.329,1.13-2.329,2.4c0,1.35,0.899,2.42,2.359,2.42c0.78,0,1.431-0.33,1.87-0.72 M419.06,132.54l-2.939-3.72h-0.5v4.66
			h0.52v-3.82l3,3.8h0.431v-4.64h-0.5v3.73L419.06,132.54z M413.74,133.48h0.529v-4.66h-0.529V133.48z M410.54,132.83l-1.64-4h-0.58
			l2,4.68h0.47l2-4.68h-0.57l-1.67,4H410.54z M406.82,133.48h0.529v-4.66h-0.529V133.48z M402.66,133.48h3.14v-0.5h-2.6v-4.16h-0.53
			v4.66H402.66z M400.33,132.48h-0.87v1h0.87V132.48z M397.48,132.84V131h-1.931v0.46H397v1.16c-0.33,0.26-0.82,0.46-1.35,0.46
			c-1.131,0-1.851-0.82-1.851-1.94c0-1.04,0.74-1.9,1.771-1.9c0.66,0,1.06,0.2,1.42,0.52l0.33-0.4c-0.471-0.4-0.95-0.62-1.74-0.62
			c-1.4,0-2.34,1.13-2.34,2.4c0,1.35,0.9,2.42,2.369,2.42c0.78,0,1.431-0.33,1.86-0.72 M391.609,132.54l-2.939-3.72h-0.5v4.66h0.52
			v-3.82l3,3.8h0.431v-4.64h-0.5v3.73L391.609,132.54z M386.29,133.48h0.53v-4.66h-0.53V133.48z M384.42,132.55l-2.93-3.73h-0.5
			v4.66h0.52v-3.82l3,3.8h0.42v-4.64h-0.5v3.73H384.42z M379.12,133.48h0.5v-4.66h-0.5V133.48z M377.4,131.15
			c0,1.04-0.75,1.84-1.93,1.84h-1.101v-3.7h1.101c1.18,0,1.93,0.82,1.93,1.85 M377.95,131.14c0-1.33-1-2.33-2.48-2.33h-1.6v4.66h1.6
			c1.47,0,2.48-1.02,2.48-2.34"/>
	</g>
	<g>
		<defs>
			<polygon id="SVGID_21_" points="-45.03,46.03 481.55,46.03 481.55,773.901 -45.05,773.901 			"/>
		</defs>
		<clipPath id="SVGID_22_">
			<use xlink:href="#SVGID_21_"  overflow="visible"/>
		</clipPath>
		<path clip-path="url(#SVGID_22_)" fill="#231F20" d="M344.029,363.17h-3.35v4.65h0.53v-2.021h2.53v-0.479h-2.52v-1.67h2.819v-0.48
			H344.029z M339.59,363.17h-3.369v4.65h3.399v-0.48h-2.88v-1.631h2.539v-0.459h-2.549v-1.6h2.84v-0.471L339.59,363.17z
			 M334.561,364.571c0,0.6-0.5,0.969-1.201,0.969h-1.43v-1.9h1.44c0.75,0,1.2,0.361,1.2,0.941 M335.27,367.821l-1.439-1.9
			c0.73-0.131,1.26-0.58,1.26-1.361c0-0.84-0.66-1.398-1.68-1.398h-2v4.66h0.52v-1.801h1.33l1.35,1.801h0.65H335.27z"/>
	</g>
	<g>
		<defs>
			<polygon id="SVGID_23_" points="-45.03,46.03 481.55,46.03 481.55,773.901 -45.05,773.901 			"/>
		</defs>
		<clipPath id="SVGID_24_">
			<use xlink:href="#SVGID_23_"  overflow="visible"/>
		</clipPath>
		<path clip-path="url(#SVGID_24_)" fill="#231F20" d="M336.57,333.45l-1.33-3.879h-0.57l1.66,4.699h0.439l1.301-3.801l1.26,3.801
			h0.45l1.659-4.699h-0.549l-1.341,3.879l-1.28-3.9h-0.43l-1.279,3.9H336.57z M333.609,331.911c0,1.039-0.739,1.84-1.92,1.84h-1.1
			v-3.68h1.1c1.181,0,1.931,0.799,1.931,1.85 M334.18,331.92c0-1.32-1-2.33-2.479-2.33H330.1v4.66h1.601
			c1.47,0,2.479-1.02,2.479-2.34"/>
	</g>
	<path fill="#BBBDBF" d="M442.47,350.139h27.95v28.602h-27.95V350.139z M468.5,350.53v-91.5h-1.88v-21.4h2.2l0.04-172.75H457.06
		V47.97l22.54-0.04L479.97,447H462.4V406.04h-48.74v-6.5h57.63V378.1h-29.26v-27.529L468.5,350.53z"/>
	<g>
		<defs>
			<polygon id="SVGID_25_" points="-45.03,46.03 481.55,46.03 481.55,773.901 -45.05,773.901 			"/>
		</defs>
		<clipPath id="SVGID_26_">
			<use xlink:href="#SVGID_25_"  overflow="visible"/>
		</clipPath>
		<path clip-path="url(#SVGID_26_)" fill="#BBBDBF" d="M177.92,48.1h21.88V65l-7.25,0.86v138.3h29.57v10.76h-29.57V278H178
			C177.95,216.75,177.92,48.1,177.92,48.1"/>
	</g>
	<path fill="#FFFFFF" d="M193.27,217.3h30.7v59.4h-30.7V217.3z"/>
	<path fill="none" stroke="#000000" stroke-width="0.78" d="M193.27,217.3h30.7v59.4h-30.7V217.3z"/>
	<g>
		<defs>
			<polygon id="SVGID_27_" points="-45.03,46.03 481.55,46.03 481.55,773.901 -45.05,773.901 			"/>
		</defs>
		<clipPath id="SVGID_28_">
			<use xlink:href="#SVGID_27_"  overflow="visible"/>
		</clipPath>
		<circle clip-path="url(#SVGID_28_)" fill="none" stroke="#231F20" stroke-width="0.65" cx="208.478" cy="263.156" r="1.26"/>
	</g>
	<g>
		<defs>
			<polygon id="SVGID_29_" points="-45.03,46.03 481.55,46.03 481.55,773.901 -45.05,773.901 			"/>
		</defs>
		<clipPath id="SVGID_30_">
			<use xlink:href="#SVGID_29_"  overflow="visible"/>
		</clipPath>
		<path clip-path="url(#SVGID_30_)" fill="none" stroke="#000000" stroke-width="0.65" d="M208.53,220.7
			c8.8,0,12.02,2.02,12.02,4.86v43.399c0,0.701-0.18,2.131-2.03,2.131h-20c-1.85,0-2.04-1.45-2.04-2.141v-43.41
			c0-2.84,3.3-4.87,12.05-4.87V220.7z"/>
	</g>
	<g>
		<defs>
			<polygon id="SVGID_31_" points="-45.03,46.03 481.55,46.03 481.55,773.901 -45.05,773.901 			"/>
		</defs>
		<clipPath id="SVGID_32_">
			<use xlink:href="#SVGID_31_"  overflow="visible"/>
		</clipPath>
		<path clip-path="url(#SVGID_32_)" fill="none" stroke="#231F20" stroke-width="0.585" d="M203.13,273.299
			c0-0.719,0.58-1.299,1.3-1.299c0.7,0,1.28,0.58,1.28,1.299c0,0.701-0.57,1.301-1.28,1.281c-0.7,0-1.28-0.58-1.28-1.281H203.13z
			 M211.13,273.299c0-0.719,0.56-1.299,1.28-1.299c0.7,0,1.3,0.58,1.3,1.299c0,0.701-0.6,1.301-1.3,1.301
			C211.71,274.6,211.13,274,211.13,273.299z"/>
	</g>
	<g>
		<defs>
			<polygon id="SVGID_33_" points="-45.03,46.03 481.55,46.03 481.55,773.901 -45.05,773.901 			"/>
		</defs>
		<clipPath id="SVGID_34_">
			<use xlink:href="#SVGID_33_"  overflow="visible"/>
		</clipPath>
		<path clip-path="url(#SVGID_34_)" fill="#FFFFFF" d="M210.2,273.68c0,1.05-0.7,1.9-1.76,1.9c-1.05,0-1.63-0.851-1.63-1.9l0.7-7.27
			c0-0.701,1.92-0.701,1.92,0l0.8,7.279L210.2,273.68z"/>
	</g>
	<g>
		<defs>
			<polygon id="SVGID_35_" points="-45.03,46.03 481.55,46.03 481.55,773.901 -45.05,773.901 			"/>
		</defs>
		<clipPath id="SVGID_36_">
			<use xlink:href="#SVGID_35_"  overflow="visible"/>
		</clipPath>
		<path clip-path="url(#SVGID_36_)" fill="none" stroke="#231F20" stroke-width="0.585" d="M210.2,273.68c0,1.05-0.7,1.9-1.76,1.9
			c-1.05,0-1.63-0.851-1.63-1.9l0.7-7.27c0-0.701,1.92-0.701,1.92,0l0.8,7.279L210.2,273.68z"/>
	</g>
	<g>
		<defs>
			<polygon id="SVGID_37_" points="-45.03,46.03 481.55,46.03 481.55,773.901 -45.05,773.901 			"/>
		</defs>
		<clipPath id="SVGID_38_">
			<use xlink:href="#SVGID_37_"  overflow="visible"/>
		</clipPath>
		<path clip-path="url(#SVGID_38_)" fill="none" stroke="#000000" stroke-width="0.975" d="M385.5,363.5
			c0,15.93,12.9,28.83,28.8,28.83 M385.471,363.51H414.3v-1.65h-28.829v1.66V363.51z M229.27,233.15c15.92,0,28.82-12.9,28.82-28.82
			 M227.59,233.17h1.67v-28.84h-1.66v28.84H227.59z M377.029,439.241c0-15.92-12.899-28.82-28.819-28.82 M377.05,439.25h-28.84v1.66
			h28.84v-1.67V439.25z"/>
	</g>
	<g>
		<defs>
			<polygon id="SVGID_39_" points="-45.03,46.03 481.55,46.03 481.55,773.901 -45.05,773.901 			"/>
		</defs>
		<clipPath id="SVGID_40_">
			<use xlink:href="#SVGID_39_"  overflow="visible"/>
		</clipPath>
		<path clip-path="url(#SVGID_40_)" fill="#FFFFFF" d="M250.82,259.799c0-5.799-3.52-12.199-7.86-12.199
			c-4.35,0-7.87,6.4-7.87,12.199c0,5.801,3.5,8.82,7.86,8.82c4.34,0,7.86-3.02,7.86-8.82"/>
	</g>
	<g>
		<defs>
			<polygon id="SVGID_41_" points="-45.03,46.03 481.55,46.03 481.55,773.901 -45.05,773.901 			"/>
		</defs>
		<clipPath id="SVGID_42_">
			<use xlink:href="#SVGID_41_"  overflow="visible"/>
		</clipPath>
		<path clip-path="url(#SVGID_42_)" fill="none" stroke="#000000" stroke-width="0.78" d="M250.82,259.799
			c0-5.799-3.52-12.199-7.86-12.199c-4.35,0-7.87,6.4-7.87,12.199c0,5.801,3.5,8.82,7.86,8.82c4.34,0,7.86-3.02,7.86-8.82H250.82z"
			/>
	</g>
	<g>
		<defs>
			<polygon id="SVGID_43_" points="-45.03,46.03 481.55,46.03 481.55,773.901 -45.05,773.901 			"/>
		</defs>
		<clipPath id="SVGID_44_">
			<use xlink:href="#SVGID_43_"  overflow="visible"/>
		</clipPath>
		<path clip-path="url(#SVGID_44_)" fill="#FFFFFF" d="M238.25,266.7c0-0.3-0.27-0.58-0.6-0.58h-2.75c-0.32,0-0.6,0.271-0.6,0.601
			v0.1c0,0.32,0.28,0.601,0.6,0.601h2.75c0.33,0,0.6-0.28,0.6-0.601v-0.1V266.7z"/>
	</g>
	<g>
		<defs>
			<polygon id="SVGID_45_" points="-45.03,46.03 481.55,46.03 481.55,773.901 -45.05,773.901 			"/>
		</defs>
		<clipPath id="SVGID_46_">
			<use xlink:href="#SVGID_45_"  overflow="visible"/>
		</clipPath>
		<path clip-path="url(#SVGID_46_)" fill="none" stroke="#231F20" stroke-width="0.78" d="M238.25,266.7c0-0.3-0.27-0.58-0.6-0.58
			h-2.75c-0.32,0-0.6,0.271-0.6,0.601v0.1c0,0.32,0.28,0.601,0.6,0.601h2.75c0.33,0,0.6-0.28,0.6-0.601v-0.1V266.7z"/>
	</g>
	<g>
		<defs>
			<polygon id="SVGID_47_" points="-45.03,46.03 481.55,46.03 481.55,773.901 -45.05,773.901 			"/>
		</defs>
		<clipPath id="SVGID_48_">
			<use xlink:href="#SVGID_47_"  overflow="visible"/>
		</clipPath>
		<path clip-path="url(#SVGID_48_)" fill="#FFFFFF" d="M233.9,267.42c-1,0-1.8,2.67-1.8,3.66c0,1,0.8,3.66,1.8,3.66h17.97
			c0.98,0,1.78-2.671,1.78-3.66c0-1-0.8-3.66-1.78-3.66H233.9z"/>
	</g>
	<g>
		<defs>
			<polygon id="SVGID_49_" points="-45.03,46.03 481.55,46.03 481.55,773.901 -45.05,773.901 			"/>
		</defs>
		<clipPath id="SVGID_50_">
			<use xlink:href="#SVGID_49_"  overflow="visible"/>
		</clipPath>
		<path clip-path="url(#SVGID_50_)" fill="none" stroke="#000000" stroke-width="0.78" d="M233.9,267.42c-1,0-1.8,2.67-1.8,3.66
			c0,1,0.8,3.66,1.8,3.66h17.97c0.98,0,1.78-2.671,1.78-3.66c0-1-0.8-3.66-1.78-3.66H233.9z"/>
	</g>
	<g>
		<defs>
			<polygon id="SVGID_51_" points="-45.03,46.03 481.55,46.03 481.55,773.901 -45.05,773.901 			"/>
		</defs>
		<clipPath id="SVGID_52_">
			<use xlink:href="#SVGID_51_"  overflow="visible"/>
		</clipPath>
		<path clip-path="url(#SVGID_52_)" fill="#FFFFFF" d="M248.74,259.549c0-4.26-2.6-8.959-5.78-8.959c-3.2,0-5.78,4.699-5.78,8.949
			s2.58,6.48,5.78,6.48s5.78-2.221,5.78-6.48"/>
	</g>
	<g>
		<defs>
			<polygon id="SVGID_53_" points="-45.03,46.03 481.55,46.03 481.55,773.901 -45.05,773.901 			"/>
		</defs>
		<clipPath id="SVGID_54_">
			<use xlink:href="#SVGID_53_"  overflow="visible"/>
		</clipPath>
		<path clip-path="url(#SVGID_54_)" fill="none" stroke="#000000" stroke-width="0.65" d="M248.74,259.549
			c0-4.26-2.6-8.959-5.78-8.959c-3.2,0-5.78,4.699-5.78,8.949s2.58,6.48,5.78,6.48s5.78-2.221,5.78-6.48V259.549z"/>
	</g>
	<path fill="none" stroke="#231F20" stroke-width="0.78" d="M270.87,276.26V252.2h29.47v24.7"/>
	<path fill="none" stroke="#000000" stroke-width="0.78" d="M322.25,209.1v26.43 M322.25,230.37h-3.67l-0.85-3.17v-9.7l0.85-3.22
		h3.67 M339.17,235.53h-24.1v-26.25h24.1V235.53z"/>
	<path fill="#FFFFFF" d="M320.67,210.56v2.12l1.471,0.46v-3.05L320.67,210.56z"/>
	<path fill="none" stroke="#231F20" stroke-width="0.78" d="M320.67,210.56v2.12l1.471,0.46v-3.05L320.67,210.56z M346.7,240.72
		v105.851h-25.341"/>
	<path fill="#FFFFFF" d="M348.859,252.25l-25.68,0.199l-0.05,30.2l25.67-0.18L348.859,252.25z"/>
	<path fill="none" stroke="#000000" stroke-width="0.78" d="M348.859,252.25l-25.68,0.199l-0.05,30.2l25.67-0.18L348.859,252.25z"/>
	<path fill="none" stroke="#000000" stroke-width="0.39" d="M325.42,282.68v-30.26"/>
	<g>
		<defs>
			<polygon id="SVGID_55_" points="-45.03,46.03 481.55,46.03 481.55,773.901 -45.05,773.901 			"/>
		</defs>
		<clipPath id="SVGID_56_">
			<use xlink:href="#SVGID_55_"  overflow="visible"/>
		</clipPath>
		<path clip-path="url(#SVGID_56_)" fill="#FFFFFF" d="M334.7,273.629c-0.021-2.17-1.8-3.899-3.96-3.899
			c-2.17,0.021-3.92,1.8-3.9,3.96s1.801,3.9,3.96,3.9c2.16-0.03,3.921-1.801,3.9-3.971"/>
	</g>
	<g>
		<defs>
			<polygon id="SVGID_57_" points="-45.03,46.03 481.55,46.03 481.55,773.901 -45.05,773.901 			"/>
		</defs>
		<clipPath id="SVGID_58_">
			<use xlink:href="#SVGID_57_"  overflow="visible"/>
		</clipPath>
		<path clip-path="url(#SVGID_58_)" fill="none" stroke="#231F20" stroke-width="0.65" d="M334.7,273.629
			c-0.021-2.17-1.8-3.899-3.96-3.899c-2.17,0.021-3.92,1.8-3.9,3.96s1.801,3.9,3.96,3.9c2.16-0.03,3.921-1.801,3.9-3.971V273.629z"
			/>
	</g>
	<g>
		<defs>
			<polygon id="SVGID_59_" points="-45.03,46.03 481.55,46.03 481.55,773.901 -45.05,773.901 			"/>
		</defs>
		<clipPath id="SVGID_60_">
			<use xlink:href="#SVGID_59_"  overflow="visible"/>
		</clipPath>
		<path clip-path="url(#SVGID_60_)" fill="#FFFFFF" d="M334.6,261.86c0-2.17-1.779-3.92-3.949-3.9c-2.17,0.021-3.9,1.781-3.9,3.951
			c0.02,2.18,1.8,3.93,3.96,3.92c2.181-0.021,3.931-1.801,3.899-3.961"/>
	</g>
	<g>
		<defs>
			<polygon id="SVGID_61_" points="-45.03,46.03 481.55,46.03 481.55,773.901 -45.05,773.901 			"/>
		</defs>
		<clipPath id="SVGID_62_">
			<use xlink:href="#SVGID_61_"  overflow="visible"/>
		</clipPath>
		<path clip-path="url(#SVGID_62_)" fill="none" stroke="#231F20" stroke-width="0.65" d="M334.6,261.86
			c0-2.17-1.779-3.92-3.949-3.9c-2.17,0.021-3.9,1.781-3.9,3.951c0.02,2.18,1.8,3.93,3.96,3.92c2.181-0.021,3.931-1.801,3.899-3.961
			L334.6,261.86z"/>
	</g>
	<g>
		<defs>
			<polygon id="SVGID_63_" points="-45.03,46.03 481.55,46.03 481.55,773.901 -45.05,773.901 			"/>
		</defs>
		<clipPath id="SVGID_64_">
			<use xlink:href="#SVGID_63_"  overflow="visible"/>
		</clipPath>
		<path clip-path="url(#SVGID_64_)" fill="#FFFFFF" d="M345.4,273.549c-0.03-2.17-1.801-3.899-3.971-3.899
			c-2.17,0.021-3.92,1.8-3.9,3.96c0.021,2.18,1.801,3.93,3.961,3.9c2.16,0,3.9-1.78,3.9-3.95"/>
	</g>
	<g>
		<defs>
			<polygon id="SVGID_65_" points="-45.03,46.03 481.55,46.03 481.55,773.901 -45.05,773.901 			"/>
		</defs>
		<clipPath id="SVGID_66_">
			<use xlink:href="#SVGID_65_"  overflow="visible"/>
		</clipPath>
		<path clip-path="url(#SVGID_66_)" fill="none" stroke="#231F20" stroke-width="0.65" d="M345.4,273.549
			c-0.03-2.17-1.801-3.899-3.971-3.899c-2.17,0.021-3.92,1.8-3.9,3.96c0.021,2.18,1.801,3.93,3.961,3.9c2.16,0,3.9-1.78,3.9-3.95
			L345.4,273.549z"/>
	</g>
	<g>
		<defs>
			<polygon id="SVGID_67_" points="-45.03,46.03 481.55,46.03 481.55,773.901 -45.05,773.901 			"/>
		</defs>
		<clipPath id="SVGID_68_">
			<use xlink:href="#SVGID_67_"  overflow="visible"/>
		</clipPath>
		<path clip-path="url(#SVGID_68_)" fill="#FFFFFF" d="M345.3,261.78c-0.021-2.17-1.78-3.92-3.95-3.9
			c-2.18,0.021-3.92,1.801-3.899,3.961c0,2.16,1.78,3.9,3.96,3.9c2.17-0.021,3.92-1.801,3.9-3.961"/>
	</g>
	<g>
		<defs>
			<polygon id="SVGID_69_" points="-45.03,46.03 481.55,46.03 481.55,773.901 -45.05,773.901 			"/>
		</defs>
		<clipPath id="SVGID_70_">
			<use xlink:href="#SVGID_69_"  overflow="visible"/>
		</clipPath>
		<path clip-path="url(#SVGID_70_)" fill="none" stroke="#231F20" stroke-width="0.65" d="M345.3,261.78
			c-0.021-2.17-1.78-3.92-3.95-3.9c-2.18,0.021-3.92,1.801-3.899,3.961c0,2.16,1.78,3.9,3.96,3.9c2.17-0.021,3.92-1.801,3.9-3.961
			H345.3z"/>
	</g>
	<path fill="#FFFFFF" d="M348.76,253.299h1.2v28.171h-1.2V253.299z"/>
	<path fill="none" stroke="#231F20" stroke-width="0.78" d="M348.76,253.299h1.2v28.171h-1.2V253.299z"/>
	<g>
		<defs>
			<polygon id="SVGID_71_" points="-45.03,46.03 481.55,46.03 481.55,773.901 -45.05,773.901 			"/>
		</defs>
		<clipPath id="SVGID_72_">
			<use xlink:href="#SVGID_71_"  overflow="visible"/>
		</clipPath>
		<path clip-path="url(#SVGID_72_)" fill="none" stroke="#231F20" stroke-width="0.78" d="M428,352.25v47.299 M410.62,46.45h47.13
			 M338.8,46.43h47.12 M269.25,46.48h48.1 M199.05,46.45h44.93 M411.03,62.85h45.1 M341.07,62.52H384.3 M269.9,62.84h45.5
			 M200.67,62.84h42.9"/>
	</g>
	
		<path fill="none" stroke="#231F20" stroke-width="0.78" stroke-dasharray="1.891,1.891,1.891,1.891,1.891,1.891" stroke-dashoffset="3" d="
		M430.12,398.901V351.6"/>
	<g>
		<defs>
			<polygon id="SVGID_73_" points="-45.03,46.03 481.55,46.03 481.55,773.901 -45.05,773.901 			"/>
		</defs>
		<clipPath id="SVGID_74_">
			<use xlink:href="#SVGID_73_"  overflow="visible"/>
		</clipPath>
		<circle clip-path="url(#SVGID_74_)" fill="none" stroke="#000000" stroke-width="0.52" cx="285.574" cy="264.045" r="1.188"/>
	</g>
	<g>
		<defs>
			<polygon id="SVGID_75_" points="-45.03,46.03 481.55,46.03 481.55,773.901 -45.05,773.901 			"/>
		</defs>
		<clipPath id="SVGID_76_">
			<use xlink:href="#SVGID_75_"  overflow="visible"/>
		</clipPath>
		<path clip-path="url(#SVGID_76_)" fill="none" stroke="#000000" stroke-width="0.65" d="M285.57,273.879
			c0.64,0,1.16-0.52,1.16-1.159s-0.521-1.15-1.16-1.15c-0.641,0-1.15,0.521-1.15,1.15S284.939,273.879,285.57,273.879z
			 M286.1,266.68h-1.06v4.699h1.06V266.68z M290.77,271.5H280.37v2.5h10.399V271.5z"/>
	</g>
	<path fill="none" stroke="#000000" stroke-width="0.78" d="M275.05,255.299h21.06v19.07h-21.06V255.299z"/>
	<path fill="none" stroke="#000000" stroke-width="0.585" d="M276.67,256.93h17.76v14.52h-17.76V256.93z"/>
	<path fill="none" stroke="#000000" stroke-width="0.65" d="M351,347.469v35.75"/>
	<path fill="none" stroke="#000000" stroke-width="0.78" d="M353.13,360.17h1.46v2.76h-1.47L353.13,360.17z M323.04,347.7h30.06
		v35.23h-30.06V347.7z M353.13,368.87h1.46v2.76h-1.47L353.13,368.87z"/>
	<g>
		<defs>
			<polygon id="SVGID_77_" points="-45.03,46.03 481.55,46.03 481.55,773.901 -45.05,773.901 			"/>
		</defs>
		<clipPath id="SVGID_78_">
			<use xlink:href="#SVGID_77_"  overflow="visible"/>
		</clipPath>
		<path clip-path="url(#SVGID_78_)" fill="#FFFFFF" d="M326.029,290.161c-1,0-1.84,0.83-1.84,1.84v22.4c0,1.02,0.82,1.85,1.83,1.85
			h15.76c1,0,1.83-0.83,1.83-1.84V292c0-1-0.83-1.84-1.84-1.84H326H326.029z"/>
	</g>
	<g>
		<defs>
			<polygon id="SVGID_79_" points="-45.03,46.03 481.55,46.03 481.55,773.901 -45.05,773.901 			"/>
		</defs>
		<clipPath id="SVGID_80_">
			<use xlink:href="#SVGID_79_"  overflow="visible"/>
		</clipPath>
		<path clip-path="url(#SVGID_80_)" fill="none" stroke="#231F20" stroke-width="0.78" d="M326.029,290.161
			c-1,0-1.84,0.83-1.84,1.84v22.4c0,1.02,0.82,1.85,1.83,1.85h15.76c1,0,1.83-0.83,1.83-1.84V292c0-1-0.83-1.84-1.84-1.84H326
			H326.029z"/>
	</g>
	<g>
		<defs>
			<polygon id="SVGID_81_" points="-45.03,46.03 481.55,46.03 481.55,773.901 -45.05,773.901 			"/>
		</defs>
		<clipPath id="SVGID_82_">
			<use xlink:href="#SVGID_81_"  overflow="visible"/>
		</clipPath>
		<path clip-path="url(#SVGID_82_)" fill="#FFFFFF" d="M328.5,312.45c0,1.031,0.83,1.9,1.85,1.9h9.461
			c1.029-0.02,1.859-0.869,1.859-1.9v-18.43c0-1.04-0.83-1.9-1.85-1.9h-9.45c-1.021,0-1.851,0.86-1.851,1.9v18.43H328.5z"/>
	</g>
	<g>
		<defs>
			<polygon id="SVGID_83_" points="-45.03,46.03 481.55,46.03 481.55,773.901 -45.05,773.901 			"/>
		</defs>
		<clipPath id="SVGID_84_">
			<use xlink:href="#SVGID_83_"  overflow="visible"/>
		</clipPath>
		<path clip-path="url(#SVGID_84_)" fill="none" stroke="#231F20" stroke-width="0.585" d="M328.5,312.45c0,1.031,0.83,1.9,1.85,1.9
			h9.461c1.029-0.02,1.859-0.869,1.859-1.9v-18.43c0-1.04-0.83-1.9-1.85-1.9h-9.45c-1.021,0-1.851,0.86-1.851,1.9v18.43H328.5z"/>
	</g>
	<g>
		<defs>
			<polygon id="SVGID_85_" points="-45.03,46.03 481.55,46.03 481.55,773.901 -45.05,773.901 			"/>
		</defs>
		<clipPath id="SVGID_86_">
			<use xlink:href="#SVGID_85_"  overflow="visible"/>
		</clipPath>
		<path clip-path="url(#SVGID_86_)" fill="#FFFFFF" d="M335.3,301.629c-0.771,0-1.399,0.631-1.399,1.4s0.629,1.381,1.399,1.381
			c0.761,0,1.4-0.601,1.4-1.371c0-0.77-0.64-1.399-1.4-1.399"/>
	</g>
	<g>
		<defs>
			<polygon id="SVGID_87_" points="-45.03,46.03 481.55,46.03 481.55,773.901 -45.05,773.901 			"/>
		</defs>
		<clipPath id="SVGID_88_">
			<use xlink:href="#SVGID_87_"  overflow="visible"/>
		</clipPath>
		<path clip-path="url(#SVGID_88_)" fill="none" stroke="#231F20" stroke-width="0.52" d="M335.3,301.629
			c-0.771,0-1.399,0.631-1.399,1.4s0.629,1.381,1.399,1.381c0.761,0,1.4-0.601,1.4-1.371c0-0.77-0.64-1.399-1.4-1.399V301.629z"/>
	</g>
	<g>
		<defs>
			<polygon id="SVGID_89_" points="-45.03,46.03 481.55,46.03 481.55,773.901 -45.05,773.901 			"/>
		</defs>
		<clipPath id="SVGID_90_">
			<use xlink:href="#SVGID_89_"  overflow="visible"/>
		</clipPath>
		<path clip-path="url(#SVGID_90_)" fill="#FFFFFF" d="M326.3,298.049c-0.75,0-1.43,0.601-1.43,1.341v7.3
			c0,0.74,0.68,1.34,1.42,1.34s1.42-0.6,1.42-1.34v-7.3c0-0.75-0.7-1.351-1.43-1.351"/>
	</g>
	<g>
		<defs>
			<polygon id="SVGID_91_" points="-45.03,46.03 481.55,46.03 481.55,773.901 -45.05,773.901 			"/>
		</defs>
		<clipPath id="SVGID_92_">
			<use xlink:href="#SVGID_91_"  overflow="visible"/>
		</clipPath>
		<path clip-path="url(#SVGID_92_)" fill="none" stroke="#231F20" stroke-width="0.52" d="M326.3,298.049
			c-0.75,0-1.43,0.601-1.43,1.341v7.3c0,0.74,0.68,1.34,1.42,1.34s1.42-0.6,1.42-1.34v-7.3c0-0.75-0.7-1.351-1.43-1.351
			L326.3,298.049z"/>
	</g>
	<g>
		<defs>
			<polygon id="SVGID_93_" points="-45.03,46.03 481.55,46.03 481.55,773.901 -45.05,773.901 			"/>
		</defs>
		<clipPath id="SVGID_94_">
			<use xlink:href="#SVGID_93_"  overflow="visible"/>
		</clipPath>
		<path clip-path="url(#SVGID_94_)" fill="#FFFFFF" d="M334.07,297.56l-6.801,6.271c-0.399,0.35-1,0.319-1.359-0.08
			c-0.35-0.4-0.301-1,0.1-1.351l7.051-6c0.33-0.271,1.34,0.88,1.02,1.16"/>
	</g>
	<g>
		<defs>
			<polygon id="SVGID_95_" points="-45.03,46.03 481.55,46.03 481.55,773.901 -45.05,773.901 			"/>
		</defs>
		<clipPath id="SVGID_96_">
			<use xlink:href="#SVGID_95_"  overflow="visible"/>
		</clipPath>
		<path clip-path="url(#SVGID_96_)" fill="none" stroke="#231F20" stroke-width="0.65" d="M334.07,297.56l-6.801,6.271
			c-0.399,0.35-1,0.319-1.359-0.08c-0.35-0.4-0.301-1,0.1-1.351l7.051-6c0.33-0.271,1.34,0.88,1.02,1.16H334.07z"/>
	</g>
	<g>
		<defs>
			<polygon id="SVGID_97_" points="-45.03,46.03 481.55,46.03 481.55,773.901 -45.05,773.901 			"/>
		</defs>
		<clipPath id="SVGID_98_">
			<use xlink:href="#SVGID_97_"  overflow="visible"/>
		</clipPath>
		<path clip-path="url(#SVGID_98_)" fill="#FFFFFF" d="M329.66,303.84h-3.301c-0.34,0-0.629-0.301-0.629-0.65
			c0-0.359,0.299-0.641,0.64-0.641h3.3c0.35,0,0.63,0.281,0.63,0.641s-0.28,0.641-0.64,0.641"/>
	</g>
	<g>
		<defs>
			<polygon id="SVGID_99_" points="-45.03,46.03 481.55,46.03 481.55,773.901 -45.05,773.901 			"/>
		</defs>
		<clipPath id="SVGID_100_">
			<use xlink:href="#SVGID_99_"  overflow="visible"/>
		</clipPath>
		<path clip-path="url(#SVGID_100_)" fill="none" stroke="#231F20" stroke-width="0.52" d="M329.66,303.84h-3.301
			c-0.34,0-0.629-0.301-0.629-0.65c0-0.359,0.299-0.641,0.64-0.641h3.3c0.35,0,0.63,0.281,0.63,0.641s-0.28,0.641-0.64,0.641V303.84
			z"/>
	</g>
	<g>
		<defs>
			<polygon id="SVGID_101_" points="-45.03,46.03 481.55,46.03 481.55,773.901 -45.05,773.901 			"/>
		</defs>
		<clipPath id="SVGID_102_">
			<use xlink:href="#SVGID_101_"  overflow="visible"/>
		</clipPath>
		<path clip-path="url(#SVGID_102_)" fill="#FFFFFF" d="M326.42,305.22c-0.43,0-0.77,0.35-0.77,0.771c0,0.42,0.35,0.76,0.77,0.76
			c0.4,0,0.76-0.34,0.76-0.771s-0.34-0.78-0.76-0.78"/>
	</g>
	<g>
		<defs>
			<polygon id="SVGID_103_" points="-45.03,46.03 481.55,46.03 481.55,773.901 -45.05,773.901 			"/>
		</defs>
		<clipPath id="SVGID_104_">
			<use xlink:href="#SVGID_103_"  overflow="visible"/>
		</clipPath>
		<path clip-path="url(#SVGID_104_)" fill="none" stroke="#231F20" stroke-width="0.455" d="M326.42,305.22
			c-0.43,0-0.77,0.35-0.77,0.771c0,0.42,0.35,0.76,0.77,0.76c0.4,0,0.76-0.34,0.76-0.771s-0.34-0.78-0.76-0.78V305.22z"/>
	</g>
	<g>
		<defs>
			<polygon id="SVGID_105_" points="-45.03,46.03 481.55,46.03 481.55,773.901 -45.05,773.901 			"/>
		</defs>
		<clipPath id="SVGID_106_">
			<use xlink:href="#SVGID_105_"  overflow="visible"/>
		</clipPath>
		<path clip-path="url(#SVGID_106_)" fill="#FFFFFF" d="M326.35,299.32c-0.42,0-0.77,0.351-0.77,0.771c0,0.4,0.35,0.76,0.77,0.76
			s0.76-0.35,0.76-0.77c0-0.431-0.329-0.781-0.75-0.781"/>
	</g>
	<g>
		<defs>
			<polygon id="SVGID_107_" points="-45.03,46.03 481.55,46.03 481.55,773.901 -45.05,773.901 			"/>
		</defs>
		<clipPath id="SVGID_108_">
			<use xlink:href="#SVGID_107_"  overflow="visible"/>
		</clipPath>
		<path clip-path="url(#SVGID_108_)" fill="none" stroke="#231F20" stroke-width="0.455" d="M326.35,299.32
			c-0.42,0-0.77,0.351-0.77,0.771c0,0.4,0.35,0.76,0.77,0.76s0.76-0.35,0.76-0.77c0-0.431-0.329-0.781-0.75-0.781L326.35,299.32z"/>
	</g>
	
		<path fill="none" stroke="#000000" stroke-width="0.65" stroke-dasharray="1.936,1.936,1.936,1.936,1.936,1.936" stroke-dashoffset="3" d="
		M344.2,342.94h-18.4"/>
	
		<path fill="none" stroke="#000000" stroke-width="0.65" stroke-dasharray="1.899,1.899,1.899,1.899,1.899,1.899" stroke-dashoffset="3" d="
		M323.88,340.1v-18.051"/>
	
		<path fill="none" stroke="#000000" stroke-width="0.65" stroke-dasharray="1.892,1.892,1.892,1.892,1.892,1.892" stroke-dashoffset="3" d="
		M326.7,320.161h18"/>
	<path fill="none" stroke="#000000" stroke-width="0.65" d="M345.641,320.161h0.939 M323.88,321.11v-0.939h0.94 M324.85,342.95
		h-0.97V342 M347.109,342.94h-0.959 M346.58,320.12h2.47v22.82h-1.94"/>
	<g>
		<defs>
			<polygon id="SVGID_109_" points="-45.03,46.03 481.55,46.03 481.55,773.901 -45.05,773.901 			"/>
		</defs>
		<clipPath id="SVGID_110_">
			<use xlink:href="#SVGID_109_"  overflow="visible"/>
		</clipPath>
		<path clip-path="url(#SVGID_110_)" fill="none" stroke="#231F20" stroke-width="3.9" d="M269.9,52.27h47.119 M339.12,52.27h45.18
			 M411.6,52.27h43.221 M462.84,446.571v-40.98h-48.97l0.439-5.631h56.08V377 M468.09,348.68v-89.551h-1.02V237.73h1.3l0.07-172.75
			H456.64V48.07l22.971-0.04l-0.061,399.5"/>
	</g>
	<g>
		<defs>
			<polygon id="SVGID_111_" points="-45.03,46.03 481.55,46.03 481.55,773.901 -45.05,773.901 			"/>
		</defs>
		<clipPath id="SVGID_112_">
			<use xlink:href="#SVGID_111_"  overflow="visible"/>
		</clipPath>
		<path clip-path="url(#SVGID_112_)" fill="none" stroke="#231F20" stroke-width="3.9" d="M201,52.27h43.22"/>
	</g>
	<g>
		<defs>
			<polygon id="SVGID_113_" points="-45.03,46.03 481.55,46.03 481.55,773.901 -45.05,773.901 			"/>
		</defs>
		<clipPath id="SVGID_114_">
			<use xlink:href="#SVGID_113_"  overflow="visible"/>
		</clipPath>
		<path clip-path="url(#SVGID_114_)" fill="none" stroke="#231F20" stroke-width="5.2" d="M481.5,447.5H348.221v-6.68"/>
	</g>
	<path fill="none" stroke="#231F20" stroke-width="6.5" d="M328.07,206.5v-27.3 M328.07,147.67V64.8"/>
	<g>
		<defs>
			<polygon id="SVGID_115_" points="-45.03,46.03 481.55,46.03 481.55,773.901 -45.05,773.901 			"/>
		</defs>
		<clipPath id="SVGID_116_">
			<use xlink:href="#SVGID_115_"  overflow="visible"/>
		</clipPath>
		<path clip-path="url(#SVGID_116_)" fill="none" stroke="#231F20" stroke-width="5.2" d="M257.939,205h85.4l0.631,34.64H319.8
			l-0.06,146.3h28.48v24.881 M472.37,378.741h-29.9v-28.602 M470.09,350.139H413.65v11.701 M413.65,392.241v18.039 M413.65,440.481
			v7.158"/>
	</g>
	<path fill="none" stroke="#231F20" stroke-width="0.78" d="M331.221,109.97h1.949v47.12h-1.949V109.97z"/>
	<path fill="#BBBDBF" d="M245.27,48.06V65l23.839-0.12V48.02L245.27,48.06z"/>
	<g>
		<defs>
			<polygon id="SVGID_117_" points="-45.03,46.03 481.55,46.03 481.55,773.901 -45.05,773.901 			"/>
		</defs>
		<clipPath id="SVGID_118_">
			<use xlink:href="#SVGID_117_"  overflow="visible"/>
		</clipPath>
		<path clip-path="url(#SVGID_118_)" fill="none" stroke="#231F20" stroke-width="3.9" d="M245.27,48.06V65l23.839-0.12V48.02
			L245.27,48.06z"/>
	</g>
	<path fill="#BBBDBF" d="M315.7,48v16.93l23.819-0.06V48.02L315.7,48z"/>
	<g>
		<defs>
			<polygon id="SVGID_119_" points="-45.03,46.03 481.55,46.03 481.55,773.901 -45.05,773.901 			"/>
		</defs>
		<clipPath id="SVGID_120_">
			<use xlink:href="#SVGID_119_"  overflow="visible"/>
		</clipPath>
		<path clip-path="url(#SVGID_120_)" fill="none" stroke="#231F20" stroke-width="3.9" d="M315.7,48v16.93l23.819-0.06V48.02
			L315.7,48z"/>
	</g>
	<path fill="#BBBDBF" d="M386.2,48v16.93l23.84-0.06V48.02L386.2,48z"/>
	<g>
		<defs>
			<polygon id="SVGID_121_" points="-45.03,46.03 481.55,46.03 481.55,773.901 -45.05,773.901 			"/>
		</defs>
		<clipPath id="SVGID_122_">
			<use xlink:href="#SVGID_121_"  overflow="visible"/>
		</clipPath>
		<path clip-path="url(#SVGID_122_)" fill="none" stroke="#231F20" stroke-width="3.9" d="M386.2,48v16.93l23.84-0.06V48.02
			L386.2,48z"/>
	</g>
	<g>
		<defs>
			<polygon id="SVGID_123_" points="-45.03,46.03 481.55,46.03 481.55,773.901 -45.05,773.901 			"/>
		</defs>
		<clipPath id="SVGID_124_">
			<use xlink:href="#SVGID_123_"  overflow="visible"/>
		</clipPath>
		<path clip-path="url(#SVGID_124_)" fill="none" stroke="#231F20" stroke-width="3.9" d="M319.641,278.26l-127.701-0.08v-63.1
			L222.4,215v-10.13 M202.62,278.25l-24.54-0.131V48.02h21.44v17.97l-7.58-0.07V204.5l35.38,0.04"/>
	</g>
	<path fill="none" stroke="#231F20" stroke-width="0.78" d="M412.52,399.7h1.95v47.131h-1.95V399.7z"/>
	
		<path fill="none" stroke="#231F20" stroke-width="3.9" stroke-dasharray="5.873,1.873,5.873,1.873,5.873,1.873" stroke-dashoffset="7" d="
		M465.1,65.44v284.699"/>
	<path fill="#FFFFFF" d="M344.54,50.7h18.58v3.15h-18.58V50.7z"/>
	<path fill="none" stroke="#000000" stroke-width="0.78" d="M344.54,50.7h18.58v3.15h-18.58V50.7z M363.12,52.2h-18.47"/>
	<path fill="#FFFFFF" d="M363.17,50.7h19.07v3.15h-19.07V50.7z"/>
	<path fill="none" stroke="#000000" stroke-width="0.78" d="M363.17,50.7h19.07v3.15h-19.07V50.7z M382.24,52.2h-19.07"/>
	<path fill="#FFFFFF" d="M414.42,50.7H433v3.15h-18.58V50.7z"/>
	<path fill="none" stroke="#000000" stroke-width="0.78" d="M414.42,50.7H433v3.15h-18.58V50.7z M433,52.2h-18.47"/>
	<path fill="#FFFFFF" d="M433.05,50.7h19.07v3.15h-19.07V50.7z"/>
	<path fill="none" stroke="#000000" stroke-width="0.78" d="M433.05,50.7h19.07v3.15h-19.07V50.7z M452.12,52.2h-19.07"/>
	<path fill="#FFFFFF" d="M204,50.7h18.58v3.15H204V50.7z"/>
	<path fill="none" stroke="#000000" stroke-width="0.78" d="M204,50.7h18.58v3.15H204V50.7z M222.58,52.2H204.1"/>
	<path fill="#FFFFFF" d="M222.63,50.7h19.07v3.15h-19.07V50.7z"/>
	<path fill="none" stroke="#000000" stroke-width="0.78" d="M222.63,50.7h19.07v3.15h-19.07V50.7z M241.7,52.2h-19.06"/>
	<path fill="#FFFFFF" d="M273.2,50.7h18.6v3.15h-18.6V50.7z"/>
	<path fill="none" stroke="#000000" stroke-width="0.78" d="M273.2,50.7h18.6v3.15h-18.6V50.7z M291.8,52.2h-18.5"/>
	<path fill="#FFFFFF" d="M291.84,50.7H310.9v3.15H291.84V50.7z"/>
	<path fill="none" stroke="#000000" stroke-width="0.78" d="M291.84,50.7H310.9v3.15H291.84V50.7z M310.9,52.2H291.84"/>
	<g>
		<defs>
			<polygon id="SVGID_125_" points="-45.03,46.03 481.55,46.03 481.55,773.901 -45.05,773.901 			"/>
		</defs>
		<clipPath id="SVGID_126_">
			<use xlink:href="#SVGID_125_"  overflow="visible"/>
		</clipPath>
		<path clip-path="url(#SVGID_126_)" fill="#231F20" d="M275.48,137.4H275l-0.46,1.55h0.3L275.48,137.4z M274.54,137.4h-0.47
			l-0.48,1.55h0.301l0.639-1.55H274.54z M272.04,140.2c0,0.53-0.399,0.95-1,0.95c-0.62,0-1.069-0.4-1.069-0.94
			c0-0.47,0.42-0.92,1.049-0.92c0.601,0,1.03,0.38,1.03,0.9 M272.38,137.72c-0.36-0.3-0.729-0.47-1.239-0.47
			c-1.101,0-1.74,1-1.74,2.28c0,0.88,0.199,1.3,0.52,1.65c0.27,0.26,0.65,0.42,1.1,0.42c0.86,0,1.521-0.6,1.521-1.4
			c0-0.8-0.67-1.3-1.46-1.3c-0.6,0-0.96,0.3-1.2,0.64c0-1.07,0.479-1.84,1.24-1.84c0.38,0,0.68,0.15,1,0.4l0.26-0.35V137.72z
			 M267.82,137.42h-0.471l-0.47,1.55h0.3L267.82,137.42z M264.141,137.64l0.1,0.4l0.8-0.26v3.74h0.47v-4.23h-0.34l-1.02,0.35
			H264.141z M261.24,137.64l0.1,0.4l0.801-0.26v3.74h0.469v-4.23h-0.34L261.24,137.64L261.24,137.64z M257.87,141.02l-1.12-1.5
			l1.08-1.44h-0.38l-0.9,1.2l-0.9-1.2h-0.4l1.1,1.44l-1.14,1.5h0.4l0.94-1.26l0.94,1.26h0.4H257.87z M252.27,137.42h-0.47
			l-0.48,1.55h0.3L252.27,137.42z M251.32,137.42h-0.47l-0.47,1.55h0.3L251.32,137.42z M247.72,137.64l0.1,0.4l0.8-0.26v3.74h0.47
			v-4.23h-0.36l-1.03,0.35H247.72z M246.34,137.42h-0.47l-0.47,1.55h0.3L246.34,137.42z M242.66,137.64l0.1,0.4l0.8-0.26v3.74h0.47
			v-4.23h-0.35L242.66,137.64L242.66,137.64z M239.76,137.64l0.1,0.4l0.8-0.26v3.74h0.47v-4.23h-0.35l-1.03,0.35H239.76z"/>
	</g>
	<g>
		<defs>
			<polygon id="SVGID_127_" points="-45.03,46.03 481.55,46.03 481.55,773.901 -45.05,773.901 			"/>
		</defs>
		<clipPath id="SVGID_128_">
			<use xlink:href="#SVGID_127_"  overflow="visible"/>
		</clipPath>
		<path clip-path="url(#SVGID_128_)" fill="#231F20" d="M274.74,129.7v3.78h0.529v-4.66h-0.529l-1.7,2.54l-1.7-2.54h-0.529v4.66
			h0.529v-3.77l1.7,2.5h0.021l1.699-2.5L274.74,129.7z M269.16,131.15c0,1.07-0.76,1.92-1.83,1.92c-1.061,0-1.83-0.87-1.83-1.93
			s0.76-1.9,1.82-1.9c1.07,0,1.84,0.85,1.84,1.9 M269.7,131.14c0-1.3-0.95-2.4-2.36-2.4c-1.42,0-2.4,1.12-2.4,2.4
			c0,1.3,0.961,2.42,2.381,2.42S269.7,132.43,269.7,131.14 M263.5,131.14c0,1.08-0.75,1.93-1.82,1.93c-1.06,0-1.83-0.87-1.83-1.93
			s0.75-1.9,1.82-1.9C262.73,129.24,263.5,130.09,263.5,131.14 M264.05,131.14c0-1.3-0.95-2.4-2.37-2.4c-1.399,0-2.38,1.12-2.38,2.4
			c0,1.3,0.95,2.42,2.37,2.42S264.05,132.43,264.05,131.14 M257.85,130.24c0,0.6-0.5,0.95-1.2,0.95h-1.43v-1.9h1.44
			c0.75,0,1.199,0.35,1.199,0.93 M258.561,133.47l-1.44-1.9c0.729-0.14,1.26-0.6,1.26-1.37c0-0.83-0.649-1.38-1.68-1.38h-2v4.66
			h0.52v-1.8h1.33l1.35,1.8h0.65L258.561,133.47z M253.04,131.14c0,1.04-0.75,1.84-1.92,1.84h-1.1v-3.7h1.1
			c1.17,0,1.92,0.82,1.92,1.85 M253.59,131.13c0-1.33-1.02-2.33-2.48-2.33h-1.62v4.66h1.62c1.46,0,2.47-1.02,2.47-2.34
			 M248.38,128.8h-3.36v4.66h3.4V133h-2.87v-1.63h2.54v-0.48h-2.53v-1.6h2.84v-0.48L248.38,128.8z M242.3,132.98h-1.56v-1.64h1.47
			c0.8,0,1.24,0.3,1.24,0.8C243.45,132.67,243.01,132.98,242.3,132.98 M242.12,130.88h-1.38v-1.6h1.42c0.66,0,1.03,0.3,1.03,0.76
			c0,0.55-0.43,0.84-1.06,0.84 M242.23,128.8h-2v4.66h2.07c1.03,0,1.7-0.48,1.7-1.28c0-0.65-0.44-0.97-1-1.13
			c0.37-0.16,0.74-0.47,0.74-1.1c0-0.7-0.6-1.15-1.52-1.15"/>
	</g>
</g>
<g>
	<defs>
		<rect id="SVGID_129_" x="44.73" y="146.46" width="100.15" height="4.56"/>
	</defs>
	<clipPath id="SVGID_130_">
		<use xlink:href="#SVGID_129_"  overflow="visible"/>
	</clipPath>
	<path clip-path="url(#SVGID_130_)" fill="#231F20" d="M144.87,146.84v-0.3h-3.4v0.3H143v4.1h0.34v-4.1H144.87z M139.07,150.94v-0.3
		h-2.83v-1.77h2.53v-0.3h-2.53v-1.73h2.8v-0.3h-3.13v4.4h3.18H139.07z M133.21,150.94v-0.3h-2.83v-1.77h2.52v-0.3h-2.53v-1.73h2.8
		v-0.3h-3.13v4.4H133.21z M126.94,147.81c0,0.65-0.55,1.02-1.28,1.02h-1.5v-1.98h1.52C126.48,146.85,126.94,147.22,126.94,147.81z
		 M127.44,150.96l-1.46-1.9c0.74-0.1,1.3-0.5,1.3-1.25s-0.63-1.26-1.58-1.26h-1.87v4.4h0.33v-1.82h1.44l1.4,1.83h0.42H127.44z
		 M121.19,146.86v-0.3h-3.4v0.3h1.54v4.1h0.33v-4.1H121.19z M115.47,149.82c0-0.65-0.43-1.02-1.45-1.22
		c-1.03-0.22-1.27-0.5-1.27-0.97c0-0.46,0.43-0.83,1.07-0.83c0.5,0,0.9,0.14,1.32,0.5l0.2-0.26c-0.44-0.35-0.86-0.53-1.5-0.53
		c-0.82,0-1.42,0.5-1.42,1.16v0.02c0,0.66,0.43,1.02,1.48,1.24c1,0.2,1.25,0.46,1.25,0.93c0,0.5-0.45,0.88-1.1,0.88
		c-0.66,0-1.1-0.2-1.6-0.64l-0.2,0.24c0.52,0.48,1.06,0.7,1.77,0.7c0.85,0,1.46-0.48,1.46-1.2 M104.32,150.99v-4.4h-0.3v3.82
		l-3.06-3.83h-0.3v4.4h0.3v-3.9l3.1,3.9h0.26V150.99z M97.54,148.79c0,1.1-0.78,1.98-1.87,1.98s-1.88-0.9-1.88-2
		s0.78-1.97,1.87-1.97c1.09,0,1.88,0.9,1.88,1.98v0.02V148.79z M97.89,148.79c0,0,0,0,0-0.02c0-1.2-0.88-2.27-2.22-2.27
		c-1.33,0-2.22,1.08-2.22,2.28c0,1.22,0.88,2.28,2.2,2.28c1.34,0,2.24-1.07,2.24-2.28 M91.34,146.88v-0.3h-3.4v0.3h1.54v4.1h0.33
		v-4.1h1.52H91.34z M85.54,150.4v-1.7h-1.78v0.3h1.47v1.27c-0.3,0.27-0.83,0.5-1.4,0.5c-1.17,0-1.9-0.85-1.9-2
		c0-1.06,0.76-1.97,1.83-1.97c0.67,0,1.07,0.22,1.42,0.53l0.22-0.26c-0.44-0.36-0.9-0.58-1.62-0.58c-1.3,0-2.18,1.1-2.18,2.28v0.02
		c0,1.24,0.83,2.27,2.22,2.27c0.7,0,1.33-0.3,1.72-0.67 M78.84,150.99v-4.42h-0.33v3.83l-3.05-3.83h-0.3v4.4h0.3v-3.9l3.1,3.9h0.26
		L78.84,150.99z M72.14,146.57h-0.32v4.4h0.33v-4.4H72.14z M68.82,150.97v-4.4h-0.33v2.04h-2.82v-2.04h-0.33v4.4h0.33v-2.06h2.82
		v2.07h0.33V150.97z M62.62,149.84c0-0.65-0.44-1.02-1.46-1.22c-1.04-0.22-1.28-0.5-1.28-0.97c0-0.46,0.43-0.83,1.07-0.83
		c0.5,0,0.9,0.14,1.32,0.5l0.2-0.26c-0.44-0.35-0.86-0.53-1.5-0.53c-0.82,0-1.42,0.5-1.42,1.16v0.02c0,0.66,0.43,1.02,1.48,1.24
		c1,0.2,1.26,0.46,1.26,0.93c0,0.5-0.45,0.88-1.1,0.88c-0.66,0-1.1-0.2-1.6-0.64l-0.2,0.24c0.52,0.48,1.06,0.7,1.77,0.7
		c0.85,0,1.46-0.48,1.46-1.2 M56.1,149.48h-2.32l1.17-2.55l1.16,2.55H56.1z M57.16,151.01l-2.05-4.44h-0.33l-2.05,4.45h0.34
		l0.56-1.24h2.6l0.57,1.25h0.34L57.16,151.01z M51.06,146.61h-0.34l-1.38,3.9l-1.3-3.93h-0.25l-1.3,3.94l-1.38-3.92h-0.37l1.6,4.44
		h0.26l1.3-3.83l1.28,3.83h0.26l1.6-4.44L51.06,146.61z"/>
</g>
<g id="Layer_1_1_">
	<g>
		<polygon points="45.4,387.128 78.318,369.834 78.318,405.635 		"/>
		<polygon points="121.249,387.128 88.331,369.834 88.331,405.635 		"/>
		<polygon points="82.867,322.049 64.666,387.889 100.968,387.889 		"/>
		<g>
			<polygon fill="#FFFFFF" points="65.47,388.339 100.161,388.339 82.767,448.938 			"/>
			<path d="M99.356,388.946l-16.587,57.786l-16.495-57.786H99.356 M100.968,387.733H64.666l18.099,63.41L100.968,387.733
				L100.968,387.733z"/>
		</g>
		<g>
			<path fill="#FFFFFF" d="M87.034,367.108h3.148v18.225h-2.682l-10.05-12.965v12.965h-3.15v-18.225h2.968l9.763,12.602v-12.602
				H87.034z"/>
		</g>
	</g>
</g>
</svg>
