<?xml version="1.0" encoding="utf-8"?>
<!-- Generator: Adobe Illustrator 15.0.0, SVG Export Plug-In . SVG Version: 6.00 Build 0)  -->
<!DOCTYPE svg PUBLIC "-//W3C//DTD SVG 1.1//EN" "http://www.w3.org/Graphics/SVG/1.1/DTD/svg11.dtd">
<svg version="1.1" id="Layer_1" xmlns="http://www.w3.org/2000/svg" xmlns:xlink="http://www.w3.org/1999/xlink" x="0px" y="0px"
	 width="513.359px" height="495.36px" viewBox="0 0 513.359 495.36" enable-background="new 0 0 513.359 495.36"
	 xml:space="preserve">
<g id="Layer_4">
	<rect x="78.555" y="47.736" fill="#FFFFFF" width="33.15" height="44.2"/>
	<rect x="111.705" y="47.736" fill="#FFFFFF" width="33.149" height="44.2"/>
	<polygon fill="#FFFFFF" points="144.005,99.587 144.005,91.937 120.205,91.937 120.205,99.587 111.705,99.587 111.705,141.237 
		144.854,141.237 144.854,99.587 	"/>
	<polygon fill="#FFFFFF" points="78.555,98.737 58.155,98.737 58.155,120.837 45.405,120.837 45.405,141.237 78.555,141.237 	"/>
	<polygon fill="#FFFFFF" points="77.705,98.737 77.705,141.237 111.705,141.237 111.705,124.237 104.905,124.237 104.905,110.637 
		88.755,110.637 88.755,97.887 	"/>
	<polygon fill="#BBBDBF" points="45.405,46.887 45.405,74.936 48.804,74.936 59.854,74.936 59.854,85.137 64.104,85.137 
		64.104,91.936 77.705,91.936 77.705,46.887 	"/>
	<g>
		<g>
			<defs>
				<rect id="SVGID_1_" x="-45.035" y="46.035" width="526.585" height="727.87"/>
			</defs>
			<clipPath id="SVGID_2_">
				<use xlink:href="#SVGID_1_"  overflow="visible"/>
			</clipPath>
			<polygon clip-path="url(#SVGID_2_)" fill="none" stroke="#262626" stroke-width="2.053" stroke-miterlimit="10" points="
				144.878,141.468 45.156,141.468 45.156,47.172 78.446,47.172 144.878,47.172 			"/>
		</g>
		<g>
			<defs>
				<rect id="SVGID_3_" x="-45.035" y="46.035" width="526.585" height="727.87"/>
			</defs>
			<clipPath id="SVGID_4_">
				<use xlink:href="#SVGID_3_"  overflow="visible"/>
			</clipPath>
			<path clip-path="url(#SVGID_4_)" fill="none" stroke="#262626" stroke-width="1.173" stroke-miterlimit="10" d="M58.502,99.087
				h61.445v-7.332 M48.823,84.715h11.293 M48.53,92.635h9.973v0.879 M58.502,96.741v24.197H46.037 M45.157,92.635h3.372V74.597
				h11.586v10.558h3.959v6.893h81.098 M78.3,141.762V98.745 M111.589,141.762V98.745 M111.589,91.461V47.833 M78.153,91.461V47.833"
				/>
		</g>
		<g>
			<defs>
				<rect id="SVGID_5_" x="-45.035" y="46.035" width="526.585" height="727.87"/>
			</defs>
			<clipPath id="SVGID_6_">
				<use xlink:href="#SVGID_5_"  overflow="visible"/>
			</clipPath>
			<path clip-path="url(#SVGID_6_)" fill="none" stroke="#000000" stroke-width="0.425" d="M55.153,93.437
				c0,1.795,1.455,3.251,3.251,3.251 M55.151,93.437h3.253v-0.188h-3.253V93.437z M110.196,102.242
				c-1.796,0-3.251-1.456-3.251-3.251 M110.383,102.244h-0.188v-3.253h0.188V102.244z M77.147,102.166
				c-1.795,0-3.251-1.455-3.251-3.251 M77.334,102.168h-0.188v-3.253h0.188V102.168z M113.05,102.239
				c1.795,0,3.251-1.454,3.251-3.251 M112.863,102.242h0.188v-3.253h-0.188V102.242z M80.361,102.166
				c1.795,0,3.251-1.455,3.251-3.251 M80.174,102.168h0.187v-3.253h-0.187V102.168z M113.663,88.637
				c1.796,0,3.251,1.455,3.251,3.251 M113.476,88.635h0.188v3.253h-0.188V88.635z M94.688,88.528c-1.795,0-3.251,1.456-3.251,3.251
				 M94.876,88.526h-0.188v3.253h0.188V88.526z M67.521,90.794c0-1.796-1.456-3.252-3.251-3.252 M67.523,90.794H64.27v0.187h3.253
				V90.794z"/>
		</g>
	</g>
	<path fill="none" stroke="#000000" stroke-width="0.452" d="M49.111,107.886l8.957,0.004 M45.854,109.083l12.214,0.003
		 M45.835,110.282l12.204,0.009 M45.877,111.479l12.231,0.006 M45.918,112.677l12.19,0.003 M45.918,113.874l12.19,0.006
		 M45.939,115.126l12.17-0.002"/>
	<path fill="none" stroke="#000000" stroke-width="0.425" d="M45.883,110.637l3.666-2.693l-0.19-0.557l0.925,0.877l-0.261-0.64
		l1.77-1.07 M45.549,99.93h6.378 M45.549,101.128h6.378 M45.549,102.325h6.378 M45.549,103.523h6.378 M45.549,104.72h6.378
		 M45.549,105.918h6.317 M45.427,107.116H50.9 M45.781,108.069h3.556"/>
	<line fill="none" stroke="#000000" stroke-width="0.452" x1="51.361" y1="106.688" x2="58.122" y2="106.688"/>
	<path fill="none" stroke="#000000" stroke-width="0.425" d="M94.187,98.932l0.929,2.883l0.587-0.048l-1.075,0.684l0.684-0.098
		l0.611,2.127 M103.328,99.468v4.986 M102.13,99.468v4.986 M100.933,99.468v4.986 M99.735,99.468v4.986 M98.537,99.468v4.889
		 M97.34,99.468v4.889 M96.142,99.468v4.889 M94.944,99.468v1.655"/>
	<path fill="#FFFFFF" d="M92.378,105.188h11.292v-0.586H92.378V105.188z M103.963,105.48H92.084v-1.173h11.879V105.48z"/>
	<path fill="none" stroke="#262626" stroke-width="0.425" d="M92.378,105.188h11.292v-0.586H92.378V105.188z M103.963,105.48H92.084
		v-1.173h11.879V105.48z"/>
	<path fill="#FFFFFF" d="M52.114,115.395h0.588v-15.332h-0.588V115.395z M51.821,99.663h1.174v16.128h-1.174V99.663z"/>
	<path fill="none" stroke="#262626" stroke-width="0.495" d="M52.114,115.395h0.588v-15.332h-0.588V115.395z M51.821,99.663h1.174
		v16.128h-1.174V99.663z"/>
	<path fill="none" stroke="#000000" stroke-width="0.425" d="M94.843,102.45v1.931 M93.645,99.493v4.888 M92.448,99.493v4.888
		 M94.793,105.533v4.888 M93.596,105.533v4.888 M92.398,105.533v4.888 M103.426,105.508v4.987 M102.228,105.508v4.987
		 M101.031,105.508v4.987 M99.707,105.508v4.987 M98.509,105.508v4.889 M97.311,105.508v4.889 M96.114,105.508v4.889"/>
	<path fill="none" stroke="#262626" stroke-width="1.173" stroke-miterlimit="10" d="M104.696,104.66v6.452 M88.271,99.086v11.292
		h16.425v13.199h6.745"/>
	<path fill="none" stroke="#000000" stroke-width="0.442" d="M104.938,110.135h6.295 M104.938,111.332h6.295 M104.938,112.53h6.295
		 M104.938,113.728h6.295 M104.938,114.925h6.295 M104.938,116.123h6.295 M104.938,117.321h6.295 M104.938,118.518h6.295
		 M104.938,119.716h6.295 M104.938,120.913h6.295 M104.938,122.111h6.295"/>
	<g>
		<path d="M56.605,77.648H53.24v1.547h2.982v0.935H53.24v1.598h3.407v0.935h-4.453v-5.949h4.411L56.605,77.648L56.605,77.648z"/>
	</g>
	<g>
		<g>
			<defs>
				<rect id="SVGID_7_" x="-45.035" y="46.035" width="526.585" height="727.87"/>
			</defs>
			<clipPath id="SVGID_8_">
				<use xlink:href="#SVGID_7_"  overflow="visible"/>
			</clipPath>
		</g>
		<g>
			<defs>
				<rect id="SVGID_9_" x="-45.035" y="46.035" width="526.585" height="727.87"/>
			</defs>
			<clipPath id="SVGID_10_">
				<use xlink:href="#SVGID_9_"  overflow="visible"/>
			</clipPath>
			<path clip-path="url(#SVGID_10_)" fill="#231F20" d="M421.086,302.338l-2.933-3.73h-0.492v4.655h0.513v-3.817l3.006,3.817h0.419
				v-4.655h-0.513V302.338z M416.571,298.607h-3.365v4.655h3.397v-0.479h-2.872v-1.63h2.54v-0.479h-2.54v-1.588h2.84V298.607z
				 M411.364,301.168v2.095h0.525v-4.655h-0.525v2.068h-2.687v-2.068h-0.525v4.655h0.525v-2.095H411.364z M407.235,302.525
				l-0.347-0.34c-0.445,0.426-0.865,0.672-1.503,0.672c-1.023,0-1.802-0.845-1.802-1.929s0.771-1.915,1.802-1.915
				c0.632,0,1.07,0.266,1.463,0.639l0.358-0.387c-0.465-0.438-0.971-0.738-1.814-0.738c-1.37,0-2.354,1.084-2.354,2.414
				c0,1.345,0.99,2.401,2.334,2.401C406.217,303.342,406.748,303.018,407.235,302.525 M401.018,299.094h1.562v-0.486h-3.656v0.486
				h1.562v4.169h0.531L401.018,299.094L401.018,299.094z M397.366,303.263h0.524v-4.655h-0.524V303.263z M394.421,300.643
				l1.994-2.035h-0.678l-2.675,2.78v-2.78h-0.523v4.655h0.523v-1.25l0.991-1.005l1.789,2.255h0.658L394.421,300.643z"/>
		</g>
		<g>
			<defs>
				<rect id="SVGID_11_" x="-45.035" y="46.035" width="526.585" height="727.87"/>
			</defs>
			<clipPath id="SVGID_12_">
				<use xlink:href="#SVGID_11_"  overflow="visible"/>
			</clipPath>
			<path clip-path="url(#SVGID_12_)" fill="#231F20" d="M423.836,388.219v1.564h0.485v-3.658h-0.485v1.562h-4.169v0.531H423.836
				L423.836,388.219z M424.322,385.368v-3.365h-4.654v3.398h0.479v-2.873h1.629v2.539h0.479v-2.539h1.589v2.84H424.322
				L424.322,385.368z M423.157,378.151c0.426,0,0.758,0.387,0.758,0.99c0,0.48-0.152,0.912-0.505,1.344l0.404,0.307
				c0.38-0.471,0.572-0.957,0.572-1.635c0-0.885-0.532-1.529-1.276-1.529c-0.771,0-1.117,0.492-1.35,1.562
				c-0.207,0.977-0.453,1.209-0.893,1.209c-0.473,0-0.798-0.412-0.798-1.037c0-0.646,0.22-1.109,0.658-1.598l-0.386-0.324
				c-0.499,0.559-0.745,1.164-0.745,1.9c0,0.926,0.52,1.59,1.324,1.59c0.718,0,1.097-0.479,1.322-1.516
				C422.466,378.391,422.713,378.151,423.157,378.151 M421.988,376.124c-1.063,0-1.916-0.758-1.916-1.822
				c0-1.062,0.864-1.836,1.93-1.836c1.062,0,1.914,0.758,1.914,1.822S423.052,376.124,421.988,376.124 M422.001,376.668
				c1.289,0,2.399-0.951,2.399-2.367s-1.124-2.381-2.413-2.381c-1.29,0-2.4,0.951-2.4,2.367S420.711,376.668,422.001,376.668
				 M419.667,368.276v3.146h0.483v-2.621h4.171v-0.523h-4.654V368.276z M420.405,367.358l0.339-0.346
				c-0.426-0.445-0.672-0.863-0.672-1.504c0-1.023,0.846-1.801,1.93-1.801s1.914,0.77,1.914,1.801c0,0.633-0.267,1.072-0.639,1.463
				l0.386,0.359c0.438-0.465,0.738-0.969,0.738-1.814c0-1.369-1.084-2.354-2.413-2.354c-1.345,0-2.4,0.99-2.4,2.334
				C419.587,366.342,419.912,366.874,420.405,367.358"/>
		</g>
		<g>
			<defs>
				<rect id="SVGID_13_" x="-45.035" y="46.035" width="526.585" height="727.87"/>
			</defs>
			<clipPath id="SVGID_14_">
				<use xlink:href="#SVGID_13_"  overflow="visible"/>
			</clipPath>
			<path clip-path="url(#SVGID_14_)" fill="#231F20" d="M291.419,231.489v2.095h0.524v-4.655h-0.524v2.068h-2.688v-2.068h-0.524
				v4.655h0.524v-2.095H291.419z M285.66,229.414h1.562v-0.485h-3.658v0.485h1.563v4.17h0.532L285.66,229.414L285.66,229.414z
				 M282.263,231.882h-2.122l1.064-2.374L282.263,231.882z M281.458,228.896h-0.492l-2.122,4.688h0.539l0.552-1.229h2.534
				l0.545,1.229h0.565L281.458,228.896z M276.523,233.112h-1.562v-1.643h1.47c0.812,0,1.237,0.293,1.237,0.805
				C277.668,232.799,277.229,233.112,276.523,233.112 M276.338,231.004h-1.377v-1.603h1.416c0.665,0,1.031,0.299,1.031,0.765
				C277.408,230.718,276.969,231.004,276.338,231.004 M276.424,228.929h-1.981v4.655h2.067c1.019,0,1.69-0.472,1.69-1.277
				c0-0.645-0.446-0.964-0.998-1.13c0.365-0.16,0.736-0.472,0.736-1.084C277.939,229.381,277.342,228.929,276.424,228.929"/>
		</g>
		<g>
			<defs>
				<rect id="SVGID_15_" x="-45.035" y="46.035" width="526.585" height="727.87"/>
			</defs>
			<clipPath id="SVGID_16_">
				<use xlink:href="#SVGID_15_"  overflow="visible"/>
			</clipPath>
			<path clip-path="url(#SVGID_16_)" fill="#231F20" d="M449.05,427.706h-0.874v0.996h0.874V427.706z M446.261,426.608v2.096h0.523
				v-4.654h-0.523v2.066h-2.688v-2.066h-0.523v4.654h0.523v-2.096H446.261z M442.131,427.965l-0.347-0.34
				c-0.444,0.426-0.863,0.672-1.503,0.672c-1.022,0-1.802-0.846-1.802-1.93s0.771-1.914,1.802-1.914c0.631,0,1.07,0.266,1.463,0.639
				l0.359-0.385c-0.466-0.439-0.971-0.738-1.816-0.738c-1.369,0-2.354,1.084-2.354,2.414c0,1.342,0.991,2.398,2.334,2.398
				C441.113,428.782,441.646,428.458,442.131,427.965 M437.051,424.049h-3.365v4.654h3.397v-0.479h-2.873v-1.629h2.541v-0.479
				h-2.541v-1.59h2.841V424.049L437.051,424.049z M431.844,424.932v3.771h0.523v-4.654h-0.531l-1.694,2.539l-1.696-2.539h-0.532
				v4.654h0.514v-3.764l1.694,2.486h0.026L431.844,424.932z"/>
		</g>
		<g>
			<defs>
				<rect id="SVGID_17_" x="-45.035" y="46.035" width="526.585" height="727.87"/>
			</defs>
			<clipPath id="SVGID_18_">
				<use xlink:href="#SVGID_17_"  overflow="visible"/>
			</clipPath>
			<path clip-path="url(#SVGID_18_)" fill="#231F20" d="M330.653,228.042c-1.037,0-1.836-0.752-1.836-1.929v-1.091h3.686v1.091
				C332.502,227.29,331.69,228.042,330.653,228.042 M330.667,228.586c1.315,0,2.319-1.011,2.319-2.474v-1.616h-4.654v1.616
				C328.332,227.576,329.35,228.586,330.667,228.586 M328.332,223.117h0.997v-0.874h-0.997V223.117z M329.11,217.301l3.877-1.33
				v-0.572l-4.688,1.663v0.439l3.776,1.283l-3.776,1.277v0.445l4.688,1.663v-0.552l-3.877-1.33l3.892-1.277v-0.432L329.11,217.301z"
				/>
		</g>
		<g>
			<defs>
				<rect id="SVGID_19_" x="-45.035" y="46.035" width="526.585" height="727.87"/>
			</defs>
			<clipPath id="SVGID_20_">
				<use xlink:href="#SVGID_19_"  overflow="visible"/>
			</clipPath>
			<path clip-path="url(#SVGID_20_)" fill="#231F20" d="M409.1,138.205v3.771h0.524v-4.655h-0.53l-1.696,2.54l-1.696-2.54h-0.531
				v4.655h0.513v-3.764l1.695,2.487h0.026L409.1,138.205z M403.514,139.654c0,1.064-0.759,1.915-1.822,1.915
				s-1.835-0.864-1.835-1.928s0.758-1.915,1.822-1.915C402.741,137.727,403.514,138.59,403.514,139.654 M404.06,139.642
				c0-1.29-0.951-2.401-2.368-2.401c-1.416,0-2.38,1.124-2.38,2.414c0,1.29,0.951,2.401,2.367,2.401
				C403.096,142.056,404.06,140.932,404.06,139.642 M397.861,139.654c0,1.064-0.758,1.915-1.821,1.915s-1.835-0.864-1.835-1.928
				s0.758-1.915,1.821-1.915C397.09,137.727,397.861,138.59,397.861,139.654 M398.406,139.642c0-1.29-0.951-2.401-2.366-2.401
				c-1.416,0-2.381,1.124-2.381,2.414c0,1.29,0.95,2.401,2.367,2.401C397.442,142.056,398.406,140.932,398.406,139.642
				 M392.209,138.73c0,0.605-0.499,0.964-1.196,0.964h-1.431v-1.888h1.437C391.771,137.807,392.209,138.151,392.209,138.73
				 M392.907,141.976l-1.431-1.902c0.731-0.133,1.265-0.585,1.265-1.363c0-0.838-0.659-1.39-1.684-1.39h-2.001v4.655h0.524v-1.809
				h1.33l1.351,1.809H392.907z"/>
		</g>
		<g>
			<defs>
				<rect id="SVGID_21_" x="-45.035" y="46.035" width="526.585" height="727.87"/>
			</defs>
			<clipPath id="SVGID_22_">
				<use xlink:href="#SVGID_21_"  overflow="visible"/>
			</clipPath>
			<path clip-path="url(#SVGID_22_)" fill="#231F20" d="M424.927,132.843v-1.855h-1.923v0.472h1.417v1.157
				c-0.319,0.26-0.812,0.466-1.345,0.466c-1.13,0-1.842-0.825-1.842-1.942c0-1.044,0.738-1.915,1.77-1.915
				c0.658,0,1.059,0.219,1.417,0.532l0.34-0.399c-0.467-0.393-0.951-0.619-1.736-0.619c-1.396,0-2.334,1.131-2.334,2.414
				c0,1.337,0.904,2.401,2.367,2.401C423.843,133.555,424.493,133.229,424.927,132.843 M419.068,132.551l-2.933-3.731h-0.492v4.655
				h0.512v-3.817l3.006,3.817h0.419v-4.655h-0.512V132.551z M413.754,133.476h0.524v-4.655h-0.524V133.476z M410.562,132.831
				l-1.656-4.01h-0.585l2.002,4.688h0.465l2.003-4.688h-0.564L410.562,132.831z M406.831,133.476h0.525v-4.655h-0.525V133.476z
				 M402.669,133.476h3.146v-0.485h-2.62v-4.17h-0.524L402.669,133.476L402.669,133.476z M400.339,132.479h-0.874v0.997h0.874
				V132.479z M397.494,132.843v-1.855h-1.92v0.472h1.415v1.157c-0.318,0.26-0.811,0.466-1.343,0.466
				c-1.131,0-1.842-0.825-1.842-1.942c0-1.044,0.737-1.915,1.77-1.915c0.657,0,1.057,0.219,1.415,0.532l0.339-0.399
				c-0.465-0.393-0.95-0.619-1.734-0.619c-1.396,0-2.334,1.131-2.334,2.414c0,1.337,0.904,2.401,2.367,2.401
				C396.41,133.555,397.063,133.229,397.494,132.843 M391.638,132.551l-2.934-3.731h-0.492v4.655h0.513v-3.817l3.006,3.817h0.419
				v-4.655h-0.512V132.551L391.638,132.551z M386.324,133.476h0.524v-4.655h-0.524V133.476z M384.448,132.551l-2.932-3.731h-0.492
				v4.655h0.513v-3.817l3.005,3.817h0.419v-4.655h-0.513V132.551z M379.136,133.476h0.524v-4.655h-0.524V133.476z M377.434,131.154
				c0,1.038-0.752,1.836-1.93,1.836h-1.09v-3.684h1.09C376.682,129.307,377.434,130.117,377.434,131.154 M377.979,131.142
				c0-1.317-1.011-2.321-2.475-2.321h-1.615v4.655h1.615C376.968,133.476,377.979,132.458,377.979,131.142"/>
		</g>
		<g>
			<defs>
				<rect id="SVGID_23_" x="-45.035" y="46.035" width="526.585" height="727.87"/>
			</defs>
			<clipPath id="SVGID_24_">
				<use xlink:href="#SVGID_23_"  overflow="visible"/>
			</clipPath>
			<path clip-path="url(#SVGID_24_)" fill="#231F20" d="M344.026,363.168h-3.345v4.654h0.525v-2.027h2.521v-0.479h-2.521v-1.664
				h2.818L344.026,363.168L344.026,363.168z M339.591,363.168h-3.365v4.654h3.399v-0.479h-2.873v-1.629h2.54v-0.479h-2.54v-1.59
				h2.839V363.168z M334.57,364.579c0,0.604-0.499,0.963-1.195,0.963h-1.432v-1.889h1.438
				C334.132,363.653,334.57,363.999,334.57,364.579 M335.269,367.823l-1.43-1.902c0.73-0.133,1.264-0.584,1.264-1.361
				c0-0.84-0.659-1.391-1.683-1.391h-2.001v4.654h0.523v-1.809h1.33l1.352,1.809H335.269z"/>
		</g>
		<g>
			<defs>
				<rect id="SVGID_25_" x="-45.035" y="46.035" width="526.585" height="727.87"/>
			</defs>
			<clipPath id="SVGID_26_">
				<use xlink:href="#SVGID_25_"  overflow="visible"/>
			</clipPath>
			<path clip-path="url(#SVGID_26_)" fill="#231F20" d="M336.574,333.45l-1.33-3.877h-0.571l1.661,4.688h0.438l1.284-3.777
				l1.275,3.777h0.445l1.662-4.688h-0.552l-1.33,3.877l-1.275-3.891h-0.434L336.574,333.45z M333.614,331.907
				c0,1.037-0.752,1.836-1.929,1.836h-1.09v-3.686h1.09C332.862,330.059,333.614,330.87,333.614,331.907 M334.159,331.893
				c0-1.314-1.012-2.32-2.475-2.32h-1.616v4.654h1.616C333.148,334.227,334.159,333.211,334.159,331.893"/>
		</g>
	</g>
	<rect x="442.474" y="350.141" fill="#BBBDBF" width="27.95" height="28.602"/>
	<polygon fill="#BBBDBF" points="468.515,350.53 468.515,259.036 466.621,259.036 466.621,237.621 468.809,237.621 468.862,64.882 
		457.073,64.892 457.073,47.964 479.601,47.92 479.974,446.991 462.407,446.991 462.407,406.042 413.657,406.042 413.657,399.542 
		471.289,399.542 471.289,378.092 442.039,378.092 442.039,350.575 	"/>
	<g>
		<g>
			<defs>
				<rect id="SVGID_27_" x="-45.035" y="46.035" width="526.585" height="727.87"/>
			</defs>
			<clipPath id="SVGID_28_">
				<use xlink:href="#SVGID_27_"  overflow="visible"/>
			</clipPath>
			<path clip-path="url(#SVGID_28_)" fill="#BBBDBF" d="M177.924,48.087h21.875v16.937l-7.25,0.854V204.19h29.575v10.75h-29.575
				v63.051l-14.563,0.004c-0.036-61.25-0.062-229.908-0.062-229.883"/>
		</g>
	</g>
	<rect x="193.267" y="217.293" fill="#FFFFFF" width="30.712" height="59.401"/>
	<rect x="193.267" y="217.293" fill="none" stroke="#000000" stroke-width="0.78" width="30.712" height="59.401"/>
	<g>
		<g>
			<defs>
				<rect id="SVGID_29_" x="-45.035" y="46.035" width="526.585" height="727.87"/>
			</defs>
			<clipPath id="SVGID_30_">
				<use xlink:href="#SVGID_29_"  overflow="visible"/>
			</clipPath>
			<circle clip-path="url(#SVGID_30_)" fill="none" stroke="#231F20" stroke-width="0.65" cx="208.478" cy="263.156" r="1.26"/>
		</g>
		<g>
			<defs>
				<rect id="SVGID_31_" x="-45.035" y="46.035" width="526.585" height="727.87"/>
			</defs>
			<clipPath id="SVGID_32_">
				<use xlink:href="#SVGID_31_"  overflow="visible"/>
			</clipPath>
			<path clip-path="url(#SVGID_32_)" fill="none" stroke="#000000" stroke-width="0.65" d="M208.529,220.686
				c8.804,0,12.025,2.031,12.025,4.878v43.392c0,0.693-0.188,2.131-2.029,2.131h-9.996h-0.02h-9.997
				c-1.84,0-2.028-1.438-2.028-2.131v-43.364l0.002-0.028C196.486,222.716,199.783,220.686,208.529,220.686z"/>
		</g>
		<g>
			<defs>
				<rect id="SVGID_33_" x="-45.035" y="46.035" width="526.585" height="727.87"/>
			</defs>
			<clipPath id="SVGID_34_">
				<use xlink:href="#SVGID_33_"  overflow="visible"/>
			</clipPath>
			<path clip-path="url(#SVGID_34_)" fill="none" stroke="#231F20" stroke-width="0.585" d="M203.135,273.295
				c-0.008-0.713,0.579-1.285,1.287-1.285c0.706,0,1.288,0.572,1.288,1.285c0,0.707-0.582,1.291-1.288,1.285
				C203.711,274.586,203.135,274.002,203.135,273.295z M211.12,273.295c-0.003-0.713,0.572-1.285,1.293-1.285
				c0.697,0,1.276,0.572,1.281,1.285c-0.005,0.707-0.584,1.291-1.281,1.291C211.692,274.586,211.116,274.01,211.12,273.295z"/>
		</g>
		<g>
			<defs>
				<rect id="SVGID_35_" x="-45.035" y="46.035" width="526.585" height="727.87"/>
			</defs>
			<clipPath id="SVGID_36_">
				<use xlink:href="#SVGID_35_"  overflow="visible"/>
			</clipPath>
			<path clip-path="url(#SVGID_36_)" fill="#FFFFFF" d="M210.212,273.676c0,1.056-0.714,1.908-1.771,1.912
				c-1.053-0.004-1.63-0.856-1.63-1.912l0.678-7.27c0-0.714,1.928-0.714,1.928,0L210.212,273.676z"/>
		</g>
		<g>
			<defs>
				<rect id="SVGID_37_" x="-45.035" y="46.035" width="526.585" height="727.87"/>
			</defs>
			<clipPath id="SVGID_38_">
				<use xlink:href="#SVGID_37_"  overflow="visible"/>
			</clipPath>
			<path clip-path="url(#SVGID_38_)" fill="none" stroke="#231F20" stroke-width="0.585" d="M210.212,273.676
				c0,1.056-0.714,1.908-1.771,1.912c-1.053-0.004-1.63-0.856-1.63-1.912l0.678-7.27c0-0.714,1.928-0.714,1.928,0L210.212,273.676z"
				/>
		</g>
		<g>
			<defs>
				<rect id="SVGID_39_" x="-45.035" y="46.035" width="526.585" height="727.87"/>
			</defs>
			<clipPath id="SVGID_40_">
				<use xlink:href="#SVGID_39_"  overflow="visible"/>
			</clipPath>
			<path clip-path="url(#SVGID_40_)" fill="none" stroke="#000000" stroke-width="0.975" d="M385.487,363.512
				c0,15.914,12.9,28.818,28.818,28.818 M385.469,363.512h28.836v-1.662h-28.836V363.512z M229.273,233.141
				c15.915,0,28.818-12.901,28.818-28.819 M227.613,233.158h1.659v-28.836h-1.659V233.158z M377.042,439.227
				c0-15.916-12.901-28.818-28.818-28.818 M377.06,439.227h-28.836v1.66h28.836V439.227z"/>
		</g>
		<g>
			<defs>
				<rect id="SVGID_41_" x="-45.035" y="46.035" width="526.585" height="727.87"/>
			</defs>
			<clipPath id="SVGID_42_">
				<use xlink:href="#SVGID_41_"  overflow="visible"/>
			</clipPath>
			<path clip-path="url(#SVGID_42_)" fill="#FFFFFF" d="M250.823,259.795c0-5.803-3.522-12.19-7.867-12.19
				c-4.346,0-7.866,6.39-7.866,12.19s3.521,8.82,7.866,8.82C247.3,268.616,250.823,265.597,250.823,259.795"/>
		</g>
		<g>
			<defs>
				<rect id="SVGID_43_" x="-45.035" y="46.035" width="526.585" height="727.87"/>
			</defs>
			<clipPath id="SVGID_44_">
				<use xlink:href="#SVGID_43_"  overflow="visible"/>
			</clipPath>
			<path clip-path="url(#SVGID_44_)" fill="none" stroke="#000000" stroke-width="0.78" d="M250.823,259.795
				c0-5.803-3.522-12.19-7.867-12.19c-4.346,0-7.866,6.39-7.866,12.19s3.521,8.82,7.866,8.82
				C247.3,268.616,250.823,265.597,250.823,259.795z"/>
		</g>
		<g>
			<defs>
				<rect id="SVGID_45_" x="-45.035" y="46.035" width="526.585" height="727.87"/>
			</defs>
			<clipPath id="SVGID_46_">
				<use xlink:href="#SVGID_45_"  overflow="visible"/>
			</clipPath>
			<path clip-path="url(#SVGID_46_)" fill="#FFFFFF" d="M238.245,266.713c0-0.324-0.268-0.592-0.592-0.592H234.9
				c-0.323,0-0.591,0.268-0.591,0.592v0.101c0,0.325,0.268,0.593,0.591,0.593h2.754c0.324,0,0.592-0.268,0.592-0.593V266.713z"/>
		</g>
		<g>
			<defs>
				<rect id="SVGID_47_" x="-45.035" y="46.035" width="526.585" height="727.87"/>
			</defs>
			<clipPath id="SVGID_48_">
				<use xlink:href="#SVGID_47_"  overflow="visible"/>
			</clipPath>
			<path clip-path="url(#SVGID_48_)" fill="none" stroke="#231F20" stroke-width="0.78" d="M238.245,266.713
				c0-0.324-0.268-0.592-0.592-0.592H234.9c-0.323,0-0.591,0.268-0.591,0.592v0.101c0,0.325,0.268,0.593,0.591,0.593h2.754
				c0.324,0,0.592-0.268,0.592-0.593V266.713z"/>
		</g>
		<g>
			<defs>
				<rect id="SVGID_49_" x="-45.035" y="46.035" width="526.585" height="727.87"/>
			</defs>
			<clipPath id="SVGID_50_">
				<use xlink:href="#SVGID_49_"  overflow="visible"/>
			</clipPath>
			<path clip-path="url(#SVGID_50_)" fill="#FFFFFF" d="M233.893,267.42c-0.983,0-1.788,2.674-1.788,3.66
				c0,0.987,0.805,3.662,1.788,3.662h17.973c0.986,0,1.787-2.675,1.787-3.662c0-0.986-0.801-3.658-1.787-3.658L233.893,267.42z"/>
		</g>
		<g>
			<defs>
				<rect id="SVGID_51_" x="-45.035" y="46.035" width="526.585" height="727.87"/>
			</defs>
			<clipPath id="SVGID_52_">
				<use xlink:href="#SVGID_51_"  overflow="visible"/>
			</clipPath>
			<path clip-path="url(#SVGID_52_)" fill="none" stroke="#000000" stroke-width="0.78" d="M233.893,267.42
				c-0.983,0-1.788,2.674-1.788,3.66c0,0.987,0.805,3.662,1.788,3.662h17.973c0.986,0,1.787-2.675,1.787-3.662
				c0-0.986-0.801-3.658-1.787-3.658L233.893,267.42z"/>
		</g>
		<g>
			<defs>
				<rect id="SVGID_53_" x="-45.035" y="46.035" width="526.585" height="727.87"/>
			</defs>
			<clipPath id="SVGID_54_">
				<use xlink:href="#SVGID_53_"  overflow="visible"/>
			</clipPath>
			<path clip-path="url(#SVGID_54_)" fill="#FFFFFF" d="M248.739,259.551c0-4.264-2.591-8.961-5.783-8.961
				c-3.193,0-5.781,4.697-5.781,8.961s2.588,6.482,5.781,6.482C246.148,266.034,248.739,263.814,248.739,259.551"/>
		</g>
		<g>
			<defs>
				<rect id="SVGID_55_" x="-45.035" y="46.035" width="526.585" height="727.87"/>
			</defs>
			<clipPath id="SVGID_56_">
				<use xlink:href="#SVGID_55_"  overflow="visible"/>
			</clipPath>
			<path clip-path="url(#SVGID_56_)" fill="none" stroke="#000000" stroke-width="0.65" d="M248.739,259.551
				c0-4.264-2.591-8.961-5.783-8.961c-3.193,0-5.781,4.697-5.781,8.961s2.588,6.482,5.781,6.482
				C246.148,266.034,248.739,263.814,248.739,259.551z"/>
		</g>
	</g>
	<polyline fill="none" stroke="#231F20" stroke-width="0.78" points="270.874,276.258 270.874,252.208 300.343,252.208 
		300.343,276.909 	"/>
	<path fill="none" stroke="#000000" stroke-width="0.78" d="M322.252,209.091v26.434 M322.252,230.365h-3.668l-0.856-3.168v-9.71
		l0.856-3.209h3.668 M339.167,235.525h-24.108v-26.244h24.108V235.525z"/>
	<polygon fill="#FFFFFF" points="320.67,210.559 320.665,212.678 322.144,213.144 322.149,210.091 	"/>
	<polygon fill="none" stroke="#231F20" stroke-width="0.78" points="320.67,210.559 320.665,212.678 322.144,213.144 
		322.149,210.091 	"/>
	<polyline fill="none" stroke="#231F20" stroke-width="0.78" points="346.708,240.724 346.708,346.569 321.357,346.569 	"/>
	<polygon fill="#FFFFFF" points="348.858,252.245 323.182,252.435 323.127,282.659 348.801,282.47 	"/>
	<polygon fill="none" stroke="#000000" stroke-width="0.78" points="348.858,252.245 323.182,252.435 323.127,282.659 
		348.801,282.47 	"/>
	<line fill="none" stroke="#000000" stroke-width="0.39" x1="325.415" y1="282.684" x2="325.415" y2="252.418"/>
	<g>
		<g>
			<defs>
				<rect id="SVGID_57_" x="-45.035" y="46.035" width="526.585" height="727.87"/>
			</defs>
			<clipPath id="SVGID_58_">
				<use xlink:href="#SVGID_57_"  overflow="visible"/>
			</clipPath>
			<path clip-path="url(#SVGID_58_)" fill="#FFFFFF" d="M334.7,273.631c-0.016-2.17-1.793-3.914-3.958-3.898
				c-2.175,0.018-3.918,1.786-3.899,3.957c0.015,2.169,1.787,3.916,3.955,3.898C332.964,277.572,334.716,275.799,334.7,273.631"/>
		</g>
		<g>
			<defs>
				<rect id="SVGID_59_" x="-45.035" y="46.035" width="526.585" height="727.87"/>
			</defs>
			<clipPath id="SVGID_60_">
				<use xlink:href="#SVGID_59_"  overflow="visible"/>
			</clipPath>
			<path clip-path="url(#SVGID_60_)" fill="none" stroke="#231F20" stroke-width="0.65" d="M334.7,273.631
				c-0.016-2.17-1.793-3.914-3.958-3.898c-2.175,0.018-3.918,1.786-3.899,3.957c0.015,2.169,1.787,3.916,3.955,3.898
				C332.964,277.572,334.716,275.799,334.7,273.631z"/>
		</g>
		<g>
			<defs>
				<rect id="SVGID_61_" x="-45.035" y="46.035" width="526.585" height="727.87"/>
			</defs>
			<clipPath id="SVGID_62_">
				<use xlink:href="#SVGID_61_"  overflow="visible"/>
			</clipPath>
			<path clip-path="url(#SVGID_62_)" fill="#FFFFFF" d="M334.614,261.856c-0.018-2.17-1.795-3.913-3.961-3.896
				c-2.171,0.017-3.915,1.785-3.896,3.953c0.016,2.168,1.787,3.918,3.955,3.903C332.877,265.801,334.629,264.023,334.614,261.856"/>
		</g>
		<g>
			<defs>
				<rect id="SVGID_63_" x="-45.035" y="46.035" width="526.585" height="727.87"/>
			</defs>
			<clipPath id="SVGID_64_">
				<use xlink:href="#SVGID_63_"  overflow="visible"/>
			</clipPath>
			<path clip-path="url(#SVGID_64_)" fill="none" stroke="#231F20" stroke-width="0.65" d="M334.614,261.856
				c-0.018-2.17-1.795-3.913-3.961-3.896c-2.171,0.017-3.915,1.785-3.896,3.953c0.016,2.168,1.787,3.918,3.955,3.903
				C332.877,265.801,334.629,264.023,334.614,261.856z"/>
		</g>
		<g>
			<defs>
				<rect id="SVGID_65_" x="-45.035" y="46.035" width="526.585" height="727.87"/>
			</defs>
			<clipPath id="SVGID_66_">
				<use xlink:href="#SVGID_65_"  overflow="visible"/>
			</clipPath>
			<path clip-path="url(#SVGID_66_)" fill="#FFFFFF" d="M345.388,273.553c-0.019-2.172-1.788-3.915-3.953-3.896
				c-2.174,0.014-3.921,1.785-3.903,3.953c0.017,2.172,1.785,3.917,3.962,3.9C343.66,277.495,345.402,275.721,345.388,273.553"/>
		</g>
		<g>
			<defs>
				<rect id="SVGID_67_" x="-45.035" y="46.035" width="526.585" height="727.87"/>
			</defs>
			<clipPath id="SVGID_68_">
				<use xlink:href="#SVGID_67_"  overflow="visible"/>
			</clipPath>
			<path clip-path="url(#SVGID_68_)" fill="none" stroke="#231F20" stroke-width="0.65" d="M345.388,273.553
				c-0.019-2.172-1.788-3.915-3.953-3.896c-2.174,0.014-3.921,1.785-3.903,3.953c0.017,2.172,1.785,3.917,3.962,3.9
				C343.66,277.495,345.402,275.721,345.388,273.553z"/>
		</g>
		<g>
			<defs>
				<rect id="SVGID_69_" x="-45.035" y="46.035" width="526.585" height="727.87"/>
			</defs>
			<clipPath id="SVGID_70_">
				<use xlink:href="#SVGID_69_"  overflow="visible"/>
			</clipPath>
			<path clip-path="url(#SVGID_70_)" fill="#FFFFFF" d="M345.299,261.778c-0.016-2.171-1.782-3.914-3.951-3.896
				c-2.176,0.017-3.92,1.785-3.902,3.953c0.017,2.168,1.787,3.918,3.962,3.9C343.571,265.72,345.316,263.945,345.299,261.778"/>
		</g>
		<g>
			<defs>
				<rect id="SVGID_71_" x="-45.035" y="46.035" width="526.585" height="727.87"/>
			</defs>
			<clipPath id="SVGID_72_">
				<use xlink:href="#SVGID_71_"  overflow="visible"/>
			</clipPath>
			<path clip-path="url(#SVGID_72_)" fill="none" stroke="#231F20" stroke-width="0.65" d="M345.299,261.778
				c-0.016-2.171-1.782-3.914-3.951-3.896c-2.176,0.017-3.92,1.785-3.902,3.953c0.017,2.168,1.787,3.918,3.962,3.9
				C343.571,265.72,345.316,263.945,345.299,261.778z"/>
		</g>
	</g>
	<rect x="348.762" y="253.305" fill="#FFFFFF" width="1.191" height="28.166"/>
	<rect x="348.762" y="253.305" fill="none" stroke="#231F20" stroke-width="0.78" width="1.191" height="28.166"/>
	<g>
		<g>
			<defs>
				<rect id="SVGID_73_" x="-45.035" y="46.035" width="526.585" height="727.87"/>
			</defs>
			<clipPath id="SVGID_74_">
				<use xlink:href="#SVGID_73_"  overflow="visible"/>
			</clipPath>
			<path clip-path="url(#SVGID_74_)" fill="none" stroke="#231F20" stroke-width="0.78" d="M428.012,352.254v47.287 M410.623,46.451
				h47.125 M338.799,46.426h47.125 M269.249,46.479h48.1 M199.049,46.451h44.931 M411.029,62.841h45.095 M341.073,62.516h43.227
				 M269.898,62.841h45.5 M200.674,62.841h42.898"/>
		</g>
	</g>
	
		<line fill="none" stroke="#231F20" stroke-width="0.78" stroke-dasharray="1.891,1.891,1.891,1.891,1.891,1.891" stroke-dashoffset="3" x1="430.123" y1="398.891" x2="430.123" y2="351.604"/>
	<g>
		<g>
			<defs>
				<rect id="SVGID_75_" x="-45.035" y="46.035" width="526.585" height="727.87"/>
			</defs>
			<clipPath id="SVGID_76_">
				<use xlink:href="#SVGID_75_"  overflow="visible"/>
			</clipPath>
			<circle clip-path="url(#SVGID_76_)" fill="none" stroke="#000000" stroke-width="0.52" cx="285.574" cy="264.045" r="1.188"/>
		</g>
		<g>
			<defs>
				<rect id="SVGID_77_" x="-45.035" y="46.035" width="526.585" height="727.87"/>
			</defs>
			<clipPath id="SVGID_78_">
				<use xlink:href="#SVGID_77_"  overflow="visible"/>
			</clipPath>
			<path clip-path="url(#SVGID_78_)" fill="none" stroke="#000000" stroke-width="0.65" d="M285.574,273.877
				c0.638,0,1.152-0.518,1.152-1.153s-0.516-1.155-1.152-1.155c-0.64,0-1.154,0.52-1.154,1.155S284.936,273.877,285.574,273.877z
				 M286.104,266.679h-1.06v4.715h1.06V266.679z M290.766,271.504h-10.383v2.486h10.383V271.504z"/>
		</g>
	</g>
	<rect x="275.045" y="255.297" fill="none" stroke="#000000" stroke-width="0.78" width="21.06" height="19.074"/>
	<rect x="276.674" y="256.926" fill="none" stroke="#000000" stroke-width="0.585" width="17.759" height="14.521"/>
	<line fill="none" stroke="#000000" stroke-width="0.65" x1="351.002" y1="347.471" x2="351.002" y2="383.221"/>
	<rect x="353.127" y="360.172" fill="none" stroke="#000000" stroke-width="0.78" width="1.462" height="2.762"/>
	<rect x="323.04" y="347.688" fill="none" stroke="#000000" stroke-width="0.78" width="30.062" height="35.244"/>
	<rect x="353.127" y="368.868" fill="none" stroke="#000000" stroke-width="0.78" width="1.462" height="2.764"/>
	<g>
		<g>
			<defs>
				<rect id="SVGID_79_" x="-45.035" y="46.035" width="526.585" height="727.87"/>
			</defs>
			<clipPath id="SVGID_80_">
				<use xlink:href="#SVGID_79_"  overflow="visible"/>
			</clipPath>
			<path clip-path="url(#SVGID_80_)" fill="#FFFFFF" d="M326.031,290.159c-1.009,0-1.843,0.83-1.843,1.844v22.408
				c0,1.01,0.831,1.834,1.843,1.834h15.758c1.016,0,1.844-0.824,1.844-1.834v-22.408c0-1.014-0.828-1.844-1.844-1.844H326.031z"/>
		</g>
		<g>
			<defs>
				<rect id="SVGID_81_" x="-45.035" y="46.035" width="526.585" height="727.87"/>
			</defs>
			<clipPath id="SVGID_82_">
				<use xlink:href="#SVGID_81_"  overflow="visible"/>
			</clipPath>
			<path clip-path="url(#SVGID_82_)" fill="none" stroke="#231F20" stroke-width="0.78" d="M326.031,290.159
				c-1.009,0-1.843,0.83-1.843,1.844v22.408c0,1.01,0.831,1.834,1.843,1.834h15.758c1.016,0,1.844-0.824,1.844-1.834v-22.408
				c0-1.014-0.828-1.844-1.844-1.844H326.031z"/>
		</g>
		<g>
			<defs>
				<rect id="SVGID_83_" x="-45.035" y="46.035" width="526.585" height="727.87"/>
			</defs>
			<clipPath id="SVGID_84_">
				<use xlink:href="#SVGID_83_"  overflow="visible"/>
			</clipPath>
			<path clip-path="url(#SVGID_84_)" fill="#FFFFFF" d="M328.498,312.446c0.002,1.037,0.835,1.889,1.852,1.889h9.464
				c1.016-0.002,1.85-0.852,1.85-1.889v-18.425c0-1.038-0.836-1.888-1.85-1.888h-9.464c-1.017,0-1.852,0.85-1.852,1.888V312.446z"/>
		</g>
		<g>
			<defs>
				<rect id="SVGID_85_" x="-45.035" y="46.035" width="526.585" height="727.87"/>
			</defs>
			<clipPath id="SVGID_86_">
				<use xlink:href="#SVGID_85_"  overflow="visible"/>
			</clipPath>
			<path clip-path="url(#SVGID_86_)" fill="none" stroke="#231F20" stroke-width="0.585" d="M328.498,312.446
				c0.002,1.037,0.835,1.889,1.852,1.889h9.464c1.016-0.002,1.85-0.852,1.85-1.889v-18.425c0-1.038-0.836-1.888-1.85-1.888h-9.464
				c-1.017,0-1.852,0.85-1.852,1.888V312.446z"/>
		</g>
		<g>
			<defs>
				<rect id="SVGID_87_" x="-45.035" y="46.035" width="526.585" height="727.87"/>
			</defs>
			<clipPath id="SVGID_88_">
				<use xlink:href="#SVGID_87_"  overflow="visible"/>
			</clipPath>
			<path clip-path="url(#SVGID_88_)" fill="#FFFFFF" d="M335.296,301.635c-0.763,0-1.386,0.623-1.386,1.391
				c0,0.77,0.623,1.383,1.386,1.383c0.766,0,1.393-0.611,1.393-1.383C336.688,302.258,336.062,301.635,335.296,301.635"/>
		</g>
		<g>
			<defs>
				<rect id="SVGID_89_" x="-45.035" y="46.035" width="526.585" height="727.87"/>
			</defs>
			<clipPath id="SVGID_90_">
				<use xlink:href="#SVGID_89_"  overflow="visible"/>
			</clipPath>
			<path clip-path="url(#SVGID_90_)" fill="none" stroke="#231F20" stroke-width="0.52" d="M335.296,301.635
				c-0.763,0-1.386,0.623-1.386,1.391c0,0.77,0.623,1.383,1.386,1.383c0.766,0,1.393-0.611,1.393-1.383
				C336.688,302.258,336.062,301.635,335.296,301.635z"/>
		</g>
		<g>
			<defs>
				<rect id="SVGID_91_" x="-45.035" y="46.035" width="526.585" height="727.87"/>
			</defs>
			<clipPath id="SVGID_92_">
				<use xlink:href="#SVGID_91_"  overflow="visible"/>
			</clipPath>
			<path clip-path="url(#SVGID_92_)" fill="#FFFFFF" d="M326.294,298.049c-0.74,0-1.424,0.599-1.424,1.34v7.312
				c0,0.738,0.684,1.34,1.424,1.34s1.424-0.602,1.424-1.34v-7.312C327.718,298.647,327.034,298.049,326.294,298.049"/>
		</g>
		<g>
			<defs>
				<rect id="SVGID_93_" x="-45.035" y="46.035" width="526.585" height="727.87"/>
			</defs>
			<clipPath id="SVGID_94_">
				<use xlink:href="#SVGID_93_"  overflow="visible"/>
			</clipPath>
			<path clip-path="url(#SVGID_94_)" fill="none" stroke="#231F20" stroke-width="0.52" d="M326.294,298.049
				c-0.74,0-1.424,0.599-1.424,1.34v7.312c0,0.738,0.684,1.34,1.424,1.34s1.424-0.602,1.424-1.34v-7.312
				C327.718,298.647,327.034,298.049,326.294,298.049z"/>
		</g>
		<g>
			<defs>
				<rect id="SVGID_95_" x="-45.035" y="46.035" width="526.585" height="727.87"/>
			</defs>
			<clipPath id="SVGID_96_">
				<use xlink:href="#SVGID_95_"  overflow="visible"/>
			</clipPath>
			<path clip-path="url(#SVGID_96_)" fill="#FFFFFF" d="M334.072,297.561l-6.814,6.273c-0.399,0.349-0.998,0.312-1.349-0.086
				c-0.358-0.392-0.321-1,0.079-1.352l7.062-5.988C333.376,296.129,334.387,297.277,334.072,297.561"/>
		</g>
		<g>
			<defs>
				<rect id="SVGID_97_" x="-45.035" y="46.035" width="526.585" height="727.87"/>
			</defs>
			<clipPath id="SVGID_98_">
				<use xlink:href="#SVGID_97_"  overflow="visible"/>
			</clipPath>
			<path clip-path="url(#SVGID_98_)" fill="none" stroke="#231F20" stroke-width="0.65" d="M334.072,297.561l-6.814,6.273
				c-0.399,0.349-0.998,0.312-1.349-0.086c-0.358-0.392-0.321-1,0.079-1.352l7.062-5.988
				C333.376,296.129,334.387,297.277,334.072,297.561z"/>
		</g>
		<g>
			<defs>
				<rect id="SVGID_99_" x="-45.035" y="46.035" width="526.585" height="727.87"/>
			</defs>
			<clipPath id="SVGID_100_">
				<use xlink:href="#SVGID_99_"  overflow="visible"/>
			</clipPath>
			<path clip-path="url(#SVGID_100_)" fill="#FFFFFF" d="M329.663,303.84h-3.292c-0.351,0-0.641-0.287-0.641-0.646
				c0-0.351,0.29-0.633,0.641-0.633h3.292c0.356,0,0.642,0.282,0.642,0.636S330.021,303.84,329.663,303.84"/>
		</g>
		<g>
			<defs>
				<rect id="SVGID_101_" x="-45.035" y="46.035" width="526.585" height="727.87"/>
			</defs>
			<clipPath id="SVGID_102_">
				<use xlink:href="#SVGID_101_"  overflow="visible"/>
			</clipPath>
			<path clip-path="url(#SVGID_102_)" fill="none" stroke="#231F20" stroke-width="0.52" d="M329.663,303.84h-3.292
				c-0.351,0-0.641-0.287-0.641-0.646c0-0.351,0.29-0.633,0.641-0.633h3.292c0.356,0,0.642,0.282,0.642,0.636
				S330.021,303.84,329.663,303.84z"/>
		</g>
		<g>
			<defs>
				<rect id="SVGID_103_" x="-45.035" y="46.035" width="526.585" height="727.87"/>
			</defs>
			<clipPath id="SVGID_104_">
				<use xlink:href="#SVGID_103_"  overflow="visible"/>
			</clipPath>
			<path clip-path="url(#SVGID_104_)" fill="#FFFFFF" d="M326.418,305.221c-0.423,0-0.768,0.348-0.768,0.773
				c0,0.422,0.345,0.762,0.768,0.762c0.416,0,0.765-0.34,0.765-0.766C327.183,305.566,326.838,305.221,326.418,305.221"/>
		</g>
		<g>
			<defs>
				<rect id="SVGID_105_" x="-45.035" y="46.035" width="526.585" height="727.87"/>
			</defs>
			<clipPath id="SVGID_106_">
				<use xlink:href="#SVGID_105_"  overflow="visible"/>
			</clipPath>
			<path clip-path="url(#SVGID_106_)" fill="none" stroke="#231F20" stroke-width="0.455" d="M326.418,305.221
				c-0.423,0-0.768,0.348-0.768,0.773c0,0.422,0.345,0.762,0.768,0.762c0.416,0,0.765-0.34,0.765-0.766
				C327.183,305.566,326.838,305.221,326.418,305.221z"/>
		</g>
		<g>
			<defs>
				<rect id="SVGID_107_" x="-45.035" y="46.035" width="526.585" height="727.87"/>
			</defs>
			<clipPath id="SVGID_108_">
				<use xlink:href="#SVGID_107_"  overflow="visible"/>
			</clipPath>
			<path clip-path="url(#SVGID_108_)" fill="#FFFFFF" d="M326.35,299.322c-0.423,0-0.767,0.349-0.767,0.772
				c0,0.421,0.344,0.765,0.767,0.765c0.418,0,0.764-0.344,0.764-0.769C327.114,299.667,326.77,299.322,326.35,299.322"/>
		</g>
		<g>
			<defs>
				<rect id="SVGID_109_" x="-45.035" y="46.035" width="526.585" height="727.87"/>
			</defs>
			<clipPath id="SVGID_110_">
				<use xlink:href="#SVGID_109_"  overflow="visible"/>
			</clipPath>
			<path clip-path="url(#SVGID_110_)" fill="none" stroke="#231F20" stroke-width="0.455" d="M326.35,299.322
				c-0.423,0-0.767,0.349-0.767,0.772c0,0.421,0.344,0.765,0.767,0.765c0.418,0,0.764-0.344,0.764-0.769
				C327.114,299.667,326.77,299.322,326.35,299.322z"/>
		</g>
	</g>
	
		<line fill="none" stroke="#000000" stroke-width="0.65" stroke-dasharray="1.936,1.936,1.936,1.936,1.936,1.936" stroke-dashoffset="3" x1="344.202" y1="342.94" x2="325.812" y2="342.94"/>
	
		<line fill="none" stroke="#000000" stroke-width="0.65" stroke-dasharray="1.899,1.899,1.899,1.899,1.899,1.899" stroke-dashoffset="3" x1="323.877" y1="340.092" x2="323.877" y2="322.055"/>
	
		<line fill="none" stroke="#000000" stroke-width="0.65" stroke-dasharray="1.892,1.892,1.892,1.892,1.892,1.892" stroke-dashoffset="3" x1="326.715" y1="320.157" x2="344.692" y2="320.157"/>
	<path fill="none" stroke="#000000" stroke-width="0.65" d="M345.639,320.157h0.945 M323.876,321.106v-0.949h0.945 M324.845,342.94
		h-0.969v-0.949 M347.105,342.94h-0.968"/>
	<polyline fill="none" stroke="#000000" stroke-width="0.65" points="346.585,320.122 349.05,320.122 349.05,342.94 347.115,342.94 
			"/>
	<g>
		<g>
			<defs>
				<rect id="SVGID_111_" x="-45.035" y="46.035" width="526.585" height="727.87"/>
			</defs>
			<clipPath id="SVGID_112_">
				<use xlink:href="#SVGID_111_"  overflow="visible"/>
			</clipPath>
			<path clip-path="url(#SVGID_112_)" fill="none" stroke="#231F20" stroke-width="3.9" d="M269.898,52.273h47.125 M339.123,52.273
				h45.176 M411.599,52.273h43.225 M462.839,446.557v-40.963h-48.967l0.437-5.619h56.074v-22.969 M468.079,348.676v-89.545h-1.024
				v-21.414h1.319l0.054-172.739l-11.787,0.01V48.06l22.96-0.043l-0.062,399.497"/>
		</g>
		<g>
			<defs>
				<rect id="SVGID_113_" x="-45.035" y="46.035" width="526.585" height="727.87"/>
			</defs>
			<clipPath id="SVGID_114_">
				<use xlink:href="#SVGID_113_"  overflow="visible"/>
			</clipPath>
			
				<line clip-path="url(#SVGID_114_)" fill="none" stroke="#231F20" stroke-width="3.9" x1="200.999" y1="52.273" x2="244.224" y2="52.273"/>
		</g>
		<g>
			<defs>
				<rect id="SVGID_115_" x="-45.035" y="46.035" width="526.585" height="727.87"/>
			</defs>
			<clipPath id="SVGID_116_">
				<use xlink:href="#SVGID_115_"  overflow="visible"/>
			</clipPath>
			<polyline clip-path="url(#SVGID_116_)" fill="none" stroke="#231F20" stroke-width="5.2" points="481.485,447.514 
				348.225,447.514 348.225,440.817 			"/>
		</g>
	</g>
	<path fill="none" stroke="#231F20" stroke-width="6.5" d="M328.074,206.491v-27.3 M328.074,147.666V64.791"/>
	<g>
		<g>
			<defs>
				<rect id="SVGID_117_" x="-45.035" y="46.035" width="526.585" height="727.87"/>
			</defs>
			<clipPath id="SVGID_118_">
				<use xlink:href="#SVGID_117_"  overflow="visible"/>
			</clipPath>
			<path clip-path="url(#SVGID_118_)" fill="none" stroke="#231F20" stroke-width="5.2" d="M257.935,204.988h85.396l0.642,34.653
				h-24.174l-0.064,146.285h28.489v24.893 M472.373,378.741h-29.899v-28.602 M470.094,350.141h-26.531h-29.899v11.699
				 M413.662,392.249v18.035 M413.662,440.491v7.148"/>
		</g>
	</g>
	<rect x="331.222" y="109.966" fill="none" stroke="#231F20" stroke-width="0.78" width="1.95" height="47.125"/>
	<polygon fill="#BBBDBF" points="245.272,48.062 245.272,64.991 269.107,64.878 269.107,48.019 	"/>
	<g>
		<g>
			<defs>
				<rect id="SVGID_119_" x="-45.035" y="46.035" width="526.585" height="727.87"/>
			</defs>
			<clipPath id="SVGID_120_">
				<use xlink:href="#SVGID_119_"  overflow="visible"/>
			</clipPath>
			<polygon clip-path="url(#SVGID_120_)" fill="none" stroke="#231F20" stroke-width="3.9" points="245.272,48.062 245.272,64.991 
				269.107,64.878 269.107,48.019 			"/>
		</g>
	</g>
	<polygon fill="#BBBDBF" points="315.689,48.002 315.689,64.931 339.524,64.875 339.524,48.015 	"/>
	<g>
		<g>
			<defs>
				<rect id="SVGID_121_" x="-45.035" y="46.035" width="526.585" height="727.87"/>
			</defs>
			<clipPath id="SVGID_122_">
				<use xlink:href="#SVGID_121_"  overflow="visible"/>
			</clipPath>
			<polygon clip-path="url(#SVGID_122_)" fill="none" stroke="#231F20" stroke-width="3.9" points="315.689,48.002 315.689,64.931 
				339.524,64.875 339.524,48.015 			"/>
		</g>
	</g>
	<polygon fill="#BBBDBF" points="386.204,48.001 386.204,64.93 410.038,64.875 410.038,48.014 	"/>
	<g>
		<g>
			<defs>
				<rect id="SVGID_123_" x="-45.035" y="46.035" width="526.585" height="727.87"/>
			</defs>
			<clipPath id="SVGID_124_">
				<use xlink:href="#SVGID_123_"  overflow="visible"/>
			</clipPath>
			<polygon clip-path="url(#SVGID_124_)" fill="none" stroke="#231F20" stroke-width="3.9" points="386.204,48.001 386.204,64.93 
				410.038,64.875 410.038,48.014 			"/>
		</g>
		<g>
			<defs>
				<rect id="SVGID_125_" x="-45.035" y="46.035" width="526.585" height="727.87"/>
			</defs>
			<clipPath id="SVGID_126_">
				<use xlink:href="#SVGID_125_"  overflow="visible"/>
			</clipPath>
			<path clip-path="url(#SVGID_126_)" fill="none" stroke="#231F20" stroke-width="3.9" d="M319.637,278.258l-127.698-0.076v-63.113
				l30.458-0.064v-10.139 M202.615,278.249l-24.539-0.127V48.015h21.445v17.978l-7.583-0.059V204.51l35.386,0.031"/>
		</g>
	</g>
	<rect x="412.519" y="399.708" fill="none" stroke="#231F20" stroke-width="0.78" width="1.95" height="47.125"/>
	
		<line fill="none" stroke="#231F20" stroke-width="3.9" stroke-dasharray="5.873,1.873,5.873,1.873,5.873,1.873" stroke-dashoffset="7" x1="465.104" y1="65.445" x2="465.104" y2="350.147"/>
	<rect x="344.542" y="50.69" fill="#FFFFFF" width="18.581" height="3.164"/>
	<rect x="344.542" y="50.69" fill="none" stroke="#000000" stroke-width="0.78" width="18.581" height="3.164"/>
	<line fill="none" stroke="#000000" stroke-width="0.78" x1="363.123" y1="52.202" x2="344.651" y2="52.202"/>
	<rect x="363.174" y="50.69" fill="#FFFFFF" width="19.068" height="3.164"/>
	<rect x="363.174" y="50.69" fill="none" stroke="#000000" stroke-width="0.78" width="19.068" height="3.164"/>
	<line fill="none" stroke="#000000" stroke-width="0.78" x1="382.242" y1="52.202" x2="363.174" y2="52.202"/>
	<rect x="414.417" y="50.69" fill="#FFFFFF" width="18.58" height="3.164"/>
	<rect x="414.417" y="50.69" fill="none" stroke="#000000" stroke-width="0.78" width="18.58" height="3.164"/>
	<line fill="none" stroke="#000000" stroke-width="0.78" x1="432.997" y1="52.202" x2="414.526" y2="52.202"/>
	<rect x="433.049" y="50.69" fill="#FFFFFF" width="19.067" height="3.164"/>
	<rect x="433.049" y="50.69" fill="none" stroke="#000000" stroke-width="0.78" width="19.067" height="3.164"/>
	<line fill="none" stroke="#000000" stroke-width="0.78" x1="452.116" y1="52.202" x2="433.049" y2="52.202"/>
	<rect x="204.003" y="50.69" fill="#FFFFFF" width="18.581" height="3.164"/>
	<rect x="204.003" y="50.69" fill="none" stroke="#000000" stroke-width="0.78" width="18.581" height="3.164"/>
	<line fill="none" stroke="#000000" stroke-width="0.78" x1="222.583" y1="52.202" x2="204.111" y2="52.202"/>
	<rect x="222.634" y="50.69" fill="#FFFFFF" width="19.068" height="3.164"/>
	<rect x="222.634" y="50.69" fill="none" stroke="#000000" stroke-width="0.78" width="19.068" height="3.164"/>
	<line fill="none" stroke="#000000" stroke-width="0.78" x1="241.702" y1="52.202" x2="222.635" y2="52.202"/>
	<rect x="273.205" y="50.69" fill="#FFFFFF" width="18.581" height="3.164"/>
	<rect x="273.205" y="50.69" fill="none" stroke="#000000" stroke-width="0.78" width="18.581" height="3.164"/>
	<line fill="none" stroke="#000000" stroke-width="0.78" x1="291.785" y1="52.202" x2="273.313" y2="52.202"/>
	<rect x="291.836" y="50.69" fill="#FFFFFF" width="19.067" height="3.164"/>
	<rect x="291.836" y="50.69" fill="none" stroke="#000000" stroke-width="0.78" width="19.067" height="3.164"/>
	<line fill="none" stroke="#000000" stroke-width="0.78" x1="310.904" y1="52.202" x2="291.837" y2="52.202"/>
	<g>
		<g>
			<defs>
				<rect id="SVGID_127_" x="-45.035" y="46.035" width="526.585" height="727.87"/>
			</defs>
			<clipPath id="SVGID_128_">
				<use xlink:href="#SVGID_127_"  overflow="visible"/>
			</clipPath>
			<path clip-path="url(#SVGID_128_)" fill="#231F20" d="M275.482,137.402h-0.469l-0.474,1.547h0.296L275.482,137.402z
				 M274.537,137.402h-0.471l-0.471,1.547h0.292L274.537,137.402z M272.048,140.187c0,0.54-0.396,0.966-1.014,0.966
				c-0.618,0-1.062-0.402-1.062-0.948c0-0.474,0.42-0.924,1.05-0.924C271.628,139.28,272.048,139.665,272.048,140.187
				 M272.384,137.708c-0.366-0.3-0.738-0.48-1.242-0.48c-1.098,0-1.746,1.002-1.746,2.286c0,0.864,0.192,1.296,0.528,1.632
				c0.264,0.264,0.642,0.426,1.104,0.426c0.854,0,1.508-0.588,1.508-1.404c0-0.792-0.666-1.296-1.452-1.296
				c-0.612,0-0.966,0.306-1.194,0.642c-0.006-1.086,0.468-1.854,1.23-1.854c0.384,0,0.678,0.15,0.988,0.414L272.384,137.708z
				 M267.824,137.402h-0.471l-0.472,1.547h0.293L267.824,137.402z M264.139,137.625l0.114,0.384l0.792-0.246v3.738h0.468v-4.23
				h-0.348L264.139,137.625z M261.234,137.625l0.114,0.384l0.792-0.246v3.738h0.468v-4.23h-0.348L261.234,137.625z M257.874,141
				l-1.129-1.504l1.087-1.436h-0.387l-0.896,1.201l-0.903-1.201h-0.39l1.088,1.441l-1.13,1.499h0.382l0.941-1.264l0.939,1.264
				H257.874z M252.267,137.402h-0.469l-0.476,1.547h0.297L252.267,137.402z M251.321,137.402h-0.47l-0.472,1.547h0.293
				L251.321,137.402z M247.715,137.625l0.114,0.384l0.792-0.246v3.738h0.468v-4.23h-0.348L247.715,137.625z M246.341,137.402h-0.468
				l-0.474,1.547h0.293L246.341,137.402z M242.657,137.625l0.112,0.384l0.792-0.246v3.738h0.469v-4.23h-0.349L242.657,137.625z
				 M239.753,137.625l0.114,0.384l0.792-0.246v3.738h0.468v-4.23h-0.349L239.753,137.625z"/>
		</g>
		<g>
			<defs>
				<rect id="SVGID_129_" x="-45.035" y="46.035" width="526.585" height="727.87"/>
			</defs>
			<clipPath id="SVGID_130_">
				<use xlink:href="#SVGID_129_"  overflow="visible"/>
			</clipPath>
			<path clip-path="url(#SVGID_130_)" fill="#231F20" d="M274.743,129.705v3.771h0.523v-4.655h-0.531l-1.695,2.54l-1.695-2.54
				h-0.532v4.655h0.514v-3.764l1.694,2.487h0.026L274.743,129.705z M269.157,131.154c0,1.064-0.76,1.915-1.822,1.915
				c-1.064,0-1.836-0.864-1.836-1.928s0.759-1.915,1.822-1.915C268.386,129.227,269.157,130.09,269.157,131.154 M269.702,131.142
				c0-1.29-0.951-2.401-2.367-2.401c-1.417,0-2.381,1.124-2.381,2.414c0,1.29,0.95,2.401,2.367,2.401
				C268.738,133.556,269.702,132.432,269.702,131.142 M263.505,131.154c0,1.064-0.758,1.915-1.822,1.915
				c-1.062,0-1.836-0.864-1.836-1.928s0.758-1.915,1.822-1.915C262.732,129.227,263.505,130.09,263.505,131.154 M264.05,131.142
				c0-1.29-0.951-2.401-2.367-2.401c-1.417,0-2.381,1.124-2.381,2.414c0,1.29,0.951,2.401,2.367,2.401
				C263.086,133.556,264.05,132.432,264.05,131.142 M257.852,130.23c0,0.605-0.499,0.964-1.196,0.964h-1.431v-1.889h1.438
				C257.413,129.306,257.852,129.651,257.852,130.23 M258.55,133.476l-1.429-1.902c0.729-0.133,1.263-0.585,1.263-1.363
				c0-0.838-0.658-1.39-1.682-1.39H254.7v4.655h0.523v-1.809h1.331l1.35,1.809H258.55z M253.044,131.154
				c0,1.038-0.751,1.836-1.928,1.836h-1.093v-3.685h1.093C252.293,129.306,253.044,130.118,253.044,131.154 M253.59,131.142
				c0-1.317-1.011-2.321-2.474-2.321H249.5v4.655h1.616C252.579,133.476,253.59,132.458,253.59,131.142 M248.409,128.82h-3.365
				v4.655h3.397v-0.479h-2.872v-1.629h2.539v-0.479h-2.539v-1.589h2.84V128.82z M242.325,133.003h-1.563v-1.643h1.47
				c0.812,0,1.237,0.293,1.237,0.805C243.469,132.69,243.03,133.003,242.325,133.003 M242.139,130.896h-1.377v-1.603h1.416
				c0.665,0,1.031,0.299,1.031,0.765C243.209,130.609,242.77,130.896,242.139,130.896 M242.225,128.82h-1.98v4.655h2.066
				c1.02,0,1.69-0.472,1.69-1.277c0-0.645-0.446-0.964-0.998-1.13c0.366-0.16,0.738-0.472,0.738-1.084
				C243.741,129.272,243.143,128.82,242.225,128.82"/>
		</g>
	</g>
</g>
<g id="Layer_3">
</g>
<g id="_x32_03">
</g>
<g>
	<g>
		<defs>
			<rect id="SVGID_131_" x="44.731" y="146.462" width="100.145" height="4.562"/>
		</defs>
		<clipPath id="SVGID_132_">
			<use xlink:href="#SVGID_131_"  overflow="visible"/>
		</clipPath>
		<path clip-path="url(#SVGID_132_)" fill="#231F20" d="M144.874,146.839v-0.301h-3.402v0.301h1.537v4.109h0.328v-4.109H144.874z
			 M139.083,150.948v-0.303h-2.842v-1.771h2.525v-0.303h-2.525v-1.732h2.811v-0.303h-3.139v4.41h3.17V150.948z M133.208,150.948
			v-0.303h-2.84v-1.771h2.525v-0.303h-2.525v-1.732h2.809v-0.303h-3.137v4.41h3.168V150.948z M126.93,147.815
			c0,0.637-0.547,1.01-1.283,1.01h-1.486v-1.986h1.506c0.799,0,1.266,0.373,1.266,0.964v0.012H126.93z M127.423,150.948
			l-1.455-1.885c0.744-0.102,1.291-0.523,1.291-1.26v-0.014c0-0.736-0.623-1.253-1.574-1.253h-1.852v4.41h0.326v-1.826h1.443
			l1.404,1.826h0.416V150.948z M121.182,146.839v-0.301h-3.4v0.301h1.539v4.109h0.326v-4.109H121.182z M115.46,149.807v-0.014
			c0-0.643-0.428-1.008-1.449-1.215c-1.045-0.215-1.285-0.498-1.285-0.965v-0.012c0-0.46,0.43-0.833,1.078-0.833
			c0.484,0,0.9,0.141,1.316,0.5l0.209-0.259c-0.449-0.359-0.871-0.535-1.514-0.535c-0.818,0-1.418,0.504-1.418,1.16v0.012
			c0,0.668,0.43,1.027,1.488,1.242c1.002,0.199,1.246,0.471,1.246,0.938v0.012c0,0.506-0.453,0.877-1.115,0.877
			c-0.648,0-1.096-0.207-1.58-0.654l-0.215,0.244c0.529,0.475,1.07,0.707,1.775,0.707C114.848,151.01,115.46,150.518,115.46,149.807
			 M104.298,150.948v-4.41h-0.312v3.835l-3.043-3.835h-0.311v4.41h0.316v-3.919l3.104,3.919H104.298z M97.524,148.756
			c0,1.088-0.781,1.971-1.871,1.971s-1.885-0.895-1.885-1.984v-0.014c0-1.09,0.781-1.97,1.871-1.97s1.883,0.894,1.883,1.984v0.014
			H97.524z M97.866,148.743c0.006-0.006,0.006-0.006,0-0.014c0-1.203-0.877-2.269-2.213-2.269c-1.334,0-2.225,1.078-2.225,2.281
			v0.014c0,1.203,0.877,2.268,2.213,2.268C96.975,151.022,97.866,149.946,97.866,148.743 M91.323,146.839v-0.301h-3.402v0.301h1.538
			v4.109h0.327v-4.109H91.323z M85.524,150.362v-1.701h-1.789v0.301h1.474v1.268c-0.321,0.271-0.844,0.504-1.405,0.504
			c-1.178,0-1.89-0.85-1.89-1.99v-0.014c0-1.062,0.75-1.97,1.821-1.97c0.668,0,1.07,0.225,1.418,0.529l0.214-0.246
			c-0.441-0.365-0.896-0.58-1.613-0.58c-1.316,0-2.18,1.089-2.18,2.281v0.014c0,1.24,0.825,2.268,2.218,2.268
			C84.51,151.022,85.127,150.715,85.524,150.362 M78.806,150.948v-4.41h-0.314v3.835l-3.043-3.835H75.14v4.41h0.315v-3.919
			l3.104,3.919H78.806z M72.132,146.538h-0.328v4.41h0.328V146.538z M68.797,150.948v-4.41h-0.327v2.041h-2.822v-2.041H65.32v4.41
			h0.327v-2.066h2.822v2.066H68.797z M62.589,149.807v-0.014c0-0.643-0.428-1.008-1.449-1.215c-1.045-0.215-1.284-0.498-1.284-0.965
			v-0.012c0-0.46,0.429-0.833,1.076-0.833c0.486,0,0.901,0.141,1.317,0.5l0.208-0.259c-0.447-0.359-0.869-0.535-1.512-0.535
			c-0.819,0-1.417,0.504-1.417,1.16v0.012c0,0.668,0.428,1.027,1.485,1.242c1.002,0.199,1.248,0.471,1.248,0.938v0.012
			c0,0.506-0.454,0.877-1.114,0.877c-0.649,0-1.098-0.207-1.582-0.654l-0.215,0.244c0.529,0.475,1.071,0.707,1.777,0.707
			C61.977,151.01,62.589,150.518,62.589,149.807 M56.085,149.417H53.76l1.166-2.55L56.085,149.417z M57.143,150.948l-2.054-4.441
			h-0.314l-2.054,4.441h0.341l0.56-1.236h2.602l0.562,1.236H57.143z M51.043,146.538h-0.34l-1.386,3.923l-1.292-3.937h-0.252
			l-1.291,3.937l-1.387-3.923H44.73l1.601,4.439h0.264l1.292-3.83l1.291,3.83h0.266L51.043,146.538z"/>
	</g>
</g>
</svg>
