<?xml version="1.0" encoding="utf-8"?>
<!-- Generator: Adobe Illustrator 15.0.0, SVG Export Plug-In . SVG Version: 6.00 Build 0)  -->
<!DOCTYPE svg PUBLIC "-//W3C//DTD SVG 1.1//EN" "http://www.w3.org/Graphics/SVG/1.1/DTD/svg11.dtd">
<svg version="1.1" id="Layer_1" xmlns="http://www.w3.org/2000/svg" xmlns:xlink="http://www.w3.org/1999/xlink" x="0px" y="0px"
	 width="513.359px" height="495.36px" viewBox="0 0 513.359 495.36" enable-background="new 0 0 513.359 495.36"
	 xml:space="preserve">
<g id="Layer_4">
	<rect x="78.643" y="58.644" fill="#FFFFFF" width="33.15" height="44.2"/>
	<rect x="111.793" y="58.644" fill="#FFFFFF" width="33.149" height="44.2"/>
	<polygon fill="#FFFFFF" points="144.943,110.494 144.943,102.844 120.293,102.844 120.293,110.494 111.793,110.494 
		111.793,152.144 144.943,152.144 	"/>
	<polygon fill="#BBBDBF" points="78.643,110.494 58.243,110.494 58.243,127.494 45.493,127.494 45.493,152.994 78.643,152.994 	"/>
	<polygon fill="#FFFFFF" points="77.793,109.644 77.793,152.144 111.793,152.144 111.793,135.144 111.793,121.543 88.843,121.543 
		88.843,108.793 	"/>
	<polygon fill="#FFFFFF" points="45.493,57.793 77.793,57.793 77.793,102.844 64.193,102.844 64.193,96.043 59.943,96.043 
		59.943,85.844 48.893,85.844 45.493,85.844 	"/>
	<g>
		<g>
			<defs>
				<rect id="SVGID_1_" x="-64.042" y="56.483" width="546.664" height="643.645"/>
			</defs>
			<clipPath id="SVGID_2_">
				<use xlink:href="#SVGID_1_"  overflow="visible"/>
			</clipPath>
			<path clip-path="url(#SVGID_2_)" fill="none" stroke="#000000" stroke-width="0.425" d="M55.749,104.637
				c0,1.796,1.455,3.252,3.251,3.252 M55.748,104.637H59v-0.188h-3.252V104.637z"/>
		</g>
	</g>
	<path fill="none" stroke="#000000" stroke-width="0.452" d="M49.361,116.09l8.957,0.004 M46.104,117.288l12.214,0.003
		 M46.085,118.485l12.205,0.01 M46.128,119.683l12.23,0.007 M46.168,120.882l12.19,0.003 M46.168,122.079l12.19,0.006
		 M46.189,123.332l12.17-0.002"/>
	<path fill="none" stroke="#000000" stroke-width="0.425" d="M45.86,109.333h6.378 M45.86,110.529h6.378 M45.86,111.728h6.378
		 M45.86,112.925h6.378 M45.86,114.123h6.316 M45.737,115.319h5.475 M46.092,116.273h3.554"/>
	<line fill="none" stroke="#000000" stroke-width="1.18" x1="45.86" y1="108.196" x2="52.238" y2="108.196"/>
	<polyline fill="none" stroke="#000000" stroke-width="0.425" points="46.376,118.841 50.042,116.148 49.853,115.591 
		50.777,116.469 50.517,115.828 52.285,114.759 	"/>
	<line fill="none" stroke="#000000" stroke-width="0.452" x1="51.855" y1="114.893" x2="58.617" y2="114.893"/>
	<path fill="#FFFFFF" d="M52.607,123.599h0.588v-15.333h-0.588V123.599z M52.315,107.868h1.172v16.128h-1.172V107.868z"/>
	<path fill="none" stroke="#262626" stroke-width="0.495" d="M52.607,123.599h0.588v-15.333h-0.588V123.599z M52.315,107.868h1.172
		v16.128h-1.172V107.868z"/>
	<g>
		<g>
			<defs>
				<rect id="SVGID_3_" x="-64.042" y="56.483" width="546.664" height="643.645"/>
			</defs>
			<clipPath id="SVGID_4_">
				<use xlink:href="#SVGID_3_"  overflow="visible"/>
			</clipPath>
			<polygon clip-path="url(#SVGID_4_)" fill="none" stroke="#262626" stroke-width="2.065" stroke-miterlimit="10" points="
				145.377,152.79 45.068,152.79 45.068,57.939 78.553,57.939 145.377,57.939 			"/>
		</g>
	</g>
	<path fill="none" stroke="#262626" stroke-width="1.18" stroke-miterlimit="10" d="M58.491,110.157h61.808v-7.374 M48.755,95.703
		h11.358 M48.46,103.668h10.031v0.885 M58.491,107.799v19.765H45.953 M45.215,103.816h3.393V85.671h11.653v10.621h3.983v6.934
		h47.795l0.057-0.878h8.056l-0.07-0.156h25.737 M78.406,153.084v-43.271 M111.891,153.084v-43.271 M111.891,102.487V58.603
		 M78.258,102.487V58.603"/>
	<g>
		<g>
			<defs>
				<rect id="SVGID_5_" x="-64.042" y="56.483" width="546.664" height="643.645"/>
			</defs>
			<clipPath id="SVGID_6_">
				<use xlink:href="#SVGID_5_"  overflow="visible"/>
			</clipPath>
			<path clip-path="url(#SVGID_6_)" fill="none" stroke="#000000" stroke-width="0.425" d="M102.376,110.541v5.016 M101.172,110.541
				v5.016 M99.967,110.541v5.016 M98.763,110.541v4.918 M97.558,110.541v4.918 M96.353,110.541v4.918 M95.149,110.541v1.666
				 M110.49,113.331c-1.807,0-3.271-1.463-3.271-3.269 M110.679,113.333h-0.188v-3.271h0.188V113.333z M77.247,113.256
				c-1.808,0-3.271-1.464-3.271-3.27 M77.435,113.258h-0.188v-3.271h0.188V113.258z M113.361,113.328
				c1.807,0,3.271-1.462,3.271-3.269 M113.173,113.331h0.188v-3.271h-0.188V113.331z M80.48,113.256c1.806,0,3.27-1.464,3.27-3.27
				 M80.291,113.258h0.188v-3.271h-0.188V113.258z M113.978,98.605c1.807,0,3.271,1.464,3.271,3.27 M113.79,98.603h0.188v3.272
				h-0.188V98.603z M94.891,100.152c-1.806,0-3.27,1.465-3.27,3.27 M95.079,100.15h-0.188v3.272h0.188V100.15z M67.441,102.492
				c0-1.806-1.464-3.27-3.27-3.27 M67.443,102.492h-3.271v0.188h3.271V102.492z"/>
		</g>
	</g>
	<line fill="none" stroke="#000000" stroke-width="1.18" x1="103.582" y1="110.541" x2="103.582" y2="115.557"/>
	<polyline fill="none" stroke="#000000" stroke-width="0.425" points="94.387,110.001 95.321,112.902 95.911,112.854 
		94.829,113.542 95.517,113.443 96.132,115.583 	"/>
	<path fill="#FFFFFF" d="M92.567,116.295h11.359v-0.59H92.567V116.295z M104.221,116.59H92.272v-1.18h11.949V116.59z"/>
	<path fill="none" stroke="#262626" stroke-width="0.425" d="M92.567,116.295h11.359v-0.59H92.567V116.295z M104.221,116.59H92.272
		v-1.18h11.949V116.59z"/>
	<path fill="none" stroke="#000000" stroke-width="0.425" d="M95.046,113.542v1.941 M93.841,110.567v4.916 M92.637,110.567v4.916
		 M94.998,116.642v4.918 M93.792,116.642v4.918 M92.588,116.642v4.918 M103.68,116.619v5.015 M102.475,116.619v5.015
		 M101.27,116.619v5.015 M99.939,116.619v5.015 M98.735,116.619v4.917 M97.529,116.619v4.917 M96.325,116.619v4.917"/>
	<polyline fill="none" stroke="#262626" stroke-width="1.18" stroke-miterlimit="10" points="88.437,110.157 88.437,121.518 
		112.039,121.518 	"/>
	<g>
		<path d="M56.41,88.694h-3.365v1.547h2.982v0.935h-2.982v1.598h3.408v0.935H52V87.76h4.411L56.41,88.694L56.41,88.694z"/>
	</g>
	<g>
		<g>
			<defs>
				<rect id="SVGID_7_" x="-64.042" y="56.483" width="546.664" height="643.645"/>
			</defs>
			<clipPath id="SVGID_8_">
				<use xlink:href="#SVGID_7_"  overflow="visible"/>
			</clipPath>
		</g>
		<g>
			<defs>
				<rect id="SVGID_9_" x="-64.042" y="56.483" width="546.664" height="643.645"/>
			</defs>
			<clipPath id="SVGID_10_">
				<use xlink:href="#SVGID_9_"  overflow="visible"/>
			</clipPath>
			<path clip-path="url(#SVGID_10_)" fill="#231F20" d="M383.591,127.959l-2.933-3.731h-0.491v4.655h0.512v-3.817l3.006,3.817h0.419
				v-4.655h-0.513V127.959z M379.075,124.229h-3.364v4.655h3.396v-0.479h-2.872v-1.629h2.54v-0.479h-2.54v-1.589h2.84V124.229
				L379.075,124.229z M373.868,126.788v2.095h0.525v-4.655h-0.525v2.068h-2.687v-2.068h-0.526v4.655h0.526v-2.095H373.868z
				 M369.739,128.146l-0.346-0.339c-0.446,0.425-0.865,0.671-1.503,0.671c-1.023,0-1.802-0.844-1.802-1.928s0.771-1.915,1.802-1.915
				c0.632,0,1.071,0.266,1.463,0.638l0.359-0.386c-0.465-0.438-0.972-0.738-1.815-0.738c-1.37,0-2.354,1.084-2.354,2.414
				c0,1.344,0.989,2.401,2.334,2.401C368.722,128.963,369.254,128.637,369.739,128.146 M363.522,124.714h1.562v-0.486h-3.657v0.486
				h1.562v4.169h0.532L363.522,124.714L363.522,124.714z M359.872,128.883h0.523v-4.655h-0.523V128.883z M356.926,126.263
				l1.995-2.035h-0.679l-2.675,2.78v-2.78h-0.523v4.655h0.523v-1.25l0.991-1.004l1.789,2.254h0.658L356.926,126.263z"/>
		</g>
		<g>
			<defs>
				<rect id="SVGID_11_" x="-64.042" y="56.483" width="546.664" height="643.645"/>
			</defs>
			<clipPath id="SVGID_12_">
				<use xlink:href="#SVGID_11_"  overflow="visible"/>
			</clipPath>
			<path clip-path="url(#SVGID_12_)" fill="#231F20" d="M241.108,305.075h1.562v-0.486h-3.657v0.486h1.562v4.168h0.531
				L241.108,305.075L241.108,305.075z M238.255,304.588h-3.364v4.654h3.398v-0.479h-2.873v-1.629h2.54v-0.479h-2.54v-1.589h2.839
				V304.588z M231.04,305.752c0-0.426,0.386-0.758,0.99-0.758c0.479,0,0.911,0.152,1.344,0.504l0.307-0.403
				c-0.473-0.38-0.957-0.572-1.637-0.572c-0.884,0-1.528,0.532-1.528,1.276c0,0.771,0.491,1.117,1.562,1.35
				c0.978,0.207,1.21,0.453,1.21,0.893c0,0.473-0.413,0.799-1.038,0.799c-0.646,0-1.109-0.221-1.597-0.66l-0.324,0.387
				c0.559,0.5,1.163,0.746,1.9,0.746c0.925,0,1.59-0.521,1.59-1.324c0-0.719-0.479-1.098-1.517-1.324
				C231.28,306.444,231.04,306.197,231.04,305.752 M229.011,306.922c0,1.064-0.758,1.916-1.821,1.916s-1.835-0.865-1.835-1.93
				c0-1.062,0.758-1.914,1.821-1.914C228.24,304.995,229.011,305.858,229.011,306.922 M229.557,306.909c0-1.289-0.95-2.4-2.367-2.4
				c-1.416,0-2.381,1.125-2.381,2.414c0,1.291,0.95,2.4,2.367,2.4C228.592,309.323,229.557,308.2,229.557,306.909 M221.165,309.243
				h3.146v-0.484h-2.62v-4.17h-0.524L221.165,309.243L221.165,309.243z M220.247,308.506l-0.347-0.34
				c-0.444,0.426-0.863,0.672-1.503,0.672c-1.023,0-1.802-0.846-1.802-1.93s0.771-1.914,1.802-1.914c0.632,0,1.07,0.267,1.463,0.639
				l0.358-0.387c-0.465-0.438-0.97-0.738-1.814-0.738c-1.369,0-2.354,1.085-2.354,2.414c0,1.344,0.991,2.4,2.334,2.4
				C219.23,309.323,219.763,308.997,220.247,308.506"/>
		</g>
		<g>
			<defs>
				<rect id="SVGID_13_" x="-64.042" y="56.483" width="546.664" height="643.645"/>
			</defs>
			<clipPath id="SVGID_14_">
				<use xlink:href="#SVGID_13_"  overflow="visible"/>
			</clipPath>
			<path clip-path="url(#SVGID_14_)" fill="#231F20" d="M271.563,263.349v2.095h0.525v-4.654h-0.525v2.067h-2.687v-2.067h-0.525
				v4.654h0.525v-2.095H271.563z M265.805,261.273h1.562v-0.483h-3.657v0.483h1.562v4.17h0.532L265.805,261.273L265.805,261.273z
				 M262.407,263.741h-2.122l1.063-2.373L262.407,263.741z M261.603,260.756h-0.492l-2.122,4.688h0.539l0.553-1.229h2.533
				l0.546,1.229h0.564L261.603,260.756z M256.669,264.972h-1.563v-1.644h1.471c0.812,0,1.236,0.293,1.236,0.805
				C257.812,264.659,257.374,264.972,256.669,264.972 M256.482,262.863h-1.377v-1.603h1.416c0.665,0,1.031,0.299,1.031,0.765
				C257.553,262.579,257.113,262.863,256.482,262.863 M256.568,260.79h-1.98v4.653h2.066c1.02,0,1.69-0.472,1.69-1.276
				c0-0.646-0.446-0.963-0.998-1.129c0.366-0.16,0.738-0.474,0.738-1.084C258.085,261.241,257.486,260.79,256.568,260.79"/>
		</g>
		<g>
			<defs>
				<rect id="SVGID_15_" x="-64.042" y="56.483" width="546.664" height="643.645"/>
			</defs>
			<clipPath id="SVGID_16_">
				<use xlink:href="#SVGID_15_"  overflow="visible"/>
			</clipPath>
			<path clip-path="url(#SVGID_16_)" fill="#231F20" d="M324.274,210.006H323.4v0.997h0.874V210.006z M321.485,208.909v2.095h0.524
				v-4.655h-0.524v2.068h-2.688v-2.068h-0.524v4.655h0.524v-2.095H321.485z M317.355,210.265l-0.346-0.339
				c-0.445,0.426-0.864,0.672-1.503,0.672c-1.023,0-1.802-0.845-1.802-1.929s0.771-1.915,1.802-1.915
				c0.631,0,1.07,0.266,1.463,0.639l0.359-0.386c-0.467-0.439-0.972-0.738-1.816-0.738c-1.369,0-2.354,1.084-2.354,2.414
				c0,1.343,0.99,2.4,2.334,2.4C316.338,211.083,316.87,210.757,317.355,210.265 M312.275,206.349h-3.364v4.655h3.396v-0.479h-2.872
				v-1.629h2.541v-0.479h-2.541v-1.59h2.84V206.349z M307.068,207.233v3.771h0.524v-4.655h-0.531l-1.695,2.54l-1.695-2.54h-0.532
				v4.655h0.513v-3.764l1.695,2.487h0.026L307.068,207.233z"/>
		</g>
		<g>
			<defs>
				<rect id="SVGID_17_" x="-64.042" y="56.483" width="546.664" height="643.645"/>
			</defs>
			<clipPath id="SVGID_18_">
				<use xlink:href="#SVGID_17_"  overflow="visible"/>
			</clipPath>
			<path clip-path="url(#SVGID_18_)" fill="#231F20" d="M314.41,298.683c0,1.038-0.752,1.836-1.93,1.836h-1.091v-3.685h1.091
				C313.658,296.834,314.41,297.646,314.41,298.683 M314.955,298.67c0-1.317-1.012-2.321-2.475-2.321h-1.616v4.655h1.616
				C313.944,301.004,314.955,299.986,314.955,298.67 M309.485,300.006h-0.874v0.998h0.874V300.006z M303.669,300.226l-1.33-3.877
				h-0.571l1.663,4.688h0.438l1.283-3.777l1.276,3.777h0.445l1.663-4.688h-0.553l-1.33,3.877l-1.276-3.89h-0.433L303.669,300.226z"
				/>
		</g>
		<g>
			<defs>
				<rect id="SVGID_19_" x="-64.042" y="56.483" width="546.664" height="643.645"/>
			</defs>
			<clipPath id="SVGID_20_">
				<use xlink:href="#SVGID_19_"  overflow="visible"/>
			</clipPath>
			<path clip-path="url(#SVGID_20_)" fill="#231F20" d="M410.004,312.278v3.77h0.525v-4.654h-0.532l-1.695,2.539l-1.695-2.539
				h-0.532v4.654h0.513v-3.764l1.695,2.486h0.027L410.004,312.278z M404.418,313.727c0,1.064-0.759,1.916-1.822,1.916
				s-1.835-0.863-1.835-1.928s0.759-1.916,1.822-1.916S404.418,312.663,404.418,313.727 M404.964,313.715
				c0-1.291-0.951-2.4-2.368-2.4c-1.416,0-2.38,1.123-2.38,2.412c0,1.291,0.95,2.402,2.366,2.402
				C403.999,316.129,404.964,315.004,404.964,313.715 M398.766,313.727c0,1.064-0.758,1.916-1.821,1.916s-1.835-0.863-1.835-1.928
				s0.759-1.916,1.821-1.916C397.994,311.799,398.766,312.663,398.766,313.727 M399.312,313.715c0-1.291-0.951-2.4-2.367-2.4
				s-2.381,1.123-2.381,2.412c0,1.291,0.95,2.402,2.367,2.402C398.347,316.129,399.312,315.004,399.312,313.715 M393.114,312.803
				c0,0.605-0.498,0.965-1.196,0.965h-1.431v-1.889h1.437C392.675,311.879,393.114,312.225,393.114,312.803 M393.812,316.049
				l-1.431-1.902c0.731-0.133,1.265-0.584,1.265-1.363c0-0.838-0.659-1.391-1.684-1.391h-2.001v4.656h0.524v-1.811h1.33l1.351,1.811
				H393.812L393.812,316.049z"/>
		</g>
		<g>
			<defs>
				<rect id="SVGID_21_" x="-64.042" y="56.483" width="546.664" height="643.645"/>
			</defs>
			<clipPath id="SVGID_22_">
				<use xlink:href="#SVGID_21_"  overflow="visible"/>
			</clipPath>
			<path clip-path="url(#SVGID_22_)" fill="#231F20" d="M425.83,306.917v-1.854h-1.922v0.472h1.417v1.158
				c-0.318,0.26-0.812,0.465-1.344,0.465c-1.131,0-1.843-0.824-1.843-1.941c0-1.045,0.739-1.914,1.77-1.914
				c0.659,0,1.059,0.219,1.417,0.531l0.339-0.398c-0.466-0.395-0.95-0.619-1.735-0.619c-1.396,0-2.334,1.131-2.334,2.414
				c0,1.337,0.903,2.4,2.367,2.4C424.746,307.627,425.399,307.303,425.83,306.917 M419.973,306.624l-2.934-3.729h-0.491v4.655h0.512
				v-3.817l3.007,3.817h0.419v-4.655h-0.513V306.624L419.973,306.624z M414.658,307.549h0.524v-4.655h-0.524V307.549z
				 M411.467,306.903l-1.656-4.01h-0.585l2.002,4.688h0.466l2.002-4.688h-0.564L411.467,306.903z M407.737,307.549h0.524v-4.655
				h-0.524V307.549z M403.573,307.549h3.146v-0.484h-2.62v-4.171h-0.524L403.573,307.549L403.573,307.549z M401.243,306.551h-0.874
				v0.998h0.874V306.551z M398.4,306.917v-1.854h-1.922v0.472h1.416v1.158c-0.318,0.26-0.812,0.465-1.343,0.465
				c-1.131,0-1.842-0.824-1.842-1.941c0-1.045,0.737-1.914,1.769-1.914c0.658,0,1.058,0.219,1.416,0.531l0.34-0.398
				c-0.466-0.395-0.951-0.619-1.736-0.619c-1.396,0-2.333,1.131-2.333,2.414c0,1.337,0.904,2.4,2.367,2.4
				C397.316,307.627,397.968,307.303,398.4,306.917 M392.542,306.624l-2.934-3.729h-0.491v4.655h0.512v-3.817l3.006,3.817h0.419
				v-4.655h-0.512V306.624z M387.229,307.549h0.525v-4.655h-0.525V307.549z M385.353,306.624l-2.932-3.729h-0.492v4.655h0.513
				v-3.817l3.005,3.817h0.42v-4.655h-0.514V306.624z M380.04,307.549h0.524v-4.655h-0.524V307.549z M378.338,305.228
				c0,1.038-0.752,1.837-1.929,1.837h-1.091v-3.686h1.091C377.586,303.379,378.338,304.19,378.338,305.228 M378.883,305.215
				c0-1.317-1.011-2.321-2.474-2.321h-1.616v4.655h1.616C377.872,307.549,378.883,306.532,378.883,305.215"/>
		</g>
		<g>
			<defs>
				<rect id="SVGID_23_" x="-64.042" y="56.483" width="546.664" height="643.645"/>
			</defs>
			<clipPath id="SVGID_24_">
				<use xlink:href="#SVGID_23_"  overflow="visible"/>
			</clipPath>
			<path clip-path="url(#SVGID_24_)" fill="#231F20" d="M389.611,74.269h-3.345v4.655h0.524v-2.028h2.521v-0.479h-2.521v-1.663
				h2.819L389.611,74.269L389.611,74.269z M385.176,74.269h-3.365v4.655h3.398v-0.479h-2.873v-1.629h2.54v-0.479h-2.54v-1.589h2.84
				V74.269L385.176,74.269z M380.155,75.678c0,0.605-0.499,0.964-1.196,0.964h-1.431v-1.889h1.438
				C379.717,74.753,380.155,75.1,380.155,75.678 M380.854,78.923l-1.43-1.902c0.73-0.133,1.264-0.585,1.264-1.363
				c0-0.838-0.659-1.39-1.684-1.39h-2.001v4.655h0.524v-1.809h1.33l1.351,1.809H380.854z"/>
		</g>
		<g>
			<defs>
				<rect id="SVGID_25_" x="-64.042" y="56.483" width="546.664" height="643.645"/>
			</defs>
			<clipPath id="SVGID_26_">
				<use xlink:href="#SVGID_25_"  overflow="visible"/>
			</clipPath>
			<path clip-path="url(#SVGID_26_)" fill="#231F20" d="M314.387,105.85l-1.329-3.877h-0.572l1.662,4.688h0.438l1.284-3.777
				l1.275,3.777h0.445l1.662-4.688h-0.552l-1.33,3.877l-1.275-3.89h-0.434L314.387,105.85z M311.427,104.307
				c0,1.038-0.752,1.836-1.929,1.836h-1.09v-3.684h1.09C310.675,102.458,311.427,103.27,311.427,104.307 M311.973,104.293
				c0-1.317-1.012-2.321-2.475-2.321h-1.616v4.655h1.616C310.961,106.627,311.973,105.61,311.973,104.293"/>
		</g>
	</g>
	<polygon fill="#BBBDBF" points="179.383,215.77 179.383,437.094 206.183,437.094 206.183,424.637 192.708,424.637 192.708,222.27 
		222.933,222.27 222.933,216.095 	"/>
	<rect x="193.979" y="223.995" fill="#FFFFFF" width="30.712" height="59.401"/>
	<rect x="193.979" y="223.995" fill="none" stroke="#000000" stroke-width="0.78" width="30.712" height="59.401"/>
	<g>
		<g>
			<defs>
				<rect id="SVGID_27_" x="-64.042" y="56.483" width="546.664" height="643.645"/>
			</defs>
			<clipPath id="SVGID_28_">
				<use xlink:href="#SVGID_27_"  overflow="visible"/>
			</clipPath>
			<circle clip-path="url(#SVGID_28_)" fill="none" stroke="#231F20" stroke-width="0.65" cx="209.189" cy="237.534" r="1.26"/>
		</g>
		<g>
			<defs>
				<rect id="SVGID_29_" x="-64.042" y="56.483" width="546.664" height="643.645"/>
			</defs>
			<clipPath id="SVGID_30_">
				<use xlink:href="#SVGID_29_"  overflow="visible"/>
			</clipPath>
			<path clip-path="url(#SVGID_30_)" fill="none" stroke="#000000" stroke-width="0.65" d="M209.24,280.004
				c8.804,0,12.024-2.03,12.024-4.877v-43.39c0-0.696-0.188-2.133-2.029-2.133h-9.996h-0.02h-9.997c-1.84,0-2.028,1.437-2.028,2.133
				V275.1l0.002,0.027C197.197,277.974,200.493,280.004,209.24,280.004z"/>
		</g>
		<g>
			<defs>
				<rect id="SVGID_31_" x="-64.042" y="56.483" width="546.664" height="643.645"/>
			</defs>
			<clipPath id="SVGID_32_">
				<use xlink:href="#SVGID_31_"  overflow="visible"/>
			</clipPath>
			<path clip-path="url(#SVGID_32_)" fill="none" stroke="#231F20" stroke-width="0.585" d="M203.847,227.396
				c-0.009,0.713,0.578,1.285,1.287,1.285c0.705,0,1.286-0.572,1.286-1.285c0-0.708-0.581-1.294-1.286-1.285
				C204.422,226.103,203.847,226.688,203.847,227.396z M211.83,227.396c-0.003,0.713,0.572,1.285,1.294,1.285
				c0.697,0,1.276-0.572,1.281-1.285c-0.005-0.708-0.584-1.294-1.281-1.294C212.403,226.103,211.827,226.681,211.83,227.396z"/>
		</g>
		<g>
			<defs>
				<rect id="SVGID_33_" x="-64.042" y="56.483" width="546.664" height="643.645"/>
			</defs>
			<clipPath id="SVGID_34_">
				<use xlink:href="#SVGID_33_"  overflow="visible"/>
			</clipPath>
			<path clip-path="url(#SVGID_34_)" fill="#FFFFFF" d="M210.923,227.016c0-1.056-0.713-1.909-1.771-1.912
				c-1.053,0.003-1.63,0.856-1.63,1.912l0.679,7.269c0,0.714,1.928,0.714,1.928,0L210.923,227.016z"/>
		</g>
		<g>
			<defs>
				<rect id="SVGID_35_" x="-64.042" y="56.483" width="546.664" height="643.645"/>
			</defs>
			<clipPath id="SVGID_36_">
				<use xlink:href="#SVGID_35_"  overflow="visible"/>
			</clipPath>
			<path clip-path="url(#SVGID_36_)" fill="none" stroke="#231F20" stroke-width="0.585" d="M210.923,227.016
				c0-1.056-0.713-1.909-1.771-1.912c-1.053,0.003-1.63,0.856-1.63,1.912l0.679,7.269c0,0.714,1.928,0.714,1.928,0L210.923,227.016z
				"/>
		</g>
	</g>
	<path fill="none" stroke="#000000" stroke-width="0.78" d="M295.592,289.915h26.435 M316.867,289.915v-3.668l-3.17-0.855h-9.709
		l-3.21,0.855v3.668 M322.026,282.721h-26.243v24.107h26.243V282.721z"/>
	<polygon fill="#FFFFFF" points="297.06,288.333 299.18,288.329 299.645,289.806 296.593,289.812 	"/>
	<polygon fill="none" stroke="#231F20" stroke-width="0.78" points="297.06,288.333 299.18,288.329 299.645,289.806 
		296.593,289.812 	"/>
	<g>
		<g>
			<defs>
				<rect id="SVGID_37_" x="-64.042" y="56.483" width="546.664" height="643.645"/>
			</defs>
			<clipPath id="SVGID_38_">
				<use xlink:href="#SVGID_37_"  overflow="visible"/>
			</clipPath>
			<path clip-path="url(#SVGID_38_)" fill="none" stroke="#000000" stroke-width="0.975" d="M464.527,87.683
				c-15.914,0-28.816-12.901-28.816-28.818 M466.188,87.701h-1.661V58.865h1.661V87.701z M218.541,341.069
				c15.914,0,28.816-12.902,28.816-28.82 M216.88,341.084h1.661v-28.836h-1.661V341.084z"/>
		</g>
		<g>
			<defs>
				<rect id="SVGID_39_" x="-64.042" y="56.483" width="546.664" height="643.645"/>
			</defs>
			<clipPath id="SVGID_40_">
				<use xlink:href="#SVGID_39_"  overflow="visible"/>
			</clipPath>
			<path clip-path="url(#SVGID_40_)" fill="#FFFFFF" d="M230.204,234.403c0,5.802,3.522,12.19,7.866,12.19
				c4.347,0,7.867-6.388,7.867-12.19c0-5.802-3.521-8.821-7.867-8.821C233.728,225.582,230.204,228.601,230.204,234.403"/>
		</g>
		<g>
			<defs>
				<rect id="SVGID_41_" x="-64.042" y="56.483" width="546.664" height="643.645"/>
			</defs>
			<clipPath id="SVGID_42_">
				<use xlink:href="#SVGID_41_"  overflow="visible"/>
			</clipPath>
			<path clip-path="url(#SVGID_42_)" fill="none" stroke="#000000" stroke-width="0.78" d="M230.204,234.403
				c0,5.802,3.522,12.19,7.866,12.19c4.347,0,7.867-6.388,7.867-12.19c0-5.802-3.521-8.821-7.867-8.821
				C233.728,225.582,230.204,228.601,230.204,234.403z"/>
		</g>
		<g>
			<defs>
				<rect id="SVGID_43_" x="-64.042" y="56.483" width="546.664" height="643.645"/>
			</defs>
			<clipPath id="SVGID_44_">
				<use xlink:href="#SVGID_43_"  overflow="visible"/>
			</clipPath>
			<path clip-path="url(#SVGID_44_)" fill="#FFFFFF" d="M242.782,227.485c0,0.325,0.266,0.59,0.591,0.59h2.753
				c0.325,0,0.591-0.265,0.591-0.59v-0.102c0-0.325-0.266-0.59-0.591-0.59h-2.753c-0.325,0-0.591,0.265-0.591,0.59V227.485z"/>
		</g>
		<g>
			<defs>
				<rect id="SVGID_45_" x="-64.042" y="56.483" width="546.664" height="643.645"/>
			</defs>
			<clipPath id="SVGID_46_">
				<use xlink:href="#SVGID_45_"  overflow="visible"/>
			</clipPath>
			<path clip-path="url(#SVGID_46_)" fill="none" stroke="#231F20" stroke-width="0.78" d="M242.782,227.485
				c0,0.325,0.266,0.59,0.591,0.59h2.753c0.325,0,0.591-0.265,0.591-0.59v-0.102c0-0.325-0.266-0.59-0.591-0.59h-2.753
				c-0.325,0-0.591,0.265-0.591,0.59V227.485z"/>
		</g>
		<g>
			<defs>
				<rect id="SVGID_47_" x="-64.042" y="56.483" width="546.664" height="643.645"/>
			</defs>
			<clipPath id="SVGID_48_">
				<use xlink:href="#SVGID_47_"  overflow="visible"/>
			</clipPath>
			<path clip-path="url(#SVGID_48_)" fill="#FFFFFF" d="M247.134,226.778c0.985,0,1.788-2.674,1.788-3.661
				c0-0.988-0.803-3.662-1.788-3.662h-17.971c-0.988,0-1.788,2.674-1.788,3.662c0,0.987,0.8,3.658,1.788,3.658L247.134,226.778z"/>
		</g>
		<g>
			<defs>
				<rect id="SVGID_49_" x="-64.042" y="56.483" width="546.664" height="643.645"/>
			</defs>
			<clipPath id="SVGID_50_">
				<use xlink:href="#SVGID_49_"  overflow="visible"/>
			</clipPath>
			<path clip-path="url(#SVGID_50_)" fill="none" stroke="#000000" stroke-width="0.78" d="M247.134,226.778
				c0.985,0,1.788-2.674,1.788-3.661c0-0.988-0.803-3.662-1.788-3.662h-17.971c-0.988,0-1.788,2.674-1.788,3.662
				c0,0.987,0.8,3.658,1.788,3.658L247.134,226.778z"/>
		</g>
		<g>
			<defs>
				<rect id="SVGID_51_" x="-64.042" y="56.483" width="546.664" height="643.645"/>
			</defs>
			<clipPath id="SVGID_52_">
				<use xlink:href="#SVGID_51_"  overflow="visible"/>
			</clipPath>
			<path clip-path="url(#SVGID_52_)" fill="#FFFFFF" d="M232.288,234.646c0,4.263,2.59,8.96,5.783,8.96s5.781-4.697,5.781-8.96
				s-2.588-6.482-5.781-6.482C234.878,228.165,232.288,230.384,232.288,234.646"/>
		</g>
		<g>
			<defs>
				<rect id="SVGID_53_" x="-64.042" y="56.483" width="546.664" height="643.645"/>
			</defs>
			<clipPath id="SVGID_54_">
				<use xlink:href="#SVGID_53_"  overflow="visible"/>
			</clipPath>
			<path clip-path="url(#SVGID_54_)" fill="none" stroke="#000000" stroke-width="0.65" d="M232.288,234.646
				c0,4.263,2.59,8.96,5.783,8.96s5.781-4.697,5.781-8.96s-2.588-6.482-5.781-6.482
				C234.878,228.165,232.288,230.384,232.288,234.646z"/>
		</g>
	</g>
	<path fill="none" stroke="#231F20" stroke-width="0.78" d="M409.095,438.928h44.523 M342.146,438.934h45.5 M275.681,439.016h46.8
		 M206.782,439.125h50.7 M207.595,426.333h46.476 M319.477,426.333h-43.632 M386.021,426.333h-44.2 M408.445,426.659h44.85"/>
	<polyline fill="none" stroke="#000000" stroke-width="0.78" points="255.37,218.333 255.37,242.058 284.62,242.058 284.62,218.333 
			"/>
	<line fill="none" stroke="#000000" stroke-width="0.975" x1="265.771" y1="300.883" x2="193.62" y2="300.883"/>
	
		<line fill="none" stroke="#000000" stroke-width="0.975" stroke-dasharray="1.912,1.912,1.912,1.912,1.912,1.912" stroke-dashoffset="3" x1="195.028" y1="297.471" x2="265.77" y2="297.471"/>
	<g>
		<g>
			<defs>
				<rect id="SVGID_55_" x="-64.042" y="56.483" width="546.664" height="643.645"/>
			</defs>
			<clipPath id="SVGID_56_">
				<use xlink:href="#SVGID_55_"  overflow="visible"/>
			</clipPath>
			<path clip-path="url(#SVGID_56_)" fill="none" stroke="#000000" stroke-width="0.975" d="M301.021,247.068
				c0,15.916,12.9,28.817,28.817,28.817 M301.002,247.068h28.836v-1.66h-28.836V247.068z"/>
		</g>
	</g>
	<polyline fill="none" stroke="#000000" stroke-width="0.78" points="364.462,60.274 364.462,85.95 325.126,85.909 325.126,160.484 
			"/>
	<polygon fill="#FFFFFF" points="326.591,118.068 300.914,118.258 300.859,148.482 326.534,148.293 	"/>
	<polygon fill="none" stroke="#000000" stroke-width="0.78" points="326.591,118.068 300.914,118.258 300.859,148.482 
		326.534,148.293 	"/>
	<line fill="none" stroke="#000000" stroke-width="0.39" x1="303.149" y1="148.506" x2="303.148" y2="118.242"/>
	<g>
		<g>
			<defs>
				<rect id="SVGID_57_" x="-64.042" y="56.483" width="546.664" height="643.645"/>
			</defs>
			<clipPath id="SVGID_58_">
				<use xlink:href="#SVGID_57_"  overflow="visible"/>
			</clipPath>
			<path clip-path="url(#SVGID_58_)" fill="#FFFFFF" d="M312.433,139.455c-0.015-2.171-1.793-3.914-3.958-3.899
				c-2.174,0.017-3.917,1.786-3.898,3.957c0.016,2.169,1.786,3.916,3.957,3.899C310.698,143.395,312.45,141.623,312.433,139.455"/>
		</g>
		<g>
			<defs>
				<rect id="SVGID_59_" x="-64.042" y="56.483" width="546.664" height="643.645"/>
			</defs>
			<clipPath id="SVGID_60_">
				<use xlink:href="#SVGID_59_"  overflow="visible"/>
			</clipPath>
			<path clip-path="url(#SVGID_60_)" fill="none" stroke="#231F20" stroke-width="0.65" d="M312.433,139.455
				c-0.015-2.171-1.793-3.914-3.958-3.899c-2.174,0.017-3.917,1.786-3.898,3.957c0.016,2.169,1.786,3.916,3.957,3.899
				C310.698,143.395,312.45,141.623,312.433,139.455z"/>
		</g>
		<g>
			<defs>
				<rect id="SVGID_61_" x="-64.042" y="56.483" width="546.664" height="643.645"/>
			</defs>
			<clipPath id="SVGID_62_">
				<use xlink:href="#SVGID_61_"  overflow="visible"/>
			</clipPath>
			<path clip-path="url(#SVGID_62_)" fill="#FFFFFF" d="M312.347,127.68c-0.018-2.17-1.794-3.913-3.961-3.897
				c-2.17,0.016-3.915,1.786-3.897,3.954c0.018,2.167,1.787,3.918,3.957,3.903C310.609,131.624,312.361,129.847,312.347,127.68"/>
		</g>
		<g>
			<defs>
				<rect id="SVGID_63_" x="-64.042" y="56.483" width="546.664" height="643.645"/>
			</defs>
			<clipPath id="SVGID_64_">
				<use xlink:href="#SVGID_63_"  overflow="visible"/>
			</clipPath>
			<path clip-path="url(#SVGID_64_)" fill="none" stroke="#231F20" stroke-width="0.65" d="M312.347,127.68
				c-0.018-2.17-1.794-3.913-3.961-3.897c-2.17,0.016-3.915,1.786-3.897,3.954c0.018,2.167,1.787,3.918,3.957,3.903
				C310.609,131.624,312.361,129.847,312.347,127.68z"/>
		</g>
		<g>
			<defs>
				<rect id="SVGID_65_" x="-64.042" y="56.483" width="546.664" height="643.645"/>
			</defs>
			<clipPath id="SVGID_66_">
				<use xlink:href="#SVGID_65_"  overflow="visible"/>
			</clipPath>
			<path clip-path="url(#SVGID_66_)" fill="#FFFFFF" d="M323.12,139.376c-0.019-2.171-1.786-3.915-3.953-3.898
				c-2.172,0.014-3.919,1.787-3.902,3.955c0.015,2.17,1.785,3.917,3.961,3.9C321.393,143.317,323.137,141.544,323.12,139.376"/>
		</g>
		<g>
			<defs>
				<rect id="SVGID_67_" x="-64.042" y="56.483" width="546.664" height="643.645"/>
			</defs>
			<clipPath id="SVGID_68_">
				<use xlink:href="#SVGID_67_"  overflow="visible"/>
			</clipPath>
			<path clip-path="url(#SVGID_68_)" fill="none" stroke="#231F20" stroke-width="0.65" d="M323.12,139.376
				c-0.019-2.171-1.786-3.915-3.953-3.898c-2.172,0.014-3.919,1.787-3.902,3.955c0.015,2.17,1.785,3.917,3.961,3.9
				C321.393,143.317,323.137,141.544,323.12,139.376z"/>
		</g>
		<g>
			<defs>
				<rect id="SVGID_69_" x="-64.042" y="56.483" width="546.664" height="643.645"/>
			</defs>
			<clipPath id="SVGID_70_">
				<use xlink:href="#SVGID_69_"  overflow="visible"/>
			</clipPath>
			<path clip-path="url(#SVGID_70_)" fill="#FFFFFF" d="M323.032,127.601c-0.018-2.17-1.784-3.914-3.951-3.896
				c-2.177,0.016-3.92,1.785-3.903,3.953s1.788,3.918,3.961,3.9C321.305,131.543,323.05,129.768,323.032,127.601"/>
		</g>
		<g>
			<defs>
				<rect id="SVGID_71_" x="-64.042" y="56.483" width="546.664" height="643.645"/>
			</defs>
			<clipPath id="SVGID_72_">
				<use xlink:href="#SVGID_71_"  overflow="visible"/>
			</clipPath>
			<path clip-path="url(#SVGID_72_)" fill="none" stroke="#231F20" stroke-width="0.65" d="M323.032,127.601
				c-0.018-2.17-1.784-3.914-3.951-3.896c-2.177,0.016-3.92,1.785-3.903,3.953s1.788,3.918,3.961,3.9
				C321.305,131.543,323.05,129.768,323.032,127.601z"/>
		</g>
	</g>
	<rect x="326.494" y="119.128" fill="#FFFFFF" width="1.19" height="28.167"/>
	<rect x="326.494" y="119.128" fill="none" stroke="#231F20" stroke-width="0.78" width="1.19" height="28.167"/>
	<line fill="none" stroke="#000000" stroke-width="0.65" x1="401.253" y1="89.669" x2="365.503" y2="89.669"/>
	<rect x="385.789" y="91.794" fill="none" stroke="#000000" stroke-width="0.78" width="2.763" height="1.463"/>
	<rect x="365.793" y="61.707" fill="none" stroke="#000000" stroke-width="0.78" width="35.242" height="30.062"/>
	<rect x="377.094" y="91.794" fill="none" stroke="#000000" stroke-width="0.78" width="2.763" height="1.463"/>
	<g>
		<g>
			<defs>
				<rect id="SVGID_73_" x="-64.042" y="56.483" width="546.664" height="643.645"/>
			</defs>
			<clipPath id="SVGID_74_">
				<use xlink:href="#SVGID_73_"  overflow="visible"/>
			</clipPath>
			<circle clip-path="url(#SVGID_74_)" fill="none" stroke="#000000" stroke-width="0.52" cx="269.625" cy="230.082" r="1.189"/>
		</g>
		<g>
			<defs>
				<rect id="SVGID_75_" x="-64.042" y="56.483" width="546.664" height="643.645"/>
			</defs>
			<clipPath id="SVGID_76_">
				<use xlink:href="#SVGID_75_"  overflow="visible"/>
			</clipPath>
			<path clip-path="url(#SVGID_76_)" fill="none" stroke="#000000" stroke-width="0.65" d="M269.625,220.25
				c0.637,0,1.153,0.516,1.153,1.154c0,0.638-0.518,1.154-1.153,1.154c-0.637,0-1.155-0.516-1.155-1.154
				C268.47,220.766,268.988,220.25,269.625,220.25z M270.156,227.45h-1.062v-4.716h1.062V227.45z M274.817,222.624h-10.386v-2.487
				h10.386V222.624z"/>
		</g>
	</g>
	<rect x="259.096" y="219.756" fill="none" stroke="#000000" stroke-width="0.78" width="21.06" height="19.075"/>
	<rect x="260.725" y="222.681" fill="none" stroke="#000000" stroke-width="0.585" width="17.76" height="14.52"/>
	<g>
		<g>
			<defs>
				<rect id="SVGID_77_" x="-64.042" y="56.483" width="546.664" height="643.645"/>
			</defs>
			<clipPath id="SVGID_78_">
				<use xlink:href="#SVGID_77_"  overflow="visible"/>
			</clipPath>
			<path clip-path="url(#SVGID_78_)" fill="#FFFFFF" d="M331.399,65.323c0-1.008,0.83-1.843,1.844-1.843h22.404
				c1.011,0,1.838,0.832,1.838,1.843V81.08c0,1.016-0.826,1.844-1.838,1.844h-22.404c-1.014,0-1.844-0.828-1.844-1.844V65.323z"/>
		</g>
		<g>
			<defs>
				<rect id="SVGID_79_" x="-64.042" y="56.483" width="546.664" height="643.645"/>
			</defs>
			<clipPath id="SVGID_80_">
				<use xlink:href="#SVGID_79_"  overflow="visible"/>
			</clipPath>
			<path clip-path="url(#SVGID_80_)" fill="none" stroke="#231F20" stroke-width="0.78" d="M331.399,65.323
				c0-1.008,0.83-1.843,1.844-1.843h22.404c1.011,0,1.838,0.832,1.838,1.843V81.08c0,1.016-0.826,1.844-1.838,1.844h-22.404
				c-1.014,0-1.844-0.828-1.844-1.844V65.323z"/>
		</g>
		<g>
			<defs>
				<rect id="SVGID_81_" x="-64.042" y="56.483" width="546.664" height="643.645"/>
			</defs>
			<clipPath id="SVGID_82_">
				<use xlink:href="#SVGID_81_"  overflow="visible"/>
			</clipPath>
			<path clip-path="url(#SVGID_82_)" fill="#FFFFFF" d="M353.682,67.791c1.038,0.003,1.894,0.835,1.894,1.851v9.463
				c-0.007,1.016-0.854,1.849-1.894,1.849h-18.423c-1.036,0-1.884-0.836-1.884-1.849v-9.463c0-1.016,0.848-1.851,1.884-1.851
				H353.682z"/>
		</g>
		<g>
			<defs>
				<rect id="SVGID_83_" x="-64.042" y="56.483" width="546.664" height="643.645"/>
			</defs>
			<clipPath id="SVGID_84_">
				<use xlink:href="#SVGID_83_"  overflow="visible"/>
			</clipPath>
			<path clip-path="url(#SVGID_84_)" fill="none" stroke="#231F20" stroke-width="0.585" d="M353.682,67.791
				c1.038,0.003,1.894,0.835,1.894,1.851v9.463c-0.007,1.016-0.854,1.849-1.894,1.849h-18.423c-1.036,0-1.884-0.836-1.884-1.849
				v-9.463c0-1.016,0.848-1.851,1.884-1.851H353.682z"/>
		</g>
		<g>
			<defs>
				<rect id="SVGID_85_" x="-64.042" y="56.483" width="546.664" height="643.645"/>
			</defs>
			<clipPath id="SVGID_86_">
				<use xlink:href="#SVGID_85_"  overflow="visible"/>
			</clipPath>
			<path clip-path="url(#SVGID_86_)" fill="#FFFFFF" d="M342.876,74.588c0-0.762,0.622-1.386,1.389-1.386
				c0.771,0,1.384,0.624,1.384,1.386c0,0.764-0.61,1.391-1.384,1.391C343.498,75.979,342.876,75.352,342.876,74.588"/>
		</g>
		<g>
			<defs>
				<rect id="SVGID_87_" x="-64.042" y="56.483" width="546.664" height="643.645"/>
			</defs>
			<clipPath id="SVGID_88_">
				<use xlink:href="#SVGID_87_"  overflow="visible"/>
			</clipPath>
			<path clip-path="url(#SVGID_88_)" fill="none" stroke="#231F20" stroke-width="0.52" d="M342.876,74.588
				c0-0.762,0.622-1.386,1.389-1.386c0.771,0,1.384,0.624,1.384,1.386c0,0.764-0.61,1.391-1.384,1.391
				C343.498,75.979,342.876,75.352,342.876,74.588z"/>
		</g>
		<g>
			<defs>
				<rect id="SVGID_89_" x="-64.042" y="56.483" width="546.664" height="643.645"/>
			</defs>
			<clipPath id="SVGID_90_">
				<use xlink:href="#SVGID_89_"  overflow="visible"/>
			</clipPath>
			<path clip-path="url(#SVGID_90_)" fill="#FFFFFF" d="M339.285,65.586c0-0.74,0.603-1.424,1.342-1.424h7.312
				c0.741,0,1.341,0.684,1.341,1.424c0,0.74-0.6,1.424-1.341,1.424h-7.312C339.888,67.01,339.285,66.326,339.285,65.586"/>
		</g>
		<g>
			<defs>
				<rect id="SVGID_91_" x="-64.042" y="56.483" width="546.664" height="643.645"/>
			</defs>
			<clipPath id="SVGID_92_">
				<use xlink:href="#SVGID_91_"  overflow="visible"/>
			</clipPath>
			<path clip-path="url(#SVGID_92_)" fill="none" stroke="#231F20" stroke-width="0.52" d="M339.285,65.586
				c0-0.74,0.603-1.424,1.342-1.424h7.312c0.741,0,1.341,0.684,1.341,1.424c0,0.74-0.6,1.424-1.341,1.424h-7.312
				C339.888,67.01,339.285,66.326,339.285,65.586z"/>
		</g>
		<g>
			<defs>
				<rect id="SVGID_93_" x="-64.042" y="56.483" width="546.664" height="643.645"/>
			</defs>
			<clipPath id="SVGID_94_">
				<use xlink:href="#SVGID_93_"  overflow="visible"/>
			</clipPath>
			<path clip-path="url(#SVGID_94_)" fill="#FFFFFF" d="M338.801,73.364l6.273-6.815c0.349-0.4,0.311-0.998-0.09-1.349
				c-0.388-0.358-0.998-0.322-1.351,0.08l-5.989,7.063C337.365,72.668,338.514,73.679,338.801,73.364"/>
		</g>
		<g>
			<defs>
				<rect id="SVGID_95_" x="-64.042" y="56.483" width="546.664" height="643.645"/>
			</defs>
			<clipPath id="SVGID_96_">
				<use xlink:href="#SVGID_95_"  overflow="visible"/>
			</clipPath>
			<path clip-path="url(#SVGID_96_)" fill="none" stroke="#231F20" stroke-width="0.65" d="M338.801,73.364l6.273-6.815
				c0.349-0.4,0.311-0.998-0.09-1.349c-0.388-0.358-0.998-0.322-1.351,0.08l-5.989,7.063
				C337.365,72.668,338.514,73.679,338.801,73.364z"/>
		</g>
		<g>
			<defs>
				<rect id="SVGID_97_" x="-64.042" y="56.483" width="546.664" height="643.645"/>
			</defs>
			<clipPath id="SVGID_98_">
				<use xlink:href="#SVGID_97_"  overflow="visible"/>
			</clipPath>
			<path clip-path="url(#SVGID_98_)" fill="#FFFFFF" d="M345.077,68.955v-3.292c0-0.35-0.287-0.64-0.646-0.64
				c-0.348,0-0.632,0.29-0.632,0.64v3.292c0,0.357,0.284,0.642,0.636,0.642C344.79,69.597,345.077,69.312,345.077,68.955"/>
		</g>
		<g>
			<defs>
				<rect id="SVGID_99_" x="-64.042" y="56.483" width="546.664" height="643.645"/>
			</defs>
			<clipPath id="SVGID_100_">
				<use xlink:href="#SVGID_99_"  overflow="visible"/>
			</clipPath>
			<path clip-path="url(#SVGID_100_)" fill="none" stroke="#231F20" stroke-width="0.52" d="M345.077,68.955v-3.292
				c0-0.35-0.287-0.64-0.646-0.64c-0.348,0-0.632,0.29-0.632,0.64v3.292c0,0.357,0.284,0.642,0.636,0.642
				C344.79,69.597,345.077,69.312,345.077,68.955z"/>
		</g>
		<g>
			<defs>
				<rect id="SVGID_101_" x="-64.042" y="56.483" width="546.664" height="643.645"/>
			</defs>
			<clipPath id="SVGID_102_">
				<use xlink:href="#SVGID_101_"  overflow="visible"/>
			</clipPath>
			<path clip-path="url(#SVGID_102_)" fill="#FFFFFF" d="M346.461,65.71c0-0.423,0.348-0.767,0.771-0.767
				c0.421,0,0.765,0.344,0.765,0.767c0,0.416-0.344,0.764-0.769,0.764C346.806,66.474,346.461,66.13,346.461,65.71"/>
		</g>
		<g>
			<defs>
				<rect id="SVGID_103_" x="-64.042" y="56.483" width="546.664" height="643.645"/>
			</defs>
			<clipPath id="SVGID_104_">
				<use xlink:href="#SVGID_103_"  overflow="visible"/>
			</clipPath>
			<path clip-path="url(#SVGID_104_)" fill="none" stroke="#231F20" stroke-width="0.455" d="M346.461,65.71
				c0-0.423,0.348-0.767,0.771-0.767c0.421,0,0.765,0.344,0.765,0.767c0,0.416-0.344,0.764-0.769,0.764
				C346.806,66.474,346.461,66.13,346.461,65.71z"/>
		</g>
		<g>
			<defs>
				<rect id="SVGID_105_" x="-64.042" y="56.483" width="546.664" height="643.645"/>
			</defs>
			<clipPath id="SVGID_106_">
				<use xlink:href="#SVGID_105_"  overflow="visible"/>
			</clipPath>
			<path clip-path="url(#SVGID_106_)" fill="#FFFFFF" d="M340.562,65.642c0-0.423,0.35-0.767,0.772-0.767
				c0.421,0,0.764,0.344,0.764,0.767c0,0.418-0.343,0.764-0.767,0.764S340.562,66.062,340.562,65.642"/>
		</g>
		<g>
			<defs>
				<rect id="SVGID_107_" x="-64.042" y="56.483" width="546.664" height="643.645"/>
			</defs>
			<clipPath id="SVGID_108_">
				<use xlink:href="#SVGID_107_"  overflow="visible"/>
			</clipPath>
			<path clip-path="url(#SVGID_108_)" fill="none" stroke="#231F20" stroke-width="0.455" d="M340.562,65.642
				c0-0.423,0.35-0.767,0.772-0.767c0.421,0,0.764,0.344,0.764,0.767c0,0.418-0.343,0.764-0.767,0.764
				S340.562,66.062,340.562,65.642z"/>
		</g>
	</g>
	
		<line fill="none" stroke="#000000" stroke-width="0.65" stroke-dasharray="1.936,1.936,1.936,1.936,1.936,1.936" stroke-dashoffset="3" x1="322.26" y1="115.679" x2="303.871" y2="115.679"/>
	
		<line fill="none" stroke="#000000" stroke-width="0.65" stroke-dasharray="1.899,1.899,1.899,1.899,1.899,1.899" stroke-dashoffset="3" x1="301.935" y1="112.831" x2="301.935" y2="94.794"/>
	
		<line fill="none" stroke="#000000" stroke-width="0.65" stroke-dasharray="1.892,1.892,1.892,1.892,1.892,1.892" stroke-dashoffset="3" x1="304.773" y1="92.896" x2="322.75" y2="92.896"/>
	<path fill="none" stroke="#000000" stroke-width="0.65" d="M323.696,92.896h0.946 M301.935,93.845v-0.949h0.945 M302.902,115.679
		h-0.968v-0.949 M325.163,115.679h-0.969"/>
	<polyline fill="none" stroke="#000000" stroke-width="0.65" points="324.643,92.86 327.107,92.86 327.107,115.679 325.174,115.679 
			"/>
	<polyline fill="#BBBDBF" points="472.348,59.445 472.348,425.014 454.315,425.014 454.315,437.364 480.674,437.364 480.661,58.433 
		466.568,58.433 	"/>
	<g>
		<g>
			<defs>
				<rect id="SVGID_109_" x="-64.042" y="56.483" width="546.664" height="643.645"/>
			</defs>
			<clipPath id="SVGID_110_">
				<use xlink:href="#SVGID_109_"  overflow="visible"/>
			</clipPath>
			<polyline clip-path="url(#SVGID_110_)" fill="none" stroke="#231F20" stroke-width="3.9" points="472.348,59.445 
				472.348,425.014 454.315,425.014 454.315,437.364 480.674,437.364 480.661,58.433 466.568,58.433 			"/>
		</g>
	</g>
	<path fill="none" stroke="#231F20" stroke-width="3.9" d="M452.645,432.182h-44.85 M386.562,432.182h-44.851 M321.67,432.182
		h-45.825 M253.095,432.182H206.62"/>
	<path fill="none" stroke="#231F20" stroke-width="5.2" d="M329.236,426.333v-10.076 M329.236,377.584V275.209 M329.236,245.634
		v-8.45 M193.513,286.024h73.016v25.043h61.317"/>
	<rect x="331.996" y="360.413" fill="none" stroke="#231F20" stroke-width="0.78" width="1.949" height="47.125"/>
	<polygon fill="#BBBDBF" points="387.562,423.833 387.562,437.393 407.795,437.393 407.795,423.874 	"/>
	<polygon fill="none" stroke="#231F20" stroke-width="3.9" points="387.562,423.833 387.562,437.393 407.795,437.393 
		407.795,423.874 	"/>
	<polygon fill="#BBBDBF" points="320.646,423.776 320.646,437.448 340.881,437.393 340.881,423.79 	"/>
	<polygon fill="none" stroke="#231F20" stroke-width="3.9" points="320.646,423.776 320.646,437.448 340.881,437.393 
		340.881,423.79 	"/>
	<polygon fill="#BBBDBF" points="253.613,423.803 253.613,437.532 274.071,437.448 274.071,423.79 	"/>
	<polygon fill="none" stroke="#231F20" stroke-width="3.9" points="253.613,423.803 253.613,437.532 274.071,437.448 
		274.071,423.79 	"/>
	<g>
		<g>
			<defs>
				<rect id="SVGID_111_" x="-64.042" y="56.483" width="546.664" height="643.645"/>
			</defs>
			<clipPath id="SVGID_112_">
				<use xlink:href="#SVGID_111_"  overflow="visible"/>
			</clipPath>
			<polyline clip-path="url(#SVGID_112_)" fill="none" stroke="#231F20" stroke-width="3.9" points="436.156,58.789 296.541,58.789 
				296.646,216.277 179.146,216.227 179.146,437.559 206.183,437.559 206.183,424.639 192.69,424.639 192.506,221.945 
				223.367,221.945 223.415,216.745 			"/>
		</g>
	</g>
	<path fill="none" stroke="#231F20" stroke-width="5.2" d="M297.945,161.133h30.9v31.616 M328.846,222.233v12.675h-39.675v-17.225
		 M193.512,313.667h23.834 M247.462,313.667h83.199"/>
	<rect x="327.975" y="183.433" fill="none" stroke="#231F20" stroke-width="0.78" width="1.95" height="47.125"/>
	<g>
		<g>
			<defs>
				<rect id="SVGID_113_" x="-64.042" y="56.483" width="546.664" height="643.645"/>
			</defs>
			<clipPath id="SVGID_114_">
				<use xlink:href="#SVGID_113_"  overflow="visible"/>
			</clipPath>
			
				<line clip-path="url(#SVGID_114_)" fill="none" stroke="#231F20" stroke-width="5.2" x1="405.031" y1="59.472" x2="405.031" y2="94.572"/>
		</g>
		<g>
			<defs>
				<rect id="SVGID_115_" x="-64.042" y="56.483" width="546.664" height="643.645"/>
			</defs>
			<clipPath id="SVGID_116_">
				<use xlink:href="#SVGID_115_"  overflow="visible"/>
			</clipPath>
			
				<line clip-path="url(#SVGID_116_)" fill="none" stroke="#231F20" stroke-width="3.9" stroke-dasharray="5.995,1.995,5.995,1.995,5.995,1.995" stroke-dashoffset="7" x1="470.309" y1="60.745" x2="470.309" y2="426.313"/>
		</g>
	</g>
	<rect x="229.606" y="430.665" fill="#FFFFFF" width="18.579" height="3.164"/>
	<rect x="229.606" y="430.665" fill="none" stroke="#000000" stroke-width="0.78" width="18.579" height="3.164"/>
	<line fill="none" stroke="#000000" stroke-width="0.78" x1="229.605" y1="432.317" x2="248.076" y2="432.317"/>
	<rect x="210.486" y="430.665" fill="#FFFFFF" width="19.068" height="3.164"/>
	<rect x="210.486" y="430.665" fill="none" stroke="#000000" stroke-width="0.78" width="19.068" height="3.164"/>
	<line fill="none" stroke="#000000" stroke-width="0.78" x1="210.486" y1="432.317" x2="229.555" y2="432.317"/>
	<rect x="430.915" y="430.643" fill="#FFFFFF" width="18.58" height="3.164"/>
	<rect x="430.915" y="430.643" fill="none" stroke="#000000" stroke-width="0.78" width="18.58" height="3.164"/>
	<line fill="none" stroke="#000000" stroke-width="0.78" x1="430.917" y1="432.295" x2="449.387" y2="432.295"/>
	<rect x="411.797" y="430.643" fill="#FFFFFF" width="19.068" height="3.164"/>
	<rect x="411.797" y="430.643" fill="none" stroke="#000000" stroke-width="0.78" width="19.068" height="3.164"/>
	<line fill="none" stroke="#000000" stroke-width="0.78" x1="411.797" y1="432.295" x2="430.865" y2="432.295"/>
	<rect x="365.274" y="430.633" fill="#FFFFFF" width="18.58" height="3.164"/>
	<rect x="365.274" y="430.633" fill="none" stroke="#000000" stroke-width="0.78" width="18.58" height="3.164"/>
	<line fill="none" stroke="#000000" stroke-width="0.78" x1="365.274" y1="432.286" x2="383.745" y2="432.286"/>
	<rect x="346.154" y="430.633" fill="#FFFFFF" width="19.068" height="3.164"/>
	<rect x="346.154" y="430.633" fill="none" stroke="#000000" stroke-width="0.78" width="19.068" height="3.164"/>
	<line fill="none" stroke="#000000" stroke-width="0.78" x1="346.154" y1="432.286" x2="365.224" y2="432.286"/>
	<rect x="297.236" y="430.651" fill="#FFFFFF" width="18.58" height="3.164"/>
	<rect x="297.236" y="430.651" fill="none" stroke="#000000" stroke-width="0.78" width="18.58" height="3.164"/>
	<line fill="none" stroke="#000000" stroke-width="0.78" x1="297.236" y1="432.303" x2="315.707" y2="432.303"/>
	<rect x="278.116" y="430.651" fill="#FFFFFF" width="19.067" height="3.164"/>
	<rect x="278.116" y="430.651" fill="none" stroke="#000000" stroke-width="0.78" width="19.067" height="3.164"/>
	<line fill="none" stroke="#000000" stroke-width="0.78" x1="278.116" y1="432.303" x2="297.186" y2="432.303"/>
	<g>
		<g>
			<defs>
				<rect id="SVGID_117_" x="-64.042" y="56.483" width="546.664" height="643.645"/>
			</defs>
			<clipPath id="SVGID_118_">
				<use xlink:href="#SVGID_117_"  overflow="visible"/>
			</clipPath>
			<path clip-path="url(#SVGID_118_)" fill="#231F20" d="M275.615,379.229h-0.468l-0.475,1.549h0.296L275.615,379.229z
				 M274.67,379.229h-0.47l-0.472,1.549h0.293L274.67,379.229z M272.042,380.434c0,0.486-0.401,0.955-1.044,0.955
				c-0.611,0-1.031-0.385-1.031-0.924c0-0.529,0.378-0.99,1.008-0.99S272.042,379.895,272.042,380.434 M272.618,381.12
				c0-0.846-0.191-1.303-0.521-1.633c-0.271-0.271-0.624-0.434-1.104-0.434c-0.895,0-1.513,0.631-1.513,1.436
				c0,0.762,0.601,1.309,1.464,1.309c0.582,0,0.96-0.307,1.188-0.672c0.018,1.074-0.492,1.842-1.248,1.842
				c-0.372,0-0.69-0.148-1.032-0.451l-0.275,0.367c0.354,0.293,0.75,0.518,1.296,0.518
				C271.91,383.399,272.618,382.458,272.618,381.12 M267.837,379.229h-0.47l-0.473,1.549h0.293L267.837,379.229z M265.279,382.18
				c0,0.434-0.407,0.793-1.098,0.793c-0.689,0-1.099-0.359-1.099-0.793c0-0.473,0.485-0.803,1.099-0.803
				S265.279,381.708,265.279,382.18 M265.142,380.213c0,0.461-0.426,0.773-0.96,0.773s-0.96-0.312-0.96-0.773
				c0-0.426,0.414-0.73,0.96-0.73S265.142,379.793,265.142,380.213 M265.76,382.188c0-0.506-0.366-0.848-0.864-1.031
				c0.391-0.182,0.721-0.48,0.721-0.975c0-0.652-0.666-1.113-1.435-1.113s-1.435,0.461-1.435,1.113c0,0.492,0.33,0.793,0.721,0.975
				c-0.504,0.18-0.864,0.533-0.864,1.037c0,0.709,0.685,1.193,1.578,1.193S265.76,382.907,265.76,382.188 M258.979,382.827
				l-1.129-1.504l1.087-1.438h-0.386l-0.896,1.201l-0.901-1.201h-0.392l1.089,1.441l-1.131,1.5h0.383l0.94-1.266l0.941,1.266
				H258.979L258.979,382.827z M253.252,379.229h-0.47l-0.476,1.549h0.296L253.252,379.229z M252.305,379.229h-0.468l-0.474,1.549
				h0.293L252.305,379.229z M248.64,379.452l0.114,0.383l0.792-0.246v3.738h0.468v-4.23h-0.349L248.64,379.452z M247.205,379.229
				h-0.469l-0.472,1.549h0.293L247.205,379.229z M243.462,379.452l0.113,0.383l0.792-0.246v3.738h0.469v-4.23h-0.35L243.462,379.452
				z M240.497,379.452l0.113,0.383l0.792-0.246v3.738h0.469v-4.23h-0.349L240.497,379.452z"/>
		</g>
		<g>
			<defs>
				<rect id="SVGID_119_" x="-64.042" y="56.483" width="546.664" height="643.645"/>
			</defs>
			<clipPath id="SVGID_120_">
				<use xlink:href="#SVGID_119_"  overflow="visible"/>
			</clipPath>
			<path clip-path="url(#SVGID_120_)" fill="#231F20" d="M275.487,371.532v3.77h0.525v-4.654h-0.532l-1.695,2.541l-1.694-2.541
				h-0.532v4.654h0.512v-3.764l1.696,2.486h0.026L275.487,371.532z M269.901,372.981c0,1.062-0.758,1.914-1.821,1.914
				s-1.836-0.863-1.836-1.928c0-1.062,0.76-1.916,1.822-1.916C269.131,371.053,269.901,371.917,269.901,372.981 M270.446,372.967
				c0-1.289-0.95-2.4-2.366-2.4s-2.382,1.125-2.382,2.414c0,1.291,0.951,2.4,2.368,2.4
				C269.482,375.381,270.446,374.258,270.446,372.967 M264.25,372.981c0,1.062-0.759,1.914-1.822,1.914
				c-1.064,0-1.836-0.863-1.836-1.928c0-1.062,0.758-1.916,1.822-1.916C263.478,371.053,264.25,371.917,264.25,372.981
				 M264.795,372.967c0-1.289-0.951-2.4-2.367-2.4c-1.417,0-2.381,1.125-2.381,2.414c0,1.291,0.951,2.4,2.367,2.4
				C263.831,375.381,264.795,374.258,264.795,372.967 M258.597,372.057c0,0.605-0.499,0.965-1.197,0.965h-1.43v-1.891h1.438
				C258.157,371.131,258.597,371.477,258.597,372.057 M259.295,375.301l-1.43-1.9c0.73-0.135,1.264-0.586,1.264-1.363
				c0-0.838-0.658-1.391-1.684-1.391h-2.002v4.654h0.525v-1.809h1.331l1.349,1.809H259.295z M253.789,372.981
				c0,1.037-0.751,1.836-1.93,1.836h-1.091v-3.686h1.091C253.038,371.131,253.789,371.944,253.789,372.981 M254.335,372.967
				c0-1.314-1.012-2.32-2.476-2.32h-1.615v4.654h1.615C253.323,375.301,254.335,374.286,254.335,372.967 M249.153,370.647h-3.364
				v4.654h3.398v-0.479h-2.873v-1.629h2.54v-0.48h-2.54v-1.588h2.839V370.647z M243.069,374.831h-1.562v-1.645h1.47
				c0.812,0,1.237,0.293,1.237,0.807C244.214,374.516,243.774,374.831,243.069,374.831 M242.884,372.721h-1.377v-1.602h1.416
				c0.665,0,1.03,0.299,1.03,0.764C243.953,372.436,243.515,372.721,242.884,372.721 M242.97,370.647h-1.982v4.654h2.068
				c1.019,0,1.689-0.473,1.689-1.277c0-0.645-0.445-0.965-0.997-1.131c0.364-0.158,0.736-0.471,0.736-1.084
				C244.485,371.098,243.888,370.647,242.97,370.647"/>
		</g>
	</g>
</g>
<g id="Layer_3">
</g>
<g id="_x32_03">
</g>
<g id="_x32_06">
</g>
<g>
	<g>
		<defs>
			<rect id="SVGID_121_" x="44.658" y="157.93" width="100.145" height="4.562"/>
		</defs>
		<clipPath id="SVGID_122_">
			<use xlink:href="#SVGID_121_"  overflow="visible"/>
		</clipPath>
		<path clip-path="url(#SVGID_122_)" fill="#231F20" d="M144.801,158.307v-0.301h-3.402v0.301h1.537v4.109h0.328v-4.109H144.801z
			 M139.01,162.416v-0.303h-2.842v-1.771h2.525v-0.303h-2.525v-1.732h2.811v-0.303h-3.139v4.41h3.17V162.416z M133.135,162.416
			v-0.303h-2.84v-1.771h2.525v-0.303h-2.525v-1.732h2.809v-0.303h-3.137v4.41h3.168V162.416z M126.858,159.283
			c0,0.637-0.547,1.01-1.283,1.01h-1.486v-1.986h1.506c0.799,0,1.266,0.373,1.266,0.964v0.012H126.858z M127.35,162.416
			l-1.455-1.885c0.744-0.102,1.291-0.523,1.291-1.26v-0.014c0-0.736-0.623-1.253-1.574-1.253h-1.852v4.41h0.326v-1.826h1.443
			l1.404,1.826h0.416V162.416z M121.11,158.307v-0.301h-3.4v0.301h1.539v4.109h0.326v-4.109H121.11z M115.387,161.275v-0.014
			c0-0.643-0.428-1.008-1.449-1.215c-1.045-0.215-1.285-0.498-1.285-0.965v-0.012c0-0.46,0.43-0.833,1.078-0.833
			c0.484,0,0.9,0.141,1.316,0.5l0.209-0.259c-0.449-0.359-0.871-0.535-1.514-0.535c-0.818,0-1.418,0.504-1.418,1.16v0.012
			c0,0.668,0.43,1.027,1.488,1.242c1.002,0.199,1.246,0.471,1.246,0.938v0.012c0,0.506-0.453,0.877-1.115,0.877
			c-0.648,0-1.096-0.207-1.58-0.654l-0.215,0.244c0.529,0.475,1.07,0.707,1.775,0.707
			C114.776,162.479,115.387,161.986,115.387,161.275 M104.225,162.416v-4.41h-0.312v3.835l-3.043-3.835h-0.311v4.41h0.316v-3.919
			l3.104,3.919H104.225z M97.451,160.225c0,1.088-0.781,1.971-1.871,1.971s-1.885-0.895-1.885-1.984v-0.014
			c0-1.09,0.781-1.97,1.871-1.97s1.883,0.894,1.883,1.984v0.014H97.451z M97.793,160.211c0.006-0.006,0.006-0.006,0-0.014
			c0-1.203-0.877-2.269-2.213-2.269c-1.334,0-2.225,1.078-2.225,2.281v0.014c0,1.203,0.877,2.268,2.213,2.268
			C96.903,162.49,97.793,161.414,97.793,160.211 M91.25,158.307v-0.301h-3.402v0.301h1.538v4.109h0.327v-4.109H91.25z
			 M85.451,161.83v-1.701h-1.789v0.301h1.474v1.268c-0.321,0.271-0.844,0.504-1.405,0.504c-1.178,0-1.89-0.85-1.89-1.99v-0.014
			c0-1.062,0.75-1.97,1.821-1.97c0.668,0,1.07,0.225,1.418,0.529l0.214-0.246c-0.441-0.365-0.896-0.58-1.613-0.58
			c-1.316,0-2.18,1.089-2.18,2.281v0.014c0,1.24,0.825,2.268,2.218,2.268C84.438,162.49,85.054,162.184,85.451,161.83
			 M78.734,162.416v-4.41h-0.314v3.835l-3.043-3.835h-0.309v4.41h0.315v-3.919l3.104,3.919H78.734z M72.059,158.006h-0.328v4.41
			h0.328V158.006z M68.724,162.416v-4.41h-0.327v2.041h-2.822v-2.041h-0.327v4.41h0.327v-2.066h2.822v2.066H68.724z M62.516,161.275
			v-0.014c0-0.643-0.428-1.008-1.449-1.215c-1.045-0.215-1.284-0.498-1.284-0.965v-0.012c0-0.46,0.429-0.833,1.076-0.833
			c0.486,0,0.901,0.141,1.317,0.5l0.208-0.259c-0.447-0.359-0.869-0.535-1.512-0.535c-0.819,0-1.417,0.504-1.417,1.16v0.012
			c0,0.668,0.428,1.027,1.485,1.242c1.002,0.199,1.248,0.471,1.248,0.938v0.012c0,0.506-0.454,0.877-1.114,0.877
			c-0.649,0-1.098-0.207-1.582-0.654l-0.215,0.244c0.529,0.475,1.071,0.707,1.777,0.707
			C61.905,162.479,62.516,161.986,62.516,161.275 M56.012,160.885h-2.325l1.166-2.55L56.012,160.885z M57.071,162.416l-2.054-4.441
			h-0.314l-2.054,4.441h0.341l0.56-1.236h2.602l0.562,1.236H57.071z M50.97,158.006h-0.34l-1.386,3.923l-1.292-3.937H47.7
			l-1.291,3.937l-1.387-3.923h-0.365l1.601,4.439h0.264l1.292-3.83l1.291,3.83h0.266L50.97,158.006z"/>
	</g>
</g>
</svg>
