<svg xmlns="http://www.w3.org/2000/svg" width="513.359" height="495.36" xmlns:xlink="http://www.w3.org/1999/xlink"><g><path fill="#fff" d="M78.64 58.64h33.15v44.2H78.63zM111.8 58.64h33.14v44.2H111.8zM144.94 110.5v-7.66H120.3v7.65h-8.5v41.64h33.14z"/><path fill="#BBBDBF" d="M78.64 110.5h-20.4v17H45.5V153h33.14z"/><path fill="#fff" d="M77.8 109.64v42.5h34v-30.6H88.83V108.8zM45.5 57.8h32.3v45.04H64.2v-6.8h-4.26v-10.2H45.5z"/><defs><path id="a" d="M-64.04 56.48h546.66v643.65H-64.04z"/></defs><clipPath id="b"><use xlink:href="#a" overflow="visible"/></clipPath><path fill="none" stroke="#000" stroke-width=".425" d="M55.75 104.64c0 1.8 1.45 3.25 3.25 3.25m-3.25-3.26H59v-.2h-3.25v.2z" clip-path="url(#b)"/><path fill="none" stroke="#000" stroke-width=".452" d="M49.36 116.1h8.96m-12.22 1.2h12.22m-12.23 1.2h12.2m-12.17 1.18h12.23m-12.2 1.2h12.2m-12.2 1.2h12.2m-12.17 1.25h12.16"/><path fill="none" stroke="#000" stroke-width=".425" d="M45.86 109.33h6.38m-6.38 1.2h6.38m-6.38 1.2h6.38m-6.38 1.2h6.38m-6.38 1.2h6.32m-6.44 1.2h5.47m-5.1.94h3.55"/><path fill="none" stroke="#000" stroke-width="1.18" d="M45.86 108.2h6.38"/><path fill="none" stroke="#000" stroke-width=".425" d="M46.38 118.84l3.66-2.7-.2-.55.94.87-.26-.64 1.76-1.07"/><path fill="none" stroke="#000" stroke-width=".452" d="M51.85 114.9h6.77"/><path fill="#fff" d="M52.6 123.6h.6v-15.33h-.6v15.33zm-.3-15.73h1.2V124h-1.2v-16.13z"/><path fill="none" stroke="#262626" stroke-width=".495" d="M52.6 123.6h.6v-15.33h-.6v15.33zm-.3-15.73h1.2V124h-1.2v-16.13z"/><defs><path id="c" d="M-64.04 56.48h546.66v643.65H-64.04z"/></defs><clipPath id="d"><use xlink:href="#c" overflow="visible"/></clipPath><path fill="none" stroke="#262626" stroke-width="2.065" stroke-miterlimit="10" d="M145.38 152.8H45.08V57.93h100.3z" clip-path="url(#d)"/><path fill="none" stroke="#262626" stroke-width="1.18" stroke-miterlimit="10" d="M58.5 110.16h61.8v-7.38M48.75 95.7H60.1m-11.64 7.97H58.5v.88m0 3.25v19.76H45.94m-.73-23.74h3.4V85.67h11.64V96.3h3.98v6.93h47.8l.06-.88h8.05l-.07-.16h25.74m-67.4 50.88V109.8m33.47 43.28V109.8m0-7.3V58.6m-33.64 43.9V58.6"/><defs><path id="e" d="M-64.04 56.48h546.66v643.65H-64.04z"/></defs><clipPath id="f"><use xlink:href="#e" overflow="visible"/></clipPath><path fill="none" stroke="#000" stroke-width=".425" d="M102.38 110.54v5.02m-1.2-5.02v5.02m-1.2-5.02v5.02m-1.22-5.02v4.92m-1.2-4.92v4.92m-1.2-4.92v4.92m-1.2-4.92v1.67m15.33 1.13c-1.82 0-3.28-1.46-3.28-3.27m3.46 3.27h-.2v-3.27h.2v3.27zm-33.43-.07c-1.8 0-3.27-1.47-3.27-3.27m3.45 3.26h-.18V110h.18v3.26zm35.93.07c1.8 0 3.27-1.46 3.27-3.27m-3.46 3.27h.2v-3.27h-.2v3.27zm-32.7-.07c1.82 0 3.28-1.47 3.28-3.27m-3.46 3.26h.18V110h-.2v3.26zm33.68-14.66c1.8 0 3.27 1.47 3.27 3.28m-3.46-3.28h.18v3.27h-.2V98.6zm-18.9 1.55c-1.82 0-3.28 1.47-3.28 3.27m3.46-3.27h-.2v3.27h.2v-3.27zm-27.64 2.34c0-1.8-1.46-3.28-3.27-3.28m3.27 3.27h-3.27v.18h3.27v-.2z" clip-path="url(#f)"/><path fill="none" stroke="#000" stroke-width="1.18" d="M103.58 110.54v5.02"/><path fill="none" stroke="#000" stroke-width=".425" d="M94.4 110l.92 2.9.6-.05-1.1.7.7-.1.6 2.13"/><path fill="#fff" d="M92.57 116.3h11.36v-.6H92.57v.6zm11.65.3H92.27v-1.2h11.95v1.2z"/><path fill="none" stroke="#262626" stroke-width=".425" d="M92.57 116.3h11.36v-.6H92.57v.6zm11.65.3H92.27v-1.2h11.95v1.2z"/><path fill="none" stroke="#000" stroke-width=".425" d="M95.05 113.54v1.94m-1.2-4.9v4.9m-1.2-4.9v4.9m2.35 1.16v4.92m-1.2-4.92v4.92m-1.2-4.92v4.92m11.08-4.94v5m-1.2-5v5m-1.2-5v5m-1.34-5v5m-1.2-5v4.92m-1.2-4.92v4.92m-1.22-4.92v4.92"/><path fill="none" stroke="#262626" stroke-width="1.18" stroke-miterlimit="10" d="M88.44 110.16v11.36h23.6"/><path d="M56.4 88.7h-3.36v1.54h3v.94h-3v1.6h3.4v.93H52v-5.94h4.4v.93z"/><defs><path id="g" d="M-64.04 56.48h546.66v643.65H-64.04z"/></defs><clipPath><use xlink:href="#g" overflow="visible"/></clipPath><defs><path id="h" d="M-64.04 56.48h546.66v643.65H-64.04z"/></defs><clipPath id="i"><use xlink:href="#h" overflow="visible"/></clipPath><path fill="#231F20" d="M383.6 127.96l-2.94-3.73h-.5v4.65h.52v-3.8l3 3.8h.42v-4.65h-.5v3.73zm-4.53-3.73h-3.36v4.65h3.4v-.48h-2.86v-1.62h2.54v-.48h-2.54v-1.6h2.84v-.47zm-5.2 2.56v2.08h.52v-4.65h-.53v2.07h-2.7v-2.07h-.52v4.65h.53v-2.1h2.7zm-4.13 1.35l-.35-.34c-.45.43-.87.68-1.5.68-1.03 0-1.8-.85-1.8-1.93s.76-1.92 1.8-1.92c.62 0 1.06.27 1.45.64l.36-.38c-.45-.45-.96-.75-1.8-.75-1.37 0-2.36 1.08-2.36 2.4 0 1.36 1 2.4 2.34 2.4.84 0 1.37-.3 1.86-.8m-6.22-3.44h1.56v-.47h-3.65v.48H363v4.18h.52v-4.17zm-3.65 4.18h.53v-4.65h-.53v4.65zm-2.94-2.62l2-2.03h-.7l-2.66 2.78v-2.77h-.53v4.65h.53v-1.25l1-1 1.78 2.25h.65l-2.07-2.62z" clip-path="url(#i)"/><defs><path id="j" d="M-64.04 56.48h546.66v643.65H-64.04z"/></defs><clipPath id="k"><use xlink:href="#j" overflow="visible"/></clipPath><path fill="#231F20" d="M241.1 305.07h1.57v-.48H239v.47h1.58v4.17h.53v-4.17zm-2.84-.48h-3.37v4.64h3.4v-.48h-2.88v-1.63h2.54v-.47h-2.54v-1.6h2.84v-.47zm-7.22 1.15c0-.42.4-.76 1-.76.47 0 .9.15 1.33.5l.3-.4c-.46-.38-.95-.58-1.63-.58-.88 0-1.52.54-1.52 1.28 0 .77.5 1.12 1.56 1.35.98.2 1.2.45 1.2.9 0 .47-.4.8-1.03.8-.65 0-1.1-.23-1.6-.67l-.32.4c.56.5 1.16.73 1.9.73.92 0 1.6-.5 1.6-1.3 0-.73-.5-1.1-1.53-1.33-1.02-.23-1.26-.47-1.26-.92m-2.03 1.17c0 1.07-.75 1.92-1.8 1.92s-1.84-.87-1.84-1.93c0-1.05.75-1.9 1.82-1.9 1.06 0 1.83.86 1.83 1.92m.56 0c0-1.3-.95-2.4-2.37-2.4-1.43 0-2.4 1.1-2.4 2.4 0 1.3.96 2.4 2.38 2.4 1.4 0 2.38-1.12 2.38-2.4m-8.4 2.32h3.15v-.48h-2.6v-4.17h-.53v4.64zm-.9-.73l-.36-.33c-.44.42-.86.67-1.5.67-1.03 0-1.8-.85-1.8-1.93s.77-1.9 1.8-1.9c.63 0 1.07.26 1.46.63l.36-.38c-.47-.44-.97-.74-1.82-.74-1.36 0-2.35 1.1-2.35 2.42 0 1.35 1 2.4 2.33 2.4.85 0 1.38-.32 1.87-.8" clip-path="url(#k)"/><defs><path id="l" d="M-64.04 56.48h546.66v643.65H-64.04z"/></defs><clipPath id="m"><use xlink:href="#l" overflow="visible"/></clipPath><path fill="#231F20" d="M271.56 263.35v2.1h.53v-4.66h-.54v2.06h-2.68v-2.07h-.53v4.64h.53v-2.1h2.68zm-5.75-2.08h1.57v-.48h-3.66v.47h1.57v4.17h.53v-4.17zm-3.4 2.47h-2.1l1.05-2.37 1.06 2.37zm-.8-2.98h-.5l-2.1 4.68h.53l.55-1.23h2.53l.56 1.24h.56l-2.12-4.68zm-4.93 4.2h-1.56v-1.63h1.48c.8 0 1.23.3 1.23.8 0 .53-.43.84-1.13.84m-.2-2.1h-1.36v-1.6h1.42c.67 0 1.03.3 1.03.76 0 .55-.44.83-1.07.83m.1-2.07h-2v4.64h2.07c1.02 0 1.7-.47 1.7-1.27 0-.65-.45-.97-1-1.13.36-.16.73-.48.73-1.1 0-.7-.6-1.15-1.5-1.15" clip-path="url(#m)"/><defs><path id="n" d="M-64.04 56.48h546.66v643.65H-64.04z"/></defs><clipPath id="o"><use xlink:href="#n" overflow="visible"/></clipPath><path fill="#231F20" d="M324.27 210h-.87v1h.87v-1zm-2.78-1.1v2.1h.5v-4.65h-.5v2.07h-2.7v-2.07h-.53V211h.53v-2.1h2.7zm-4.14 1.36l-.35-.33c-.44.42-.85.67-1.5.67-1.02 0-1.8-.85-1.8-1.93s.78-1.92 1.8-1.92c.64 0 1.08.27 1.47.64l.36-.4c-.47-.43-.97-.73-1.82-.73-1.36 0-2.34 1.08-2.34 2.4 0 1.36 1 2.4 2.33 2.4.84 0 1.37-.3 1.86-.8m-5.1-3.92h-3.35V211h3.4v-.48h-2.86v-1.62h2.54v-.48h-2.55v-1.6h2.84v-.47zm-5.2.88V211h.53v-4.65h-.54l-1.7 2.54-1.7-2.55h-.52V211h.5v-3.76l1.7 2.5h.03l1.7-2.5z" clip-path="url(#o)"/><defs><path id="p" d="M-64.04 56.48h546.66v643.65H-64.04z"/></defs><clipPath id="q"><use xlink:href="#p" overflow="visible"/></clipPath><path fill="#231F20" d="M314.4 298.68c0 1.04-.74 1.84-1.92 1.84h-1.1v-3.7h1.1c1.18 0 1.93.83 1.93 1.86m.56 0c0-1.33-1.02-2.33-2.48-2.33h-1.62V301h1.62c1.46 0 2.47-1 2.47-2.33M309.5 300h-.9v1h.88v-1zm-5.83.23l-1.33-3.88h-.57l1.66 4.7h.44l1.28-3.8 1.28 3.8h.44l1.67-4.7h-.56l-1.33 3.88-1.27-3.9h-.44l-1.27 3.9z" clip-path="url(#q)"/><defs><path id="r" d="M-64.04 56.48h546.66v643.65H-64.04z"/></defs><clipPath id="s"><use xlink:href="#r" overflow="visible"/></clipPath><path fill="#231F20" d="M410 312.28v3.77h.53v-4.66H410l-1.7 2.53-1.7-2.54h-.52v4.65h.5v-3.77l1.7 2.5h.03l1.7-2.5zm-5.58 1.45c0 1.06-.76 1.9-1.82 1.9s-1.84-.85-1.84-1.92.76-1.9 1.82-1.9 1.84.86 1.84 1.93m.54-.02c0-1.28-.95-2.4-2.36-2.4-1.42 0-2.38 1.14-2.38 2.43 0 1.3.95 2.4 2.36 2.4 1.42 0 2.38-1.13 2.38-2.42m-6.2.03c0 1.06-.75 1.9-1.8 1.9s-1.85-.85-1.85-1.92.77-1.9 1.83-1.9 1.84.86 1.84 1.93m.54-.02c0-1.28-.94-2.4-2.35-2.4s-2.4 1.14-2.4 2.43c0 1.3.96 2.4 2.38 2.4s2.38-1.13 2.38-2.42m-6.2-.9c0 .6-.48.97-1.18.97h-1.43v-1.9h1.42c.75 0 1.2.36 1.2.93m.7 3.25l-1.44-1.9c.73-.14 1.27-.6 1.27-1.37 0-.83-.66-1.4-1.7-1.4h-2v4.67h.54v-1.8h1.32l1.35 1.8h.64z" clip-path="url(#s)"/><defs><path id="t" d="M-64.04 56.48h546.66v643.65H-64.04z"/></defs><clipPath id="u"><use xlink:href="#t" overflow="visible"/></clipPath><path fill="#231F20" d="M425.83 306.92v-1.86h-1.92v.47h1.42v1.16c-.3.25-.8.46-1.34.46-1.13 0-1.84-.83-1.84-1.94 0-1.05.74-1.92 1.77-1.92.67 0 1.07.22 1.42.53l.34-.4c-.46-.4-.95-.6-1.73-.6-1.4 0-2.34 1.12-2.34 2.4 0 1.34.9 2.4 2.36 2.4.8 0 1.44-.33 1.87-.7m-5.86-.3l-2.93-3.73h-.5v4.65h.52v-3.82l3 3.82h.43v-4.66h-.53v3.72zm-5.3.92h.5v-4.66h-.5v4.65zm-3.2-.65l-1.66-4h-.57l2 4.68h.46l2-4.7h-.57l-1.66 4.02zm-3.73.65h.52v-4.66h-.52v4.65zm-4.17 0h3.15v-.5h-2.62v-4.16h-.53v4.65zm-2.33-1h-.87v1h.87v-1zm-2.84.37v-1.86h-1.92v.47h1.4v1.16c-.3.25-.8.46-1.33.46-1.13 0-1.84-.83-1.84-1.94 0-1.05.75-1.92 1.78-1.92.66 0 1.06.22 1.4.53l.35-.4c-.46-.4-.95-.6-1.73-.6-1.4 0-2.34 1.12-2.34 2.4 0 1.34.9 2.4 2.37 2.4.8 0 1.44-.33 1.87-.7m-5.86-.3l-2.93-3.73h-.48v4.65h.5v-3.82l3 3.82h.43v-4.66h-.5v3.72zm-5.3.92h.5v-4.66h-.5v4.65zm-1.9-.93l-2.92-3.72h-.5v4.65h.52v-3.82l3 3.82h.43v-4.66h-.52v3.72zm-5.3.93h.52v-4.66h-.52v4.65zm-1.7-2.32c0 1.04-.75 1.83-1.93 1.83h-1.08v-3.68h1.1c1.17 0 1.92.8 1.92 1.85m.54-.02c0-1.3-1-2.3-2.47-2.3h-1.6v4.65h1.6c1.47 0 2.48-1.02 2.48-2.34" clip-path="url(#u)"/><defs><path id="v" d="M-64.04 56.48h546.66v643.65H-64.04z"/></defs><clipPath id="w"><use xlink:href="#v" overflow="visible"/></clipPath><path fill="#231F20" d="M389.6 74.27h-3.33v4.65h.52V76.9h2.5v-.48h-2.5v-1.67h2.8v-.48zm-4.42 0h-3.37v4.65h3.4v-.47h-2.86v-1.63h2.54v-.48h-2.54v-1.6h2.84v-.47zm-5.03 1.4c0 .6-.5.97-1.2.97h-1.42v-1.9h1.44c.75 0 1.18.36 1.18.94m.7 3.24l-1.43-1.9c.73-.13 1.27-.58 1.27-1.36 0-.84-.67-1.4-1.7-1.4h-2v4.66h.53v-1.8h1.33l1.35 1.8h.65z" clip-path="url(#w)"/><defs><path id="x" d="M-64.04 56.48h546.66v643.65H-64.04z"/></defs><clipPath id="y"><use xlink:href="#x" overflow="visible"/></clipPath><path fill="#231F20" d="M314.4 105.85l-1.34-3.88h-.57l1.65 4.7h.44l1.27-3.8 1.27 3.8h.45l1.65-4.7h-.55l-1.33 3.88-1.28-3.9h-.44l-1.27 3.9zm-2.97-1.54c0 1.05-.75 1.84-1.93 1.84h-1.1v-3.68h1.1c1.18 0 1.93.8 1.93 1.85m.54 0c0-1.32-1-2.33-2.47-2.33h-1.62v4.66h1.62c1.46 0 2.47-1.02 2.47-2.34" clip-path="url(#y)"/><path fill="#BBBDBF" d="M179.38 215.77V437.1h26.8v-12.46H192.7V222.27h30.23v-6.18z"/><path fill="#fff" d="M193.98 224h30.7v59.4H194z"/><path fill="none" stroke="#000" stroke-width=".78" d="M193.98 224h30.7v59.4H194z"/><defs><path id="z" d="M-64.04 56.48h546.66v643.65H-64.04z"/></defs><clipPath id="A"><use xlink:href="#z" overflow="visible"/></clipPath><circle cx="209.189" cy="237.534" r="1.26" fill="none" stroke="#231F20" stroke-width=".65" clip-path="url(#A)"/><defs><path id="B" d="M-64.04 56.48h546.66v643.65H-64.04z"/></defs><clipPath id="C"><use xlink:href="#B" overflow="visible"/></clipPath><path fill="none" stroke="#000" stroke-width=".65" d="M209.24 280c8.8 0 12.02-2.03 12.02-4.87v-43.4c0-.7-.18-2.13-2.02-2.13h-20.02c-1.84 0-2.03 1.44-2.03 2.14v43.39c0 2.84 3.3 4.87 12.04 4.87z" clip-path="url(#C)"/><defs><path id="D" d="M-64.04 56.48h546.66v643.65H-64.04z"/></defs><clipPath id="E"><use xlink:href="#D" overflow="visible"/></clipPath><path fill="none" stroke="#231F20" stroke-width=".585" d="M203.85 227.4c0 .7.58 1.28 1.28 1.28.7 0 1.3-.57 1.3-1.28 0-.7-.6-1.3-1.3-1.3-.7 0-1.28.6-1.28 1.3zm7.98 0c0 .7.57 1.28 1.3 1.28.7 0 1.27-.57 1.28-1.28 0-.7-.58-1.3-1.28-1.3-.72 0-1.3.58-1.3 1.3z" clip-path="url(#E)"/><defs><path id="F" d="M-64.04 56.48h546.66v643.65H-64.04z"/></defs><clipPath id="G"><use xlink:href="#F" overflow="visible"/></clipPath><path fill="#fff" d="M210.92 227.02c0-1.06-.7-1.9-1.77-1.92-1.05 0-1.63.86-1.63 1.92l.68 7.26c0 .72 1.93.72 1.93 0l.8-7.26z" clip-path="url(#G)"/><defs><path id="H" d="M-64.04 56.48h546.66v643.65H-64.04z"/></defs><clipPath id="I"><use xlink:href="#H" overflow="visible"/></clipPath><path fill="none" stroke="#231F20" stroke-width=".585" d="M210.92 227.02c0-1.06-.7-1.9-1.77-1.92-1.05 0-1.63.86-1.63 1.92l.68 7.26c0 .72 1.93.72 1.93 0l.8-7.26z" clip-path="url(#I)"/><path fill="none" stroke="#000" stroke-width=".78" d="M295.6 289.92h26.43m-5.16 0v-3.67l-3.17-.86H304l-3.22.85v3.67m21.25-7.2h-26.25v24.1h26.25v-24.1z"/><path fill="#fff" d="M297.06 288.33h2.12l.46 1.48h-3.05z"/><path fill="none" stroke="#231F20" stroke-width=".78" d="M297.06 288.33h2.12l.46 1.48h-3.05z"/><defs><path id="J" d="M-64.04 56.48h546.66v643.65H-64.04z"/></defs><clipPath id="K"><use xlink:href="#J" overflow="visible"/></clipPath><path fill="none" stroke="#000" stroke-width=".975" d="M464.53 87.68c-15.92 0-28.82-12.9-28.82-28.82m30.5 28.84h-1.67V58.86h1.66V87.7zM218.53 341.07c15.92 0 28.82-12.9 28.82-28.82m-30.48 28.83h1.66v-28.83h-1.66v28.83z" clip-path="url(#K)"/><defs><path id="L" d="M-64.04 56.48h546.66v643.65H-64.04z"/></defs><clipPath id="M"><use xlink:href="#L" overflow="visible"/></clipPath><path fill="#fff" d="M230.2 234.4c0 5.8 3.53 12.2 7.87 12.2 4.35 0 7.87-6.4 7.87-12.2 0-5.8-3.52-8.82-7.87-8.82-4.34 0-7.87 3.02-7.87 8.82" clip-path="url(#M)"/><defs><path id="N" d="M-64.04 56.48h546.66v643.65H-64.04z"/></defs><clipPath id="O"><use xlink:href="#N" overflow="visible"/></clipPath><path fill="none" stroke="#000" stroke-width=".78" d="M230.2 234.4c0 5.8 3.53 12.2 7.87 12.2 4.35 0 7.87-6.4 7.87-12.2 0-5.8-3.52-8.82-7.87-8.82-4.34 0-7.87 3.02-7.87 8.82z" clip-path="url(#O)"/><defs><path id="P" d="M-64.04 56.48h546.66v643.65H-64.04z"/></defs><clipPath id="Q"><use xlink:href="#P" overflow="visible"/></clipPath><path fill="#fff" d="M242.78 227.5c0 .3.27.58.6.58h2.75c.32 0 .6-.27.6-.6v-.1c0-.32-.28-.6-.6-.6h-2.76c-.32 0-.6.28-.6.6v.1z" clip-path="url(#Q)"/><defs><path id="R" d="M-64.04 56.48h546.66v643.65H-64.04z"/></defs><clipPath id="S"><use xlink:href="#R" overflow="visible"/></clipPath><path fill="none" stroke="#231F20" stroke-width=".78" d="M242.78 227.5c0 .3.27.58.6.58h2.75c.32 0 .6-.27.6-.6v-.1c0-.32-.28-.6-.6-.6h-2.76c-.32 0-.6.28-.6.6v.1z" clip-path="url(#S)"/><defs><path id="T" d="M-64.04 56.48h546.66v643.65H-64.04z"/></defs><clipPath id="U"><use xlink:href="#T" overflow="visible"/></clipPath><path fill="#fff" d="M247.13 226.78c1 0 1.8-2.68 1.8-3.66 0-1-.8-3.67-1.8-3.67h-17.97c-1 0-1.8 2.68-1.8 3.67 0 .98.8 3.65 1.8 3.65h17.97z" clip-path="url(#U)"/><defs><path id="V" d="M-64.04 56.48h546.66v643.65H-64.04z"/></defs><clipPath id="W"><use xlink:href="#V" overflow="visible"/></clipPath><path fill="none" stroke="#000" stroke-width=".78" d="M247.13 226.78c1 0 1.8-2.68 1.8-3.66 0-1-.8-3.67-1.8-3.67h-17.97c-1 0-1.8 2.68-1.8 3.67 0 .98.8 3.65 1.8 3.65h17.97z" clip-path="url(#W)"/><defs><path id="X" d="M-64.04 56.48h546.66v643.65H-64.04z"/></defs><clipPath id="Y"><use xlink:href="#X" overflow="visible"/></clipPath><path fill="#fff" d="M232.3 234.65c0 4.26 2.58 8.96 5.77 8.96s5.78-4.7 5.78-8.95-2.6-6.5-5.78-6.5c-3.2 0-5.78 2.23-5.78 6.5" clip-path="url(#Y)"/><defs><path id="Z" d="M-64.04 56.48h546.66v643.65H-64.04z"/></defs><clipPath id="aa"><use xlink:href="#Z" overflow="visible"/></clipPath><path fill="none" stroke="#000" stroke-width=".65" d="M232.3 234.65c0 4.26 2.58 8.96 5.77 8.96s5.78-4.7 5.78-8.95-2.6-6.5-5.78-6.5c-3.2 0-5.78 2.23-5.78 6.5z" clip-path="url(#aa)"/><path fill="none" stroke="#231F20" stroke-width=".78" d="M409.1 438.93h44.52m-111.47 0h45.5m-111.97.1h46.8m-115.7.1h50.7m-49.9-12.8h46.5m65.4 0h-43.64m110.18 0h-44.2m66.63.33h44.85"/><path fill="none" stroke="#000" stroke-width=".78" d="M255.37 218.33v23.73h29.25v-23.73"/><path fill="none" stroke="#000" stroke-width=".975" d="M265.77 300.88h-72.15"/><path fill="none" stroke="#000" stroke-width=".975" stroke-dashoffset="3" d="M195.03 297.47h70.74" stroke-dasharray="1.912,1.912,1.912,1.912,1.912,1.912"/><defs><path id="ab" d="M-64.04 56.48h546.66v643.65H-64.04z"/></defs><clipPath id="ac"><use xlink:href="#ab" overflow="visible"/></clipPath><path fill="none" stroke="#000" stroke-width=".975" d="M301.02 247.07c0 15.9 12.9 28.82 28.82 28.82M301 247.06h28.84v-1.66H301v1.67z" clip-path="url(#ac)"/><path fill="none" stroke="#000" stroke-width=".78" d="M364.46 60.27v25.68l-39.33-.04v74.58"/><path fill="#fff" d="M326.6 118.07l-25.7.2-.04 30.2 25.67-.18z"/><path fill="none" stroke="#000" stroke-width=".78" d="M326.6 118.07l-25.7.2-.04 30.2 25.67-.18z"/><path fill="none" stroke="#000" stroke-width=".39" d="M303.15 148.5v-30.26"/><defs><path id="ad" d="M-64.04 56.48h546.66v643.65H-64.04z"/></defs><clipPath id="ae"><use xlink:href="#ad" overflow="visible"/></clipPath><path fill="#fff" d="M312.43 139.46c0-2.18-1.8-3.92-3.96-3.9-2.17 0-3.9 1.78-3.9 3.95.02 2.18 1.8 3.93 3.96 3.9 2.17 0 3.92-1.78 3.9-3.94" clip-path="url(#ae)"/><defs><path id="af" d="M-64.04 56.48h546.66v643.65H-64.04z"/></defs><clipPath id="ag"><use xlink:href="#af" overflow="visible"/></clipPath><path fill="none" stroke="#231F20" stroke-width=".65" d="M312.43 139.46c0-2.18-1.8-3.92-3.96-3.9-2.17 0-3.9 1.78-3.9 3.95.02 2.18 1.8 3.93 3.96 3.9 2.17 0 3.92-1.78 3.9-3.94z" clip-path="url(#ag)"/><defs><path id="ah" d="M-64.04 56.48h546.66v643.65H-64.04z"/></defs><clipPath id="ai"><use xlink:href="#ah" overflow="visible"/></clipPath><path fill="#fff" d="M312.35 127.68c-.02-2.17-1.8-3.9-3.96-3.9-2.18.02-3.93 1.8-3.9 3.96 0 2.16 1.78 3.92 3.95 3.9 2.16-.02 3.9-1.8 3.9-3.96" clip-path="url(#ai)"/><defs><path id="aj" d="M-64.04 56.48h546.66v643.65H-64.04z"/></defs><clipPath id="ak"><use xlink:href="#aj" overflow="visible"/></clipPath><path fill="none" stroke="#231F20" stroke-width=".65" d="M312.35 127.68c-.02-2.17-1.8-3.9-3.96-3.9-2.18.02-3.93 1.8-3.9 3.96 0 2.16 1.78 3.92 3.95 3.9 2.16-.02 3.9-1.8 3.9-3.96z" clip-path="url(#ak)"/><defs><path id="al" d="M-64.04 56.48h546.66v643.65H-64.04z"/></defs><clipPath id="am"><use xlink:href="#al" overflow="visible"/></clipPath><path fill="#fff" d="M323.12 139.38c-.02-2.17-1.8-3.92-3.95-3.9-2.17 0-3.92 1.8-3.9 3.95 0 2.17 1.78 3.92 3.96 3.9 2.16 0 3.9-1.8 3.9-3.95" clip-path="url(#am)"/><defs><path id="an" d="M-64.04 56.48h546.66v643.65H-64.04z"/></defs><clipPath id="ao"><use xlink:href="#an" overflow="visible"/></clipPath><path fill="none" stroke="#231F20" stroke-width=".65" d="M323.12 139.38c-.02-2.17-1.8-3.92-3.95-3.9-2.17 0-3.92 1.8-3.9 3.95 0 2.17 1.78 3.92 3.96 3.9 2.16 0 3.9-1.8 3.9-3.95z" clip-path="url(#ao)"/><defs><path id="ap" d="M-64.04 56.48h546.66v643.65H-64.04z"/></defs><clipPath id="aq"><use xlink:href="#ap" overflow="visible"/></clipPath><path fill="#fff" d="M323.03 127.6c-.02-2.17-1.78-3.9-3.95-3.9-2.18.02-3.92 1.8-3.9 3.96s1.8 3.92 3.96 3.9c2.17-.02 3.9-1.8 3.9-3.96" clip-path="url(#aq)"/><defs><path id="ar" d="M-64.04 56.48h546.66v643.65H-64.04z"/></defs><clipPath id="as"><use xlink:href="#ar" overflow="visible"/></clipPath><path fill="none" stroke="#231F20" stroke-width=".65" d="M323.03 127.6c-.02-2.17-1.78-3.9-3.95-3.9-2.18.02-3.92 1.8-3.9 3.96s1.8 3.92 3.96 3.9c2.17-.02 3.9-1.8 3.9-3.96z" clip-path="url(#as)"/><path fill="#fff" d="M326.5 119.13h1.18v28.17h-1.2z"/><path fill="none" stroke="#231F20" stroke-width=".78" d="M326.5 119.13h1.18v28.17h-1.2z"/><path fill="none" stroke="#000" stroke-width=".65" d="M401.25 89.67H365.5"/><path fill="none" stroke="#000" stroke-width=".78" d="M385.8 91.8h2.75v1.46h-2.76zM365.8 61.7h35.24v30.07H365.8zM377.1 91.8h2.76v1.46h-2.77z"/><defs><path id="at" d="M-64.04 56.48h546.66v643.65H-64.04z"/></defs><clipPath id="au"><use xlink:href="#at" overflow="visible"/></clipPath><circle cx="269.625" cy="230.082" r="1.189" fill="none" stroke="#000" stroke-width=".52" clip-path="url(#au)"/><defs><path id="av" d="M-64.04 56.48h546.66v643.65H-64.04z"/></defs><clipPath id="aw"><use xlink:href="#av" overflow="visible"/></clipPath><path fill="none" stroke="#000" stroke-width=".65" d="M269.63 220.25c.63 0 1.15.52 1.15 1.15 0 .64-.52 1.16-1.15 1.16-.64 0-1.16-.52-1.16-1.16 0-.63.52-1.15 1.15-1.15zm.53 7.2h-1.07v-4.72h1.06v4.72zm4.66-4.83h-10.4v-2.48h10.4v2.48z" clip-path="url(#aw)"/><path fill="none" stroke="#000" stroke-width=".78" d="M259.1 219.76h21.06v19.07H259.1z"/><path fill="none" stroke="#000" stroke-width=".585" d="M260.73 222.68h17.75v14.52h-17.75z"/><defs><path id="ax" d="M-64.04 56.48h546.66v643.65H-64.04z"/></defs><clipPath id="ay"><use xlink:href="#ax" overflow="visible"/></clipPath><path fill="#fff" d="M331.4 65.32c0-1 .83-1.84 1.84-1.84h22.4c1.02 0 1.85.83 1.85 1.84v15.76c0 1.02-.84 1.84-1.85 1.84h-22.4c-1.02 0-1.85-.82-1.85-1.84V65.32z" clip-path="url(#ay)"/><defs><path id="az" d="M-64.04 56.48h546.66v643.65H-64.04z"/></defs><clipPath id="aA"><use xlink:href="#az" overflow="visible"/></clipPath><path fill="none" stroke="#231F20" stroke-width=".78" d="M331.4 65.32c0-1 .83-1.84 1.84-1.84h22.4c1.02 0 1.85.83 1.85 1.84v15.76c0 1.02-.84 1.84-1.85 1.84h-22.4c-1.02 0-1.85-.82-1.85-1.84V65.32z" clip-path="url(#aA)"/><defs><path id="aB" d="M-64.04 56.48h546.66v643.65H-64.04z"/></defs><clipPath id="aC"><use xlink:href="#aB" overflow="visible"/></clipPath><path fill="#fff" d="M353.68 67.8c1.04 0 1.9.83 1.9 1.84v9.46c0 1.02-.86 1.85-1.9 1.85h-18.42c-1.04 0-1.88-.83-1.88-1.85v-9.46c0-1 .84-1.85 1.88-1.85h18.42z" clip-path="url(#aC)"/><defs><path id="aD" d="M-64.04 56.48h546.66v643.65H-64.04z"/></defs><clipPath id="aE"><use xlink:href="#aD" overflow="visible"/></clipPath><path fill="none" stroke="#231F20" stroke-width=".585" d="M353.68 67.8c1.04 0 1.9.83 1.9 1.84v9.46c0 1.02-.86 1.85-1.9 1.85h-18.42c-1.04 0-1.88-.83-1.88-1.85v-9.46c0-1 .84-1.85 1.88-1.85h18.42z" clip-path="url(#aE)"/><defs><path id="aF" d="M-64.04 56.48h546.66v643.65H-64.04z"/></defs><clipPath id="aG"><use xlink:href="#aF" overflow="visible"/></clipPath><path fill="#fff" d="M342.88 74.6c0-.77.62-1.4 1.38-1.4.78 0 1.4.63 1.4 1.4 0 .75-.62 1.38-1.4 1.38-.76 0-1.38-.63-1.38-1.4" clip-path="url(#aG)"/><defs><path id="aH" d="M-64.04 56.48h546.66v643.65H-64.04z"/></defs><clipPath id="aI"><use xlink:href="#aH" overflow="visible"/></clipPath><path fill="none" stroke="#231F20" stroke-width=".52" d="M342.88 74.6c0-.77.62-1.4 1.38-1.4.78 0 1.4.63 1.4 1.4 0 .75-.62 1.38-1.4 1.38-.76 0-1.38-.63-1.38-1.4z" clip-path="url(#aI)"/><defs><path id="aJ" d="M-64.04 56.48h546.66v643.65H-64.04z"/></defs><clipPath id="aK"><use xlink:href="#aJ" overflow="visible"/></clipPath><path fill="#fff" d="M339.3 65.6c0-.75.6-1.44 1.33-1.44h7.3c.75 0 1.35.7 1.35 1.43s-.6 1.4-1.34 1.4h-7.3c-.75 0-1.35-.67-1.35-1.4" clip-path="url(#aK)"/><defs><path id="aL" d="M-64.04 56.48h546.66v643.65H-64.04z"/></defs><clipPath id="aM"><use xlink:href="#aL" overflow="visible"/></clipPath><path fill="none" stroke="#231F20" stroke-width=".52" d="M339.3 65.6c0-.75.6-1.44 1.33-1.44h7.3c.75 0 1.35.7 1.35 1.43s-.6 1.4-1.34 1.4h-7.3c-.75 0-1.35-.67-1.35-1.4z" clip-path="url(#aM)"/><defs><path id="aN" d="M-64.04 56.48h546.66v643.65H-64.04z"/></defs><clipPath id="aO"><use xlink:href="#aN" overflow="visible"/></clipPath><path fill="#fff" d="M338.8 73.36l6.27-6.8c.35-.4.32-1-.1-1.36-.37-.36-.98-.32-1.34.08l-6 7.06c-.26.33.88 1.34 1.17 1.02" clip-path="url(#aO)"/><defs><path id="aP" d="M-64.04 56.48h546.66v643.65H-64.04z"/></defs><clipPath id="aQ"><use xlink:href="#aP" overflow="visible"/></clipPath><path fill="none" stroke="#231F20" stroke-width=".65" d="M338.8 73.36l6.27-6.8c.35-.4.32-1-.1-1.36-.37-.36-.98-.32-1.34.08l-6 7.06c-.26.33.88 1.34 1.17 1.02z" clip-path="url(#aQ)"/><defs><path id="aR" d="M-64.04 56.48h546.66v643.65H-64.04z"/></defs><clipPath id="aS"><use xlink:href="#aR" overflow="visible"/></clipPath><path fill="#fff" d="M345.08 68.95v-3.3c0-.34-.3-.63-.65-.63-.35 0-.63.3-.63.64v3.3c0 .35.28.64.63.64.36 0 .65-.3.65-.64" clip-path="url(#aS)"/><defs><path id="aT" d="M-64.04 56.48h546.66v643.65H-64.04z"/></defs><clipPath id="aU"><use xlink:href="#aT" overflow="visible"/></clipPath><path fill="none" stroke="#231F20" stroke-width=".52" d="M345.08 68.95v-3.3c0-.34-.3-.63-.65-.63-.35 0-.63.3-.63.64v3.3c0 .35.28.64.63.64.36 0 .65-.3.65-.64z" clip-path="url(#aU)"/><defs><path id="aV" d="M-64.04 56.48h546.66v643.65H-64.04z"/></defs><clipPath id="aW"><use xlink:href="#aV" overflow="visible"/></clipPath><path fill="#fff" d="M346.46 65.7c0-.4.35-.76.77-.76.42 0 .77.35.77.77 0 .43-.35.77-.77.77-.42 0-.77-.34-.77-.76" clip-path="url(#aW)"/><defs><path id="aX" d="M-64.04 56.48h546.66v643.65H-64.04z"/></defs><clipPath id="aY"><use xlink:href="#aX" overflow="visible"/></clipPath><path fill="none" stroke="#231F20" stroke-width=".455" d="M346.46 65.7c0-.4.35-.76.77-.76.42 0 .77.35.77.77 0 .43-.35.77-.77.77-.42 0-.77-.34-.77-.76z" clip-path="url(#aY)"/><defs><path id="aZ" d="M-64.04 56.48h546.66v643.65H-64.04z"/></defs><clipPath id="ba"><use xlink:href="#aZ" overflow="visible"/></clipPath><path fill="#fff" d="M340.56 65.64c0-.42.35-.77.77-.77.43 0 .77.35.77.77 0 .42-.35.77-.77.77s-.77-.34-.77-.76" clip-path="url(#ba)"/><defs><path id="bb" d="M-64.04 56.48h546.66v643.65H-64.04z"/></defs><clipPath id="bc"><use xlink:href="#bb" overflow="visible"/></clipPath><path fill="none" stroke="#231F20" stroke-width=".455" d="M340.56 65.64c0-.42.35-.77.77-.77.43 0 .77.35.77.77 0 .42-.35.77-.77.77s-.77-.34-.77-.76z" clip-path="url(#bc)"/><path fill="none" stroke="#000" stroke-width=".65" stroke-dashoffset="3" d="M322.26 115.68h-18.4" stroke-dasharray="1.936,1.936,1.936,1.936,1.936,1.936"/><path fill="none" stroke="#000" stroke-width=".65" stroke-dashoffset="3" d="M301.94 112.83V94.8" stroke-dasharray="1.899,1.899,1.899,1.899,1.899,1.899"/><path fill="none" stroke="#000" stroke-width=".65" stroke-dashoffset="3" d="M304.77 92.9h17.98" stroke-dasharray="1.892,1.892,1.892,1.892,1.892,1.892"/><path fill="none" stroke="#000" stroke-width=".65" d="M323.7 92.9h.94m-22.7.94v-.94h.94m.02 22.78h-.97v-.95m23.23.95h-.97M324.64 92.86h2.47v22.82h-1.93"/><path fill="#BBBDBF" d="M472.35 59.45V425H454.3v12.36h26.37V58.43h-14.1"/><defs><path id="bd" d="M-64.04 56.48h546.66v643.65H-64.04z"/></defs><clipPath id="be"><use xlink:href="#bd" overflow="visible"/></clipPath><path fill="none" stroke="#231F20" stroke-width="3.9" d="M472.35 59.45V425H454.3v12.36h26.37V58.43h-14.1" clip-path="url(#be)"/><path fill="none" stroke="#231F20" stroke-width="3.9" d="M452.64 432.18H407.8m-21.24 0H341.7m-20.03 0h-45.83m-22.74 0h-46.48"/><path fill="none" stroke="#231F20" stroke-width="5.2" d="M329.24 426.33v-10.07m0-38.68V275.2m0-29.57v-8.45M193.5 286.02h73.03v25.05h61.32"/><path fill="none" stroke="#231F20" stroke-width=".78" d="M332 360.4h1.94v47.14H332z"/><path fill="#BBBDBF" d="M387.56 423.83v13.56h20.24v-13.53z"/><path fill="none" stroke="#231F20" stroke-width="3.9" d="M387.56 423.83v13.56h20.24v-13.53z"/><path fill="#BBBDBF" d="M320.65 423.78v13.67l20.23-.06v-13.6z"/><path fill="none" stroke="#231F20" stroke-width="3.9" d="M320.65 423.78v13.67l20.23-.06v-13.6z"/><path fill="#BBBDBF" d="M253.6 423.8v13.73l20.47-.08V423.8z"/><path fill="none" stroke="#231F20" stroke-width="3.9" d="M253.6 423.8v13.73l20.47-.08V423.8z"/><defs><path id="bf" d="M-64.04 56.48h546.66v643.65H-64.04z"/></defs><clipPath id="bg"><use xlink:href="#bf" overflow="visible"/></clipPath><path fill="none" stroke="#231F20" stroke-width="3.9" d="M436.16 58.8H296.54l.1 157.48-117.5-.05v221.33h27.04v-12.92h-13.5l-.17-202.7h30.87l.04-5.2" clip-path="url(#bg)"/><path fill="none" stroke="#231F20" stroke-width="5.2" d="M297.94 161.13h30.9v31.62m0 29.48v12.68h-39.67V217.7m-95.66 96h23.85m30.1 0h83.2"/><path fill="none" stroke="#231F20" stroke-width=".78" d="M327.98 183.43h1.94v47.13H328z"/><defs><path id="bh" d="M-64.04 56.48h546.66v643.65H-64.04z"/></defs><clipPath id="bi"><use xlink:href="#bh" overflow="visible"/></clipPath><path fill="none" stroke="#231F20" stroke-width="5.2" d="M405.03 59.47v35.1" clip-path="url(#bi)"/><defs><path id="bj" d="M-64.04 56.48h546.66v643.65H-64.04z"/></defs><clipPath id="bk"><use xlink:href="#bj" overflow="visible"/></clipPath><path fill="none" stroke="#231F20" stroke-width="3.9" stroke-dashoffset="7" d="M470.3 60.74V426.3" clip-path="url(#bk)" stroke-dasharray="5.995,1.995,5.995,1.995,5.995,1.995"/><path fill="#fff" d="M229.6 430.67h18.6v3.16h-18.6z"/><path fill="none" stroke="#000" stroke-width=".78" d="M229.6 430.67h18.6v3.16h-18.6zM229.6 432.32h18.48"/><path fill="#fff" d="M210.5 430.67h19.05v3.16H210.5z"/><path fill="none" stroke="#000" stroke-width=".78" d="M210.5 430.67h19.05v3.16H210.5zM210.5 432.32h19.06"/><path fill="#fff" d="M430.92 430.64h18.57v3.17h-18.58z"/><path fill="none" stroke="#000" stroke-width=".78" d="M430.92 430.64h18.57v3.17h-18.58zM430.92 432.3h18.47"/><path fill="#fff" d="M411.8 430.64h19.06v3.17H411.8z"/><path fill="none" stroke="#000" stroke-width=".78" d="M411.8 430.64h19.06v3.17H411.8zM411.8 432.3h19.06"/><path fill="#fff" d="M365.27 430.63h18.58v3.17h-18.58z"/><path fill="none" stroke="#000" stroke-width=".78" d="M365.27 430.63h18.58v3.17h-18.58zM365.27 432.3h18.48"/><path fill="#fff" d="M346.15 430.63h19.07v3.17h-19.07z"/><path fill="none" stroke="#000" stroke-width=".78" d="M346.15 430.63h19.07v3.17h-19.07zM346.15 432.3h19.07"/><path fill="#fff" d="M297.24 430.65h18.58v3.17h-18.58z"/><path fill="none" stroke="#000" stroke-width=".78" d="M297.24 430.65h18.58v3.17h-18.58zM297.24 432.3h18.47"/><path fill="#fff" d="M278.12 430.65h19.06v3.17h-19.06z"/><path fill="none" stroke="#000" stroke-width=".78" d="M278.12 430.65h19.06v3.17h-19.06zM278.12 432.3h19.07"/><defs><path id="bl" d="M-64.04 56.48h546.66v643.65H-64.04z"/></defs><clipPath id="bm"><use xlink:href="#bl" overflow="visible"/></clipPath><path fill="#231F20" d="M275.6 379.23h-.45l-.48 1.55h.3l.64-1.55zm-.93 0h-.47l-.47 1.55h.3l.64-1.55zm-2.63 1.2c0 .5-.4.96-1.04.96-.6 0-1.03-.4-1.03-.93s.37-1 1-1 1.07.42 1.07.96m.58.7c0-.86-.2-1.3-.52-1.64-.27-.28-.63-.45-1.1-.45-.9 0-1.52.63-1.52 1.44 0 .75.6 1.3 1.46 1.3.6 0 .96-.3 1.2-.67 0 1.07-.5 1.84-1.26 1.84-.37 0-.7-.15-1.03-.45l-.27.36c.35.3.75.52 1.3.52 1.03 0 1.74-.94 1.74-2.28m-4.78-1.9h-.47l-.48 1.56h.3l.64-1.55zm-2.56 2.96c0 .43-.4.8-1.1.8-.7 0-1.1-.37-1.1-.8 0-.47.5-.8 1.1-.8s1.1.33 1.1.8m-.14-1.97c0 .47-.42.8-.96.8s-.96-.33-.96-.8c0-.4.42-.72.96-.72s.96.3.96.73m.62 2c0-.52-.37-.86-.86-1.04.4-.2.72-.48.72-.98 0-.65-.67-1.1-1.44-1.1s-1.43.45-1.43 1.1c0 .5.33.8.72.98-.5.18-.87.53-.87 1.03 0 .7.7 1.2 1.58 1.2s1.58-.5 1.58-1.2m-6.78.63l-1.13-1.5 1.1-1.45h-.4l-.9 1.2-.9-1.2h-.4l1.1 1.45-1.13 1.5h.38l.94-1.27.94 1.27h.4zm-5.73-3.6h-.47l-.47 1.55h.3l.65-1.55zm-.94 0h-.46l-.48 1.55h.3l.65-1.55zm-3.66.22l.1.4.8-.26v3.73h.47v-4.23h-.34l-1.02.35zm-1.43-.22h-.46l-.48 1.55h.3l.65-1.55zm-3.74.22l.1.4.8-.26v3.73h.48v-4.23h-.35l-1.04.35zm-2.96 0l.1.4.8-.26v3.73h.47v-4.23h-.35l-1.02.35z" clip-path="url(#bm)"/><defs><path id="bn" d="M-64.04 56.48h546.66v643.65H-64.04z"/></defs><clipPath id="bo"><use xlink:href="#bn" overflow="visible"/></clipPath><path fill="#231F20" d="M275.5 371.53v3.77h.5v-4.65h-.52l-1.7 2.54-1.7-2.55h-.52v4.65h.5v-3.76l1.7 2.48h.03l1.7-2.5zm-5.6 1.45c0 1.06-.76 1.9-1.82 1.9s-1.84-.85-1.84-1.9c0-1.08.76-1.93 1.83-1.93 1.06 0 1.83.87 1.83 1.93m.55 0c0-1.3-.95-2.4-2.37-2.4s-2.38 1.1-2.38 2.4c0 1.3.95 2.4 2.37 2.4 1.4 0 2.38-1.12 2.38-2.4m-6.2 0c0 1.06-.76 1.9-1.82 1.9-1.07 0-1.84-.85-1.84-1.9 0-1.08.75-1.93 1.8-1.93 1.08 0 1.85.87 1.85 1.93m.55 0c0-1.3-.96-2.4-2.37-2.4-1.42 0-2.38 1.1-2.38 2.4 0 1.3.95 2.4 2.36 2.4 1.43 0 2.4-1.12 2.4-2.4m-6.2-.92c0 .6-.5.96-1.2.96h-1.43v-1.9h1.44c.76 0 1.2.36 1.2.94m.7 3.24l-1.43-1.9c.73-.13 1.26-.58 1.26-1.36 0-.84-.66-1.4-1.68-1.4h-2v4.66h.52v-1.8h1.33l1.35 1.8h.65zm-5.5-2.32c0 1.04-.76 1.84-1.94 1.84h-1.1v-3.7h1.1c1.18 0 1.93.82 1.93 1.86m.53 0c0-1.33-1-2.33-2.47-2.33h-1.62v4.65h1.62c1.46 0 2.47-1 2.47-2.33m-5.18-2.32h-3.36v4.65h3.4v-.48h-2.9v-1.63h2.55v-.5h-2.54v-1.58h2.85v-.47zm-6.08 4.18h-1.56v-1.64H243c.8 0 1.23.28 1.23.8s-.43.83-1.13.83m-.2-2.1h-1.36v-1.6h1.42c.67 0 1.03.3 1.03.75 0 .56-.44.84-1.07.84m.1-2.07h-2v4.65h2.08c1.02 0 1.7-.47 1.7-1.28 0-.64-.46-.96-1-1.13.35-.16.72-.48.72-1.1 0-.7-.6-1.15-1.5-1.15" clip-path="url(#bo)"/></g><defs><path id="bp" d="M44.66 157.93H144.8v4.56H44.66z"/></defs><clipPath id="bq"><use xlink:href="#bp" overflow="visible"/></clipPath><path fill="#231F20" d="M144.8 158.3v-.3h-3.4v.3h1.54v4.12h.32v-4.1h1.54zm-5.8 4.12v-.3h-2.83v-1.78h2.52v-.3h-2.53v-1.73h2.8v-.3h-3.13v4.4H139v.02zm-5.87 0v-.3h-2.84v-1.78h2.52v-.3h-2.52v-1.73h2.8v-.3h-3.13v4.4h3.16v.02zm-6.27-3.14c0 .64-.55 1-1.28 1h-1.5v-1.97h1.52c.8 0 1.26.38 1.26.97zm.5 3.14l-1.47-1.9c.74-.1 1.3-.5 1.3-1.25s-.64-1.27-1.6-1.27h-1.84v4.4h.33v-1.8h1.43l1.4 1.8h.42v.02zm-6.25-4.1v-.3h-3.4v.3h1.55v4.1h.32v-4.1h1.54zm-5.7 2.96v-.02c0-.64-.44-1-1.46-1.2-1.05-.23-1.3-.5-1.3-.98 0-.47.44-.84 1.1-.84.48 0 .9.14 1.3.5l.22-.26c-.45-.36-.87-.54-1.52-.54-.82 0-1.42.5-1.42 1.16 0 .68.43 1.04 1.5 1.26 1 .2 1.24.47 1.24.93 0 .5-.45.88-1.12.88-.64 0-1.1-.2-1.58-.65l-.2.24c.52.48 1.06.7 1.76.7.86 0 1.47-.48 1.47-1.2m-11.18 1.15v-4.4h-.3v3.82l-3.05-3.83h-.3v4.42h.3v-3.92l3.1 3.92h.25zm-6.77-2.2c0 1.1-.78 1.98-1.87 1.98s-1.9-.9-1.9-2 .8-1.97 1.9-1.97 1.87.9 1.87 1.98v.03zm.34 0s0 0 0-.02c0-1.2-.88-2.27-2.22-2.27-1.33 0-2.22 1.08-2.22 2.28v.02c0 1.2.87 2.27 2.2 2.27 1.34 0 2.23-1.1 2.23-2.3m-6.55-1.9v-.3h-3.4v.3h1.54v4.12h.3v-4.1h1.55zm-5.8 3.53v-1.7h-1.8v.3h1.5v1.27c-.34.27-.86.5-1.42.5-1.18 0-1.9-.85-1.9-2 0-1.06.76-1.97 1.83-1.97.67 0 1.07.22 1.42.53l.2-.25c-.43-.35-.88-.57-1.6-.57-1.32 0-2.18 1.1-2.18 2.28v.03c0 1.24.83 2.26 2.22 2.26.72 0 1.33-.32 1.73-.67m-6.72.6V158h-.3v3.84L75.37 158h-.3v4.42h.3v-3.92l3.1 3.92h.25zM72.06 158h-.33v4.42h.33v-4.4zm-3.34 4.42v-4.4h-.32v2.03h-2.83V158h-.32v4.42h.33v-2.07h2.82v2.07h.32zm-6.2-1.14v-.02c0-.64-.43-1-1.45-1.2-1.05-.23-1.3-.5-1.3-.98 0-.47.44-.84 1.1-.84.48 0 .9.14 1.3.5l.2-.26c-.43-.36-.85-.54-1.5-.54-.82 0-1.4.5-1.4 1.16-.02.68.4 1.04 1.47 1.26 1 .2 1.25.47 1.25.93 0 .5-.47.88-1.13.88-.65 0-1.1-.2-1.58-.65l-.22.24c.53.48 1.07.7 1.77.7.86 0 1.47-.48 1.47-1.2m-6.5-.4h-2.33l1.15-2.54 1.16 2.55zm1.05 1.55l-2.05-4.44h-.32l-2.05 4.44H53l.55-1.24h2.6l.56 1.24h.37zm-6.1-4.4h-.34l-1.4 3.9-1.28-3.93h-.25l-1.3 3.93-1.38-3.92h-.36l1.6 4.45h.26l1.3-3.83 1.3 3.82h.25l1.6-4.43z" clip-path="url(#bq)"/></svg>