<?xml version="1.0" encoding="utf-8"?>
<!-- Generator: Adobe Illustrator 15.0.0, SVG Export Plug-In . SVG Version: 6.00 Build 0)  -->
<!DOCTYPE svg PUBLIC "-//W3C//DTD SVG 1.1//EN" "http://www.w3.org/Graphics/SVG/1.1/DTD/svg11.dtd">
<svg version="1.1" id="Layer_1" xmlns="http://www.w3.org/2000/svg" xmlns:xlink="http://www.w3.org/1999/xlink" x="0px" y="0px"
	 width="513.359px" height="495.36px" viewBox="0 0 513.359 495.36" enable-background="new 0 0 513.359 495.36"
	 xml:space="preserve">
<g id="Layer_4">
	<rect x="241.96" y="133.2" fill="#BBBDBF" width="29.25" height="27.3"/>
	<polygon fill="#BBBDBF" points="180.21,59.1 180.21,436.75 206.21,436.75 206.21,424.387 189.31,424.387 189.31,243.05 
		193.86,243.05 193.86,222.683 189.995,222.683 189.995,59.101 	"/>
	<rect x="440.346" y="170.052" fill="#FFFFFF" width="30.712" height="59.401"/>
	<rect x="440.346" y="170.052" fill="none" stroke="#000000" stroke-width="0.78" width="30.712" height="59.401"/>
	<g>
		<g>
			<defs>
				<rect id="SVGID_1_" x="-57.04" y="57.423" width="541.224" height="714.734"/>
			</defs>
			<clipPath id="SVGID_2_">
				<use xlink:href="#SVGID_1_"  overflow="visible"/>
			</clipPath>
			<circle clip-path="url(#SVGID_2_)" fill="none" stroke="#231F20" stroke-width="0.65" cx="455.848" cy="183.59" r="1.26"/>
		</g>
		<g>
			<defs>
				<rect id="SVGID_3_" x="-57.04" y="57.423" width="541.224" height="714.734"/>
			</defs>
			<clipPath id="SVGID_4_">
				<use xlink:href="#SVGID_3_"  overflow="visible"/>
			</clipPath>
			<path clip-path="url(#SVGID_4_)" fill="none" stroke="#000000" stroke-width="0.65" d="M455.796,226.061
				c-8.804,0-12.024-2.031-12.024-4.878v-43.388c0-0.696,0.188-2.133,2.028-2.133h9.996h0.021h9.997c1.84,0,2.027,1.437,2.027,2.133
				v43.361l-0.002,0.027C467.839,224.03,464.543,226.061,455.796,226.061z"/>
		</g>
		<g>
			<defs>
				<rect id="SVGID_5_" x="-57.04" y="57.423" width="541.224" height="714.734"/>
			</defs>
			<clipPath id="SVGID_6_">
				<use xlink:href="#SVGID_5_"  overflow="visible"/>
			</clipPath>
			<path clip-path="url(#SVGID_6_)" fill="none" stroke="#231F20" stroke-width="0.585" d="M461.19,173.453
				c0.008,0.713-0.579,1.285-1.287,1.285c-0.706,0-1.288-0.572-1.288-1.285c0-0.708,0.582-1.294,1.288-1.285
				C460.614,172.159,461.19,172.745,461.19,173.453z M453.205,173.453c0.003,0.713-0.572,1.285-1.294,1.285
				c-0.697,0-1.276-0.572-1.281-1.285c0.005-0.708,0.584-1.294,1.281-1.294C452.633,172.159,453.208,172.737,453.205,173.453z"/>
		</g>
		<g>
			<defs>
				<rect id="SVGID_7_" x="-57.04" y="57.423" width="541.224" height="714.734"/>
			</defs>
			<clipPath id="SVGID_8_">
				<use xlink:href="#SVGID_7_"  overflow="visible"/>
			</clipPath>
			<path clip-path="url(#SVGID_8_)" fill="#FFFFFF" d="M454.114,173.072c0-1.056,0.713-1.909,1.771-1.912
				c1.053,0.003,1.63,0.856,1.63,1.912l-0.678,7.269c0,0.714-1.928,0.714-1.928,0L454.114,173.072z"/>
		</g>
		<g>
			<defs>
				<rect id="SVGID_9_" x="-57.04" y="57.423" width="541.224" height="714.734"/>
			</defs>
			<clipPath id="SVGID_10_">
				<use xlink:href="#SVGID_9_"  overflow="visible"/>
			</clipPath>
			<path clip-path="url(#SVGID_10_)" fill="none" stroke="#231F20" stroke-width="0.585" d="M454.114,173.072
				c0-1.056,0.713-1.909,1.771-1.912c1.053,0.003,1.63,0.856,1.63,1.912l-0.678,7.269c0,0.714-1.928,0.714-1.928,0L454.114,173.072z
				"/>
		</g>
		<g>
			<defs>
				<rect id="SVGID_11_" x="-57.04" y="57.423" width="541.224" height="714.734"/>
			</defs>
			<clipPath id="SVGID_12_">
				<use xlink:href="#SVGID_11_"  overflow="visible"/>
			</clipPath>
			<path clip-path="url(#SVGID_12_)" fill="none" stroke="#000000" stroke-width="0.975" d="M201.904,87.943
				c15.915,0,28.817-12.901,28.817-28.818 M200.243,87.961h1.659V59.125h-1.659V87.961z M432.76,203.4
				c-15.915,0-28.817,12.901-28.817,28.818 M434.421,203.382h-1.661v28.836h1.661V203.382z"/>
		</g>
	</g>
	<path fill="none" stroke="#000000" stroke-width="0.78" d="M386.257,235.25v26.435 M386.257,256.524h3.667l0.855-3.168v-9.71
		l-0.855-3.209h-3.667 M369.342,261.685h24.108V235.44h-24.108V261.685z"/>
	<polygon fill="#FFFFFF" points="387.839,236.717 387.845,238.837 386.364,239.303 386.359,236.25 	"/>
	<polygon fill="none" stroke="#231F20" stroke-width="0.78" points="387.839,236.717 387.845,238.837 386.364,239.303 
		386.359,236.25 	"/>
	<polygon fill="#FFFFFF" points="327.894,191.215 327.842,165.537 297.619,165.484 297.668,191.158 	"/>
	<polygon fill="none" stroke="#000000" stroke-width="0.78" points="327.894,191.215 327.842,165.537 297.619,165.484 
		297.668,191.158 	"/>
	<line fill="none" stroke="#000000" stroke-width="0.39" x1="297.455" y1="167.773" x2="327.719" y2="167.772"/>
	<g>
		<g>
			<defs>
				<rect id="SVGID_13_" x="-57.04" y="57.423" width="541.224" height="714.734"/>
			</defs>
			<clipPath id="SVGID_14_">
				<use xlink:href="#SVGID_13_"  overflow="visible"/>
			</clipPath>
			<path clip-path="url(#SVGID_14_)" fill="#FFFFFF" d="M306.507,177.057c2.171-0.015,3.914-1.793,3.897-3.958
				c-0.017-2.174-1.785-3.917-3.955-3.9c-2.171,0.016-3.916,1.787-3.899,3.957C302.565,175.322,304.339,177.073,306.507,177.057"/>
		</g>
		<g>
			<defs>
				<rect id="SVGID_15_" x="-57.04" y="57.423" width="541.224" height="714.734"/>
			</defs>
			<clipPath id="SVGID_16_">
				<use xlink:href="#SVGID_15_"  overflow="visible"/>
			</clipPath>
			<path clip-path="url(#SVGID_16_)" fill="none" stroke="#231F20" stroke-width="0.65" d="M306.507,177.057
				c2.171-0.015,3.914-1.793,3.897-3.958c-0.017-2.174-1.785-3.917-3.955-3.9c-2.171,0.016-3.916,1.787-3.899,3.957
				C302.565,175.322,304.339,177.073,306.507,177.057z"/>
		</g>
		<g>
			<defs>
				<rect id="SVGID_17_" x="-57.04" y="57.423" width="541.224" height="714.734"/>
			</defs>
			<clipPath id="SVGID_18_">
				<use xlink:href="#SVGID_17_"  overflow="visible"/>
			</clipPath>
			<path clip-path="url(#SVGID_18_)" fill="#FFFFFF" d="M318.281,176.971c2.171-0.018,3.913-1.794,3.897-3.961
				c-0.016-2.17-1.786-3.915-3.954-3.897c-2.167,0.016-3.918,1.787-3.903,3.957C314.338,175.234,316.114,176.986,318.281,176.971"/>
		</g>
		<g>
			<defs>
				<rect id="SVGID_19_" x="-57.04" y="57.423" width="541.224" height="714.734"/>
			</defs>
			<clipPath id="SVGID_20_">
				<use xlink:href="#SVGID_19_"  overflow="visible"/>
			</clipPath>
			<path clip-path="url(#SVGID_20_)" fill="none" stroke="#231F20" stroke-width="0.65" d="M318.281,176.971
				c2.171-0.018,3.913-1.794,3.897-3.961c-0.016-2.17-1.786-3.915-3.954-3.897c-2.167,0.016-3.918,1.787-3.903,3.957
				C314.338,175.234,316.114,176.986,318.281,176.971z"/>
		</g>
		<g>
			<defs>
				<rect id="SVGID_21_" x="-57.04" y="57.423" width="541.224" height="714.734"/>
			</defs>
			<clipPath id="SVGID_22_">
				<use xlink:href="#SVGID_21_"  overflow="visible"/>
			</clipPath>
			<path clip-path="url(#SVGID_22_)" fill="#FFFFFF" d="M306.585,187.744c2.172-0.016,3.915-1.786,3.896-3.953
				c-0.014-2.172-1.786-3.919-3.954-3.902c-2.17,0.014-3.917,1.785-3.898,3.961C302.645,186.017,304.417,187.761,306.585,187.744"/>
		</g>
		<g>
			<defs>
				<rect id="SVGID_23_" x="-57.04" y="57.423" width="541.224" height="714.734"/>
			</defs>
			<clipPath id="SVGID_24_">
				<use xlink:href="#SVGID_23_"  overflow="visible"/>
			</clipPath>
			<path clip-path="url(#SVGID_24_)" fill="none" stroke="#231F20" stroke-width="0.65" d="M306.585,187.744
				c2.172-0.016,3.915-1.786,3.896-3.953c-0.014-2.172-1.786-3.919-3.954-3.902c-2.17,0.014-3.917,1.785-3.898,3.961
				C302.645,186.017,304.417,187.761,306.585,187.744z"/>
		</g>
		<g>
			<defs>
				<rect id="SVGID_25_" x="-57.04" y="57.423" width="541.224" height="714.734"/>
			</defs>
			<clipPath id="SVGID_26_">
				<use xlink:href="#SVGID_25_"  overflow="visible"/>
			</clipPath>
			<path clip-path="url(#SVGID_26_)" fill="#FFFFFF" d="M318.36,187.656c2.17-0.016,3.914-1.784,3.896-3.951
				c-0.018-2.176-1.785-3.92-3.953-3.903c-2.168,0.016-3.918,1.787-3.9,3.96C314.418,185.928,316.193,187.673,318.36,187.656"/>
		</g>
		<g>
			<defs>
				<rect id="SVGID_27_" x="-57.04" y="57.423" width="541.224" height="714.734"/>
			</defs>
			<clipPath id="SVGID_28_">
				<use xlink:href="#SVGID_27_"  overflow="visible"/>
			</clipPath>
			<path clip-path="url(#SVGID_28_)" fill="none" stroke="#231F20" stroke-width="0.65" d="M318.36,187.656
				c2.17-0.016,3.914-1.784,3.896-3.951c-0.018-2.176-1.785-3.92-3.953-3.903c-2.168,0.016-3.918,1.787-3.9,3.96
				C314.418,185.928,316.193,187.673,318.36,187.656z"/>
		</g>
	</g>
	<rect x="298.667" y="191.118" fill="#FFFFFF" width="28.166" height="1.192"/>
	<rect x="298.667" y="191.118" fill="none" stroke="#231F20" stroke-width="0.78" width="28.166" height="1.192"/>
	<path fill="none" stroke="#231F20" stroke-width="0.78" d="M342.06,438.452h55.25 M409.822,438.469h45.825 M276.085,438.389h45.825
		 M207.754,438.327h46.475 M343.035,425.7h43.875 M276.816,425.7h43.551 M207.51,425.049h44.2 M410.96,425.7h43.875"/>
	<g>
		<g>
			<defs>
				<rect id="SVGID_29_" x="-57.04" y="57.423" width="541.224" height="714.734"/>
			</defs>
			<clipPath id="SVGID_30_">
				<use xlink:href="#SVGID_29_"  overflow="visible"/>
			</clipPath>
			<path clip-path="url(#SVGID_30_)" fill="#FFFFFF" d="M434.46,181.356c0,5.8-3.523,12.189-7.868,12.189
				c-4.346,0-7.866-6.389-7.866-12.189c0-5.802,3.521-8.821,7.866-8.821C430.937,172.535,434.46,175.554,434.46,181.356"/>
		</g>
		<g>
			<defs>
				<rect id="SVGID_31_" x="-57.04" y="57.423" width="541.224" height="714.734"/>
			</defs>
			<clipPath id="SVGID_32_">
				<use xlink:href="#SVGID_31_"  overflow="visible"/>
			</clipPath>
			<path clip-path="url(#SVGID_32_)" fill="none" stroke="#000000" stroke-width="0.78" d="M434.46,181.356
				c0,5.8-3.523,12.189-7.868,12.189c-4.346,0-7.866-6.389-7.866-12.189c0-5.802,3.521-8.821,7.866-8.821
				C430.937,172.535,434.46,175.554,434.46,181.356z"/>
		</g>
		<g>
			<defs>
				<rect id="SVGID_33_" x="-57.04" y="57.423" width="541.224" height="714.734"/>
			</defs>
			<clipPath id="SVGID_34_">
				<use xlink:href="#SVGID_33_"  overflow="visible"/>
			</clipPath>
			<path clip-path="url(#SVGID_34_)" fill="#FFFFFF" d="M421.882,174.437c0,0.325-0.266,0.59-0.59,0.59h-2.756
				c-0.324,0-0.592-0.265-0.592-0.59v-0.102c0-0.325,0.268-0.59,0.592-0.59h2.756c0.324,0,0.59,0.265,0.59,0.59V174.437z"/>
		</g>
		<g>
			<defs>
				<rect id="SVGID_35_" x="-57.04" y="57.423" width="541.224" height="714.734"/>
			</defs>
			<clipPath id="SVGID_36_">
				<use xlink:href="#SVGID_35_"  overflow="visible"/>
			</clipPath>
			<path clip-path="url(#SVGID_36_)" fill="none" stroke="#231F20" stroke-width="0.78" d="M421.882,174.437
				c0,0.325-0.266,0.59-0.59,0.59h-2.756c-0.324,0-0.592-0.265-0.592-0.59v-0.102c0-0.325,0.268-0.59,0.592-0.59h2.756
				c0.324,0,0.59,0.265,0.59,0.59V174.437z"/>
		</g>
		<g>
			<defs>
				<rect id="SVGID_37_" x="-57.04" y="57.423" width="541.224" height="714.734"/>
			</defs>
			<clipPath id="SVGID_38_">
				<use xlink:href="#SVGID_37_"  overflow="visible"/>
			</clipPath>
			<path clip-path="url(#SVGID_38_)" fill="#FFFFFF" d="M417.529,173.729c-0.983,0-1.787-2.674-1.787-3.661
				c0-0.988,0.804-3.662,1.787-3.662h17.973c0.986,0,1.787,2.674,1.787,3.662c0,0.987-0.801,3.658-1.787,3.658L417.529,173.729z"/>
		</g>
		<g>
			<defs>
				<rect id="SVGID_39_" x="-57.04" y="57.423" width="541.224" height="714.734"/>
			</defs>
			<clipPath id="SVGID_40_">
				<use xlink:href="#SVGID_39_"  overflow="visible"/>
			</clipPath>
			<path clip-path="url(#SVGID_40_)" fill="none" stroke="#000000" stroke-width="0.78" d="M417.529,173.729
				c-0.983,0-1.787-2.674-1.787-3.661c0-0.988,0.804-3.662,1.787-3.662h17.973c0.986,0,1.787,2.674,1.787,3.662
				c0,0.987-0.801,3.658-1.787,3.658L417.529,173.729z"/>
		</g>
		<g>
			<defs>
				<rect id="SVGID_41_" x="-57.04" y="57.423" width="541.224" height="714.734"/>
			</defs>
			<clipPath id="SVGID_42_">
				<use xlink:href="#SVGID_41_"  overflow="visible"/>
			</clipPath>
			<path clip-path="url(#SVGID_42_)" fill="#FFFFFF" d="M432.376,181.598c0,4.263-2.591,8.96-5.784,8.96s-5.781-4.697-5.781-8.96
				c0-4.263,2.588-6.482,5.781-6.482S432.376,177.335,432.376,181.598"/>
		</g>
		<g>
			<defs>
				<rect id="SVGID_43_" x="-57.04" y="57.423" width="541.224" height="714.734"/>
			</defs>
			<clipPath id="SVGID_44_">
				<use xlink:href="#SVGID_43_"  overflow="visible"/>
			</clipPath>
			<path clip-path="url(#SVGID_44_)" fill="none" stroke="#000000" stroke-width="0.65" d="M432.376,181.598
				c0,4.263-2.591,8.96-5.784,8.96s-5.781-4.697-5.781-8.96c0-4.263,2.588-6.482,5.781-6.482S432.376,177.335,432.376,181.598z"/>
		</g>
	</g>
	<polyline fill="none" stroke="#231F20" stroke-width="0.78" points="365.026,165.339 365.026,189.39 406.624,188.522 
		406.624,162.305 	"/>
	<line fill="none" stroke="#000000" stroke-width="0.975" x1="456.243" y1="233.734" x2="456.243" y2="294.401"/>
	
		<line fill="none" stroke="#000000" stroke-width="0.975" stroke-dasharray="2.013,2.013,2.013,2.013,2.013,2.013" stroke-dashoffset="4" x1="458.409" y1="293.317" x2="458.409" y2="230.917"/>
	<line fill="none" stroke="#000000" stroke-width="0.975" x1="382.794" y1="268.185" x2="382.794" y2="293.75"/>
	
		<line fill="none" stroke="#000000" stroke-width="0.975" stroke-dasharray="1.933,1.933,1.933,1.933,1.933,1.933" stroke-dashoffset="3" x1="380.194" y1="268.618" x2="380.194" y2="293.752"/>
	<polyline fill="none" stroke="#000000" stroke-width="0.78" points="329.062,163.968 329.062,189.318 339.027,189.318 
		339.027,254.209 364.377,254.209 	"/>
	<g>
		<g>
			<defs>
				<rect id="SVGID_45_" x="-57.04" y="57.423" width="541.224" height="714.734"/>
			</defs>
			<clipPath id="SVGID_46_">
				<use xlink:href="#SVGID_45_"  overflow="visible"/>
			</clipPath>
			<circle clip-path="url(#SVGID_46_)" fill="none" stroke="#000000" stroke-width="0.52" cx="386.826" cy="176.782" r="1.189"/>
		</g>
		<g>
			<defs>
				<rect id="SVGID_47_" x="-57.04" y="57.423" width="541.224" height="714.734"/>
			</defs>
			<clipPath id="SVGID_48_">
				<use xlink:href="#SVGID_47_"  overflow="visible"/>
			</clipPath>
			<path clip-path="url(#SVGID_48_)" fill="none" stroke="#000000" stroke-width="0.65" d="M386.826,166.95
				c0.638,0,1.152,0.517,1.152,1.154s-0.516,1.155-1.152,1.155c-0.638,0-1.155-0.518-1.155-1.155S386.188,166.95,386.826,166.95z
				 M387.357,174.15h-1.062v-4.716h1.062V174.15z M392.019,169.323h-10.385v-2.486h10.385V169.323z"/>
		</g>
	</g>
	<rect x="376.297" y="166.457" fill="none" stroke="#000000" stroke-width="0.78" width="21.06" height="19.073"/>
	<rect x="377.926" y="169.382" fill="none" stroke="#000000" stroke-width="0.585" width="17.759" height="14.518"/>
	<line fill="none" stroke="#000000" stroke-width="0.65" x1="334.524" y1="255.752" x2="334.524" y2="291.502"/>
	<rect x="330.937" y="268.456" fill="none" stroke="#000000" stroke-width="0.78" width="1.463" height="2.762"/>
	<rect x="332.424" y="255.97" fill="none" stroke="#000000" stroke-width="0.78" width="30.062" height="35.245"/>
	<rect x="330.937" y="277.149" fill="none" stroke="#000000" stroke-width="0.78" width="1.463" height="2.764"/>
	<g>
		<g>
			<defs>
				<rect id="SVGID_49_" x="-57.04" y="57.423" width="541.224" height="714.734"/>
			</defs>
			<clipPath id="SVGID_50_">
				<use xlink:href="#SVGID_49_"  overflow="visible"/>
			</clipPath>
			<path clip-path="url(#SVGID_50_)" fill="#FFFFFF" d="M359.477,198.339c1.009,0,1.843,0.83,1.843,1.843v22.408
				c0,1.01-0.831,1.835-1.843,1.835h-15.756c-1.016,0-1.843-0.825-1.843-1.835v-22.408c0-1.013,0.827-1.843,1.843-1.843H359.477z"/>
		</g>
		<g>
			<defs>
				<rect id="SVGID_51_" x="-57.04" y="57.423" width="541.224" height="714.734"/>
			</defs>
			<clipPath id="SVGID_52_">
				<use xlink:href="#SVGID_51_"  overflow="visible"/>
			</clipPath>
			<path clip-path="url(#SVGID_52_)" fill="none" stroke="#231F20" stroke-width="0.78" d="M359.477,198.339
				c1.009,0,1.843,0.83,1.843,1.843v22.408c0,1.01-0.831,1.835-1.843,1.835h-15.756c-1.016,0-1.843-0.825-1.843-1.835v-22.408
				c0-1.013,0.827-1.843,1.843-1.843H359.477z"/>
		</g>
		<g>
			<defs>
				<rect id="SVGID_53_" x="-57.04" y="57.423" width="541.224" height="714.734"/>
			</defs>
			<clipPath id="SVGID_54_">
				<use xlink:href="#SVGID_53_"  overflow="visible"/>
			</clipPath>
			<path clip-path="url(#SVGID_54_)" fill="#FFFFFF" d="M357.01,220.625c-0.003,1.039-0.835,1.889-1.851,1.889h-9.465
				c-1.016-0.002-1.85-0.85-1.85-1.889V202.2c0-1.037,0.836-1.885,1.85-1.885h9.465c1.016,0,1.851,0.848,1.851,1.885V220.625z"/>
		</g>
		<g>
			<defs>
				<rect id="SVGID_55_" x="-57.04" y="57.423" width="541.224" height="714.734"/>
			</defs>
			<clipPath id="SVGID_56_">
				<use xlink:href="#SVGID_55_"  overflow="visible"/>
			</clipPath>
			<path clip-path="url(#SVGID_56_)" fill="none" stroke="#231F20" stroke-width="0.585" d="M357.01,220.625
				c-0.003,1.039-0.835,1.889-1.851,1.889h-9.465c-1.016-0.002-1.85-0.85-1.85-1.889V202.2c0-1.037,0.836-1.885,1.85-1.885h9.465
				c1.016,0,1.851,0.848,1.851,1.885V220.625z"/>
		</g>
		<g>
			<defs>
				<rect id="SVGID_57_" x="-57.04" y="57.423" width="541.224" height="714.734"/>
			</defs>
			<clipPath id="SVGID_58_">
				<use xlink:href="#SVGID_57_"  overflow="visible"/>
			</clipPath>
			<path clip-path="url(#SVGID_58_)" fill="#FFFFFF" d="M350.213,209.816c0.762,0,1.385,0.622,1.385,1.389
				c0,0.769-0.623,1.384-1.385,1.384c-0.767,0-1.394-0.612-1.394-1.384C348.82,210.438,349.447,209.816,350.213,209.816"/>
		</g>
		<g>
			<defs>
				<rect id="SVGID_59_" x="-57.04" y="57.423" width="541.224" height="714.734"/>
			</defs>
			<clipPath id="SVGID_60_">
				<use xlink:href="#SVGID_59_"  overflow="visible"/>
			</clipPath>
			<path clip-path="url(#SVGID_60_)" fill="none" stroke="#231F20" stroke-width="0.52" d="M350.213,209.816
				c0.762,0,1.385,0.622,1.385,1.389c0,0.769-0.623,1.384-1.385,1.384c-0.767,0-1.394-0.612-1.394-1.384
				C348.82,210.438,349.447,209.816,350.213,209.816z"/>
		</g>
		<g>
			<defs>
				<rect id="SVGID_61_" x="-57.04" y="57.423" width="541.224" height="714.734"/>
			</defs>
			<clipPath id="SVGID_62_">
				<use xlink:href="#SVGID_61_"  overflow="visible"/>
			</clipPath>
			<path clip-path="url(#SVGID_62_)" fill="#FFFFFF" d="M359.215,206.227c0.739,0,1.424,0.6,1.424,1.341v7.312
				c0,0.74-0.685,1.341-1.424,1.341c-0.741,0-1.424-0.601-1.424-1.341v-7.312C357.791,206.827,358.474,206.227,359.215,206.227"/>
		</g>
		<g>
			<defs>
				<rect id="SVGID_63_" x="-57.04" y="57.423" width="541.224" height="714.734"/>
			</defs>
			<clipPath id="SVGID_64_">
				<use xlink:href="#SVGID_63_"  overflow="visible"/>
			</clipPath>
			<path clip-path="url(#SVGID_64_)" fill="none" stroke="#231F20" stroke-width="0.52" d="M359.215,206.227
				c0.739,0,1.424,0.6,1.424,1.341v7.312c0,0.74-0.685,1.341-1.424,1.341c-0.741,0-1.424-0.601-1.424-1.341v-7.312
				C357.791,206.827,358.474,206.227,359.215,206.227z"/>
		</g>
		<g>
			<defs>
				<rect id="SVGID_65_" x="-57.04" y="57.423" width="541.224" height="714.734"/>
			</defs>
			<clipPath id="SVGID_66_">
				<use xlink:href="#SVGID_65_"  overflow="visible"/>
			</clipPath>
			<path clip-path="url(#SVGID_66_)" fill="#FFFFFF" d="M351.436,205.741l6.814,6.274c0.4,0.348,0.998,0.311,1.352-0.088
				c0.357-0.389,0.32-0.999-0.082-1.35l-7.062-5.99C352.132,204.308,351.12,205.455,351.436,205.741"/>
		</g>
		<g>
			<defs>
				<rect id="SVGID_67_" x="-57.04" y="57.423" width="541.224" height="714.734"/>
			</defs>
			<clipPath id="SVGID_68_">
				<use xlink:href="#SVGID_67_"  overflow="visible"/>
			</clipPath>
			<path clip-path="url(#SVGID_68_)" fill="none" stroke="#231F20" stroke-width="0.65" d="M351.436,205.741l6.814,6.274
				c0.4,0.348,0.998,0.311,1.352-0.088c0.357-0.389,0.32-0.999-0.082-1.35l-7.062-5.99
				C352.132,204.308,351.12,205.455,351.436,205.741z"/>
		</g>
		<g>
			<defs>
				<rect id="SVGID_69_" x="-57.04" y="57.423" width="541.224" height="714.734"/>
			</defs>
			<clipPath id="SVGID_70_">
				<use xlink:href="#SVGID_69_"  overflow="visible"/>
			</clipPath>
			<path clip-path="url(#SVGID_70_)" fill="#FFFFFF" d="M355.846,212.019h3.291c0.35,0,0.639-0.287,0.639-0.645
				c0-0.349-0.289-0.632-0.639-0.632h-3.291c-0.358,0-0.642,0.283-0.642,0.635C355.204,211.731,355.487,212.019,355.846,212.019"/>
		</g>
		<g>
			<defs>
				<rect id="SVGID_71_" x="-57.04" y="57.423" width="541.224" height="714.734"/>
			</defs>
			<clipPath id="SVGID_72_">
				<use xlink:href="#SVGID_71_"  overflow="visible"/>
			</clipPath>
			<path clip-path="url(#SVGID_72_)" fill="none" stroke="#231F20" stroke-width="0.52" d="M355.846,212.019h3.291
				c0.35,0,0.639-0.287,0.639-0.645c0-0.349-0.289-0.632-0.639-0.632h-3.291c-0.358,0-0.642,0.283-0.642,0.635
				C355.204,211.731,355.487,212.019,355.846,212.019z"/>
		</g>
		<g>
			<defs>
				<rect id="SVGID_73_" x="-57.04" y="57.423" width="541.224" height="714.734"/>
			</defs>
			<clipPath id="SVGID_74_">
				<use xlink:href="#SVGID_73_"  overflow="visible"/>
			</clipPath>
			<path clip-path="url(#SVGID_74_)" fill="#FFFFFF" d="M359.091,213.401c0.421,0,0.767,0.348,0.767,0.773
				c0,0.422-0.346,0.763-0.767,0.763c-0.416,0-0.764-0.341-0.764-0.767C358.327,213.746,358.67,213.401,359.091,213.401"/>
		</g>
		<g>
			<defs>
				<rect id="SVGID_75_" x="-57.04" y="57.423" width="541.224" height="714.734"/>
			</defs>
			<clipPath id="SVGID_76_">
				<use xlink:href="#SVGID_75_"  overflow="visible"/>
			</clipPath>
			<path clip-path="url(#SVGID_76_)" fill="none" stroke="#231F20" stroke-width="0.455" d="M359.091,213.401
				c0.421,0,0.767,0.348,0.767,0.773c0,0.422-0.346,0.763-0.767,0.763c-0.416,0-0.764-0.341-0.764-0.767
				C358.327,213.746,358.67,213.401,359.091,213.401z"/>
		</g>
		<g>
			<defs>
				<rect id="SVGID_77_" x="-57.04" y="57.423" width="541.224" height="714.734"/>
			</defs>
			<clipPath id="SVGID_78_">
				<use xlink:href="#SVGID_77_"  overflow="visible"/>
			</clipPath>
			<path clip-path="url(#SVGID_78_)" fill="#FFFFFF" d="M359.159,207.503c0.421,0,0.768,0.348,0.768,0.772
				c0,0.421-0.347,0.764-0.768,0.764c-0.42,0-0.765-0.343-0.765-0.767C358.396,207.848,358.738,207.503,359.159,207.503"/>
		</g>
		<g>
			<defs>
				<rect id="SVGID_79_" x="-57.04" y="57.423" width="541.224" height="714.734"/>
			</defs>
			<clipPath id="SVGID_80_">
				<use xlink:href="#SVGID_79_"  overflow="visible"/>
			</clipPath>
			<path clip-path="url(#SVGID_80_)" fill="none" stroke="#231F20" stroke-width="0.455" d="M359.159,207.503
				c0.421,0,0.768,0.348,0.768,0.772c0,0.421-0.347,0.764-0.768,0.764c-0.42,0-0.765-0.343-0.765-0.767
				C358.396,207.848,358.738,207.503,359.159,207.503z"/>
		</g>
	</g>
	
		<line fill="none" stroke="#000000" stroke-width="0.65" stroke-dasharray="1.936,1.936,1.936,1.936,1.936,1.936" stroke-dashoffset="3" x1="341.42" y1="249.82" x2="359.81" y2="249.82"/>
	
		<line fill="none" stroke="#000000" stroke-width="0.65" stroke-dasharray="1.899,1.899,1.899,1.899,1.899,1.899" stroke-dashoffset="3" x1="361.745" y1="246.973" x2="361.745" y2="228.937"/>
	
		<line fill="none" stroke="#000000" stroke-width="0.65" stroke-dasharray="1.892,1.892,1.892,1.892,1.892,1.892" stroke-dashoffset="3" x1="358.907" y1="227.037" x2="340.93" y2="227.037"/>
	<path fill="none" stroke="#000000" stroke-width="0.65" d="M339.983,227.038h-0.944 M361.746,227.986v-0.949H360.8 M360.777,249.82
		h0.97v-0.948 M338.517,249.82h0.968"/>
	<polyline fill="none" stroke="#000000" stroke-width="0.65" points="339.037,227.002 336.572,227.002 336.572,249.821 
		338.506,249.821 	"/>
	<polyline fill="#BBBDBF" points="482.234,162.018 482.221,436.842 456.432,436.842 456.432,424.053 470.983,424.053 
		470.983,295.206 473.283,295.256 473.283,167.973 441.969,167.973 441.969,163.968 	"/>
	<g>
		<g>
			<defs>
				<rect id="SVGID_81_" x="-57.04" y="57.423" width="541.224" height="714.734"/>
			</defs>
			<clipPath id="SVGID_82_">
				<use xlink:href="#SVGID_81_"  overflow="visible"/>
			</clipPath>
			<polyline clip-path="url(#SVGID_82_)" fill="none" stroke="#231F20" stroke-width="3.9" points="482.234,162.018 
				482.221,436.842 456.432,436.842 456.432,424.053 470.983,424.053 470.983,295.206 473.283,295.256 473.283,167.973 
				441.969,167.973 441.969,163.968 			"/>
		</g>
	</g>
	<path fill="none" stroke="#231F20" stroke-width="3.9" d="M455.159,431.549h-44.417 M394.276,431.549H343.36 M320.61,431.549
		h-45.014 M251.927,431.549h-43.441"/>
	<path fill="none" stroke="#231F20" stroke-width="5.2" d="M473.172,294.726h-37.513 M398.935,294.726h-58.5v75.726"/>
	<line fill="none" stroke="#231F20" stroke-width="6.5" x1="340.844" y1="409.883" x2="340.844" y2="425.049"/>
	<g>
		<g>
			<defs>
				<rect id="SVGID_83_" x="-57.04" y="57.423" width="541.224" height="714.734"/>
			</defs>
			<clipPath id="SVGID_84_">
				<use xlink:href="#SVGID_83_"  overflow="visible"/>
			</clipPath>
			<path clip-path="url(#SVGID_84_)" fill="none" stroke="#231F20" stroke-width="3.9" d="M270.979,162.884L270.924,59.61
				l-40.956-0.007 M200.416,59.6l-20.248-0.003l-0.021,377.134h26.531v-12.412h-17.292l-0.028-181.246h4.278l0.028-20.838h-4.286
				V60.185"/>
		</g>
	</g>
	<path fill="none" stroke="#231F20" stroke-width="5.2" d="M270.561,132.88h-29.918v69.22h11.394 M281.609,202.1h12.677
		l-0.027-38.025"/>
	<polygon fill="#BBBDBF" points="387.651,423.2 387.651,436.842 409.187,436.842 409.187,423.241 	"/>
	<polygon fill="none" stroke="#231F20" stroke-width="3.9" points="387.651,423.2 387.651,436.842 409.187,436.842 409.187,423.241 
			"/>
	<polygon fill="#BBBDBF" points="322.042,423.2 322.042,436.842 342.165,436.842 342.165,423.241 	"/>
	<polygon fill="none" stroke="#231F20" stroke-width="3.9" points="322.042,423.2 322.042,436.842 342.165,436.842 342.165,423.241 
			"/>
	<polygon fill="#BBBDBF" points="253.359,423.2 253.359,436.788 274.992,436.788 274.992,423.241 	"/>
	<polygon fill="none" stroke="#231F20" stroke-width="3.9" points="253.359,423.2 253.359,436.788 274.992,436.788 274.992,423.241 
			"/>
	<g>
		<g>
			<defs>
				<rect id="SVGID_85_" x="-57.04" y="57.423" width="541.224" height="714.734"/>
			</defs>
			<clipPath id="SVGID_86_">
				<use xlink:href="#SVGID_85_"  overflow="visible"/>
			</clipPath>
			<path clip-path="url(#SVGID_86_)" fill="none" stroke="#231F20" stroke-width="5.2" d="M472.061,231.675h-37.7 M404.103,231.675
				h-37.018 M365.785,164.725v131.3 M484.067,162.125H240.335"/>
		</g>
	</g>
	<line fill="none" stroke="#231F20" stroke-width="6.5" x1="398.935" y1="265.749" x2="365.46" y2="265.749"/>
	<path fill="none" stroke="#231F20" stroke-width="0.78" d="M242.399,200.8h47.125v1.95h-47.125V200.8L242.399,200.8z
		 M337.576,391.36h-1.95v-47.125h1.95V391.36z"/>
	<g>
		<g>
			<defs>
				<rect id="SVGID_87_" x="-57.04" y="57.423" width="541.224" height="714.734"/>
			</defs>
			<clipPath id="SVGID_88_">
				<use xlink:href="#SVGID_87_"  overflow="visible"/>
			</clipPath>
			
				<line clip-path="url(#SVGID_88_)" fill="none" stroke="#231F20" stroke-width="3.9" stroke-dasharray="6.307,2.307,6.307,2.307,6.307,2.307" stroke-dashoffset="8" x1="191.744" y1="59.533" x2="191.744" y2="220.895"/>
		</g>
	</g>
	<rect x="229.993" y="429.918" fill="#FFFFFF" width="18.579" height="3.164"/>
	<rect x="229.993" y="429.918" fill="none" stroke="#000000" stroke-width="0.78" width="18.579" height="3.164"/>
	<line fill="none" stroke="#000000" stroke-width="0.78" x1="229.993" y1="431.571" x2="248.464" y2="431.571"/>
	<rect x="210.873" y="429.918" fill="#FFFFFF" width="19.068" height="3.164"/>
	<rect x="210.873" y="429.918" fill="none" stroke="#000000" stroke-width="0.78" width="19.068" height="3.164"/>
	<line fill="none" stroke="#000000" stroke-width="0.78" x1="210.873" y1="431.571" x2="229.942" y2="431.571"/>
	<rect x="299.016" y="429.926" fill="#FFFFFF" width="18.58" height="3.164"/>
	<rect x="299.016" y="429.926" fill="none" stroke="#000000" stroke-width="0.78" width="18.58" height="3.164"/>
	<line fill="none" stroke="#000000" stroke-width="0.78" x1="299.016" y1="431.579" x2="317.487" y2="431.579"/>
	<rect x="279.896" y="429.926" fill="#FFFFFF" width="19.069" height="3.164"/>
	<rect x="279.896" y="429.926" fill="none" stroke="#000000" stroke-width="0.78" width="19.069" height="3.164"/>
	<line fill="none" stroke="#000000" stroke-width="0.78" x1="279.896" y1="431.579" x2="298.965" y2="431.579"/>
	<rect x="365.511" y="429.926" fill="#FFFFFF" width="18.581" height="3.164"/>
	<rect x="365.511" y="429.926" fill="none" stroke="#000000" stroke-width="0.78" width="18.581" height="3.164"/>
	<line fill="none" stroke="#000000" stroke-width="0.78" x1="365.511" y1="431.579" x2="383.982" y2="431.579"/>
	<rect x="346.392" y="429.926" fill="#FFFFFF" width="19.068" height="3.164"/>
	<rect x="346.392" y="429.926" fill="none" stroke="#000000" stroke-width="0.78" width="19.068" height="3.164"/>
	<line fill="none" stroke="#000000" stroke-width="0.78" x1="346.392" y1="431.579" x2="365.46" y2="431.579"/>
	<rect x="433.38" y="429.903" fill="#FFFFFF" width="18.581" height="3.164"/>
	<rect x="433.38" y="429.903" fill="none" stroke="#000000" stroke-width="0.78" width="18.581" height="3.164"/>
	<line fill="none" stroke="#000000" stroke-width="0.78" x1="433.38" y1="431.555" x2="451.852" y2="431.555"/>
	<rect x="414.261" y="429.903" fill="#FFFFFF" width="19.067" height="3.164"/>
	<rect x="414.261" y="429.903" fill="none" stroke="#000000" stroke-width="0.78" width="19.067" height="3.164"/>
	<line fill="none" stroke="#000000" stroke-width="0.78" x1="414.261" y1="431.555" x2="433.328" y2="431.555"/>
	<g>
		<g>
			<defs>
				<rect id="SVGID_89_" x="-57.04" y="57.423" width="541.224" height="714.734"/>
			</defs>
			<clipPath id="SVGID_90_">
				<use xlink:href="#SVGID_89_"  overflow="visible"/>
			</clipPath>
			<path clip-path="url(#SVGID_90_)" fill="#231F20" d="M422.533,364.438h-0.468l-0.476,1.547h0.296L422.533,364.438z
				 M421.588,364.438h-0.47l-0.471,1.547h0.293L421.588,364.438z M419.41,367.389c0,0.434-0.407,0.793-1.098,0.793
				s-1.099-0.359-1.099-0.793c0-0.473,0.485-0.803,1.099-0.803C418.925,366.586,419.41,366.917,419.41,367.389 M419.273,365.422
				c0,0.461-0.427,0.773-0.96,0.773c-0.534,0-0.96-0.312-0.96-0.773c0-0.426,0.414-0.732,0.96-0.732
				S419.273,365.002,419.273,365.422 M419.892,367.397c0-0.506-0.366-0.848-0.864-1.033c0.391-0.18,0.72-0.479,0.72-0.973
				c0-0.652-0.666-1.115-1.434-1.115c-0.769,0-1.435,0.463-1.435,1.115c0,0.492,0.329,0.793,0.72,0.973
				c-0.504,0.182-0.863,0.535-0.863,1.039c0,0.707,0.685,1.193,1.578,1.193C419.206,368.596,419.892,368.116,419.892,367.397
				 M415.456,364.438h-0.469l-0.471,1.547h0.292L415.456,364.438z M413.051,365.643c0,0.486-0.401,0.955-1.044,0.955
				c-0.611,0-1.031-0.385-1.031-0.924c0-0.527,0.378-0.99,1.008-0.99S413.051,365.104,413.051,365.643 M413.627,366.329
				c0-0.848-0.191-1.303-0.521-1.633c-0.271-0.271-0.624-0.434-1.104-0.434c-0.895,0-1.513,0.631-1.513,1.436
				c0,0.762,0.601,1.309,1.464,1.309c0.582,0,0.96-0.307,1.188-0.672c0.018,1.072-0.492,1.842-1.248,1.842
				c-0.372,0-0.69-0.15-1.032-0.451l-0.275,0.367c0.354,0.293,0.75,0.516,1.296,0.516
				C412.919,368.608,413.627,367.667,413.627,366.329 M407.397,368.036l-1.129-1.504l1.087-1.438h-0.387l-0.896,1.201l-0.902-1.201
				h-0.391l1.088,1.441l-1.13,1.5h0.382l0.941-1.266l0.94,1.266H407.397L407.397,368.036z M402.271,364.438h-0.47l-0.475,1.547
				h0.295L402.271,364.438z M401.323,364.438h-0.469l-0.473,1.547h0.293L401.323,364.438z M396.771,364.768h2.31l-1.896,3.77h0.527
				l1.907-3.848v-0.354h-2.85L396.771,364.768L396.771,364.768z M395.396,364.438h-0.469l-0.472,1.547h0.293L395.396,364.438z
				 M393.068,366.442c0,0.924-0.485,1.732-1.271,1.732s-1.29-0.814-1.29-1.746c0-0.93,0.492-1.732,1.278-1.732
				C392.57,364.696,393.068,365.518,393.068,366.442 M393.561,366.43c0-1.182-0.685-2.166-1.765-2.166
				c-1.086,0-1.782,0.996-1.782,2.178c0,1.184,0.685,2.166,1.771,2.166C392.864,368.608,393.561,367.612,393.561,366.43
				 M387.146,364.661l0.113,0.383l0.792-0.246v3.738h0.469v-4.23h-0.349L387.146,364.661z"/>
		</g>
		<g>
			<defs>
				<rect id="SVGID_91_" x="-57.04" y="57.423" width="541.224" height="714.734"/>
			</defs>
			<clipPath id="SVGID_92_">
				<use xlink:href="#SVGID_91_"  overflow="visible"/>
			</clipPath>
			<path clip-path="url(#SVGID_92_)" fill="#231F20" d="M422.136,356.739v3.771h0.524v-4.654h-0.531l-1.695,2.539l-1.695-2.539
				h-0.532v4.654h0.513v-3.764l1.695,2.486h0.026L422.136,356.739z M416.55,358.19c0,1.062-0.758,1.914-1.821,1.914
				c-1.064,0-1.836-0.863-1.836-1.928s0.759-1.916,1.822-1.916C415.779,356.262,416.55,357.125,416.55,358.19 M417.096,358.176
				c0-1.289-0.951-2.4-2.367-2.4c-1.417,0-2.381,1.125-2.381,2.414c0,1.291,0.95,2.4,2.367,2.4
				C416.131,360.59,417.096,359.467,417.096,358.176 M410.898,358.19c0,1.062-0.758,1.914-1.822,1.914
				c-1.062,0-1.836-0.863-1.836-1.928s0.758-1.916,1.822-1.916C410.126,356.262,410.898,357.125,410.898,358.19 M411.443,358.176
				c0-1.289-0.951-2.4-2.367-2.4c-1.417,0-2.381,1.125-2.381,2.414c0,1.291,0.951,2.4,2.367,2.4
				C410.479,360.59,411.443,359.467,411.443,358.176 M405.244,357.266c0,0.605-0.499,0.965-1.196,0.965h-1.431v-1.891h1.438
				C404.807,356.34,405.244,356.688,405.244,357.266 M405.943,360.51l-1.429-1.9c0.729-0.135,1.263-0.586,1.263-1.363
				c0-0.838-0.658-1.391-1.682-1.391h-2.003v4.654h0.524v-1.809h1.331l1.35,1.809H405.943z M400.438,358.19
				c0,1.037-0.751,1.836-1.929,1.836h-1.091v-3.686h1.091C399.687,356.34,400.438,357.153,400.438,358.19 M400.983,358.176
				c0-1.316-1.011-2.32-2.475-2.32h-1.615v4.654h1.615C399.973,360.51,400.983,359.495,400.983,358.176 M395.802,355.856h-3.364
				v4.654h3.398v-0.479h-2.873v-1.629h2.54v-0.48h-2.54v-1.588h2.839V355.856z M389.718,360.04h-1.562v-1.645h1.471
				c0.812,0,1.236,0.293,1.236,0.805C390.862,359.725,390.423,360.04,389.718,360.04 M389.532,357.93h-1.378v-1.602h1.416
				c0.665,0,1.031,0.299,1.031,0.764C390.603,357.645,390.163,357.93,389.532,357.93 M389.618,355.856h-1.982v4.654h2.068
				c1.019,0,1.689-0.473,1.689-1.277c0-0.645-0.446-0.965-0.998-1.131c0.366-0.158,0.737-0.471,0.737-1.084
				C391.134,356.307,390.536,355.856,389.618,355.856"/>
		</g>
	</g>
	<rect x="79.277" y="59.16" fill="#FFFFFF" width="33.15" height="44.2"/>
	<rect x="112.427" y="59.16" fill="#FFFFFF" width="33.15" height="44.2"/>
	<polygon fill="#FFFFFF" points="145.577,111.01 145.577,103.36 120.927,103.36 120.927,111.01 112.427,111.01 112.427,152.66 
		145.577,152.66 	"/>
	<polygon fill="#FFFFFF" points="79.277,111.01 58.877,111.01 58.877,128.01 46.127,128.01 46.127,153.51 79.277,153.51 	"/>
	<polygon fill="#BBBDBF" points="78.427,110.16 78.427,152.66 112.427,152.66 112.427,135.66 112.427,122.06 89.478,122.06 
		89.478,111.01 	"/>
	<polygon fill="#FFFFFF" points="46.127,58.31 78.427,58.31 78.427,103.36 64.827,103.36 64.827,96.56 60.577,96.56 60.577,86.36 
		49.527,86.36 46.127,86.36 	"/>
	<g>
		<g>
			<defs>
				<rect id="SVGID_93_" x="-57.04" y="57.423" width="541.224" height="714.734"/>
			</defs>
			<clipPath id="SVGID_94_">
				<use xlink:href="#SVGID_93_"  overflow="visible"/>
			</clipPath>
			<path clip-path="url(#SVGID_94_)" fill="none" stroke="#000000" stroke-width="0.425" d="M56.384,105.154
				c0,1.795,1.455,3.251,3.25,3.251 M56.382,105.154h3.252v-0.188h-3.252V105.154z"/>
		</g>
	</g>
	<path fill="none" stroke="#000000" stroke-width="0.452" d="M49.996,116.606l8.956,0.004 M46.738,117.804l12.215,0.003
		 M46.72,119.002l12.204,0.01 M46.762,120.199l12.232,0.007 M46.803,121.398l12.191,0.003 M46.803,122.595l12.191,0.006
		 M46.823,123.848l12.172-0.002"/>
	<path fill="none" stroke="#000000" stroke-width="0.425" d="M46.495,109.849h6.378 M46.495,111.046h6.378 M46.495,112.244h6.378
		 M46.495,113.441h6.378 M46.495,114.639h6.315 M46.372,115.836h5.474 M46.727,116.79h3.554"/>
	<line fill="none" stroke="#000000" stroke-width="1.18" x1="46.494" y1="108.712" x2="52.872" y2="108.712"/>
	<polyline fill="none" stroke="#000000" stroke-width="0.425" points="47.011,119.357 50.677,116.664 50.486,116.107 
		51.412,116.985 51.15,116.344 52.918,115.275 	"/>
	<line fill="none" stroke="#000000" stroke-width="0.452" x1="52.489" y1="115.409" x2="59.251" y2="115.409"/>
	<path fill="#FFFFFF" d="M53.241,124.115h0.588v-15.333h-0.588V124.115z M52.949,108.384h1.172v16.128h-1.172V108.384z"/>
	<path fill="none" stroke="#262626" stroke-width="0.495" d="M53.241,124.115h0.588v-15.333h-0.588V124.115z M52.949,108.384h1.172
		v16.128h-1.172V108.384z"/>
	<g>
		<g>
			<defs>
				<rect id="SVGID_95_" x="-57.04" y="57.423" width="541.224" height="714.734"/>
			</defs>
			<clipPath id="SVGID_96_">
				<use xlink:href="#SVGID_95_"  overflow="visible"/>
			</clipPath>
			<polygon clip-path="url(#SVGID_96_)" fill="none" stroke="#262626" stroke-width="2.065" stroke-miterlimit="10" points="
				146.011,153.307 45.703,153.307 45.703,58.456 79.188,58.456 146.011,58.456 			"/>
		</g>
		<g>
			<defs>
				<rect id="SVGID_97_" x="-57.04" y="57.423" width="541.224" height="714.734"/>
			</defs>
			<clipPath id="SVGID_98_">
				<use xlink:href="#SVGID_97_"  overflow="visible"/>
			</clipPath>
			<path clip-path="url(#SVGID_98_)" fill="none" stroke="#262626" stroke-width="1.18" stroke-miterlimit="10" d="M59.126,110.674
				h61.808V103.3 M49.389,96.219h11.359 M49.095,104.185h10.031v0.885 M59.126,108.316v19.765H46.587 M45.85,104.333h3.393V86.188
				h11.653v10.621h3.983v6.934h47.795l0.056-0.879h8.057l-0.071-0.155h25.739 M79.04,153.601V110.33 M112.526,153.601V110.33
				 M112.526,103.004V59.119 M78.892,103.004V59.119"/>
		</g>
		<g>
			<defs>
				<rect id="SVGID_99_" x="-57.04" y="57.423" width="541.224" height="714.734"/>
			</defs>
			<clipPath id="SVGID_100_">
				<use xlink:href="#SVGID_99_"  overflow="visible"/>
			</clipPath>
			<path clip-path="url(#SVGID_100_)" fill="none" stroke="#000000" stroke-width="0.425" d="M103.011,111.057v5.016
				 M101.807,111.057v5.016 M100.602,111.057v5.016 M99.397,111.057v4.918 M98.193,111.057v4.918 M96.988,111.057v4.918
				 M95.783,111.057v1.666 M111.124,113.847c-1.806,0-3.271-1.463-3.271-3.269 M111.313,113.849h-0.188v-3.271h0.188V113.849z
				 M77.881,113.772c-1.806,0-3.271-1.464-3.271-3.269 M78.07,113.774h-0.188v-3.271h0.188V113.774z M113.996,113.844
				c1.805,0,3.269-1.462,3.269-3.268 M113.807,113.847h0.189v-3.271h-0.189V113.847z M81.114,113.772
				c1.807,0,3.271-1.464,3.271-3.269 M80.926,113.774h0.188v-3.271h-0.188V113.774z M114.612,99.121c1.807,0,3.271,1.465,3.271,3.27
				 M114.425,99.119h0.188v3.272h-0.188V99.119z M95.525,100.668c-1.806,0-3.269,1.465-3.269,3.27 M95.714,100.666h-0.188v3.272
				h0.188V100.666z M68.076,103.009c0-1.807-1.465-3.27-3.271-3.27 M68.078,103.009h-3.272v0.188h3.272V103.009z"/>
		</g>
	</g>
	<line fill="none" stroke="#000000" stroke-width="1.18" x1="104.216" y1="111.057" x2="104.216" y2="116.073"/>
	<polyline fill="none" stroke="#000000" stroke-width="0.425" points="95.021,110.518 95.956,113.419 96.545,113.37 95.463,114.058 
		96.152,113.96 96.767,116.099 	"/>
	<path fill="#FFFFFF" d="M93.202,116.812h11.358v-0.59H93.202V116.812z M104.855,117.106H92.907v-1.18h11.947V117.106z"/>
	<path fill="none" stroke="#262626" stroke-width="0.425" d="M93.202,116.812h11.358v-0.59H93.202V116.812z M104.855,117.106H92.907
		v-1.18h11.947V117.106z"/>
	<path fill="none" stroke="#000000" stroke-width="0.425" d="M95.682,114.058v1.941 M94.476,111.083v4.916 M93.271,111.083v4.916
		 M95.633,117.158v4.918 M94.427,117.158v4.918 M93.223,117.158v4.918 M104.314,117.135v5.015 M103.108,117.135v5.015
		 M101.906,117.135v5.015 M100.574,117.135v5.015 M99.37,117.135v4.917 M98.164,117.135v4.917 M96.959,117.135v4.917"/>
	<polyline fill="none" stroke="#262626" stroke-width="1.18" stroke-miterlimit="10" points="89.071,110.674 89.071,122.034 
		112.673,122.034 	"/>
	<g>
		<path d="M57.046,89.212h-3.365v1.547h2.983v0.935h-2.983v1.598h3.408v0.935h-4.453v-5.949h4.411L57.046,89.212L57.046,89.212z"/>
	</g>
	<g>
		<g>
			<defs>
				<rect id="SVGID_101_" x="-57.04" y="57.423" width="541.224" height="714.734"/>
			</defs>
			<clipPath id="SVGID_102_">
				<use xlink:href="#SVGID_101_"  overflow="visible"/>
			</clipPath>
		</g>
		<g>
			<defs>
				<rect id="SVGID_103_" x="-57.04" y="57.423" width="541.224" height="714.734"/>
			</defs>
			<clipPath id="SVGID_104_">
				<use xlink:href="#SVGID_103_"  overflow="visible"/>
			</clipPath>
			<path clip-path="url(#SVGID_104_)" fill="#231F20" d="M299.417,242.331l-2.933-3.731h-0.491v4.655h0.513v-3.817l3.006,3.817
				h0.418V238.6h-0.513V242.331z M294.902,238.6h-3.364v4.655h3.397v-0.479h-2.872v-1.629h2.54v-0.479h-2.54v-1.589h2.839V238.6z
				 M289.695,241.16v2.095h0.526V238.6h-0.526v2.068h-2.686V238.6h-0.526v4.655h0.526v-2.095H289.695z M285.566,242.517
				l-0.346-0.339c-0.446,0.425-0.865,0.671-1.503,0.671c-1.024,0-1.803-0.844-1.803-1.928s0.771-1.915,1.803-1.915
				c0.632,0,1.07,0.266,1.463,0.638l0.358-0.386c-0.465-0.438-0.972-0.738-1.814-0.738c-1.37,0-2.354,1.084-2.354,2.414
				c0,1.344,0.989,2.401,2.334,2.401C284.549,243.334,285.08,243.009,285.566,242.517 M279.35,239.086h1.562V238.6h-3.656v0.486
				h1.562v4.169h0.532V239.086L279.35,239.086z M275.698,243.255h0.525V238.6h-0.525V243.255z M272.753,240.635l1.994-2.035h-0.679
				l-2.674,2.78v-2.78h-0.524v4.655h0.524v-1.25l0.991-1.004l1.789,2.254h0.657L272.753,240.635z"/>
		</g>
		<g>
			<defs>
				<rect id="SVGID_105_" x="-57.04" y="57.423" width="541.224" height="714.734"/>
			</defs>
			<clipPath id="SVGID_106_">
				<use xlink:href="#SVGID_105_"  overflow="visible"/>
			</clipPath>
			<path clip-path="url(#SVGID_106_)" fill="#231F20" d="M466.414,275.372v1.562h0.486v-3.658h-0.486v1.562h-4.169v0.533H466.414
				L466.414,275.372z M466.901,272.519v-3.365h-4.655v3.399h0.479v-2.873h1.629v2.54h0.479v-2.54h1.589v2.839H466.901z
				 M465.737,265.304c0.426,0,0.758,0.386,0.758,0.991c0,0.479-0.152,0.91-0.505,1.343l0.404,0.306
				c0.38-0.472,0.572-0.957,0.572-1.636c0-0.884-0.532-1.529-1.276-1.529c-0.771,0-1.117,0.492-1.35,1.562
				c-0.207,0.979-0.453,1.211-0.892,1.211c-0.474,0-0.798-0.412-0.798-1.037c0-0.645,0.219-1.11,0.657-1.596l-0.386-0.326
				c-0.499,0.559-0.745,1.164-0.745,1.902c0,0.924,0.52,1.59,1.324,1.59c0.718,0,1.097-0.479,1.322-1.518
				C465.046,265.543,465.292,265.304,465.737,265.304 M464.567,263.274c-1.063,0-1.915-0.758-1.915-1.82
				c0-1.064,0.863-1.836,1.928-1.836c1.063,0,1.915,0.758,1.915,1.821C466.494,262.504,465.631,263.274,464.567,263.274
				 M464.579,263.819c1.29,0,2.4-0.949,2.4-2.365s-1.124-2.383-2.413-2.383c-1.29,0-2.401,0.951-2.401,2.368
				C462.165,262.855,463.289,263.819,464.579,263.819 M462.245,255.429v3.146h0.484v-2.619h4.171v-0.525L462.245,255.429
				L462.245,255.429z M462.984,254.51l0.339-0.346c-0.426-0.444-0.671-0.863-0.671-1.502c0-1.024,0.844-1.804,1.928-1.804
				s1.915,0.772,1.915,1.804c0,0.631-0.267,1.069-0.639,1.463l0.386,0.357c0.438-0.465,0.738-0.97,0.738-1.814
				c0-1.369-1.084-2.354-2.413-2.354c-1.345,0-2.401,0.991-2.401,2.334C462.165,253.495,462.491,254.025,462.984,254.51"/>
		</g>
		<g>
			<defs>
				<rect id="SVGID_107_" x="-57.04" y="57.423" width="541.224" height="714.734"/>
			</defs>
			<clipPath id="SVGID_108_">
				<use xlink:href="#SVGID_107_"  overflow="visible"/>
			</clipPath>
			<path clip-path="url(#SVGID_108_)" fill="#231F20" d="M388.904,271.85v-1.152h-0.357v2.695h0.357v-1.15h3.072v-0.393H388.904z
				 M388.546,273.952v2.479h3.431v-2.504h-0.354v2.117h-1.2v-1.873h-0.354v1.873h-1.171v-2.094h-0.353V273.952z M389.403,279.268
				c-0.312,0-0.559-0.284-0.559-0.73c0-0.353,0.113-0.67,0.372-0.988l-0.299-0.227c-0.279,0.35-0.421,0.705-0.421,1.205
				c0,0.652,0.392,1.127,0.94,1.127c0.567,0,0.822-0.361,0.994-1.15c0.151-0.721,0.334-0.893,0.656-0.893
				c0.349,0,0.588,0.305,0.588,0.766c0,0.476-0.162,0.817-0.484,1.176l0.284,0.24c0.367-0.412,0.549-0.857,0.549-1.401
				c0-0.681-0.382-1.171-0.976-1.171c-0.528,0-0.809,0.354-0.975,1.117C389.913,279.092,389.732,279.268,389.403,279.268
				 M390.267,280.763c0.783,0,1.41,0.559,1.41,1.343s-0.637,1.354-1.421,1.354s-1.411-0.56-1.411-1.344
				C388.845,281.333,389.482,280.763,390.267,280.763 M390.256,280.36c-0.951,0-1.77,0.701-1.77,1.745
				c0,1.043,0.828,1.754,1.779,1.754c0.949,0,1.77-0.7,1.77-1.743C392.035,281.071,391.207,280.36,390.256,280.36 M391.977,286.545
				v-2.318h-0.357v1.932h-3.072v0.387H391.977L391.977,286.545z M391.433,287.221l-0.25,0.255c0.313,0.328,0.494,0.637,0.494,1.106
				c0,0.756-0.622,1.328-1.421,1.328s-1.411-0.568-1.411-1.328c0-0.465,0.196-0.789,0.471-1.078l-0.283-0.264
				c-0.323,0.344-0.545,0.715-0.545,1.336c0,1.012,0.8,1.735,1.779,1.735c0.989,0,1.77-0.729,1.77-1.72
				C392.035,287.971,391.795,287.579,391.433,287.221"/>
		</g>
		<g>
			<defs>
				<rect id="SVGID_109_" x="-57.04" y="57.423" width="541.224" height="714.734"/>
			</defs>
			<clipPath id="SVGID_110_">
				<use xlink:href="#SVGID_109_"  overflow="visible"/>
			</clipPath>
			<path clip-path="url(#SVGID_110_)" fill="#231F20" d="M397.678,208.831v2.095h0.524v-4.655h-0.524v2.068h-2.687v-2.068h-0.525
				v4.655h0.525v-2.095H397.678z M391.919,206.755h1.562v-0.485h-3.657v0.485h1.562v4.17h0.532L391.919,206.755L391.919,206.755z
				 M388.522,209.224H386.4l1.063-2.374L388.522,209.224z M387.717,206.237h-0.492l-2.121,4.688h0.538l0.553-1.23h2.534l0.545,1.23
				h0.564L387.717,206.237z M382.783,210.454h-1.563v-1.643h1.471c0.812,0,1.236,0.293,1.236,0.805
				C383.927,210.141,383.488,210.454,382.783,210.454 M382.597,208.346h-1.377v-1.603h1.416c0.665,0,1.031,0.299,1.031,0.765
				C383.667,208.06,383.229,208.346,382.597,208.346 M382.683,206.271h-1.98v4.655h2.067c1.019,0,1.689-0.472,1.689-1.277
				c0-0.645-0.446-0.964-0.998-1.13c0.366-0.16,0.738-0.472,0.738-1.084C384.199,206.723,383.601,206.271,382.683,206.271"/>
		</g>
		<g>
			<defs>
				<rect id="SVGID_111_" x="-57.04" y="57.423" width="541.224" height="714.734"/>
			</defs>
			<clipPath id="SVGID_112_">
				<use xlink:href="#SVGID_111_"  overflow="visible"/>
			</clipPath>
			<path clip-path="url(#SVGID_112_)" fill="#231F20" d="M278.389,184.784h-0.874v0.998h0.874V184.784z M275.6,183.687v2.095h0.525
				v-4.655H275.6v2.068h-2.687v-2.068h-0.525v4.655h0.525v-2.095H275.6z M271.47,185.043l-0.345-0.339
				c-0.446,0.426-0.865,0.672-1.503,0.672c-1.024,0-1.804-0.845-1.804-1.929c0-1.084,0.771-1.915,1.804-1.915
				c0.631,0,1.068,0.266,1.463,0.639l0.357-0.386c-0.466-0.439-0.971-0.738-1.814-0.738c-1.37,0-2.354,1.084-2.354,2.414
				c0,1.343,0.991,2.4,2.334,2.4C270.452,185.861,270.984,185.535,271.47,185.043 M266.39,181.127h-3.365v4.655h3.398v-0.479h-2.873
				v-1.63h2.541v-0.478h-2.541v-1.59h2.84V181.127L266.39,181.127z M261.183,182.011v3.771h0.525v-4.655h-0.532l-1.695,2.54
				l-1.695-2.54h-0.531v4.655h0.512v-3.764l1.696,2.487h0.024L261.183,182.011z"/>
		</g>
		<g>
			<defs>
				<rect id="SVGID_113_" x="-57.04" y="57.423" width="541.224" height="714.734"/>
			</defs>
			<clipPath id="SVGID_114_">
				<use xlink:href="#SVGID_113_"  overflow="visible"/>
			</clipPath>
			<path clip-path="url(#SVGID_114_)" fill="#231F20" d="M378.265,242.208c1.038,0,1.836,0.752,1.836,1.929v1.091h-3.684v-1.091
				C376.417,242.96,377.228,242.208,378.265,242.208 M378.252,241.663c-1.317,0-2.321,1.011-2.321,2.474v1.616h4.655v-1.616
				C380.586,242.674,379.569,241.663,378.252,241.663 M380.586,247.133h-0.997v0.874h0.997V247.133z M379.808,252.95l-3.877,1.329
				v0.572l4.688-1.663v-0.438l-3.777-1.283l3.777-1.277v-0.445l-4.688-1.663v0.551l3.877,1.332l-3.89,1.275v0.434L379.808,252.95z"
				/>
		</g>
		<g>
			<defs>
				<rect id="SVGID_115_" x="-57.04" y="57.423" width="541.224" height="714.734"/>
			</defs>
			<clipPath id="SVGID_116_">
				<use xlink:href="#SVGID_115_"  overflow="visible"/>
			</clipPath>
			<path clip-path="url(#SVGID_116_)" fill="#231F20" d="M271.919,356.463v3.771h0.524v-4.654h-0.531l-1.695,2.539l-1.696-2.539
				h-0.532v4.654h0.514v-3.766l1.694,2.488h0.027L271.919,356.463z M266.333,357.915c0,1.062-0.759,1.914-1.822,1.914
				c-1.064,0-1.835-0.863-1.835-1.928s0.758-1.914,1.821-1.914C265.562,355.987,266.333,356.85,266.333,357.915 M266.879,357.901
				c0-1.289-0.951-2.4-2.368-2.4c-1.416,0-2.38,1.123-2.38,2.414c0,1.289,0.95,2.4,2.366,2.4
				C265.915,360.315,266.879,359.192,266.879,357.901 M260.681,357.915c0,1.062-0.758,1.914-1.822,1.914
				c-1.062,0-1.835-0.863-1.835-1.928s0.759-1.914,1.822-1.914S260.681,356.85,260.681,357.915 M261.226,357.901
				c0-1.289-0.951-2.4-2.367-2.4s-2.381,1.123-2.381,2.414c0,1.289,0.951,2.4,2.368,2.4
				C260.262,360.315,261.226,359.192,261.226,357.901 M255.028,356.991c0,0.604-0.499,0.963-1.196,0.963h-1.431v-1.889h1.438
				C254.59,356.065,255.028,356.411,255.028,356.991 M255.727,360.235l-1.43-1.902c0.73-0.133,1.264-0.584,1.264-1.363
				c0-0.838-0.659-1.389-1.683-1.389h-2.001v4.654h0.523v-1.811h1.33l1.351,1.811H255.727L255.727,360.235z"/>
		</g>
		<g>
			<defs>
				<rect id="SVGID_117_" x="-57.04" y="57.423" width="541.224" height="714.734"/>
			</defs>
			<clipPath id="SVGID_118_">
				<use xlink:href="#SVGID_117_"  overflow="visible"/>
			</clipPath>
			<path clip-path="url(#SVGID_118_)" fill="#231F20" d="M287.745,351.102v-1.854h-1.923v0.473h1.417v1.156
				c-0.317,0.26-0.812,0.467-1.344,0.467c-1.13,0-1.842-0.826-1.842-1.941c0-1.045,0.739-1.914,1.769-1.914
				c0.659,0,1.06,0.219,1.417,0.529l0.34-0.396c-0.467-0.395-0.95-0.619-1.735-0.619c-1.396,0-2.334,1.131-2.334,2.414
				c0,1.336,0.903,2.4,2.367,2.4C286.661,351.815,287.313,351.489,287.745,351.102 M281.888,350.811l-2.934-3.73h-0.491v4.656h0.512
				v-3.818l3.006,3.818h0.419v-4.656h-0.512V350.811L281.888,350.811z M276.573,351.735h0.525v-4.654h-0.525V351.735z
				 M273.382,351.09l-1.656-4.01h-0.585l2.002,4.688h0.465l2.002-4.688h-0.563L273.382,351.09z M269.651,351.735h0.525v-4.654
				h-0.525V351.735z M265.488,351.735h3.146v-0.484h-2.62v-4.17h-0.525L265.488,351.735L265.488,351.735z M263.158,350.739h-0.874
				v0.996h0.874V350.739z M260.314,351.102v-1.854h-1.921v0.473h1.416v1.156c-0.319,0.26-0.811,0.467-1.343,0.467
				c-1.131,0-1.842-0.826-1.842-1.941c0-1.045,0.736-1.914,1.769-1.914c0.658,0,1.058,0.219,1.416,0.529l0.339-0.396
				c-0.465-0.395-0.951-0.619-1.735-0.619c-1.396,0-2.334,1.131-2.334,2.414c0,1.336,0.904,2.4,2.367,2.4
				C259.23,351.815,259.883,351.489,260.314,351.102 M254.456,350.811l-2.934-3.73h-0.492v4.656h0.514v-3.818l3.006,3.818h0.419
				v-4.656h-0.513V350.811z M249.144,351.735h0.525v-4.654h-0.525V351.735z M247.268,350.811l-2.932-3.73h-0.492v4.656h0.512v-3.818
				l3.005,3.818h0.419v-4.656h-0.512V350.811z M241.954,351.735h0.524v-4.654h-0.524V351.735z M240.253,349.415
				c0,1.037-0.752,1.836-1.93,1.836h-1.091v-3.686h1.091C239.501,347.565,240.253,348.377,240.253,349.415 M240.798,349.401
				c0-1.316-1.012-2.32-2.476-2.32h-1.614v4.654h1.614C239.786,351.735,240.798,350.717,240.798,349.401"/>
		</g>
		<g>
			<defs>
				<rect id="SVGID_119_" x="-57.04" y="57.423" width="541.224" height="714.734"/>
			</defs>
			<clipPath id="SVGID_120_">
				<use xlink:href="#SVGID_119_"  overflow="visible"/>
			</clipPath>
			<path clip-path="url(#SVGID_120_)" fill="#231F20" d="M354.566,271.92h-3.346v4.654h0.525v-2.027h2.521v-0.479h-2.521v-1.663
				h2.819L354.566,271.92L354.566,271.92z M350.13,271.92h-3.365v4.654h3.399v-0.479h-2.873v-1.629h2.54v-0.479h-2.54v-1.589h2.839
				V271.92z M345.11,273.331c0,0.604-0.499,0.963-1.196,0.963h-1.431v-1.889h1.437C344.671,272.405,345.11,272.75,345.11,273.331
				 M345.808,276.575l-1.43-1.902c0.731-0.133,1.264-0.584,1.264-1.362c0-0.838-0.658-1.39-1.683-1.39h-2.001v4.654h0.524v-1.81
				h1.329l1.352,1.81H345.808L345.808,276.575z"/>
		</g>
		<g>
			<defs>
				<rect id="SVGID_121_" x="-57.04" y="57.423" width="541.224" height="714.734"/>
			</defs>
			<clipPath id="SVGID_122_">
				<use xlink:href="#SVGID_121_"  overflow="visible"/>
			</clipPath>
			<path clip-path="url(#SVGID_122_)" fill="#231F20" d="M351.113,240.612l-1.329-3.877h-0.571l1.662,4.688h0.438l1.284-3.777
				l1.276,3.777h0.444l1.662-4.688h-0.552l-1.33,3.877l-1.276-3.89h-0.433L351.113,240.612z M348.153,239.069
				c0,1.038-0.752,1.836-1.929,1.836h-1.09v-3.684h1.09C347.401,237.221,348.153,238.032,348.153,239.069 M348.698,239.056
				c0-1.317-1.011-2.321-2.474-2.321h-1.616v4.655h1.616C347.688,241.39,348.698,240.373,348.698,239.056"/>
		</g>
	</g>
</g>
<g id="Layer_3">
</g>
<g id="_x32_03">
</g>
<g id="_x32_06">
</g>
<g>
	<g>
		<defs>
			<rect id="SVGID_123_" x="45.654" y="158.877" width="100.145" height="4.562"/>
		</defs>
		<clipPath id="SVGID_124_">
			<use xlink:href="#SVGID_123_"  overflow="visible"/>
		</clipPath>
		<path clip-path="url(#SVGID_124_)" fill="#231F20" d="M145.796,159.254v-0.301h-3.402v0.301h1.537v4.109h0.328v-4.109H145.796z
			 M140.005,163.363v-0.303h-2.842v-1.771h2.525v-0.303h-2.525v-1.732h2.811v-0.303h-3.139v4.41h3.17V163.363z M134.13,163.363
			v-0.303h-2.84v-1.771h2.525v-0.303h-2.525v-1.732h2.809v-0.303h-3.137v4.41h3.168V163.363z M127.853,160.23
			c0,0.637-0.547,1.01-1.283,1.01h-1.486v-1.986h1.506c0.799,0,1.266,0.373,1.266,0.964v0.012H127.853z M128.345,163.363
			l-1.455-1.885c0.744-0.102,1.291-0.523,1.291-1.26v-0.014c0-0.736-0.623-1.253-1.574-1.253h-1.852v4.41h0.326v-1.826h1.443
			l1.404,1.826h0.416V163.363z M122.105,159.254v-0.301h-3.4v0.301h1.539v4.109h0.326v-4.109H122.105z M116.382,162.223v-0.014
			c0-0.643-0.428-1.008-1.449-1.215c-1.045-0.215-1.285-0.498-1.285-0.965v-0.012c0-0.46,0.43-0.833,1.078-0.833
			c0.484,0,0.9,0.141,1.316,0.5l0.209-0.259c-0.449-0.359-0.871-0.535-1.514-0.535c-0.818,0-1.418,0.504-1.418,1.16v0.012
			c0,0.668,0.43,1.027,1.488,1.242c1.002,0.199,1.246,0.471,1.246,0.938v0.012c0,0.506-0.453,0.877-1.115,0.877
			c-0.648,0-1.096-0.207-1.58-0.654l-0.215,0.244c0.529,0.475,1.07,0.707,1.775,0.707
			C115.771,163.426,116.382,162.934,116.382,162.223 M105.22,163.363v-4.41h-0.312v3.835l-3.043-3.835h-0.311v4.41h0.316v-3.919
			l3.104,3.919H105.22z M98.447,161.172c0,1.088-0.781,1.971-1.871,1.971s-1.885-0.895-1.885-1.984v-0.014
			c0-1.09,0.781-1.97,1.871-1.97s1.883,0.894,1.883,1.984v0.014H98.447z M98.788,161.158c0.006-0.006,0.006-0.006,0-0.014
			c0-1.203-0.877-2.269-2.213-2.269c-1.334,0-2.225,1.078-2.225,2.281v0.014c0,1.203,0.877,2.268,2.213,2.268
			C97.898,163.438,98.788,162.361,98.788,161.158 M92.245,159.254v-0.301h-3.402v0.301h1.538v4.109h0.327v-4.109H92.245z
			 M86.447,162.777v-1.701h-1.789v0.301h1.474v1.268c-0.321,0.271-0.844,0.504-1.405,0.504c-1.178,0-1.89-0.85-1.89-1.99v-0.014
			c0-1.062,0.75-1.97,1.821-1.97c0.668,0,1.07,0.225,1.418,0.529l0.214-0.246c-0.441-0.365-0.896-0.58-1.613-0.58
			c-1.316,0-2.18,1.089-2.18,2.281v0.014c0,1.24,0.825,2.268,2.218,2.268C85.433,163.438,86.049,163.131,86.447,162.777
			 M79.729,163.363v-4.41h-0.314v3.835l-3.043-3.835h-0.309v4.41h0.315v-3.919l3.104,3.919H79.729z M73.054,158.954h-0.328v4.41
			h0.328V158.954z M69.719,163.363v-4.41h-0.327v2.041H66.57v-2.041h-0.327v4.41h0.327v-2.066h2.822v2.066H69.719z M63.511,162.223
			v-0.014c0-0.643-0.428-1.008-1.449-1.215c-1.045-0.215-1.284-0.498-1.284-0.965v-0.012c0-0.46,0.429-0.833,1.076-0.833
			c0.486,0,0.901,0.141,1.317,0.5l0.208-0.259c-0.447-0.359-0.869-0.535-1.512-0.535c-0.819,0-1.417,0.504-1.417,1.16v0.012
			c0,0.668,0.428,1.027,1.485,1.242c1.002,0.199,1.248,0.471,1.248,0.938v0.012c0,0.506-0.454,0.877-1.114,0.877
			c-0.649,0-1.098-0.207-1.582-0.654l-0.215,0.244c0.529,0.475,1.071,0.707,1.777,0.707C62.9,163.426,63.511,162.934,63.511,162.223
			 M57.007,161.832h-2.325l1.166-2.55L57.007,161.832z M58.066,163.363l-2.054-4.441h-0.314l-2.054,4.441h0.341l0.56-1.236h2.602
			l0.562,1.236H58.066z M51.965,158.954h-0.34l-1.386,3.923l-1.292-3.937h-0.252l-1.291,3.937l-1.387-3.923h-0.365l1.601,4.439
			h0.264l1.292-3.83l1.291,3.83h0.266L51.965,158.954z"/>
	</g>
</g>
</svg>
