<svg xmlns="http://www.w3.org/2000/svg" width="513.359" height="495.36" xmlns:xlink="http://www.w3.org/1999/xlink"><g><path fill="#BBBDBF" d="M241.96 133.2h29.25v27.3h-29.24zM180.2 59.1v377.65h26V424.4h-16.9V243.04h4.56v-20.37H190V59.1z"/><path fill="#fff" d="M440.35 170.05h30.7v59.4h-30.7z"/><path fill="none" stroke="#000" stroke-width=".78" d="M440.35 170.05h30.7v59.4h-30.7z"/><defs><path id="a" d="M-57.04 57.42h541.22v714.74H-57.04z"/></defs><clipPath id="b"><use xlink:href="#a" overflow="visible"/></clipPath><circle cx="455.848" cy="183.59" r="1.26" fill="none" stroke="#231F20" stroke-width=".65" clip-path="url(#b)"/><defs><path id="c" d="M-57.04 57.42h541.22v714.74H-57.04z"/></defs><clipPath id="d"><use xlink:href="#c" overflow="visible"/></clipPath><path fill="none" stroke="#000" stroke-width=".65" d="M455.8 226.06c-8.8 0-12.03-2.03-12.03-4.88v-43.4c0-.68.2-2.12 2.03-2.12h20.02c1.83 0 2.02 1.44 2.02 2.13v43.38c0 2.85-3.3 4.88-12.04 4.88z" clip-path="url(#d)"/><defs><path id="e" d="M-57.04 57.42h541.22v714.74H-57.04z"/></defs><clipPath id="f"><use xlink:href="#e" overflow="visible"/></clipPath><path fill="none" stroke="#231F20" stroke-width=".585" d="M461.2 173.45c0 .72-.6 1.3-1.3 1.3-.7 0-1.28-.58-1.28-1.3 0-.7.58-1.3 1.28-1.28.7 0 1.3.58 1.3 1.28zm-8 0c0 .72-.57 1.3-1.3 1.3-.7 0-1.26-.58-1.27-1.3 0-.7.58-1.3 1.28-1.3.73 0 1.3.6 1.3 1.3z" clip-path="url(#f)"/><defs><path id="g" d="M-57.04 57.42h541.22v714.74H-57.04z"/></defs><clipPath id="h"><use xlink:href="#g" overflow="visible"/></clipPath><path fill="#fff" d="M454.1 173.07c0-1.05.73-1.9 1.78-1.9 1.06 0 1.63.85 1.63 1.9l-.66 7.27c0 .72-1.93.72-1.93 0l-.8-7.27z" clip-path="url(#h)"/><defs><path id="i" d="M-57.04 57.42h541.22v714.74H-57.04z"/></defs><clipPath id="j"><use xlink:href="#i" overflow="visible"/></clipPath><path fill="none" stroke="#231F20" stroke-width=".585" d="M454.1 173.07c0-1.05.73-1.9 1.78-1.9 1.06 0 1.63.85 1.63 1.9l-.66 7.27c0 .72-1.93.72-1.93 0l-.8-7.27z" clip-path="url(#j)"/><defs><path id="k" d="M-57.04 57.42h541.22v714.74H-57.04z"/></defs><clipPath id="l"><use xlink:href="#k" overflow="visible"/></clipPath><path fill="none" stroke="#000" stroke-width=".975" d="M201.9 87.94c15.92 0 28.82-12.9 28.82-28.82m-30.48 28.84h1.66V59.13h-1.66v28.83zM432.76 203.4c-15.9 0-28.82 12.9-28.82 28.82m30.48-28.84h-1.66v28.84h1.66v-28.84z" clip-path="url(#l)"/><path fill="none" stroke="#000" stroke-width=".78" d="M386.26 235.25v26.43m0-5.16h3.66l.86-3.16v-9.7l-.86-3.22h-3.66m-16.92 21.25h24.1v-26.26h-24.1v26.25z"/><path fill="#fff" d="M387.84 236.72v2.12l-1.48.46v-3.05z"/><path fill="none" stroke="#231F20" stroke-width=".78" d="M387.84 236.72v2.12l-1.48.46v-3.05z"/><path fill="#fff" d="M327.9 191.22l-.06-25.68-30.22-.06.05 25.68z"/><path fill="none" stroke="#000" stroke-width=".78" d="M327.9 191.22l-.06-25.68-30.22-.06.05 25.68z"/><path fill="none" stroke="#000" stroke-width=".39" d="M297.45 167.77h30.27"/><defs><path id="m" d="M-57.04 57.42h541.22v714.74H-57.04z"/></defs><clipPath id="n"><use xlink:href="#m" overflow="visible"/></clipPath><path fill="#fff" d="M306.5 177.06c2.18-.02 3.92-1.8 3.9-3.96 0-2.18-1.78-3.92-3.95-3.9-2.17 0-3.92 1.8-3.9 3.96 0 2.16 1.8 3.9 3.96 3.9" clip-path="url(#n)"/><defs><path id="o" d="M-57.04 57.42h541.22v714.74H-57.04z"/></defs><clipPath id="p"><use xlink:href="#o" overflow="visible"/></clipPath><path fill="none" stroke="#231F20" stroke-width=".65" d="M306.5 177.06c2.18-.02 3.92-1.8 3.9-3.96 0-2.18-1.78-3.92-3.95-3.9-2.17 0-3.92 1.8-3.9 3.96 0 2.16 1.8 3.9 3.96 3.9z" clip-path="url(#p)"/><defs><path id="q" d="M-57.04 57.42h541.22v714.74H-57.04z"/></defs><clipPath id="r"><use xlink:href="#q" overflow="visible"/></clipPath><path fill="#fff" d="M318.28 176.97c2.17-.02 3.9-1.8 3.9-3.96-.02-2.16-1.8-3.9-3.96-3.9-2.16.03-3.9 1.8-3.9 3.97.02 2.16 1.8 3.92 3.96 3.9" clip-path="url(#r)"/><defs><path id="s" d="M-57.04 57.42h541.22v714.74H-57.04z"/></defs><clipPath id="t"><use xlink:href="#s" overflow="visible"/></clipPath><path fill="none" stroke="#231F20" stroke-width=".65" d="M318.28 176.97c2.17-.02 3.9-1.8 3.9-3.96-.02-2.16-1.8-3.9-3.96-3.9-2.16.03-3.9 1.8-3.9 3.97.02 2.16 1.8 3.92 3.96 3.9z" clip-path="url(#t)"/><defs><path id="u" d="M-57.04 57.42h541.22v714.74H-57.04z"/></defs><clipPath id="v"><use xlink:href="#u" overflow="visible"/></clipPath><path fill="#fff" d="M306.58 187.74c2.18 0 3.92-1.78 3.9-3.95 0-2.18-1.8-3.93-3.95-3.9-2.17 0-3.92 1.77-3.9 3.95 0 2.17 1.8 3.9 3.95 3.9" clip-path="url(#v)"/><defs><path id="w" d="M-57.04 57.42h541.22v714.74H-57.04z"/></defs><clipPath id="x"><use xlink:href="#w" overflow="visible"/></clipPath><path fill="none" stroke="#231F20" stroke-width=".65" d="M306.58 187.74c2.18 0 3.92-1.78 3.9-3.95 0-2.18-1.8-3.93-3.95-3.9-2.17 0-3.92 1.77-3.9 3.95 0 2.17 1.8 3.9 3.95 3.9z" clip-path="url(#x)"/><defs><path id="y" d="M-57.04 57.42h541.22v714.74H-57.04z"/></defs><clipPath id="z"><use xlink:href="#y" overflow="visible"/></clipPath><path fill="#fff" d="M318.36 187.66c2.17-.02 3.9-1.8 3.9-3.95-.02-2.17-1.8-3.9-3.96-3.9-2.16.02-3.9 1.8-3.9 3.96.02 2.17 1.8 3.9 3.96 3.9" clip-path="url(#z)"/><defs><path id="A" d="M-57.04 57.42h541.22v714.74H-57.04z"/></defs><clipPath id="B"><use xlink:href="#A" overflow="visible"/></clipPath><path fill="none" stroke="#231F20" stroke-width=".65" d="M318.36 187.66c2.17-.02 3.9-1.8 3.9-3.95-.02-2.17-1.8-3.9-3.96-3.9-2.16.02-3.9 1.8-3.9 3.96.02 2.17 1.8 3.9 3.96 3.9z" clip-path="url(#B)"/><path fill="#fff" d="M298.67 191.12h28.16v1.2h-28.16z"/><path fill="none" stroke="#231F20" stroke-width=".78" d="M298.67 191.12h28.16v1.2h-28.16zM342.06 438.45h55.25m12.52.02h45.83m-179.56-.08h45.8m-114.15-.07h46.48m88.8-12.63h43.88m-110.08 0h43.55m-112.86-.65h44.2m159.26.65h43.88"/><defs><path id="C" d="M-57.04 57.42h541.22v714.74H-57.04z"/></defs><clipPath id="D"><use xlink:href="#C" overflow="visible"/></clipPath><path fill="#fff" d="M434.46 181.36c0 5.8-3.52 12.18-7.87 12.18s-7.87-6.38-7.87-12.18 3.52-8.83 7.86-8.83 7.86 3.02 7.86 8.83" clip-path="url(#D)"/><defs><path id="E" d="M-57.04 57.42h541.22v714.74H-57.04z"/></defs><clipPath id="F"><use xlink:href="#E" overflow="visible"/></clipPath><path fill="none" stroke="#000" stroke-width=".78" d="M434.46 181.36c0 5.8-3.52 12.18-7.87 12.18s-7.87-6.38-7.87-12.18 3.52-8.83 7.86-8.83 7.86 3.02 7.86 8.83z" clip-path="url(#F)"/><defs><path id="G" d="M-57.04 57.42h541.22v714.74H-57.04z"/></defs><clipPath id="H"><use xlink:href="#G" overflow="visible"/></clipPath><path fill="#fff" d="M421.88 174.44c0 .32-.26.6-.6.6h-2.74c-.33 0-.6-.28-.6-.6v-.1c0-.33.27-.6.6-.6h2.75c.32 0 .58.27.58.6v.1z" clip-path="url(#H)"/><defs><path id="I" d="M-57.04 57.42h541.22v714.74H-57.04z"/></defs><clipPath id="J"><use xlink:href="#I" overflow="visible"/></clipPath><path fill="none" stroke="#231F20" stroke-width=".78" d="M421.88 174.44c0 .32-.26.6-.6.6h-2.74c-.33 0-.6-.28-.6-.6v-.1c0-.33.27-.6.6-.6h2.75c.32 0 .58.27.58.6v.1z" clip-path="url(#J)"/><defs><path id="K" d="M-57.04 57.42h541.22v714.74H-57.04z"/></defs><clipPath id="L"><use xlink:href="#K" overflow="visible"/></clipPath><path fill="#fff" d="M417.53 173.73c-.98 0-1.8-2.67-1.8-3.66 0-1 .82-3.66 1.8-3.66h17.97c1 0 1.8 2.68 1.8 3.67 0 1-.8 3.66-1.8 3.66h-17.97z" clip-path="url(#L)"/><defs><path id="M" d="M-57.04 57.42h541.22v714.74H-57.04z"/></defs><clipPath id="N"><use xlink:href="#M" overflow="visible"/></clipPath><path fill="none" stroke="#000" stroke-width=".78" d="M417.53 173.73c-.98 0-1.8-2.67-1.8-3.66 0-1 .82-3.66 1.8-3.66h17.97c1 0 1.8 2.68 1.8 3.67 0 1-.8 3.66-1.8 3.66h-17.97z" clip-path="url(#N)"/><defs><path id="O" d="M-57.04 57.42h541.22v714.74H-57.04z"/></defs><clipPath id="P"><use xlink:href="#O" overflow="visible"/></clipPath><path fill="#fff" d="M432.38 181.6c0 4.26-2.6 8.96-5.8 8.96s-5.77-4.7-5.77-8.96c0-4.26 2.6-6.48 5.8-6.48s5.78 2.22 5.78 6.48" clip-path="url(#P)"/><defs><path id="Q" d="M-57.04 57.42h541.22v714.74H-57.04z"/></defs><clipPath id="R"><use xlink:href="#Q" overflow="visible"/></clipPath><path fill="none" stroke="#000" stroke-width=".65" d="M432.38 181.6c0 4.26-2.6 8.96-5.8 8.96s-5.77-4.7-5.77-8.96c0-4.26 2.6-6.48 5.8-6.48s5.78 2.22 5.78 6.48z" clip-path="url(#R)"/><path fill="none" stroke="#231F20" stroke-width=".78" d="M365.03 165.34v24.05l41.6-.88V162.3"/><path fill="none" stroke="#000" stroke-width=".975" d="M456.24 233.73v60.67"/><path fill="none" stroke="#000" stroke-width=".975" stroke-dashoffset="4" d="M458.4 293.32v-62.4" stroke-dasharray="2.013,2.013,2.013,2.013,2.013,2.013"/><path fill="none" stroke="#000" stroke-width=".975" d="M382.8 268.2v25.55"/><path fill="none" stroke="#000" stroke-width=".975" stroke-dashoffset="3" d="M380.2 268.62v25.13" stroke-dasharray="1.933,1.933,1.933,1.933,1.933,1.933"/><path fill="none" stroke="#000" stroke-width=".78" d="M329.06 163.97v25.35h9.97v64.9h25.35"/><defs><path id="S" d="M-57.04 57.42h541.22v714.74H-57.04z"/></defs><clipPath id="T"><use xlink:href="#S" overflow="visible"/></clipPath><circle cx="386.826" cy="176.782" r="1.189" fill="none" stroke="#000" stroke-width=".52" clip-path="url(#T)"/><defs><path id="U" d="M-57.04 57.42h541.22v714.74H-57.04z"/></defs><clipPath id="V"><use xlink:href="#U" overflow="visible"/></clipPath><path fill="none" stroke="#000" stroke-width=".65" d="M386.83 166.95c.63 0 1.15.52 1.15 1.15s-.52 1.16-1.15 1.16c-.64 0-1.16-.52-1.16-1.16s.52-1.15 1.16-1.15zm.53 7.2h-1.06v-4.72h1.06v4.72zm4.66-4.83h-10.4v-2.48h10.4v2.48z" clip-path="url(#V)"/><path fill="none" stroke="#000" stroke-width=".78" d="M376.3 166.46h21.06v19.07H376.3z"/><path fill="none" stroke="#000" stroke-width=".585" d="M377.93 169.38h17.75v14.52h-17.75z"/><path fill="none" stroke="#000" stroke-width=".65" d="M334.52 255.75v35.75"/><path fill="none" stroke="#000" stroke-width=".78" d="M330.94 268.46h1.46v2.76h-1.46zM332.42 255.97h30.07v35.24H332.4zM330.94 277.15h1.46v2.76h-1.46z"/><defs><path id="W" d="M-57.04 57.42h541.22v714.74H-57.04z"/></defs><clipPath id="X"><use xlink:href="#W" overflow="visible"/></clipPath><path fill="#fff" d="M359.48 198.34c1 0 1.84.83 1.84 1.84v22.4c0 1.02-.83 1.84-1.84 1.84h-15.76c-1.02 0-1.84-.82-1.84-1.83v-22.42c0-1 .82-1.84 1.84-1.84h15.76z" clip-path="url(#X)"/><defs><path id="Y" d="M-57.04 57.42h541.22v714.74H-57.04z"/></defs><clipPath id="Z"><use xlink:href="#Y" overflow="visible"/></clipPath><path fill="none" stroke="#231F20" stroke-width=".78" d="M359.48 198.34c1 0 1.84.83 1.84 1.84v22.4c0 1.02-.83 1.84-1.84 1.84h-15.76c-1.02 0-1.84-.82-1.84-1.83v-22.42c0-1 .82-1.84 1.84-1.84h15.76z" clip-path="url(#Z)"/><defs><path id="aa" d="M-57.04 57.42h541.22v714.74H-57.04z"/></defs><clipPath id="ab"><use xlink:href="#aa" overflow="visible"/></clipPath><path fill="#fff" d="M357 220.63c0 1.03-.83 1.88-1.84 1.88h-9.47c-1.02 0-1.86-.84-1.86-1.87V202.2c0-1.04.84-1.9 1.85-1.9h9.46c1 0 1.85.86 1.85 1.9v18.43z" clip-path="url(#ab)"/><defs><path id="ac" d="M-57.04 57.42h541.22v714.74H-57.04z"/></defs><clipPath id="ad"><use xlink:href="#ac" overflow="visible"/></clipPath><path fill="none" stroke="#231F20" stroke-width=".585" d="M357 220.63c0 1.03-.83 1.88-1.84 1.88h-9.47c-1.02 0-1.86-.84-1.86-1.87V202.2c0-1.04.84-1.9 1.85-1.9h9.46c1 0 1.85.86 1.85 1.9v18.43z" clip-path="url(#ad)"/><defs><path id="ae" d="M-57.04 57.42h541.22v714.74H-57.04z"/></defs><clipPath id="af"><use xlink:href="#ae" overflow="visible"/></clipPath><path fill="#fff" d="M350.2 209.82c.78 0 1.4.62 1.4 1.4 0 .75-.63 1.37-1.4 1.37-.75 0-1.38-.62-1.38-1.4 0-.76.63-1.38 1.4-1.38" clip-path="url(#af)"/><defs><path id="ag" d="M-57.04 57.42h541.22v714.74H-57.04z"/></defs><clipPath id="ah"><use xlink:href="#ag" overflow="visible"/></clipPath><path fill="none" stroke="#231F20" stroke-width=".52" d="M350.2 209.82c.78 0 1.4.62 1.4 1.4 0 .75-.63 1.37-1.4 1.37-.75 0-1.38-.62-1.38-1.4 0-.76.63-1.38 1.4-1.38z" clip-path="url(#ah)"/><defs><path id="ai" d="M-57.04 57.42h541.22v714.74H-57.04z"/></defs><clipPath id="aj"><use xlink:href="#ai" overflow="visible"/></clipPath><path fill="#fff" d="M359.2 206.23c.75 0 1.44.6 1.44 1.34v7.3c0 .75-.7 1.35-1.43 1.35s-1.4-.6-1.4-1.34v-7.3c0-.75.67-1.35 1.4-1.35" clip-path="url(#aj)"/><defs><path id="ak" d="M-57.04 57.42h541.22v714.74H-57.04z"/></defs><clipPath id="al"><use xlink:href="#ak" overflow="visible"/></clipPath><path fill="none" stroke="#231F20" stroke-width=".52" d="M359.2 206.23c.75 0 1.44.6 1.44 1.34v7.3c0 .75-.7 1.35-1.43 1.35s-1.4-.6-1.4-1.34v-7.3c0-.75.67-1.35 1.4-1.35z" clip-path="url(#al)"/><defs><path id="am" d="M-57.04 57.42h541.22v714.74H-57.04z"/></defs><clipPath id="an"><use xlink:href="#am" overflow="visible"/></clipPath><path fill="#fff" d="M351.44 205.74l6.8 6.28c.4.34 1 .3 1.36-.1.36-.38.32-1-.08-1.34l-7.06-6c-.33-.27-1.34.88-1.02 1.16" clip-path="url(#an)"/><defs><path id="ao" d="M-57.04 57.42h541.22v714.74H-57.04z"/></defs><clipPath id="ap"><use xlink:href="#ao" overflow="visible"/></clipPath><path fill="none" stroke="#231F20" stroke-width=".65" d="M351.44 205.74l6.8 6.28c.4.34 1 .3 1.36-.1.36-.38.32-1-.08-1.34l-7.06-6c-.33-.27-1.34.88-1.02 1.16z" clip-path="url(#ap)"/><defs><path id="aq" d="M-57.04 57.42h541.22v714.74H-57.04z"/></defs><clipPath id="ar"><use xlink:href="#aq" overflow="visible"/></clipPath><path fill="#fff" d="M355.85 212.02h3.3c.34 0 .63-.3.63-.65 0-.35-.3-.63-.64-.63h-3.3c-.35 0-.64.28-.64.64 0 .35.3.64.65.64" clip-path="url(#ar)"/><defs><path id="as" d="M-57.04 57.42h541.22v714.74H-57.04z"/></defs><clipPath id="at"><use xlink:href="#as" overflow="visible"/></clipPath><path fill="none" stroke="#231F20" stroke-width=".52" d="M355.85 212.02h3.3c.34 0 .63-.3.63-.65 0-.35-.3-.63-.64-.63h-3.3c-.35 0-.64.28-.64.64 0 .35.3.64.65.64z" clip-path="url(#at)"/><defs><path id="au" d="M-57.04 57.42h541.22v714.74H-57.04z"/></defs><clipPath id="av"><use xlink:href="#au" overflow="visible"/></clipPath><path fill="#fff" d="M359.1 213.4c.4 0 .76.35.76.77 0 .43-.35.77-.77.77-.43 0-.77-.34-.77-.77 0-.42.34-.77.76-.77" clip-path="url(#av)"/><defs><path id="aw" d="M-57.04 57.42h541.22v714.74H-57.04z"/></defs><clipPath id="ax"><use xlink:href="#aw" overflow="visible"/></clipPath><path fill="none" stroke="#231F20" stroke-width=".455" d="M359.1 213.4c.4 0 .76.35.76.77 0 .43-.35.77-.77.77-.43 0-.77-.34-.77-.77 0-.42.34-.77.76-.77z" clip-path="url(#ax)"/><defs><path id="ay" d="M-57.04 57.42h541.22v714.74H-57.04z"/></defs><clipPath id="az"><use xlink:href="#ay" overflow="visible"/></clipPath><path fill="#fff" d="M359.16 207.5c.42 0 .77.35.77.77 0 .43-.35.77-.77.77-.42 0-.77-.34-.77-.77 0-.42.34-.77.76-.77" clip-path="url(#az)"/><defs><path id="aA" d="M-57.04 57.42h541.22v714.74H-57.04z"/></defs><clipPath id="aB"><use xlink:href="#aA" overflow="visible"/></clipPath><path fill="none" stroke="#231F20" stroke-width=".455" d="M359.16 207.5c.42 0 .77.35.77.77 0 .43-.35.77-.77.77-.42 0-.77-.34-.77-.77 0-.42.34-.77.76-.77z" clip-path="url(#aB)"/><path fill="none" stroke="#000" stroke-width=".65" stroke-dashoffset="3" d="M341.42 249.82h18.4" stroke-dasharray="1.936,1.936,1.936,1.936,1.936,1.936"/><path fill="none" stroke="#000" stroke-width=".65" stroke-dashoffset="3" d="M361.75 246.97v-18.03" stroke-dasharray="1.899,1.899,1.899,1.899,1.899,1.899"/><path fill="none" stroke="#000" stroke-width=".65" stroke-dashoffset="3" d="M358.9 227.04h-17.97" stroke-dasharray="1.892,1.892,1.892,1.892,1.892,1.892"/><path fill="none" stroke="#000" stroke-width=".65" d="M339.98 227.04h-.94m22.7.95v-.96h-.94m-.02 22.78h.97v-.95m-23.23.95h.97M339.04 227h-2.47v22.82h1.94"/><path fill="#BBBDBF" d="M482.23 162.02v274.82h-25.8v-12.8h14.55V295.22l2.3.06v-127.3h-31.3v-4"/><defs><path id="aC" d="M-57.04 57.42h541.22v714.74H-57.04z"/></defs><clipPath id="aD"><use xlink:href="#aC" overflow="visible"/></clipPath><path fill="none" stroke="#231F20" stroke-width="3.9" d="M482.23 162.02v274.82h-25.8v-12.8h14.55V295.22l2.3.06v-127.3h-31.3v-4" clip-path="url(#aD)"/><path fill="none" stroke="#231F20" stroke-width="3.9" d="M455.16 431.55h-44.42m-16.46 0h-50.92m-22.75 0h-45m-23.67 0H208.5"/><path fill="none" stroke="#231F20" stroke-width="5.2" d="M473.17 294.73h-37.5m-36.74 0h-58.5v75.72"/><path fill="none" stroke="#231F20" stroke-width="6.5" d="M340.84 409.88v15.17"/><defs><path id="aE" d="M-57.04 57.42h541.22v714.74H-57.04z"/></defs><clipPath id="aF"><use xlink:href="#aE" overflow="visible"/></clipPath><path fill="none" stroke="#231F20" stroke-width="3.9" d="M270.98 162.88l-.06-103.27h-40.95m-29.55 0h-20.25l-.02 377.13h26.53v-12.4h-17.3l-.02-181.26h4.28l.02-20.83h-4.28V60.18" clip-path="url(#aF)"/><path fill="none" stroke="#231F20" stroke-width="5.2" d="M270.56 132.88h-29.92v69.22h11.4m29.57 0h12.7l-.04-38.02"/><path fill="#BBBDBF" d="M387.65 423.2v13.64h21.54v-13.6z"/><path fill="none" stroke="#231F20" stroke-width="3.9" d="M387.65 423.2v13.64h21.54v-13.6z"/><path fill="#BBBDBF" d="M322.04 423.2v13.64h20.13v-13.6z"/><path fill="none" stroke="#231F20" stroke-width="3.9" d="M322.04 423.2v13.64h20.13v-13.6z"/><path fill="#BBBDBF" d="M253.36 423.2v13.6H275v-13.56z"/><path fill="none" stroke="#231F20" stroke-width="3.9" d="M253.36 423.2v13.6H275v-13.56z"/><defs><path id="aG" d="M-57.04 57.42h541.22v714.74H-57.04z"/></defs><clipPath id="aH"><use xlink:href="#aG" overflow="visible"/></clipPath><path fill="none" stroke="#231F20" stroke-width="5.2" d="M472.06 231.68h-37.7m-30.26 0h-37.02m-1.3-66.96v131.3m118.3-133.9H240.33" clip-path="url(#aH)"/><path fill="none" stroke="#231F20" stroke-width="6.5" d="M398.94 265.75h-33.48"/><path fill="none" stroke="#231F20" stroke-width=".78" d="M242.4 200.8h47.12v1.95H242.4v-1.95zm95.18 190.56h-1.95v-47.13h1.95v47.13z"/><defs><path id="aI" d="M-57.04 57.42h541.22v714.74H-57.04z"/></defs><clipPath id="aJ"><use xlink:href="#aI" overflow="visible"/></clipPath><path fill="none" stroke="#231F20" stroke-width="3.9" stroke-dashoffset="8" d="M191.74 59.53V220.9" clip-path="url(#aJ)" stroke-dasharray="6.307,2.307,6.307,2.307,6.307,2.307"/><path fill="#fff" d="M230 429.92h18.57v3.16H230z"/><path fill="none" stroke="#000" stroke-width=".78" d="M230 429.92h18.57v3.16H230zM230 431.57h18.46"/><path fill="#fff" d="M210.87 429.92h19.07v3.16h-19.07z"/><path fill="none" stroke="#000" stroke-width=".78" d="M210.87 429.92h19.07v3.16h-19.07zM210.87 431.57h19.07"/><path fill="#fff" d="M299.02 429.93h18.58v3.16h-18.58z"/><path fill="none" stroke="#000" stroke-width=".78" d="M299.02 429.93h18.58v3.16h-18.58zM299.02 431.58h18.47"/><path fill="#fff" d="M279.9 429.93h19.07v3.16H279.9z"/><path fill="none" stroke="#000" stroke-width=".78" d="M279.9 429.93h19.07v3.16H279.9zM279.9 431.58h19.06"/><path fill="#fff" d="M365.5 429.93h18.6v3.16h-18.6z"/><path fill="none" stroke="#000" stroke-width=".78" d="M365.5 429.93h18.6v3.16h-18.6zM365.5 431.58H384"/><path fill="#fff" d="M346.4 429.93h19.06v3.16H346.4z"/><path fill="none" stroke="#000" stroke-width=".78" d="M346.4 429.93h19.06v3.16H346.4zM346.4 431.58h19.06"/><path fill="#fff" d="M433.38 429.9h18.58v3.17h-18.58z"/><path fill="none" stroke="#000" stroke-width=".78" d="M433.38 429.9h18.58v3.17h-18.58zM433.38 431.56h18.47"/><path fill="#fff" d="M414.26 429.9h19.07v3.17h-19.07z"/><path fill="none" stroke="#000" stroke-width=".78" d="M414.26 429.9h19.07v3.17h-19.07zM414.26 431.56h19.07"/><defs><path id="aK" d="M-57.04 57.42h541.22v714.74H-57.04z"/></defs><clipPath id="aL"><use xlink:href="#aK" overflow="visible"/></clipPath><path fill="#231F20" d="M422.53 364.44h-.46l-.48 1.54h.28l.65-1.54zm-.94 0h-.48l-.47 1.54h.3l.64-1.54zm-2.2 2.95c0 .42-.4.78-1.1.78s-1.1-.36-1.1-.8c0-.46.5-.8 1.1-.8.63 0 1.1.34 1.1.8m-.13-1.96c0 .46-.42.78-.96.78-.52 0-.95-.32-.95-.78 0-.42.42-.73.96-.73s.97.3.97.72m.62 1.98c0-.5-.37-.85-.87-1.04.4-.18.72-.48.72-.97 0-.66-.67-1.12-1.44-1.12-.75 0-1.42.46-1.42 1.1 0 .5.33.8.72.98-.5.2-.86.54-.86 1.04 0 .7.68 1.2 1.57 1.2.9 0 1.6-.48 1.6-1.2m-4.44-2.96H415l-.48 1.54h.3l.64-1.54zm-2.4 1.2c0 .5-.4.96-1.05.96-.6 0-1.02-.4-1.02-.93 0-.52.37-1 1-1s1.07.43 1.07.97m.58.7c0-.86-.2-1.3-.52-1.64-.27-.27-.62-.44-1.1-.44-.9 0-1.5.63-1.5 1.44 0 .76.6 1.3 1.45 1.3.6 0 .96-.3 1.2-.66 0 1.07-.5 1.84-1.26 1.84-.38 0-.7-.15-1.04-.45l-.27.36c.34.3.74.5 1.28.5 1.04 0 1.75-.93 1.75-2.27m-6.23 1.7l-1.13-1.5 1.08-1.44h-.38l-.9 1.2-.9-1.2h-.4l1.1 1.43-1.13 1.5h.38l.94-1.26.94 1.26h.4zm-5.13-3.6h-.47l-.47 1.55h.3l.64-1.54zm-.95 0h-.47l-.47 1.55h.3l.64-1.54zm-4.55.34h2.3l-1.88 3.77h.5l1.92-3.85v-.36h-2.85v.43zm-1.37-.33h-.47l-.47 1.54h.3l.64-1.54zm-2.33 2c0 .93-.5 1.73-1.27 1.73s-1.3-.8-1.3-1.74c0-.93.5-1.73 1.28-1.73.8 0 1.3.82 1.3 1.74m.48 0c0-1.2-.68-2.18-1.76-2.18-1.1 0-1.8 1-1.8 2.18 0 1.2.7 2.17 1.8 2.17 1.06 0 1.76-1 1.76-2.17m-6.4-1.77l.1.38.8-.24v3.74h.46v-4.23h-.35l-1.02.36z" clip-path="url(#aL)"/><defs><path id="aM" d="M-57.04 57.42h541.22v714.74H-57.04z"/></defs><clipPath id="aN"><use xlink:href="#aM" overflow="visible"/></clipPath><path fill="#231F20" d="M422.14 356.74v3.77h.52v-4.64h-.53l-1.7 2.53-1.7-2.54h-.52v4.65h.52v-3.75l1.7 2.48h.02l1.7-2.5zm-5.6 1.45c0 1.05-.75 1.9-1.8 1.9-1.08 0-1.85-.86-1.85-1.92s.75-1.92 1.8-1.92c1.08 0 1.85.87 1.85 1.93m.55-.02c0-1.3-.96-2.4-2.37-2.4-1.42 0-2.38 1.12-2.38 2.4 0 1.3.95 2.4 2.36 2.4 1.43 0 2.4-1.1 2.4-2.4m-6.2 0c0 1.07-.76 1.92-1.82 1.92-1.07 0-1.84-.86-1.84-1.92s.76-1.92 1.82-1.92c1.07 0 1.84.87 1.84 1.93m.54-.02c0-1.3-.95-2.4-2.36-2.4-1.42 0-2.4 1.12-2.4 2.4 0 1.3.97 2.4 2.38 2.4 1.42 0 2.38-1.1 2.38-2.4m-6.2-.9c0 .6-.5.95-1.2.95h-1.42v-1.9h1.44c.75 0 1.18.36 1.18.94m.7 3.24l-1.43-1.9c.74-.13 1.28-.58 1.28-1.35 0-.84-.66-1.4-1.68-1.4h-2v4.66h.52v-1.8h1.33l1.35 1.8h.64zm-5.5-2.3c0 1.03-.75 1.83-1.93 1.83h-1.08v-3.7h1.1c1.17 0 1.92.82 1.92 1.86m.54-.02c0-1.32-1-2.32-2.47-2.32h-1.6v4.65h1.6c1.47 0 2.48-1 2.48-2.32m-5.18-2.32h-3.36v4.65h3.4v-.47h-2.88v-1.63h2.54v-.48h-2.54v-1.6h2.84v-.46zm-6.08 4.18h-1.56v-1.65h1.47c.8 0 1.23.3 1.23.8 0 .53-.44.84-1.14.84m-.2-2.1h-1.37v-1.6h1.42c.67 0 1.03.3 1.03.75 0 .54-.44.83-1.07.83m.1-2.07h-2v4.65h2.07c1.02 0 1.7-.46 1.7-1.27 0-.64-.45-.96-1-1.13.36-.16.73-.47.73-1.08 0-.7-.6-1.16-1.5-1.16" clip-path="url(#aN)"/><path fill="#fff" d="M79.28 59.16h33.15v44.2H79.28zM112.43 59.16h33.15v44.2h-33.15zM145.58 111v-7.64h-24.65V111h-8.5v41.66h33.15zM79.28 111h-20.4v17H46.13v25.5h33.15z"/><path fill="#BBBDBF" d="M78.43 110.16v42.5h34v-30.6H89.48V111z"/><path fill="#fff" d="M46.13 58.3h32.3v45.06h-13.6v-6.8h-4.25v-10.2H46.13z"/><defs><path id="aO" d="M-57.04 57.42h541.22v714.74H-57.04z"/></defs><clipPath id="aP"><use xlink:href="#aO" overflow="visible"/></clipPath><path fill="none" stroke="#000" stroke-width=".425" d="M56.38 105.15c0 1.8 1.46 3.25 3.25 3.25m-3.25-3.25h3.25v-.18h-3.25v.18z" clip-path="url(#aP)"/><path fill="none" stroke="#000" stroke-width=".452" d="M50 116.6h8.95m-12.2 1.2h12.2M46.72 119h12.2m-12.16 1.2H59m-12.2 1.2H59m-12.2 1.2H59m-12.18 1.25H59"/><path fill="none" stroke="#000" stroke-width=".425" d="M46.5 109.85h6.37m-6.38 1.2h6.37m-6.38 1.2h6.37m-6.38 1.2h6.37m-6.38 1.2h6.3m-6.43 1.2h5.48m-5.12.94h3.55"/><path fill="none" stroke="#000" stroke-width="1.18" d="M46.5 108.7h6.37"/><path fill="none" stroke="#000" stroke-width=".425" d="M47 119.36l3.68-2.7-.2-.55.93.9-.25-.66 1.77-1.06"/><path fill="none" stroke="#000" stroke-width=".452" d="M52.5 115.4h6.75"/><path fill="#fff" d="M53.24 124.11h.6V108.8h-.6v15.33zm-.3-15.72h1.18v16.13h-1.17V108.4z"/><path fill="none" stroke="#262626" stroke-width=".495" d="M53.24 124.11h.6V108.8h-.6v15.33zm-.3-15.72h1.18v16.13h-1.17V108.4z"/><defs><path id="aQ" d="M-57.04 57.42h541.22v714.74H-57.04z"/></defs><clipPath id="aR"><use xlink:href="#aQ" overflow="visible"/></clipPath><path fill="none" stroke="#262626" stroke-width="2.065" stroke-miterlimit="10" d="M146 153.3H45.7V58.47H146z" clip-path="url(#aR)"/><defs><path id="aS" d="M-57.04 57.42h541.22v714.74H-57.04z"/></defs><clipPath id="aT"><use xlink:href="#aS" overflow="visible"/></clipPath><path fill="none" stroke="#262626" stroke-width="1.18" stroke-miterlimit="10" d="M59.13 110.67h61.8v-7.37M49.4 96.22h11.35M49.1 104.2h10.03v.87m0 3.25v19.76H46.6m-.75-23.75h3.4V86.2H60.9v10.6h3.98v6.94h47.8l.05-.88h8.06l-.08-.15h25.74m-67.42 50.9v-43.27m33.5 43.27v-43.27m0-7.33V59.12M78.88 103V59.12" clip-path="url(#aT)"/><defs><path id="aU" d="M-57.04 57.42h541.22v714.74H-57.04z"/></defs><clipPath id="aV"><use xlink:href="#aU" overflow="visible"/></clipPath><path fill="none" stroke="#000" stroke-width=".425" d="M103 111.06v5m-1.2-5v5m-1.2-5v5m-1.2-5v4.9m-1.2-4.9v4.9m-1.2-4.9v4.9m-1.22-4.9v1.66m15.34 1.13c-1.8 0-3.27-1.47-3.27-3.27m3.46 3.27h-.17v-3.27h.18v3.27zm-33.42-.08c-1.8 0-3.27-1.46-3.27-3.27m3.47 3.27h-.2v-3.27h.2v3.27zm35.93.07c1.8 0 3.26-1.46 3.26-3.26m-3.45 3.27h.2v-3.27h-.2v3.27zm-32.7-.08c1.82 0 3.3-1.46 3.3-3.27m-3.47 3.27h.18v-3.27h-.17v3.27zm33.68-14.65c1.82 0 3.28 1.47 3.28 3.27m-3.45-3.28h.18v3.27h-.17V99.1zm-18.9 1.55c-1.8 0-3.27 1.46-3.27 3.27m3.45-3.27h-.17v3.27h.18v-3.27zM68.1 103c0-1.8-1.47-3.26-3.28-3.26m3.28 3.27H64.8v.2h3.28v-.2z" clip-path="url(#aV)"/><path fill="none" stroke="#000" stroke-width="1.18" d="M104.22 111.06v5"/><path fill="none" stroke="#000" stroke-width=".425" d="M95.02 110.52l.94 2.9.6-.05-1.1.7.7-.1.6 2.13"/><path fill="#fff" d="M93.2 116.8h11.36v-.58H93.2v.6zm11.66.3H92.9v-1.17h11.95v1.18z"/><path fill="none" stroke="#262626" stroke-width=".425" d="M93.2 116.8h11.36v-.58H93.2v.6zm11.66.3H92.9v-1.17h11.95v1.18z"/><path fill="none" stroke="#000" stroke-width=".425" d="M95.68 114.06V116m-1.2-4.92V116m-1.2-4.92V116m2.35 1.16v4.92m-1.2-4.92v4.92m-1.2-4.92v4.92m11.08-4.94v5m-1.2-5v5m-1.2-5v5m-1.33-5v5m-1.2-5v4.9m-1.2-4.9v4.9m-1.2-4.9v4.9"/><path fill="none" stroke="#262626" stroke-width="1.18" stroke-miterlimit="10" d="M89.07 110.67v11.36h23.6"/><path d="M57.05 89.2h-3.37v1.56h2.98v.93h-2.98v1.6h3.4v.93h-4.44v-5.95h4.4v.93z"/><defs><path id="aW" d="M-57.04 57.42h541.22v714.74H-57.04z"/></defs><clipPath><use xlink:href="#aW" overflow="visible"/></clipPath><defs><path id="aX" d="M-57.04 57.42h541.22v714.74H-57.04z"/></defs><clipPath id="aY"><use xlink:href="#aX" overflow="visible"/></clipPath><path fill="#231F20" d="M299.42 242.33l-2.94-3.73h-.5v4.66h.53v-3.82l3 3.8h.43v-4.64h-.5v3.73zm-4.52-3.73h-3.36v4.66h3.4v-.48h-2.88v-1.63h2.54v-.48h-2.54v-1.6h2.84v-.47zm-5.2 2.56v2.1h.52v-4.66h-.53v2.07H287v-2.07h-.52v4.66h.53v-2.1h2.7zm-4.13 1.36l-.35-.34c-.45.42-.87.67-1.5.67-1.03 0-1.8-.85-1.8-1.93s.76-1.9 1.8-1.9c.63 0 1.07.25 1.46.62l.36-.38c-.47-.44-.97-.74-1.82-.74-1.37 0-2.35 1.08-2.35 2.4 0 1.36 1 2.42 2.33 2.42.85 0 1.38-.33 1.87-.82m-6.22-3.43h1.56v-.5h-3.64v.5h1.56v4.15h.53v-4.16zm-3.65 4.16h.52v-4.66h-.52v4.66zm-2.95-2.63l2-2.03h-.68l-2.68 2.78v-2.78h-.53v4.66h.52V242l1-1 1.77 2.26h.66l-2.08-2.63z" clip-path="url(#aY)"/><defs><path id="aZ" d="M-57.04 57.42h541.22v714.74H-57.04z"/></defs><clipPath id="ba"><use xlink:href="#aZ" overflow="visible"/></clipPath><path fill="#231F20" d="M466.4 275.37v1.56h.5v-3.65h-.5v1.56h-4.15v.53h4.16zm.5-2.85v-3.37h-4.65v3.4h.48v-2.87h1.62v2.54h.48v-2.54h1.6v2.84h.47zm-1.16-7.22c.42 0 .76.4.76 1 0 .47-.16.9-.5 1.34l.4.3c.37-.47.57-.95.57-1.63 0-.88-.54-1.52-1.28-1.52-.78 0-1.13.5-1.36 1.56-.2.98-.45 1.2-.9 1.2-.47 0-.8-.4-.8-1.03s.23-1.1.67-1.58l-.38-.33c-.5.55-.74 1.16-.74 1.9 0 .92.52 1.58 1.32 1.58.72 0 1.1-.47 1.32-1.5.23-1.04.47-1.28.92-1.28m-1.17-2.03c-1.07 0-1.92-.75-1.92-1.82 0-1.06.87-1.83 1.93-1.83s1.92.76 1.92 1.82-.87 1.83-1.93 1.83m0 .55c1.3 0 2.4-.95 2.4-2.37s-1.12-2.38-2.4-2.38c-1.3 0-2.4.95-2.4 2.37 0 1.42 1.12 2.38 2.4 2.38m-2.32-8.4v3.16h.48v-2.62h4.17v-.53h-4.65zm.73-.9l.34-.36c-.42-.44-.67-.86-.67-1.5 0-1.02.85-1.8 1.93-1.8s1.92.77 1.92 1.8c0 .63-.27 1.07-.64 1.46l.38.36c.44-.46.74-.97.74-1.8 0-1.38-1.08-2.37-2.4-2.37-1.36 0-2.4 1-2.4 2.35 0 .84.3 1.38.8 1.86" clip-path="url(#ba)"/><defs><path id="bb" d="M-57.04 57.42h541.22v714.74H-57.04z"/></defs><clipPath id="bc"><use xlink:href="#bb" overflow="visible"/></clipPath><path fill="#231F20" d="M388.9 271.85v-1.15h-.35v2.7h.35v-1.16h3.08v-.4h-3.08zm-.35 2.1v2.48h3.43v-2.5h-.36v2.1h-1.2v-1.86h-.35v1.87h-1.17v-2.1h-.35zm.85 5.32c-.3 0-.56-.3-.56-.73 0-.36.12-.67.38-1l-.3-.22c-.28.35-.42.7-.42 1.2 0 .66.4 1.13.94 1.13.56 0 .82-.36 1-1.15.14-.72.32-.9.65-.9.34 0 .57.32.57.78 0 .47-.16.82-.48 1.17l.27.24c.37-.42.55-.86.55-1.4 0-.7-.38-1.18-.97-1.18-.53 0-.8.36-.98 1.12-.16.75-.34.93-.67.93m.87 1.5c.78 0 1.4.55 1.4 1.34s-.63 1.36-1.4 1.36-1.42-.56-1.42-1.34c0-.8.63-1.36 1.42-1.36m0-.4c-.97 0-1.78.7-1.78 1.75s.8 1.76 1.76 1.76c.95 0 1.77-.7 1.77-1.74 0-1.05-.82-1.76-1.77-1.76m1.72 6.2v-2.33h-.36v1.93h-3.07v.4h3.43zm-.55.66l-.25.26c.32.32.5.63.5 1.1 0 .76-.62 1.33-1.42 1.33s-1.4-.56-1.4-1.32c0-.46.18-.8.46-1.08l-.3-.26c-.3.34-.53.71-.53 1.34 0 1 .8 1.73 1.77 1.73 1 0 1.77-.72 1.77-1.7 0-.63-.25-1.02-.6-1.38" clip-path="url(#bc)"/><defs><path id="bd" d="M-57.04 57.42h541.22v714.74H-57.04z"/></defs><clipPath id="be"><use xlink:href="#bd" overflow="visible"/></clipPath><path fill="#231F20" d="M397.68 208.83v2.1h.52v-4.66h-.52v2.07h-2.7v-2.07h-.5v4.66h.5v-2.1h2.7zm-5.76-2.08h1.56v-.48h-3.66v.48h1.57v4.17h.52v-4.16zm-3.4 2.47h-2.12l1.06-2.37 1.06 2.37zm-.8-2.98h-.5l-2.12 4.68h.54l.56-1.23h2.53l.54 1.23h.57l-2.12-4.7zm-4.94 4.2h-1.56v-1.63h1.47c.8 0 1.23.3 1.23.82s-.44.83-1.15.83m-.18-2.1h-1.38v-1.6h1.42c.66 0 1.03.3 1.03.76 0 .56-.44.85-1.07.85m.08-2.08h-1.98v4.66h2.07c1.02 0 1.7-.48 1.7-1.28 0-.65-.46-.97-1-1.13.36-.16.73-.47.73-1.1 0-.7-.6-1.15-1.52-1.15" clip-path="url(#be)"/><defs><path id="bf" d="M-57.04 57.42h541.22v714.74H-57.04z"/></defs><clipPath id="bg"><use xlink:href="#bf" overflow="visible"/></clipPath><path fill="#231F20" d="M278.4 184.78h-.88v1h.87v-1zm-2.8-1.1v2.1h.53v-4.65h-.53v2.07h-2.7v-2.07h-.5v4.65h.5v-2.1h2.7zm-4.13 1.36l-.34-.34c-.45.43-.87.68-1.5.68-1.03 0-1.8-.85-1.8-1.93 0-1.1.76-1.92 1.8-1.92.62 0 1.06.27 1.46.64l.34-.38c-.46-.45-.97-.75-1.8-.75-1.38 0-2.37 1.08-2.37 2.4 0 1.35 1 2.4 2.34 2.4.85 0 1.38-.3 1.87-.8m-5.08-3.92h-3.37v4.65h3.4v-.48h-2.88v-1.63h2.54v-.47h-2.55v-1.6h2.84v-.47zm-5.22.88v3.78h.53v-4.65h-.52l-1.7 2.54-1.7-2.54h-.52v4.65h.5v-3.76l1.7 2.48h.03l1.68-2.5z" clip-path="url(#bg)"/><defs><path id="bh" d="M-57.04 57.42h541.22v714.74H-57.04z"/></defs><clipPath id="bi"><use xlink:href="#bh" overflow="visible"/></clipPath><path fill="#231F20" d="M378.26 242.2c1.04 0 1.84.76 1.84 1.94v1.1h-3.68v-1.1c0-1.18.8-1.93 1.84-1.93m0-.54c-1.32 0-2.33 1-2.33 2.48v1.6h4.66v-1.6c0-1.47-1.03-2.48-2.35-2.48m2.34 5.47h-1v.88h1v-.87zm-.8 5.82l-3.87 1.33v.57l4.7-1.66v-.45l-3.8-1.28 3.8-1.28v-.45l-4.7-1.67v.55l3.88 1.34-3.88 1.27v.43l3.9 1.28z" clip-path="url(#bi)"/><defs><path id="bj" d="M-57.04 57.42h541.22v714.74H-57.04z"/></defs><clipPath id="bk"><use xlink:href="#bj" overflow="visible"/></clipPath><path fill="#231F20" d="M271.92 356.46v3.77h.52v-4.65h-.53l-1.68 2.54-1.7-2.54H268v4.65h.5v-3.76l1.7 2.5h.02l1.7-2.5zm-5.6 1.46c0 1.06-.75 1.9-1.8 1.9-1.07 0-1.84-.85-1.84-1.92s.75-1.9 1.82-1.9c1.06 0 1.83.85 1.83 1.92m.55-.02c0-1.3-.95-2.4-2.37-2.4-1.4 0-2.37 1.12-2.37 2.42 0 1.28.95 2.4 2.37 2.4 1.42 0 2.38-1.13 2.38-2.42m-6.2.02c0 1.06-.76 1.9-1.82 1.9s-1.84-.85-1.84-1.92.76-1.9 1.83-1.9 1.83.85 1.83 1.92m.55-.02c0-1.3-.96-2.4-2.37-2.4s-2.38 1.12-2.38 2.42c0 1.28.95 2.4 2.37 2.4 1.4 0 2.38-1.13 2.38-2.42m-6.2-.9c0 .6-.5.95-1.2.95h-1.43v-1.88h1.44c.75 0 1.2.34 1.2.92m.7 3.24l-1.44-1.9c.73-.14 1.26-.6 1.26-1.37 0-.84-.66-1.4-1.68-1.4h-2v4.67h.52v-1.82h1.33l1.35 1.82h.65z" clip-path="url(#bk)"/><defs><path id="bl" d="M-57.04 57.42h541.22v714.74H-57.04z"/></defs><clipPath id="bm"><use xlink:href="#bl" overflow="visible"/></clipPath><path fill="#231F20" d="M287.75 351.1v-1.85h-1.93v.47h1.42v1.16c-.32.26-.8.46-1.35.46-1.13 0-1.85-.82-1.85-1.94 0-1.04.74-1.9 1.77-1.9.66 0 1.06.2 1.42.52l.34-.4c-.47-.4-.95-.62-1.74-.62-1.4 0-2.33 1.13-2.33 2.42 0 1.33.9 2.4 2.38 2.4.78 0 1.43-.33 1.87-.72m-5.86-.3l-2.95-3.72h-.5v4.66h.52v-3.82l3 3.82h.43v-4.66h-.5v3.73zm-5.33.94h.53v-4.66h-.53v4.66zm-3.2-.65l-1.64-4.02h-.6l2 4.7h.48l2-4.7h-.55l-1.67 4zm-3.72.63h.53v-4.65h-.53v4.66zm-4.16 0h3.13v-.48H266v-4.17h-.5v4.66zm-2.34-1h-.88v1h.88v-1zm-2.85.37v-1.85h-1.9v.47h1.4v1.16c-.3.26-.8.46-1.33.46-1.14 0-1.85-.82-1.85-1.94 0-1.04.74-1.9 1.77-1.9.65 0 1.05.2 1.4.52l.35-.4c-.47-.4-.95-.62-1.74-.62-1.38 0-2.32 1.13-2.32 2.42 0 1.33.9 2.4 2.37 2.4.78 0 1.43-.33 1.86-.72m-5.84-.3l-2.94-3.72h-.5v4.66h.52v-3.82l3 3.82h.43v-4.66h-.5v3.73zm-5.32.94h.53v-4.66h-.53v4.66zm-1.87-.93l-2.93-3.72h-.5v4.66h.52v-3.82l3 3.82h.42v-4.66h-.5v3.73zm-5.32.94h.53v-4.66h-.53v4.66zm-1.7-2.32c0 1.03-.75 1.83-1.93 1.83h-1.1v-3.68h1.1c1.18 0 1.93.8 1.93 1.85m.55-.02c0-1.3-1-2.32-2.48-2.32h-1.6v4.66h1.6c1.47 0 2.48-1.02 2.48-2.34" clip-path="url(#bm)"/><defs><path id="bn" d="M-57.04 57.42h541.22v714.74H-57.04z"/></defs><clipPath id="bo"><use xlink:href="#bn" overflow="visible"/></clipPath><path fill="#231F20" d="M354.57 271.92h-3.35v4.65h.52v-2.02h2.53v-.48h-2.53v-1.66h2.82v-.48zm-4.44 0h-3.37v4.65h3.4v-.47h-2.87v-1.63h2.53V274h-2.54v-1.6h2.83v-.48zm-5.02 1.4c0 .62-.5.97-1.2.97h-1.42v-1.9h1.44c.75 0 1.2.35 1.2.93m.7 3.25l-1.44-1.9c.73-.14 1.26-.6 1.26-1.37 0-.83-.66-1.38-1.68-1.38h-2v4.65h.52v-1.8h1.33l1.36 1.8h.65z" clip-path="url(#bo)"/><defs><path id="bp" d="M-57.04 57.42h541.22v714.74H-57.04z"/></defs><clipPath id="bq"><use xlink:href="#bp" overflow="visible"/></clipPath><path fill="#231F20" d="M351.1 240.6l-1.32-3.86h-.57l1.67 4.68h.44l1.3-3.77 1.27 3.77h.45l1.66-4.7h-.55l-1.33 3.9-1.28-3.9h-.43l-1.3 3.9zm-2.95-1.53c0 1.04-.75 1.83-1.93 1.83h-1.1v-3.68h1.1c1.18 0 1.93.8 1.93 1.85m.55 0c0-1.33-1-2.33-2.48-2.33h-1.6v4.65h1.6c1.47 0 2.48-1.03 2.48-2.34" clip-path="url(#bq)"/></g><defs><path id="br" d="M45.65 158.88H145.8v4.56H45.65z"/></defs><clipPath id="bs"><use xlink:href="#br" overflow="visible"/></clipPath><path fill="#231F20" d="M145.8 159.25v-.3h-3.4v.3h1.53v4.1h.33v-4.1h1.54zm-5.8 4.1v-.3h-2.84v-1.76h2.53v-.3h-2.54v-1.75h2.8v-.3h-3.13v4.4H140zm-5.87 0v-.3h-2.84v-1.76h2.5v-.3h-2.5v-1.75h2.8v-.3h-3.14v4.4h3.17zm-6.28-3.12c0 .64-.54 1-1.28 1h-1.5v-1.98h1.52c.8 0 1.26.38 1.26.97zm.5 3.13l-1.46-1.88c.73-.1 1.28-.52 1.28-1.26v-.02c0-.73-.62-1.25-1.57-1.25h-1.84v4.4h.32v-1.8h1.44l1.4 1.8h.42zm-6.24-4.1v-.3h-3.4v.3h1.54v4.1h.33v-4.1h1.54zm-5.72 2.96c0-.65-.43-1.02-1.45-1.23-1.04-.22-1.28-.5-1.28-.97s.43-.85 1.08-.85c.48 0 .9.14 1.3.5l.22-.26c-.45-.35-.87-.53-1.5-.53-.83 0-1.43.5-1.43 1.15 0 .68.43 1.04 1.5 1.25 1 .2 1.23.47 1.23.94 0 .52-.45.9-1.1.9-.66 0-1.1-.22-1.6-.66l-.2.24c.52.48 1.06.7 1.77.7.85 0 1.46-.5 1.46-1.2m-11.16 1.14v-4.4h-.3v3.83l-3.06-3.85h-.3v4.4h.3v-3.9l3.1 3.9h.26zm-6.77-2.2c0 1.1-.78 1.98-1.87 1.98s-1.9-.9-1.9-1.98v-.02c0-1.1.8-1.97 1.88-1.97s1.88.9 1.88 2zm.34 0s0 0 0-.02c0-1.2-.9-2.27-2.23-2.27s-2.22 1.08-2.22 2.3c0 1.2.88 2.27 2.2 2.27 1.35 0 2.24-1.08 2.24-2.28m-6.55-1.9v-.3h-3.4v.3h1.53v4.1h.33v-4.1h1.55zm-5.8 3.52v-1.7h-1.8v.3h1.48v1.26c-.32.28-.84.5-1.4.5-1.18 0-1.9-.84-1.9-1.98v-.02c0-1.06.76-1.97 1.83-1.97.67 0 1.07.23 1.42.53l.2-.24c-.43-.37-.9-.58-1.6-.58-1.32 0-2.18 1.1-2.18 2.28 0 1.25.82 2.28 2.2 2.28.73 0 1.35-.3 1.75-.66m-6.72.58v-4.4h-.32v3.83l-3.03-3.85h-.3v4.4h.3v-3.9l3.1 3.9h.26zm-6.68-4.4h-.32v4.4h.32v-4.4zm-3.33 4.4v-4.4h-.33v2.03h-2.83v-2.05h-.33v4.4h.33v-2.05h2.82v2.06h.32zm-6.2-1.14c0-.65-.44-1.02-1.46-1.23-1.04-.22-1.28-.5-1.28-.97s.43-.85 1.07-.85c.5 0 .9.14 1.32.5l.2-.26c-.44-.35-.86-.53-1.5-.53-.82 0-1.42.5-1.42 1.15 0 .68.43 1.04 1.5 1.25 1 .2 1.23.47 1.23.94 0 .52-.45.9-1.1.9-.66 0-1.1-.22-1.6-.66l-.2.24c.52.48 1.06.7 1.77.7.85 0 1.46-.5 1.46-1.2m-6.5-.4H54.7l1.17-2.54 1.16 2.55zm1.07 1.54L56 158.92h-.3l-2.06 4.44h.34l.57-1.23h2.6l.56 1.23h.37zm-6.1-4.4h-.34l-1.4 3.92-1.28-3.94h-.26l-1.3 3.94-1.38-3.93h-.37l1.6 4.44h.27l1.3-3.84 1.28 3.83h.27l1.6-4.45z" clip-path="url(#bs)"/></svg>