<?xml version="1.0" encoding="utf-8"?>
<!-- Generator: Adobe Illustrator 15.0.2, SVG Export Plug-In . SVG Version: 6.00 Build 0)  -->
<!DOCTYPE svg PUBLIC "-//W3C//DTD SVG 1.1//EN" "http://www.w3.org/Graphics/SVG/1.1/DTD/svg11.dtd">
<svg version="1.1" id="Layer_1" xmlns="http://www.w3.org/2000/svg" xmlns:xlink="http://www.w3.org/1999/xlink" x="0px" y="0px"
	 width="513.359px" height="495.36px" viewBox="0 0 513.359 495.36" enable-background="new 0 0 513.359 495.36"
	 xml:space="preserve">
<g>
	<path fill="#BBBDBF" d="M241.96,133.2h29.25v27.3h-29.24L241.96,133.2z M180.2,59.1v377.65h26v-12.35h-16.9V243.04h4.56v-20.37H190
		V59.1H180.2z"/>
	<path fill="#FFFFFF" d="M440.35,170.05h30.7v59.4h-30.7V170.05z"/>
	<path fill="none" stroke="#000000" stroke-width="0.78" d="M440.35,170.05h30.7v59.4h-30.7V170.05z"/>
	<g>
		<defs>
			<rect id="SVGID_1_" x="-57.04" y="57.42" width="541.22" height="714.741"/>
		</defs>
		<clipPath id="SVGID_2_">
			<use xlink:href="#SVGID_1_"  overflow="visible"/>
		</clipPath>
		<circle clip-path="url(#SVGID_2_)" fill="none" stroke="#231F20" stroke-width="0.65" cx="455.848" cy="183.59" r="1.26"/>
	</g>
	<g>
		<defs>
			<rect id="SVGID_3_" x="-57.04" y="57.42" width="541.22" height="714.741"/>
		</defs>
		<clipPath id="SVGID_4_">
			<use xlink:href="#SVGID_3_"  overflow="visible"/>
		</clipPath>
		<path clip-path="url(#SVGID_4_)" fill="none" stroke="#000000" stroke-width="0.65" d="M455.8,226.06
			c-8.8,0-12.03-2.03-12.03-4.88v-43.4c0-0.68,0.2-2.12,2.03-2.12h20.021c1.83,0,2.02,1.44,2.02,2.13v43.38
			c0,2.85-3.3,4.88-12.04,4.88V226.06z"/>
	</g>
	<g>
		<defs>
			<rect id="SVGID_5_" x="-57.04" y="57.42" width="541.22" height="714.741"/>
		</defs>
		<clipPath id="SVGID_6_">
			<use xlink:href="#SVGID_5_"  overflow="visible"/>
		</clipPath>
		<path clip-path="url(#SVGID_6_)" fill="none" stroke="#231F20" stroke-width="0.585" d="M461.2,173.45c0,0.72-0.601,1.3-1.3,1.3
			c-0.7,0-1.28-0.58-1.28-1.3c0-0.7,0.58-1.3,1.28-1.28C460.6,172.17,461.2,172.75,461.2,173.45z M453.2,173.45
			c0,0.72-0.57,1.3-1.3,1.3c-0.7,0-1.261-0.58-1.271-1.3c0-0.7,0.58-1.3,1.28-1.3c0.729,0,1.3,0.6,1.3,1.3H453.2z"/>
	</g>
	<g>
		<defs>
			<rect id="SVGID_7_" x="-57.04" y="57.42" width="541.22" height="714.741"/>
		</defs>
		<clipPath id="SVGID_8_">
			<use xlink:href="#SVGID_7_"  overflow="visible"/>
		</clipPath>
		<path clip-path="url(#SVGID_8_)" fill="#FFFFFF" d="M454.1,173.07c0-1.05,0.73-1.9,1.78-1.9c1.061,0,1.63,0.85,1.63,1.9
			l-0.66,7.27c0,0.72-1.93,0.72-1.93,0l-0.8-7.27H454.1z"/>
	</g>
	<g>
		<defs>
			<rect id="SVGID_9_" x="-57.04" y="57.42" width="541.22" height="714.741"/>
		</defs>
		<clipPath id="SVGID_10_">
			<use xlink:href="#SVGID_9_"  overflow="visible"/>
		</clipPath>
		<path clip-path="url(#SVGID_10_)" fill="none" stroke="#231F20" stroke-width="0.585" d="M454.1,173.07c0-1.05,0.73-1.9,1.78-1.9
			c1.061,0,1.63,0.85,1.63,1.9l-0.66,7.27c0,0.72-1.93,0.72-1.93,0l-0.8-7.27H454.1z"/>
	</g>
	<g>
		<defs>
			<rect id="SVGID_11_" x="-57.04" y="57.42" width="541.22" height="714.741"/>
		</defs>
		<clipPath id="SVGID_12_">
			<use xlink:href="#SVGID_11_"  overflow="visible"/>
		</clipPath>
		<path clip-path="url(#SVGID_12_)" fill="none" stroke="#000000" stroke-width="0.975" d="M201.9,87.94
			c15.92,0,28.82-12.9,28.82-28.82 M200.24,87.96h1.66V59.13h-1.66V87.96z M432.76,203.4c-15.899,0-28.819,12.9-28.819,28.82
			 M434.42,203.38h-1.66v28.84h1.66V203.38z"/>
	</g>
	<path fill="none" stroke="#000000" stroke-width="0.78" d="M386.26,235.25v26.43 M386.26,256.52h3.66l0.859-3.16v-9.7l-0.859-3.22
		h-3.66 M369.34,261.69h24.1v-26.26h-24.1v26.25V261.69z"/>
	<path fill="#FFFFFF" d="M387.84,236.72v2.12l-1.48,0.46v-3.05L387.84,236.72z"/>
	<path fill="none" stroke="#231F20" stroke-width="0.78" d="M387.84,236.72v2.12l-1.48,0.46v-3.05L387.84,236.72z"/>
	<path fill="#FFFFFF" d="M327.9,191.22l-0.061-25.68l-30.22-0.06l0.05,25.68L327.9,191.22z"/>
	<path fill="none" stroke="#000000" stroke-width="0.78" d="M327.9,191.22l-0.061-25.68l-30.22-0.06l0.05,25.68L327.9,191.22z"/>
	<path fill="none" stroke="#000000" stroke-width="0.39" d="M297.45,167.77h30.271"/>
	<g>
		<defs>
			<rect id="SVGID_13_" x="-57.04" y="57.42" width="541.22" height="714.741"/>
		</defs>
		<clipPath id="SVGID_14_">
			<use xlink:href="#SVGID_13_"  overflow="visible"/>
		</clipPath>
		<path clip-path="url(#SVGID_14_)" fill="#FFFFFF" d="M306.5,177.06c2.18-0.02,3.92-1.8,3.9-3.96c0-2.18-1.78-3.92-3.95-3.9
			c-2.171,0-3.921,1.8-3.9,3.96c0,2.16,1.8,3.9,3.96,3.9"/>
	</g>
	<g>
		<defs>
			<rect id="SVGID_15_" x="-57.04" y="57.42" width="541.22" height="714.741"/>
		</defs>
		<clipPath id="SVGID_16_">
			<use xlink:href="#SVGID_15_"  overflow="visible"/>
		</clipPath>
		<path clip-path="url(#SVGID_16_)" fill="none" stroke="#231F20" stroke-width="0.65" d="M306.5,177.06
			c2.18-0.02,3.92-1.8,3.9-3.96c0-2.18-1.78-3.92-3.95-3.9c-2.171,0-3.921,1.8-3.9,3.96c0,2.16,1.8,3.9,3.96,3.9H306.5z"/>
	</g>
	<g>
		<defs>
			<rect id="SVGID_17_" x="-57.04" y="57.42" width="541.22" height="714.741"/>
		</defs>
		<clipPath id="SVGID_18_">
			<use xlink:href="#SVGID_17_"  overflow="visible"/>
		</clipPath>
		<path clip-path="url(#SVGID_18_)" fill="#FFFFFF" d="M318.279,176.97c2.171-0.02,3.9-1.8,3.9-3.96c-0.02-2.16-1.8-3.9-3.959-3.9
			c-2.16,0.03-3.9,1.8-3.9,3.97c0.02,2.16,1.8,3.92,3.959,3.9"/>
	</g>
	<g>
		<defs>
			<rect id="SVGID_19_" x="-57.04" y="57.42" width="541.22" height="714.741"/>
		</defs>
		<clipPath id="SVGID_20_">
			<use xlink:href="#SVGID_19_"  overflow="visible"/>
		</clipPath>
		<path clip-path="url(#SVGID_20_)" fill="none" stroke="#231F20" stroke-width="0.65" d="M318.279,176.97
			c2.171-0.02,3.9-1.8,3.9-3.96c-0.02-2.16-1.8-3.9-3.959-3.9c-2.16,0.03-3.9,1.8-3.9,3.97c0.02,2.16,1.8,3.92,3.959,3.9V176.97z"/>
	</g>
	<g>
		<defs>
			<rect id="SVGID_21_" x="-57.04" y="57.42" width="541.22" height="714.741"/>
		</defs>
		<clipPath id="SVGID_22_">
			<use xlink:href="#SVGID_21_"  overflow="visible"/>
		</clipPath>
		<path clip-path="url(#SVGID_22_)" fill="#FFFFFF" d="M306.58,187.74c2.18,0,3.92-1.78,3.9-3.95c0-2.18-1.801-3.93-3.951-3.9
			c-2.17,0-3.92,1.77-3.899,3.95C302.63,186.01,304.43,187.74,306.58,187.74"/>
	</g>
	<g>
		<defs>
			<rect id="SVGID_23_" x="-57.04" y="57.42" width="541.22" height="714.741"/>
		</defs>
		<clipPath id="SVGID_24_">
			<use xlink:href="#SVGID_23_"  overflow="visible"/>
		</clipPath>
		<path clip-path="url(#SVGID_24_)" fill="none" stroke="#231F20" stroke-width="0.65" d="M306.58,187.74c2.18,0,3.92-1.78,3.9-3.95
			c0-2.18-1.801-3.93-3.951-3.9c-2.17,0-3.92,1.77-3.899,3.95C302.63,186.01,304.43,187.74,306.58,187.74z"/>
	</g>
	<g>
		<defs>
			<rect id="SVGID_25_" x="-57.04" y="57.42" width="541.22" height="714.741"/>
		</defs>
		<clipPath id="SVGID_26_">
			<use xlink:href="#SVGID_25_"  overflow="visible"/>
		</clipPath>
		<path clip-path="url(#SVGID_26_)" fill="#FFFFFF" d="M318.359,187.66c2.17-0.02,3.9-1.8,3.9-3.95c-0.02-2.17-1.8-3.9-3.96-3.9
			c-2.159,0.02-3.899,1.8-3.899,3.96c0.02,2.17,1.8,3.9,3.959,3.9"/>
	</g>
	<g>
		<defs>
			<rect id="SVGID_27_" x="-57.04" y="57.42" width="541.22" height="714.741"/>
		</defs>
		<clipPath id="SVGID_28_">
			<use xlink:href="#SVGID_27_"  overflow="visible"/>
		</clipPath>
		<path clip-path="url(#SVGID_28_)" fill="none" stroke="#231F20" stroke-width="0.65" d="M318.359,187.66
			c2.17-0.02,3.9-1.8,3.9-3.95c-0.02-2.17-1.8-3.9-3.96-3.9c-2.159,0.02-3.899,1.8-3.899,3.96c0.02,2.17,1.8,3.9,3.959,3.9V187.66z"
			/>
	</g>
	<path fill="#FFFFFF" d="M298.67,191.12h28.16v1.2h-28.16V191.12z"/>
	<path fill="none" stroke="#231F20" stroke-width="0.78" d="M298.67,191.12h28.16v1.2h-28.16V191.12z M342.061,438.45h55.249
		 M409.83,438.469h45.83 M276.1,438.389H321.9 M207.75,438.321h46.48 M343.029,425.69h43.881 M276.83,425.69h43.55 M207.52,425.04
		h44.2 M410.979,425.69h43.881"/>
	<g>
		<defs>
			<rect id="SVGID_29_" x="-57.04" y="57.42" width="541.22" height="714.741"/>
		</defs>
		<clipPath id="SVGID_30_">
			<use xlink:href="#SVGID_29_"  overflow="visible"/>
		</clipPath>
		<path clip-path="url(#SVGID_30_)" fill="#FFFFFF" d="M434.46,181.36c0,5.8-3.52,12.18-7.87,12.18c-4.35,0-7.87-6.38-7.87-12.18
			c0-5.8,3.521-8.83,7.86-8.83s7.86,3.02,7.86,8.83"/>
	</g>
	<g>
		<defs>
			<rect id="SVGID_31_" x="-57.04" y="57.42" width="541.22" height="714.741"/>
		</defs>
		<clipPath id="SVGID_32_">
			<use xlink:href="#SVGID_31_"  overflow="visible"/>
		</clipPath>
		<path clip-path="url(#SVGID_32_)" fill="none" stroke="#000000" stroke-width="0.78" d="M434.46,181.36
			c0,5.8-3.52,12.18-7.87,12.18c-4.35,0-7.87-6.38-7.87-12.18c0-5.8,3.521-8.83,7.86-8.83s7.86,3.02,7.86,8.83H434.46z"/>
	</g>
	<g>
		<defs>
			<rect id="SVGID_33_" x="-57.04" y="57.42" width="541.22" height="714.741"/>
		</defs>
		<clipPath id="SVGID_34_">
			<use xlink:href="#SVGID_33_"  overflow="visible"/>
		</clipPath>
		<path clip-path="url(#SVGID_34_)" fill="#FFFFFF" d="M421.88,174.44c0,0.32-0.26,0.6-0.6,0.6h-2.74c-0.33,0-0.6-0.28-0.6-0.6v-0.1
			c0-0.33,0.27-0.6,0.6-0.6h2.75c0.32,0,0.58,0.27,0.58,0.6v0.1H421.88z"/>
	</g>
	<g>
		<defs>
			<rect id="SVGID_35_" x="-57.04" y="57.42" width="541.22" height="714.741"/>
		</defs>
		<clipPath id="SVGID_36_">
			<use xlink:href="#SVGID_35_"  overflow="visible"/>
		</clipPath>
		<path clip-path="url(#SVGID_36_)" fill="none" stroke="#231F20" stroke-width="0.78" d="M421.88,174.44c0,0.32-0.26,0.6-0.6,0.6
			h-2.74c-0.33,0-0.6-0.28-0.6-0.6v-0.1c0-0.33,0.27-0.6,0.6-0.6h2.75c0.32,0,0.58,0.27,0.58,0.6v0.1H421.88z"/>
	</g>
	<g>
		<defs>
			<rect id="SVGID_37_" x="-57.04" y="57.42" width="541.22" height="714.741"/>
		</defs>
		<clipPath id="SVGID_38_">
			<use xlink:href="#SVGID_37_"  overflow="visible"/>
		</clipPath>
		<path clip-path="url(#SVGID_38_)" fill="#FFFFFF" d="M417.53,173.73c-0.98,0-1.8-2.67-1.8-3.66c0-1,0.819-3.66,1.8-3.66h17.97
			c1,0,1.8,2.68,1.8,3.67c0,1-0.8,3.66-1.8,3.66h-17.97V173.73z"/>
	</g>
	<g>
		<defs>
			<rect id="SVGID_39_" x="-57.04" y="57.42" width="541.22" height="714.741"/>
		</defs>
		<clipPath id="SVGID_40_">
			<use xlink:href="#SVGID_39_"  overflow="visible"/>
		</clipPath>
		<path clip-path="url(#SVGID_40_)" fill="none" stroke="#000000" stroke-width="0.78" d="M417.53,173.73c-0.98,0-1.8-2.67-1.8-3.66
			c0-1,0.819-3.66,1.8-3.66h17.97c1,0,1.8,2.68,1.8,3.67c0,1-0.8,3.66-1.8,3.66h-17.97V173.73z"/>
	</g>
	<g>
		<defs>
			<rect id="SVGID_41_" x="-57.04" y="57.42" width="541.22" height="714.741"/>
		</defs>
		<clipPath id="SVGID_42_">
			<use xlink:href="#SVGID_41_"  overflow="visible"/>
		</clipPath>
		<path clip-path="url(#SVGID_42_)" fill="#FFFFFF" d="M432.38,181.6c0,4.26-2.6,8.96-5.8,8.96s-5.771-4.7-5.771-8.96
			c0-4.26,2.601-6.48,5.801-6.48c3.199,0,5.779,2.22,5.779,6.48"/>
	</g>
	<g>
		<defs>
			<rect id="SVGID_43_" x="-57.04" y="57.42" width="541.22" height="714.741"/>
		</defs>
		<clipPath id="SVGID_44_">
			<use xlink:href="#SVGID_43_"  overflow="visible"/>
		</clipPath>
		<path clip-path="url(#SVGID_44_)" fill="none" stroke="#000000" stroke-width="0.65" d="M432.38,181.6c0,4.26-2.6,8.96-5.8,8.96
			s-5.771-4.7-5.771-8.96c0-4.26,2.601-6.48,5.801-6.48c3.199,0,5.779,2.22,5.779,6.48H432.38z"/>
	</g>
	<path fill="none" stroke="#231F20" stroke-width="0.78" d="M365.029,165.34v24.05l41.601-0.88V162.3"/>
	<path fill="none" stroke="#000000" stroke-width="0.975" d="M456.24,233.73v60.67"/>
	
		<path fill="none" stroke="#000000" stroke-width="0.975" stroke-dasharray="2.013,2.013,2.013,2.013,2.013,2.013" stroke-dashoffset="4" d="
		M458.4,293.32v-62.4"/>
	<path fill="none" stroke="#000000" stroke-width="0.975" d="M382.8,268.2v25.551"/>
	
		<path fill="none" stroke="#000000" stroke-width="0.975" stroke-dasharray="1.933,1.933,1.933,1.933,1.933,1.933" stroke-dashoffset="3" d="
		M380.2,268.62v25.131"/>
	<path fill="none" stroke="#000000" stroke-width="0.78" d="M329.061,163.97v25.35h9.969v64.9h25.351"/>
	<g>
		<defs>
			<rect id="SVGID_45_" x="-57.04" y="57.42" width="541.22" height="714.741"/>
		</defs>
		<clipPath id="SVGID_46_">
			<use xlink:href="#SVGID_45_"  overflow="visible"/>
		</clipPath>
		<circle clip-path="url(#SVGID_46_)" fill="none" stroke="#000000" stroke-width="0.52" cx="386.826" cy="176.782" r="1.189"/>
	</g>
	<g>
		<defs>
			<rect id="SVGID_47_" x="-57.04" y="57.42" width="541.22" height="714.741"/>
		</defs>
		<clipPath id="SVGID_48_">
			<use xlink:href="#SVGID_47_"  overflow="visible"/>
		</clipPath>
		<path clip-path="url(#SVGID_48_)" fill="none" stroke="#000000" stroke-width="0.65" d="M386.83,166.95
			c0.63,0,1.15,0.52,1.15,1.15s-0.521,1.16-1.15,1.16c-0.641,0-1.16-0.52-1.16-1.16S386.189,166.95,386.83,166.95z M387.359,174.15
			h-1.06v-4.72h1.06V174.15z M392.02,169.32H381.62v-2.48h10.399V169.32z"/>
	</g>
	<path fill="none" stroke="#000000" stroke-width="0.78" d="M376.3,166.46h21.061v19.07H376.3V166.46z"/>
	<path fill="none" stroke="#000000" stroke-width="0.585" d="M377.93,169.38h17.75v14.52h-17.75V169.38z"/>
	<path fill="none" stroke="#000000" stroke-width="0.65" d="M334.52,255.75v35.75"/>
	<path fill="none" stroke="#000000" stroke-width="0.78" d="M330.939,268.459h1.461v2.761h-1.461V268.459z M332.42,255.97h30.07
		v35.239H332.4L332.42,255.97z M330.939,277.15h1.461v2.761h-1.461V277.15z"/>
	<g>
		<defs>
			<rect id="SVGID_49_" x="-57.04" y="57.42" width="541.22" height="714.741"/>
		</defs>
		<clipPath id="SVGID_50_">
			<use xlink:href="#SVGID_49_"  overflow="visible"/>
		</clipPath>
		<path clip-path="url(#SVGID_50_)" fill="#FFFFFF" d="M359.48,198.34c1,0,1.84,0.83,1.84,1.84v22.4c0,1.02-0.83,1.84-1.84,1.84
			h-15.76c-1.021,0-1.841-0.82-1.841-1.83v-22.42c0-1,0.82-1.84,1.841-1.84h15.76V198.34z"/>
	</g>
	<g>
		<defs>
			<rect id="SVGID_51_" x="-57.04" y="57.42" width="541.22" height="714.741"/>
		</defs>
		<clipPath id="SVGID_52_">
			<use xlink:href="#SVGID_51_"  overflow="visible"/>
		</clipPath>
		<path clip-path="url(#SVGID_52_)" fill="none" stroke="#231F20" stroke-width="0.78" d="M359.48,198.34c1,0,1.84,0.83,1.84,1.84
			v22.4c0,1.02-0.83,1.84-1.84,1.84h-15.76c-1.021,0-1.841-0.82-1.841-1.83v-22.42c0-1,0.82-1.84,1.841-1.84h15.76V198.34z"/>
	</g>
	<g>
		<defs>
			<rect id="SVGID_53_" x="-57.04" y="57.42" width="541.22" height="714.741"/>
		</defs>
		<clipPath id="SVGID_54_">
			<use xlink:href="#SVGID_53_"  overflow="visible"/>
		</clipPath>
		<path clip-path="url(#SVGID_54_)" fill="#FFFFFF" d="M357,220.63c0,1.03-0.83,1.88-1.84,1.88h-9.471
			c-1.02,0-1.859-0.84-1.859-1.87V202.2c0-1.04,0.84-1.9,1.85-1.9h9.461c1,0,1.85,0.86,1.85,1.9v18.43H357z"/>
	</g>
	<g>
		<defs>
			<rect id="SVGID_55_" x="-57.04" y="57.42" width="541.22" height="714.741"/>
		</defs>
		<clipPath id="SVGID_56_">
			<use xlink:href="#SVGID_55_"  overflow="visible"/>
		</clipPath>
		<path clip-path="url(#SVGID_56_)" fill="none" stroke="#231F20" stroke-width="0.585" d="M357,220.63c0,1.03-0.83,1.88-1.84,1.88
			h-9.471c-1.02,0-1.859-0.84-1.859-1.87V202.2c0-1.04,0.84-1.9,1.85-1.9h9.461c1,0,1.85,0.86,1.85,1.9v18.43H357z"/>
	</g>
	<g>
		<defs>
			<rect id="SVGID_57_" x="-57.04" y="57.42" width="541.22" height="714.741"/>
		</defs>
		<clipPath id="SVGID_58_">
			<use xlink:href="#SVGID_57_"  overflow="visible"/>
		</clipPath>
		<path clip-path="url(#SVGID_58_)" fill="#FFFFFF" d="M350.2,209.82c0.78,0,1.399,0.62,1.399,1.4c0,0.75-0.629,1.37-1.399,1.37
			c-0.75,0-1.38-0.62-1.38-1.4c0-0.76,0.63-1.38,1.4-1.38"/>
	</g>
	<g>
		<defs>
			<rect id="SVGID_59_" x="-57.04" y="57.42" width="541.22" height="714.741"/>
		</defs>
		<clipPath id="SVGID_60_">
			<use xlink:href="#SVGID_59_"  overflow="visible"/>
		</clipPath>
		<path clip-path="url(#SVGID_60_)" fill="none" stroke="#231F20" stroke-width="0.52" d="M350.2,209.82
			c0.78,0,1.399,0.62,1.399,1.4c0,0.75-0.629,1.37-1.399,1.37c-0.75,0-1.38-0.62-1.38-1.4c0-0.76,0.63-1.38,1.4-1.38L350.2,209.82z"
			/>
	</g>
	<g>
		<defs>
			<rect id="SVGID_61_" x="-57.04" y="57.42" width="541.22" height="714.741"/>
		</defs>
		<clipPath id="SVGID_62_">
			<use xlink:href="#SVGID_61_"  overflow="visible"/>
		</clipPath>
		<path clip-path="url(#SVGID_62_)" fill="#FFFFFF" d="M359.2,206.23c0.75,0,1.44,0.6,1.44,1.34v7.3c0,0.75-0.701,1.35-1.431,1.35
			s-1.399-0.6-1.399-1.34v-7.3c0-0.75,0.67-1.35,1.399-1.35"/>
	</g>
	<g>
		<defs>
			<rect id="SVGID_63_" x="-57.04" y="57.42" width="541.22" height="714.741"/>
		</defs>
		<clipPath id="SVGID_64_">
			<use xlink:href="#SVGID_63_"  overflow="visible"/>
		</clipPath>
		<path clip-path="url(#SVGID_64_)" fill="none" stroke="#231F20" stroke-width="0.52" d="M359.2,206.23c0.75,0,1.44,0.6,1.44,1.34
			v7.3c0,0.75-0.701,1.35-1.431,1.35s-1.399-0.6-1.399-1.34v-7.3c0-0.75,0.67-1.35,1.399-1.35H359.2z"/>
	</g>
	<g>
		<defs>
			<rect id="SVGID_65_" x="-57.04" y="57.42" width="541.22" height="714.741"/>
		</defs>
		<clipPath id="SVGID_66_">
			<use xlink:href="#SVGID_65_"  overflow="visible"/>
		</clipPath>
		<path clip-path="url(#SVGID_66_)" fill="#FFFFFF" d="M351.439,205.74l6.801,6.28c0.4,0.34,1,0.3,1.359-0.1
			c0.36-0.38,0.32-1-0.08-1.34l-7.06-6C352.13,204.31,351.12,205.46,351.439,205.74"/>
	</g>
	<g>
		<defs>
			<rect id="SVGID_67_" x="-57.04" y="57.42" width="541.22" height="714.741"/>
		</defs>
		<clipPath id="SVGID_68_">
			<use xlink:href="#SVGID_67_"  overflow="visible"/>
		</clipPath>
		<path clip-path="url(#SVGID_68_)" fill="none" stroke="#231F20" stroke-width="0.65" d="M351.439,205.74l6.801,6.28
			c0.4,0.34,1,0.3,1.359-0.1c0.36-0.38,0.32-1-0.08-1.34l-7.06-6C352.13,204.31,351.12,205.46,351.439,205.74z"/>
	</g>
	<g>
		<defs>
			<rect id="SVGID_69_" x="-57.04" y="57.42" width="541.22" height="714.741"/>
		</defs>
		<clipPath id="SVGID_70_">
			<use xlink:href="#SVGID_69_"  overflow="visible"/>
		</clipPath>
		<path clip-path="url(#SVGID_70_)" fill="#FFFFFF" d="M355.85,212.02h3.301c0.34,0,0.629-0.3,0.629-0.65s-0.299-0.63-0.639-0.63
			h-3.301c-0.35,0-0.64,0.28-0.64,0.64C355.2,211.73,355.5,212.02,355.85,212.02"/>
	</g>
	<g>
		<defs>
			<rect id="SVGID_71_" x="-57.04" y="57.42" width="541.22" height="714.741"/>
		</defs>
		<clipPath id="SVGID_72_">
			<use xlink:href="#SVGID_71_"  overflow="visible"/>
		</clipPath>
		<path clip-path="url(#SVGID_72_)" fill="none" stroke="#231F20" stroke-width="0.52" d="M355.85,212.02h3.301
			c0.34,0,0.629-0.3,0.629-0.65s-0.299-0.63-0.639-0.63h-3.301c-0.35,0-0.64,0.28-0.64,0.64
			C355.2,211.73,355.5,212.02,355.85,212.02L355.85,212.02z"/>
	</g>
	<g>
		<defs>
			<rect id="SVGID_73_" x="-57.04" y="57.42" width="541.22" height="714.741"/>
		</defs>
		<clipPath id="SVGID_74_">
			<use xlink:href="#SVGID_73_"  overflow="visible"/>
		</clipPath>
		<path clip-path="url(#SVGID_74_)" fill="#FFFFFF" d="M359.1,213.4c0.4,0,0.76,0.35,0.76,0.77c0,0.43-0.35,0.77-0.77,0.77
			c-0.43,0-0.77-0.34-0.77-0.77c0-0.42,0.34-0.77,0.76-0.77"/>
	</g>
	<g>
		<defs>
			<rect id="SVGID_75_" x="-57.04" y="57.42" width="541.22" height="714.741"/>
		</defs>
		<clipPath id="SVGID_76_">
			<use xlink:href="#SVGID_75_"  overflow="visible"/>
		</clipPath>
		<path clip-path="url(#SVGID_76_)" fill="none" stroke="#231F20" stroke-width="0.455" d="M359.1,213.4c0.4,0,0.76,0.35,0.76,0.77
			c0,0.43-0.35,0.77-0.77,0.77c-0.43,0-0.77-0.34-0.77-0.77c0-0.42,0.34-0.77,0.76-0.77H359.1z"/>
	</g>
	<g>
		<defs>
			<rect id="SVGID_77_" x="-57.04" y="57.42" width="541.22" height="714.741"/>
		</defs>
		<clipPath id="SVGID_78_">
			<use xlink:href="#SVGID_77_"  overflow="visible"/>
		</clipPath>
		<path clip-path="url(#SVGID_78_)" fill="#FFFFFF" d="M359.16,207.5c0.42,0,0.77,0.35,0.77,0.77c0,0.43-0.35,0.77-0.77,0.77
			s-0.77-0.34-0.77-0.77c0-0.42,0.34-0.77,0.76-0.77"/>
	</g>
	<g>
		<defs>
			<rect id="SVGID_79_" x="-57.04" y="57.42" width="541.22" height="714.741"/>
		</defs>
		<clipPath id="SVGID_80_">
			<use xlink:href="#SVGID_79_"  overflow="visible"/>
		</clipPath>
		<path clip-path="url(#SVGID_80_)" fill="none" stroke="#231F20" stroke-width="0.455" d="M359.16,207.5
			c0.42,0,0.77,0.35,0.77,0.77c0,0.43-0.35,0.77-0.77,0.77s-0.77-0.34-0.77-0.77c0-0.42,0.34-0.77,0.76-0.77H359.16z"/>
	</g>
	
		<path fill="none" stroke="#000000" stroke-width="0.65" stroke-dasharray="1.936,1.936,1.936,1.936,1.936,1.936" stroke-dashoffset="3" d="
		M341.42,249.82h18.4"/>
	
		<path fill="none" stroke="#000000" stroke-width="0.65" stroke-dasharray="1.899,1.899,1.899,1.899,1.899,1.899" stroke-dashoffset="3" d="
		M361.75,246.97v-18.03"/>
	
		<path fill="none" stroke="#000000" stroke-width="0.65" stroke-dasharray="1.892,1.892,1.892,1.892,1.892,1.892" stroke-dashoffset="3" d="
		M358.9,227.04H340.93"/>
	<path fill="none" stroke="#000000" stroke-width="0.65" d="M339.98,227.04h-0.94 M361.74,227.99v-0.96h-0.94 M360.78,249.81h0.97
		v-0.95 M338.52,249.81h0.971 M339.04,227h-2.47v22.82h1.939"/>
	<path fill="#BBBDBF" d="M482.23,162.02v274.82H456.43V424.04h14.551V295.22l2.3,0.06v-127.3h-31.3v-4"/>
	<g>
		<defs>
			<rect id="SVGID_81_" x="-57.04" y="57.42" width="541.22" height="714.741"/>
		</defs>
		<clipPath id="SVGID_82_">
			<use xlink:href="#SVGID_81_"  overflow="visible"/>
		</clipPath>
		<path clip-path="url(#SVGID_82_)" fill="none" stroke="#231F20" stroke-width="3.9" d="M482.23,162.02v274.82H456.43V424.04
			h14.551V295.22l2.3,0.06v-127.3h-31.3v-4"/>
	</g>
	<path fill="none" stroke="#231F20" stroke-width="3.9" d="M455.16,431.549h-44.42 M394.279,431.549h-50.92 M320.609,431.549h-45
		 M251.94,431.549H208.5"/>
	<path fill="none" stroke="#231F20" stroke-width="5.2" d="M473.17,294.73h-37.5 M398.93,294.73h-58.5v75.72"/>
	<path fill="none" stroke="#231F20" stroke-width="6.5" d="M340.84,409.879v15.17"/>
	<g>
		<defs>
			<rect id="SVGID_83_" x="-57.04" y="57.42" width="541.22" height="714.741"/>
		</defs>
		<clipPath id="SVGID_84_">
			<use xlink:href="#SVGID_83_"  overflow="visible"/>
		</clipPath>
		<path clip-path="url(#SVGID_84_)" fill="none" stroke="#231F20" stroke-width="3.9" d="M270.98,162.88L270.92,59.61h-40.95
			 M200.42,59.61h-20.25l-0.02,377.131h26.53v-12.4h-17.3l-0.02-181.26h4.28l0.02-20.83h-4.28V60.18"/>
	</g>
	<path fill="none" stroke="#231F20" stroke-width="5.2" d="M270.561,132.88h-29.92v69.22h11.4 M281.609,202.1h12.701l-0.041-38.02"
		/>
	<path fill="#BBBDBF" d="M387.65,423.2v13.641h21.54v-13.6L387.65,423.2z"/>
	<path fill="none" stroke="#231F20" stroke-width="3.9" d="M387.65,423.2v13.641h21.54v-13.6L387.65,423.2z"/>
	<path fill="#BBBDBF" d="M322.04,423.2v13.641h20.13v-13.6L322.04,423.2z"/>
	<path fill="none" stroke="#231F20" stroke-width="3.9" d="M322.04,423.2v13.641h20.13v-13.6L322.04,423.2z"/>
	<path fill="#BBBDBF" d="M253.36,423.2v13.6H275v-13.559L253.36,423.2z"/>
	<path fill="none" stroke="#231F20" stroke-width="3.9" d="M253.36,423.2v13.6H275v-13.559L253.36,423.2z"/>
	<g>
		<defs>
			<rect id="SVGID_85_" x="-57.04" y="57.42" width="541.22" height="714.741"/>
		</defs>
		<clipPath id="SVGID_86_">
			<use xlink:href="#SVGID_85_"  overflow="visible"/>
		</clipPath>
		<path clip-path="url(#SVGID_86_)" fill="none" stroke="#231F20" stroke-width="5.2" d="M472.06,231.68H434.36 M404.1,231.68
			h-37.02 M365.779,164.72v131.3 M484.08,162.12H240.33"/>
	</g>
	<path fill="none" stroke="#231F20" stroke-width="6.5" d="M398.94,265.75h-33.48"/>
	<path fill="none" stroke="#231F20" stroke-width="0.78" d="M242.4,200.8h47.12v1.95H242.4V200.8z M337.58,391.36h-1.95v-47.129
		h1.95V391.36z"/>
	<g>
		<defs>
			<rect id="SVGID_87_" x="-57.04" y="57.42" width="541.22" height="714.741"/>
		</defs>
		<clipPath id="SVGID_88_">
			<use xlink:href="#SVGID_87_"  overflow="visible"/>
		</clipPath>
		
			<path clip-path="url(#SVGID_88_)" fill="none" stroke="#231F20" stroke-width="3.9" stroke-dasharray="6.307,2.307,6.307,2.307,6.307,2.307" stroke-dashoffset="8" d="
			M191.74,59.53V220.9"/>
	</g>
	<path fill="#FFFFFF" d="M230,429.92h18.57v3.16H230V429.92z"/>
	<path fill="none" stroke="#000000" stroke-width="0.78" d="M230,429.92h18.57v3.16H230V429.92z M230,431.571h18.46"/>
	<path fill="#FFFFFF" d="M210.87,429.92h19.07v3.16h-19.07V429.92z"/>
	<path fill="none" stroke="#000000" stroke-width="0.78" d="M210.87,429.92h19.07v3.16h-19.07V429.92z M210.87,431.571h19.07"/>
	<path fill="#FFFFFF" d="M299.02,429.93h18.58v3.16h-18.58V429.93z"/>
	<path fill="none" stroke="#000000" stroke-width="0.78" d="M299.02,429.93h18.58v3.16h-18.58V429.93z M299.02,431.581h18.471"/>
	<path fill="#FFFFFF" d="M279.9,429.93h19.07v3.16H279.9V429.93z"/>
	<path fill="none" stroke="#000000" stroke-width="0.78" d="M279.9,429.93h19.07v3.16H279.9V429.93z M279.9,431.581h19.06"/>
	<path fill="#FFFFFF" d="M365.5,429.93h18.6v3.16h-18.6V429.93z"/>
	<path fill="none" stroke="#000000" stroke-width="0.78" d="M365.5,429.93h18.6v3.16h-18.6V429.93z M365.5,431.581H384"/>
	<path fill="#FFFFFF" d="M346.4,429.93h19.06v3.16H346.4V429.93z"/>
	<path fill="none" stroke="#000000" stroke-width="0.78" d="M346.4,429.93h19.06v3.16H346.4V429.93z M346.4,431.581h19.06"/>
	<path fill="#FFFFFF" d="M433.38,429.901h18.58v3.17h-18.58V429.901z"/>
	<path fill="none" stroke="#000000" stroke-width="0.78" d="M433.38,429.901h18.58v3.17h-18.58V429.901z M433.38,431.559h18.47"/>
	<path fill="#FFFFFF" d="M414.26,429.901h19.07v3.17h-19.07V429.901z"/>
	<path fill="none" stroke="#000000" stroke-width="0.78" d="M414.26,429.901h19.07v3.17h-19.07V429.901z M414.26,431.559h19.07"/>
	<g>
		<defs>
			<rect id="SVGID_89_" x="-57.04" y="57.42" width="541.22" height="714.741"/>
		</defs>
		<clipPath id="SVGID_90_">
			<use xlink:href="#SVGID_89_"  overflow="visible"/>
		</clipPath>
		<path clip-path="url(#SVGID_90_)" fill="#231F20" d="M422.53,364.44h-0.46l-0.48,1.541h0.28l0.649-1.541H422.53z M421.59,364.44
			h-0.479l-0.471,1.541h0.301l0.64-1.541H421.59z M419.39,367.389c0,0.42-0.399,0.781-1.1,0.781s-1.1-0.361-1.1-0.801
			c0-0.459,0.5-0.799,1.1-0.799c0.63,0,1.1,0.34,1.1,0.799 M419.26,365.411c0,0.459-0.42,0.779-0.96,0.779
			c-0.52,0-0.95-0.32-0.95-0.779c0-0.42,0.42-0.73,0.96-0.73s0.971,0.301,0.971,0.721 M419.9,367.379c0-0.5-0.37-0.85-0.87-1.039
			c0.399-0.18,0.72-0.48,0.72-0.971c0-0.66-0.67-1.119-1.44-1.119c-0.75,0-1.42,0.459-1.42,1.1c0,0.5,0.33,0.801,0.721,0.98
			c-0.5,0.199-0.86,0.539-0.86,1.039c0,0.701,0.68,1.201,1.57,1.201c0.899,0,1.6-0.48,1.6-1.201 M415.48,364.411H415l-0.48,1.539
			h0.301l0.64-1.539H415.48z M413.08,365.61c0,0.5-0.4,0.961-1.05,0.961c-0.601,0-1.021-0.4-1.021-0.932c0-0.52,0.37-1,1-1
			S413.08,365.071,413.08,365.61 M413.66,366.311c0-0.861-0.2-1.301-0.521-1.641c-0.27-0.27-0.62-0.439-1.1-0.439
			c-0.9,0-1.5,0.629-1.5,1.439c0,0.76,0.6,1.299,1.45,1.299c0.6,0,0.96-0.299,1.2-0.658c0,1.068-0.5,1.84-1.261,1.84
			c-0.38,0-0.699-0.15-1.04-0.451l-0.27,0.359c0.34,0.301,0.74,0.5,1.28,0.5c1.04,0,1.75-0.93,1.75-2.27 M407.42,367.991l-1.13-1.5
			l1.08-1.441h-0.38l-0.9,1.201l-0.899-1.201h-0.4l1.1,1.432l-1.13,1.5h0.38l0.94-1.262l0.939,1.262h0.4V367.991z M402.29,364.389
			h-0.47l-0.471,1.551h0.301l0.64-1.539V364.389z M401.34,364.389h-0.47l-0.47,1.551h0.3l0.64-1.539V364.389z M396.79,364.731h2.3
			l-1.88,3.77h0.5l1.92-3.85v-0.361h-2.85v0.43L396.79,364.731z M395.42,364.401h-0.47l-0.47,1.539h0.299L395.42,364.401z
			 M393.09,366.401c0,0.93-0.5,1.729-1.27,1.729c-0.771,0-1.301-0.799-1.301-1.74c0-0.93,0.5-1.729,1.28-1.729
			c0.8,0,1.3,0.82,1.3,1.74 M393.58,366.401c0-1.201-0.68-2.182-1.76-2.182c-1.1,0-1.801,1-1.801,2.182
			c0,1.199,0.701,2.17,1.801,2.17C392.88,368.571,393.58,367.571,393.58,366.401 M387.18,364.629l0.101,0.381l0.8-0.24v3.74h0.46
			v-4.23h-0.351l-1.02,0.359L387.18,364.629z"/>
	</g>
	<g>
		<defs>
			<rect id="SVGID_91_" x="-57.04" y="57.42" width="541.22" height="714.741"/>
		</defs>
		<clipPath id="SVGID_92_">
			<use xlink:href="#SVGID_91_"  overflow="visible"/>
		</clipPath>
		<path clip-path="url(#SVGID_92_)" fill="#231F20" d="M422.14,356.741v3.77h0.521v-4.641h-0.53l-1.7,2.531l-1.699-2.541h-0.521
			v4.65h0.521v-3.75l1.699,2.48h0.021l1.7-2.5H422.14z M416.54,358.19c0,1.051-0.75,1.9-1.8,1.9c-1.08,0-1.851-0.859-1.851-1.92
			s0.75-1.92,1.801-1.92c1.079,0,1.85,0.869,1.85,1.93 M417.09,358.161c0-1.301-0.96-2.4-2.37-2.4c-1.42,0-2.38,1.119-2.38,2.4
			c0,1.299,0.95,2.398,2.36,2.398c1.43,0,2.399-1.1,2.399-2.398 M410.9,358.161c0,1.07-0.761,1.92-1.82,1.92
			c-1.07,0-1.84-0.861-1.84-1.92c0-1.061,0.76-1.92,1.819-1.92c1.07,0,1.841,0.869,1.841,1.93 M411.44,358.151
			c0-1.301-0.95-2.4-2.36-2.4c-1.42,0-2.4,1.119-2.4,2.4c0,1.299,0.971,2.398,2.38,2.398
			C410.48,360.549,411.44,359.45,411.44,358.151 M405.24,357.25c0,0.6-0.5,0.949-1.2,0.949h-1.42v-1.9h1.439
			c0.75,0,1.181,0.361,1.181,0.941 M405.94,360.481l-1.431-1.9c0.74-0.131,1.28-0.58,1.28-1.35c0-0.842-0.66-1.4-1.68-1.4h-2v4.66
			h0.52v-1.801h1.33l1.35,1.801h0.641L405.94,360.481z M400.44,358.18c0,1.029-0.75,1.83-1.931,1.83h-1.08v-3.701h1.101
			c1.17,0,1.92,0.82,1.92,1.861 M400.99,358.151c0-1.32-1-2.32-2.471-2.32h-1.6v4.648h1.6c1.471,0,2.48-1,2.48-2.318 M395.82,355.84
			h-3.36v4.65h3.399v-0.471h-2.879v-1.631h2.539v-0.479h-2.539v-1.602h2.84v-0.459V355.84z M389.74,360.02h-1.561v-1.65h1.471
			c0.8,0,1.229,0.301,1.229,0.801c0,0.529-0.44,0.84-1.14,0.84 M389.54,357.911h-1.37v-1.602h1.42c0.67,0,1.03,0.301,1.03,0.75
			c0,0.541-0.44,0.83-1.07,0.83 M389.65,355.821h-2v4.648h2.07c1.02,0,1.699-0.459,1.699-1.27c0-0.641-0.449-0.959-1-1.129
			c0.36-0.16,0.73-0.471,0.73-1.08c0-0.701-0.6-1.16-1.5-1.16"/>
	</g>
	<path fill="#FFFFFF" d="M79.28,59.16h33.15v44.2H79.28V59.16z M112.43,59.16h33.15v44.2h-33.15V59.16z M145.58,111v-7.64h-24.65
		V111h-8.5v41.66h33.15V111z M79.28,111h-20.4v17H46.13v25.5h33.15V111z"/>
	<path fill="#BBBDBF" d="M78.43,110.16v42.5h34v-30.6H89.48V111L78.43,110.16z"/>
	<path fill="#FFFFFF" d="M46.13,58.3h32.3v45.06h-13.6v-6.8h-4.25v-10.2H46.13V58.3z"/>
	<g>
		<defs>
			<rect id="SVGID_93_" x="-57.04" y="57.42" width="541.22" height="714.741"/>
		</defs>
		<clipPath id="SVGID_94_">
			<use xlink:href="#SVGID_93_"  overflow="visible"/>
		</clipPath>
		<path clip-path="url(#SVGID_94_)" fill="none" stroke="#000000" stroke-width="0.425" d="M56.38,105.15c0,1.8,1.46,3.25,3.25,3.25
			 M56.38,105.15h3.25v-0.18h-3.25V105.15z"/>
	</g>
	<path fill="none" stroke="#000000" stroke-width="0.452" d="M50,116.6h8.95 M46.75,117.8h12.2 M46.72,119h12.2 M46.76,120.2H59
		 M46.8,121.4H59 M46.8,122.6H59 M46.82,123.85H59"/>
	<path fill="none" stroke="#000000" stroke-width="0.425" d="M46.5,109.85h6.37 M46.49,111.05h6.37 M46.48,112.25h6.37
		 M46.47,113.45h6.37 M46.46,114.65h6.3 M46.33,115.85h5.48 M46.69,116.79h3.55"/>
	<path fill="none" stroke="#000000" stroke-width="1.18" d="M46.5,108.7h6.37"/>
	<path fill="none" stroke="#000000" stroke-width="0.425" d="M47,119.36l3.68-2.7l-0.2-0.55l0.93,0.9l-0.25-0.66l1.77-1.06"/>
	<path fill="none" stroke="#000000" stroke-width="0.452" d="M52.5,115.4h6.75"/>
	<path fill="#FFFFFF" d="M53.24,124.11h0.6V108.8h-0.6v15.33V124.11z M52.94,108.39h1.18v16.13h-1.17V108.4L52.94,108.39z"/>
	<path fill="none" stroke="#262626" stroke-width="0.495" d="M53.24,124.11h0.6V108.8h-0.6v15.33V124.11z M52.94,108.39h1.18v16.13
		h-1.17V108.4L52.94,108.39z"/>
	<g>
		<defs>
			<rect id="SVGID_95_" x="-57.04" y="57.42" width="541.22" height="714.741"/>
		</defs>
		<clipPath id="SVGID_96_">
			<use xlink:href="#SVGID_95_"  overflow="visible"/>
		</clipPath>
		<path clip-path="url(#SVGID_96_)" fill="none" stroke="#262626" stroke-width="2.065" stroke-miterlimit="10" d="M146,153.3H45.7
			V58.47H146V153.3z"/>
	</g>
	<g>
		<defs>
			<rect id="SVGID_97_" x="-57.04" y="57.42" width="541.22" height="714.741"/>
		</defs>
		<clipPath id="SVGID_98_">
			<use xlink:href="#SVGID_97_"  overflow="visible"/>
		</clipPath>
		<path clip-path="url(#SVGID_98_)" fill="none" stroke="#262626" stroke-width="1.18" stroke-miterlimit="10" d="M59.13,110.67
			h61.8v-7.37 M49.4,96.22h11.35 M49.1,104.2h10.03v0.87 M59.13,108.32v19.76H46.6 M45.85,104.33h3.4V86.2H60.9v10.6h3.98v6.94h47.8
			l0.05-0.88h8.06l-0.08-0.15h25.74 M79.03,153.61v-43.27 M112.53,153.61v-43.27 M112.53,103.01V59.12 M78.88,103V59.12"/>
	</g>
	<g>
		<defs>
			<rect id="SVGID_99_" x="-57.04" y="57.42" width="541.22" height="714.741"/>
		</defs>
		<clipPath id="SVGID_100_">
			<use xlink:href="#SVGID_99_"  overflow="visible"/>
		</clipPath>
		<path clip-path="url(#SVGID_100_)" fill="none" stroke="#000000" stroke-width="0.425" d="M103,111.06v5 M101.8,111.06v5
			 M100.6,111.06v5 M99.4,111.06v4.9 M98.2,111.06v4.9 M97,111.06v4.9 M95.78,111.06v1.66 M111.12,113.85
			c-1.8,0-3.27-1.47-3.27-3.27 M111.31,113.85h-0.17v-3.27h0.18v3.27H111.31z M77.89,113.77c-1.8,0-3.27-1.46-3.27-3.27
			 M78.09,113.77h-0.2v-3.27h0.2V113.77z M114.02,113.84c1.8,0,3.26-1.46,3.26-3.26 M113.83,113.85h0.2v-3.27h-0.2V113.85z
			 M81.13,113.77c1.82,0,3.3-1.46,3.3-3.27 M80.96,113.77h0.18v-3.27h-0.17v3.27H80.96z M114.64,99.12c1.82,0,3.28,1.47,3.28,3.27
			 M114.47,99.11h0.18v3.27h-0.17V99.1L114.47,99.11z M95.57,100.66c-1.8,0-3.27,1.46-3.27,3.27 M95.75,100.66h-0.17v3.27h0.18
			v-3.27H95.75z M68.1,103c0-1.8-1.47-3.26-3.28-3.26 M68.1,103.01h-3.3v0.2h3.28v-0.2H68.1z"/>
	</g>
	<path fill="none" stroke="#000000" stroke-width="1.18" d="M104.22,111.06v5"/>
	<path fill="none" stroke="#000000" stroke-width="0.425" d="M95.02,110.52l0.94,2.9l0.6-0.05l-1.1,0.7l0.7-0.1l0.6,2.13"/>
	<path fill="#FFFFFF" d="M93.2,116.8h11.36v-0.58H93.2v0.6V116.8z M104.86,117.1H92.9v-1.17h11.95v1.18L104.86,117.1z"/>
	<path fill="none" stroke="#262626" stroke-width="0.425" d="M93.2,116.8h11.36v-0.58H93.2v0.6V116.8z M104.86,117.1H92.9v-1.17
		h11.95v1.18L104.86,117.1z"/>
	<path fill="none" stroke="#000000" stroke-width="0.425" d="M95.68,114.06V116 M94.48,111.08V116 M93.28,111.08V116 M95.63,117.16
		v4.92 M94.43,117.16v4.92 M93.23,117.16v4.92 M104.31,117.14v5 M103.11,117.14v5 M101.91,117.14v5 M100.58,117.14v5 M99.38,117.14
		v4.9 M98.18,117.14v4.9 M96.98,117.14v4.9"/>
	<path fill="none" stroke="#262626" stroke-width="1.18" stroke-miterlimit="10" d="M89.07,110.67v11.36h23.6"/>
	<path d="M57.05,89.2h-3.37v1.56h2.98v0.93h-2.98v1.6h3.4v0.93h-4.44v-5.95h4.4v0.93H57.05z"/>
	<g>
		<defs>
			<rect id="SVGID_101_" x="-57.04" y="57.42" width="541.22" height="714.741"/>
		</defs>
		<clipPath id="SVGID_102_">
			<use xlink:href="#SVGID_101_"  overflow="visible"/>
		</clipPath>
		<path clip-path="url(#SVGID_102_)" fill="#231F20" d="M299.42,242.33l-2.939-3.73h-0.5v4.66h0.529v-3.82l3,3.8h0.43v-4.64h-0.5
			v3.73H299.42z M294.9,238.6h-3.36v4.66h3.399v-0.479h-2.879v-1.63h2.539v-0.48h-2.539v-1.6h2.84V238.6z M289.7,241.16v2.1h0.521
			v-4.66h-0.531v2.07H287v-2.07h-0.52v4.66h0.529v-2.1h2.7H289.7z M285.57,242.52l-0.35-0.34c-0.451,0.42-0.871,0.67-1.5,0.67
			c-1.031,0-1.801-0.85-1.801-1.93s0.76-1.9,1.801-1.9c0.629,0,1.069,0.25,1.459,0.62l0.36-0.38c-0.47-0.44-0.97-0.74-1.82-0.74
			c-1.37,0-2.35,1.08-2.35,2.4c0,1.36,1,2.42,2.33,2.42C284.55,243.34,285.08,243.01,285.57,242.52 M279.35,239.09h1.561v-0.5
			h-3.641v0.5h1.561v4.15h0.529v-4.16L279.35,239.09z M275.7,243.25h0.52v-4.66h-0.52V243.25z M272.75,240.62l2-2.03h-0.68
			l-2.68,2.78v-2.78h-0.531v4.66h0.521V242l1-1l1.771,2.26h0.66l-2.08-2.63L272.75,240.62z"/>
	</g>
	<g>
		<defs>
			<rect id="SVGID_103_" x="-57.04" y="57.42" width="541.22" height="714.741"/>
		</defs>
		<clipPath id="SVGID_104_">
			<use xlink:href="#SVGID_103_"  overflow="visible"/>
		</clipPath>
		<path clip-path="url(#SVGID_104_)" fill="#231F20" d="M466.4,275.37v1.561h0.5v-3.65h-0.5v1.561h-4.15v0.529h4.16H466.4z
			 M466.9,272.52v-3.37h-4.65v3.399h0.48v-2.869h1.619v2.54h0.48v-2.54h1.6v2.84H466.9L466.9,272.52z M465.74,265.299
			c0.42,0,0.76,0.4,0.76,1c0,0.471-0.16,0.9-0.5,1.341l0.4,0.3c0.369-0.471,0.569-0.95,0.569-1.63c0-0.88-0.54-1.521-1.279-1.521
			c-0.78,0-1.131,0.5-1.36,1.561c-0.2,0.98-0.45,1.199-0.9,1.199c-0.47,0-0.8-0.399-0.8-1.029s0.23-1.1,0.67-1.58l-0.38-0.33
			c-0.5,0.551-0.74,1.16-0.74,1.9c0,0.92,0.521,1.58,1.32,1.58c0.72,0,1.1-0.471,1.32-1.5c0.229-1.041,0.47-1.28,0.92-1.28
			 M464.57,263.28c-1.07,0-1.92-0.75-1.92-1.82c0-1.06,0.87-1.83,1.93-1.83s1.92,0.761,1.92,1.82
			C466.5,262.51,465.63,263.28,464.57,263.28 M464.57,263.831c1.3,0,2.399-0.951,2.399-2.371s-1.12-2.379-2.399-2.379
			c-1.3,0-2.4,0.949-2.4,2.369S463.29,263.831,464.57,263.831 M462.25,255.43v3.16h0.48v-2.62h4.17v-0.53h-4.65V255.43z
			 M462.98,254.53l0.34-0.359c-0.42-0.44-0.67-0.86-0.67-1.5c0-1.021,0.85-1.801,1.93-1.801s1.92,0.771,1.92,1.801
			c0,0.629-0.27,1.07-0.64,1.459l0.38,0.361c0.439-0.461,0.74-0.971,0.74-1.801c0-1.38-1.08-2.37-2.4-2.37c-1.36,0-2.4,1-2.4,2.351
			C462.18,253.51,462.48,254.049,462.98,254.53"/>
	</g>
	<g>
		<defs>
			<rect id="SVGID_105_" x="-57.04" y="57.42" width="541.22" height="714.741"/>
		</defs>
		<clipPath id="SVGID_106_">
			<use xlink:href="#SVGID_105_"  overflow="visible"/>
		</clipPath>
		<path clip-path="url(#SVGID_106_)" fill="#231F20" d="M388.9,271.85v-1.15h-0.351v2.7h0.351v-1.159h3.08v-0.4h-3.08V271.85z
			 M388.55,273.95v2.48h3.431v-2.5h-0.36v2.1h-1.2v-1.859h-0.35v1.869h-1.17v-2.1h-0.351V273.95z M389.4,279.27
			c-0.301,0-0.561-0.3-0.561-0.73c0-0.359,0.12-0.67,0.381-1l-0.301-0.22c-0.279,0.351-0.42,0.7-0.42,1.2
			c0,0.66,0.4,1.13,0.939,1.13c0.561,0,0.82-0.36,1-1.149c0.141-0.721,0.32-0.9,0.65-0.9c0.34,0,0.57,0.32,0.57,0.779
			c0,0.471-0.16,0.82-0.48,1.17l0.271,0.24c0.37-0.42,0.55-0.859,0.55-1.399c0-0.7-0.38-1.181-0.971-1.181
			c-0.529,0-0.799,0.36-0.979,1.121c-0.159,0.75-0.34,0.93-0.67,0.93 M390.25,280.76c0.779,0,1.4,0.55,1.4,1.34
			s-0.631,1.359-1.4,1.359s-1.42-0.56-1.42-1.34C388.83,281.32,389.46,280.76,390.25,280.76 M390.25,280.36
			c-0.971,0-1.78,0.7-1.78,1.75c0,1.051,0.8,1.76,1.761,1.76c0.949,0,1.77-0.699,1.77-1.74c0-1.049-0.82-1.76-1.77-1.76
			 M391.95,286.571v-2.33h-0.36v1.93h-3.07v0.4H391.95z M391.4,287.23l-0.25,0.261c0.319,0.319,0.5,0.629,0.5,1.1
			c0,0.76-0.621,1.33-1.42,1.33c-0.801,0-1.4-0.561-1.4-1.32c0-0.46,0.18-0.8,0.46-1.08l-0.3-0.26c-0.301,0.34-0.53,0.71-0.53,1.34
			c0,1,0.8,1.73,1.771,1.73c1,0,1.77-0.721,1.77-1.701c0-0.629-0.25-1.02-0.6-1.379"/>
	</g>
	<g>
		<defs>
			<rect id="SVGID_107_" x="-57.04" y="57.42" width="541.22" height="714.741"/>
		</defs>
		<clipPath id="SVGID_108_">
			<use xlink:href="#SVGID_107_"  overflow="visible"/>
		</clipPath>
		<path clip-path="url(#SVGID_108_)" fill="#231F20" d="M397.68,208.83v2.1h0.521v-4.66h-0.521v2.07h-2.699v-2.07h-0.5v4.66h0.5
			v-2.1H397.68z M391.92,206.75h1.561v-0.48h-3.66v0.48h1.57v4.17h0.52v-4.16L391.92,206.75z M388.52,209.22H386.4l1.06-2.37
			L388.52,209.22z M387.721,206.24h-0.5l-2.121,4.68h0.541l0.56-1.23h2.53l0.539,1.23h0.57l-2.119-4.7V206.24z M382.779,210.44
			h-1.559v-1.63h1.469c0.801,0,1.23,0.3,1.23,0.82s-0.439,0.83-1.15,0.83 M382.59,208.36h-1.38v-1.6h1.42c0.66,0,1.03,0.3,1.03,0.76
			c0,0.56-0.439,0.85-1.07,0.85 M382.67,206.29h-1.98v4.66h2.07c1.02,0,1.7-0.48,1.7-1.28c0-0.65-0.46-0.97-1-1.13
			c0.36-0.16,0.729-0.47,0.729-1.1C384.189,206.74,383.59,206.29,382.67,206.29"/>
	</g>
	<g>
		<defs>
			<rect id="SVGID_109_" x="-57.04" y="57.42" width="541.22" height="714.741"/>
		</defs>
		<clipPath id="SVGID_110_">
			<use xlink:href="#SVGID_109_"  overflow="visible"/>
		</clipPath>
		<path clip-path="url(#SVGID_110_)" fill="#231F20" d="M278.4,184.78h-0.881v1h0.871v-1H278.4z M275.6,183.68v2.1h0.53v-4.65h-0.53
			v2.07H272.9v-2.07h-0.5v4.65h0.5v-2.1H275.6z M271.471,185.04l-0.341-0.34c-0.45,0.43-0.87,0.68-1.5,0.68
			c-1.03,0-1.8-0.85-1.8-1.93c0-1.1,0.76-1.92,1.8-1.92c0.62,0,1.06,0.27,1.46,0.64l0.34-0.38c-0.459-0.45-0.97-0.75-1.8-0.75
			c-1.38,0-2.37,1.08-2.37,2.4c0,1.35,1,2.4,2.34,2.4C270.45,185.84,270.98,185.54,271.471,185.04 M266.391,181.12h-3.371v4.65h3.4
			v-0.48h-2.88v-1.63h2.54v-0.47h-2.55v-1.6h2.84v-0.47H266.391z M261.17,182v3.78h0.53v-4.65h-0.521l-1.699,2.54l-1.701-2.54h-0.52
			v4.65h0.5v-3.76l1.7,2.48h0.03L261.17,182z"/>
	</g>
	<g>
		<defs>
			<rect id="SVGID_111_" x="-57.04" y="57.42" width="541.22" height="714.741"/>
		</defs>
		<clipPath id="SVGID_112_">
			<use xlink:href="#SVGID_111_"  overflow="visible"/>
		</clipPath>
		<path clip-path="url(#SVGID_112_)" fill="#231F20" d="M378.26,242.2c1.04,0,1.84,0.76,1.84,1.94v1.1h-3.68v-1.1
			c0-1.18,0.801-1.93,1.84-1.93 M378.26,241.67c-1.32,0-2.33,1-2.33,2.48v1.6h4.66v-1.6c0-1.47-1.029-2.48-2.35-2.48 M380.58,247.14
			h-1v0.88h1v-0.87V247.14z M379.78,252.959l-3.87,1.33v0.57l4.699-1.66v-0.449l-3.799-1.28l3.799-1.28v-0.449l-4.699-1.671v0.55
			l3.88,1.34l-3.88,1.271v0.431l3.9,1.279L379.78,252.959z"/>
	</g>
	<g>
		<defs>
			<rect id="SVGID_113_" x="-57.04" y="57.42" width="541.22" height="714.741"/>
		</defs>
		<clipPath id="SVGID_114_">
			<use xlink:href="#SVGID_113_"  overflow="visible"/>
		</clipPath>
		<path clip-path="url(#SVGID_114_)" fill="#231F20" d="M271.92,356.459v3.771h0.52v-4.65h-0.529l-1.68,2.539l-1.701-2.539H268v4.65
			h0.5v-3.762l1.7,2.5h0.021l1.699-2.5V356.459z M266.32,357.92c0,1.061-0.75,1.9-1.801,1.9c-1.069,0-1.84-0.852-1.84-1.92
			c0-1.07,0.75-1.9,1.82-1.9c1.061,0,1.83,0.85,1.83,1.92 M266.88,357.901c0-1.301-0.95-2.4-2.37-2.4c-1.4,0-2.369,1.119-2.369,2.42
			c0,1.279,0.949,2.4,2.369,2.4s2.381-1.131,2.381-2.42 M260.689,357.92c0,1.061-0.76,1.9-1.819,1.9s-1.84-0.852-1.84-1.92
			c0-1.07,0.76-1.9,1.83-1.9C259.93,356,260.689,356.85,260.689,357.92 M261.24,357.901c0-1.301-0.961-2.4-2.37-2.4
			c-1.41,0-2.38,1.119-2.38,2.42c0,1.279,0.95,2.4,2.37,2.4C260.26,360.321,261.24,359.19,261.24,357.901 M255.04,357
			c0,0.6-0.5,0.949-1.2,0.949h-1.43v-1.879h1.44c0.75,0,1.2,0.34,1.2,0.92 M255.75,360.231l-1.44-1.9
			c0.73-0.141,1.26-0.6,1.26-1.371c0-0.84-0.66-1.4-1.68-1.4h-2v4.672h0.52v-1.82h1.33l1.35,1.82h0.65H255.75z"/>
	</g>
	<g>
		<defs>
			<rect id="SVGID_115_" x="-57.04" y="57.42" width="541.22" height="714.741"/>
		</defs>
		<clipPath id="SVGID_116_">
			<use xlink:href="#SVGID_115_"  overflow="visible"/>
		</clipPath>
		<path clip-path="url(#SVGID_116_)" fill="#231F20" d="M287.75,351.1v-1.85h-1.93v0.469h1.42v1.16
			c-0.32,0.26-0.801,0.461-1.35,0.461c-1.131,0-1.851-0.82-1.851-1.939c0-1.041,0.739-1.9,1.771-1.9c0.66,0,1.06,0.199,1.42,0.52
			l0.34-0.4c-0.471-0.4-0.95-0.619-1.74-0.619c-1.4,0-2.33,1.129-2.33,2.42c0,1.33,0.9,2.4,2.38,2.4
			C286.66,351.821,287.311,351.491,287.75,351.1 M281.891,350.799l-2.951-3.719h-0.5v4.66h0.521v-3.82l3,3.82h0.431v-4.66h-0.5
			v3.729V350.799z M276.561,351.741h0.529v-4.66h-0.529V351.741z M273.359,351.09l-1.639-4.02h-0.601l2,4.699h0.479l2-4.699h-0.55
			l-1.67,4L273.359,351.09z M269.641,351.719h0.529v-4.648h-0.529v4.66V351.719z M265.48,351.719h3.129v-0.479H266v-4.17h-0.5v4.66
			L265.48,351.719z M263.141,350.719h-0.881v1h0.881V350.719z M260.29,351.09v-1.85h-1.899v0.469h1.399v1.16
			c-0.3,0.26-0.8,0.461-1.33,0.461c-1.14,0-1.85-0.82-1.85-1.941c0-1.039,0.74-1.898,1.77-1.898c0.65,0,1.05,0.199,1.4,0.52
			l0.35-0.4c-0.47-0.4-0.95-0.619-1.739-0.619c-1.38,0-2.321,1.129-2.321,2.42c0,1.33,0.9,2.398,2.37,2.398
			c0.781,0,1.431-0.328,1.86-0.719 M254.46,350.79l-2.94-3.719h-0.5v4.66h0.52v-3.82l3,3.82h0.43v-4.66h-0.5v3.729L254.46,350.79z
			 M249.14,351.731h0.53v-4.66h-0.53V351.731z M247.27,350.799l-2.93-3.719h-0.5v4.66h0.52v-3.82l3,3.82h0.42v-4.66h-0.5v3.73
			L247.27,350.799z M241.95,351.741h0.53v-4.66h-0.53V351.741z M240.25,349.42c0,1.029-0.75,1.83-1.93,1.83h-1.1v-3.68h1.1
			C239.5,347.571,240.25,348.37,240.25,349.42 M240.8,349.401c0-1.301-1-2.32-2.48-2.32h-1.6v4.66h1.6
			C239.79,351.741,240.8,350.719,240.8,349.401"/>
	</g>
	<g>
		<defs>
			<rect id="SVGID_117_" x="-57.04" y="57.42" width="541.22" height="714.741"/>
		</defs>
		<clipPath id="SVGID_118_">
			<use xlink:href="#SVGID_117_"  overflow="visible"/>
		</clipPath>
		<path clip-path="url(#SVGID_118_)" fill="#231F20" d="M354.57,271.92h-3.35v4.649h0.52v-2.021h2.529v-0.479h-2.529v-1.659h2.82
			v-0.48L354.57,271.92z M350.13,271.92h-3.37v4.649h3.4v-0.47h-2.87v-1.63h2.53V274h-2.541V272.4h2.83v-0.479H350.13z
			 M345.109,273.32c0,0.62-0.5,0.97-1.199,0.97h-1.42v-1.899h1.439c0.75,0,1.2,0.351,1.2,0.93 M345.83,276.57l-1.439-1.899
			c0.729-0.141,1.26-0.601,1.26-1.371c0-0.829-0.66-1.379-1.68-1.379h-2v4.649h0.52v-1.8h1.33l1.359,1.8H345.83L345.83,276.57z"/>
	</g>
	<g>
		<defs>
			<rect id="SVGID_119_" x="-57.04" y="57.42" width="541.22" height="714.741"/>
		</defs>
		<clipPath id="SVGID_120_">
			<use xlink:href="#SVGID_119_"  overflow="visible"/>
		</clipPath>
		<path clip-path="url(#SVGID_120_)" fill="#231F20" d="M351.1,240.6l-1.32-3.86h-0.569l1.67,4.68h0.44l1.3-3.77l1.271,3.77h0.449
			l1.66-4.7h-0.55l-1.33,3.9l-1.28-3.9h-0.43l-1.301,3.9L351.1,240.6z M348.15,239.07c0,1.04-0.75,1.83-1.93,1.83h-1.101v-3.68
			h1.101C347.4,237.22,348.15,238.02,348.15,239.07 M348.7,239.07c0-1.33-1-2.33-2.48-2.33h-1.6v4.65h1.6
			c1.47,0,2.48-1.03,2.48-2.34"/>
	</g>
</g>
<g>
	<defs>
		<rect id="SVGID_121_" x="45.65" y="158.88" width="100.15" height="4.56"/>
	</defs>
	<clipPath id="SVGID_122_">
		<use xlink:href="#SVGID_121_"  overflow="visible"/>
	</clipPath>
	<path clip-path="url(#SVGID_122_)" fill="#231F20" d="M145.8,159.25v-0.3h-3.4v0.3h1.53v4.1h0.33v-4.1H145.8z M140,163.35v-0.3
		h-2.84v-1.76h2.53v-0.3h-2.54v-1.75h2.8v-0.3h-3.13v4.4H140V163.35z M134.13,163.35v-0.3h-2.84v-1.76h2.5v-0.3h-2.5v-1.75h2.8v-0.3
		h-3.14v4.4h3.17L134.13,163.35z M127.85,160.23c0,0.64-0.54,1-1.28,1h-1.5v-1.98h1.52c0.8,0,1.26,0.38,1.26,0.97V160.23z
		 M128.35,163.36l-1.46-1.88c0.73-0.1,1.28-0.52,1.28-1.26v-0.02c0-0.73-0.62-1.25-1.57-1.25h-1.84v4.4h0.32v-1.8h1.44l1.4,1.8h0.42
		L128.35,163.36z M122.11,159.26v-0.3h-3.4v0.3h1.54v4.1h0.33v-4.1h1.54H122.11z M116.39,162.22c0-0.65-0.43-1.02-1.45-1.23
		c-1.04-0.22-1.28-0.5-1.28-0.97s0.43-0.85,1.08-0.85c0.48,0,0.9,0.14,1.3,0.5l0.22-0.26c-0.45-0.35-0.87-0.53-1.5-0.53
		c-0.83,0-1.43,0.5-1.43,1.15c0,0.68,0.43,1.04,1.5,1.25c1,0.2,1.23,0.47,1.23,0.94c0,0.52-0.45,0.9-1.1,0.9
		c-0.66,0-1.1-0.22-1.6-0.66l-0.2,0.24c0.52,0.48,1.06,0.7,1.77,0.7c0.85,0,1.46-0.5,1.46-1.2 M105.23,163.34v-4.4h-0.3v3.83
		l-3.06-3.85h-0.3v4.4h0.3v-3.9l3.1,3.9h0.26V163.34z M98.46,161.14c0,1.1-0.78,1.98-1.87,1.98c-1.09,0-1.9-0.9-1.9-1.98v-0.02
		c0-1.1,0.8-1.97,1.88-1.97c1.08,0,1.88,0.9,1.88,2L98.46,161.14z M98.8,161.14c0,0,0,0,0-0.02c0-1.2-0.9-2.27-2.23-2.27
		c-1.33,0-2.22,1.08-2.22,2.3c0,1.2,0.88,2.27,2.2,2.27c1.35,0,2.24-1.08,2.24-2.28 M92.24,159.24v-0.3h-3.4v0.3h1.53v4.1h0.33v-4.1
		h1.55H92.24z M86.44,162.76v-1.7h-1.8v0.3h1.48v1.26c-0.32,0.28-0.84,0.5-1.4,0.5c-1.18,0-1.9-0.84-1.9-1.98v-0.02
		c0-1.06,0.76-1.97,1.83-1.97c0.67,0,1.07,0.23,1.42,0.53l0.2-0.24c-0.43-0.37-0.9-0.58-1.6-0.58c-1.32,0-2.18,1.1-2.18,2.28
		c0,1.25,0.82,2.28,2.2,2.28C85.42,163.42,86.04,163.12,86.44,162.76 M79.72,163.34v-4.4H79.4v3.83l-3.03-3.85h-0.3v4.4h0.3v-3.9
		l3.1,3.9h0.26L79.72,163.34z M73.04,158.94h-0.32v4.4h0.32V158.94z M69.71,163.34v-4.4h-0.33v2.03h-2.83v-2.05h-0.33v4.4h0.33
		v-2.05h2.82v2.06h0.32L69.71,163.34z M63.51,162.2c0-0.65-0.44-1.02-1.46-1.23c-1.04-0.22-1.28-0.5-1.28-0.97
		c0-0.47,0.43-0.85,1.07-0.85c0.5,0,0.9,0.14,1.32,0.5l0.2-0.26c-0.44-0.35-0.86-0.53-1.5-0.53c-0.82,0-1.42,0.5-1.42,1.15
		c0,0.68,0.43,1.04,1.5,1.25c1,0.2,1.23,0.47,1.23,0.94c0,0.52-0.45,0.9-1.1,0.9c-0.66,0-1.1-0.22-1.6-0.66l-0.2,0.24
		c0.52,0.48,1.06,0.7,1.77,0.7c0.85,0,1.46-0.5,1.46-1.2 M57,161.78h-2.3l1.17-2.54l1.16,2.55L57,161.78z M58.07,163.32l-2.07-4.4
		h-0.3l-2.06,4.44h0.34l0.57-1.23h2.6l0.56,1.23h0.37L58.07,163.32z M51.97,158.92h-0.34l-1.4,3.92l-1.28-3.94h-0.26l-1.3,3.94
		l-1.38-3.93h-0.37l1.6,4.44h0.27l1.3-3.84l1.28,3.83h0.27l1.6-4.45L51.97,158.92z"/>
</g>
<g id="Layer_1_1_">
	<g>
		<polygon points="45.65,375.055 78.568,357.761 78.568,393.562 		"/>
		<polygon points="121.499,375.055 88.581,357.761 88.581,393.562 		"/>
		<polygon points="83.117,309.976 64.916,375.816 101.218,375.816 		"/>
		<g>
			<polygon fill="#FFFFFF" points="65.72,376.266 100.411,376.266 83.017,436.865 			"/>
			<path d="M99.606,376.873l-16.587,57.786l-16.495-57.786H99.606 M101.218,375.66H64.916l18.099,63.41L101.218,375.66
				L101.218,375.66z"/>
		</g>
		<g>
			<path fill="#FFFFFF" d="M87.284,355.034h3.148v18.227h-2.682l-10.05-12.966v12.966h-3.15v-18.227h2.968l9.763,12.603v-12.603
				H87.284z"/>
		</g>
	</g>
</g>
</svg>
