<?xml version="1.0" encoding="utf-8"?>
<!-- Generator: Adobe Illustrator 15.0.2, SVG Export Plug-In . SVG Version: 6.00 Build 0)  -->
<!DOCTYPE svg PUBLIC "-//W3C//DTD SVG 1.1//EN" "http://www.w3.org/Graphics/SVG/1.1/DTD/svg11.dtd">
<svg version="1.1" id="Layer_1" xmlns="http://www.w3.org/2000/svg" xmlns:xlink="http://www.w3.org/1999/xlink" x="0px" y="0px"
	 width="513.359px" height="495.36px" viewBox="0 0 513.359 495.36" enable-background="new 0 0 513.359 495.36"
	 xml:space="preserve">
<g>
	<path fill="#FFFFFF" d="M78.92,59.07h33.15v44.2H78.92V59.07z M112.07,59.07h33.15v44.2h-33.15V59.07z M145.22,110.92v-7.65h-24.65
		v7.65h-8.5v41.65h33.15V110.92z M78.92,110.92h-20.4v17H45.77v25.5h33.15V110.92z"/>
	<path fill="#BBBDBF" d="M78.07,110.07v42.5h34v-30.6H89.12v-11.05L78.07,110.07z"/>
	<path fill="#FFFFFF" d="M45.77,58.22h32.3v45.05h-13.6v-6.8h-4.25v-10.2H45.77V58.22z"/>
	<g>
		<defs>
			<rect id="SVGID_1_" x="-57.04" y="57.34" width="541.22" height="714.821"/>
		</defs>
		<clipPath id="SVGID_2_">
			<use xlink:href="#SVGID_1_"  overflow="visible"/>
		</clipPath>
		<path clip-path="url(#SVGID_2_)" fill="none" stroke="#000000" stroke-width="0.425" d="M56.03,105.07c0,1.8,1.46,3.25,3.25,3.25
			 M56.03,105.07h3.25v-0.2h-3.25V105.07z"/>
	</g>
	<path fill="none" stroke="#000000" stroke-width="0.452" d="M49.64,116.52h8.96 M46.38,117.72H58.6 M46.37,118.92h12.2
		 M46.41,120.12h12.24 M46.45,121.32h12.2 M46.45,122.52h12.2 M46.48,123.76h12.17"/>
	<path fill="none" stroke="#000000" stroke-width="0.425" d="M46.14,109.76h6.38 M46.14,110.96h6.38 M46.14,112.16h6.38
		 M46.14,113.36h6.38 M46.14,114.56h6.32 M46.02,115.76h5.47 M46.36,116.7h3.56"/>
	<path fill="none" stroke="#000000" stroke-width="1.18" d="M46.14,108.63h6.38"/>
	<path fill="none" stroke="#000000" stroke-width="0.425" d="M46.66,119.27l3.66-2.7l-0.2-0.55l0.94,0.88l-0.26-0.64l1.77-1.07"/>
	<path fill="none" stroke="#000000" stroke-width="0.452" d="M52.14,115.32h6.76"/>
	<path fill="#FFFFFF" d="M52.9,124.03h0.58V108.7h-0.6v15.33H52.9z M52.6,108.3h1.17v16.13H52.6V108.3z"/>
	<path fill="none" stroke="#262626" stroke-width="0.495" d="M52.9,124.03h0.58V108.7h-0.6v15.33H52.9z M52.6,108.3h1.17v16.13H52.6
		V108.3z"/>
	<g>
		<defs>
			<rect id="SVGID_3_" x="-57.04" y="57.34" width="541.22" height="714.821"/>
		</defs>
		<clipPath id="SVGID_4_">
			<use xlink:href="#SVGID_3_"  overflow="visible"/>
		</clipPath>
		<path clip-path="url(#SVGID_4_)" fill="none" stroke="#262626" stroke-width="2.065" stroke-miterlimit="10" d="M145.66,153.22
			H45.36V58.37h100.3V153.22z"/>
	</g>
	<g>
		<defs>
			<rect id="SVGID_5_" x="-57.04" y="57.34" width="541.22" height="714.821"/>
		</defs>
		<clipPath id="SVGID_6_">
			<use xlink:href="#SVGID_5_"  overflow="visible"/>
		</clipPath>
		<path clip-path="url(#SVGID_6_)" fill="none" stroke="#262626" stroke-width="1.18" stroke-miterlimit="10" d="M58.77,110.6h61.8
			v-7.4 M49.04,96.13H60.4 M48.74,104.1h10.03v0.88 M58.77,108.23V128H46.23 M45.5,104.25h3.4V86.1h11.64v10.62h4v6.94h47.78
			l0.06-0.88h8.05l-0.07-0.16h25.74 M78.7,153.52v-43.28 M112.17,153.51v-43.26 M112.17,102.93v-43.9 M78.54,102.93v-43.9"/>
	</g>
	<g>
		<defs>
			<rect id="SVGID_7_" x="-57.04" y="57.34" width="541.22" height="714.821"/>
		</defs>
		<clipPath id="SVGID_8_">
			<use xlink:href="#SVGID_7_"  overflow="visible"/>
		</clipPath>
		<path clip-path="url(#SVGID_8_)" fill="none" stroke="#000000" stroke-width="0.425" d="M102.66,110.97V116 M101.46,110.97V116
			 M100.26,110.97V116 M99.04,110.97v4.92 M97.84,110.96v4.92 M96.64,110.95v4.92 M95.44,110.94v1.67 M110.77,113.73
			c-1.8,0-3.27-1.46-3.27-3.27 M110.96,113.72h-0.2v-3.27h0.2v3.26V113.72z M77.53,113.65c-1.8,0-3.27-1.48-3.27-3.28 M77.72,113.64
			h-0.2v-3.28h0.2v3.27V113.64z M113.64,113.7c1.8,0,3.27-1.46,3.27-3.27 M113.46,113.69h0.2v-3.27h-0.2v3.26V113.69z M80.76,113.62
			c1.82,0,3.28-1.48,3.28-3.28 M80.58,113.61h0.2v-3.28h-0.2v3.27V113.61z M114.28,98.94c1.8,0,3.26,1.47,3.26,3.27 M114.08,98.94
			h0.2v3.27h-0.2V98.94z M95.18,100.49c-1.8,0-3.27,1.47-3.27,3.27 M95.37,100.49h-0.2v3.27h0.2V100.49z M67.73,102.83
			c0-1.8-1.46-3.27-3.27-3.27 M67.73,102.83h-3.27v0.2h3.27V102.83z"/>
	</g>
	<path fill="none" stroke="#000000" stroke-width="1.18" d="M103.86,110.97V116"/>
	<path fill="none" stroke="#000000" stroke-width="0.425" d="M94.67,110.43l0.93,2.9l0.6-0.05l-1.1,0.7l0.7-0.1l0.6,2.13"/>
	<path fill="#FFFFFF" d="M92.85,116.72h11.36v-0.6H92.86v0.6H92.85z M104.5,117.02H92.55v-1.18h11.95V117.02z"/>
	<path fill="none" stroke="#262626" stroke-width="0.425" d="M92.85,116.72h11.36v-0.6H92.86v0.6H92.85z M104.5,117.02H92.55v-1.18
		h11.95V117.02z"/>
	<path fill="none" stroke="#000000" stroke-width="0.425" d="M95.33,113.97v1.94 M94.13,111.01v4.9 M92.93,111.01v4.9 M95.28,117.08
		V122 M94.08,117.07V122 M92.88,117.07V122 M103.96,117.05v5 M102.76,117.05v5 M101.56,117.05v5 M100.22,117.05v5 M99.02,117.05
		v4.92 M97.82,117.05v4.92 M96.62,117.05v4.92"/>
	<path fill="none" stroke="#262626" stroke-width="1.18" stroke-miterlimit="10" d="M88.72,110.6v11.35h23.6"/>
	<path d="M56.7,89.13h-3.37v1.54h2.98v0.94h-2.97v1.6h3.4v0.94H52.3V88.2h4.4v0.92V89.13z"/>
	<g>
		<defs>
			<rect id="SVGID_9_" x="-57.04" y="57.34" width="541.22" height="714.821"/>
		</defs>
		<clipPath id="SVGID_10_">
			<use xlink:href="#SVGID_9_"  overflow="visible"/>
		</clipPath>
		<path clip-path="url(#SVGID_10_)" fill="#231F20" d="M299.061,241.24l-2.931-3.73h-0.5v4.67h0.521v-3.82l3,3.82h0.43v-4.66h-0.52
			v3.74V241.24z M294.561,237.51h-3.381v4.67h3.4v-0.48h-2.87v-1.64h2.55v-0.48h-2.54v-1.6h2.851v-0.47H294.561z M289.34,240.08v2.1
			h0.53v-4.66h-0.53v2.08h-2.68v-2.07h-0.53v4.67h0.53v-2.1h2.68V240.08z M285.21,241.44l-0.33-0.34c-0.45,0.42-0.87,0.66-1.5,0.66
			c-1.03,0-1.8-0.84-1.8-1.92s0.76-1.92,1.8-1.92c0.63,0,1.06,0.27,1.46,0.64l0.36-0.4c-0.48-0.43-1-0.73-1.83-0.73
			c-1.37,0-2.351,1.1-2.351,2.42c0,1.34,1,2.4,2.33,2.4c0.84,0,1.381-0.33,1.86-0.82 M279,238h1.561v-0.5h-3.66v0.5h1.56v4.17H279
			V238z M275.35,242.17h0.521v-4.66h-0.521v4.67V242.17z M272.4,239.55l2-2.04h-0.68l-2.681,2.8v-2.8h-0.521v4.67h0.521v-1.25l1-1
			l1.78,2.25h0.66l-2.08-2.62V239.55z"/>
	</g>
	<g>
		<defs>
			<rect id="SVGID_11_" x="-57.04" y="57.34" width="541.22" height="714.821"/>
		</defs>
		<clipPath id="SVGID_12_">
			<use xlink:href="#SVGID_11_"  overflow="visible"/>
		</clipPath>
		<path clip-path="url(#SVGID_12_)" fill="#231F20" d="M466.06,275.299v1.551h0.5v-3.66h-0.5v1.55h-4.17v0.53h4.16L466.06,275.299z
			 M466.56,272.43v-3.36h-4.67v3.4h0.471v-2.88H464v2.529h0.48v-2.539h1.6v2.83h0.47L466.56,272.43z M465.38,265.23
			c0.43,0,0.76,0.37,0.76,0.979c0,0.5-0.149,0.92-0.5,1.351l0.4,0.3c0.38-0.47,0.57-0.949,0.57-1.63c0-0.88-0.521-1.53-1.261-1.53
			c-0.77,0-1.119,0.48-1.35,1.551c-0.22,0.979-0.47,1.219-0.9,1.219c-0.479,0-0.8-0.42-0.8-1.039c0-0.65,0.22-1.1,0.65-1.6
			l-0.38-0.32c-0.5,0.57-0.75,1.17-0.75,1.9c0,0.93,0.52,1.6,1.33,1.6c0.699,0,1.1-0.48,1.319-1.521
			c0.221-1.021,0.471-1.26,0.9-1.26 M464.21,263.2c-1.05,0-1.9-0.77-1.9-1.83c0-1.07,0.86-1.84,1.931-1.84
			c1.06,0,1.899,0.76,1.899,1.82s-0.85,1.84-1.92,1.84 M464.25,263.719c1.3,0,2.4-0.949,2.4-2.359c0-1.42-1.131-2.4-2.421-2.4
			s-2.399,0.971-2.399,2.381c0,1.42,1.14,2.38,2.43,2.38 M461.92,255.32v3.16h0.48v-2.63h4.17v-0.53h-4.66H461.92z M462.65,254.42
			l0.34-0.351c-0.431-0.45-0.67-0.87-0.67-1.5c0-1.03,0.84-1.8,1.93-1.8s1.9,0.76,1.9,1.8c0,0.63-0.25,1.06-0.631,1.46l0.4,0.36
			c0.43-0.47,0.73-0.97,0.73-1.82c0-1.37-1.101-2.35-2.421-2.35c-1.329,0-2.399,1-2.399,2.329c0,0.851,0.34,1.381,0.83,1.861"/>
	</g>
	<g>
		<defs>
			<rect id="SVGID_13_" x="-57.04" y="57.34" width="541.22" height="714.821"/>
		</defs>
		<clipPath id="SVGID_14_">
			<use xlink:href="#SVGID_13_"  overflow="visible"/>
		</clipPath>
		<path clip-path="url(#SVGID_14_)" fill="#231F20" d="M388.55,271.7v-1.16h-0.36v2.701h0.351v-1.16h3.069v-0.4h-3.069L388.55,271.7
			z M388.189,273.799v2.471h3.42v-2.5h-0.35v2.1h-1.199v-1.859h-0.351v1.88h-1.17v-2.101h-0.36L388.189,273.799z M389.04,279.1
			c-0.3,0-0.56-0.28-0.56-0.721c0-0.35,0.1-0.67,0.359-1l-0.3-0.199c-0.271,0.33-0.42,0.699-0.42,1.199
			c0,0.641,0.399,1.121,0.94,1.121c0.569,0,0.819-0.36,1-1.15c0.149-0.73,0.33-0.9,0.649-0.9c0.351,0,0.601,0.301,0.601,0.771
			c0,0.479-0.17,0.819-0.5,1.18l0.299,0.229c0.36-0.399,0.541-0.85,0.541-1.399c0-0.681-0.381-1.17-0.98-1.17
			c-0.529,0-0.82,0.36-0.98,1.12c-0.16,0.75-0.34,0.93-0.67,0.93 M389.88,280.61c0.8,0,1.42,0.561,1.42,1.35
			c0,0.791-0.63,1.351-1.42,1.351s-1.399-0.56-1.399-1.34S389.109,280.61,389.88,280.61 M389.88,280.209
			c-0.95,0-1.771,0.701-1.771,1.75c0,1.051,0.83,1.75,1.781,1.75c0.959,0,1.779-0.699,1.779-1.739c0-1.05-0.83-1.761-1.779-1.761
			 M391.609,286.411v-2.33h-0.359V286h-3.07v0.399h3.42L391.609,286.411z M391.07,287.07l-0.25,0.261c0.3,0.33,0.5,0.629,0.5,1.1
			c0,0.76-0.631,1.33-1.43,1.33c-0.801,0-1.4-0.57-1.4-1.33c0-0.46,0.199-0.78,0.46-1.07l-0.28-0.27c-0.33,0.34-0.55,0.72-0.55,1.34
			c0,1,0.8,1.73,1.78,1.73c1,0,1.779-0.73,1.779-1.721c0-0.619-0.24-1-0.6-1.369"/>
	</g>
	<g>
		<defs>
			<rect id="SVGID_15_" x="-57.04" y="57.34" width="541.22" height="714.821"/>
		</defs>
		<clipPath id="SVGID_16_">
			<use xlink:href="#SVGID_15_"  overflow="visible"/>
		</clipPath>
		<path clip-path="url(#SVGID_16_)" fill="#231F20" d="M397.32,208.74v2.1h0.529v-4.66h-0.529v2.07h-2.68v-2.07h-0.531v4.66h0.541
			v-2.1h2.68H397.32z M391.57,206.67h1.56v-0.5h-3.659v0.5h1.559v4.17h0.531v-4.17H391.57z M388.17,209.14h-2.12l1.06-2.38
			l1.07,2.38H388.17z M387.37,206.14h-0.5l-2.12,4.7h0.54l0.54-1.23h2.54l0.54,1.24h0.561l-2.121-4.7L387.37,206.14z M382.43,210.37
			h-1.56v-1.65h1.47c0.801,0,1.24,0.3,1.24,0.8C383.58,210.05,383.141,210.37,382.43,210.37 M382.23,208.27h-1.36v-1.6h1.399
			c0.681,0,1.041,0.28,1.041,0.75c0,0.55-0.431,0.84-1.061,0.84 M382.35,206.18h-2v4.66h2.08c1,0,1.68-0.47,1.68-1.28
			c0-0.64-0.439-0.96-1-1.13c0.371-0.16,0.74-0.47,0.74-1.08C383.85,206.65,383.25,206.18,382.35,206.18"/>
	</g>
	<g>
		<defs>
			<rect id="SVGID_17_" x="-57.04" y="57.34" width="541.22" height="714.821"/>
		</defs>
		<clipPath id="SVGID_18_">
			<use xlink:href="#SVGID_17_"  overflow="visible"/>
		</clipPath>
		<path clip-path="url(#SVGID_18_)" fill="#231F20" d="M279.04,184.7h-0.88v1h0.869v-1H279.04z M276.24,183.6v2.1h0.529v-4.66h-0.52
			v2.07h-2.7v-2.06h-0.52v4.66h0.53v-2.1h2.699L276.24,183.6z M272.12,184.96l-0.351-0.34c-0.449,0.42-0.859,0.67-1.5,0.67
			c-1.029,0-1.799-0.86-1.799-1.94s0.77-1.9,1.799-1.9c0.631,0,1.07,0.25,1.461,0.62l0.359-0.38c-0.48-0.44-0.98-0.74-1.83-0.74
			c-1.369,0-2.35,1.1-2.35,2.42c0,1.34,1,2.4,2.33,2.4c0.85,0,1.38-0.33,1.869-0.82 M267.029,181.03h-3.369v4.66h3.4v-0.48h-2.871
			v-1.63h2.541v-0.5h-2.541v-1.58h2.84v-0.48V181.03z M261.83,181.93v3.76h0.5v-4.66h-0.52l-1.701,2.54l-1.699-2.54h-0.52v4.66h0.5
			v-3.77l1.699,2.5h0.03l1.7-2.5L261.83,181.93z"/>
	</g>
	<g>
		<defs>
			<rect id="SVGID_19_" x="-57.04" y="57.34" width="541.22" height="714.821"/>
		</defs>
		<clipPath id="SVGID_20_">
			<use xlink:href="#SVGID_19_"  overflow="visible"/>
		</clipPath>
		<path clip-path="url(#SVGID_20_)" fill="#231F20" d="M377.9,242.12c1.05,0,1.85,0.75,1.85,1.93v1.1h-3.7v-1.1
			c0-1.18,0.82-1.93,1.86-1.93 M377.91,241.58c-1.32,0-2.32,1-2.32,2.47v1.62h4.65v-1.62C380.24,242.59,379.24,241.58,377.91,241.58
			 M380.24,247.05h-1v0.87h1V247.05z M379.46,252.85l-3.87,1.34v0.57l4.7-1.67v-0.44l-3.8-1.28l3.8-1.27v-0.439l-4.7-1.661v0.549
			l3.87,1.33l-3.899,1.281v0.43L379.46,252.85L379.46,252.85z"/>
	</g>
	<g>
		<defs>
			<rect id="SVGID_21_" x="-57.04" y="57.34" width="541.22" height="714.821"/>
		</defs>
		<clipPath id="SVGID_22_">
			<use xlink:href="#SVGID_21_"  overflow="visible"/>
		</clipPath>
		<path clip-path="url(#SVGID_22_)" fill="#231F20" d="M274.561,353.549v3.771h0.529v-4.65h-0.54l-1.7,2.539l-1.699-2.529h-0.521
			v4.65h0.5v-3.76l1.7,2.479h0.029L274.561,353.549z M269,355c0,1.059-0.76,1.92-1.82,1.92c-1.06,0-1.84-0.871-1.84-1.93
			c0-1.061,0.76-1.932,1.82-1.932c1.07,0,1.84,0.871,1.84,1.932 M269.54,354.991c0-1.301-0.95-2.4-2.36-2.4
			c-1.42,0-2.38,1.1-2.38,2.4c0,1.299,0.95,2.398,2.36,2.398C268.58,357.389,269.54,356.27,269.54,354.991 M263.34,354.991
			c0,1.059-0.75,1.92-1.8,1.92c-1.08,0-1.851-0.871-1.851-1.93c0-1.061,0.761-1.932,1.82-1.932c1.061,0,1.83,0.871,1.83,1.932
			 M263.88,354.981c0-1.301-0.95-2.4-2.36-2.4s-2.379,1.1-2.379,2.4c0,1.299,0.959,2.398,2.369,2.398
			C262.91,357.379,263.88,356.26,263.88,354.981 M257.68,354.059c0,0.602-0.5,0.961-1.2,0.961h-1.42v-1.9h1.43
			c0.76,0,1.199,0.361,1.199,0.939 M258.391,357.299l-1.44-1.898c0.729-0.131,1.271-0.58,1.271-1.361c0-0.84-0.65-1.4-1.681-1.4h-2
			v4.66h0.53V355.5h1.33l1.35,1.799H258.391L258.391,357.299z"/>
	</g>
	<g>
		<defs>
			<rect id="SVGID_23_" x="-57.04" y="57.34" width="541.22" height="714.821"/>
		</defs>
		<clipPath id="SVGID_24_">
			<use xlink:href="#SVGID_23_"  overflow="visible"/>
		</clipPath>
		<path clip-path="url(#SVGID_24_)" fill="#231F20" d="M290.4,348.2v-1.859h-1.93v0.469h1.42v1.172
			c-0.33,0.26-0.82,0.459-1.36,0.459c-1.13,0-1.841-0.82-1.841-1.939c0-1.051,0.74-1.92,1.771-1.92c0.66,0,1.06,0.199,1.42,0.529
			l0.33-0.4c-0.47-0.379-0.95-0.6-1.739-0.6c-1.4,0-2.341,1.121-2.341,2.4c0,1.34,0.9,2.4,2.36,2.4c0.8,0,1.439-0.32,1.869-0.701
			 M284.49,347.911l-2.93-3.73h-0.5v4.65h0.52v-3.801l3,3.801h0.43v-4.65h-0.52V347.911z M279.189,348.831h0.5v-4.65h-0.5V348.831z
			 M275.99,348.19l-1.66-4h-0.58l2,4.68h0.46l2-4.699h-0.569l-1.67,4.02H275.99z M272.26,348.831h0.52v-4.65h-0.52V348.831z
			 M268.1,348.831h3.141v-0.48h-2.62v-4.17H268.1V348.831L268.1,348.831z M265.77,347.831H264.9v1h0.88v-1H265.77z M262.93,348.2
			v-1.859h-1.92v0.469h1.42v1.172c-0.32,0.26-0.82,0.459-1.35,0.459c-1.12,0-1.83-0.82-1.83-1.939c0-1.051,0.74-1.92,1.77-1.92
			c0.66,0,1.061,0.199,1.42,0.529l0.341-0.4c-0.47-0.379-0.95-0.6-1.74-0.6c-1.399,0-2.33,1.121-2.33,2.4c0,1.34,0.899,2.4,2.36,2.4
			c0.779,0,1.43-0.32,1.859-0.701 M257.07,347.911l-2.93-3.73h-0.5v4.65h0.52v-3.801l3,3.801h0.42v-4.65h-0.52v3.73H257.07z
			 M251.77,348.831h0.5v-4.65h-0.5V348.831z M249.87,347.911l-2.92-3.73h-0.5v4.65h0.52v-3.801l3,3.801h0.43v-4.65h-0.52v3.73
			H249.87z M244.57,348.831h0.53v-4.65h-0.53V348.831z M242.87,346.51c0,1.039-0.75,1.84-1.93,1.84h-1.1v-3.699h1.1
			C242.12,344.651,242.87,345.469,242.87,346.51 M243.41,346.51c0-1.33-1-2.33-2.47-2.33h-1.62v4.65h1.62c1.46,0,2.47-1,2.47-2.33"
			/>
	</g>
	<g>
		<defs>
			<rect id="SVGID_25_" x="-57.04" y="57.34" width="541.22" height="714.821"/>
		</defs>
		<clipPath id="SVGID_26_">
			<use xlink:href="#SVGID_25_"  overflow="visible"/>
		</clipPath>
		<path clip-path="url(#SVGID_26_)" fill="#231F20" d="M354.2,271.831h-3.33v4.66h0.521v-2.041h2.5v-0.48h-2.5v-1.659h2.799v-0.5
			L354.2,271.831z M349.779,271.831h-3.369v4.66h3.4v-0.5h-2.86v-1.621h2.54v-0.479h-2.54v-1.601h2.84v-0.47L349.779,271.831z
			 M344.76,273.25c0,0.6-0.5,0.959-1.199,0.959h-1.431v-1.879h1.44c0.75,0,1.199,0.35,1.199,0.93 M345.471,276.5l-1.451-1.9
			c0.73-0.15,1.271-0.6,1.271-1.381c0-0.829-0.67-1.399-1.7-1.399h-2v4.671h0.53v-1.82h1.33l1.35,1.799h0.65L345.471,276.5z"/>
	</g>
	<g>
		<defs>
			<rect id="SVGID_27_" x="-57.04" y="57.34" width="541.22" height="714.821"/>
		</defs>
		<clipPath id="SVGID_28_">
			<use xlink:href="#SVGID_27_"  overflow="visible"/>
		</clipPath>
		<path clip-path="url(#SVGID_28_)" fill="#231F20" d="M350.76,240.7l-1.33-3.88h-0.57l1.66,4.68h0.44l1.28-3.78l1.279,3.78h0.44
			l1.67-4.7h-0.56l-1.33,3.9l-1.27-3.9h-0.44L350.76,240.7L350.76,240.7z M347.8,239.15c0,1.04-0.75,1.83-1.93,1.83h-1.101v-3.68
			h1.101C347.05,237.3,347.8,238.1,347.8,239.15 M348.35,239.15c0-1.33-1.02-2.33-2.479-2.33h-1.601v4.65h1.601
			c1.46,0,2.479-1.02,2.479-2.33"/>
	</g>
	<path fill="#BBBDBF" d="M241.96,133.2h29.25v27.3h-29.24L241.96,133.2z M180.2,59.1v377.65h26v-12.35h-16.9V243.04h4.56v-20.37H190
		V59.1H180.2z"/>
	<path fill="#FFFFFF" d="M440.35,170.05h30.7v59.4h-30.7V170.05z"/>
	<path fill="none" stroke="#000000" stroke-width="0.78" d="M440.35,170.05h30.7v59.4h-30.7V170.05z"/>
	<g>
		<defs>
			<rect id="SVGID_29_" x="-57.04" y="57.34" width="541.22" height="714.821"/>
		</defs>
		<clipPath id="SVGID_30_">
			<use xlink:href="#SVGID_29_"  overflow="visible"/>
		</clipPath>
		<circle clip-path="url(#SVGID_30_)" fill="none" stroke="#231F20" stroke-width="0.65" cx="455.848" cy="183.59" r="1.26"/>
	</g>
	<g>
		<defs>
			<rect id="SVGID_31_" x="-57.04" y="57.34" width="541.22" height="714.821"/>
		</defs>
		<clipPath id="SVGID_32_">
			<use xlink:href="#SVGID_31_"  overflow="visible"/>
		</clipPath>
		<path clip-path="url(#SVGID_32_)" fill="none" stroke="#000000" stroke-width="0.65" d="M455.8,226.06
			c-8.8,0-12.03-2.03-12.03-4.88v-43.4c0-0.68,0.2-2.12,2.03-2.12h20.021c1.83,0,2.02,1.44,2.02,2.13v43.38
			c0,2.85-3.3,4.88-12.04,4.88V226.06z"/>
	</g>
	<g>
		<defs>
			<rect id="SVGID_33_" x="-57.04" y="57.34" width="541.22" height="714.821"/>
		</defs>
		<clipPath id="SVGID_34_">
			<use xlink:href="#SVGID_33_"  overflow="visible"/>
		</clipPath>
		<path clip-path="url(#SVGID_34_)" fill="none" stroke="#231F20" stroke-width="0.585" d="M461.2,173.45c0,0.72-0.601,1.3-1.3,1.3
			c-0.7,0-1.28-0.58-1.28-1.3c0-0.7,0.58-1.3,1.28-1.28C460.6,172.17,461.2,172.75,461.2,173.45z M453.2,173.45
			c0,0.72-0.57,1.3-1.3,1.3c-0.7,0-1.261-0.58-1.271-1.3c0-0.7,0.58-1.3,1.28-1.3c0.729,0,1.3,0.6,1.3,1.3H453.2z"/>
	</g>
	<g>
		<defs>
			<rect id="SVGID_35_" x="-57.04" y="57.34" width="541.22" height="714.821"/>
		</defs>
		<clipPath id="SVGID_36_">
			<use xlink:href="#SVGID_35_"  overflow="visible"/>
		</clipPath>
		<path clip-path="url(#SVGID_36_)" fill="#FFFFFF" d="M454.1,173.07c0-1.05,0.73-1.9,1.78-1.9c1.061,0,1.63,0.85,1.63,1.9
			l-0.66,7.27c0,0.72-1.93,0.72-1.93,0l-0.8-7.27H454.1z"/>
	</g>
	<g>
		<defs>
			<rect id="SVGID_37_" x="-57.04" y="57.34" width="541.22" height="714.821"/>
		</defs>
		<clipPath id="SVGID_38_">
			<use xlink:href="#SVGID_37_"  overflow="visible"/>
		</clipPath>
		<path clip-path="url(#SVGID_38_)" fill="none" stroke="#231F20" stroke-width="0.585" d="M454.1,173.07c0-1.05,0.73-1.9,1.78-1.9
			c1.061,0,1.63,0.85,1.63,1.9l-0.66,7.27c0,0.72-1.93,0.72-1.93,0l-0.8-7.27H454.1z"/>
	</g>
	<g>
		<defs>
			<rect id="SVGID_39_" x="-57.04" y="57.34" width="541.22" height="714.821"/>
		</defs>
		<clipPath id="SVGID_40_">
			<use xlink:href="#SVGID_39_"  overflow="visible"/>
		</clipPath>
		<path clip-path="url(#SVGID_40_)" fill="none" stroke="#000000" stroke-width="0.975" d="M201.9,87.94
			c15.92,0,28.82-12.9,28.82-28.82 M200.24,87.96h1.66V59.13h-1.66V87.96z M432.76,203.4c-15.899,0-28.819,12.9-28.819,28.82
			 M434.42,203.38h-1.66v28.84h1.66V203.38z"/>
	</g>
	<path fill="none" stroke="#000000" stroke-width="0.78" d="M386.26,235.25v26.43 M386.26,256.52h3.66l0.859-3.16v-9.7l-0.859-3.22
		h-3.66 M369.34,261.69h24.1v-26.26h-24.1v26.25V261.69z"/>
	<path fill="#FFFFFF" d="M387.84,236.72v2.12l-1.48,0.46v-3.05L387.84,236.72z"/>
	<path fill="none" stroke="#231F20" stroke-width="0.78" d="M387.84,236.72v2.12l-1.48,0.46v-3.05L387.84,236.72z"/>
	<path fill="#FFFFFF" d="M327.9,191.22l-0.061-25.68l-30.22-0.06l0.05,25.68L327.9,191.22z"/>
	<path fill="none" stroke="#000000" stroke-width="0.78" d="M327.9,191.22l-0.061-25.68l-30.22-0.06l0.05,25.68L327.9,191.22z"/>
	<path fill="none" stroke="#000000" stroke-width="0.39" d="M297.45,167.77h30.271"/>
	<g>
		<defs>
			<rect id="SVGID_41_" x="-57.04" y="57.34" width="541.22" height="714.821"/>
		</defs>
		<clipPath id="SVGID_42_">
			<use xlink:href="#SVGID_41_"  overflow="visible"/>
		</clipPath>
		<path clip-path="url(#SVGID_42_)" fill="#FFFFFF" d="M306.5,177.06c2.18-0.02,3.92-1.8,3.9-3.96c0-2.18-1.78-3.92-3.95-3.9
			c-2.171,0-3.921,1.8-3.9,3.96c0,2.16,1.8,3.9,3.96,3.9"/>
	</g>
	<g>
		<defs>
			<rect id="SVGID_43_" x="-57.04" y="57.34" width="541.22" height="714.821"/>
		</defs>
		<clipPath id="SVGID_44_">
			<use xlink:href="#SVGID_43_"  overflow="visible"/>
		</clipPath>
		<path clip-path="url(#SVGID_44_)" fill="none" stroke="#231F20" stroke-width="0.65" d="M306.5,177.06
			c2.18-0.02,3.92-1.8,3.9-3.96c0-2.18-1.78-3.92-3.95-3.9c-2.171,0-3.921,1.8-3.9,3.96c0,2.16,1.8,3.9,3.96,3.9H306.5z"/>
	</g>
	<g>
		<defs>
			<rect id="SVGID_45_" x="-57.04" y="57.34" width="541.22" height="714.821"/>
		</defs>
		<clipPath id="SVGID_46_">
			<use xlink:href="#SVGID_45_"  overflow="visible"/>
		</clipPath>
		<path clip-path="url(#SVGID_46_)" fill="#FFFFFF" d="M318.279,176.97c2.171-0.02,3.9-1.8,3.9-3.96c-0.02-2.16-1.8-3.9-3.959-3.9
			c-2.16,0.03-3.9,1.8-3.9,3.97c0.02,2.16,1.8,3.92,3.959,3.9"/>
	</g>
	<g>
		<defs>
			<rect id="SVGID_47_" x="-57.04" y="57.34" width="541.22" height="714.821"/>
		</defs>
		<clipPath id="SVGID_48_">
			<use xlink:href="#SVGID_47_"  overflow="visible"/>
		</clipPath>
		<path clip-path="url(#SVGID_48_)" fill="none" stroke="#231F20" stroke-width="0.65" d="M318.279,176.97
			c2.171-0.02,3.9-1.8,3.9-3.96c-0.02-2.16-1.8-3.9-3.959-3.9c-2.16,0.03-3.9,1.8-3.9,3.97c0.02,2.16,1.8,3.92,3.959,3.9V176.97z"/>
	</g>
	<g>
		<defs>
			<rect id="SVGID_49_" x="-57.04" y="57.34" width="541.22" height="714.821"/>
		</defs>
		<clipPath id="SVGID_50_">
			<use xlink:href="#SVGID_49_"  overflow="visible"/>
		</clipPath>
		<path clip-path="url(#SVGID_50_)" fill="#FFFFFF" d="M306.58,187.74c2.18,0,3.92-1.78,3.9-3.95c0-2.18-1.801-3.93-3.951-3.9
			c-2.17,0-3.92,1.77-3.899,3.95C302.63,186.01,304.43,187.74,306.58,187.74"/>
	</g>
	<g>
		<defs>
			<rect id="SVGID_51_" x="-57.04" y="57.34" width="541.22" height="714.821"/>
		</defs>
		<clipPath id="SVGID_52_">
			<use xlink:href="#SVGID_51_"  overflow="visible"/>
		</clipPath>
		<path clip-path="url(#SVGID_52_)" fill="none" stroke="#231F20" stroke-width="0.65" d="M306.58,187.74c2.18,0,3.92-1.78,3.9-3.95
			c0-2.18-1.801-3.93-3.951-3.9c-2.17,0-3.92,1.77-3.899,3.95C302.63,186.01,304.43,187.74,306.58,187.74z"/>
	</g>
	<g>
		<defs>
			<rect id="SVGID_53_" x="-57.04" y="57.34" width="541.22" height="714.821"/>
		</defs>
		<clipPath id="SVGID_54_">
			<use xlink:href="#SVGID_53_"  overflow="visible"/>
		</clipPath>
		<path clip-path="url(#SVGID_54_)" fill="#FFFFFF" d="M318.359,187.66c2.17-0.02,3.9-1.8,3.9-3.95c-0.02-2.17-1.8-3.9-3.96-3.9
			c-2.159,0.02-3.899,1.8-3.899,3.96c0.02,2.17,1.8,3.9,3.959,3.9"/>
	</g>
	<g>
		<defs>
			<rect id="SVGID_55_" x="-57.04" y="57.34" width="541.22" height="714.821"/>
		</defs>
		<clipPath id="SVGID_56_">
			<use xlink:href="#SVGID_55_"  overflow="visible"/>
		</clipPath>
		<path clip-path="url(#SVGID_56_)" fill="none" stroke="#231F20" stroke-width="0.65" d="M318.359,187.66
			c2.17-0.02,3.9-1.8,3.9-3.95c-0.02-2.17-1.8-3.9-3.96-3.9c-2.159,0.02-3.899,1.8-3.899,3.96c0.02,2.17,1.8,3.9,3.959,3.9V187.66z"
			/>
	</g>
	<path fill="#FFFFFF" d="M298.67,191.12h28.16v1.2h-28.16V191.12z"/>
	<path fill="none" stroke="#231F20" stroke-width="0.78" d="M298.67,191.12h28.16v1.2h-28.16V191.12z M342.061,438.45h55.249
		 M409.83,438.469h45.83 M276.1,438.389H321.9 M207.75,438.321h46.48 M343.029,425.69h43.881 M276.83,425.69h43.55 M207.52,425.04
		h44.2 M410.979,425.69h43.881"/>
	<g>
		<defs>
			<rect id="SVGID_57_" x="-57.04" y="57.34" width="541.22" height="714.821"/>
		</defs>
		<clipPath id="SVGID_58_">
			<use xlink:href="#SVGID_57_"  overflow="visible"/>
		</clipPath>
		<path clip-path="url(#SVGID_58_)" fill="#FFFFFF" d="M434.46,181.36c0,5.8-3.52,12.18-7.87,12.18c-4.35,0-7.87-6.38-7.87-12.18
			c0-5.8,3.521-8.83,7.86-8.83s7.86,3.02,7.86,8.83"/>
	</g>
	<g>
		<defs>
			<rect id="SVGID_59_" x="-57.04" y="57.34" width="541.22" height="714.821"/>
		</defs>
		<clipPath id="SVGID_60_">
			<use xlink:href="#SVGID_59_"  overflow="visible"/>
		</clipPath>
		<path clip-path="url(#SVGID_60_)" fill="none" stroke="#000000" stroke-width="0.78" d="M434.46,181.36
			c0,5.8-3.52,12.18-7.87,12.18c-4.35,0-7.87-6.38-7.87-12.18c0-5.8,3.521-8.83,7.86-8.83s7.86,3.02,7.86,8.83H434.46z"/>
	</g>
	<g>
		<defs>
			<rect id="SVGID_61_" x="-57.04" y="57.34" width="541.22" height="714.821"/>
		</defs>
		<clipPath id="SVGID_62_">
			<use xlink:href="#SVGID_61_"  overflow="visible"/>
		</clipPath>
		<path clip-path="url(#SVGID_62_)" fill="#FFFFFF" d="M421.88,174.44c0,0.32-0.26,0.6-0.6,0.6h-2.74c-0.33,0-0.6-0.28-0.6-0.6v-0.1
			c0-0.33,0.27-0.6,0.6-0.6h2.75c0.32,0,0.58,0.27,0.58,0.6v0.1H421.88z"/>
	</g>
	<g>
		<defs>
			<rect id="SVGID_63_" x="-57.04" y="57.34" width="541.22" height="714.821"/>
		</defs>
		<clipPath id="SVGID_64_">
			<use xlink:href="#SVGID_63_"  overflow="visible"/>
		</clipPath>
		<path clip-path="url(#SVGID_64_)" fill="none" stroke="#231F20" stroke-width="0.78" d="M421.88,174.44c0,0.32-0.26,0.6-0.6,0.6
			h-2.74c-0.33,0-0.6-0.28-0.6-0.6v-0.1c0-0.33,0.27-0.6,0.6-0.6h2.75c0.32,0,0.58,0.27,0.58,0.6v0.1H421.88z"/>
	</g>
	<g>
		<defs>
			<rect id="SVGID_65_" x="-57.04" y="57.34" width="541.22" height="714.821"/>
		</defs>
		<clipPath id="SVGID_66_">
			<use xlink:href="#SVGID_65_"  overflow="visible"/>
		</clipPath>
		<path clip-path="url(#SVGID_66_)" fill="#FFFFFF" d="M417.53,173.73c-0.98,0-1.8-2.67-1.8-3.66c0-1,0.819-3.66,1.8-3.66h17.97
			c1,0,1.8,2.68,1.8,3.67c0,1-0.8,3.66-1.8,3.66h-17.97V173.73z"/>
	</g>
	<g>
		<defs>
			<rect id="SVGID_67_" x="-57.04" y="57.34" width="541.22" height="714.821"/>
		</defs>
		<clipPath id="SVGID_68_">
			<use xlink:href="#SVGID_67_"  overflow="visible"/>
		</clipPath>
		<path clip-path="url(#SVGID_68_)" fill="none" stroke="#000000" stroke-width="0.78" d="M417.53,173.73c-0.98,0-1.8-2.67-1.8-3.66
			c0-1,0.819-3.66,1.8-3.66h17.97c1,0,1.8,2.68,1.8,3.67c0,1-0.8,3.66-1.8,3.66h-17.97V173.73z"/>
	</g>
	<g>
		<defs>
			<rect id="SVGID_69_" x="-57.04" y="57.34" width="541.22" height="714.821"/>
		</defs>
		<clipPath id="SVGID_70_">
			<use xlink:href="#SVGID_69_"  overflow="visible"/>
		</clipPath>
		<path clip-path="url(#SVGID_70_)" fill="#FFFFFF" d="M432.38,181.6c0,4.26-2.6,8.96-5.8,8.96s-5.771-4.7-5.771-8.96
			c0-4.26,2.601-6.48,5.801-6.48c3.199,0,5.779,2.22,5.779,6.48"/>
	</g>
	<g>
		<defs>
			<rect id="SVGID_71_" x="-57.04" y="57.34" width="541.22" height="714.821"/>
		</defs>
		<clipPath id="SVGID_72_">
			<use xlink:href="#SVGID_71_"  overflow="visible"/>
		</clipPath>
		<path clip-path="url(#SVGID_72_)" fill="none" stroke="#000000" stroke-width="0.65" d="M432.38,181.6c0,4.26-2.6,8.96-5.8,8.96
			s-5.771-4.7-5.771-8.96c0-4.26,2.601-6.48,5.801-6.48c3.199,0,5.779,2.22,5.779,6.48H432.38z"/>
	</g>
	<path fill="none" stroke="#231F20" stroke-width="0.78" d="M365.029,165.34v24.05l41.601-0.88V162.3"/>
	<path fill="none" stroke="#000000" stroke-width="0.975" d="M456.24,233.73v60.67"/>
	
		<path fill="none" stroke="#000000" stroke-width="0.975" stroke-dasharray="2.013,2.013,2.013,2.013,2.013,2.013" stroke-dashoffset="4" d="
		M458.4,293.32v-62.4"/>
	<path fill="none" stroke="#000000" stroke-width="0.975" d="M382.8,268.2v25.551"/>
	
		<path fill="none" stroke="#000000" stroke-width="0.975" stroke-dasharray="1.933,1.933,1.933,1.933,1.933,1.933" stroke-dashoffset="3" d="
		M380.2,268.62v25.131"/>
	<path fill="none" stroke="#000000" stroke-width="0.78" d="M329.061,163.97v25.35h9.969v64.9h25.351"/>
	<g>
		<defs>
			<rect id="SVGID_73_" x="-57.04" y="57.34" width="541.22" height="714.821"/>
		</defs>
		<clipPath id="SVGID_74_">
			<use xlink:href="#SVGID_73_"  overflow="visible"/>
		</clipPath>
		<circle clip-path="url(#SVGID_74_)" fill="none" stroke="#000000" stroke-width="0.52" cx="386.826" cy="176.782" r="1.189"/>
	</g>
	<g>
		<defs>
			<rect id="SVGID_75_" x="-57.04" y="57.34" width="541.22" height="714.821"/>
		</defs>
		<clipPath id="SVGID_76_">
			<use xlink:href="#SVGID_75_"  overflow="visible"/>
		</clipPath>
		<path clip-path="url(#SVGID_76_)" fill="none" stroke="#000000" stroke-width="0.65" d="M386.83,166.95
			c0.63,0,1.15,0.52,1.15,1.15s-0.521,1.16-1.15,1.16c-0.641,0-1.16-0.52-1.16-1.16S386.189,166.95,386.83,166.95z M387.359,174.15
			h-1.06v-4.72h1.06V174.15z M392.02,169.32H381.62v-2.48h10.399V169.32z"/>
	</g>
	<path fill="none" stroke="#000000" stroke-width="0.78" d="M376.3,166.46h21.061v19.07H376.3V166.46z"/>
	<path fill="none" stroke="#000000" stroke-width="0.585" d="M377.93,169.38h17.75v14.52h-17.75V169.38z"/>
	<path fill="none" stroke="#000000" stroke-width="0.65" d="M334.52,255.75v35.75"/>
	<path fill="none" stroke="#000000" stroke-width="0.78" d="M330.939,268.459h1.461v2.761h-1.461V268.459z M332.42,255.97h30.07
		v35.239H332.4L332.42,255.97z M330.939,277.15h1.461v2.761h-1.461V277.15z"/>
	<g>
		<defs>
			<rect id="SVGID_77_" x="-57.04" y="57.34" width="541.22" height="714.821"/>
		</defs>
		<clipPath id="SVGID_78_">
			<use xlink:href="#SVGID_77_"  overflow="visible"/>
		</clipPath>
		<path clip-path="url(#SVGID_78_)" fill="#FFFFFF" d="M359.48,198.34c1,0,1.84,0.83,1.84,1.84v22.4c0,1.02-0.83,1.84-1.84,1.84
			h-15.76c-1.021,0-1.841-0.82-1.841-1.83v-22.42c0-1,0.82-1.84,1.841-1.84h15.76V198.34z"/>
	</g>
	<g>
		<defs>
			<rect id="SVGID_79_" x="-57.04" y="57.34" width="541.22" height="714.821"/>
		</defs>
		<clipPath id="SVGID_80_">
			<use xlink:href="#SVGID_79_"  overflow="visible"/>
		</clipPath>
		<path clip-path="url(#SVGID_80_)" fill="none" stroke="#231F20" stroke-width="0.78" d="M359.48,198.34c1,0,1.84,0.83,1.84,1.84
			v22.4c0,1.02-0.83,1.84-1.84,1.84h-15.76c-1.021,0-1.841-0.82-1.841-1.83v-22.42c0-1,0.82-1.84,1.841-1.84h15.76V198.34z"/>
	</g>
	<g>
		<defs>
			<rect id="SVGID_81_" x="-57.04" y="57.34" width="541.22" height="714.821"/>
		</defs>
		<clipPath id="SVGID_82_">
			<use xlink:href="#SVGID_81_"  overflow="visible"/>
		</clipPath>
		<path clip-path="url(#SVGID_82_)" fill="#FFFFFF" d="M357,220.63c0,1.03-0.83,1.88-1.84,1.88h-9.471
			c-1.02,0-1.859-0.84-1.859-1.87V202.2c0-1.04,0.84-1.9,1.85-1.9h9.461c1,0,1.85,0.86,1.85,1.9v18.43H357z"/>
	</g>
	<g>
		<defs>
			<rect id="SVGID_83_" x="-57.04" y="57.34" width="541.22" height="714.821"/>
		</defs>
		<clipPath id="SVGID_84_">
			<use xlink:href="#SVGID_83_"  overflow="visible"/>
		</clipPath>
		<path clip-path="url(#SVGID_84_)" fill="none" stroke="#231F20" stroke-width="0.585" d="M357,220.63c0,1.03-0.83,1.88-1.84,1.88
			h-9.471c-1.02,0-1.859-0.84-1.859-1.87V202.2c0-1.04,0.84-1.9,1.85-1.9h9.461c1,0,1.85,0.86,1.85,1.9v18.43H357z"/>
	</g>
	<g>
		<defs>
			<rect id="SVGID_85_" x="-57.04" y="57.34" width="541.22" height="714.821"/>
		</defs>
		<clipPath id="SVGID_86_">
			<use xlink:href="#SVGID_85_"  overflow="visible"/>
		</clipPath>
		<path clip-path="url(#SVGID_86_)" fill="#FFFFFF" d="M350.2,209.82c0.78,0,1.399,0.62,1.399,1.4c0,0.75-0.629,1.37-1.399,1.37
			c-0.75,0-1.38-0.62-1.38-1.4c0-0.76,0.63-1.38,1.4-1.38"/>
	</g>
	<g>
		<defs>
			<rect id="SVGID_87_" x="-57.04" y="57.34" width="541.22" height="714.821"/>
		</defs>
		<clipPath id="SVGID_88_">
			<use xlink:href="#SVGID_87_"  overflow="visible"/>
		</clipPath>
		<path clip-path="url(#SVGID_88_)" fill="none" stroke="#231F20" stroke-width="0.52" d="M350.2,209.82
			c0.78,0,1.399,0.62,1.399,1.4c0,0.75-0.629,1.37-1.399,1.37c-0.75,0-1.38-0.62-1.38-1.4c0-0.76,0.63-1.38,1.4-1.38L350.2,209.82z"
			/>
	</g>
	<g>
		<defs>
			<rect id="SVGID_89_" x="-57.04" y="57.34" width="541.22" height="714.821"/>
		</defs>
		<clipPath id="SVGID_90_">
			<use xlink:href="#SVGID_89_"  overflow="visible"/>
		</clipPath>
		<path clip-path="url(#SVGID_90_)" fill="#FFFFFF" d="M359.2,206.23c0.75,0,1.44,0.6,1.44,1.34v7.3c0,0.75-0.701,1.35-1.431,1.35
			s-1.399-0.6-1.399-1.34v-7.3c0-0.75,0.67-1.35,1.399-1.35"/>
	</g>
	<g>
		<defs>
			<rect id="SVGID_91_" x="-57.04" y="57.34" width="541.22" height="714.821"/>
		</defs>
		<clipPath id="SVGID_92_">
			<use xlink:href="#SVGID_91_"  overflow="visible"/>
		</clipPath>
		<path clip-path="url(#SVGID_92_)" fill="none" stroke="#231F20" stroke-width="0.52" d="M359.2,206.23c0.75,0,1.44,0.6,1.44,1.34
			v7.3c0,0.75-0.701,1.35-1.431,1.35s-1.399-0.6-1.399-1.34v-7.3c0-0.75,0.67-1.35,1.399-1.35H359.2z"/>
	</g>
	<g>
		<defs>
			<rect id="SVGID_93_" x="-57.04" y="57.34" width="541.22" height="714.821"/>
		</defs>
		<clipPath id="SVGID_94_">
			<use xlink:href="#SVGID_93_"  overflow="visible"/>
		</clipPath>
		<path clip-path="url(#SVGID_94_)" fill="#FFFFFF" d="M351.439,205.74l6.801,6.28c0.4,0.34,1,0.3,1.359-0.1
			c0.36-0.38,0.32-1-0.08-1.34l-7.06-6C352.13,204.31,351.12,205.46,351.439,205.74"/>
	</g>
	<g>
		<defs>
			<rect id="SVGID_95_" x="-57.04" y="57.34" width="541.22" height="714.821"/>
		</defs>
		<clipPath id="SVGID_96_">
			<use xlink:href="#SVGID_95_"  overflow="visible"/>
		</clipPath>
		<path clip-path="url(#SVGID_96_)" fill="none" stroke="#231F20" stroke-width="0.65" d="M351.439,205.74l6.801,6.28
			c0.4,0.34,1,0.3,1.359-0.1c0.36-0.38,0.32-1-0.08-1.34l-7.06-6C352.13,204.31,351.12,205.46,351.439,205.74z"/>
	</g>
	<g>
		<defs>
			<rect id="SVGID_97_" x="-57.04" y="57.34" width="541.22" height="714.821"/>
		</defs>
		<clipPath id="SVGID_98_">
			<use xlink:href="#SVGID_97_"  overflow="visible"/>
		</clipPath>
		<path clip-path="url(#SVGID_98_)" fill="#FFFFFF" d="M355.85,212.02h3.301c0.34,0,0.629-0.3,0.629-0.65s-0.299-0.63-0.639-0.63
			h-3.301c-0.35,0-0.64,0.28-0.64,0.64C355.2,211.73,355.5,212.02,355.85,212.02"/>
	</g>
	<g>
		<defs>
			<rect id="SVGID_99_" x="-57.04" y="57.34" width="541.22" height="714.821"/>
		</defs>
		<clipPath id="SVGID_100_">
			<use xlink:href="#SVGID_99_"  overflow="visible"/>
		</clipPath>
		<path clip-path="url(#SVGID_100_)" fill="none" stroke="#231F20" stroke-width="0.52" d="M355.85,212.02h3.301
			c0.34,0,0.629-0.3,0.629-0.65s-0.299-0.63-0.639-0.63h-3.301c-0.35,0-0.64,0.28-0.64,0.64
			C355.2,211.73,355.5,212.02,355.85,212.02L355.85,212.02z"/>
	</g>
	<g>
		<defs>
			<rect id="SVGID_101_" x="-57.04" y="57.34" width="541.22" height="714.821"/>
		</defs>
		<clipPath id="SVGID_102_">
			<use xlink:href="#SVGID_101_"  overflow="visible"/>
		</clipPath>
		<path clip-path="url(#SVGID_102_)" fill="#FFFFFF" d="M359.1,213.4c0.4,0,0.76,0.35,0.76,0.77c0,0.43-0.35,0.77-0.77,0.77
			c-0.43,0-0.77-0.34-0.77-0.77c0-0.42,0.34-0.77,0.76-0.77"/>
	</g>
	<g>
		<defs>
			<rect id="SVGID_103_" x="-57.04" y="57.34" width="541.22" height="714.821"/>
		</defs>
		<clipPath id="SVGID_104_">
			<use xlink:href="#SVGID_103_"  overflow="visible"/>
		</clipPath>
		<path clip-path="url(#SVGID_104_)" fill="none" stroke="#231F20" stroke-width="0.455" d="M359.1,213.4c0.4,0,0.76,0.35,0.76,0.77
			c0,0.43-0.35,0.77-0.77,0.77c-0.43,0-0.77-0.34-0.77-0.77c0-0.42,0.34-0.77,0.76-0.77H359.1z"/>
	</g>
	<g>
		<defs>
			<rect id="SVGID_105_" x="-57.04" y="57.34" width="541.22" height="714.821"/>
		</defs>
		<clipPath id="SVGID_106_">
			<use xlink:href="#SVGID_105_"  overflow="visible"/>
		</clipPath>
		<path clip-path="url(#SVGID_106_)" fill="#FFFFFF" d="M359.16,207.5c0.42,0,0.77,0.35,0.77,0.77c0,0.43-0.35,0.77-0.77,0.77
			s-0.77-0.34-0.77-0.77c0-0.42,0.34-0.77,0.76-0.77"/>
	</g>
	<g>
		<defs>
			<rect id="SVGID_107_" x="-57.04" y="57.34" width="541.22" height="714.821"/>
		</defs>
		<clipPath id="SVGID_108_">
			<use xlink:href="#SVGID_107_"  overflow="visible"/>
		</clipPath>
		<path clip-path="url(#SVGID_108_)" fill="none" stroke="#231F20" stroke-width="0.455" d="M359.16,207.5
			c0.42,0,0.77,0.35,0.77,0.77c0,0.43-0.35,0.77-0.77,0.77s-0.77-0.34-0.77-0.77c0-0.42,0.34-0.77,0.76-0.77H359.16z"/>
	</g>
	
		<path fill="none" stroke="#000000" stroke-width="0.65" stroke-dasharray="1.936,1.936,1.936,1.936,1.936,1.936" stroke-dashoffset="3" d="
		M341.42,249.82h18.4"/>
	
		<path fill="none" stroke="#000000" stroke-width="0.65" stroke-dasharray="1.899,1.899,1.899,1.899,1.899,1.899" stroke-dashoffset="3" d="
		M361.75,246.97v-18.03"/>
	
		<path fill="none" stroke="#000000" stroke-width="0.65" stroke-dasharray="1.892,1.892,1.892,1.892,1.892,1.892" stroke-dashoffset="3" d="
		M358.9,227.04H340.93"/>
	<path fill="none" stroke="#000000" stroke-width="0.65" d="M339.98,227.04h-0.94 M361.74,227.99v-0.96h-0.94 M360.78,249.81h0.97
		v-0.95 M338.52,249.81h0.971 M339.04,227h-2.47v22.82h1.939"/>
	<path fill="#BBBDBF" d="M482.23,162.02v274.82H456.43V424.04h14.551V295.22l2.3,0.06v-127.3h-31.3v-4"/>
	<g>
		<defs>
			<rect id="SVGID_109_" x="-57.04" y="57.34" width="541.22" height="714.821"/>
		</defs>
		<clipPath id="SVGID_110_">
			<use xlink:href="#SVGID_109_"  overflow="visible"/>
		</clipPath>
		<path clip-path="url(#SVGID_110_)" fill="none" stroke="#231F20" stroke-width="3.9" d="M482.23,162.02v274.82H456.43V424.04
			h14.551V295.22l2.3,0.06v-127.3h-31.3v-4"/>
	</g>
	<path fill="none" stroke="#231F20" stroke-width="3.9" d="M455.16,431.549h-44.42 M394.279,431.549h-50.92 M320.609,431.549h-45
		 M251.94,431.549H208.5"/>
	<path fill="none" stroke="#231F20" stroke-width="5.2" d="M473.17,294.73h-37.5 M398.93,294.73h-58.5v75.72"/>
	<path fill="none" stroke="#231F20" stroke-width="6.5" d="M340.84,409.879v15.17"/>
	<g>
		<defs>
			<rect id="SVGID_111_" x="-57.04" y="57.34" width="541.22" height="714.821"/>
		</defs>
		<clipPath id="SVGID_112_">
			<use xlink:href="#SVGID_111_"  overflow="visible"/>
		</clipPath>
		<path clip-path="url(#SVGID_112_)" fill="none" stroke="#231F20" stroke-width="3.9" d="M270.98,162.88L270.92,59.61h-40.95
			 M200.42,59.61h-20.25l-0.02,377.131h26.53v-12.4h-17.3l-0.02-181.26h4.28l0.02-20.83h-4.28V60.18"/>
	</g>
	<path fill="none" stroke="#231F20" stroke-width="5.2" d="M270.561,132.88h-29.92v69.22h11.4 M281.609,202.1h12.701l-0.041-38.02"
		/>
	<path fill="#BBBDBF" d="M387.65,423.2v13.641h21.54v-13.6L387.65,423.2z"/>
	<path fill="none" stroke="#231F20" stroke-width="3.9" d="M387.65,423.2v13.641h21.54v-13.6L387.65,423.2z"/>
	<path fill="#BBBDBF" d="M322.04,423.2v13.641h20.13v-13.6L322.04,423.2z"/>
	<path fill="none" stroke="#231F20" stroke-width="3.9" d="M322.04,423.2v13.641h20.13v-13.6L322.04,423.2z"/>
	<path fill="#BBBDBF" d="M253.36,423.2v13.6H275v-13.559L253.36,423.2z"/>
	<path fill="none" stroke="#231F20" stroke-width="3.9" d="M253.36,423.2v13.6H275v-13.559L253.36,423.2z"/>
	<g>
		<defs>
			<rect id="SVGID_113_" x="-57.04" y="57.34" width="541.22" height="714.821"/>
		</defs>
		<clipPath id="SVGID_114_">
			<use xlink:href="#SVGID_113_"  overflow="visible"/>
		</clipPath>
		<path clip-path="url(#SVGID_114_)" fill="none" stroke="#231F20" stroke-width="5.2" d="M472.06,231.68H434.36 M404.1,231.68
			h-37.02 M365.779,164.72v131.3 M484.08,162.12H240.33"/>
	</g>
	<path fill="none" stroke="#231F20" stroke-width="6.5" d="M398.94,265.75h-33.48"/>
	<path fill="none" stroke="#231F20" stroke-width="0.78" d="M242.4,200.8h47.12v1.95H242.4V200.8z M337.58,391.36h-1.95v-47.129
		h1.95V391.36z"/>
	
		<path fill="none" stroke="#231F20" stroke-width="3.9" stroke-dasharray="6.223,2.223,6.223,2.223,6.223,2.223" stroke-dashoffset="8" d="
		M192.12,242.73v183.569"/>
	<g>
		<defs>
			<rect id="SVGID_115_" x="-57.04" y="57.34" width="541.22" height="714.821"/>
		</defs>
		<clipPath id="SVGID_116_">
			<use xlink:href="#SVGID_115_"  overflow="visible"/>
		</clipPath>
		
			<path clip-path="url(#SVGID_116_)" fill="none" stroke="#231F20" stroke-width="3.9" stroke-dasharray="6.25,2.25,6.25,2.25,6.25,2.25" stroke-dashoffset="8" d="
			M192.12,61.05V220.3"/>
	</g>
	<path fill="#FFFFFF" d="M230,429.92h18.57v3.16H230V429.92z"/>
	<path fill="none" stroke="#000000" stroke-width="0.78" d="M230,429.92h18.57v3.16H230V429.92z M230,431.571h18.46"/>
	<path fill="#FFFFFF" d="M210.87,429.92h19.07v3.16h-19.07V429.92z"/>
	<path fill="none" stroke="#000000" stroke-width="0.78" d="M210.87,429.92h19.07v3.16h-19.07V429.92z M210.87,431.571h19.07"/>
	<path fill="#FFFFFF" d="M299.02,429.93h18.58v3.16h-18.58V429.93z"/>
	<path fill="none" stroke="#000000" stroke-width="0.78" d="M299.02,429.93h18.58v3.16h-18.58V429.93z M299.02,431.581h18.471"/>
	<path fill="#FFFFFF" d="M279.9,429.93h19.07v3.16H279.9V429.93z"/>
	<path fill="none" stroke="#000000" stroke-width="0.78" d="M279.9,429.93h19.07v3.16H279.9V429.93z M279.9,431.581h19.06"/>
	<path fill="#FFFFFF" d="M365.5,429.93h18.6v3.16h-18.6V429.93z"/>
	<path fill="none" stroke="#000000" stroke-width="0.78" d="M365.5,429.93h18.6v3.16h-18.6V429.93z M365.5,431.581H384"/>
	<path fill="#FFFFFF" d="M346.4,429.93h19.06v3.16H346.4V429.93z"/>
	<path fill="none" stroke="#000000" stroke-width="0.78" d="M346.4,429.93h19.06v3.16H346.4V429.93z M346.4,431.581h19.06"/>
	<path fill="#FFFFFF" d="M433.38,429.901h18.58v3.17h-18.58V429.901z"/>
	<path fill="none" stroke="#000000" stroke-width="0.78" d="M433.38,429.901h18.58v3.17h-18.58V429.901z M433.38,431.559h18.47"/>
	<path fill="#FFFFFF" d="M414.26,429.901h19.07v3.17h-19.07V429.901z"/>
	<path fill="none" stroke="#000000" stroke-width="0.78" d="M414.26,429.901h19.07v3.17h-19.07V429.901z M414.26,431.559h19.07"/>
	<g>
		<defs>
			<rect id="SVGID_117_" x="-57.04" y="57.34" width="541.22" height="714.821"/>
		</defs>
		<clipPath id="SVGID_118_">
			<use xlink:href="#SVGID_117_"  overflow="visible"/>
		</clipPath>
		<path clip-path="url(#SVGID_118_)" fill="#231F20" d="M422.83,361.26h-0.47l-0.471,1.549h0.28l0.65-1.539L422.83,361.26z
			 M421.89,361.26h-0.479l-0.48,1.549h0.3l0.65-1.539L421.89,361.26z M419.69,364.209c0,0.451-0.4,0.801-1.101,0.801
			c-0.68,0-1.1-0.35-1.1-0.801c0-0.459,0.5-0.799,1.1-0.799C419.19,363.411,419.69,363.75,419.69,364.209 M419.56,362.26
			c0,0.459-0.42,0.77-0.96,0.77s-0.949-0.299-0.949-0.77c0-0.43,0.42-0.73,0.96-0.73s0.97,0.301,0.97,0.73 M420.2,364.231
			c0-0.5-0.38-0.852-0.87-1.031c0.399-0.199,0.72-0.5,0.72-0.98c0-0.66-0.67-1.119-1.439-1.119c-0.761,0-1.421,0.459-1.421,1.119
			c0,0.5,0.33,0.801,0.721,0.971c-0.5,0.17-0.87,0.52-0.87,1.029c0,0.701,0.7,1.201,1.58,1.201c0.899,0,1.6-0.5,1.6-1.201
			 M415.78,361.25h-0.48l-0.47,1.549h0.3l0.66-1.539L415.78,361.25z M413.38,362.45c0,0.5-0.4,0.961-1.05,0.961
			c-0.601,0-1.03-0.381-1.03-0.92c0-0.531,0.38-1,1-1s1.08,0.43,1.08,0.969 M413.95,363.139c0-0.84-0.2-1.299-0.521-1.629
			c-0.27-0.27-0.62-0.43-1.1-0.43c-0.9,0-1.5,0.619-1.5,1.42c0,0.77,0.6,1.299,1.45,1.299c0.58,0,0.96-0.299,1.2-0.66
			c0,1.07-0.5,1.842-1.261,1.842c-0.38,0-0.7-0.15-1.04-0.451l-0.279,0.371c0.359,0.299,0.75,0.5,1.3,0.5
			c1.04,0,1.75-0.932,1.75-2.271 M407.71,364.831l-1.13-1.5l1.08-1.43h-0.38l-0.9,1.199l-0.9-1.199h-0.399l1.1,1.439l-1.13,1.5h0.38
			l0.94-1.27l0.939,1.26H407.71L407.71,364.831z M402.58,361.231h-0.47l-0.48,1.559h0.3l0.65-1.539V361.231z M401.63,361.231h-0.47
			l-0.471,1.559h0.301l0.64-1.539V361.231z M399.3,362.45c0,0.48-0.399,0.951-1.05,0.951c-0.6,0-1.03-0.381-1.03-0.92
			c0-0.531,0.38-1,1-1s1.07,0.43,1.07,0.969 M399.86,363.129c0-0.84-0.2-1.299-0.521-1.629c-0.27-0.27-0.63-0.43-1.1-0.43
			c-0.9,0-1.521,0.619-1.521,1.42c0,0.77,0.601,1.299,1.471,1.299c0.579,0,0.96-0.299,1.18-0.66c0.02,1.07-0.5,1.84-1.24,1.84
			c-0.38,0-0.7-0.148-1.04-0.449l-0.27,0.369c0.35,0.301,0.75,0.5,1.3,0.5c1.03,0,1.74-0.93,1.74-2.27 M395.38,361.219H394.9
			l-0.471,1.561h0.301l0.64-1.539L395.38,361.219z M393.04,363.241c0,0.92-0.479,1.729-1.271,1.729
			c-0.799,0-1.299-0.799-1.299-1.738c0-0.941,0.5-1.74,1.279-1.74s1.279,0.818,1.279,1.75 M393.529,363.241
			c0-1.201-0.699-2.182-1.77-2.182c-1.1,0-1.8,1-1.8,2.172c0,1.18,0.7,2.158,1.78,2.158s1.77-1,1.77-2.17 M387.109,361.45
			l0.101,0.371l0.8-0.25v3.738h0.461v-4.229h-0.341l-1.021,0.359V361.45z"/>
	</g>
	<g>
		<defs>
			<rect id="SVGID_119_" x="-57.04" y="57.34" width="541.22" height="714.821"/>
		</defs>
		<clipPath id="SVGID_120_">
			<use xlink:href="#SVGID_119_"  overflow="visible"/>
		</clipPath>
		<path clip-path="url(#SVGID_120_)" fill="#231F20" d="M422.13,353.559v3.781h0.521v-4.66h-0.53l-1.7,2.539l-1.7-2.539h-0.52v4.66
			h0.5v-3.77l1.7,2.5h0.029l1.7-2.5V353.559z M416.53,355.02c0,1.061-0.75,1.9-1.8,1.9c-1.07,0-1.851-0.85-1.851-1.92
			c0-1.061,0.76-1.9,1.83-1.9s1.84,0.85,1.84,1.92 M417.1,355c0-1.301-0.96-2.4-2.38-2.4s-2.38,1.131-2.38,2.42
			c0,1.301,0.95,2.4,2.37,2.4s2.4-1.131,2.4-2.42 M410.91,355.02c0,1.061-0.771,1.9-1.83,1.9c-1.061,0-1.84-0.85-1.84-1.92
			c0-1.061,0.76-1.9,1.819-1.9c1.07,0,1.841,0.85,1.841,1.92 M411.44,355c0-1.301-0.96-2.4-2.37-2.4c-1.42,0-2.38,1.131-2.38,2.42
			c0,1.301,0.939,2.4,2.35,2.4C410.46,357.42,411.44,356.29,411.44,355 M405.24,354.1c0,0.6-0.5,0.949-1.2,0.949h-1.44v-1.879h1.45
			c0.75,0,1.2,0.34,1.2,0.92 M405.95,357.331l-1.44-1.9c0.74-0.141,1.271-0.6,1.271-1.371c0-0.828-0.66-1.398-1.681-1.398h-2v4.67
			h0.5v-1.801h1.341l1.35,1.801h0.64H405.95z M400.43,355.01c0,1.029-0.75,1.83-1.93,1.83h-1.1v-3.68h1.1
			C399.68,353.161,400.43,353.959,400.43,355.01 M400.98,354.991c0-1.301-1.021-2.32-2.48-2.32h-1.6v4.66h1.6
			C399.96,357.331,400.98,356.309,400.98,354.991 M395.779,352.67h-3.35v4.66h3.4v-0.48h-2.87v-1.631h2.54v-0.479h-2.54v-1.602h2.84
			v-0.469H395.779z M389.71,356.87h-1.55v-1.66h1.47c0.8,0,1.24,0.301,1.24,0.801c0,0.529-0.44,0.85-1.15,0.85 M389.54,354.76h-1.37
			v-1.621h1.4c0.68,0,1.039,0.301,1.039,0.771c0,0.549-0.449,0.84-1.08,0.84 M389.63,352.67h-2v4.66h2.08
			c1.021,0,1.7-0.471,1.7-1.281c0-0.648-0.46-0.959-1-1.129c0.35-0.16,0.73-0.471,0.73-1.08c0-0.721-0.601-1.17-1.521-1.17"/>
	</g>
</g>
<g>
	<defs>
		<rect id="SVGID_121_" x="45.08" y="159" width="100.14" height="4.57"/>
	</defs>
	<clipPath id="SVGID_122_">
		<use xlink:href="#SVGID_121_"  overflow="visible"/>
	</clipPath>
	<path clip-path="url(#SVGID_122_)" fill="#231F20" d="M145.22,159.4v-0.3h-3.4v0.3h1.53v4.1h0.33v-4.1H145.22z M139.42,163.5v-0.3
		h-2.83v-1.78h2.5v-0.3h-2.52v-1.73h2.82v-0.3h-3.14v4.4h3.17V163.5z M133.55,163.5v-0.3h-2.84v-1.78h2.54v-0.3h-2.53v-1.73h2.82
		v-0.3h-3.14v4.4h3.17L133.55,163.5z M127.27,160.36c0,0.64-0.54,1-1.28,1h-1.5v-1.97h1.5c0.8,0,1.28,0.36,1.28,0.95V160.36z
		 M127.77,163.5l-1.46-1.9c0.76-0.1,1.3-0.5,1.3-1.25s-0.62-1.27-1.57-1.27h-1.85v4.4h0.32v-1.8h1.45l1.4,1.8h0.42v0.02H127.77z
		 M121.53,159.4v-0.3h-3.4v0.3h1.54v4.1h0.32v-4.1h1.53H121.53z M115.8,162.36v-0.02c0-0.64-0.42-1-1.44-1.2
		c-1.05-0.23-1.3-0.5-1.3-0.98c0-0.47,0.44-0.84,1.1-0.84c0.47,0,0.9,0.14,1.3,0.5l0.2-0.26c-0.44-0.36-0.86-0.54-1.5-0.54
		c-0.82,0-1.42,0.5-1.42,1.16c0,0.68,0.43,1.04,1.5,1.25c1,0.2,1.24,0.48,1.24,0.94c0,0.52-0.46,0.9-1.12,0.9
		c-0.65,0-1.1-0.22-1.58-0.66l-0.2,0.25c0.5,0.48,1.06,0.7,1.76,0.7C115.19,163.56,115.8,163.08,115.8,162.36 M104.64,163.51v-4.4
		h-0.3v3.82l-3.05-3.83h-0.32v4.4h0.3v-3.92l3.12,3.92h0.24L104.64,163.51z M97.87,161.31c0,1.1-0.78,1.98-1.87,1.98s-1.9-0.9-1.9-2
		s0.8-1.97,1.88-1.97s1.9,0.9,1.9,2L97.87,161.31z M98.21,161.31c0.02,0,0.02,0,0-0.02c0-1.2-0.87-2.27-2.2-2.27
		c-1.34,0-2.23,1.1-2.23,2.3c0,1.2,0.88,2.27,2.22,2.27c1.32,0,2.2-1.07,2.2-2.28 M91.67,159.41v-0.3h-3.4v0.3h1.53v4.1h0.33v-4.1
		H91.67z M85.87,162.91v-1.7h-1.8v0.3h1.48v1.28c-0.32,0.27-0.84,0.5-1.4,0.5c-1.18,0-1.9-0.85-1.9-2c0-1.06,0.76-1.97,1.83-1.97
		c0.67,0,1.07,0.23,1.42,0.54l0.2-0.25c-0.43-0.37-0.9-0.6-1.6-0.6c-1.32,0-2.18,1.1-2.18,2.3c0,1.25,0.82,2.27,2.22,2.27
		c0.72,0,1.33-0.3,1.73-0.66 M79.15,163.52v-4.4h-0.3v3.82l-3.06-3.83h-0.32v4.4h0.32v-3.92l3.1,3.92h0.25L79.15,163.52z
		 M72.48,159.12h-0.33v4.4h0.33V159.12z M69.14,163.52v-4.4h-0.33v2.03H66v-2.04h-0.33v4.4h0.32v-2.07h2.8v2.07h0.34L69.14,163.52z
		 M62.94,162.38v-0.02c0-0.64-0.43-1-1.46-1.2c-1.04-0.23-1.28-0.5-1.28-0.98c0-0.47,0.43-0.84,1.08-0.84c0.48,0,0.9,0.14,1.3,0.5
		l0.22-0.26c-0.45-0.36-0.87-0.54-1.5-0.54c-0.83,0-1.43,0.5-1.43,1.16c0,0.68,0.43,1.04,1.5,1.25c1,0.2,1.24,0.48,1.24,0.94
		c0,0.52-0.45,0.9-1.1,0.9c-0.66,0-1.1-0.22-1.6-0.66l-0.2,0.25c0.52,0.48,1.06,0.7,1.77,0.7C62.33,163.58,62.94,163.1,62.94,162.38
		 M56.44,162H54.1l1.17-2.56l1.16,2.56H56.44z M57.5,163.53l-2.07-4.44h-0.3l-2.06,4.44h0.34l0.57-1.24h2.6l0.56,1.24H57.5z
		 M51.4,159.13h-0.35l-1.4,3.9l-1.28-3.93h-0.25l-1.3,3.94l-1.38-3.9h-0.37l1.6,4.43h0.27l1.3-3.83l1.28,3.83h0.27l1.6-4.44H51.4z"
		/>
</g>
<g id="Layer_1_1_">
	<g>
		<polygon points="45.08,374.455 77.999,357.161 77.999,392.961 		"/>
		<polygon points="120.929,374.455 88.011,357.161 88.011,392.961 		"/>
		<polygon points="82.547,309.375 64.346,375.215 100.648,375.215 		"/>
		<g>
			<polygon fill="#FFFFFF" points="65.15,375.666 99.841,375.666 82.447,436.264 			"/>
			<path d="M99.037,376.272l-16.587,57.786l-16.495-57.786H99.037 M100.648,375.059H64.346l18.099,63.41L100.648,375.059
				L100.648,375.059z"/>
		</g>
		<g>
			<path fill="#FFFFFF" d="M86.714,354.434h3.148v18.225h-2.682l-10.05-12.965v12.965h-3.15v-18.225h2.968l9.763,12.602v-12.602
				H86.714z"/>
		</g>
	</g>
</g>
</svg>
