<svg xmlns="http://www.w3.org/2000/svg" width="513.359" height="495.36" xmlns:xlink="http://www.w3.org/1999/xlink"><g><path fill="#fff" d="M78.92 59.07h33.15v44.2H78.92zM112.07 59.07h33.15v44.2h-33.15zM145.22 110.92v-7.65h-24.65v7.65h-8.5v41.65h33.15zM78.92 110.92h-20.4v17H45.77v25.5h33.15z"/><path fill="#BBBDBF" d="M78.07 110.07v42.5h34v-30.6H89.12v-11.05z"/><path fill="#fff" d="M45.77 58.22h32.3v45.05h-13.6v-6.8h-4.25v-10.2H45.77z"/><defs><path id="a" d="M-57.04 57.34h541.22v714.82H-57.04z"/></defs><clipPath id="b"><use xlink:href="#a" overflow="visible"/></clipPath><path fill="none" stroke="#000" stroke-width=".425" d="M56.03 105.07c0 1.8 1.46 3.25 3.25 3.25m-3.25-3.25h3.25v-.2h-3.25v.2z" clip-path="url(#b)"/><path fill="none" stroke="#000" stroke-width=".452" d="M49.64 116.52h8.96m-12.22 1.2H58.6m-12.23 1.2h12.2m-12.16 1.2h12.24m-12.2 1.2h12.2m-12.2 1.2h12.2m-12.17 1.24h12.17"/><path fill="none" stroke="#000" stroke-width=".425" d="M46.14 109.76h6.38m-6.38 1.2h6.38m-6.38 1.2h6.38m-6.38 1.2h6.38m-6.38 1.2h6.32m-6.44 1.2h5.47m-5.13.94h3.56"/><path fill="none" stroke="#000" stroke-width="1.18" d="M46.14 108.63h6.38"/><path fill="none" stroke="#000" stroke-width=".425" d="M46.66 119.27l3.66-2.7-.2-.55.94.88-.26-.64 1.77-1.07"/><path fill="none" stroke="#000" stroke-width=".452" d="M52.14 115.32h6.76"/><path fill="#fff" d="M52.9 124.03h.58V108.7h-.6v15.33zm-.3-15.73h1.17v16.13H52.6V108.3z"/><path fill="none" stroke="#262626" stroke-width=".495" d="M52.9 124.03h.58V108.7h-.6v15.33zm-.3-15.73h1.17v16.13H52.6V108.3z"/><defs><path id="c" d="M-57.04 57.34h541.22v714.82H-57.04z"/></defs><clipPath id="d"><use xlink:href="#c" overflow="visible"/></clipPath><path fill="none" stroke="#262626" stroke-width="2.065" stroke-miterlimit="10" d="M145.66 153.22H45.36V58.37h100.3z" clip-path="url(#d)"/><defs><path id="e" d="M-57.04 57.34h541.22v714.82H-57.04z"/></defs><clipPath id="f"><use xlink:href="#e" overflow="visible"/></clipPath><path fill="none" stroke="#262626" stroke-width="1.18" stroke-miterlimit="10" d="M58.77 110.6h61.8v-7.4m-71.53-7.07H60.4m-11.66 7.97h10.03v.88m0 3.25V128H46.23m-.73-23.75h3.4V86.1h11.64v10.62h4v6.94h47.78l.06-.88h8.05l-.07-.16h25.74m-67.4 50.9v-43.28m33.47 43.27v-43.26m0-7.32v-43.9m-33.63 43.9v-43.9" clip-path="url(#f)"/><defs><path id="g" d="M-57.04 57.34h541.22v714.82H-57.04z"/></defs><clipPath id="h"><use xlink:href="#g" overflow="visible"/></clipPath><path fill="none" stroke="#000" stroke-width=".425" d="M102.66 110.97V116m-1.2-5.03V116m-1.2-5.03V116m-1.22-5.03v4.92m-1.2-4.93v4.92m-1.2-4.93v4.92m-1.2-4.93v1.67m15.33 1.12c-1.8 0-3.27-1.46-3.27-3.27m3.46 3.26h-.2v-3.27h.2v3.26zm-33.43-.07c-1.8 0-3.27-1.48-3.27-3.28m3.46 3.27h-.2v-3.28h.2v3.27zm35.92.06c1.8 0 3.27-1.46 3.27-3.27m-3.45 3.26h.2v-3.27h-.2v3.26zm-32.7-.07c1.82 0 3.28-1.48 3.28-3.28m-3.46 3.27h.2v-3.28h-.2v3.27zm33.7-14.67c1.8 0 3.26 1.47 3.26 3.27m-3.46-3.27h.2v3.27h-.2v-3.27zm-18.9 1.55c-1.8 0-3.27 1.47-3.27 3.27m3.46-3.27h-.2v3.27h.2v-3.27zm-27.64 2.34c0-1.8-1.46-3.27-3.27-3.27m3.27 3.27h-3.27v.2h3.27v-.2z" clip-path="url(#h)"/><path fill="none" stroke="#000" stroke-width="1.18" d="M103.86 110.97V116"/><path fill="none" stroke="#000" stroke-width=".425" d="M94.67 110.43l.93 2.9.6-.05-1.1.7.7-.1.6 2.13"/><path fill="#fff" d="M92.85 116.72h11.36v-.6H92.86v.6zm11.65.3H92.55v-1.18h11.95v1.18z"/><path fill="none" stroke="#262626" stroke-width=".425" d="M92.85 116.72h11.36v-.6H92.86v.6zm11.65.3H92.55v-1.18h11.95v1.18z"/><path fill="none" stroke="#000" stroke-width=".425" d="M95.33 113.97v1.94m-1.2-4.9v4.9m-1.2-4.9v4.9m2.35 1.17V122m-1.2-4.93V122m-1.2-4.93V122m11.08-4.95v5m-1.2-5v5m-1.2-5v5m-1.34-5v5m-1.2-5v4.92m-1.2-4.92v4.92m-1.2-4.92v4.92"/><path fill="none" stroke="#262626" stroke-width="1.18" stroke-miterlimit="10" d="M88.72 110.6v11.35h23.6"/><path d="M56.7 89.13h-3.37v1.54h2.98v.94h-2.97v1.6h3.4v.94H52.3V88.2h4.4v.92z"/><defs><path id="i" d="M-57.04 57.34h541.22v714.82H-57.04z"/></defs><clipPath><use xlink:href="#i" overflow="visible"/></clipPath><defs><path id="j" d="M-57.04 57.34h541.22v714.82H-57.04z"/></defs><clipPath id="k"><use xlink:href="#j" overflow="visible"/></clipPath><path fill="#231F20" d="M299.06 241.24l-2.93-3.73h-.5v4.67h.52v-3.82l3 3.82h.43v-4.66h-.52v3.74zm-4.5-3.73h-3.38v4.67h3.4v-.48h-2.87v-1.64h2.55v-.48h-2.54v-1.6h2.85v-.47zm-5.22 2.57v2.1h.53v-4.66h-.53v2.08h-2.68v-2.07h-.53v4.67h.53v-2.1h2.68zm-4.13 1.36l-.33-.34c-.45.42-.87.66-1.5.66-1.03 0-1.8-.84-1.8-1.92s.76-1.92 1.8-1.92c.63 0 1.06.27 1.46.64l.36-.4c-.48-.43-1-.73-1.83-.73-1.37 0-2.35 1.1-2.35 2.42 0 1.34 1 2.4 2.33 2.4.84 0 1.38-.33 1.86-.82M279 238h1.56v-.5h-3.66v.5h1.56v4.17h.54V238zm-3.65 4.17h.52v-4.66h-.52v4.67zm-2.95-2.62l2-2.04h-.68l-2.68 2.8v-2.8h-.52v4.67h.52v-1.25l1-1 1.78 2.25h.66l-2.08-2.62z" clip-path="url(#k)"/><defs><path id="l" d="M-57.04 57.34h541.22v714.82H-57.04z"/></defs><clipPath id="m"><use xlink:href="#l" overflow="visible"/></clipPath><path fill="#231F20" d="M466.06 275.3v1.55h.5v-3.66h-.5v1.55h-4.17v.53h4.16zm.5-2.87v-3.36h-4.67v3.4h.47v-2.88H464v2.53h.48v-2.54h1.6v2.83h.47zm-1.18-7.2c.43 0 .76.37.76.98 0 .5-.15.92-.5 1.35l.4.3c.38-.47.57-.95.57-1.63 0-.88-.52-1.53-1.26-1.53-.77 0-1.12.48-1.35 1.55-.22.98-.47 1.22-.9 1.22-.48 0-.8-.42-.8-1.04 0-.65.22-1.1.65-1.6l-.38-.32c-.5.57-.75 1.17-.75 1.9 0 .93.52 1.6 1.33 1.6.7 0 1.1-.48 1.32-1.52.22-1.02.47-1.26.9-1.26m-1.16-2.03c-1.05 0-1.9-.77-1.9-1.83 0-1.07.86-1.84 1.93-1.84 1.06 0 1.9.76 1.9 1.82s-.85 1.84-1.92 1.84m.03.53c1.3 0 2.4-.95 2.4-2.36 0-1.42-1.13-2.4-2.42-2.4s-2.4.97-2.4 2.38c0 1.42 1.14 2.38 2.43 2.38m-2.34-8.4v3.16h.48v-2.63h4.17v-.53h-4.66zm.73-.9l.34-.35c-.43-.45-.67-.87-.67-1.5 0-1.03.84-1.8 1.93-1.8s1.9.76 1.9 1.8c0 .63-.25 1.06-.63 1.46l.4.36c.43-.47.73-.97.73-1.82 0-1.37-1.1-2.35-2.42-2.35-1.33 0-2.4 1-2.4 2.33 0 .85.34 1.38.83 1.86" clip-path="url(#m)"/><defs><path id="n" d="M-57.04 57.34h541.22v714.82H-57.04z"/></defs><clipPath id="o"><use xlink:href="#n" overflow="visible"/></clipPath><path fill="#231F20" d="M388.55 271.7v-1.16h-.36v2.7h.35v-1.16h3.07v-.4h-3.07zm-.36 2.1v2.47h3.42v-2.5h-.35v2.1h-1.2v-1.86h-.35v1.88h-1.17v-2.1h-.36zm.85 5.3c-.3 0-.56-.28-.56-.72 0-.35.1-.67.36-1l-.3-.2c-.27.33-.42.7-.42 1.2 0 .64.4 1.12.94 1.12.57 0 .82-.36 1-1.15.15-.73.33-.9.65-.9.35 0 .6.3.6.77 0 .48-.17.82-.5 1.18l.3.23c.36-.4.54-.85.54-1.4 0-.68-.38-1.17-.98-1.17-.53 0-.82.36-.98 1.12-.16.75-.34.93-.67.93m.86 1.5c.8 0 1.42.56 1.42 1.35s-.63 1.35-1.42 1.35-1.4-.56-1.4-1.34.63-1.36 1.4-1.36m0-.4c-.95 0-1.77.7-1.77 1.75s.83 1.75 1.78 1.75c.96 0 1.78-.7 1.78-1.74 0-1.05-.83-1.76-1.78-1.76m1.72 6.2v-2.33h-.36V286h-3.07v.4h3.42zm-.54.66l-.25.26c.3.33.5.63.5 1.1 0 .76-.63 1.33-1.43 1.33s-1.4-.57-1.4-1.33c0-.46.2-.78.46-1.07l-.28-.27c-.33.34-.55.72-.55 1.34 0 1 .8 1.73 1.78 1.73 1 0 1.78-.73 1.78-1.72 0-.62-.24-1-.6-1.37" clip-path="url(#o)"/><defs><path id="p" d="M-57.04 57.34h541.22v714.82H-57.04z"/></defs><clipPath id="q"><use xlink:href="#p" overflow="visible"/></clipPath><path fill="#231F20" d="M397.32 208.74v2.1h.53v-4.66h-.53v2.07h-2.68v-2.07h-.53v4.66h.54v-2.1h2.68zm-5.75-2.07h1.56v-.5h-3.66v.5h1.56v4.17h.53v-4.17zm-3.4 2.47h-2.12l1.06-2.38 1.07 2.38zm-.8-3h-.5l-2.12 4.7h.54l.54-1.23h2.54l.54 1.24h.56l-2.12-4.7zm-4.94 4.23h-1.56v-1.65h1.47c.8 0 1.24.3 1.24.8 0 .53-.44.85-1.15.85m-.2-2.1h-1.36v-1.6h1.4c.68 0 1.04.28 1.04.75 0 .55-.43.84-1.06.84m.1-2.08h-2v4.66h2.08c1 0 1.68-.47 1.68-1.28 0-.64-.44-.96-1-1.13.37-.16.74-.47.74-1.08 0-.7-.6-1.17-1.5-1.17" clip-path="url(#q)"/><defs><path id="r" d="M-57.04 57.34h541.22v714.82H-57.04z"/></defs><clipPath id="s"><use xlink:href="#r" overflow="visible"/></clipPath><path fill="#231F20" d="M279.04 184.7h-.88v1h.87v-1zm-2.8-1.1v2.1h.53v-4.66h-.52v2.07h-2.7v-2.06h-.52v4.66h.53v-2.1h2.7zm-4.12 1.36l-.35-.34c-.45.42-.86.67-1.5.67-1.03 0-1.8-.86-1.8-1.94s.77-1.9 1.8-1.9c.63 0 1.07.25 1.46.62l.36-.38c-.48-.44-.98-.74-1.83-.74-1.37 0-2.35 1.1-2.35 2.42 0 1.34 1 2.4 2.33 2.4.85 0 1.38-.33 1.87-.82m-5.08-3.92h-3.37v4.66h3.4v-.48h-2.87v-1.63h2.54v-.5h-2.54v-1.58h2.84v-.48zm-5.2.9v3.76h.5v-4.66h-.52l-1.7 2.54-1.7-2.54h-.52v4.66h.5v-3.77l1.7 2.5h.03l1.7-2.5z" clip-path="url(#s)"/><defs><path id="t" d="M-57.04 57.34h541.22v714.82H-57.04z"/></defs><clipPath id="u"><use xlink:href="#t" overflow="visible"/></clipPath><path fill="#231F20" d="M377.9 242.12c1.05 0 1.85.75 1.85 1.93v1.1h-3.7v-1.1c0-1.18.82-1.93 1.86-1.93m0-.54c-1.32 0-2.32 1-2.32 2.47v1.62h4.65v-1.62c0-1.46-1-2.47-2.33-2.47m2.33 5.47h-1v.87h1v-.87zm-.78 5.8l-3.87 1.34v.57l4.7-1.67v-.44l-3.8-1.28 3.8-1.27v-.44l-4.7-1.66v.55l3.87 1.33-3.9 1.28v.43l3.9 1.26z" clip-path="url(#u)"/><defs><path id="v" d="M-57.04 57.34h541.22v714.82H-57.04z"/></defs><clipPath id="w"><use xlink:href="#v" overflow="visible"/></clipPath><path fill="#231F20" d="M274.56 353.55v3.77h.53v-4.65h-.54l-1.7 2.54-1.7-2.53h-.52v4.65h.5v-3.76l1.7 2.48h.03l1.7-2.5zM269 355c0 1.06-.76 1.92-1.82 1.92s-1.84-.87-1.84-1.93.76-1.93 1.82-1.93c1.07 0 1.84.87 1.84 1.93m.54 0c0-1.3-.95-2.4-2.36-2.4-1.42 0-2.38 1.1-2.38 2.4 0 1.3.95 2.4 2.36 2.4 1.42 0 2.38-1.12 2.38-2.4m-6.2 0c0 1.06-.75 1.92-1.8 1.92-1.08 0-1.85-.87-1.85-1.93s.76-1.93 1.82-1.93 1.83.87 1.83 1.93m.54 0c0-1.3-.95-2.4-2.36-2.4s-2.38 1.1-2.38 2.4c0 1.3.96 2.4 2.37 2.4 1.4 0 2.37-1.12 2.37-2.4m-6.2-.92c0 .6-.5.96-1.2.96h-1.42v-1.9h1.43c.76 0 1.2.36 1.2.94m.7 3.24l-1.44-1.9c.73-.13 1.27-.58 1.27-1.36 0-.84-.65-1.4-1.68-1.4h-2v4.66h.53v-1.8h1.33l1.35 1.8h.64z" clip-path="url(#w)"/><defs><path id="x" d="M-57.04 57.34h541.22v714.82H-57.04z"/></defs><clipPath id="y"><use xlink:href="#x" overflow="visible"/></clipPath><path fill="#231F20" d="M290.4 348.2v-1.86h-1.93v.47h1.42v1.17c-.33.26-.82.46-1.36.46-1.13 0-1.84-.82-1.84-1.94 0-1.05.74-1.92 1.77-1.92.66 0 1.06.2 1.42.53l.33-.4c-.47-.38-.95-.6-1.74-.6-1.4 0-2.34 1.12-2.34 2.4 0 1.34.9 2.4 2.36 2.4.8 0 1.44-.32 1.87-.7m-5.87-.3l-2.93-3.73h-.5v4.65h.52v-3.8l3 3.8h.43v-4.65h-.52v3.73zm-5.3.92h.5v-4.65h-.5v4.65zm-3.2-.64l-1.66-4h-.58l2 4.68h.46l2-4.7h-.57l-1.67 4.02zm-3.73.64h.52v-4.65h-.52v4.65zm-4.16 0h3.14v-.48h-2.62v-4.17h-.52v4.65zm-2.33-1h-.87v1h.88v-1zm-2.84.37v-1.86h-1.92v.47h1.42v1.17c-.32.26-.82.46-1.35.46-1.12 0-1.83-.82-1.83-1.94 0-1.05.74-1.92 1.77-1.92.66 0 1.06.2 1.42.53l.34-.4c-.47-.38-.95-.6-1.74-.6-1.4 0-2.33 1.12-2.33 2.4 0 1.34.9 2.4 2.36 2.4.78 0 1.43-.32 1.86-.7m-5.86-.3l-2.93-3.73h-.5v4.65h.52v-3.8l3 3.8h.42v-4.65h-.52v3.73zm-5.3.92h.5v-4.65h-.5v4.65zm-1.9-.92l-2.92-3.73h-.5v4.65h.52v-3.8l3 3.8h.43v-4.65h-.52v3.73zm-5.3.92h.53v-4.65h-.53v4.65zm-1.7-2.32c0 1.04-.75 1.84-1.93 1.84h-1.1v-3.7h1.1c1.18 0 1.93.82 1.93 1.86m.54 0c0-1.33-1-2.33-2.47-2.33h-1.62v4.65h1.62c1.46 0 2.47-1 2.47-2.33" clip-path="url(#y)"/><defs><path id="z" d="M-57.04 57.34h541.22v714.82H-57.04z"/></defs><clipPath id="A"><use xlink:href="#z" overflow="visible"/></clipPath><path fill="#231F20" d="M354.2 271.83h-3.33v4.66h.52v-2.04h2.5v-.48h-2.5v-1.66h2.8v-.5zm-4.42 0h-3.37v4.66h3.4v-.5h-2.86v-1.62h2.54v-.48h-2.54v-1.6h2.84v-.47zm-5.02 1.42c0 .6-.5.96-1.2.96h-1.43v-1.88h1.44c.75 0 1.2.35 1.2.93m.7 3.24l-1.45-1.9c.73-.15 1.27-.6 1.27-1.38 0-.83-.67-1.4-1.7-1.4h-2v4.67h.53v-1.82h1.33l1.35 1.8h.65z" clip-path="url(#A)"/><defs><path id="B" d="M-57.04 57.34h541.22v714.82H-57.04z"/></defs><clipPath id="C"><use xlink:href="#B" overflow="visible"/></clipPath><path fill="#231F20" d="M350.76 240.7l-1.33-3.88h-.57l1.66 4.68h.44l1.28-3.78 1.28 3.78h.44l1.67-4.7h-.56l-1.33 3.9-1.27-3.9h-.44l-1.27 3.9zm-2.96-1.55c0 1.04-.75 1.83-1.93 1.83h-1.1v-3.68h1.1c1.18 0 1.93.8 1.93 1.85m.55 0c0-1.33-1.02-2.33-2.48-2.33h-1.6v4.65h1.6c1.46 0 2.48-1.02 2.48-2.33" clip-path="url(#C)"/><path fill="#BBBDBF" d="M241.96 133.2h29.25v27.3h-29.24zM180.2 59.1v377.65h26V424.4h-16.9V243.04h4.56v-20.37H190V59.1z"/><path fill="#fff" d="M440.35 170.05h30.7v59.4h-30.7z"/><path fill="none" stroke="#000" stroke-width=".78" d="M440.35 170.05h30.7v59.4h-30.7z"/><defs><path id="D" d="M-57.04 57.34h541.22v714.82H-57.04z"/></defs><clipPath id="E"><use xlink:href="#D" overflow="visible"/></clipPath><circle cx="455.848" cy="183.59" r="1.26" fill="none" stroke="#231F20" stroke-width=".65" clip-path="url(#E)"/><defs><path id="F" d="M-57.04 57.34h541.22v714.82H-57.04z"/></defs><clipPath id="G"><use xlink:href="#F" overflow="visible"/></clipPath><path fill="none" stroke="#000" stroke-width=".65" d="M455.8 226.06c-8.8 0-12.03-2.03-12.03-4.88v-43.4c0-.68.2-2.12 2.03-2.12h20.02c1.83 0 2.02 1.44 2.02 2.13v43.38c0 2.85-3.3 4.88-12.04 4.88z" clip-path="url(#G)"/><defs><path id="H" d="M-57.04 57.34h541.22v714.82H-57.04z"/></defs><clipPath id="I"><use xlink:href="#H" overflow="visible"/></clipPath><path fill="none" stroke="#231F20" stroke-width=".585" d="M461.2 173.45c0 .72-.6 1.3-1.3 1.3-.7 0-1.28-.58-1.28-1.3 0-.7.58-1.3 1.28-1.28.7 0 1.3.58 1.3 1.28zm-8 0c0 .72-.57 1.3-1.3 1.3-.7 0-1.26-.58-1.27-1.3 0-.7.58-1.3 1.28-1.3.73 0 1.3.6 1.3 1.3z" clip-path="url(#I)"/><defs><path id="J" d="M-57.04 57.34h541.22v714.82H-57.04z"/></defs><clipPath id="K"><use xlink:href="#J" overflow="visible"/></clipPath><path fill="#fff" d="M454.1 173.07c0-1.05.73-1.9 1.78-1.9 1.06 0 1.63.85 1.63 1.9l-.66 7.27c0 .72-1.93.72-1.93 0l-.8-7.27z" clip-path="url(#K)"/><defs><path id="L" d="M-57.04 57.34h541.22v714.82H-57.04z"/></defs><clipPath id="M"><use xlink:href="#L" overflow="visible"/></clipPath><path fill="none" stroke="#231F20" stroke-width=".585" d="M454.1 173.07c0-1.05.73-1.9 1.78-1.9 1.06 0 1.63.85 1.63 1.9l-.66 7.27c0 .72-1.93.72-1.93 0l-.8-7.27z" clip-path="url(#M)"/><defs><path id="N" d="M-57.04 57.34h541.22v714.82H-57.04z"/></defs><clipPath id="O"><use xlink:href="#N" overflow="visible"/></clipPath><path fill="none" stroke="#000" stroke-width=".975" d="M201.9 87.94c15.92 0 28.82-12.9 28.82-28.82m-30.48 28.84h1.66V59.13h-1.66v28.83zM432.76 203.4c-15.9 0-28.82 12.9-28.82 28.82m30.48-28.84h-1.66v28.84h1.66v-28.84z" clip-path="url(#O)"/><path fill="none" stroke="#000" stroke-width=".78" d="M386.26 235.25v26.43m0-5.16h3.66l.86-3.16v-9.7l-.86-3.22h-3.66m-16.92 21.25h24.1v-26.26h-24.1v26.25z"/><path fill="#fff" d="M387.84 236.72v2.12l-1.48.46v-3.05z"/><path fill="none" stroke="#231F20" stroke-width=".78" d="M387.84 236.72v2.12l-1.48.46v-3.05z"/><path fill="#fff" d="M327.9 191.22l-.06-25.68-30.22-.06.05 25.68z"/><path fill="none" stroke="#000" stroke-width=".78" d="M327.9 191.22l-.06-25.68-30.22-.06.05 25.68z"/><path fill="none" stroke="#000" stroke-width=".39" d="M297.45 167.77h30.27"/><defs><path id="P" d="M-57.04 57.34h541.22v714.82H-57.04z"/></defs><clipPath id="Q"><use xlink:href="#P" overflow="visible"/></clipPath><path fill="#fff" d="M306.5 177.06c2.18-.02 3.92-1.8 3.9-3.96 0-2.18-1.78-3.92-3.95-3.9-2.17 0-3.92 1.8-3.9 3.96 0 2.16 1.8 3.9 3.96 3.9" clip-path="url(#Q)"/><defs><path id="R" d="M-57.04 57.34h541.22v714.82H-57.04z"/></defs><clipPath id="S"><use xlink:href="#R" overflow="visible"/></clipPath><path fill="none" stroke="#231F20" stroke-width=".65" d="M306.5 177.06c2.18-.02 3.92-1.8 3.9-3.96 0-2.18-1.78-3.92-3.95-3.9-2.17 0-3.92 1.8-3.9 3.96 0 2.16 1.8 3.9 3.96 3.9z" clip-path="url(#S)"/><defs><path id="T" d="M-57.04 57.34h541.22v714.82H-57.04z"/></defs><clipPath id="U"><use xlink:href="#T" overflow="visible"/></clipPath><path fill="#fff" d="M318.28 176.97c2.17-.02 3.9-1.8 3.9-3.96-.02-2.16-1.8-3.9-3.96-3.9-2.16.03-3.9 1.8-3.9 3.97.02 2.16 1.8 3.92 3.96 3.9" clip-path="url(#U)"/><defs><path id="V" d="M-57.04 57.34h541.22v714.82H-57.04z"/></defs><clipPath id="W"><use xlink:href="#V" overflow="visible"/></clipPath><path fill="none" stroke="#231F20" stroke-width=".65" d="M318.28 176.97c2.17-.02 3.9-1.8 3.9-3.96-.02-2.16-1.8-3.9-3.96-3.9-2.16.03-3.9 1.8-3.9 3.97.02 2.16 1.8 3.92 3.96 3.9z" clip-path="url(#W)"/><defs><path id="X" d="M-57.04 57.34h541.22v714.82H-57.04z"/></defs><clipPath id="Y"><use xlink:href="#X" overflow="visible"/></clipPath><path fill="#fff" d="M306.58 187.74c2.18 0 3.92-1.78 3.9-3.95 0-2.18-1.8-3.93-3.95-3.9-2.17 0-3.92 1.77-3.9 3.95 0 2.17 1.8 3.9 3.95 3.9" clip-path="url(#Y)"/><defs><path id="Z" d="M-57.04 57.34h541.22v714.82H-57.04z"/></defs><clipPath id="aa"><use xlink:href="#Z" overflow="visible"/></clipPath><path fill="none" stroke="#231F20" stroke-width=".65" d="M306.58 187.74c2.18 0 3.92-1.78 3.9-3.95 0-2.18-1.8-3.93-3.95-3.9-2.17 0-3.92 1.77-3.9 3.95 0 2.17 1.8 3.9 3.95 3.9z" clip-path="url(#aa)"/><defs><path id="ab" d="M-57.04 57.34h541.22v714.82H-57.04z"/></defs><clipPath id="ac"><use xlink:href="#ab" overflow="visible"/></clipPath><path fill="#fff" d="M318.36 187.66c2.17-.02 3.9-1.8 3.9-3.95-.02-2.17-1.8-3.9-3.96-3.9-2.16.02-3.9 1.8-3.9 3.96.02 2.17 1.8 3.9 3.96 3.9" clip-path="url(#ac)"/><defs><path id="ad" d="M-57.04 57.34h541.22v714.82H-57.04z"/></defs><clipPath id="ae"><use xlink:href="#ad" overflow="visible"/></clipPath><path fill="none" stroke="#231F20" stroke-width=".65" d="M318.36 187.66c2.17-.02 3.9-1.8 3.9-3.95-.02-2.17-1.8-3.9-3.96-3.9-2.16.02-3.9 1.8-3.9 3.96.02 2.17 1.8 3.9 3.96 3.9z" clip-path="url(#ae)"/><path fill="#fff" d="M298.67 191.12h28.16v1.2h-28.16z"/><path fill="none" stroke="#231F20" stroke-width=".78" d="M298.67 191.12h28.16v1.2h-28.16zM342.06 438.45h55.25m12.52.02h45.83m-179.56-.08h45.8m-114.15-.07h46.48m88.8-12.63h43.88m-110.08 0h43.55m-112.86-.65h44.2m159.26.65h43.88"/><defs><path id="af" d="M-57.04 57.34h541.22v714.82H-57.04z"/></defs><clipPath id="ag"><use xlink:href="#af" overflow="visible"/></clipPath><path fill="#fff" d="M434.46 181.36c0 5.8-3.52 12.18-7.87 12.18s-7.87-6.38-7.87-12.18 3.52-8.83 7.86-8.83 7.86 3.02 7.86 8.83" clip-path="url(#ag)"/><defs><path id="ah" d="M-57.04 57.34h541.22v714.82H-57.04z"/></defs><clipPath id="ai"><use xlink:href="#ah" overflow="visible"/></clipPath><path fill="none" stroke="#000" stroke-width=".78" d="M434.46 181.36c0 5.8-3.52 12.18-7.87 12.18s-7.87-6.38-7.87-12.18 3.52-8.83 7.86-8.83 7.86 3.02 7.86 8.83z" clip-path="url(#ai)"/><defs><path id="aj" d="M-57.04 57.34h541.22v714.82H-57.04z"/></defs><clipPath id="ak"><use xlink:href="#aj" overflow="visible"/></clipPath><path fill="#fff" d="M421.88 174.44c0 .32-.26.6-.6.6h-2.74c-.33 0-.6-.28-.6-.6v-.1c0-.33.27-.6.6-.6h2.75c.32 0 .58.27.58.6v.1z" clip-path="url(#ak)"/><defs><path id="al" d="M-57.04 57.34h541.22v714.82H-57.04z"/></defs><clipPath id="am"><use xlink:href="#al" overflow="visible"/></clipPath><path fill="none" stroke="#231F20" stroke-width=".78" d="M421.88 174.44c0 .32-.26.6-.6.6h-2.74c-.33 0-.6-.28-.6-.6v-.1c0-.33.27-.6.6-.6h2.75c.32 0 .58.27.58.6v.1z" clip-path="url(#am)"/><defs><path id="an" d="M-57.04 57.34h541.22v714.82H-57.04z"/></defs><clipPath id="ao"><use xlink:href="#an" overflow="visible"/></clipPath><path fill="#fff" d="M417.53 173.73c-.98 0-1.8-2.67-1.8-3.66 0-1 .82-3.66 1.8-3.66h17.97c1 0 1.8 2.68 1.8 3.67 0 1-.8 3.66-1.8 3.66h-17.97z" clip-path="url(#ao)"/><defs><path id="ap" d="M-57.04 57.34h541.22v714.82H-57.04z"/></defs><clipPath id="aq"><use xlink:href="#ap" overflow="visible"/></clipPath><path fill="none" stroke="#000" stroke-width=".78" d="M417.53 173.73c-.98 0-1.8-2.67-1.8-3.66 0-1 .82-3.66 1.8-3.66h17.97c1 0 1.8 2.68 1.8 3.67 0 1-.8 3.66-1.8 3.66h-17.97z" clip-path="url(#aq)"/><defs><path id="ar" d="M-57.04 57.34h541.22v714.82H-57.04z"/></defs><clipPath id="as"><use xlink:href="#ar" overflow="visible"/></clipPath><path fill="#fff" d="M432.38 181.6c0 4.26-2.6 8.96-5.8 8.96s-5.77-4.7-5.77-8.96c0-4.26 2.6-6.48 5.8-6.48s5.78 2.22 5.78 6.48" clip-path="url(#as)"/><defs><path id="at" d="M-57.04 57.34h541.22v714.82H-57.04z"/></defs><clipPath id="au"><use xlink:href="#at" overflow="visible"/></clipPath><path fill="none" stroke="#000" stroke-width=".65" d="M432.38 181.6c0 4.26-2.6 8.96-5.8 8.96s-5.77-4.7-5.77-8.96c0-4.26 2.6-6.48 5.8-6.48s5.78 2.22 5.78 6.48z" clip-path="url(#au)"/><path fill="none" stroke="#231F20" stroke-width=".78" d="M365.03 165.34v24.05l41.6-.88V162.3"/><path fill="none" stroke="#000" stroke-width=".975" d="M456.24 233.73v60.67"/><path fill="none" stroke="#000" stroke-width=".975" stroke-dashoffset="4" d="M458.4 293.32v-62.4" stroke-dasharray="2.013,2.013,2.013,2.013,2.013,2.013"/><path fill="none" stroke="#000" stroke-width=".975" d="M382.8 268.2v25.55"/><path fill="none" stroke="#000" stroke-width=".975" stroke-dashoffset="3" d="M380.2 268.62v25.13" stroke-dasharray="1.933,1.933,1.933,1.933,1.933,1.933"/><path fill="none" stroke="#000" stroke-width=".78" d="M329.06 163.97v25.35h9.97v64.9h25.35"/><defs><path id="av" d="M-57.04 57.34h541.22v714.82H-57.04z"/></defs><clipPath id="aw"><use xlink:href="#av" overflow="visible"/></clipPath><circle cx="386.826" cy="176.782" r="1.189" fill="none" stroke="#000" stroke-width=".52" clip-path="url(#aw)"/><defs><path id="ax" d="M-57.04 57.34h541.22v714.82H-57.04z"/></defs><clipPath id="ay"><use xlink:href="#ax" overflow="visible"/></clipPath><path fill="none" stroke="#000" stroke-width=".65" d="M386.83 166.95c.63 0 1.15.52 1.15 1.15s-.52 1.16-1.15 1.16c-.64 0-1.16-.52-1.16-1.16s.52-1.15 1.16-1.15zm.53 7.2h-1.06v-4.72h1.06v4.72zm4.66-4.83h-10.4v-2.48h10.4v2.48z" clip-path="url(#ay)"/><path fill="none" stroke="#000" stroke-width=".78" d="M376.3 166.46h21.06v19.07H376.3z"/><path fill="none" stroke="#000" stroke-width=".585" d="M377.93 169.38h17.75v14.52h-17.75z"/><path fill="none" stroke="#000" stroke-width=".65" d="M334.52 255.75v35.75"/><path fill="none" stroke="#000" stroke-width=".78" d="M330.94 268.46h1.46v2.76h-1.46zM332.42 255.97h30.07v35.24H332.4zM330.94 277.15h1.46v2.76h-1.46z"/><defs><path id="az" d="M-57.04 57.34h541.22v714.82H-57.04z"/></defs><clipPath id="aA"><use xlink:href="#az" overflow="visible"/></clipPath><path fill="#fff" d="M359.48 198.34c1 0 1.84.83 1.84 1.84v22.4c0 1.02-.83 1.84-1.84 1.84h-15.76c-1.02 0-1.84-.82-1.84-1.83v-22.42c0-1 .82-1.84 1.84-1.84h15.76z" clip-path="url(#aA)"/><defs><path id="aB" d="M-57.04 57.34h541.22v714.82H-57.04z"/></defs><clipPath id="aC"><use xlink:href="#aB" overflow="visible"/></clipPath><path fill="none" stroke="#231F20" stroke-width=".78" d="M359.48 198.34c1 0 1.84.83 1.84 1.84v22.4c0 1.02-.83 1.84-1.84 1.84h-15.76c-1.02 0-1.84-.82-1.84-1.83v-22.42c0-1 .82-1.84 1.84-1.84h15.76z" clip-path="url(#aC)"/><defs><path id="aD" d="M-57.04 57.34h541.22v714.82H-57.04z"/></defs><clipPath id="aE"><use xlink:href="#aD" overflow="visible"/></clipPath><path fill="#fff" d="M357 220.63c0 1.03-.83 1.88-1.84 1.88h-9.47c-1.02 0-1.86-.84-1.86-1.87V202.2c0-1.04.84-1.9 1.85-1.9h9.46c1 0 1.85.86 1.85 1.9v18.43z" clip-path="url(#aE)"/><defs><path id="aF" d="M-57.04 57.34h541.22v714.82H-57.04z"/></defs><clipPath id="aG"><use xlink:href="#aF" overflow="visible"/></clipPath><path fill="none" stroke="#231F20" stroke-width=".585" d="M357 220.63c0 1.03-.83 1.88-1.84 1.88h-9.47c-1.02 0-1.86-.84-1.86-1.87V202.2c0-1.04.84-1.9 1.85-1.9h9.46c1 0 1.85.86 1.85 1.9v18.43z" clip-path="url(#aG)"/><defs><path id="aH" d="M-57.04 57.34h541.22v714.82H-57.04z"/></defs><clipPath id="aI"><use xlink:href="#aH" overflow="visible"/></clipPath><path fill="#fff" d="M350.2 209.82c.78 0 1.4.62 1.4 1.4 0 .75-.63 1.37-1.4 1.37-.75 0-1.38-.62-1.38-1.4 0-.76.63-1.38 1.4-1.38" clip-path="url(#aI)"/><defs><path id="aJ" d="M-57.04 57.34h541.22v714.82H-57.04z"/></defs><clipPath id="aK"><use xlink:href="#aJ" overflow="visible"/></clipPath><path fill="none" stroke="#231F20" stroke-width=".52" d="M350.2 209.82c.78 0 1.4.62 1.4 1.4 0 .75-.63 1.37-1.4 1.37-.75 0-1.38-.62-1.38-1.4 0-.76.63-1.38 1.4-1.38z" clip-path="url(#aK)"/><defs><path id="aL" d="M-57.04 57.34h541.22v714.82H-57.04z"/></defs><clipPath id="aM"><use xlink:href="#aL" overflow="visible"/></clipPath><path fill="#fff" d="M359.2 206.23c.75 0 1.44.6 1.44 1.34v7.3c0 .75-.7 1.35-1.43 1.35s-1.4-.6-1.4-1.34v-7.3c0-.75.67-1.35 1.4-1.35" clip-path="url(#aM)"/><defs><path id="aN" d="M-57.04 57.34h541.22v714.82H-57.04z"/></defs><clipPath id="aO"><use xlink:href="#aN" overflow="visible"/></clipPath><path fill="none" stroke="#231F20" stroke-width=".52" d="M359.2 206.23c.75 0 1.44.6 1.44 1.34v7.3c0 .75-.7 1.35-1.43 1.35s-1.4-.6-1.4-1.34v-7.3c0-.75.67-1.35 1.4-1.35z" clip-path="url(#aO)"/><defs><path id="aP" d="M-57.04 57.34h541.22v714.82H-57.04z"/></defs><clipPath id="aQ"><use xlink:href="#aP" overflow="visible"/></clipPath><path fill="#fff" d="M351.44 205.74l6.8 6.28c.4.34 1 .3 1.36-.1.36-.38.32-1-.08-1.34l-7.06-6c-.33-.27-1.34.88-1.02 1.16" clip-path="url(#aQ)"/><defs><path id="aR" d="M-57.04 57.34h541.22v714.82H-57.04z"/></defs><clipPath id="aS"><use xlink:href="#aR" overflow="visible"/></clipPath><path fill="none" stroke="#231F20" stroke-width=".65" d="M351.44 205.74l6.8 6.28c.4.34 1 .3 1.36-.1.36-.38.32-1-.08-1.34l-7.06-6c-.33-.27-1.34.88-1.02 1.16z" clip-path="url(#aS)"/><defs><path id="aT" d="M-57.04 57.34h541.22v714.82H-57.04z"/></defs><clipPath id="aU"><use xlink:href="#aT" overflow="visible"/></clipPath><path fill="#fff" d="M355.85 212.02h3.3c.34 0 .63-.3.63-.65 0-.35-.3-.63-.64-.63h-3.3c-.35 0-.64.28-.64.64 0 .35.3.64.65.64" clip-path="url(#aU)"/><defs><path id="aV" d="M-57.04 57.34h541.22v714.82H-57.04z"/></defs><clipPath id="aW"><use xlink:href="#aV" overflow="visible"/></clipPath><path fill="none" stroke="#231F20" stroke-width=".52" d="M355.85 212.02h3.3c.34 0 .63-.3.63-.65 0-.35-.3-.63-.64-.63h-3.3c-.35 0-.64.28-.64.64 0 .35.3.64.65.64z" clip-path="url(#aW)"/><defs><path id="aX" d="M-57.04 57.34h541.22v714.82H-57.04z"/></defs><clipPath id="aY"><use xlink:href="#aX" overflow="visible"/></clipPath><path fill="#fff" d="M359.1 213.4c.4 0 .76.35.76.77 0 .43-.35.77-.77.77-.43 0-.77-.34-.77-.77 0-.42.34-.77.76-.77" clip-path="url(#aY)"/><defs><path id="aZ" d="M-57.04 57.34h541.22v714.82H-57.04z"/></defs><clipPath id="ba"><use xlink:href="#aZ" overflow="visible"/></clipPath><path fill="none" stroke="#231F20" stroke-width=".455" d="M359.1 213.4c.4 0 .76.35.76.77 0 .43-.35.77-.77.77-.43 0-.77-.34-.77-.77 0-.42.34-.77.76-.77z" clip-path="url(#ba)"/><defs><path id="bb" d="M-57.04 57.34h541.22v714.82H-57.04z"/></defs><clipPath id="bc"><use xlink:href="#bb" overflow="visible"/></clipPath><path fill="#fff" d="M359.16 207.5c.42 0 .77.35.77.77 0 .43-.35.77-.77.77-.42 0-.77-.34-.77-.77 0-.42.34-.77.76-.77" clip-path="url(#bc)"/><defs><path id="bd" d="M-57.04 57.34h541.22v714.82H-57.04z"/></defs><clipPath id="be"><use xlink:href="#bd" overflow="visible"/></clipPath><path fill="none" stroke="#231F20" stroke-width=".455" d="M359.16 207.5c.42 0 .77.35.77.77 0 .43-.35.77-.77.77-.42 0-.77-.34-.77-.77 0-.42.34-.77.76-.77z" clip-path="url(#be)"/><path fill="none" stroke="#000" stroke-width=".65" stroke-dashoffset="3" d="M341.42 249.82h18.4" stroke-dasharray="1.936,1.936,1.936,1.936,1.936,1.936"/><path fill="none" stroke="#000" stroke-width=".65" stroke-dashoffset="3" d="M361.75 246.97v-18.03" stroke-dasharray="1.899,1.899,1.899,1.899,1.899,1.899"/><path fill="none" stroke="#000" stroke-width=".65" stroke-dashoffset="3" d="M358.9 227.04h-17.97" stroke-dasharray="1.892,1.892,1.892,1.892,1.892,1.892"/><path fill="none" stroke="#000" stroke-width=".65" d="M339.98 227.04h-.94m22.7.95v-.96h-.94m-.02 22.78h.97v-.95m-23.23.95h.97M339.04 227h-2.47v22.82h1.94"/><path fill="#BBBDBF" d="M482.23 162.02v274.82h-25.8v-12.8h14.55V295.22l2.3.06v-127.3h-31.3v-4"/><defs><path id="bf" d="M-57.04 57.34h541.22v714.82H-57.04z"/></defs><clipPath id="bg"><use xlink:href="#bf" overflow="visible"/></clipPath><path fill="none" stroke="#231F20" stroke-width="3.9" d="M482.23 162.02v274.82h-25.8v-12.8h14.55V295.22l2.3.06v-127.3h-31.3v-4" clip-path="url(#bg)"/><path fill="none" stroke="#231F20" stroke-width="3.9" d="M455.16 431.55h-44.42m-16.46 0h-50.92m-22.75 0h-45m-23.67 0H208.5"/><path fill="none" stroke="#231F20" stroke-width="5.2" d="M473.17 294.73h-37.5m-36.74 0h-58.5v75.72"/><path fill="none" stroke="#231F20" stroke-width="6.5" d="M340.84 409.88v15.17"/><defs><path id="bh" d="M-57.04 57.34h541.22v714.82H-57.04z"/></defs><clipPath id="bi"><use xlink:href="#bh" overflow="visible"/></clipPath><path fill="none" stroke="#231F20" stroke-width="3.9" d="M270.98 162.88l-.06-103.27h-40.95m-29.55 0h-20.25l-.02 377.13h26.53v-12.4h-17.3l-.02-181.26h4.28l.02-20.83h-4.28V60.18" clip-path="url(#bi)"/><path fill="none" stroke="#231F20" stroke-width="5.2" d="M270.56 132.88h-29.92v69.22h11.4m29.57 0h12.7l-.04-38.02"/><path fill="#BBBDBF" d="M387.65 423.2v13.64h21.54v-13.6z"/><path fill="none" stroke="#231F20" stroke-width="3.9" d="M387.65 423.2v13.64h21.54v-13.6z"/><path fill="#BBBDBF" d="M322.04 423.2v13.64h20.13v-13.6z"/><path fill="none" stroke="#231F20" stroke-width="3.9" d="M322.04 423.2v13.64h20.13v-13.6z"/><path fill="#BBBDBF" d="M253.36 423.2v13.6H275v-13.56z"/><path fill="none" stroke="#231F20" stroke-width="3.9" d="M253.36 423.2v13.6H275v-13.56z"/><defs><path id="bj" d="M-57.04 57.34h541.22v714.82H-57.04z"/></defs><clipPath id="bk"><use xlink:href="#bj" overflow="visible"/></clipPath><path fill="none" stroke="#231F20" stroke-width="5.2" d="M472.06 231.68h-37.7m-30.26 0h-37.02m-1.3-66.96v131.3m118.3-133.9H240.33" clip-path="url(#bk)"/><path fill="none" stroke="#231F20" stroke-width="6.5" d="M398.94 265.75h-33.48"/><path fill="none" stroke="#231F20" stroke-width=".78" d="M242.4 200.8h47.12v1.95H242.4v-1.95zm95.18 190.56h-1.95v-47.13h1.95v47.13z"/><path fill="none" stroke="#231F20" stroke-width="3.9" stroke-dashoffset="8" d="M192.12 242.73V426.3" stroke-dasharray="6.223,2.223,6.223,2.223,6.223,2.223"/><defs><path id="bl" d="M-57.04 57.34h541.22v714.82H-57.04z"/></defs><clipPath id="bm"><use xlink:href="#bl" overflow="visible"/></clipPath><path fill="none" stroke="#231F20" stroke-width="3.9" stroke-dashoffset="8" d="M192.12 61.05V220.3" clip-path="url(#bm)" stroke-dasharray="6.25,2.25,6.25,2.25,6.25,2.25"/><path fill="#fff" d="M230 429.92h18.57v3.16H230z"/><path fill="none" stroke="#000" stroke-width=".78" d="M230 429.92h18.57v3.16H230zM230 431.57h18.46"/><path fill="#fff" d="M210.87 429.92h19.07v3.16h-19.07z"/><path fill="none" stroke="#000" stroke-width=".78" d="M210.87 429.92h19.07v3.16h-19.07zM210.87 431.57h19.07"/><path fill="#fff" d="M299.02 429.93h18.58v3.16h-18.58z"/><path fill="none" stroke="#000" stroke-width=".78" d="M299.02 429.93h18.58v3.16h-18.58zM299.02 431.58h18.47"/><path fill="#fff" d="M279.9 429.93h19.07v3.16H279.9z"/><path fill="none" stroke="#000" stroke-width=".78" d="M279.9 429.93h19.07v3.16H279.9zM279.9 431.58h19.06"/><path fill="#fff" d="M365.5 429.93h18.6v3.16h-18.6z"/><path fill="none" stroke="#000" stroke-width=".78" d="M365.5 429.93h18.6v3.16h-18.6zM365.5 431.58H384"/><path fill="#fff" d="M346.4 429.93h19.06v3.16H346.4z"/><path fill="none" stroke="#000" stroke-width=".78" d="M346.4 429.93h19.06v3.16H346.4zM346.4 431.58h19.06"/><path fill="#fff" d="M433.38 429.9h18.58v3.17h-18.58z"/><path fill="none" stroke="#000" stroke-width=".78" d="M433.38 429.9h18.58v3.17h-18.58zM433.38 431.56h18.47"/><path fill="#fff" d="M414.26 429.9h19.07v3.17h-19.07z"/><path fill="none" stroke="#000" stroke-width=".78" d="M414.26 429.9h19.07v3.17h-19.07zM414.26 431.56h19.07"/><defs><path id="bn" d="M-57.04 57.34h541.22v714.82H-57.04z"/></defs><clipPath id="bo"><use xlink:href="#bn" overflow="visible"/></clipPath><path fill="#231F20" d="M422.83 361.26h-.47l-.47 1.55h.28l.65-1.54zm-.94 0h-.48l-.48 1.55h.3l.65-1.54zm-2.2 2.95c0 .45-.4.8-1.1.8-.68 0-1.1-.35-1.1-.8 0-.46.5-.8 1.1-.8s1.1.34 1.1.8m-.13-1.95c0 .46-.42.77-.96.77s-.95-.3-.95-.77c0-.43.42-.73.96-.73s.97.3.97.73m.62 1.97c0-.5-.38-.85-.87-1.03.4-.2.72-.5.72-.98 0-.66-.67-1.12-1.44-1.12-.76 0-1.42.46-1.42 1.12 0 .5.33.8.72.97-.5.17-.87.52-.87 1.03 0 .7.7 1.2 1.58 1.2.9 0 1.6-.5 1.6-1.2m-4.44-2.97h-.48l-.47 1.55h.3l.66-1.54zm-2.4 1.2c0 .5-.4.96-1.05.96-.6 0-1.03-.38-1.03-.92 0-.53.38-1 1-1s1.08.43 1.08.97m.57.68c0-.84-.2-1.3-.52-1.63-.27-.27-.62-.43-1.1-.43-.9 0-1.5.62-1.5 1.42 0 .77.6 1.3 1.45 1.3.58 0 .96-.3 1.2-.66 0 1.07-.5 1.84-1.26 1.84-.38 0-.7-.15-1.04-.45l-.28.37c.36.3.75.5 1.3.5 1.04 0 1.75-.93 1.75-2.27m-6.24 1.7l-1.13-1.5 1.08-1.43h-.38l-.9 1.2-.9-1.2h-.4l1.1 1.44-1.13 1.5h.38l.94-1.27.94 1.26h.4zm-5.13-3.6h-.47l-.48 1.56h.3l.65-1.54zm-.95 0h-.47l-.47 1.56h.3l.64-1.54zm-2.33 1.22c0 .48-.4.95-1.05.95-.6 0-1.03-.38-1.03-.92 0-.53.38-1 1-1s1.07.43 1.07.97m.57.68c0-.84-.2-1.3-.52-1.63-.27-.27-.63-.43-1.1-.43-.9 0-1.52.62-1.52 1.42 0 .77.6 1.3 1.47 1.3.58 0 .96-.3 1.18-.66.02 1.07-.5 1.84-1.24 1.84-.38 0-.7-.15-1.04-.45l-.27.37c.35.3.75.5 1.3.5 1.03 0 1.74-.93 1.74-2.27m-4.48-1.9h-.48l-.47 1.56h.3l.64-1.54zm-2.34 2.02c0 .92-.48 1.73-1.27 1.73-.8 0-1.3-.8-1.3-1.74s.5-1.74 1.28-1.74 1.28.82 1.28 1.75m.5 0c0-1.2-.7-2.18-1.77-2.18-1.1 0-1.8 1-1.8 2.17 0 1.18.7 2.16 1.78 2.16s1.77-1 1.77-2.17m-6.4-1.77l.1.37.8-.25v3.74h.46v-4.23h-.34l-1.02.36z" clip-path="url(#bo)"/><defs><path id="bp" d="M-57.04 57.34h541.22v714.82H-57.04z"/></defs><clipPath id="bq"><use xlink:href="#bp" overflow="visible"/></clipPath><path fill="#231F20" d="M422.13 353.56v3.78h.52v-4.66h-.53l-1.7 2.54-1.7-2.54h-.52v4.66h.5v-3.77l1.7 2.5h.03l1.7-2.5zm-5.6 1.46c0 1.06-.75 1.9-1.8 1.9-1.07 0-1.85-.85-1.85-1.92 0-1.06.76-1.9 1.83-1.9s1.84.85 1.84 1.92m.55-.02c0-1.3-.96-2.4-2.38-2.4s-2.38 1.13-2.38 2.42c0 1.3.95 2.4 2.37 2.4 1.42 0 2.4-1.13 2.4-2.42m-6.2.02c0 1.06-.77 1.9-1.83 1.9s-1.84-.85-1.84-1.92c0-1.06.76-1.9 1.82-1.9 1.07 0 1.84.85 1.84 1.92m.54-.02c0-1.3-.96-2.4-2.37-2.4-1.42 0-2.38 1.13-2.38 2.42 0 1.3.94 2.4 2.35 2.4 1.42 0 2.4-1.13 2.4-2.42m-6.2-.9c0 .6-.5.95-1.2.95h-1.44v-1.88h1.45c.75 0 1.2.34 1.2.92m.7 3.24l-1.44-1.9c.74-.14 1.27-.6 1.27-1.37 0-.83-.66-1.4-1.68-1.4h-2v4.67h.5v-1.8h1.34l1.35 1.8h.64zm-5.52-2.32c0 1.03-.75 1.83-1.93 1.83h-1.1v-3.68h1.1c1.18 0 1.93.8 1.93 1.85m.55-.02c0-1.3-1.02-2.32-2.48-2.32h-1.6v4.66h1.6c1.46 0 2.48-1.02 2.48-2.34m-5.2-2.32h-3.35v4.66h3.4v-.48h-2.87v-1.63h2.54v-.48h-2.54v-1.6h2.84v-.47zm-6.07 4.2h-1.55v-1.66h1.47c.8 0 1.24.3 1.24.8 0 .53-.44.85-1.15.85m-.18-2.1h-1.37v-1.62h1.4c.68 0 1.04.3 1.04.77 0 .55-.45.84-1.08.84m.1-2.08h-2v4.66h2.08c1.02 0 1.7-.47 1.7-1.28 0-.65-.46-.96-1-1.13.35-.16.73-.47.73-1.08 0-.72-.6-1.17-1.52-1.17" clip-path="url(#bq)"/></g><defs><path id="br" d="M45.08 159h100.14v4.57H45.08z"/></defs><clipPath id="bs"><use xlink:href="#br" overflow="visible"/></clipPath><path fill="#231F20" d="M145.22 159.4v-.3h-3.4v.3h1.53v4.1h.33v-4.1h1.54zm-5.8 4.1v-.3h-2.83v-1.78h2.5v-.3h-2.52v-1.73h2.82v-.3h-3.14v4.4h3.17zm-5.87 0v-.3h-2.84v-1.78h2.54v-.3h-2.53v-1.73h2.82v-.3h-3.14v4.4h3.17zm-6.28-3.14c0 .64-.54 1-1.28 1h-1.5v-1.97h1.5c.8 0 1.28.36 1.28.95v.02zm.5 3.14l-1.46-1.9c.76-.1 1.3-.5 1.3-1.25s-.62-1.27-1.57-1.27h-1.85v4.4h.32v-1.8h1.45l1.4 1.8h.42v.02zm-6.24-4.1v-.3h-3.4v.3h1.54v4.1h.32v-4.1h1.53zm-5.73 2.96v-.02c0-.64-.42-1-1.44-1.2-1.05-.23-1.3-.5-1.3-.98 0-.47.44-.84 1.1-.84.47 0 .9.14 1.3.5l.2-.26c-.44-.36-.86-.54-1.5-.54-.82 0-1.42.5-1.42 1.16 0 .68.43 1.04 1.5 1.25 1 .2 1.24.48 1.24.94 0 .52-.46.9-1.12.9-.65 0-1.1-.22-1.58-.66l-.2.25c.5.48 1.06.7 1.76.7.85 0 1.46-.48 1.46-1.2m-11.16 1.15v-4.4h-.3v3.82l-3.05-3.83h-.32v4.4h.3v-3.92l3.12 3.92h.24zm-6.77-2.2c0 1.1-.78 1.98-1.87 1.98s-1.9-.9-1.9-2 .8-1.97 1.88-1.97 1.9.9 1.9 2zm.34 0c.02 0 .02 0 0-.02 0-1.2-.87-2.27-2.2-2.27-1.34 0-2.23 1.1-2.23 2.3 0 1.2.88 2.27 2.22 2.27 1.32 0 2.2-1.07 2.2-2.28m-6.53-1.9v-.3h-3.4v.3h1.53v4.1h.33v-4.1h1.54zm-5.8 3.5v-1.7h-1.8v.3h1.48v1.28c-.32.27-.84.5-1.4.5-1.18 0-1.9-.85-1.9-2 0-1.06.76-1.97 1.83-1.97.67 0 1.07.23 1.42.54l.2-.25c-.43-.37-.9-.6-1.6-.6-1.32 0-2.18 1.1-2.18 2.3 0 1.25.82 2.27 2.22 2.27.72 0 1.33-.3 1.73-.66m-6.72.6v-4.4h-.3v3.82l-3.06-3.83h-.32v4.4h.32v-3.92l3.1 3.92h.25zm-6.67-4.4h-.33v4.4h.33v-4.4zm-3.34 4.4v-4.4h-.33v2.03H66v-2.04h-.33v4.4h.32v-2.07h2.8v2.07h.34zm-6.2-1.14v-.02c0-.64-.43-1-1.46-1.2-1.04-.23-1.28-.5-1.28-.98 0-.47.43-.84 1.08-.84.48 0 .9.14 1.3.5l.22-.26c-.45-.36-.87-.54-1.5-.54-.83 0-1.43.5-1.43 1.16 0 .68.43 1.04 1.5 1.25 1 .2 1.24.48 1.24.94 0 .52-.45.9-1.1.9-.66 0-1.1-.22-1.6-.66l-.2.25c.52.48 1.06.7 1.77.7.85 0 1.46-.48 1.46-1.2m-6.5-.38H54.1l1.17-2.56 1.16 2.56zm1.06 1.53l-2.07-4.44h-.3l-2.06 4.44h.34l.57-1.24h2.6l.56 1.24h.36zm-6.1-4.4h-.35l-1.4 3.9-1.28-3.93h-.25l-1.3 3.94-1.38-3.9h-.37l1.6 4.43h.27l1.3-3.83 1.28 3.83h.27l1.6-4.44z" clip-path="url(#bs)"/></svg>