<?xml version="1.0" encoding="utf-8"?>
<!-- Generator: Adobe Illustrator 15.0.0, SVG Export Plug-In . SVG Version: 6.00 Build 0)  -->
<!DOCTYPE svg PUBLIC "-//W3C//DTD SVG 1.1//EN" "http://www.w3.org/Graphics/SVG/1.1/DTD/svg11.dtd">
<svg version="1.1" id="Layer_1" xmlns="http://www.w3.org/2000/svg" xmlns:xlink="http://www.w3.org/1999/xlink" x="0px" y="0px"
	 width="513.359px" height="495.36px" viewBox="0 0 513.359 495.36" enable-background="new 0 0 513.359 495.36"
	 xml:space="preserve">
<g id="Layer_4">
	<rect x="78.924" y="59.073" fill="#FFFFFF" width="33.15" height="44.2"/>
	<rect x="112.074" y="59.073" fill="#FFFFFF" width="33.149" height="44.2"/>
	<polygon fill="#FFFFFF" points="145.224,110.924 145.224,103.274 120.574,103.274 120.574,110.924 112.074,110.924 
		112.074,152.574 145.224,152.574 	"/>
	<polygon fill="#FFFFFF" points="78.924,110.924 58.524,110.924 58.524,127.924 45.774,127.924 45.774,153.424 78.924,153.424 	"/>
	<polygon fill="#BBBDBF" points="78.074,110.074 78.074,152.574 112.074,152.574 112.074,135.574 112.074,121.974 89.124,121.974 
		89.124,110.924 	"/>
	<polygon fill="#FFFFFF" points="45.774,58.224 78.074,58.224 78.074,103.273 64.474,103.273 64.474,96.474 60.224,96.474 
		60.224,86.273 49.174,86.273 45.774,86.273 	"/>
	<g>
		<g>
			<defs>
				<rect id="SVGID_1_" x="-57.04" y="57.337" width="541.224" height="714.82"/>
			</defs>
			<clipPath id="SVGID_2_">
				<use xlink:href="#SVGID_1_"  overflow="visible"/>
			</clipPath>
			<path clip-path="url(#SVGID_2_)" fill="none" stroke="#000000" stroke-width="0.425" d="M56.031,105.067
				c0,1.796,1.455,3.252,3.25,3.252 M56.029,105.067h3.252v-0.188h-3.252V105.067z"/>
		</g>
	</g>
	<path fill="none" stroke="#000000" stroke-width="0.452" d="M49.643,116.52l8.956,0.004 M46.385,117.718l12.214,0.003
		 M46.367,118.916l12.203,0.01 M46.409,120.113l12.231,0.007 M46.45,121.312l12.19,0.003 M46.45,122.509l12.19,0.006 M46.47,123.762
		l12.171-0.002"/>
	<path fill="none" stroke="#000000" stroke-width="0.425" d="M46.142,109.763h6.378 M46.142,110.959h6.378 M46.142,112.157h6.378
		 M46.142,113.354h6.378 M46.142,114.553h6.316 M46.019,115.75h5.475 M46.374,116.704h3.554"/>
	<line fill="none" stroke="#000000" stroke-width="1.18" x1="46.141" y1="108.626" x2="52.519" y2="108.626"/>
	<polyline fill="none" stroke="#000000" stroke-width="0.425" points="46.657,119.271 50.323,116.578 50.133,116.021 
		51.059,116.899 50.797,116.258 52.565,115.189 	"/>
	<line fill="none" stroke="#000000" stroke-width="0.452" x1="52.136" y1="115.323" x2="58.898" y2="115.323"/>
	<path fill="#FFFFFF" d="M52.888,124.029h0.588v-15.333h-0.588V124.029z M52.596,108.298h1.172v16.128h-1.172V108.298z"/>
	<path fill="none" stroke="#262626" stroke-width="0.495" d="M52.888,124.029h0.588v-15.333h-0.588V124.029z M52.596,108.298h1.172
		v16.128h-1.172V108.298z"/>
	<g>
		<g>
			<defs>
				<rect id="SVGID_3_" x="-57.04" y="57.337" width="541.224" height="714.82"/>
			</defs>
			<clipPath id="SVGID_4_">
				<use xlink:href="#SVGID_3_"  overflow="visible"/>
			</clipPath>
			<polygon clip-path="url(#SVGID_4_)" fill="none" stroke="#262626" stroke-width="2.065" stroke-miterlimit="10" points="
				145.658,153.22 45.349,153.22 45.349,58.369 78.834,58.369 145.658,58.369 			"/>
		</g>
		<g>
			<defs>
				<rect id="SVGID_5_" x="-57.04" y="57.337" width="541.224" height="714.82"/>
			</defs>
			<clipPath id="SVGID_6_">
				<use xlink:href="#SVGID_5_"  overflow="visible"/>
			</clipPath>
			<path clip-path="url(#SVGID_6_)" fill="none" stroke="#262626" stroke-width="1.18" stroke-miterlimit="10" d="M58.773,110.588
				h61.809v-7.374 M49.036,96.133h11.358 M48.742,104.099h10.03v0.885 M58.773,108.229v19.765H46.234 M45.497,104.247h3.392V86.102
				h11.654v10.621h3.982v6.934h47.795l0.057-0.879h8.056l-0.071-0.155h25.739 M78.687,153.515v-43.271 M112.173,153.515v-43.271
				 M112.173,102.917V59.033 M78.539,102.917V59.033"/>
		</g>
		<g>
			<defs>
				<rect id="SVGID_7_" x="-57.04" y="57.337" width="541.224" height="714.82"/>
			</defs>
			<clipPath id="SVGID_8_">
				<use xlink:href="#SVGID_7_"  overflow="visible"/>
			</clipPath>
			<path clip-path="url(#SVGID_8_)" fill="none" stroke="#000000" stroke-width="0.425" d="M102.658,110.971v5.016 M101.454,110.971
				v5.016 M100.249,110.971v5.016 M99.044,110.971v4.918 M97.84,110.971v4.918 M96.635,110.971v4.918 M95.43,110.971v1.666
				 M110.771,113.761c-1.805,0-3.27-1.463-3.27-3.269 M110.96,113.763h-0.189v-3.271h0.189V113.763z M77.528,113.687
				c-1.806,0-3.27-1.464-3.27-3.271 M77.717,113.688h-0.188v-3.271h0.188V113.688z M113.643,113.758c1.805,0,3.27-1.462,3.27-3.269
				 M113.454,113.761h0.188v-3.271h-0.188V113.761z M80.761,113.687c1.806,0,3.27-1.464,3.27-3.271 M80.573,113.688h0.188v-3.271
				h-0.188V113.688z M114.259,99.035c1.806,0,3.271,1.464,3.271,3.27 M114.071,99.033h0.188v3.272h-0.188V99.033z M95.172,100.581
				c-1.806,0-3.27,1.466-3.27,3.271 M95.361,100.58h-0.188v3.272h0.188V100.58z M67.723,102.922c0-1.806-1.464-3.269-3.27-3.269
				 M67.725,102.922h-3.271v0.188h3.271V102.922z"/>
		</g>
	</g>
	<line fill="none" stroke="#000000" stroke-width="1.18" x1="103.863" y1="110.971" x2="103.863" y2="115.987"/>
	<polyline fill="none" stroke="#000000" stroke-width="0.425" points="94.668,110.431 95.603,113.333 96.192,113.283 95.11,113.971 
		95.799,113.874 96.414,116.012 	"/>
	<path fill="#FFFFFF" d="M92.849,116.725h11.359v-0.59H92.849V116.725z M104.502,117.021H92.554v-1.18h11.948V117.021z"/>
	<path fill="none" stroke="#262626" stroke-width="0.425" d="M92.849,116.725h11.359v-0.59H92.849V116.725z M104.502,117.021H92.554
		v-1.18h11.948V117.021z"/>
	<path fill="none" stroke="#000000" stroke-width="0.425" d="M95.329,113.972v1.941 M94.123,110.997v4.916 M92.918,110.997v4.916
		 M95.279,117.072v4.918 M94.073,117.072v4.918 M92.87,117.072v4.918 M103.961,117.049v5.015 M102.755,117.049v5.015
		 M101.552,117.049v5.015 M100.221,117.049v5.015 M99.017,117.049v4.917 M97.811,117.049v4.917 M96.606,117.049v4.917"/>
	<polyline fill="none" stroke="#262626" stroke-width="1.18" stroke-miterlimit="10" points="88.718,110.587 88.718,121.948 
		112.32,121.948 	"/>
	<g>
		<path d="M56.693,89.125h-3.364v1.547h2.982v0.935h-2.982v1.598h3.407v0.935h-4.452v-5.949h4.41L56.693,89.125L56.693,89.125z"/>
	</g>
	<g>
		<g>
			<defs>
				<rect id="SVGID_9_" x="-57.04" y="57.337" width="541.224" height="714.82"/>
			</defs>
			<clipPath id="SVGID_10_">
				<use xlink:href="#SVGID_9_"  overflow="visible"/>
			</clipPath>
		</g>
		<g>
			<defs>
				<rect id="SVGID_11_" x="-57.04" y="57.337" width="541.224" height="714.82"/>
			</defs>
			<clipPath id="SVGID_12_">
				<use xlink:href="#SVGID_11_"  overflow="visible"/>
			</clipPath>
			<path clip-path="url(#SVGID_12_)" fill="#231F20" d="M299.064,241.244l-2.933-3.731h-0.491v4.656h0.512v-3.817l3.007,3.817h0.418
				v-4.656h-0.513V241.244z M294.549,237.513h-3.364v4.656h3.397v-0.479h-2.872v-1.629h2.54v-0.479h-2.54v-1.59h2.839V237.513
				L294.549,237.513z M289.342,240.073v2.096h0.526v-4.656h-0.526v2.069h-2.687v-2.069h-0.525v4.656h0.525v-2.096H289.342z
				 M285.213,241.431l-0.346-0.339c-0.446,0.425-0.865,0.671-1.504,0.671c-1.023,0-1.802-0.844-1.802-1.928s0.771-1.916,1.802-1.916
				c0.633,0,1.071,0.266,1.464,0.638l0.358-0.386c-0.465-0.438-0.972-0.738-1.814-0.738c-1.37,0-2.354,1.084-2.354,2.414
				c0,1.344,0.989,2.401,2.334,2.401C284.195,242.249,284.728,241.923,285.213,241.431 M278.996,238h1.562v-0.486h-3.657V238h1.562
				v4.169h0.532L278.996,238L278.996,238z M275.346,242.169h0.524v-4.656h-0.524V242.169z M272.399,239.549l1.995-2.036h-0.679
				l-2.674,2.781v-2.781h-0.524v4.656h0.524v-1.25l0.99-1.004l1.789,2.254h0.658L272.399,239.549z"/>
		</g>
		<g>
			<defs>
				<rect id="SVGID_13_" x="-57.04" y="57.337" width="541.224" height="714.82"/>
			</defs>
			<clipPath id="SVGID_14_">
				<use xlink:href="#SVGID_13_"  overflow="visible"/>
			</clipPath>
			<path clip-path="url(#SVGID_14_)" fill="#231F20" d="M466.062,275.286v1.562h0.486v-3.658h-0.486v1.562h-4.169v0.531h4.169
				V275.286z M466.548,272.433v-3.365h-4.655v3.399h0.479v-2.873h1.63v2.539h0.479v-2.539h1.59v2.839H466.548z M465.384,265.217
				c0.426,0,0.758,0.387,0.758,0.99c0,0.479-0.152,0.912-0.505,1.344l0.405,0.307c0.38-0.473,0.571-0.957,0.571-1.636
				c0-0.886-0.532-1.529-1.275-1.529c-0.772,0-1.118,0.492-1.351,1.562c-0.207,0.979-0.453,1.213-0.892,1.213
				c-0.474,0-0.798-0.413-0.798-1.038c0-0.646,0.219-1.11,0.657-1.597l-0.386-0.324c-0.499,0.558-0.745,1.162-0.745,1.9
				c0,0.924,0.52,1.59,1.323,1.59c0.719,0,1.098-0.479,1.323-1.517C464.692,265.456,464.938,265.217,465.384,265.217
				 M464.214,263.188c-1.064,0-1.915-0.758-1.915-1.822c0-1.062,0.863-1.834,1.928-1.834c1.063,0,1.915,0.758,1.915,1.821
				S465.278,263.188,464.214,263.188 M464.227,263.733c1.29,0,2.401-0.949,2.401-2.367c0-1.416-1.124-2.381-2.414-2.381
				s-2.401,0.951-2.401,2.368C461.812,262.77,462.937,263.733,464.227,263.733 M461.893,255.342v3.146h0.485v-2.62h4.17v-0.523
				h-4.655V255.342z M462.631,254.424l0.339-0.346c-0.425-0.445-0.671-0.863-0.671-1.504c0-1.023,0.844-1.802,1.928-1.802
				s1.915,0.771,1.915,1.802c0,0.633-0.266,1.071-0.638,1.463l0.385,0.359c0.438-0.465,0.739-0.971,0.739-1.814
				c0-1.371-1.084-2.354-2.414-2.354c-1.345,0-2.401,0.991-2.401,2.334C461.812,253.407,462.139,253.939,462.631,254.424"/>
		</g>
		<g>
			<defs>
				<rect id="SVGID_15_" x="-57.04" y="57.337" width="541.224" height="714.82"/>
			</defs>
			<clipPath id="SVGID_16_">
				<use xlink:href="#SVGID_15_"  overflow="visible"/>
			</clipPath>
			<path clip-path="url(#SVGID_16_)" fill="#231F20" d="M388.551,271.691v-1.151h-0.357v2.694h0.357v-1.151h3.072v-0.392H388.551z
				 M388.193,273.793v2.479h3.431v-2.504h-0.354v2.117h-1.199v-1.872h-0.354v1.872h-1.171v-2.094h-0.353V273.793z M389.05,279.109
				c-0.312,0-0.558-0.284-0.558-0.729c0-0.354,0.111-0.672,0.371-0.989l-0.299-0.226c-0.278,0.349-0.422,0.705-0.422,1.205
				c0,0.651,0.394,1.127,0.941,1.127c0.567,0,0.822-0.361,0.994-1.15c0.15-0.723,0.334-0.893,0.656-0.893
				c0.349,0,0.588,0.305,0.588,0.764c0,0.477-0.161,0.818-0.484,1.177l0.284,0.239c0.368-0.41,0.549-0.856,0.549-1.4
				c0-0.682-0.382-1.171-0.976-1.171c-0.528,0-0.81,0.353-0.976,1.117C389.56,278.934,389.379,279.109,389.05,279.109
				 M389.913,280.604c0.783,0,1.411,0.559,1.411,1.343s-0.639,1.353-1.422,1.353s-1.41-0.559-1.41-1.342
				S389.129,280.604,389.913,280.604 M389.903,280.202c-0.95,0-1.77,0.701-1.77,1.745s0.828,1.755,1.779,1.755
				c0.949,0,1.769-0.701,1.769-1.744C391.682,280.913,390.854,280.202,389.903,280.202 M391.623,286.387v-2.318h-0.358V286h-3.071
				v0.388L391.623,286.387L391.623,286.387z M391.079,287.062l-0.25,0.255c0.312,0.328,0.495,0.637,0.495,1.107
				c0,0.755-0.622,1.326-1.422,1.326s-1.41-0.566-1.41-1.326c0-0.467,0.194-0.789,0.47-1.078l-0.284-0.266
				c-0.323,0.344-0.544,0.717-0.544,1.338c0,1.011,0.799,1.734,1.779,1.734c0.989,0,1.769-0.729,1.769-1.72
				C391.682,287.812,391.442,287.42,391.079,287.062"/>
		</g>
		<g>
			<defs>
				<rect id="SVGID_17_" x="-57.04" y="57.337" width="541.224" height="714.82"/>
			</defs>
			<clipPath id="SVGID_18_">
				<use xlink:href="#SVGID_17_"  overflow="visible"/>
			</clipPath>
			<path clip-path="url(#SVGID_18_)" fill="#231F20" d="M397.324,208.744v2.095h0.524v-4.655h-0.524v2.068h-2.688v-2.068h-0.524
				v4.655h0.524v-2.095H397.324z M391.566,206.669h1.562v-0.485h-3.658v0.485h1.563v4.17h0.531L391.566,206.669L391.566,206.669z
				 M388.169,209.137h-2.122l1.063-2.374L388.169,209.137z M387.364,206.151h-0.491l-2.122,4.688h0.539l0.552-1.23h2.534l0.545,1.23
				h0.564L387.364,206.151z M382.43,210.367h-1.562v-1.643h1.47c0.811,0,1.237,0.293,1.237,0.805
				C383.574,210.054,383.135,210.367,382.43,210.367 M382.244,208.259h-1.377v-1.603h1.415c0.665,0,1.03,0.299,1.03,0.765
				C383.313,207.973,382.875,208.259,382.244,208.259 M382.33,206.184h-1.982v4.655h2.068c1.018,0,1.688-0.472,1.688-1.277
				c0-0.645-0.444-0.964-0.997-1.13c0.365-0.16,0.737-0.472,0.737-1.084C383.846,206.636,383.248,206.184,382.33,206.184"/>
		</g>
		<g>
			<defs>
				<rect id="SVGID_19_" x="-57.04" y="57.337" width="541.224" height="714.82"/>
			</defs>
			<clipPath id="SVGID_20_">
				<use xlink:href="#SVGID_19_"  overflow="visible"/>
			</clipPath>
			<path clip-path="url(#SVGID_20_)" fill="#231F20" d="M279.035,184.698h-0.874v0.998h0.874V184.698z M276.246,183.601v2.095h0.524
				v-4.655h-0.524v2.068h-2.688v-2.068h-0.524v4.655h0.524v-2.095H276.246z M272.116,184.957l-0.346-0.339
				c-0.445,0.426-0.865,0.672-1.503,0.672c-1.023,0-1.802-0.845-1.802-1.929s0.771-1.915,1.802-1.915
				c0.631,0,1.07,0.266,1.463,0.639l0.359-0.386c-0.467-0.439-0.972-0.738-1.816-0.738c-1.37,0-2.354,1.084-2.354,2.414
				c0,1.343,0.99,2.4,2.334,2.4C271.1,185.775,271.632,185.449,272.116,184.957 M267.036,181.041h-3.364v4.655h3.396v-0.479h-2.873
				v-1.63h2.541v-0.478h-2.541v-1.59h2.841V181.041z M261.829,181.925v3.771h0.524v-4.655h-0.532l-1.693,2.54l-1.696-2.54H257.9
				v4.655h0.513v-3.764l1.695,2.487h0.026L261.829,181.925z"/>
		</g>
		<g>
			<defs>
				<rect id="SVGID_21_" x="-57.04" y="57.337" width="541.224" height="714.82"/>
			</defs>
			<clipPath id="SVGID_22_">
				<use xlink:href="#SVGID_21_"  overflow="visible"/>
			</clipPath>
			<path clip-path="url(#SVGID_22_)" fill="#231F20" d="M377.912,242.122c1.038,0,1.836,0.752,1.836,1.929v1.092h-3.686v-1.092
				C376.063,242.874,376.875,242.122,377.912,242.122 M377.898,241.577c-1.315,0-2.319,1.011-2.319,2.474v1.616h4.653v-1.616
				C380.232,242.588,379.216,241.577,377.898,241.577 M380.232,247.047h-0.997v0.874h0.997V247.047z M379.455,252.863l-3.877,1.33
				v0.572l4.688-1.663v-0.439l-3.776-1.283l3.776-1.275v-0.445l-4.688-1.663v0.551l3.877,1.33l-3.892,1.277v0.432L379.455,252.863z"
				/>
		</g>
		<g>
			<defs>
				<rect id="SVGID_23_" x="-57.04" y="57.337" width="541.224" height="714.82"/>
			</defs>
			<clipPath id="SVGID_24_">
				<use xlink:href="#SVGID_23_"  overflow="visible"/>
			</clipPath>
			<path clip-path="url(#SVGID_24_)" fill="#231F20" d="M274.565,353.551v3.771h0.526v-4.654h-0.532l-1.696,2.541l-1.695-2.541
				h-0.531v4.654h0.512v-3.764l1.696,2.486h0.026L274.565,353.551z M268.979,355.002c0,1.062-0.758,1.914-1.821,1.914
				s-1.836-0.863-1.836-1.928s0.759-1.916,1.822-1.916C268.208,353.073,268.979,353.938,268.979,355.002 M269.525,354.989
				c0-1.291-0.95-2.4-2.368-2.4c-1.415,0-2.38,1.123-2.38,2.414c0,1.289,0.951,2.4,2.367,2.4
				C268.562,357.403,269.525,356.278,269.525,354.989 M263.327,355.002c0,1.062-0.759,1.914-1.821,1.914
				c-1.064,0-1.835-0.863-1.835-1.928s0.758-1.916,1.821-1.916C262.557,353.073,263.327,353.938,263.327,355.002 M263.872,354.989
				c0-1.291-0.95-2.4-2.366-2.4s-2.382,1.123-2.382,2.414c0,1.289,0.951,2.4,2.368,2.4
				C262.908,357.403,263.872,356.278,263.872,354.989 M257.676,354.077c0,0.605-0.499,0.965-1.197,0.965h-1.43v-1.889h1.436
				C257.236,353.153,257.676,353.499,257.676,354.077 M258.373,357.323l-1.431-1.902c0.732-0.133,1.265-0.584,1.265-1.363
				c0-0.838-0.658-1.389-1.684-1.389h-2.001v4.654h0.525v-1.811h1.33l1.35,1.811H258.373L258.373,357.323z"/>
		</g>
		<g>
			<defs>
				<rect id="SVGID_25_" x="-57.04" y="57.337" width="541.224" height="714.82"/>
			</defs>
			<clipPath id="SVGID_26_">
				<use xlink:href="#SVGID_25_"  overflow="visible"/>
			</clipPath>
			<path clip-path="url(#SVGID_26_)" fill="#231F20" d="M290.393,348.19v-1.854h-1.922v0.471h1.417v1.158
				c-0.319,0.26-0.812,0.465-1.345,0.465c-1.13,0-1.842-0.824-1.842-1.941c0-1.043,0.738-1.914,1.77-1.914
				c0.658,0,1.058,0.219,1.417,0.531l0.339-0.398c-0.466-0.393-0.951-0.619-1.736-0.619c-1.396,0-2.334,1.131-2.334,2.414
				c0,1.338,0.904,2.4,2.367,2.4C289.309,348.903,289.96,348.577,290.393,348.19 M284.534,347.899l-2.934-3.73h-0.492v4.654h0.513
				v-3.816l3.006,3.816h0.419v-4.654h-0.512V347.899z M279.221,348.823h0.524v-4.654h-0.524V348.823z M276.028,348.178l-1.655-4.01
				h-0.585l2.002,4.688h0.465l2.003-4.688h-0.565L276.028,348.178z M272.298,348.823h0.524v-4.654h-0.524V348.823z M268.136,348.823
				h3.145v-0.484h-2.619v-4.17h-0.524L268.136,348.823L268.136,348.823z M265.806,347.825h-0.874v0.998h0.874V347.825z
				 M262.961,348.19v-1.854h-1.921v0.471h1.416v1.158c-0.318,0.26-0.812,0.465-1.344,0.465c-1.131,0-1.842-0.824-1.842-1.941
				c0-1.043,0.738-1.914,1.77-1.914c0.657,0,1.058,0.219,1.416,0.531l0.339-0.398c-0.465-0.393-0.95-0.619-1.735-0.619
				c-1.396,0-2.334,1.131-2.334,2.414c0,1.338,0.904,2.4,2.368,2.4C261.877,348.903,262.529,348.577,262.961,348.19
				 M257.104,347.899l-2.934-3.73h-0.491v4.654h0.512v-3.816l3.006,3.816h0.42v-4.654h-0.513V347.899z M251.79,348.823h0.524v-4.654
				h-0.524V348.823z M249.914,347.899l-2.933-3.73h-0.492v4.654h0.513v-3.816l3.006,3.816h0.419v-4.654h-0.513V347.899
				L249.914,347.899z M244.602,348.823h0.524v-4.654h-0.524V348.823z M242.899,346.502c0,1.037-0.752,1.836-1.929,1.836h-1.091
				v-3.686h1.091C242.147,344.653,242.899,345.465,242.899,346.502 M243.444,346.489c0-1.316-1.011-2.32-2.474-2.32h-1.616v4.654
				h1.616C242.434,348.823,243.444,347.805,243.444,346.489"/>
		</g>
		<g>
			<defs>
				<rect id="SVGID_27_" x="-57.04" y="57.337" width="541.224" height="714.82"/>
			</defs>
			<clipPath id="SVGID_28_">
				<use xlink:href="#SVGID_27_"  overflow="visible"/>
			</clipPath>
			<path clip-path="url(#SVGID_28_)" fill="#231F20" d="M354.213,271.834h-3.345v4.653h0.523v-2.026h2.521v-0.479h-2.521v-1.663
				h2.82L354.213,271.834L354.213,271.834z M349.776,271.834h-3.363v4.653h3.397v-0.479h-2.873v-1.629h2.54v-0.479h-2.54v-1.589
				h2.839V271.834z M344.757,273.245c0,0.604-0.499,0.963-1.197,0.963h-1.43v-1.89h1.436
				C344.317,272.318,344.757,272.665,344.757,273.245 M345.455,276.488l-1.432-1.901c0.732-0.133,1.266-0.584,1.266-1.362
				c0-0.839-0.659-1.39-1.685-1.39h-2.001v4.653h0.525v-1.809h1.33l1.35,1.809H345.455L345.455,276.488z"/>
		</g>
		<g>
			<defs>
				<rect id="SVGID_29_" x="-57.04" y="57.337" width="541.224" height="714.82"/>
			</defs>
			<clipPath id="SVGID_30_">
				<use xlink:href="#SVGID_29_"  overflow="visible"/>
			</clipPath>
			<path clip-path="url(#SVGID_30_)" fill="#231F20" d="M350.761,240.692l-1.33-3.877h-0.572l1.662,4.688h0.439l1.283-3.778
				l1.275,3.778h0.446l1.662-4.688h-0.554l-1.329,3.877l-1.275-3.89h-0.434L350.761,240.692z M347.801,239.149
				c0,1.038-0.752,1.836-1.93,1.836h-1.091v-3.684h1.091C347.049,237.301,347.801,238.112,347.801,239.149 M348.346,239.137
				c0-1.317-1.011-2.321-2.475-2.321h-1.615v4.655h1.615C347.335,241.471,348.346,240.453,348.346,239.137"/>
		</g>
	</g>
	<rect x="241.96" y="133.2" fill="#BBBDBF" width="29.25" height="27.3"/>
	<polygon fill="#BBBDBF" points="180.21,59.1 180.21,436.75 206.21,436.75 206.21,424.387 189.31,424.387 189.31,243.05 
		193.86,243.05 193.86,222.683 189.995,222.683 189.995,59.101 	"/>
	<rect x="440.346" y="170.052" fill="#FFFFFF" width="30.712" height="59.401"/>
	<rect x="440.346" y="170.052" fill="none" stroke="#000000" stroke-width="0.78" width="30.712" height="59.401"/>
	<g>
		<g>
			<defs>
				<rect id="SVGID_31_" x="-57.04" y="57.337" width="541.224" height="714.82"/>
			</defs>
			<clipPath id="SVGID_32_">
				<use xlink:href="#SVGID_31_"  overflow="visible"/>
			</clipPath>
			<circle clip-path="url(#SVGID_32_)" fill="none" stroke="#231F20" stroke-width="0.65" cx="455.848" cy="183.59" r="1.26"/>
		</g>
		<g>
			<defs>
				<rect id="SVGID_33_" x="-57.04" y="57.337" width="541.224" height="714.82"/>
			</defs>
			<clipPath id="SVGID_34_">
				<use xlink:href="#SVGID_33_"  overflow="visible"/>
			</clipPath>
			<path clip-path="url(#SVGID_34_)" fill="none" stroke="#000000" stroke-width="0.65" d="M455.796,226.061
				c-8.804,0-12.024-2.031-12.024-4.878v-43.388c0-0.696,0.188-2.133,2.028-2.133h9.996h0.021h9.997c1.84,0,2.027,1.437,2.027,2.133
				v43.361l-0.002,0.027C467.839,224.03,464.543,226.061,455.796,226.061z"/>
		</g>
		<g>
			<defs>
				<rect id="SVGID_35_" x="-57.04" y="57.337" width="541.224" height="714.82"/>
			</defs>
			<clipPath id="SVGID_36_">
				<use xlink:href="#SVGID_35_"  overflow="visible"/>
			</clipPath>
			<path clip-path="url(#SVGID_36_)" fill="none" stroke="#231F20" stroke-width="0.585" d="M461.19,173.453
				c0.008,0.713-0.579,1.285-1.287,1.285c-0.706,0-1.288-0.572-1.288-1.285c0-0.708,0.582-1.294,1.288-1.285
				C460.614,172.159,461.19,172.745,461.19,173.453z M453.205,173.453c0.003,0.713-0.572,1.285-1.294,1.285
				c-0.697,0-1.276-0.572-1.281-1.285c0.005-0.708,0.584-1.294,1.281-1.294C452.633,172.159,453.208,172.737,453.205,173.453z"/>
		</g>
		<g>
			<defs>
				<rect id="SVGID_37_" x="-57.04" y="57.337" width="541.224" height="714.82"/>
			</defs>
			<clipPath id="SVGID_38_">
				<use xlink:href="#SVGID_37_"  overflow="visible"/>
			</clipPath>
			<path clip-path="url(#SVGID_38_)" fill="#FFFFFF" d="M454.114,173.072c0-1.056,0.713-1.909,1.771-1.912
				c1.053,0.003,1.63,0.856,1.63,1.912l-0.678,7.269c0,0.714-1.928,0.714-1.928,0L454.114,173.072z"/>
		</g>
		<g>
			<defs>
				<rect id="SVGID_39_" x="-57.04" y="57.337" width="541.224" height="714.82"/>
			</defs>
			<clipPath id="SVGID_40_">
				<use xlink:href="#SVGID_39_"  overflow="visible"/>
			</clipPath>
			<path clip-path="url(#SVGID_40_)" fill="none" stroke="#231F20" stroke-width="0.585" d="M454.114,173.072
				c0-1.056,0.713-1.909,1.771-1.912c1.053,0.003,1.63,0.856,1.63,1.912l-0.678,7.269c0,0.714-1.928,0.714-1.928,0L454.114,173.072z
				"/>
		</g>
		<g>
			<defs>
				<rect id="SVGID_41_" x="-57.04" y="57.337" width="541.224" height="714.82"/>
			</defs>
			<clipPath id="SVGID_42_">
				<use xlink:href="#SVGID_41_"  overflow="visible"/>
			</clipPath>
			<path clip-path="url(#SVGID_42_)" fill="none" stroke="#000000" stroke-width="0.975" d="M201.904,87.943
				c15.915,0,28.817-12.901,28.817-28.818 M200.243,87.961h1.659V59.125h-1.659V87.961z M432.76,203.4
				c-15.915,0-28.817,12.901-28.817,28.818 M434.421,203.382h-1.661v28.836h1.661V203.382z"/>
		</g>
	</g>
	<path fill="none" stroke="#000000" stroke-width="0.78" d="M386.257,235.25v26.435 M386.257,256.524h3.667l0.855-3.168v-9.71
		l-0.855-3.209h-3.667 M369.342,261.685h24.108V235.44h-24.108V261.685z"/>
	<polygon fill="#FFFFFF" points="387.839,236.717 387.845,238.837 386.364,239.303 386.359,236.25 	"/>
	<polygon fill="none" stroke="#231F20" stroke-width="0.78" points="387.839,236.717 387.845,238.837 386.364,239.303 
		386.359,236.25 	"/>
	<polygon fill="#FFFFFF" points="327.894,191.215 327.842,165.537 297.619,165.484 297.668,191.158 	"/>
	<polygon fill="none" stroke="#000000" stroke-width="0.78" points="327.894,191.215 327.842,165.537 297.619,165.484 
		297.668,191.158 	"/>
	<line fill="none" stroke="#000000" stroke-width="0.39" x1="297.455" y1="167.773" x2="327.719" y2="167.772"/>
	<g>
		<g>
			<defs>
				<rect id="SVGID_43_" x="-57.04" y="57.337" width="541.224" height="714.82"/>
			</defs>
			<clipPath id="SVGID_44_">
				<use xlink:href="#SVGID_43_"  overflow="visible"/>
			</clipPath>
			<path clip-path="url(#SVGID_44_)" fill="#FFFFFF" d="M306.507,177.057c2.171-0.015,3.914-1.793,3.897-3.958
				c-0.017-2.174-1.785-3.917-3.955-3.9c-2.171,0.016-3.916,1.787-3.899,3.957C302.565,175.322,304.339,177.073,306.507,177.057"/>
		</g>
		<g>
			<defs>
				<rect id="SVGID_45_" x="-57.04" y="57.337" width="541.224" height="714.82"/>
			</defs>
			<clipPath id="SVGID_46_">
				<use xlink:href="#SVGID_45_"  overflow="visible"/>
			</clipPath>
			<path clip-path="url(#SVGID_46_)" fill="none" stroke="#231F20" stroke-width="0.65" d="M306.507,177.057
				c2.171-0.015,3.914-1.793,3.897-3.958c-0.017-2.174-1.785-3.917-3.955-3.9c-2.171,0.016-3.916,1.787-3.899,3.957
				C302.565,175.322,304.339,177.073,306.507,177.057z"/>
		</g>
		<g>
			<defs>
				<rect id="SVGID_47_" x="-57.04" y="57.337" width="541.224" height="714.82"/>
			</defs>
			<clipPath id="SVGID_48_">
				<use xlink:href="#SVGID_47_"  overflow="visible"/>
			</clipPath>
			<path clip-path="url(#SVGID_48_)" fill="#FFFFFF" d="M318.281,176.971c2.171-0.018,3.913-1.794,3.897-3.961
				c-0.016-2.17-1.786-3.915-3.954-3.897c-2.167,0.016-3.918,1.787-3.903,3.957C314.338,175.234,316.114,176.986,318.281,176.971"/>
		</g>
		<g>
			<defs>
				<rect id="SVGID_49_" x="-57.04" y="57.337" width="541.224" height="714.82"/>
			</defs>
			<clipPath id="SVGID_50_">
				<use xlink:href="#SVGID_49_"  overflow="visible"/>
			</clipPath>
			<path clip-path="url(#SVGID_50_)" fill="none" stroke="#231F20" stroke-width="0.65" d="M318.281,176.971
				c2.171-0.018,3.913-1.794,3.897-3.961c-0.016-2.17-1.786-3.915-3.954-3.897c-2.167,0.016-3.918,1.787-3.903,3.957
				C314.338,175.234,316.114,176.986,318.281,176.971z"/>
		</g>
		<g>
			<defs>
				<rect id="SVGID_51_" x="-57.04" y="57.337" width="541.224" height="714.82"/>
			</defs>
			<clipPath id="SVGID_52_">
				<use xlink:href="#SVGID_51_"  overflow="visible"/>
			</clipPath>
			<path clip-path="url(#SVGID_52_)" fill="#FFFFFF" d="M306.585,187.744c2.172-0.016,3.915-1.786,3.896-3.953
				c-0.014-2.172-1.786-3.919-3.954-3.902c-2.17,0.014-3.917,1.785-3.898,3.961C302.645,186.017,304.417,187.761,306.585,187.744"/>
		</g>
		<g>
			<defs>
				<rect id="SVGID_53_" x="-57.04" y="57.337" width="541.224" height="714.82"/>
			</defs>
			<clipPath id="SVGID_54_">
				<use xlink:href="#SVGID_53_"  overflow="visible"/>
			</clipPath>
			<path clip-path="url(#SVGID_54_)" fill="none" stroke="#231F20" stroke-width="0.65" d="M306.585,187.744
				c2.172-0.016,3.915-1.786,3.896-3.953c-0.014-2.172-1.786-3.919-3.954-3.902c-2.17,0.014-3.917,1.785-3.898,3.961
				C302.645,186.017,304.417,187.761,306.585,187.744z"/>
		</g>
		<g>
			<defs>
				<rect id="SVGID_55_" x="-57.04" y="57.337" width="541.224" height="714.82"/>
			</defs>
			<clipPath id="SVGID_56_">
				<use xlink:href="#SVGID_55_"  overflow="visible"/>
			</clipPath>
			<path clip-path="url(#SVGID_56_)" fill="#FFFFFF" d="M318.36,187.656c2.17-0.016,3.914-1.784,3.896-3.951
				c-0.018-2.176-1.785-3.92-3.953-3.903c-2.168,0.016-3.918,1.787-3.9,3.96C314.418,185.928,316.193,187.673,318.36,187.656"/>
		</g>
		<g>
			<defs>
				<rect id="SVGID_57_" x="-57.04" y="57.337" width="541.224" height="714.82"/>
			</defs>
			<clipPath id="SVGID_58_">
				<use xlink:href="#SVGID_57_"  overflow="visible"/>
			</clipPath>
			<path clip-path="url(#SVGID_58_)" fill="none" stroke="#231F20" stroke-width="0.65" d="M318.36,187.656
				c2.17-0.016,3.914-1.784,3.896-3.951c-0.018-2.176-1.785-3.92-3.953-3.903c-2.168,0.016-3.918,1.787-3.9,3.96
				C314.418,185.928,316.193,187.673,318.36,187.656z"/>
		</g>
	</g>
	<rect x="298.667" y="191.118" fill="#FFFFFF" width="28.166" height="1.192"/>
	<rect x="298.667" y="191.118" fill="none" stroke="#231F20" stroke-width="0.78" width="28.166" height="1.192"/>
	<path fill="none" stroke="#231F20" stroke-width="0.78" d="M342.06,438.452h55.25 M409.822,438.469h45.825 M276.085,438.389h45.825
		 M207.754,438.327h46.475 M343.035,425.7h43.875 M276.816,425.7h43.551 M207.51,425.049h44.2 M410.96,425.7h43.875"/>
	<g>
		<g>
			<defs>
				<rect id="SVGID_59_" x="-57.04" y="57.337" width="541.224" height="714.82"/>
			</defs>
			<clipPath id="SVGID_60_">
				<use xlink:href="#SVGID_59_"  overflow="visible"/>
			</clipPath>
			<path clip-path="url(#SVGID_60_)" fill="#FFFFFF" d="M434.46,181.356c0,5.8-3.523,12.189-7.868,12.189
				c-4.346,0-7.866-6.389-7.866-12.189c0-5.802,3.521-8.821,7.866-8.821C430.937,172.535,434.46,175.554,434.46,181.356"/>
		</g>
		<g>
			<defs>
				<rect id="SVGID_61_" x="-57.04" y="57.337" width="541.224" height="714.82"/>
			</defs>
			<clipPath id="SVGID_62_">
				<use xlink:href="#SVGID_61_"  overflow="visible"/>
			</clipPath>
			<path clip-path="url(#SVGID_62_)" fill="none" stroke="#000000" stroke-width="0.78" d="M434.46,181.356
				c0,5.8-3.523,12.189-7.868,12.189c-4.346,0-7.866-6.389-7.866-12.189c0-5.802,3.521-8.821,7.866-8.821
				C430.937,172.535,434.46,175.554,434.46,181.356z"/>
		</g>
		<g>
			<defs>
				<rect id="SVGID_63_" x="-57.04" y="57.337" width="541.224" height="714.82"/>
			</defs>
			<clipPath id="SVGID_64_">
				<use xlink:href="#SVGID_63_"  overflow="visible"/>
			</clipPath>
			<path clip-path="url(#SVGID_64_)" fill="#FFFFFF" d="M421.882,174.437c0,0.325-0.266,0.59-0.59,0.59h-2.756
				c-0.324,0-0.592-0.265-0.592-0.59v-0.102c0-0.325,0.268-0.59,0.592-0.59h2.756c0.324,0,0.59,0.265,0.59,0.59V174.437z"/>
		</g>
		<g>
			<defs>
				<rect id="SVGID_65_" x="-57.04" y="57.337" width="541.224" height="714.82"/>
			</defs>
			<clipPath id="SVGID_66_">
				<use xlink:href="#SVGID_65_"  overflow="visible"/>
			</clipPath>
			<path clip-path="url(#SVGID_66_)" fill="none" stroke="#231F20" stroke-width="0.78" d="M421.882,174.437
				c0,0.325-0.266,0.59-0.59,0.59h-2.756c-0.324,0-0.592-0.265-0.592-0.59v-0.102c0-0.325,0.268-0.59,0.592-0.59h2.756
				c0.324,0,0.59,0.265,0.59,0.59V174.437z"/>
		</g>
		<g>
			<defs>
				<rect id="SVGID_67_" x="-57.04" y="57.337" width="541.224" height="714.82"/>
			</defs>
			<clipPath id="SVGID_68_">
				<use xlink:href="#SVGID_67_"  overflow="visible"/>
			</clipPath>
			<path clip-path="url(#SVGID_68_)" fill="#FFFFFF" d="M417.529,173.729c-0.983,0-1.787-2.674-1.787-3.661
				c0-0.988,0.804-3.662,1.787-3.662h17.973c0.986,0,1.787,2.674,1.787,3.662c0,0.987-0.801,3.658-1.787,3.658L417.529,173.729z"/>
		</g>
		<g>
			<defs>
				<rect id="SVGID_69_" x="-57.04" y="57.337" width="541.224" height="714.82"/>
			</defs>
			<clipPath id="SVGID_70_">
				<use xlink:href="#SVGID_69_"  overflow="visible"/>
			</clipPath>
			<path clip-path="url(#SVGID_70_)" fill="none" stroke="#000000" stroke-width="0.78" d="M417.529,173.729
				c-0.983,0-1.787-2.674-1.787-3.661c0-0.988,0.804-3.662,1.787-3.662h17.973c0.986,0,1.787,2.674,1.787,3.662
				c0,0.987-0.801,3.658-1.787,3.658L417.529,173.729z"/>
		</g>
		<g>
			<defs>
				<rect id="SVGID_71_" x="-57.04" y="57.337" width="541.224" height="714.82"/>
			</defs>
			<clipPath id="SVGID_72_">
				<use xlink:href="#SVGID_71_"  overflow="visible"/>
			</clipPath>
			<path clip-path="url(#SVGID_72_)" fill="#FFFFFF" d="M432.376,181.598c0,4.263-2.591,8.96-5.784,8.96s-5.781-4.697-5.781-8.96
				c0-4.263,2.588-6.482,5.781-6.482S432.376,177.335,432.376,181.598"/>
		</g>
		<g>
			<defs>
				<rect id="SVGID_73_" x="-57.04" y="57.337" width="541.224" height="714.82"/>
			</defs>
			<clipPath id="SVGID_74_">
				<use xlink:href="#SVGID_73_"  overflow="visible"/>
			</clipPath>
			<path clip-path="url(#SVGID_74_)" fill="none" stroke="#000000" stroke-width="0.65" d="M432.376,181.598
				c0,4.263-2.591,8.96-5.784,8.96s-5.781-4.697-5.781-8.96c0-4.263,2.588-6.482,5.781-6.482S432.376,177.335,432.376,181.598z"/>
		</g>
	</g>
	<polyline fill="none" stroke="#231F20" stroke-width="0.78" points="365.026,165.339 365.026,189.39 406.624,188.522 
		406.624,162.305 	"/>
	<line fill="none" stroke="#000000" stroke-width="0.975" x1="456.243" y1="233.734" x2="456.243" y2="294.401"/>
	
		<line fill="none" stroke="#000000" stroke-width="0.975" stroke-dasharray="2.013,2.013,2.013,2.013,2.013,2.013" stroke-dashoffset="4" x1="458.409" y1="293.317" x2="458.409" y2="230.917"/>
	<line fill="none" stroke="#000000" stroke-width="0.975" x1="382.794" y1="268.185" x2="382.794" y2="293.75"/>
	
		<line fill="none" stroke="#000000" stroke-width="0.975" stroke-dasharray="1.933,1.933,1.933,1.933,1.933,1.933" stroke-dashoffset="3" x1="380.194" y1="268.618" x2="380.194" y2="293.752"/>
	<polyline fill="none" stroke="#000000" stroke-width="0.78" points="329.062,163.968 329.062,189.318 339.027,189.318 
		339.027,254.209 364.377,254.209 	"/>
	<g>
		<g>
			<defs>
				<rect id="SVGID_75_" x="-57.04" y="57.337" width="541.224" height="714.82"/>
			</defs>
			<clipPath id="SVGID_76_">
				<use xlink:href="#SVGID_75_"  overflow="visible"/>
			</clipPath>
			<circle clip-path="url(#SVGID_76_)" fill="none" stroke="#000000" stroke-width="0.52" cx="386.826" cy="176.782" r="1.189"/>
		</g>
		<g>
			<defs>
				<rect id="SVGID_77_" x="-57.04" y="57.337" width="541.224" height="714.82"/>
			</defs>
			<clipPath id="SVGID_78_">
				<use xlink:href="#SVGID_77_"  overflow="visible"/>
			</clipPath>
			<path clip-path="url(#SVGID_78_)" fill="none" stroke="#000000" stroke-width="0.65" d="M386.826,166.95
				c0.638,0,1.152,0.517,1.152,1.154s-0.516,1.155-1.152,1.155c-0.638,0-1.155-0.518-1.155-1.155S386.188,166.95,386.826,166.95z
				 M387.357,174.15h-1.062v-4.716h1.062V174.15z M392.019,169.323h-10.385v-2.486h10.385V169.323z"/>
		</g>
	</g>
	<rect x="376.297" y="166.457" fill="none" stroke="#000000" stroke-width="0.78" width="21.06" height="19.073"/>
	<rect x="377.926" y="169.382" fill="none" stroke="#000000" stroke-width="0.585" width="17.759" height="14.518"/>
	<line fill="none" stroke="#000000" stroke-width="0.65" x1="334.524" y1="255.752" x2="334.524" y2="291.502"/>
	<rect x="330.937" y="268.456" fill="none" stroke="#000000" stroke-width="0.78" width="1.463" height="2.762"/>
	<rect x="332.424" y="255.97" fill="none" stroke="#000000" stroke-width="0.78" width="30.062" height="35.245"/>
	<rect x="330.937" y="277.149" fill="none" stroke="#000000" stroke-width="0.78" width="1.463" height="2.764"/>
	<g>
		<g>
			<defs>
				<rect id="SVGID_79_" x="-57.04" y="57.337" width="541.224" height="714.82"/>
			</defs>
			<clipPath id="SVGID_80_">
				<use xlink:href="#SVGID_79_"  overflow="visible"/>
			</clipPath>
			<path clip-path="url(#SVGID_80_)" fill="#FFFFFF" d="M359.477,198.339c1.009,0,1.843,0.83,1.843,1.843v22.408
				c0,1.01-0.831,1.835-1.843,1.835h-15.756c-1.016,0-1.843-0.825-1.843-1.835v-22.408c0-1.013,0.827-1.843,1.843-1.843H359.477z"/>
		</g>
		<g>
			<defs>
				<rect id="SVGID_81_" x="-57.04" y="57.337" width="541.224" height="714.82"/>
			</defs>
			<clipPath id="SVGID_82_">
				<use xlink:href="#SVGID_81_"  overflow="visible"/>
			</clipPath>
			<path clip-path="url(#SVGID_82_)" fill="none" stroke="#231F20" stroke-width="0.78" d="M359.477,198.339
				c1.009,0,1.843,0.83,1.843,1.843v22.408c0,1.01-0.831,1.835-1.843,1.835h-15.756c-1.016,0-1.843-0.825-1.843-1.835v-22.408
				c0-1.013,0.827-1.843,1.843-1.843H359.477z"/>
		</g>
		<g>
			<defs>
				<rect id="SVGID_83_" x="-57.04" y="57.337" width="541.224" height="714.82"/>
			</defs>
			<clipPath id="SVGID_84_">
				<use xlink:href="#SVGID_83_"  overflow="visible"/>
			</clipPath>
			<path clip-path="url(#SVGID_84_)" fill="#FFFFFF" d="M357.01,220.625c-0.003,1.039-0.835,1.889-1.851,1.889h-9.465
				c-1.016-0.002-1.85-0.85-1.85-1.889V202.2c0-1.037,0.836-1.885,1.85-1.885h9.465c1.016,0,1.851,0.848,1.851,1.885V220.625z"/>
		</g>
		<g>
			<defs>
				<rect id="SVGID_85_" x="-57.04" y="57.337" width="541.224" height="714.82"/>
			</defs>
			<clipPath id="SVGID_86_">
				<use xlink:href="#SVGID_85_"  overflow="visible"/>
			</clipPath>
			<path clip-path="url(#SVGID_86_)" fill="none" stroke="#231F20" stroke-width="0.585" d="M357.01,220.625
				c-0.003,1.039-0.835,1.889-1.851,1.889h-9.465c-1.016-0.002-1.85-0.85-1.85-1.889V202.2c0-1.037,0.836-1.885,1.85-1.885h9.465
				c1.016,0,1.851,0.848,1.851,1.885V220.625z"/>
		</g>
		<g>
			<defs>
				<rect id="SVGID_87_" x="-57.04" y="57.337" width="541.224" height="714.82"/>
			</defs>
			<clipPath id="SVGID_88_">
				<use xlink:href="#SVGID_87_"  overflow="visible"/>
			</clipPath>
			<path clip-path="url(#SVGID_88_)" fill="#FFFFFF" d="M350.213,209.816c0.762,0,1.385,0.622,1.385,1.389
				c0,0.769-0.623,1.384-1.385,1.384c-0.767,0-1.394-0.612-1.394-1.384C348.82,210.438,349.447,209.816,350.213,209.816"/>
		</g>
		<g>
			<defs>
				<rect id="SVGID_89_" x="-57.04" y="57.337" width="541.224" height="714.82"/>
			</defs>
			<clipPath id="SVGID_90_">
				<use xlink:href="#SVGID_89_"  overflow="visible"/>
			</clipPath>
			<path clip-path="url(#SVGID_90_)" fill="none" stroke="#231F20" stroke-width="0.52" d="M350.213,209.816
				c0.762,0,1.385,0.622,1.385,1.389c0,0.769-0.623,1.384-1.385,1.384c-0.767,0-1.394-0.612-1.394-1.384
				C348.82,210.438,349.447,209.816,350.213,209.816z"/>
		</g>
		<g>
			<defs>
				<rect id="SVGID_91_" x="-57.04" y="57.337" width="541.224" height="714.82"/>
			</defs>
			<clipPath id="SVGID_92_">
				<use xlink:href="#SVGID_91_"  overflow="visible"/>
			</clipPath>
			<path clip-path="url(#SVGID_92_)" fill="#FFFFFF" d="M359.215,206.227c0.739,0,1.424,0.6,1.424,1.341v7.312
				c0,0.74-0.685,1.341-1.424,1.341c-0.741,0-1.424-0.601-1.424-1.341v-7.312C357.791,206.827,358.474,206.227,359.215,206.227"/>
		</g>
		<g>
			<defs>
				<rect id="SVGID_93_" x="-57.04" y="57.337" width="541.224" height="714.82"/>
			</defs>
			<clipPath id="SVGID_94_">
				<use xlink:href="#SVGID_93_"  overflow="visible"/>
			</clipPath>
			<path clip-path="url(#SVGID_94_)" fill="none" stroke="#231F20" stroke-width="0.52" d="M359.215,206.227
				c0.739,0,1.424,0.6,1.424,1.341v7.312c0,0.74-0.685,1.341-1.424,1.341c-0.741,0-1.424-0.601-1.424-1.341v-7.312
				C357.791,206.827,358.474,206.227,359.215,206.227z"/>
		</g>
		<g>
			<defs>
				<rect id="SVGID_95_" x="-57.04" y="57.337" width="541.224" height="714.82"/>
			</defs>
			<clipPath id="SVGID_96_">
				<use xlink:href="#SVGID_95_"  overflow="visible"/>
			</clipPath>
			<path clip-path="url(#SVGID_96_)" fill="#FFFFFF" d="M351.436,205.741l6.814,6.274c0.4,0.348,0.998,0.311,1.352-0.088
				c0.357-0.389,0.32-0.999-0.082-1.35l-7.062-5.99C352.132,204.308,351.12,205.455,351.436,205.741"/>
		</g>
		<g>
			<defs>
				<rect id="SVGID_97_" x="-57.04" y="57.337" width="541.224" height="714.82"/>
			</defs>
			<clipPath id="SVGID_98_">
				<use xlink:href="#SVGID_97_"  overflow="visible"/>
			</clipPath>
			<path clip-path="url(#SVGID_98_)" fill="none" stroke="#231F20" stroke-width="0.65" d="M351.436,205.741l6.814,6.274
				c0.4,0.348,0.998,0.311,1.352-0.088c0.357-0.389,0.32-0.999-0.082-1.35l-7.062-5.99
				C352.132,204.308,351.12,205.455,351.436,205.741z"/>
		</g>
		<g>
			<defs>
				<rect id="SVGID_99_" x="-57.04" y="57.337" width="541.224" height="714.82"/>
			</defs>
			<clipPath id="SVGID_100_">
				<use xlink:href="#SVGID_99_"  overflow="visible"/>
			</clipPath>
			<path clip-path="url(#SVGID_100_)" fill="#FFFFFF" d="M355.846,212.019h3.291c0.35,0,0.639-0.287,0.639-0.645
				c0-0.349-0.289-0.632-0.639-0.632h-3.291c-0.358,0-0.642,0.283-0.642,0.635C355.204,211.731,355.487,212.019,355.846,212.019"/>
		</g>
		<g>
			<defs>
				<rect id="SVGID_101_" x="-57.04" y="57.337" width="541.224" height="714.82"/>
			</defs>
			<clipPath id="SVGID_102_">
				<use xlink:href="#SVGID_101_"  overflow="visible"/>
			</clipPath>
			<path clip-path="url(#SVGID_102_)" fill="none" stroke="#231F20" stroke-width="0.52" d="M355.846,212.019h3.291
				c0.35,0,0.639-0.287,0.639-0.645c0-0.349-0.289-0.632-0.639-0.632h-3.291c-0.358,0-0.642,0.283-0.642,0.635
				C355.204,211.731,355.487,212.019,355.846,212.019z"/>
		</g>
		<g>
			<defs>
				<rect id="SVGID_103_" x="-57.04" y="57.337" width="541.224" height="714.82"/>
			</defs>
			<clipPath id="SVGID_104_">
				<use xlink:href="#SVGID_103_"  overflow="visible"/>
			</clipPath>
			<path clip-path="url(#SVGID_104_)" fill="#FFFFFF" d="M359.091,213.401c0.421,0,0.767,0.348,0.767,0.773
				c0,0.422-0.346,0.763-0.767,0.763c-0.416,0-0.764-0.341-0.764-0.767C358.327,213.746,358.67,213.401,359.091,213.401"/>
		</g>
		<g>
			<defs>
				<rect id="SVGID_105_" x="-57.04" y="57.337" width="541.224" height="714.82"/>
			</defs>
			<clipPath id="SVGID_106_">
				<use xlink:href="#SVGID_105_"  overflow="visible"/>
			</clipPath>
			<path clip-path="url(#SVGID_106_)" fill="none" stroke="#231F20" stroke-width="0.455" d="M359.091,213.401
				c0.421,0,0.767,0.348,0.767,0.773c0,0.422-0.346,0.763-0.767,0.763c-0.416,0-0.764-0.341-0.764-0.767
				C358.327,213.746,358.67,213.401,359.091,213.401z"/>
		</g>
		<g>
			<defs>
				<rect id="SVGID_107_" x="-57.04" y="57.337" width="541.224" height="714.82"/>
			</defs>
			<clipPath id="SVGID_108_">
				<use xlink:href="#SVGID_107_"  overflow="visible"/>
			</clipPath>
			<path clip-path="url(#SVGID_108_)" fill="#FFFFFF" d="M359.159,207.503c0.421,0,0.768,0.348,0.768,0.772
				c0,0.421-0.347,0.764-0.768,0.764c-0.42,0-0.765-0.343-0.765-0.767C358.396,207.848,358.738,207.503,359.159,207.503"/>
		</g>
		<g>
			<defs>
				<rect id="SVGID_109_" x="-57.04" y="57.337" width="541.224" height="714.82"/>
			</defs>
			<clipPath id="SVGID_110_">
				<use xlink:href="#SVGID_109_"  overflow="visible"/>
			</clipPath>
			<path clip-path="url(#SVGID_110_)" fill="none" stroke="#231F20" stroke-width="0.455" d="M359.159,207.503
				c0.421,0,0.768,0.348,0.768,0.772c0,0.421-0.347,0.764-0.768,0.764c-0.42,0-0.765-0.343-0.765-0.767
				C358.396,207.848,358.738,207.503,359.159,207.503z"/>
		</g>
	</g>
	
		<line fill="none" stroke="#000000" stroke-width="0.65" stroke-dasharray="1.936,1.936,1.936,1.936,1.936,1.936" stroke-dashoffset="3" x1="341.42" y1="249.82" x2="359.81" y2="249.82"/>
	
		<line fill="none" stroke="#000000" stroke-width="0.65" stroke-dasharray="1.899,1.899,1.899,1.899,1.899,1.899" stroke-dashoffset="3" x1="361.745" y1="246.973" x2="361.745" y2="228.937"/>
	
		<line fill="none" stroke="#000000" stroke-width="0.65" stroke-dasharray="1.892,1.892,1.892,1.892,1.892,1.892" stroke-dashoffset="3" x1="358.907" y1="227.037" x2="340.93" y2="227.037"/>
	<path fill="none" stroke="#000000" stroke-width="0.65" d="M339.983,227.038h-0.944 M361.746,227.986v-0.949H360.8 M360.777,249.82
		h0.97v-0.948 M338.517,249.82h0.968"/>
	<polyline fill="none" stroke="#000000" stroke-width="0.65" points="339.037,227.002 336.572,227.002 336.572,249.821 
		338.506,249.821 	"/>
	<polyline fill="#BBBDBF" points="482.234,162.018 482.221,436.842 456.432,436.842 456.432,424.053 470.983,424.053 
		470.983,295.206 473.283,295.256 473.283,167.973 441.969,167.973 441.969,163.968 	"/>
	<g>
		<g>
			<defs>
				<rect id="SVGID_111_" x="-57.04" y="57.337" width="541.224" height="714.82"/>
			</defs>
			<clipPath id="SVGID_112_">
				<use xlink:href="#SVGID_111_"  overflow="visible"/>
			</clipPath>
			<polyline clip-path="url(#SVGID_112_)" fill="none" stroke="#231F20" stroke-width="3.9" points="482.234,162.018 
				482.221,436.842 456.432,436.842 456.432,424.053 470.983,424.053 470.983,295.206 473.283,295.256 473.283,167.973 
				441.969,167.973 441.969,163.968 			"/>
		</g>
	</g>
	<path fill="none" stroke="#231F20" stroke-width="3.9" d="M455.159,431.549h-44.417 M394.276,431.549H343.36 M320.61,431.549
		h-45.014 M251.927,431.549h-43.441"/>
	<path fill="none" stroke="#231F20" stroke-width="5.2" d="M473.172,294.726h-37.513 M398.935,294.726h-58.5v75.726"/>
	<line fill="none" stroke="#231F20" stroke-width="6.5" x1="340.844" y1="409.883" x2="340.844" y2="425.049"/>
	<g>
		<g>
			<defs>
				<rect id="SVGID_113_" x="-57.04" y="57.337" width="541.224" height="714.82"/>
			</defs>
			<clipPath id="SVGID_114_">
				<use xlink:href="#SVGID_113_"  overflow="visible"/>
			</clipPath>
			<path clip-path="url(#SVGID_114_)" fill="none" stroke="#231F20" stroke-width="3.9" d="M270.979,162.884L270.924,59.61
				l-40.956-0.007 M200.416,59.6l-20.248-0.003l-0.021,377.134h26.531v-12.412h-17.292l-0.028-181.246h4.278l0.028-20.838h-4.286
				V60.185"/>
		</g>
	</g>
	<path fill="none" stroke="#231F20" stroke-width="5.2" d="M270.561,132.88h-29.918v69.22h11.394 M281.609,202.1h12.677
		l-0.027-38.025"/>
	<polygon fill="#BBBDBF" points="387.651,423.2 387.651,436.842 409.187,436.842 409.187,423.241 	"/>
	<polygon fill="none" stroke="#231F20" stroke-width="3.9" points="387.651,423.2 387.651,436.842 409.187,436.842 409.187,423.241 
			"/>
	<polygon fill="#BBBDBF" points="322.042,423.2 322.042,436.842 342.165,436.842 342.165,423.241 	"/>
	<polygon fill="none" stroke="#231F20" stroke-width="3.9" points="322.042,423.2 322.042,436.842 342.165,436.842 342.165,423.241 
			"/>
	<polygon fill="#BBBDBF" points="253.359,423.2 253.359,436.788 274.992,436.788 274.992,423.241 	"/>
	<polygon fill="none" stroke="#231F20" stroke-width="3.9" points="253.359,423.2 253.359,436.788 274.992,436.788 274.992,423.241 
			"/>
	<g>
		<g>
			<defs>
				<rect id="SVGID_115_" x="-57.04" y="57.337" width="541.224" height="714.82"/>
			</defs>
			<clipPath id="SVGID_116_">
				<use xlink:href="#SVGID_115_"  overflow="visible"/>
			</clipPath>
			<path clip-path="url(#SVGID_116_)" fill="none" stroke="#231F20" stroke-width="5.2" d="M472.061,231.675h-37.7 M404.103,231.675
				h-37.018 M365.785,164.725v131.3 M484.067,162.125H240.335"/>
		</g>
	</g>
	<line fill="none" stroke="#231F20" stroke-width="6.5" x1="398.935" y1="265.749" x2="365.46" y2="265.749"/>
	<path fill="none" stroke="#231F20" stroke-width="0.78" d="M242.399,200.8h47.125v1.95h-47.125V200.8L242.399,200.8z
		 M337.576,391.36h-1.95v-47.125h1.95V391.36z"/>
	
		<line fill="none" stroke="#231F20" stroke-width="3.9" stroke-dasharray="6.223,2.223,6.223,2.223,6.223,2.223" stroke-dashoffset="8" x1="192.123" y1="242.726" x2="192.123" y2="426.293"/>
	<g>
		<g>
			<defs>
				<rect id="SVGID_117_" x="-57.04" y="57.337" width="541.224" height="714.82"/>
			</defs>
			<clipPath id="SVGID_118_">
				<use xlink:href="#SVGID_117_"  overflow="visible"/>
			</clipPath>
			
				<line clip-path="url(#SVGID_118_)" fill="none" stroke="#231F20" stroke-width="3.9" stroke-dasharray="6.25,2.25,6.25,2.25,6.25,2.25" stroke-dashoffset="8" x1="192.123" y1="61.05" x2="192.123" y2="220.3"/>
		</g>
	</g>
	<rect x="229.993" y="429.918" fill="#FFFFFF" width="18.579" height="3.164"/>
	<rect x="229.993" y="429.918" fill="none" stroke="#000000" stroke-width="0.78" width="18.579" height="3.164"/>
	<line fill="none" stroke="#000000" stroke-width="0.78" x1="229.993" y1="431.571" x2="248.464" y2="431.571"/>
	<rect x="210.873" y="429.918" fill="#FFFFFF" width="19.068" height="3.164"/>
	<rect x="210.873" y="429.918" fill="none" stroke="#000000" stroke-width="0.78" width="19.068" height="3.164"/>
	<line fill="none" stroke="#000000" stroke-width="0.78" x1="210.873" y1="431.571" x2="229.942" y2="431.571"/>
	<rect x="299.016" y="429.926" fill="#FFFFFF" width="18.58" height="3.164"/>
	<rect x="299.016" y="429.926" fill="none" stroke="#000000" stroke-width="0.78" width="18.58" height="3.164"/>
	<line fill="none" stroke="#000000" stroke-width="0.78" x1="299.016" y1="431.579" x2="317.487" y2="431.579"/>
	<rect x="279.896" y="429.926" fill="#FFFFFF" width="19.069" height="3.164"/>
	<rect x="279.896" y="429.926" fill="none" stroke="#000000" stroke-width="0.78" width="19.069" height="3.164"/>
	<line fill="none" stroke="#000000" stroke-width="0.78" x1="279.896" y1="431.579" x2="298.965" y2="431.579"/>
	<rect x="365.511" y="429.926" fill="#FFFFFF" width="18.581" height="3.164"/>
	<rect x="365.511" y="429.926" fill="none" stroke="#000000" stroke-width="0.78" width="18.581" height="3.164"/>
	<line fill="none" stroke="#000000" stroke-width="0.78" x1="365.511" y1="431.579" x2="383.982" y2="431.579"/>
	<rect x="346.392" y="429.926" fill="#FFFFFF" width="19.068" height="3.164"/>
	<rect x="346.392" y="429.926" fill="none" stroke="#000000" stroke-width="0.78" width="19.068" height="3.164"/>
	<line fill="none" stroke="#000000" stroke-width="0.78" x1="346.392" y1="431.579" x2="365.46" y2="431.579"/>
	<rect x="433.38" y="429.903" fill="#FFFFFF" width="18.581" height="3.164"/>
	<rect x="433.38" y="429.903" fill="none" stroke="#000000" stroke-width="0.78" width="18.581" height="3.164"/>
	<line fill="none" stroke="#000000" stroke-width="0.78" x1="433.38" y1="431.555" x2="451.852" y2="431.555"/>
	<rect x="414.261" y="429.903" fill="#FFFFFF" width="19.067" height="3.164"/>
	<rect x="414.261" y="429.903" fill="none" stroke="#000000" stroke-width="0.78" width="19.067" height="3.164"/>
	<line fill="none" stroke="#000000" stroke-width="0.78" x1="414.261" y1="431.555" x2="433.328" y2="431.555"/>
	<g>
		<g>
			<defs>
				<rect id="SVGID_119_" x="-57.04" y="57.337" width="541.224" height="714.82"/>
			</defs>
			<clipPath id="SVGID_120_">
				<use xlink:href="#SVGID_119_"  overflow="visible"/>
			</clipPath>
			<path clip-path="url(#SVGID_120_)" fill="#231F20" d="M422.831,361.264h-0.468l-0.475,1.547h0.296L422.831,361.264z
				 M421.887,361.264h-0.47l-0.472,1.547h0.293L421.887,361.264z M419.709,364.215c0,0.434-0.407,0.793-1.099,0.793
				c-0.688,0-1.098-0.359-1.098-0.793c0-0.473,0.484-0.803,1.098-0.803S419.709,363.743,419.709,364.215 M419.571,362.249
				c0,0.461-0.426,0.773-0.96,0.773s-0.96-0.312-0.96-0.773c0-0.426,0.414-0.732,0.96-0.732S419.571,361.829,419.571,362.249
				 M420.189,364.221c0-0.504-0.366-0.846-0.864-1.031c0.392-0.18,0.722-0.479,0.722-0.973c0-0.652-0.666-1.115-1.436-1.115
				c-0.768,0-1.434,0.463-1.434,1.115c0,0.492,0.33,0.793,0.72,0.973c-0.504,0.182-0.864,0.533-0.864,1.037
				c0,0.709,0.686,1.195,1.578,1.195C419.506,365.422,420.189,364.942,420.189,364.221 M415.756,361.264h-0.471l-0.472,1.547h0.293
				L415.756,361.264z M413.349,362.469c0,0.486-0.401,0.955-1.043,0.955c-0.612,0-1.033-0.385-1.033-0.924
				c0-0.529,0.378-0.99,1.008-0.99S413.349,361.93,413.349,362.469 M413.925,363.155c0-0.848-0.192-1.305-0.522-1.633
				c-0.27-0.271-0.623-0.434-1.104-0.434c-0.896,0-1.514,0.631-1.514,1.436c0,0.762,0.602,1.309,1.464,1.309
				c0.582,0,0.961-0.307,1.188-0.672c0.018,1.072-0.491,1.842-1.248,1.842c-0.372,0-0.69-0.15-1.032-0.451l-0.274,0.367
				c0.354,0.293,0.75,0.516,1.296,0.516C413.217,365.434,413.925,364.493,413.925,363.155 M407.695,364.862l-1.129-1.504
				l1.087-1.438h-0.386l-0.896,1.201l-0.901-1.201h-0.392l1.089,1.441l-1.131,1.498h0.383l0.94-1.264l0.941,1.264h0.395V364.862z
				 M402.568,361.264H402.1l-0.476,1.547h0.297L402.568,361.264z M401.621,361.264h-0.469l-0.472,1.547h0.293L401.621,361.264z
				 M399.294,362.469c0,0.486-0.401,0.955-1.045,0.955c-0.61,0-1.03-0.385-1.03-0.924c0-0.529,0.378-0.99,1.008-0.99
				S399.294,361.93,399.294,362.469 M399.869,363.155c0-0.848-0.19-1.305-0.521-1.633c-0.271-0.271-0.624-0.434-1.104-0.434
				c-0.894,0-1.512,0.631-1.512,1.436c0,0.762,0.601,1.309,1.464,1.309c0.582,0,0.96-0.307,1.188-0.672
				c0.018,1.072-0.492,1.842-1.248,1.842c-0.372,0-0.69-0.15-1.032-0.451l-0.276,0.367c0.354,0.293,0.75,0.516,1.296,0.516
				C399.161,365.434,399.869,364.493,399.869,363.155 M395.389,361.264h-0.468l-0.473,1.547h0.293L395.389,361.264z
				 M393.061,363.268c0,0.924-0.485,1.734-1.271,1.734c-0.785,0-1.29-0.816-1.29-1.746s0.492-1.734,1.277-1.734
				C392.563,361.522,393.061,362.344,393.061,363.268 M393.553,363.256c0-1.182-0.685-2.166-1.765-2.166
				c-1.086,0-1.781,0.996-1.781,2.178c0,1.184,0.684,2.166,1.77,2.166C392.856,365.434,393.553,364.438,393.553,363.256
				 M387.139,361.485l0.114,0.385l0.791-0.246v3.738h0.469v-4.23h-0.349L387.139,361.485z"/>
		</g>
		<g>
			<defs>
				<rect id="SVGID_121_" x="-57.04" y="57.337" width="541.224" height="714.82"/>
			</defs>
			<clipPath id="SVGID_122_">
				<use xlink:href="#SVGID_121_"  overflow="visible"/>
			</clipPath>
			<path clip-path="url(#SVGID_122_)" fill="#231F20" d="M422.129,353.565v3.771h0.523v-4.656h-0.532l-1.694,2.541l-1.695-2.541
				h-0.532v4.656h0.514v-3.764l1.694,2.484h0.026L422.129,353.565z M416.543,355.016c0,1.064-0.76,1.914-1.822,1.914
				c-1.064,0-1.836-0.863-1.836-1.928c0-1.062,0.759-1.914,1.823-1.914C415.771,353.088,416.543,353.952,416.543,355.016
				 M417.088,355.002c0-1.289-0.951-2.4-2.367-2.4c-1.417,0-2.381,1.123-2.381,2.414c0,1.289,0.95,2.4,2.368,2.4
				C416.123,357.417,417.088,356.293,417.088,355.002 M410.891,355.016c0,1.064-0.758,1.914-1.822,1.914
				c-1.062,0-1.836-0.863-1.836-1.928c0-1.062,0.758-1.914,1.822-1.914C410.117,353.088,410.891,353.952,410.891,355.016
				 M411.436,355.002c0-1.289-0.951-2.4-2.367-2.4c-1.417,0-2.381,1.123-2.381,2.414c0,1.289,0.951,2.4,2.367,2.4
				C410.472,357.417,411.436,356.293,411.436,355.002 M405.237,354.092c0,0.605-0.499,0.963-1.196,0.963h-1.431v-1.889h1.438
				C404.799,353.167,405.237,353.512,405.237,354.092 M405.936,357.336l-1.429-1.902c0.729-0.133,1.263-0.584,1.263-1.361
				c0-0.838-0.658-1.391-1.682-1.391h-2.002v4.654h0.523v-1.809h1.331l1.35,1.809H405.936z M400.43,355.016
				c0,1.037-0.751,1.836-1.928,1.836h-1.093v-3.686h1.093C399.679,353.167,400.43,353.979,400.43,355.016 M400.976,355.002
				c0-1.316-1.011-2.32-2.474-2.32h-1.616v4.654h1.616C399.965,357.336,400.976,356.319,400.976,355.002 M395.795,352.682h-3.365
				v4.654h3.398v-0.479h-2.873v-1.629h2.54v-0.479h-2.54v-1.59h2.84V352.682L395.795,352.682z M389.711,356.866h-1.563v-1.645h1.471
				c0.812,0,1.236,0.293,1.236,0.805C390.854,356.551,390.416,356.866,389.711,356.866 M389.524,354.756h-1.377v-1.604h1.416
				c0.665,0,1.031,0.301,1.031,0.766C390.595,354.471,390.155,354.756,389.524,354.756 M389.61,352.682h-1.98v4.654h2.066
				c1.02,0,1.69-0.471,1.69-1.277c0-0.645-0.446-0.963-0.998-1.129c0.366-0.16,0.738-0.473,0.738-1.084
				C391.127,353.133,390.528,352.682,389.61,352.682"/>
		</g>
	</g>
</g>
<g id="Layer_3">
</g>
<g id="_x32_03">
</g>
<g id="_x32_06">
</g>
<g>
	<g>
		<defs>
			<rect id="SVGID_123_" x="45.075" y="159.01" width="100.145" height="4.562"/>
		</defs>
		<clipPath id="SVGID_124_">
			<use xlink:href="#SVGID_123_"  overflow="visible"/>
		</clipPath>
		<path clip-path="url(#SVGID_124_)" fill="#231F20" d="M145.218,159.387v-0.301h-3.402v0.301h1.537v4.109h0.328v-4.109H145.218z
			 M139.427,163.497v-0.303h-2.842v-1.771h2.525v-0.303h-2.525v-1.732h2.811v-0.303h-3.139v4.41h3.17V163.497z M133.552,163.497
			v-0.303h-2.84v-1.771h2.525v-0.303h-2.525v-1.732h2.809v-0.303h-3.137v4.41h3.168V163.497z M127.275,160.364
			c0,0.637-0.547,1.01-1.283,1.01h-1.486v-1.986h1.506c0.799,0,1.266,0.373,1.266,0.965v0.012H127.275z M127.767,163.497
			l-1.455-1.885c0.744-0.102,1.291-0.523,1.291-1.26v-0.014c0-0.736-0.623-1.254-1.574-1.254h-1.852v4.41h0.326v-1.826h1.443
			l1.404,1.826h0.416V163.497z M121.527,159.387v-0.301h-3.4v0.301h1.539v4.109h0.326v-4.109H121.527z M115.804,162.356v-0.014
			c0-0.643-0.428-1.008-1.449-1.215c-1.045-0.215-1.285-0.498-1.285-0.965v-0.012c0-0.461,0.43-0.834,1.078-0.834
			c0.484,0,0.9,0.141,1.316,0.5l0.209-0.26c-0.449-0.359-0.871-0.535-1.514-0.535c-0.818,0-1.418,0.504-1.418,1.16v0.012
			c0,0.668,0.43,1.027,1.488,1.242c1.002,0.199,1.246,0.471,1.246,0.938v0.012c0,0.506-0.453,0.877-1.115,0.877
			c-0.648,0-1.096-0.207-1.58-0.654l-0.215,0.244c0.529,0.475,1.07,0.707,1.775,0.707
			C115.193,163.559,115.804,163.067,115.804,162.356 M104.642,163.497v-4.41h-0.312v3.836l-3.043-3.836h-0.311v4.41h0.316v-3.92
			l3.104,3.92H104.642z M97.868,161.305c0,1.088-0.781,1.971-1.871,1.971s-1.885-0.895-1.885-1.984v-0.014
			c0-1.09,0.781-1.971,1.871-1.971s1.883,0.895,1.883,1.984v0.014H97.868z M98.21,161.292c0.006-0.006,0.006-0.006,0-0.014
			c0-1.203-0.877-2.27-2.213-2.27c-1.334,0-2.225,1.078-2.225,2.281v0.014c0,1.203,0.877,2.268,2.213,2.268
			C97.32,163.571,98.21,162.495,98.21,161.292 M91.667,159.387v-0.301h-3.402v0.301h1.538v4.109h0.327v-4.109H91.667z
			 M85.868,162.911v-1.701h-1.789v0.301h1.474v1.268c-0.321,0.271-0.844,0.504-1.405,0.504c-1.178,0-1.89-0.85-1.89-1.99v-0.014
			c0-1.062,0.75-1.971,1.821-1.971c0.668,0,1.07,0.225,1.418,0.529l0.214-0.246c-0.441-0.365-0.896-0.58-1.613-0.58
			c-1.316,0-2.18,1.09-2.18,2.281v0.014c0,1.24,0.825,2.268,2.218,2.268C84.855,163.571,85.471,163.264,85.868,162.911
			 M79.151,163.497v-4.41h-0.314v3.836l-3.043-3.836h-0.309v4.41H75.8v-3.92l3.104,3.92H79.151z M72.476,159.086h-0.328v4.41h0.328
			V159.086z M69.141,163.497v-4.41h-0.327v2.041h-2.822v-2.041h-0.327v4.41h0.327v-2.066h2.822v2.066H69.141z M62.933,162.356
			v-0.014c0-0.643-0.428-1.008-1.449-1.215c-1.045-0.215-1.284-0.498-1.284-0.965v-0.012c0-0.461,0.429-0.834,1.076-0.834
			c0.486,0,0.901,0.141,1.317,0.5l0.208-0.26c-0.447-0.359-0.869-0.535-1.512-0.535c-0.819,0-1.417,0.504-1.417,1.16v0.012
			c0,0.668,0.428,1.027,1.485,1.242c1.002,0.199,1.248,0.471,1.248,0.938v0.012c0,0.506-0.454,0.877-1.114,0.877
			c-0.649,0-1.098-0.207-1.582-0.654l-0.215,0.244c0.529,0.475,1.071,0.707,1.777,0.707
			C62.322,163.559,62.933,163.067,62.933,162.356 M56.429,161.965h-2.325l1.166-2.551L56.429,161.965z M57.488,163.497l-2.054-4.441
			h-0.314l-2.054,4.441h0.341l0.56-1.236h2.602l0.562,1.236H57.488z M51.387,159.086h-0.34l-1.386,3.924l-1.292-3.938h-0.252
			l-1.291,3.938l-1.387-3.924h-0.365l1.601,4.439h0.264l1.292-3.83l1.291,3.83h0.266L51.387,159.086z"/>
	</g>
</g>
</svg>
