<?xml version="1.0" encoding="utf-8"?>
<!-- Generator: Adobe Illustrator 15.0.2, SVG Export Plug-In . SVG Version: 6.00 Build 0)  -->
<!DOCTYPE svg PUBLIC "-//W3C//DTD SVG 1.1//EN" "http://www.w3.org/Graphics/SVG/1.1/DTD/svg11.dtd">
<svg version="1.1" id="Layer_1" xmlns="http://www.w3.org/2000/svg" xmlns:xlink="http://www.w3.org/1999/xlink" x="0px" y="0px"
	 width="50px" height="50px" viewBox="0 0 50 50" enable-background="new 0 0 50 50" xml:space="preserve">
<g id="parks">
	<path d="M33.38,18.2c-0.18,0.05,0.07,0.14,0,0.3c-0.399-0.15-1.239-0.5-1.63-0.07c0.529,1.05,0.9,2.22,1.5,3.3
		c0.07,0.94,0.8,1.48,1.17,2.16c0.2,0.4,0.301,0.76,0.471,1.1c0.379,0.74,1.26,1.4,1.5,2.38c-0.48,0.739-1.531,0.17-2.5,0.239
		c-0.261,0.281-0.631,0.4-1,0.351c0.02,0.06,0,0.101-0.051,0.101c1.17,2.72,2.6,5.18,3.84,7.799c-0.06,0.061-0.07,0.141-0.07,0.24
		c0.58,0.101,0.221,1.271,0.871,1.521c0,0.2-0.141,0.28-0.101,0.521c-2.33,0.119-5.47-0.17-7.75,0.119c0-0.1,0-0.199,0-0.3
		c-0.12,0-0.021,0.25-0.05,0.36c-0.141,0-0.28,0-0.4,0c-0.07,0.029-0.07,0.13-0.199,0.1c-0.061,1.92-0.061,4.439-0.041,6.18
		c0.021,0.2-0.239,0.15-0.18,0.4c-0.4,0.1-0.84,0.13-1.16,0.18c-0.08-0.039-0.1-0.13-0.119-0.229c-0.851,0.3-1.57-0.15-2.271,0
		c-0.54-0.12-0.9,0.12-1.45,0.17c-0.07-0.101-0.15-0.2-0.23-0.3c-0.07,0.02-0.05,0.119-0.06,0.199
		c-0.26,0.021-0.07-0.379-0.36-0.299c-0.16,0.039,0.13,0.27-0.12,0.299c-0.23,0.08-0.02-0.27-0.17-0.25c-0.23,0.08,0,0.24-0.12,0.4
		c-0.2-0.05-0.38-0.1-0.58-0.16c-0.08-0.279,0.04-0.619-0.17-0.869c0.03-2.281,0-3.971,0.1-6.341c-0.16-0.159-0.42-0.25-0.57-0.069
		c-3.02,0.02-5,0.319-8.25,0.06c-0.2-0.03-0.17,0.17-0.3,0.229c-0.15-0.06-0.3-0.129-0.46-0.18c0.12-0.279,0.12-0.47,0-0.75
		c0.2-0.04,0.34-0.359,0.52-0.24c-0.04-0.3-0.22-0.439-0.4-0.58c0.42-0.52,1.05-0.84,1.1-1.739c0.14,0,0,0.2,0,0.229
		c0.35-0.4,0.44-1.1,1.1-1.4c-0.02-0.5,0.48-0.5,0.4-1.039c0.2,0.35,0.2-0.25,0.36-0.471c0.18-0.26,0.62-0.359,0.46-0.64
		c0.24-0.021,0.04,0.2,0.06,0.3c0.18-0.369,0.2-0.64,0.35-0.939c0.08,0.02,0.02,0.18,0.12,0.18c0.1-0.34,0.26-0.63,0.34-1
		c0.07,0,0.13,0,0.2,0c0.2-0.92,0.8-1.48,1.04-2.38c0.05-0.04,0.13-0.06,0.23-0.06c-0.02-0.23-0.38-0.121-0.47-0.301
		c-0.4,0.35-0.82,0.33-1.4,0.301c0-0.051,0-0.101,0-0.17c-0.38,0.34-0.84,0.26-1.5,0.299c-0.1-0.1-0.18-0.199-0.24-0.299
		c-0.3,0.25-0.9,0.27-0.87-0.351c0.08-0.12,0.33-0.101,0.4-0.229c0.04-0.261-0.12,0.039-0.12-0.121c0.62-1,1.35-1.899,2.27-2.62
		c0.28-0.57,0.8-0.9,1-1.57c0.9-0.74,1.44-2.3,2.32-3.02c0-0.08,0-0.16-0.06-0.17c0.37-0.13,0.5-0.78,0.76-1.17
		c-0.68-0.24-1.53,0.28-2.15,0.12c-0.22,0.14-0.64,0.33-0.8,0.06c-0.3,0.15-0.75,0.14-0.82-0.23c0.08-0.06,0.22-0.06,0.3-0.12
		c0.04-0.2-0.1-0.18-0.12-0.3c0.2-0.6,0.5-1.12,1-1.45c0-0.34,0.3-0.4,0.4-0.7c0.22,0.02,0.16-0.25,0.4-0.23
		c0.5-1.1,1.25-1.93,2.04-2.73c0.2-0.46,0.35-0.88,0.7-1c-0.1-0.23,0.25-0.45,0.46-0.57c0.25-1,1.23-1.25,1.4-2.32
		c0.4-0.2,0.4-0.23,0.87-0.47c0.1-0.67,0.7-1.04,1.04-1.5c0.14-0.2,0.27-0.66,0.4-0.83c0.049-0.04,0.149,0.04,0.129,0.06
		c0.381-0.4,0.9-0.83,1.5-0.88c0,0.08,0,0.16,0,0.23c-0.049,0-0.029-0.1-0.1-0.1c0.18,0.58,0.4,1.12,0.87,1.27
		c-0.13,0.34,0.22,0.58,0.3,0.75c0.08,0.2-0.1,0.28,0.051,0.4c0.299,0.28,0.369,0.84,0.58,1.35c0.33,0.8,0.979,1.53,1.33,2.5
		c0.399,0.4,0.799,0.9,1.049,1.5c0.101,0.23,0.301,0.25,0.471,0.47c0.08,0.1,0.08,0.33,0.17,0.46c0.279,0.4,0.779,0.7,0.76,1.1
		c0.85,0.93,1.34,2.23,2.2,3.14c-0.101,0.18-0.479,0.3-0.8,0.18c-0.1,0.18-0.26,0.3-0.36,0.47c-0.05-0.2-0.319-0.15-0.34-0.36
		L33.38,18.2z M15.98,34.83c-0.62,0.2-0.58,1.08-1.04,1.45c1.73-0.101,3.35-0.021,4.6-0.101c1.1,0.2,2.42,0.26,3.48-0.07
		c0.02,0.101-0.08,0.16,0,0.181c0.17,0.06,0.17-0.3,0.47-0.3c0.44,1.56-0.04,4.26,0.28,6.06c-0.23,0.38-0.25,0.96-0.18,1.57
		c0.94,0.399,2-0.149,2.85,0.239c0-0.06,0-0.159,0.061-0.17c0.061,0.32,0.63,0.121,0.939,0.17c-0.299-1.799-0.399-5.1-0.35-6.799
		c0.131-0.021,0.061,0.17,0.17,0.17C27.23,36.85,27.4,36.57,27.2,36.43c0.329,0.12,0.18-0.22,0.3-0.3c0.18-0.06,0.13,0,0.35,0
		c0.101,0.13,0.101,0.38,0.23,0.47c0.061-0.319,0.12,0.141,0.3,0.061c0.05-0.1-0.18-0.2,0-0.23c0.38,0.221,0.53,0,0.8,0.23
		c0-0.1,0.051-0.15,0.12-0.17c0.171,0,0.08,0.27,0.3,0.23c1.521-0.221,3.141,0.049,5.461-0.301c-0.351-0.6-0.23-1.37-0.641-1.8
		c-0.061,0.101,0.17,0.2,0,0.229c-0.3-0.539-0.54-1.06-0.641-1.569c0,0.13-0.149,0.12-0.299,0.1c-0.181-0.3-0.101-0.5-0.28-0.739
		c0,0.069,0,0.159-0.06,0.17c-0.141-0.721-0.871-1.17-0.701-1.701c-0.299-0.18-0.799-0.819-0.93-1.159
		c-0.3-0.771-0.93-1.3-1.029-2.101c-0.32-0.18-0.541-0.949-0.701-1.33c0.07,0,0.051-0.1,0.101-0.1c0.101,0,0.07,0.1,0.13,0.1
		c0.1-0.479,0.66-0.22,0.87-0.22c0.32,0,0.8-0.2,1.28-0.18c0.52,0.021,0.97,0.25,1.16,0c0-0.101,0.029-0.181,0.07-0.229
		c-1.24-1.761-2.08-4.031-3.141-5.801c-0.1-0.48-0.4-0.9-0.641-1.06c0.121-0.1,0.101-0.26,0-0.4c0,0.1,0,0.2-0.119,0.18
		c0.02-0.35-0.2-0.14-0.12-0.64c0.2-0.03,0.33-0.13,0.399-0.3c-0.22-0.06-0.379-0.2-0.629-0.23c0.649-0.67,1.899-0.12,3.02-0.4
		c-0.17-0.23-0.301-0.5-0.4-0.8c-0.119-0.05-0.22-0.1-0.359-0.12c-0.7-1.5-1.301-3.1-2.28-4.3c-0.04-0.07-0.07-0.16-0.05-0.3
		c-0.44-0.16-0.4-0.82-0.881-0.93c0.061-0.33-0.35-0.65-0.469-1c-0.021,0.1,0.1,0.16,0,0.2c-0.4-0.85-0.971-1.52-1.461-2.28
		c-0.279,0.26-0.73,0.6-0.699,1c-0.551,0.24-0.94,0.88-1.331,1.27c-0.32,0.3-0.52,0.9-0.87,0.93c0.04,0.18-0.06,0.2-0.06,0.35
		c-1.45,1.66-2.77,3.46-4,5.35c0.83,0,1.54,0,2.73,0.06c0.15,0.2,0.36,0.32,0.64,0.23c0.2,0.42-0.13,1.02-0.35,1.4
		c-0.22,0.37-0.53,0.87-0.76,1.16c-0.4,0.52-1,0.75-1.22,1.4c-0.1,0.26-0.6,0.48-0.52,0.87c-0.43,0.2-0.35,0.67-0.64,0.92
		c-0.02-0.05,0-0.12-0.06-0.12c-0.06,0.18-0.25,0.18-0.12,0.4c-0.48,0.34-0.63,1.16-0.87,1.4c-0.13,0.5-0.45,0.48-0.52,0.93
		c-0.1-0.03-0.3-0.03-0.4,0c-0.1,0.1,0,0.15,0,0.301c-0.08-0.081-0.17-0.041-0.23,0.049c0.73,0.23,2.1,0.101,2.85,0.121
		c0.3,0.149,0.54,0.35,1,0.35c-0.23,0.32,0.33,0.3,0.34,0.58c-0.3,0.16-0.48,0.4-0.82,0.52c-0.8,1.94-1.68,3.83-3.14,5.12
		c-0.04,0.4-0.4,0.95-0.64,0.8c0.03,0.48-0.28,0.82-0.4,0.95c0.16,0.3-0.38,0.4-0.18,0.8L15.98,34.83z M14.94,26.109
		c0.08,0,0.15,0,0.23,0c0.03-0.18-0.07-0.229-0.17-0.299C15.02,25.96,14.9,25.95,14.94,26.109z"/>
	<path fill="none" d="M25.93,24.5h1v1h-1V24.5z"/>
</g>
</svg>
