<?xml version="1.0" encoding="utf-8"?>
<!-- Generator: Adobe Illustrator 15.0.2, SVG Export Plug-In . SVG Version: 6.00 Build 0)  -->
<!DOCTYPE svg PUBLIC "-//W3C//DTD SVG 1.1//EN" "http://www.w3.org/Graphics/SVG/1.1/DTD/svg11.dtd">
<svg version="1.1" id="Layer_1" xmlns="http://www.w3.org/2000/svg" xmlns:xlink="http://www.w3.org/1999/xlink" x="0px" y="0px"
	 width="50px" height="50px" viewBox="0 0 50 50" enable-background="new 0 0 50 50" xml:space="preserve">
<g id="entertainment">
	<path d="M11,14.13c0.17-0.03-0.04,0.3,0.13,0.28c0.23-0.3-0.15-0.37,0-0.8c0.07,0,0.15,0,0.23,0c-0.1-0.85,0.47-1.22,0.4-2.03
		c0.05,0,0.06,0.05,0.12,0.05c-0.1-0.3,0.14-0.53,0.3-0.8c0.18-0.04,0.16,0.14,0.22,0.22c0.16-0.06,0.3-0.12,0.53-0.1
		c-0.07-0.2-0.28-0.24-0.3-0.48c0.6,0.03,1.2,0.35,1.75,0.35c0.05,0,0.2-0.1,0.23-0.1c0.28,0.021,0.6,0.271,0.94,0.34
		c0.65,0.15,1.44,0.08,1.75,0.53c0.05-0.02,0.03-0.12,0.1-0.12c0.62,0.24,1.1,0.63,1.93,0.64c1.2,0.4,2.67,0.84,3.83,1.1
		c0.6,0.52,1.77,0.44,2.5,0.8c1.18,0.14,2.359,0.43,3.439,0.88c4.2,1.17,8.721,2.3,13.03,3.43c0.3,0.33,0.87,0.38,1.22,0.65
		c-0.3,2.22-1.24,4.4-1.449,6.34c-0.03,0.08-0.08-0.03-0.18,0c0.029,0.27-0.08,0.4-0.101,0.629c-0.399,0.181-0.64,0.301-0.94,0
		c-0.029,0.101-0.07,0.15-0.18,0.181c-1.07-0.8-2.4-0.181-3.08,1.05c-0.5,0.88-1.199,2.1-0.47,3.1c0.54,0.7,1.38,1.03,2.149,1.5
		c0.061-0.119,0.051-0.439,0.24-0.58c0.439-0.039,0.27,0.641,0.23,0.931c0,0.2,0.16,0.26,0.229,0.399
		c-0.37,2.021-1.021,3.65-1.399,5.761c-0.2,0.1-0.271,0.35-0.351,0.6c-0.149,0-0.3,0-0.46,0c-0.08,0.07-0.07,0.13,0.051,0.16
		C37.54,39.16,37.49,39,37.34,39.1c0,0.17,0.04,0.381-0.05,0.461c-1.78-0.83-3.78-1.33-5.7-1.74c0-0.08,0-0.16,0-0.23
		c-0.1,0-0.16,0.04-0.18,0.1c-0.471-0.399-1.36-0.369-1.75-0.739c-0.57,0.27-1.221-0.46-1.74-0.3c-0.04-0.051-0.13-0.051-0.12-0.17
		c-0.2,0.039-0.53,0.1-0.569-0.17c-0.381,0.039-1.021,0.06-1.34-0.301c-0.521,0.2-1.101-0.33-1.4-0.4
		c-0.22-0.069-0.8,0.141-0.76-0.239c-0.05,0.04-0.08,0.1-0.1,0.17c-0.85-0.2-1.8-0.5-2.7-0.75c-0.68-0.2-1.6-0.22-2.02-0.601
		c-0.26,0.021-0.4,0.141-0.47-0.1c-0.06,0-0.04,0.1-0.12,0.1c-0.15,0.051-0.1-0.1-0.17-0.16c-0.06,0.041-0.06,0.131-0.17,0.121
		c-0.14-0.33-0.45,0.06-0.54-0.351c-0.47,0.05-1.15-0.12-1.45-0.42c-1.64,0.08-2.92-0.64-4.4-0.76c-0.5-0.271-1.46-0.101-1.82-0.521
		c-0.05,0.03-0.1,0.051-0.1,0.12c-0.45-0.569-1.7-0.34-2.45-0.6c0-0.3-0.03-0.431-0.24-0.63c-0.23-0.07-0.2,0.199-0.36,0.05
		c0.32-0.931,0.6-2.229,0.94-3.3c0.05,0,0.1,0,0.17,0c-0.07-0.5,0.1-0.6,0.06-0.94c0.13,0.04,0.13,0.101,0.07,0.181
		c0.25-0.041-0.1-0.631,0.23-0.461c-0.2-0.14-0.15-0.399,0.06-0.529c-0.28-0.42,0.33-0.95,0.17-1.3c-0.05,0.02-0.04,0.1-0.06,0.13
		c-0.13,0,0.17-0.65,0.12-0.23c0.15-0.2-0.13-0.53,0.05-0.76c0.1-0.02,0.1,0.05,0.12,0.12c0.15-0.15,0.06-0.2,0-0.35
		c0.23,0.03,0.13,0,0.1-0.17c0.1,0.2,0.3-0.02,0.42,0.18c-0.04-0.04-0.06-0.1-0.13-0.1c0.04-0.07,0.14-0.07,0.12-0.18
		c0.52,0,1.07,0.36,1.68,0.3c0.77-0.1,1.2-0.58,1.9-1c0.63-0.76,0.06-1.8-0.22-2.5c-0.3-0.12-0.3-0.52-0.64-0.58
		c-0.05-0.24-0.18-0.4-0.3-0.58c-0.23-0.02-0.17,0.28-0.45,0.23c-0.16-0.34-0.62-0.37-0.7-0.77c-0.1,0.15-0.08,0.06-0.3,0.06
		c-0.1-0.4,0.13-0.87,0.53-0.94c0-0.15-0.28-0.34-0.4-0.17c0.15-0.26,0.2-0.86,0.23-1.3c0.08-0.15,0.13,0.22,0.35,0.12
		c0.04-0.26-0.1-0.13-0.24-0.1c0.05-0.05,0.13-0.34,0-0.36c0.06-0.18,0.16,0.06,0.24,0.06c-0.03-0.16-0.03-0.32-0.12-0.4
		c0.16,0.05,0.1-0.33,0.12-0.6c0.18,0,0.13,0.22,0.23,0.3c0.2-0.2-0.26-0.23-0.17-0.52c0.07,0.02,0.12,0.07,0.12,0.17
		c0.35-0.15-0.16-0.45,0.06-0.64L11,14.13z M10.55,16.23c0.06,0.32-0.25,0.6-0.06,0.86c0.12-0.24,0.34-0.7,0.05-0.88L10.55,16.23z
		 M13.98,11.39c-0.23,0.05-0.18-0.18-0.4-0.13c-0.02,0.16,0.35,0.22,0.4,0.12V11.39z M14.85,11.67c-0.17,0.03-0.4-0.16-0.47-0.06
		C14.52,11.65,14.78,11.91,14.85,11.67z M17,12.2c-0.13-0.33-0.6-0.38-0.87-0.4C16.31,12.05,16.63,12.14,17,12.2z M10.6,24.83
		c-0.2,0.23-0.37,0.4-0.8,0.3c-0.52,1.34-0.84,2.88-1.17,4.399C8.93,29.96,9.28,30,9.85,30.18c0,0.35,0.15,0.2,0.3,0.4
		c0-0.061-0.02-0.16,0.05-0.17c0.48,0.369,1.1,0.08,1.4,0.6c0.4-0.199,0.78,0.36,1.33,0.16c0,0.33,0.6,0.061,0.64,0.35
		c1.12,0.2,2.1,0.75,3.38,0.9c1.72,0.18,2.98,0.68,4.53,0.98c0.46,0.08,0.84,0,1.22,0.17c0.15,0.06,0.24,0.24,0.4,0.3
		c0.9,0.28,1.95,0.479,2.86,0.63c1.08,0.18,2.3,0.18,3.021,1c0.199,0.061,0.299-0.08,0.35,0.16c0.279-0.131,0.4-0.051,0.641,0.119
		c0.199,0.07,0.049-0.199,0.239-0.119c0.28,0.25,0.7,0.26,1.101,0.35c0.35,0.07,0.699,0.04,1.06,0.1c0.37,0.08,0.7,0.301,1.05,0.36
		c1.301,0.25,2.6,0.48,3.9,0.75c-0.051-0.739,0.229-0.979,0.35-1.56c0.17-0.801,0.24-1.7,0.4-2.26c0.119-0.34,0.4-0.601,0.13-0.881
		c-0.14,0-0.171,0.101-0.351,0.061c0-0.221-0.35-0.26-0.229-0.4c-0.399,0.12-0.479-0.119-0.7-0.4c-0.12-0.029-0.12,0.07-0.18,0.101
		c-0.061-0.08-0.061-0.14,0-0.229c-0.62,0-0.66-0.601-1.04-0.871c-0.2-0.719-0.54-1.93-0.3-2.85c0.129-0.1,0.229-0.27,0.18-0.57
		c0.08-0.02,0.1-0.069,0.18,0c0.08-0.5-0.06-0.779,0.34-1c-0.06,0-0.06-0.08-0.05-0.17c0.22-0.149,0.229,0,0.4-0.049
		c-0.3-0.4,0.3-0.621,0.47-0.921c0.07,0.14,0.641-0.34,1.051-0.4c0,0,0,0.12,0.049,0.1c0.28-0.05,0.221-0.1,0.351-0.3
		c0.03,0.16,0.101,0.28,0.18,0.36c0-0.1-0.069-0.13-0.06-0.23c0.5-0.2,1.58-0.06,2.439-0.16c0.221-1.67,0.271-3.53,1-4.9
		c-1.82-0.38-3.63-0.73-5.35-1.33c-0.4,0.08-0.98-0.07-1.221-0.34c-1.299-0.36-2.5-0.6-3.899-1.04c-0.95-0.06-2.229-0.22-2.851-0.64
		c-0.219,0.2-0.43-0.25-0.879-0.12c-0.25-0.3-0.98-0.14-1.33-0.47c-0.78-0.04-1.53-0.14-2.2-0.35c-1.07-0.33-2.16-0.55-3.2-0.88
		c-0.34-0.1-0.62-0.34-0.94-0.46c-0.9-0.34-1.9-0.37-2.74-0.57c-0.5-0.12-1.48-0.34-2.1-0.7c-0.64,0.03-1.4-0.43-1.98-0.35
		c0.07,0.4-0.2,0.7-0.3,1.1c-0.14,0.7,0.08,1.57-0.4,2.16c0.03,0.42-0.2,0.97-0.34,0.7c-0.18,0.12,0,0.48-0.24,0.63
		c0.47,0.85,1.5,0.87,1.8,1.92c0.2,0.03,0.2-0.12,0.3,0c0.32,0.47,0.6,1.26,0.75,1.74c0.2,0.1,0.03-0.2,0.17-0.18
		c0.1,0.32-0.18,0.26-0.23,0.4c0.06,0.02,0.16,0,0.17,0.07c0,0.5-0.5,1.18-0.28,1.8c-0.25,0.18-0.45,0.4-0.8,0.47
		c0,0.18,0,0.35-0.13,0.4c-0.13-0.28-0.1,0.1-0.24,0.12c-0.08,0-0.22-0.2-0.23-0.06c-0.23,0.86-1.53,1.52-2.63,1.16L10.6,24.83z
		 M12.64,14.36c0.06-0.2-0.02-0.2,0.06-0.4c-0.08,0-0.16,0-0.23,0C12.43,14.18,12.55,14.26,12.64,14.36z M23.4,14.18
		c0.43,0.15,1.08,0.4,1.5,0.35C24.36,14.4,23.8,14,23.4,14.18z M42.3,20.46c-0.03-0.34,0.44-0.18,0.351-0.58
		c-0.16,0.05-0.15-0.08-0.301-0.06C42.33,19.99,42.15,20.32,42.3,20.46z M27.12,30.58c0.2,0.1,0,0.279,0.101,0.35
		c-0.75-0.02-1.531-0.5-1.73-1.279c-0.08,0-0.05,0.119-0.13,0.119c-0.6-0.399-1.13-0.899-1.74-1.52c-1.28,0.28-2.4,1.18-3.6,0.47
		c0-0.1,0.16-0.02,0.17-0.12c0-0.05-0.06-0.06-0.06-0.1c-0.06-0.17-0.13,0.16-0.24,0c0-0.17-0.02-0.35,0.06-0.42
		c0.07,0,0.04,0.12,0.12,0.12c0.1-0.2,0-0.2,0-0.47c0.3,0.1,0.27-0.391,0.23-0.4c0.07-0.17,0.17,0.08,0.24-0.061
		c-0.2-0.25,0.05-0.439,0-0.76c0.13,0.03,0.16-0.029,0.24-0.05c-0.03-0.271-0.05-0.45,0.05-0.7c0.12,0,0.05,0.2,0.18,0.18
		c-0.1-0.52-0.1-0.839,0.13-1.339c-0.48-0.53-0.85-1.14-1.46-1.52c-0.05-0.36-0.24-0.58-0.52-0.7c0.15-0.28,0.22-0.1,0.58-0.12
		c-0.1-0.15-0.4-0.1-0.35-0.4c0.8,0.12,1.6,0.1,2.62,0.17c0.58,0.04,1.04,0.22,1.4-0.23c-0.13-0.45,0.15-0.7,0.46-0.87
		c0.55-0.62,1.87-2.72,2.8-1.34c-0.07,0.06-0.07,0.2-0.07,0.34c0.051-0.04,0.051-0.14,0.17-0.12c0,0.85,0.221,1.58,0.351,2.8
		c1.2,0.6,2.101,1.3,3.25,1.85c0.08,0.22,0.25,0.34,0.239,0.64c-0.529,0.17-0.68,0.8-1.27,0.77c-0.13,0.36-0.34,0.63-0.76,0.7
		c0,0.14,0.1,0.18,0,0.3c-0.221,0.05-0.1-0.229-0.301-0.2c-0.069,0.05-0.1,0.141-0.1,0.25c0.061,0,0.1-0.02,0.1-0.061
		c0.101,0.301-0.5,0.451-0.699,0.701c-0.051,1.1-0.28,1.83-0.221,2.67c-0.039,0.16-0.119,0.27-0.229,0.35H27.12z M28.75,25
		c-0.8-0.48-1.641-0.9-2.4-1.4c-0.149,0.1-0.119,0.42-0.34,0.47c-0.7-0.78,0.07-2.06-0.46-3.15c-0.63,0.46-0.96,1.2-1.4,1.86
		c-0.06-0.04-0.15-0.07-0.28-0.05c-0.14,0.23,0.1,0.14,0.1,0.35c-0.57,0.43-1.6-0.2-2.5,0.05c0.26,0.44,0.6,0.77,1.12,0.94
		c0.2,1.47-0.85,2.55-1.1,3.78c0.76-0.18,1.53-0.449,2.26-0.819c0.9,0.649,1.53,1.579,2.561,2.1c0.16-0.899-0.07-2.22,0.119-2.5"/>
</g>
</svg>
