<?xml version="1.0" encoding="utf-8"?>
<!-- Generator: Adobe Illustrator 15.0.2, SVG Export Plug-In . SVG Version: 6.00 Build 0)  -->
<!DOCTYPE svg PUBLIC "-//W3C//DTD SVG 1.1//EN" "http://www.w3.org/Graphics/SVG/1.1/DTD/svg11.dtd">
<svg version="1.1" id="Layer_1" xmlns="http://www.w3.org/2000/svg" xmlns:xlink="http://www.w3.org/1999/xlink" x="0px" y="0px"
	 width="50px" height="50px" viewBox="0 0 50 50" enable-background="new 0 0 50 50" xml:space="preserve">
<g id="transportation">
	<path d="M29.8,10.3c-0.03,0.04-0.06,0.08-0.06,0.16c0.8-0.26,1.939,0.35,1.63,1.34c-1.13,0.27-2.5,0.16-3.55-0.06
		c-1.541,0.08-3.95,0.229-5.93,0.12c-0.7,0.54-1.85,0.1-2.57,0.4c-0.32-0.1-1.26,0.15-1.28-0.4c-0.06,0.04-0.06,0.14-0.17,0.12
		c-0.04-0.16-0.06-0.33-0.3-0.3c-0.52-1.2,1.37-1.44,2.16-1.04c0-0.13,0.55-0.25,0.46,0.06c0.13-0.17,0.4-0.2,0.7-0.18
		c0.05,0.05,0.06,0.13,0.06,0.23c0.08-0.05,0.18-0.08,0.17-0.23c0.44,0.2,0.9-0.08,1.28-0.1c0.42-0.05,0.96,0.14,1.4,0.04
		c0.2-0.03,0.34-0.2,0.47-0.23c0.27-0.04,0.8,0,0.93,0.12c0.2-0.15,0.38-0.07,0.64,0c0.141-0.03-0.07-0.1,0.061-0.18
		c1.55-0.1,2.699,0.35,3.899,0.12V10.3z M33.58,29.48c0.05,0,0.061,0.02,0.061,0.06c1.369-0.2,3.6,0.3,3.43,2.44
		c-0.07,0.83-0.67,1.83-1.4,2.1c-0.55,0.2-1.699,0.2-2.26,0.061c-1.08-0.301-2.1-2.101-1.45-3.201c0.14-0.02,0.229,0,0.3,0.051
		c0.2-0.301,0.25-1.021,0.631-0.94c0.1-0.069,0.1-0.22,0.18-0.3c0.199-0.05,0.5-0.02,0.52-0.28L33.58,29.48z M33.7,33.38
		c2.149,0.601,2.94-2.43,1.329-2.85c-0.76-0.2-1.399,0.47-1.899,0.75C32.891,31.96,33.08,33.05,33.7,33.38z M17.65,32.27
		c-0.28,0.74-0.28,1.53-1,2.041c-0.28-0.07-0.72,0.25-1.2,0.239c-1.3,0-2.96-1.149-2.57-2.85c0.12-0.57,0.63-1.479,1.22-1.64
		c0.2-0.051,0.58-0.08,0.8-0.061c0.14,0.02,0.1,0.141,0.25,0.18c0.1,0.021,0.2-0.1,0.3-0.06c0.27,0.12,0.42,0.47,0.7,0.64
		c0.12,0.1,0.32,0.051,0.45,0.12c0.5,0.271,0.8,0.8,1.05,1.4V32.27z M13.81,33.03c0.08,0.28,0.46,0.68,0.65,0.76
		c1.53,0.601,2.97-1.72,1.57-2.63c-1.3-0.301-2.56,0.449-2.2,1.859L13.81,33.03z M10.43,16.05c0-0.07,0.06-0.04,0.06,0
		c0.3-0.04-0.1-0.16,0-0.35c0.3-0.82,0.3-1.62,0.7-2.2c0.18-1.5,0.92-2.4,1.62-3.5c0.93-0.6,1.73-1.83,3.02-2.27
		c0.12-0.02,0.02-0.26,0.12-0.3c0.13-0.02,0.08,0.12,0.17,0.12c0.72-0.18,1.36-0.2,1.98-0.17c1.23,0.03,2.3-0.24,3.32-0.17
		c0-0.13,0-0.27,0-0.4c1,0.17,1.88-0.08,2.8-0.12c0.77-0.03,1.5,0.27,2.15,0.3c0.56,0,1.101-0.06,1.569-0.07
		c0.351,0,0.701,0.07,1,0.07c0.141,0,0.25-0.13,0.4-0.1c0.131,0,0.26,0.15,0.4,0.16c0.1,0,0.279-0.08,0.47-0.06
		c0.351,0.04,0.74,0.2,1,0.06c0.181-0.05,0.08,0.2,0.17,0.23c0.56-0.16,1.03-0.28,1.399,0.06c0.061,0,0.041-0.1,0.051-0.17
		c0.15,0.03,0.199,0.14,0.3,0.23c0.101-0.2,0.601-0.06,0.63,0.17c0.07,0,0.04-0.1,0.12-0.1c0.351,0.17,0.86,0.07,1.05,0.5
		c0.541-0.02,1.1,0.4,1.45,0.771c1.3,0.2,1.06,1.3,1.341,2.38c0.139,0.5,0.529,1.06,0.819,1.5c-0.05,0.4,0.17,0.86,0.351,1.3
		c0.049,0.22-0.141,0.2-0.17,0.34c0.619,0.84,1,2,0.639,3.14c0.051,0.16,0.131-0.17,0.23,0c0,0.16,0.03,0.35-0.119,0.35
		c0.1,0.16,0.369,0.38,0.18,0.64c0.07,0,0.1,0,0.1-0.05c0.2,0.07-0.23,0.22,0.07,0.3c-0.051,0.18-0.1-0.08-0.17-0.07
		c-0.15,0.13-0.08,0.3,0,0.46c0.16,0.02-0.07-0.37,0.17-0.28c-0.12,1.76,0.35,3.87,0.35,5.53c-0.08-0.021-0.05-0.15-0.061-0.23
		c-0.27,0.08,0.031,0.3,0.101,0.4c-0.05,0.2,0.04,0.54-0.16,0.58c-0.021,0.16,0.08,0.2,0.229,0.18c-0.359,0.88-0.1,1.87-0.469,2.67
		c0.17-0.1,0.199-0.34,0.18-0.64c0.359,0.3-0.17,0.77,0.23,0.88c-0.221,0.319,0.02,1.03-0.4,1.05c0.18,0.08,0,0.52,0.3,0.471
		c0,0.76,0.05,0.949,0,1.629c-0.08-0.029-0.101-0.1-0.181-0.119c-0.069,0.25,0.101,0.26,0.101,0.42c-0.069,0-0.149,0-0.16,0.05
		c0.32,0-0.101,0.26,0.229,0.47c-0.229,0.5-0.239,1.1-0.119,1.7c-0.1,0-0.1-0.07-0.18-0.07c-0.101,0.95,0.379,2.7-0.301,3.66
		c0.18,0.3-0.07,0.64-0.22,0.82c0.149,0.96-0.399,1.45-1.22,1.5c-0.461,0.04-0.7-0.101-1.1,0c0,0.83-0.461,1.86-0.121,2.739
		c-0.08,0.33-0.22,0.48-0.47,0.75c-0.8-0.22-1.7,0.471-2.38,0c-0.13,0-0.1,0.16-0.25,0.101c-0.23-0.22-0.561-0.351-0.641-0.74
		c-0.119,0-0.159,0.101-0.34,0.07c0.07-0.3-0.619-0.729-0.1-1.05c-0.37-0.48-0.061-1.62-0.24-2.271c-0.279,0.15-0.729,0.3-0.88-0.12
		c0.021,0.5-0.75,0-0.87,0.24c-0.1,0-0.029-0.2-0.119-0.24c-0.141,0.131-0.33,0.2-0.58,0.24c-0.041-0.061-0.061-0.13-0.061-0.24
		c-0.07,0.16-0.439,0.25-0.63,0.12c-0.5,0-1.33,0.2-1.97,0.06c-0.07,0-0.2-0.159-0.24-0.17c-0.061,0-0.15,0.16-0.23,0.181
		c-0.379,0.1-0.959-0.17-1.34-0.17c-2.5,0.05-5.8,0.2-8.1,0.18c-0.37,1.07,0.32,2.05-0.05,3.32c-0.5-0.13-0.5,0.12-0.93,0.18
		c0.03-0.05,0.06-0.1,0.06-0.18c-0.17,0.37-0.8,0.3-1.1,0.53c0-0.061,0.07-0.051,0.1-0.061c-0.66-0.13-1.18-0.2-1.62-0.48
		c-1-0.67-0.5-2.049-0.87-3.299c-0.6,0.1-1.18-0.021-1.8,0c0.3,0.329-0.6,0.02-0.54,0.399c-0.7-0.13-0.1-1.54-0.64-1.8
		c0-0.95-0.34-2.17-0.3-2.86c0.3,0,0.2-0.86,0.13-0.93c0.12-1.58,0.2-3.03,0.17-4.94c0.12-0.1,0.08,0,0.24,0
		c-0.16-0.47-0.02-1.24-0.3-1.58c0.03-0.13,0.13-0.199,0.18-0.3c-0.06-0.14-0.04-0.38-0.17-0.46c0.3-0.54-0.26-1.45,0.23-2.03
		c-0.17-0.1,0.02-0.23-0.18-0.24c0.14-0.9-0.22-1.6-0.05-2.62c0.56-0.53,0-1.84,0.23-2.85c0.05-0.2,0.1-0.76,0.23-1.1
		c-0.26-0.53,0.13-1.44,0-1.98V16.05z M38.7,30.47c0-0.1-0.16-0.03-0.181-0.12c0.4-1.5-0.08-4.199,0.121-6.04
		c-0.301-0.36-0.121-0.82-0.121-1.27c0-1.92-0.5-4.03-0.52-6c-0.34-0.33-0.12-0.98-0.4-1.27c0.07,0,0.121,0.02,0.17,0.06
		c0.121-0.76-0.299-1.62-0.119-2.33c-0.25,0.03-0.32-0.1-0.4-0.24c-0.1-0.34-0.3-0.6-0.3-1.05c-0.8-1.45-1.14-2.84-2.8-3.2
		c-1.03-0.2-2.381-0.23-3.48-0.22c-1.33,0-2.699-0.1-3.72,0c0-0.07,0.1-0.13,0-0.17c-0.021,0.08-0.07,0.12-0.171,0.12
		c0-0.07,0.101-0.13,0-0.17c-0.059,0.2-0.139,0.06-0.18-0.06c-2.169-0.08-4.359-0.07-6,0.1c-2.46,0.26-5.17,0.6-6.44,1.98
		c0.17,0.02,0.2-0.23,0.3,0c-0.57,0.73-1.2,1.1-1.47,2.15c-0.16,0.6-0.44,1.2-0.4,1.92c-0.82,2.08-0.4,5.34-0.65,7.86
		c-0.05,0.5-0.3,0.94-0.12,1.4c-0.25,0.3,0.12,0.78-0.23,1.1c0.18,1.32-0.25,2.48-0.18,3.6c0,0.149,0.12,0.28,0.12,0.42
		c0,0.26-0.16,0.55-0.18,0.87c-0.04,1,0.06,1.97,0.06,2.55c0,0.399-0.1,0.78-0.1,1.16c-0.03,1.37,0.1,3.021,0.04,4.08
		c0.12,0.08,0.13,0.26,0.18,0.399c0.26,0.041,0.53,0.061,0.7,0.2c0.38-0.06,0.65-0.46,1.04-0.069c0.07-0.051,0.02-0.2,0.18-0.17
		c1.2,0,1.98,0.159,3.02,0.119c0.35,0,1.2-0.27,1.5,0c0.02-0.07,0-0.17,0.07-0.18c1,0.03,2.46-0.15,3.67-0.1
		c-0.02,0.069-0.1,0.1-0.12,0.16c0.18,0,0.3-0.181,0.52-0.17c0.1,0,0.3,0.129,0.35,0.1c0,0.02,0.03-0.15,0.06-0.16
		c0.4-0.16,1.07-0.15,1.5-0.061c0.03-0.039,0-0.1,0.07-0.1c0.5,0.28,1.37-0.1,1.86,0c0,0.061,0,0.141,0,0.221
		c0.229,0.1,0.021-0.25,0.18-0.23c0.46,0.1,1.271,0,1.62,0.3c0-0.08,0-0.18,0.061-0.2c0.1,0.25,0.399,0,0.58,0.2
		c0.629-0.319,1.5,0.101,2.1-0.069c0.029,0.119,0.27,0,0.1,0.17c0.801-0.16,1.17-0.131,2.051-0.061c0,0.07,0,0.17,0.06,0.18
		c0.1-0.149-0.06-0.199,0.069-0.3c1.94,0,3.34,0.2,5.351,0.181c0.5-1.101,0.55-2.5,0.46-3.951c-0.02-0.14,0.17-0.069,0.18-0.18
		c-0.38-0.399-0.199-1.5,0.1-1.859c-0.449-0.5-0.239-0.73-0.159-1.57V30.47z M15.03,9.17c0.22-0.02,0.42-0.2,0.7-0.28
		c0.45-0.12,1.27-0.02,1.16-0.4c-0.6,0.25-1.6,0.1-1.87,0.68H15.03z M11.48,19.01c0-0.14,0.03-0.33-0.12-0.34
		c0.04,0.13-0.1,0.4,0.12,0.35V19.01z M11.25,20.48c-0.18-0.48,0.55-1,0-1.4C11.18,19.42,10.99,20.18,11.25,20.48z M39.98,30.42
		c-0.061-0.2,0.149-0.35-0.061-0.4C39.92,30.22,39.67,30.42,39.98,30.42z M39.92,31.02c-0.04-0.229,0.07-0.279,0.061-0.47
		c-0.07,0-0.08-0.08-0.17-0.06c0.14,0.16-0.131,0.439,0.119,0.52L39.92,31.02z M13.98,15c0.12-0.04,0.23-0.18,0.35-0.06
		c0.13-0.02,0-0.3,0.12-0.35c1.96-0.74,4.33,0.02,6.34-0.6c0.06,0.04,0.1,0.08,0.1,0.18c0.33-0.18,0.75-0.27,1.1-0.23
		c0.3,0.04,0.14,0,0.47,0c0.08,0,0.2,0.12,0.24,0.12c0.16,0,0.3-0.16,0.47-0.18c0.36-0.04,0.7,0.1,1.05,0c0.23-0.07,0.45,0,0.8-0.12
		c0.22-0.1,0.05,0.2,0.2,0.17c0.33-0.06,0.559-0.26,0.799,0c0.83-0.1,1.5-0.28,2.101-0.06c0.08-0.03-0.03-0.08,0-0.18
		c1.659,0.43,4-0.56,5.58,0.23c0.17,0.05,0.17-0.1,0.35-0.06c0.06,0.18,0.351,0.14,0.46,0.28c0.1-0.05,0.051-0.26,0.2-0.3
		c0.569,0.3,0.819,0.88,1.271,1.3c-0.051,0.05-0.101,0.08-0.181,0.1c0.13,0.1,0.351,0.1,0.46,0.24c0.2,1.07,0.2,2,0.35,3.2
		c0.061,0.45,0.181,0.82,0.301,1.22c-0.12,0.04,0.029,0.35-0.18,0.3c0.199,1.3,0,2.47,0.06,3.37c0,0.28-0.08-0.06-0.229,0
		c0,0.13,0.049,0.2,0.17,0.18c-0.15,0.58-0.931,0.54-1.28,0.93c-4.28,0.24-7.33,0.42-11,0.48c-0.47-0.1-1.23,0-1.62,0.1
		c-0.12,0.04-0.1-0.07-0.1-0.16c-0.26,0-0.25,0.27-0.48,0.3c-0.1-0.05,0-0.12,0-0.2c-0.7,0.42-1.72,0.2-2.85,0.42
		c0-0.08,0-0.15,0-0.23c-0.07,0.02-0.06,0.1-0.06,0.18c-1.57-0.15-3.66,0.08-4.95-0.64c0.02-0.12-0.05-0.15-0.07-0.23
		c-1.46-0.7-0.63-3.15-0.93-4.8c0.05-0.02,0.06,0,0.06,0.04c0.22-1.5-0.15-3.26,0.52-4.94H13.98z M35.15,18.5c0-0.27,0-0.57,0-0.82
		c-0.03-0.8-0.271-0.98-0.461-1.46c-0.16-0.35-0.149-0.72-0.359-0.93c-1-0.42-2.35,0-3.32-0.12c-1.869-0.22-4.119,0.02-5.93,0.17
		c-1.65-0.22-3.12,0.2-4.6-0.06c-0.83,0.22-1.95,0.13-2.62,0.52c-0.23-0.16-0.48-0.04-0.58-0.24c-0.4,0.4-1.38,0.22-1.98,0.4
		c0,0.1,0,0.2-0.12,0.2c-0.1,2.56-0.03,4.38-0.35,6.1c0.37,0.021,0.2,0.6,0.3,1.04c0.35,0.2,0.74,0.43,1.22,0.52
		c0.75,0.14,1.64-0.3,2.15,0.06c0.12-0.34,0.77-0.2,1.34-0.35c0.1,0.06,0.1,0.2,0.23,0.229c0.08-0.24,0.44-0.18,0.45,0.06
		c0-0.15,0.1-0.22,0.23-0.23c1.67,0.4,4.08-0.3,5.939,0.07c1.221,0.24,2.641-0.18,3.66-0.06c0.061-0.07,0.16-0.1,0.23-0.17
		c0.92,0.22,2.3,0.17,3.5,0.18c0.12-0.1,0.27-0.2,0.529-0.17c0.221-0.2,0.351-0.54,0.641-0.7c0.07-0.96-0.07-2.53,0-3.2
		c-0.1-0.12-0.15,0.08-0.18-0.05c0.1-0.4,0.05-0.57,0.05-1L35.15,18.5z M14.33,24.2c0.2,0,0.33-0.26,0.12-0.3
		C14.49,24.08,14.29,24,14.33,24.2z M14.73,24.2c-0.04,0.17,0.17,0.1,0.12,0.28c0.27-0.06,0.4,0.08,0.47-0.17
		c-0.3,0.1-0.33-0.32-0.58-0.1L14.73,24.2z M26.189,24.48c-0.129-0.3-0.529-0.2-0.64-0.06C25.85,24.52,25.95,24.3,26.189,24.48z
		 M26.24,24.3c0.14,0.36,0.35-0.02,0.64,0.12c-0.08-0.2-0.5-0.14-0.649-0.12H26.24z M20.02,25.3c0.2,0,0.47-0.05,0.58,0.05
		c-0.04-0.23-0.56-0.44-0.57-0.05H20.02z"/>
</g>
</svg>
