<?xml version="1.0" encoding="utf-8"?>
<!-- Generator: Adobe Illustrator 15.0.2, SVG Export Plug-In . SVG Version: 6.00 Build 0)  -->
<!DOCTYPE svg PUBLIC "-//W3C//DTD SVG 1.1//EN" "http://www.w3.org/Graphics/SVG/1.1/DTD/svg11.dtd">
<svg version="1.1" id="Layer_1" xmlns="http://www.w3.org/2000/svg" xmlns:xlink="http://www.w3.org/1999/xlink" x="0px" y="0px"
	 width="50px" height="50px" viewBox="0 0 50 50" enable-background="new 0 0 50 50" xml:space="preserve">
<g id="restaurants-pubs">
	<path d="M16.75,8.88c0.17,0,0.1,0.24,0.12,0.4C16.64,9.22,16.87,9.05,16.75,8.88z M20.12,37.439c0.06,0,0.12,0,0.18,0
		c0,0.07,0,0.15,0,0.23c-0.06-0.04-0.1-0.07-0.12,0C20.1,37.65,20.13,37.52,20.12,37.439z M18.38,6.44c0.07-0.17,0.07,0.1,0,0.1
		c0.2,0.06,0.08-0.18,0.23-0.16c1,0.14,2.73-0.3,2.74,1.34c0.08-0.02,0.05-0.15,0.06-0.24c0.13,0.3,0.12,0.8,0.18,1.1
		c0.07,0.44,0,1.13,0,1.8c0,0.33,0.17,0.74,0.17,1.12c0,0.43-0.14,0.8-0.06,1.16c0.22,1,0.25,3.17,0.34,4.3
		c0,0.06,0.12,0.04,0.12,0.06c0.2,2.06,0.37,4.12,0.46,5.94c-0.45,0.63-0.9,1.4-1.62,1.45c0.16,2.68,0.14,4.88,0.23,7.279
		c0.23,1.301,0.65,3.121,0.52,4.65c0.2,0.98,0.08,1.801,0.23,2.561c0.03,0.14,0.03,0.449-0.1,0.279c-0.08,0.75,0.26,1.601,0.1,2.271
		c-0.02,0.1-0.16,0.149-0.17,0.229c0,0.221,0.14,0.67,0.18,0.93c0.04,0.201,0.04,0.421,0,0.48c-0.02,0.03-0.07-0.1-0.05-0.119
		c-0.74,0.299-1.67,1-2.8,0.469c-0.32,0.32-0.62,0.021-0.98-0.18c0.1-0.14-0.06-0.199,0.1-0.3c-0.3-0.021-0.68,0.021-0.74-0.34
		c-0.1,0.479-0.3-0.3-0.46-0.34c0.14-0.101,0.18-0.3,0.12-0.46c-0.06-0.17-0.22-0.021-0.24-0.12c-0.04-0.2,0.12-0.101,0.18-0.06
		c-0.16-0.32-0.07-0.5-0.06-0.871c-0.1-0.14-0.33-0.17-0.3-0.459c0.23-0.021,0.03,0.029,0.07,0.16c0.1,0,0.16,0,0.24,0
		c-0.15-0.201,0.04-0.4-0.3-0.461c-0.05-0.1,0.18-0.199,0-0.24c0.03-0.129,0.33,0,0.3-0.17c-0.08-0.029-0.23-0.069-0.17-0.359
		c0.17,0.05,0,0.199,0.1,0.23c0.2-0.371-0.2-1.23,0.13-1.57c-0.02-0.12-0.16,0.1-0.23-0.061c-0.04-0.3,0.02-0.48,0.17-0.58
		c0-0.1-0.1-0.15,0-0.17c0-0.22-0.2,0.1-0.17-0.07c-0.1-0.25,0.22-0.199,0.3-0.119c-0.1-0.641-0.07-1.051,0.1-1.381
		c-0.23-1.279-0.17-1.399-0.23-2.799c0.05,0.02,0.06,0.06,0.12,0.06c-0.1-1.101-0.04-2.65,0.06-3.72c-0.17-0.4-0.12-1.701,0.1-1.86
		c-0.24-0.24,0.05-0.36-0.22-0.521c0.13-1.54,0.03-2.53,0.17-3.959c0-0.07-0.1-0.05-0.17-0.06c-0.05-0.56,0.32-1.44-0.06-1.62
		c-0.02-0.24,0.12-0.03,0.23-0.06c0.05-0.18-0.16-0.1-0.1-0.3c-0.06,0.03-0.12,0.06-0.13,0.12c0.25-0.95-0.18-2.3,0.12-3.5
		c-0.25-0.2-0.17-0.8,0.06-1.15c0-0.14-0.16,0.02-0.12,0.12c-0.17-0.1-0.05-0.13-0.12-0.35c0.13-0.03,0.1,0.1,0.18,0.1
		c0-0.14-0.02-0.24-0.18-0.22c0.18-0.4-0.15-0.77,0-1.4c0.05-0.2-0.2-0.37-0.23-0.58c-0.07-0.56,0.16-1.13,0.23-1.92
		c0-0.2-0.27-0.15-0.17-0.46c0.3,0.2,0-0.12,0.24-0.12c0.1-0.18-0.36-0.2-0.06-0.23c0-0.08-0.1-0.06-0.17-0.07
		c-0.06-0.15,0.2-0.25-0.05-0.23c0.26-0.32,0.23-0.7,0.06-1.05c0.2,0.22,0.05,0,0.07-0.23c0.06,0,0.1,0,0.17,0
		c0.06-0.52,0.07-0.729,0.35-1.05c-0.08-0.08-0.08-0.23-0.18-0.3c0-0.07,0.23,0.04,0.05-0.1c0.04-0.17,0.1,0.08,0.18,0.05
		c0.07-0.63,0.63-1.1,0.93-1.68L18.38,6.44z M18.84,8.12c0,0.2,0.17-0.14,0.18,0.06c-0.08,0.08-0.22,0.08-0.3,0
		c-0.03,0.3-0.53,0.65-0.17,1c-0.4,0.9-0.23,2.83-0.35,3.77c0.02-0.04,0-0.1,0.06-0.1c0.03,0.83,0.08,1.67,0.18,2.95
		c-0.34,0.2-0.1,0.96-0.4,1.17c0.27,0.17,0.1,0.47-0.07,0.35c0.56,0.56-0.17,1.55,0.4,2.03c-0.08,0-0.2-0.02-0.23,0.06
		c0.08,0.2,0.1,0.45,0.24,0.6c-0.3,0.53,0.04,1.521-0.12,2.1c0.33,2.7,0.06,5.65,0.12,8c0,0.521-0.12,1.4-0.12,1.4
		c0.04,0.6,0.48,0.83,0.23,1.34c0-0.1,0-0.199-0.12-0.17c0,1.23,0.1,2.57,0.1,3.601c0,0.25-0.03,0.55-0.16,0.76
		c0.2-0.03,0.1,0.2,0,0.06c-0.1,0.2,0.2,0.021,0.17,0.16c-0.12,0.7,0,1.301,0,1.92c0,0.4,0,1.4-0.07,1.7
		c-0.03,0.101,0.02,0.021,0.06,0.22c0.05,0.26-0.1,0.53,0,0.76c0.73,0.271,2.17,0.32,2.14-0.58c0-0.119-0.14-0.239-0.17-0.35
		c-0.16-0.6,0.1-0.97,0-1.4c0.07,0.181,0,0.131,0,0.351c0.36-0.16-0.03-0.5-0.12-0.7c-0.03-0.47-0.04-0.96-0.23-1.449
		c0.12,0,0.08,0.16,0.23,0.119c0.1-0.199-0.05-0.72-0.23-0.529c0.04-0.98-0.1-1.2-0.06-2.5c-0.32-0.08-0.03-0.5,0.06-0.101
		c0.06-0.26-0.2-0.5,0.12-0.36c-0.15-0.199-0.3-0.369-0.35-0.64c0.22,0.12-0.14-0.18,0.16-0.239c-0.28-0.08,0.07-0.44-0.05-0.58
		c0,0.06-0.1,0.14-0.1,0.06c0.1-0.2,0-0.63,0.22-0.351c0.04-0.26-0.22-0.229-0.35-0.34c0.2-0.619-0.16-1.399,0.12-1.8
		c-0.22-0.399,0.1-0.85,0-1.159c-0.02,0.06-0.07,0.1-0.13,0.1c0.23-0.381-0.1-0.75,0.06-1.1c-0.4-0.641,0.07-1.761-0.17-2.67
		c0,0.1,0.02,0.219-0.06,0.229c0-0.15,0.02-0.33-0.06-0.4c0.04-0.1,0.5-0.3,0.23-0.35c-0.14,0,0.04,0.27-0.17,0.18
		c-0.1-0.32-0.06-0.67,0-0.87c-0.1-0.15-0.17,0-0.23-0.22c0.36,0.1,0.32-0.47,0.64-0.23c0.1-0.55,0.94-0.44,1-0.7
		c0.1,0,0.1,0.15,0.23,0.17c0-0.6-0.4-1-0.18-1.4c-0.08,0-0.2,0.03-0.23-0.05c0.22-0.6-0.4-1.5-0.12-2.33
		c-0.18,0.05-0.08-0.2-0.17-0.23c0.07-0.02,0.13-0.05,0.17-0.1c-0.34-0.05-0.13-0.65-0.3-0.88c0.1-0.13,0.16,0.07,0.2-0.06
		c-0.1-0.1-0.1-0.3-0.25-0.35c0.3-0.53-0.2-1.1,0.06-1.62c-0.2-0.23-0.1-0.6-0.28-0.98c0.22,0.07,0.3-0.27,0.18-0.35
		c-0.03,0.07-0.07,0.13-0.12,0.17c-0.04-0.26,0-0.35-0.12-0.58c0.1,0,0.13,0.06,0.24,0.06c0-1.1-0.43-2.88,0-3.96
		c-0.3-0.07-0.08,0.4-0.24,0.47c0-0.18-0.1-0.28-0.05-0.52c0.27-0.021-0.08-0.8,0.3-0.93c-0.15-0.07-0.2,0.23-0.24,0.06
		c0.12-0.13-0.08-0.23,0.06-0.34c0.1,0,0.03,0.16,0.12,0.18c0.17-0.2-0.2-0.2-0.3-0.3c0.1-0.22,0.15-0.56,0.06-0.98
		c0.17-0.06,0.15-0.1,0.24-0.12c-0.1-0.07-0.26-0.05-0.23-0.23c0.2-0.23,0.16-0.67,0.12-0.86c-0.14-0.1-0.47-0.04-0.7-0.06
		c0,0.1,0.06,0.3-0.1,0.23c-0.08-0.14,0.17-0.24-0.07-0.22c0.1,0.32-0.17,0.74-0.4,1.04L18.84,8.12z M18.04,13.07
		c0-0.16,0.2-0.45,0-0.64C18.09,12.67,17.84,12.9,18.04,13.07z M16.87,13.65c0.08,0,0.12,0.03,0.17,0.06
		c0.04-0.17,0.15-0.5-0.12-0.57c0.02,0.2,0,0.38-0.05,0.52V13.65z M28.6,15.5c-0.1,0.16-0.26-0.22-0.279,0.13
		c-0.23-0.33-0.33-0.83-0.1-1.17c-0.261,0.06-0.23-0.6-0.201-0.8c0.101,0,0.101,0.1,0.201,0.1c-0.16-0.36-0.181-0.72-0.361-0.93
		c0.301-0.38-0.1-0.87-0.119-1.16c0.06,0,0.119,0,0.18,0c-0.04-0.2-0.07-0.36,0.051-0.52c-0.051-0.16-0.121,0.17-0.23,0
		c0.23-0.27-0.1-0.83,0.119-1.1c-0.02-0.2-0.159,0.2-0.18,0c0.021-0.18,0.23-0.17,0.24-0.36c-0.141-0.55-0.22-1.25-0.18-1.75
		c0.1,0.07,0.08,0.23,0.23,0.23c0.039-0.23-0.131-0.26-0.301-0.3c0-0.42,0.141-0.47,0.13-0.98c0.07-0.05,0.15-0.08,0.3-0.06
		c-0.06-0.38,0.17-0.48,0.5-0.46c-0.1,0.4,0.15,0.72,0.2,1.1c0.05,0.63-0.319,1.3,0,1.8c-0.03,0.14-0.069,0.3-0.2,0.18
		c0.28,0.97,0.26,2.08,0.07,2.73c0.1,0.08,0.051,0.3,0.23,0.3c0.05,0.16-0.101,0.16-0.051,0.34c-0.1,0-0.199,0-0.3,0
		c-0.03,0.36,0.601,0.86,0.12,1.1c0.24,0.15-0.23,1.1-0.061,1.57L28.6,15.5z M30.48,21.27c0-0.1,0.199,0.07,0.34,0
		c0-0.17-0.141-0.17-0.301-0.18c0.03-0.33,0.17-0.22-0.039-0.4c-0.03-0.14,0.08-0.12,0.17-0.13c-0.26-0.88,0.17-1.45-0.121-2.2
		c0.181-0.1,0.301-0.26,0.181-0.47c1.24-0.8,1.101-2.36,1.17-3.55c-0.12-0.64-0.17-2.15-0.101-2.62c0.031-0.15-0.129-0.1-0.199-0.17
		c0.07-0.06,0.029-0.22,0.199-0.18c-0.059-1.1,0.181-2.46,0-3.14c0.08-0.52-0.039-0.9,0.051-1.63c0.141-0.1,0.27,0.07,0.34-0.16
		c0.16,0.26,0.2,0,0.4,0.12c-0.041,0.3,0,1,0.3,1.4c-0.08,0.06-0.101,0-0.17,0c0.47,1.42,0.1,2.9,0.28,4.3
		c-0.051-0.04-0.101-0.07-0.121,0c0.041,0.13,0.101,0.24,0.301,0.23c-0.16,0.34-0.37,1.3,0,1.62c-0.23,0.74,0.1,1.23-0.07,1.8
		c-0.02,0.15,0.221,0.05,0.17,0.23c-0.18-0.07-0.199,0-0.35,0.06c0,0.2,0.14,0.35-0.18,0.3c0.129,0,0.199,0.35,0.24,0.23
		c-0.08,0.16-0.07,0.4-0.351,0.64c0.101,0.06,0.149,0.17,0.101,0.35c-0.9,0.33-0.701,1.33-0.631,2.2c-0.25,0.64,0.04,1.48-0.35,2.1
		c0.16,1.47,0,3.18,0.24,4.72c-0.121,0.04-0.051,0.17-0.201,0.06c0.041,1.62,0.4,3.87,0.531,5.7c-0.141,0-0.181-0.1-0.23,0.05
		c0.04,0.22,0.18-0.021,0.3,0.12c0.101,0.82,0.3,1.8,0.22,2.85c0.301,0.67-0.02,1.601,0.24,2.561c-0.279,0.46,0.28,1.449,0,1.92
		c0,0.061,0.1,0.04,0.1,0.1c0.101,1.07-0.35,1.95-0.92,2.58c-0.699-0.07-0.92,0.12-1.399,0.4c-0.14-0.1-0.3-0.141-0.399,0.061
		c-0.07,0-0.051-0.101-0.061-0.171c-0.33-0.069-0.301,0.3-0.35,0.23c-0.131,0.12-0.131-0.03-0.061-0.12
		c-0.73,0.2-0.939-0.2-1.4-0.17c-0.08-0.04-0.119-0.141-0.1-0.28c-0.1-0.021-0.12,0.04-0.13,0.101
		c-0.13-0.141-0.101-0.48-0.17-0.681c-0.06,0-0.05,0.07-0.06,0.101c-0.471-0.431-0.381-1.26-0.5-1.9c-0.24,0.4,0.06-0.32-0.301-0.3
		c0.15-0.96-0.199-2.24-0.119-3.2c0.279-0.02,0.139-0.48-0.061-0.7c0.27-0.229,0-0.659,0.119-1.04c-0.18,0-0.139-0.1-0.229-0.3
		c0.03-0.08,0.08,0.03,0.181,0c-0.201-0.78,0.02-1.05,0.119-1.97c-0.24,0.039-0.02,0.529-0.3,0.52c0.08-0.3,0.13-0.46-0.05-0.8
		c0.05-0.06,0.3-0.05,0.35-0.24c-0.119-0.12-0.199,0-0.24,0.12c-0.06-0.279,0.181-0.8-0.1-1.22c0.03-0.101,0.1,0,0.16,0
		c0.16-0.16-0.15-0.14-0.1-0.351c0.1-0.05,0.08-0.26,0.22-0.1c-0.05-0.26-0.2-0.4-0.229-0.65c0.299,0.2,0.049-0.47,0.18-0.6
		c0-0.12-0.16,0.03-0.1,0.13c-0.141-0.021-0.101-0.44,0.039-0.229c-0.119-0.381-0.029-0.601-0.1-1.101
		c0.12-0.02,0.05,0.16,0.16,0.171c0.06-0.101-0.18-0.361-0.1-0.641c0.139,0.1,0.1-0.26,0.159-0.061c0.101-0.029-0.1-0.25-0.17-0.299
		c0.28-0.15,0.399-0.5,0.64-0.701c-0.049-0.239-0.08-0.529-0.17-0.739c0.24,0.06,0.061-0.32,0.061-0.53c0-0.4,0.17-0.88,0.05-1.28
		c0.351,0.06-0.13-0.72,0.229-0.8c0.021-0.23-0.229-0.16-0.17-0.42c0,0,0.121,0.07,0.121,0.06c0.1-0.82-0.281-1.8,0-2.56
		c-0.301-0.16-0.271-0.3-0.301-0.7c-0.199,0.23-0.3-0.47-0.16-0.75c-0.34-0.4-0.869-1.04-1.22-1.05c-0.149-0.46-0.13-0.62-0.3-0.87
		c0.029-0.1,0.08,0.02,0.18,0c0-0.17-0.02-0.3-0.119-0.35c-0.08,0.02-0.041,0.14-0.051,0.23c-0.28-0.22,0.07-0.3,0.17-0.4
		c0-0.35-0.199-0.57-0.061-0.93c-0.139-0.02,0.031,0.27-0.17,0.18c-0.08-1,0.15-2.1-0.239-2.8c0.44-0.3-0.06-1.15,0.17-1.4
		c-0.56-0.6-0.2-1.58,0-2.43c-0.04-0.06-0.1-0.1-0.17-0.12c0.12-0.87-0.12-1.22,0.17-1.74c-0.08-0.1-0.15-0.2-0.3-0.24
		c0.03-0.12,0.17-0.1,0.18-0.23c0.1,0,0.06,0.14,0.07,0.22c0.15-0.12,0.029-0.24,0.119-0.35c0.201,0.03,0.271,0.1,0.451,0
		c0,0.18,0.069,0.28,0.119,0.4c0.1,0,0.15-0.03,0.17-0.1c0.101,0.1,0.16,0.27,0.24,0.4c-0.22,0.05-0.199,0.88,0,1.05
		c0.02,0.18-0.16,0.15-0.18,0.3c0.369,0.88,0.33,1.15,0.35,2.32c-0.119,0.02-0.1-0.1-0.119-0.18c-0.08,0.05-0.08,0.2-0.101,0.3
		c0,0.1,0.14-0.1,0.22,0.05c-0.1,0.1-0.05,0.3-0.06,0.47c-0.3-0.08-0.38,0.3-0.12,0.3c-0.051,0.05-0.1,0.08-0.18,0.1
		c0.06,0.23,0.149,0.2,0.3,0.24c-0.06,0.64,0.1,1.2-0.12,1.58c0,0.03,0.25,0.06,0,0.12c0.18,0.1,0.16,0.72,0,0.8
		c0.199,0.32,0.17,1.36,0.3,1.7c0.22,0.7,1.14,1.1,1.2,2.04c0.05,0.13,0.18,0.17,0.3,0.23c0,0.14-0.101,0.18,0,0.3
		c0.05-0.04,0.101-0.06,0.12-0.13c0.1,0.17-0.061,0.14,0.17,0.18c-0.22,0.14,0.23,0.56-0.061,0.75c0.031,0.08,0.16,0.05,0.24,0.06
		c0,0.46-0.039,0.74-0.229,1.1c0.021,0.1,0.2,0.04,0.239,0.12c0,0.13-0.039,0.2-0.17,0.18c0,0.15,0.08,0.22,0.23,0.23
		c-0.02,1.2,0.03,2.4-0.061,3.3c-0.08,0.831,0.021,1.62,0,2.5c0,0.6-0.129,1.77-0.229,2.17c-0.17,2.3-0.2,5.66-0.28,7.67
		c0.021,0.08,0.101,0,0.121-0.051c-0.101,1-0.16,2.67,0.229,3.9c0.149-0.07,0.26-0.23,0.229,0.1c0.2-0.14,0.021-0.379,0.35-0.459
		c0,0.129,0,0.26,0,0.399c0.58,0.44,1.021,1.07,1.861,0.8c0.02-0.1-0.061-0.1-0.051-0.22c0.5-0.319,0.68-1.101,0.52-1.5
		c0.021-0.101,0.15-0.06,0.24-0.069c-0.08-0.031-0.08-0.181-0.229-0.171c0.03-0.93,0-2-0.05-2.96c0.05-0.199,0.13,0,0.229-0.119
		c-0.1-0.451-0.38-1.121-0.18-1.74c-0.2-0.431-0.28-1.33-0.17-1.851c-0.05-0.17-0.101-0.069-0.229-0.06c0.26-1.32-0.471-3-0.23-5.07
		c-0.48-0.18-0.08-1.24-0.301-1.7c0.15,0.16,0.201-0.079,0.181-0.28c-0.14-0.02,0.03,0.271-0.181,0.17
		c-0.06-0.17-0.129-0.33-0.1-0.58c0.34-0.18,0.04-0.679,0.221-1c-0.061,0.02-0.051,0.1-0.061,0.13c-0.15-0.38-0.07-0.93,0-1.5
		c-0.1-0.06-0.1-0.2-0.23-0.2c0.061-0.23,0.021-0.17,0-0.45c0.15,0,0.141,0.22,0.061,0.3c0.4-0.2-0.15-0.72,0.1-1.06
		c-0.029-0.12-0.199-0.14-0.279-0.23c0.05-0.2,0.18,0.03,0.3-0.1c-0.021-0.1-0.15-0.06-0.24-0.07c0.03-0.07,0.2-0.3,0.08-0.3
		L30.48,21.27z M27.221,27.609c-0.041-0.129,0.069-0.42-0.061-0.459c0,0.18-0.141,0.359,0.061,0.47V27.609z M30.82,25.87
		c-0.1,0.021-0.12-0.06-0.23-0.05c0,0.08,0,0.16,0,0.24c0.141,0.02,0.24-0.021,0.221-0.181L30.82,25.87z M32.05,19.37
		c-0.03-0.26-0.03-0.53-0.12-0.7C31.971,18.87,31.73,19.27,32.05,19.37z M18.2,17.43c0.03-0.1,0.1,0.05,0.12-0.06
		c0.13,0.03,0.02,0.3,0.06,0.4C18.25,17.73,18.33,17.47,18.2,17.43z M16.8,36.1c0.02,0.181,0.15,0.4,0.18,0.7
		c-0.05-0.05-0.13-0.06-0.23-0.06c0.18-0.381-0.17-0.271,0.06-0.641H16.8z M30.65,6.9c0.06-0.04,0.06-0.13,0.17-0.1
		c-0.12,0.9,0.17,1.74-0.1,2.55c0.139,0.27,0.159,0.82-0.07,0.93c0.06,0.1,0.3,0.7-0.061,0.7c0.27,0.3,0.221,0.84,0.051,1.33
		c0.02,0.13,0.149,0.13,0.229,0.2c-0.101,0.43,0.069,0.88,0.06,1.32c0,0.86-0.58,1.9-1.279,1.4c0.119-0.17,0.32-0.65,0-0.76
		c0-0.1,0.359-0.2,0.06-0.229c0.3-0.15,0.101-0.44,0.229-0.75c-0.029-0.13-0.1,0.07-0.17-0.06c0.32-0.3-0.029-0.58,0.17-0.87
		c-0.02-0.1-0.069,0.02-0.17,0c0.381-0.33,0.101-0.78,0-1.17c0.131-0.17,0.23-0.95,0-1.1c0.351-1.28-0.199-2.36,0.061-3.55
		c0.449,0.15,0.55-0.08,0.8-0.06c0.101,0.12,0,0.08,0,0.23L30.65,6.9z"/>
</g>
</svg>
