<?xml version="1.0" encoding="utf-8"?>
<!-- Generator: Adobe Illustrator 15.0.2, SVG Export Plug-In . SVG Version: 6.00 Build 0)  -->
<!DOCTYPE svg PUBLIC "-//W3C//DTD SVG 1.1//EN" "http://www.w3.org/Graphics/SVG/1.1/DTD/svg11.dtd">
<svg version="1.1" id="Layer_1" xmlns="http://www.w3.org/2000/svg" xmlns:xlink="http://www.w3.org/1999/xlink" x="0px" y="0px"
	 width="50px" height="50px" viewBox="0 0 50 50" enable-background="new 0 0 50 50" xml:space="preserve">
<g id="institutions">
	<path d="M16.63,24.2c0.9,0.16,1.65,0.2,2.38,0.07c0.45,0.78,0.16,1.86,0.2,2.82c0.13,2.34,0.17,5.18,0.35,7.5
		c-1.24,0.17-2.2,0.32-2.92-0.15c0-3.58-0.17-6.84,0-10.259L16.63,24.2z M31.9,34.45C32.02,34.52,32.13,34.6,32.1,34.85
		C31.96,34.8,31.85,34.72,31.9,34.45z M37.8,33.7c0.12-0.24,0.479-0.021,0.479,0.22c0.141-0.05,0.301-0.08,0.521-0.061
		c0.06,0.271,0.4,0.261,0.64,0.351c-0.049,0.38,0.86,0.271,0.701,0.771c0.06,0,0.1-0.021,0.1-0.061c0.4,0.62,1.1,1.1,1.3,1.87
		c0.06,0.271-0.13,0.55,0.17,0.75c-0.2,0.47-0.33,1.021-0.46,1.569c-0.2,0.131-0.7,0.261-0.8,0.051c-0.2,0.33-0.66,0.07-0.601,0.23
		c-0.08,0.18-0.119-0.181-0.17-0.23c-0.17,0.07,0.1,0.22-0.06,0.3c-1.22,0.38-2.771,0.101-4,0.05c-0.021-0.1-0.12-0.14-0.12-0.3
		c-0.2,0-0.08,0.3-0.3,0.3c0-0.34-0.2,0.07-0.341-0.23C34.71,39.43,35,39.34,34.92,39.58c-0.05,0-0.04-0.08-0.061-0.13
		c-0.219-0.07-0.139,0.22-0.299,0.06c-0.23,0.04,0.069-0.199-0.101-0.3c-0.13,0.04,0,0.319-0.12,0.36
		c-0.119-0.101,0.04-0.141-0.061-0.301c-0.199-0.02,0,0.36-0.229,0.301c-0.03-0.18,0.101-0.2,0.06-0.4
		c-0.139,0.04-0.219,0.141-0.18,0.34c-0.32,0.1-0.27-0.199-0.4-0.3c-0.17,0.069,0.141,0.12,0.051,0.3
		c-0.141-0.1-0.18-0.13-0.24,0.061c-0.119,0-0.02-0.24-0.05-0.351c-0.08,0.05-0.2,0.341-0.12,0.36c-0.05,0.1-0.199,0.1-0.3,0.12
		c-0.06-0.101-0.06-0.15,0-0.23c-0.44,0.25-0.8,0.13-1.271,0.101c-0.3,0-0.08,0.119-0.24-0.16c-0.06,0.02-0.02,0.26-0.239,0.279
		c-0.149-0.129,0.101-0.299-0.05-0.399c-0.15,0.101-0.17,0.36-0.471,0.34c0-0.101-0.06-0.3,0.121-0.229
		c-0.301-0.301-0.33,0.399-0.4,0.05c-0.051,0.159-0.23,0.2-0.42,0.229c0.14-0.13-0.041-0.26-0.101-0.35
		c-0.149,0.029,0,0.38-0.2,0.35c-0.199,0.1-0.02-0.199-0.16-0.18c-0.129,0.04,0.07,0.1-0.06,0.18c-0.069-0.1-0.3-0.3-0.351-0.06
		c-0.18,0.021,0.15-0.17-0.059-0.17c-0.201-0.06-0.08,0.18-0.171,0.229c-0.85-0.029-1.43,0.061-2.1-0.3
		c-0.06,0.2-0.46,0.16-0.46-0.05c-0.23,0.05,0.199,0.199,0,0.23c-0.16,0-0.301,0-0.18-0.121c-1.721,0.24-2.82-0.18-3.951-0.049
		c-0.02-0.101-0.08-0.16-0.1-0.25c-0.06,0.049-0.1,0.1-0.12,0.18c-1.1-0.101-3.56,0.399-4.9,0.06c-1.16,0.24-2.7-0.3-3.65,0.05
		c-1.38-0.22-2.94,0.5-4.08-0.529c-0.56,0.229-1.1-0.4-0.8-0.87c-0.37-0.74,0-1.3,0.22-2.04c0.1,0.02,0.23,0,0.24,0.07
		c0.14-0.4,0.58-0.5,0.65-0.98c0.05,0,0.1,0.04,0.1,0.1c0.1-0.4,0.66-0.32,0.7-0.75c0.18,0.03-0.05,0.12,0,0.23
		c0.17-0.26,0.37-0.33,0.48-0.53c0.42,0.12,0.38-0.2,0.75-0.229c0.06-1.4-0.26-2.881,0-4.36c-0.35-1.729-0.26-4-0.52-5.76
		c-0.5-0.2-1.24-0.1-1.7-0.35c0.06-0.32-0.08-0.75-0.28-0.64c-0.14-0.36-0.08-0.8-0.06-1.44c0.27,0.03,0.24-0.2,0.18-0.35
		c0.16,0.06,0.15-0.07,0.3-0.05c0.82-1.2,2.1-1.65,3.07-2.67c0.05,0.02,0.1,0.05,0.12,0.1c0.6-1.02,1.8-1.2,2.2-1.85
		c0.24,0.08,0.34,0,0.4-0.23c0.13,0,0.03,0.2,0.06,0.3c0.14-0.08,0.24-0.2,0.23-0.42c0.18,0.37,0.25-0.36,0.34,0.06
		c0.1,0,0.2-0.36,0.23-0.06c0.08-0.03,0.1-0.12,0.12-0.23c0.08-0.02,0.1,0.06,0.16,0.06c0.18-0.24,0.4-0.5,0.7-0.5
		c0.83-0.57,1.55-1.35,2.4-1.93c0.04-0.04,0.12,0.05,0.1,0.06c0.42-0.3,0.73-0.76,1.28-0.82c0.16-0.62,1.23-0.35,1.34-1.03
		c0.08,0.05,0.08,0.2,0.17,0.23c0.08-0.05-0.15-0.24,0-0.4c0.25,0.03,0.4-0.03,0.35-0.3c0.2,0.03,0.3-0.02,0.35-0.12
		c0.22,0.04,0.18,0,0.3,0.18c0.2-0.1-0.13-0.14-0.07-0.3c0.17,0.17,0.17,0.07,0.24-0.1c0.56,0.16,0.7-0.5,1.1-0.65
		c0.33,0.03,0.57,0.45,0.819,0.36c2.9,1.92,6.361,3.25,8.721,5.7c0.32,0.15,0.88,0.5,1.16,0.87c1.8,0.7,3.029,2.17,4.48,3.03
		c-0.041,0.25,0.1,0.32,0.06,0.58c0.6,0.06,0.46,1,0.7,1.63c-0.17,0.84-0.4,1.62-0.93,2.1c-0.671,0-1.021-0.3-1.701-0.3
		c-0.119,0-0.17-0.05-0.16-0.17c-0.399,1.7,0.121,3.66-0.18,4.94c0.36,1.869,0.021,3.16,0.1,4.649L37.8,33.7z M26.95,13.2
		c-0.341,0-0.9-0.2-1-0.63c-0.229-0.1-0.48-0.2-0.7-0.35c0,0.08,0,0.14-0.1,0.12c0-0.1-0.05-0.15-0.12-0.17
		c0,0.1-0.05,0.15-0.12,0.17c0-0.08,0-0.15,0-0.23c-1.6,0.58-2.8,1.9-4.6,2.57c-0.45,0.6-1.18,0.95-1.68,1.5
		c-0.03-0.2-0.16-0.08-0.06,0.07c-0.14,0.02-0.22,0-0.3-0.06c-0.05,0.28-0.44,0.24-0.4,0.47c-0.72,0.13-1.28,0.9-1.8,1.28
		c0-0.08,0.03-0.13,0.06-0.18c-0.22,0.14-0.5,0.2-0.76,0.4c-0.24,0.2-0.37,0.5-0.52,0.65c-0.03,0.02-0.1-0.08-0.12-0.06
		c-0.08,0.1-0.05,0.37-0.23,0.17c0,0.1-0.02,0.15-0.07,0.2c-0.2,0.13-0.73,0.35-1,0.45c-0.26,0.1-0.58,0.42-0.92,0.64
		c-0.6,0.4-1.12,0.65-1.5,0.92c0.14,0.06-0.05,0.26-0.18,0.24c0-0.05,0-0.12-0.05-0.12c0,0.25-0.1,0.04-0.3,0.23
		c0.15,0.62-0.15,1.17,0.6,1.17c0.15-0.07,1.12,0.1,1.6,0.23c0.02,0.08-0.18,0.2-0.04,0.23c0-0.14,0.25-0.04,0.23,0.06
		c-0.03,0.34-0.08,0.3-0.23,0.4c0.04,0.3,0.2-0.13,0.3,0.06c0.4,1.43,0.12,3.04,0.16,4.479c0.03,1.341,0.16,2.461,0,3.721
		c0.08,0,0.2,0,0.17,0.12c-0.06,0-0.07-0.05-0.12-0.06c0.15,0.76,0.02,2.079,0.4,2.799c-0.96,0.141-1.34,0.57-2.1,0.86
		c-0.15,0.03-0.04-0.2-0.16-0.229c-0.2,0.32-0.6,0.6-0.94,0.88c-0.05,0.63-0.46,1.02-0.3,1.7c0.22,0.34,1.17,0.039,1.3,0.17
		c0.06-0.16-0.12-0.351,0-0.351c0.62,0.15,0.93,0.2,1.38,0c0.07,0.25,0.5,0.3,0.24,0c0.12,0.03,0.18,0.12,0.3,0.171
		c0.1-0.261,0.38-0.061,0.5-0.23c0,0.07-0.07,0.08-0.05,0.17c0.53,0,1.24-0.561,1.8-0.04c0.1,0,0.13-0.07,0.24-0.06
		c0.08,0.129,0.04,0.379,0.23,0.399c0.15-0.149-0.1-0.36,0.12-0.46c0.24,0.04,0.5,0.2,0.58-0.061c0,0.201-0.1,0.25-0.06,0.471
		c0.23,0,0.37-0.061,0.46-0.18c0.4,0.3,1.88,0.26,2.56,0.18c1.25-0.15,2.8,0.13,4.02,0.05c0.1,0,0.04-0.14,0.17-0.1
		c0.4,0.22,0.54-0.101,0.93,0.1c0-0.04,0-0.1,0.06-0.1c0.9,0.329,1.9,0.2,2.8,0.28c0-0.07,0-0.141,0.101-0.121
		c0.729,0.101,1.33-0.14,1.93,0.121c0.84-0.15,1.85-0.271,2.9-0.061c0.529-0.35,1.06,0.1,1.52-0.17c0.27,0.1,0.43,0.13,0.74-0.061
		c-0.041,0.141,0.119,0.101,0.18,0.16c0.2-0.22,0.6-0.16,0.75,0c0.1-0.46,0.74,0.2,1-0.229c0.02,0.069,0.05,0.13,0.1,0.17
		c0.721-0.45,2.051,0.22,3.271-0.17c-0.22-0.74-0.431-1.22-0.399-1.98c-0.75-0.2-1.57-0.78-2.5-0.579
		c0,0.129-0.031,0.219-0.131,0.229c-0.369-0.12-0.73-0.229-0.57-0.75c-0.129-0.101-0.42-0.05-0.399-0.3
		c0.239-0.101,0.3-0.4,0.399-0.631c-0.25,0.021,0-0.47-0.229-0.47c0.2-1.27,0.101-2.319-0.12-3.43c0.1,0,0.18,0,0.23,0.06
		c-0.271-0.34-0.2-1.58-0.101-1.63c-0.021-0.1-0.1,0.03-0.12-0.06c0-0.1,0.1-0.061,0.12-0.131c-0.06-0.06-0.22-0.02-0.18-0.17
		c0.14,0.021,0.28,0.141,0.239-0.119c0-0.18-0.229,0.18-0.239,0c-0.101-0.76,0.101-1-0.17-1.74c0.271-0.08-0.021-0.7,0-1.17
		c0.149-0.07,0.2-0.25,0.35-0.34c-0.079-0.55-0.1-1.15-0.3-1.58c0.67,0.24,1.17-0.27,1.58-0.17c0.05-0.1-0.18-0.2,0-0.23
		c0.17,0.07,0.5,0,0.52,0.23c0.08-0.04,0-0.22,0.121-0.23c0.25,0.04,0.43,0.04,0.699,0.17c0.23-0.32,0-0.7-0.12-1
		c0.2,0.07,0.08-0.18,0.171-0.22c-1.351-1.28-3.341-1.93-4.531-3.37c-0.369-0.12-0.58-0.4-0.879-0.58c-0.021,0.07-0.07,0.1-0.17,0.1
		c-0.021-0.1,0.06-0.12,0.049-0.22c-0.239,0-0.299-0.36-0.529-0.17c0.07-0.3-0.17-0.3-0.301-0.4c0.031,0.2-0.17-0.05-0.219,0.16
		c-0.101-0.18-0.051-0.48-0.23-0.58c0.029,0.15,0.08,0.2-0.061,0.3c-0.119-0.34-0.16-0.03-0.34,0.05c-0.07-0.2,0.02-0.57-0.23-0.6
		c-0.079,0.23,0.16,0.12,0.121,0.3c-0.2-0.03-0.141-0.33-0.301-0.4c-0.07,0.22-0.399-0.22-0.629,0c0-0.2-0.181-0.22-0.24-0.47
		c-0.201,0.13-0.15-0.16-0.351,0c-0.05-0.24-0.3-0.56-0.46-0.35c0.051-0.3-0.26-0.64-0.35-0.3c0.05-0.2-0.1-0.22-0.061-0.4
		c-0.1,0-0.13,0.06-0.23,0.06c-0.1-0.24-0.1-0.24-0.229-0.4c0,0.12-0.021,0.2-0.12,0.22c-0.529-0.53-1.25-0.88-1.75-1.45L26.95,13.2
		z M36.48,29.8c0.06-0.069,0.06-0.3-0.101-0.3C36.359,29.641,36.359,29.78,36.48,29.8z M12.7,34.43c0.12,0.021,0.2,0,0.22-0.1
		c-0.07-0.03-0.22-0.25-0.3-0.07c0.08,0,0.07,0.1,0.07,0.17H12.7z M9.08,38.21c0-0.069,0-0.149,0-0.229c-0.06,0-0.12,0-0.17,0
		c0,0.14,0.03,0.239,0.18,0.22L9.08,38.21z M16.23,38.73c0.2,0.149,0.46,0,0.47-0.23c-0.18-0.13-0.3,0.2-0.47,0.24V38.73z
		 M16.93,38.63c0.14-0.03,0.07,0.16,0.18,0.16c0.08-0.3,0.12,0.04,0.3-0.101c0-0.049,0-0.1,0-0.129c-0.1,0-0.38-0.15-0.47,0.06
		L16.93,38.63z M15.53,38.68c0.1,0.101,0.3,0.04,0.36-0.07c-0.2,0.021-0.3-0.149-0.36,0.061V38.68z M17.98,38.609
		c-0.1-0.1-0.3-0.049-0.47-0.06c0,0.23,0.4,0.2,0.48,0.06H17.98z M37.52,39.13c0,0.16-0.029,0.351,0.121,0.351
		c-0.08-0.2,0.219-0.44,0.049-0.351c-0.02,0.101-0.129,0.04-0.18,0H37.52z M23.74,14.67c0.08,0.02-0.03,0.07,0,0.17
		c0.15,0.02,0.15-0.12,0.17-0.23c0.37-0.02,0.48,0.1,0.77-0.1c1.22,0.17,2.33,0.76,2.56,1.74c0.05,0.14,0.199,0.17,0.3,0.3
		c0.101,0.45,0.03,1.1-0.2,1.68c-0.199,0.56-0.42,1.3-0.92,1.4c-0.029,0.04-0.05,0.12-0.05,0.22c-0.47-0.05-1.25,0.9-1.63,0.4
		c-0.07,0.03-0.04,0.16-0.05,0.24c-0.32-0.03-0.73,0.03-0.76-0.3c-0.37,0-1.2-0.72-1.27-0.86c-0.04-0.07,0.1-0.14,0.06-0.17
		c0.02,0.03-0.8-0.46-0.42-0.82c0-0.8-0.54-1.75,0.17-2.2c0-0.12,0-0.24,0-0.36c0.1,0,0.04,0.2,0.18,0.18
		c0.13-0.04,0.02-0.33,0.06-0.47c0.17-0.04,0.4-0.04,0.34-0.35c0.38,0.06,0.45-0.22,0.7-0.46L23.74,14.67z M25.14,15.31
		c-0.45-0.06-1.13,0.1-1.46,0.4c-0.44,0.42-0.66,1.85-0.52,2.7c0.2,1.3,1.55,0.82,2.1,0.28c0.301-0.32,0.52-0.76,0.86-1.05
		c-0.149-0.35,0.159-0.62,0.229-0.93c-0.199-0.84-0.529-1.28-1.22-1.4H25.14z M32.04,23.72c0.16-0.2-0.12,0.32,0.06,0.4
		c0.2,0.05,0.101-0.27,0.34-0.16c-0.039,0.6,0.301,0.76,0.34,1.25c-0.1,0.05-0.059,0.26-0.27,0.17c0.16,0.47,0,0.771,0.08,1.25
		c0.17-0.04,0.26-0.13,0.27,0.16c-0.1,0.021-0.119-0.08-0.199-0.08c0.26,0.2,0.23,0.67,0.061,0.86c0,0.26,0.229,0.27,0.219,0.55
		c-0.239,0.38,0.201,1.03-0.14,1.729c0.2,1.221,0.03,2.76,0.341,3.681c-0.051,0.069-0.301,0.26,0,0.25
		c-0.061,0.239-0.201,0.2-0.07,0.47c-0.08-0.1-0.301-0.08-0.471-0.08c0.131,0.24,0.07,0.221,0.07,0.63
		c-0.22-0.069,0-0.63-0.279-0.63c-0.07,0.48-0.531,0-1.08,0.08c-0.25,0.02,0.229,0.2,0,0.23c-0.201-0.131-0.601-0.28-0.621,0.08
		c-0.17-0.25-0.399-0.101-0.68-0.08c-0.13-0.44,0.15-0.86-0.27-0.94c0.32-0.28,0.26-0.96,0.199-1.63c0.301-0.4,0.271-1.38,0-1.721
		c0.051-0.14,0.121-0.02,0.201,0c0.069-0.319-0.201-0.239-0.131-0.549c0.141-0.041,0.131,0.1,0.131,0.229
		c0.1-0.03,0.139-0.101,0.139-0.229c-0.059-0.141-0.239-0.15-0.34-0.24c0.121-0.381,0.041-0.36,0.07-0.62
		c0.07,0.02,0.04,0.149,0.131,0.149c0.35-0.67-0.101-1.17-0.061-1.96c0.1,0.021,0.1-0.079,0.199-0.079
		c0.181-1.021-0.629-2.581,0.271-3.141c0.16-0.02,0.08,0.23,0.2,0.24c0.25,0.05,0-0.47,0.279-0.4c-0.199,0.52,0.221,0.34,0.541,0.4
		c0.1-0.021,0.06-0.2,0.07-0.3c0.069,0.04,0.299,0.3,0.399,0.06V23.72z M25.859,24.35c-0.02-0.16-0.18-0.16-0.27-0.23
		c0.07-0.33,0.2,0.03,0.33,0.07c-0.029,0.14-0.029,0.33-0.199,0.3c0.02-0.06,0.049-0.13,0.129-0.15L25.859,24.35z M25.18,24.1
		c0.12,0.54,0.5,0.6,0.599,1.1c0.101,0.44-0.149,1,0.08,1.5c-0.119,0.319-0.279,0.95-0.199,1.25c0.15-0.03-0.04-0.46,0.27-0.3
		c-0.029-0.131-0.22-0.08-0.14-0.32c0.22,0.02,0.181,0.35,0.2,0.62c-0.37-0.08-0.131,0.54-0.4,0.55
		c0.27,0.141,0.03,0.561,0.26,0.859c-0.199,0-0.27,0.771,0,0.94c0.18,0.03-0.06-0.44,0.2-0.3c0.08,0.34,0.25,0.8,0,1.1
		c-0.22-0.08-0.03-0.16-0.06-0.399c-0.2-0.06-0.141,0.149-0.28,0.149c0.17,0.33,0.34,0.66,0.399,1.101c-0.219,0.06-0.1-0.3-0.26-0.3
		c-0.149-0.03-0.029,0.26-0.07,0.38c0.181,0,0.131-0.13,0.261,0c-0.181,0.2,0.181,0.569,0.14,0.94c-0.039,0.369-0.08,0.899,0,1.56
		c-0.76-0.16-1.85,0.1-3-0.15c-0.15-0.8,0.1-1.521-0.2-1.88c0.12-1.87-0.05-4.6-0.06-6.66c0.13-0.15,0.12,0.051,0.34,0
		c0.07-0.66-0.2-0.92-0.2-1.5c0.43-0.36,0.87-0.03,1.22-0.3c0.14,0.04,0.14,0.12,0.07,0.23c0.3-0.1,0.35,0,0.6,0.08
		c0.1-0.08,0.14-0.2,0.2-0.3c0.1,0,0.05,0.07,0,0.06L25.18,24.1z"/>
</g>
</svg>
