<?xml version="1.0" encoding="utf-8"?>
<!-- Generator: Adobe Illustrator 15.0.2, SVG Export Plug-In . SVG Version: 6.00 Build 0)  -->
<!DOCTYPE svg PUBLIC "-//W3C//DTD SVG 1.1//EN" "http://www.w3.org/Graphics/SVG/1.1/DTD/svg11.dtd">
<svg version="1.1" id="Layer_1" xmlns="http://www.w3.org/2000/svg" xmlns:xlink="http://www.w3.org/1999/xlink" x="0px" y="0px"
	 width="50px" height="50px" viewBox="0 0 50 50" enable-background="new 0 0 50 50" xml:space="preserve">
<path id="fitness-recreation" d="M29.63,12.17c-0.021-0.1,0.22,0,0.17,0.1c0.3-0.3,0.83,0,1.101-0.05
	c-0.021,0.05-0.061,0.1-0.051,0.18c0.08-0.1,0.2-0.18,0.4-0.17c0,0.1,0.07,0.12,0.061,0.23c0.239-0.06,0.26-0.26,0.479-0.06
	c0.13-0.15,0.14-0.27,0.399-0.17c0.101,0.56,0.601,0.98,0.24,1.62c0.33,0.67,0.35,1.17,0.461,1.8c-0.08,0.13-0.141-0.07-0.17,0.06
	c-0.021,0.14,0.1,0.13,0.18,0.13c-0.25,0.12,0.17,0.5-0.101,0.58c0.021,0.1,0.101,0.12,0.22,0.13c-0.17,0.17,0.03,0.38-0.18,0.46
	c0.439,1.2,1.28,1.86,1.87,3.021c0.05,0,0.101,0,0.101-0.061c0.439,0.66,0.869,1.34,1.459,1.86c0.121-0.24-0.379-0.36-0.35-0.7
	c0.439,0,0.62-0.28,0.88-0.46c0.05,0.04,0.101,0.1,0.101,0.17c0.119,0,0.149-0.1,0.129-0.23c0.601-0.07,1.281,0,1.521-0.3
	c0.16,0.1,0.07,0.2,0.181,0.42c0.06-0.2,0.33-0.2,0.52-0.3c0.1-0.02,0.1,0.05,0.12,0.12c0.12-0.03,0.37-0.14,0.399,0.06
	c3.701,0.15,6.03,2.65,7.681,5.23c0.63,0.801,0.8,2.75,0.46,3.9c0.1,0.66-0.1,1.1-0.46,1.5c-0.2,0.93-0.45,1.8-1.101,2.279
	c-0.82,1.521-2.359,2.66-3.379,3.621c-0.101,0-0.031-0.201-0.101-0.24c-0.13,0.02-0.13,0.16-0.2,0.24c-0.1,0-0.029-0.201-0.16-0.181
	c-0.199,0.03-0.1,0.22-0.06,0.351c-0.14,0-0.07-0.181-0.181-0.181c-0.119,0-0.119,0.14-0.1,0.3c-0.6,0.1-1.25,0.461-1.76,0.45v-0.1
	c-0.1,0-0.12,0.1-0.23,0.1c-0.14,0-0.07-0.12-0.229-0.17c-0.15-0.05-0.55,0.271-0.58-0.06c-1.07,0.18-2.12-0.62-3.431-0.7
	c-1.5-0.8-2.729-1.88-3.949-2.97c-0.4-1.03-1.36-2.021-1.7-3.141c-0.12-0.449,0.05-0.859-0.22-1.16c0.229-3.3,1.699-5.34,3.26-7.33
	c0.3,0.07,0.3-0.16,0.4-0.3c-0.301-0.1-0.541-0.68-0.76-1.04c-0.4-0.3-0.9-0.96-1.051-1.68c-1,1.34-1.779,2.92-2.8,4.24
	c-0.46,1.56-1.851,2.5-2.03,4.13c-0.279,0.319-0.5,0.7-0.64,1.159c-0.05-0.02-0.06-0.06-0.12-0.06c0.08,0.88-0.721,0.5-1.27,0.7
	c-0.15-0.1-0.04-0.1-0.12-0.24c-0.16,0.301-0.6-0.17-0.63,0.4c-0.3-0.04-0.3-0.4-0.58-0.46c-0.57,0.34-1.5,0.2-2.22,0.18
	c-0.23,0-0.5,0.17-0.75,0.17c-0.38,0-0.65-0.25-0.88-0.05c-0.12,0-0.18-0.05-0.17-0.18c-0.1,0.3-0.34,0.149-0.52,0.399
	c0.1,0.601-0.12,1.03-0.18,1.7c-0.07-0.02-0.05-0.1-0.06-0.18c-0.1,0.02-0.04,0.229-0.23,0.17c0.2,0.66-0.18,1.17-0.24,1.93
	c-0.36,0.08-0.58,0.63-0.87,0.7c0,0.2-0.15,0.351-0.3,0.521c-0.07,0-0.05-0.101-0.06-0.17c-0.17,0-0.36,0.26-0.24,0.35
	c-0.14,0.22-0.12-0.221-0.1-0.35c-0.2,0.17,0,0.319,0,0.58c-0.28-0.021-0.3,0.35-0.53,0.299c0.02,0.301-0.5,0.351-0.35,0.57
	c-0.48-0.14-0.8,0.301-1.1,0.7c-0.13-0.12-0.44-0.101-0.47,0.181c-0.24-0.041-0.38-0.121-0.4,0.18c-0.14-0.041-0.24-0.12-0.42-0.12
	c-0.12,0.02,0.1,0.159-0.06,0.239c-0.38,0.03-0.55,0.041-0.8-0.119c-0.1,0.06-0.1,0.199-0.2,0.229c-0.04-0.03-0.07-0.1-0.1-0.159
	c-0.1,0.1-0.33,0.02-0.3,0.229c-0.17-0.06,0.07-0.15,0.07-0.229c-0.46,0.5-1.12-0.24-1.75,0.06c-0.46-0.16-0.65-0.04-1.4-0.101
	C9,36.73,8.72,36.71,8.57,36.57c-1.42-0.021-2.26-1.1-3.43-1.57c-0.12-0.4-0.64-0.4-0.7-1c-0.58-0.3-1.45-1.62-1.86-2.43
	c-0.1-0.23-0.35-0.45-0.4-0.641c-0.02-0.1,0.08-0.199,0.06-0.3c-0.08-0.3-0.34-0.659-0.3-1.04c0-0.1,0.2-0.04,0.18-0.18
	c-0.16-0.13-0.17-0.4-0.18-0.7c0.23-0.2,0.3-0.8,0.06-0.87c0.05-1.13,0.48-1.72,0.64-2.84c0.16,0.05,0.12-0.1,0.24-0.1
	c0-0.38,0.12-0.62,0.4-0.7c0.15-0.86,1-1,1.1-1.87c0.8-0.3,0.95-0.7,1.58-0.94c0.04-0.15,0.16-0.22,0.17-0.4
	c0.47-0.03,0.86-0.72,1.63-0.53c0.13-0.2,0.12-0.03,0.23-0.3c0.9-0.02,1.43-0.6,2.32-0.57c0.06,0.07,0.06,0.2,0.1,0.3
	c0.1-0.03,0.1-0.2,0-0.2c1.47-0.02,2.48,0.3,3.8,1c0.67-0.92,1.2-1.78,1.74-2.9c0.17,0,0.3-0.02,0.35-0.12
	c0.03-0.28-0.06-0.07-0.17-0.18c0.3-0.17,0.8-0.2,0.64-0.7c-0.16-0.37-0.54-1.16-0.98-1.5c0.02-0.06,0.05-0.1,0.04-0.18
	c-0.54-0.12-1.15,0.26-1.74,0.06c-0.24-0.1-0.5-0.5-0.7-0.64c-0.1-0.1-0.43-0.34-0.4-0.64c0.03-0.38,0.4-0.6,0.8-0.7
	c0.07,0.1,0.2,0.12,0.18,0.3c0.1,0,0.2,0,0.3,0c-0.24-0.08-0.2-0.43-0.06-0.6c0.6,0.64,2.28,0.46,2.85,0.4
	c0.65,0.1,1.57,0,2.32,0.13c0.15,0.3,0.34,0.32,0.75,0.46c0.63,1.36-1.4,1.16-2.15,1.16c-0.23,0.63,0.95,0.8,0.98,1.57
	c0.44,0.52,0.86,1.07,1.05,1.85c0.03,0.1,0.08-0.02,0.18,0c0,0.6,0.57,0.66,0.47,1.22c0.07-0.03,0.12-0.07,0.12-0.17
	c0.25,0.86,0.97,1.37,1.04,2.03c0.04,0.13,0.2,0.15,0.3,0.23c0,0.26-0.2,0.26-0.07,0.47c0.2,0.05,0.08-0.2,0.17-0.23
	c0.4,0.8,0.93,1.55,1.17,2.2c0.04,0.13,0.3,0.02,0.24,0.24c0.07-0.08,0.28-0.03,0.3-0.17c0.13,0.03,0.12,0.2,0.16,0.34
	c-0.1,0.02-0.2,0.05-0.23,0.13c0.04,0.17,0.12-0.06,0.23,0c0,0.53,0.5,0.5,0.4,0.93c-0.05,0-0.03-0.1-0.1-0.119
	c0.05,0.35,0.2,0.049,0.1,0.47c0.1,0.03,0.12-0.04,0.13-0.101c0.1,0.131,0.15,0.301,0.17,0.521c0.1,0.08,0.33-0.04,0.3,0.3
	c0.7-0.8,1.26-1.6,1.45-2.8c0.2-0.1,0.03,0.2,0.17,0.17c0.17-0.46,0.2-1.05,0.64-1.23c-0.05-0.05-0.06-0.13-0.06-0.23
	c0.62-0.4,0.7-1.33,1.28-1.75c0-0.35,0.199-0.5,0.47-0.6c0.271-0.42,0.42-0.96,0.8-1.27c0-0.4,0.16-0.63,0.42-0.76
	c0-0.15,0-0.3,0-0.46c0.5,0.08,0.28-0.82,0.75-0.57c-0.02-1.17-0.029-1.92-0.06-3.03c-1-0.27-2.5,0.12-3.25-0.06
	c-0.14,0.35-0.729,0.17-1.2,0.06c-0.221-0.4-0.8-0.2-1.18-0.52c0-0.1,0.06-0.1,0.06-0.17c-0.1-0.1-0.07,0-0.23,0
	c-0.45-0.7,0.55-1.66,0.87-1.04c0.181-0.14,0.131-0.32,0.23,0c0.2-0.4,0.76,0.03,1.05-0.23c0.5,0.3,1.13-0.36,1.45,0.1
	c0.1-0.2,0.34,0.07,0.35-0.16c0.301,0.07,0.42,0.16,0.641,0.17c0-0.1-0.04-0.15-0.1-0.17L29.63,12.17z M19.5,14.03
	c-0.08-0.07-0.07-0.23-0.23-0.23c-0.08,0.2,0.17,0.37,0.24,0.23H19.5z M16.9,19.5c-0.1-0.26-0.02,0.04,0,0.17
	c-0.4,0.53-0.94,1.14-1.1,1.7c-0.33,0.03-0.3,0.44-0.36,0.57c0.22,0.08,0.5,0.23,0.7,0.17c0.07,0.3,0.18,0.56,0.52,0.6
	c0.5,0.98,1.4,1.58,1.68,2.8c0.48,0.48,0.47,1.46,0.82,2.08c0.2,0,0.65-0.04,0.46,0.18c0.2,0,0.2-0.22,0.47-0.18
	c0.18,0.16,0.2,0.141,0.45,0.23c0.06-0.101-0.17-0.18,0-0.221c0.26,0,0.47-0.13,0.7,0.181c0.1-0.07,0.24-0.12,0.3-0.24
	c0.6,0.149,1.2,0,2.1,0.06c-1.23-2.16-2.83-4.16-3.9-6.28c-0.43-0.25-0.7-0.67-0.77-1.28c-0.66-0.24-0.7-1.1-1.28-1.45
	c-0.08,0.15-0.2,0.3-0.4,0.17c0.12,0.33-0.35,0.43-0.4,0.76L16.9,19.5z M42.25,21.94c0.07-0.22-0.3-0.3-0.35-0.18
	C42,21.84,42.04,21.96,42.25,21.94z M10.03,28.5c-0.08-0.061-0.5-0.22-0.47-0.4c0-0.069,0.4-0.319,0.47-0.459
	c0.14-0.261,0.13-0.621,0.3-0.82c0.05-0.07,0.18-0.04,0.22-0.101c0.17-0.28,0-0.6,0.35-0.6c0-0.101-0.02-0.17-0.06-0.229
	c0.06,0,0.12,0,0.17,0c0.4-1.371,1.42-2.101,2-3.261c0.05-0.16,0.34-0.08,0.34-0.3c-0.45-0.07-0.78-0.26-1.05-0.52
	c-0.5,0-0.93,0.15-1.28,0c-0.16,0.16-0.43,0.2-0.6,0c0,0.07,0.02,0.17-0.05,0.18c-0.7-0.42-2.1,0.36-2.9,0.4
	c-0.1,0.16,0.25,0.12,0.06,0.18c-0.33,0.12-0.12-0.3-0.35-0.3c-0.05,0.17,0.08,0.16,0.06,0.3c-0.3-0.02-0.32,0.15-0.47,0.3
	c-0.56,0.5-0.77,0.82-1.16,1.44c-0.4,0.67-0.9,1.15-1.16,1.87c-0.4,1.08-0.34,2.54-0.4,3.82c0.57,0.83,0.86,1.93,1.63,2.561
	c0,0.159-0.23,0.049-0.18,0.239c0.5,0.7,1.37,0.9,2.08,1.5c0.13-0.149,0.7,0.22,0.88,0.4c1.57,0.3,3.1,0.85,4.7,0.36
	c0.8-0.24,1.28-0.9,2-1.28c0.5-0.86,1.14-1.601,1.56-2.56c0.08,0.029,0.1,0.069,0.17,0c0.03-0.601,0.24-1.021,0.34-1.57
	c-1.42-0.07-1.74,0.06-3.26,0.06c-0.1,0-0.04-0.2-0.17-0.17c0.02,0.13-0.04,0.181-0.17,0.17c-0.83-0.04-1.7,0.07-2.5,0.12
	c0-0.15,0.02-0.33-0.06-0.4c-0.47,0-0.57-0.229-0.98-0.07c-0.14-0.319-0.2-0.449-0.07-0.869L10.03,28.5z M45.16,31.77
	c0.199-0.02,0.16-0.26,0.34-0.3c0.12-1.2,0.779-2.7,0.35-3.899c-0.229-1.23-0.779-2.14-1.629-2.95c-0.931-0.9-2.101-1.8-3.25-2.04
	c-1.021-0.22-2.5-0.2-3.261,0.17c-0.101,0-0.181,0-0.28,0c-0.14,0.2-0.449,0.2-0.52,0.47c0.199,0.24,0.3,0.58,0.52,0.64
	c-0.16,0.06-0.08,0.22,0.061,0.3c-0.02-0.14,0-0.23,0.1-0.24c0.23,0.38,0.641,0.57,0.65,1.16c0.1,0.02,0.15-0.1,0.18,0
	c-0.1,0.25,0.2,0.4,0.359,0.64c0.23,0.351,0.4,0.8,0.521,1.101c0.07,0.16,0.271,0.13,0.3,0.18c0.061,0.15,0.07,0.3,0,0.4
	c0.2,0.06,0.041-0.25,0.221-0.23c0,0.721,1.199,0.83,1,1.75c-0.141-0.02-0.23,0-0.301,0.061c0.131,0.25-0.02,0.5-0.17,0.64
	c-0.25-0.08-0.64-0.07-0.879,0.06c-0.281-0.34-0.74-0.1-0.98,0.101c-0.16-0.101-0.25-0.28-0.35-0.45c0.1,0,0.199,0,0.17-0.12
	c-0.301,0.101-0.101,0-0.07-0.16c-0.26-0.1-0.28-0.3-0.461-0.35c0.101-0.9-0.6-1.78-1-2.16c-0.299-0.899-1.119-1.78-1.799-2.5
	c-0.07,0.03,0,0.22-0.101,0.23c0-0.1-0.05-0.15-0.13-0.18c-0.141,0.08-0.07,0.17-0.23,0.34c-0.1,0.12-0.319,0.16-0.449,0.3
	c-0.32,0.3-0.801,0.87-1,1.2c-0.041,0.1,0,0.301-0.051,0.42c-0.199,0.44-0.6,0.7-0.64,1.051c-0.101,0.64-0.05,2.069,0,2.629
	c0.181,2.101,1.899,3.101,2.851,4.421c0.1,0,0.16,0,0.24,0c0.84,0.97,2.25,1.54,3.899,1.569c0.58,0,1.08-0.319,1.7-0.18
	c1.3-0.42,1.9-1.55,3-2.15c0.08-0.399,0.3-0.619,0.47-0.879c0,0.1,0.06,0.149,0.13,0.17c-0.061-0.66,0.5-0.681,0.52-1.23
	L45.16,31.77z M14.73,28c0.02-0.3,0.4,0.02,0.58-0.07c0.1-0.06,0.14-0.42,0.12,0c0.2,0.021,0.35-0.35,0.52-0.18
	c0,0.08-0.1,0.061-0.12,0.12c0.2,0,0.32,0.1,0.47,0.17c0.03-0.22,0.15-0.351,0.3-0.17c0-0.07,0-0.17,0.06-0.181
	c0.24,0.03,0.42,0.03,0.64,0.17c0.23-0.649-0.43-1.279-0.64-1.859c-0.23-0.8-1-1.1-1.28-1.85c-0.04-0.18,0.1-0.17,0.06-0.35
	c-0.35-0.04-0.6-0.28-0.82-0.35c-0.02-0.13,0.17-0.07,0.18-0.18c-0.1,0-0.18,0-0.24-0.05c-0.3,0.4-0.7,1-0.8,1.4
	c-0.1,0-0.2-0.02-0.24-0.07c0,0.1,0.06,0.13,0.06,0.24c-0.64,0.729-0.8,1.95-1.7,2.43c0.16,0.32-0.03,0.44-0.16,0.521
	c0.8,0.35,1.8,0.08,2.6,0.3 M15.62,23.84c-0.04,0.3,0.24,0.3,0.4,0.4C15.97,24.01,15.85,23.74,15.62,23.84z M32,30.1
	c-0.2-0.729,0.05-1.399-0.24-1.92c-0.05,0.5-0.08,1.45,0.23,1.92H32z M10.4,28.5c0.1,0.1,0.3,0.02,0.3-0.16
	c-0.14,0.07-0.18-0.23-0.23-0.06c0.17,0.06-0.07,0.149-0.07,0.229V28.5z"/>
</svg>
