<?xml version="1.0" encoding="utf-8"?>
<!-- Generator: Adobe Illustrator 15.0.2, SVG Export Plug-In . SVG Version: 6.00 Build 0)  -->
<!DOCTYPE svg PUBLIC "-//W3C//DTD SVG 1.1//EN" "http://www.w3.org/Graphics/SVG/1.1/DTD/svg11.dtd">
<svg version="1.1" id="Layer_1" xmlns="http://www.w3.org/2000/svg" xmlns:xlink="http://www.w3.org/1999/xlink" x="0px" y="0px"
	 width="50px" height="50px" viewBox="0 0 50 50" enable-background="new 0 0 50 50" xml:space="preserve">
<g id="grocery-pharmacy">
	<path d="M27.27,15.37c0.121,0.02,0.101,0.15,0.17,0.23c0.08-0.02,0.051-0.14,0.061-0.23c0.27,0.1,0.7-0.1,1-0.12
		c0.061,0,0.04,0.1,0.05,0.18c0.101,0,0.07-0.16,0.229-0.12c0.48,0.44,1.531,0.26,2.4,0.13c0.08,0.1-0.02,0.07,0,0.23
		c0.221,0-0.029-0.1,0.1-0.17c0.74,0.13,1.201,0.12,1.801-0.07c0.04,0.04,0.07,0.1,0.061,0.17c0.739-0.32,2.149,0.04,2.85-0.23
		c-0.02,0.1,0.05,0.1,0.05,0.17c0.069-0.23,0.42,0.08,0.399-0.3c0.17,0.18,0.15,0.06,0.36,0c0,0.07,0,0.13,0,0.2
		c0.66-0.13,1.7-0.26,2.5,0c0.08-0.02,0.06-0.12,0.07-0.2c0.521,0.1,1.17-0.021,1.739,0.2c0.25-0.26,0.42,0,0.601-0.2
		c0.22-0.021,0.36,0.03,0.46,0.13c0.65-0.37,0.73,0.35,1.28,0.52c-0.171,0.4,0.3,0.65-0.12,0.86c0.3,1.33-1.03,2.3-0.87,3.26
		c-0.101,0.2-0.101-0.13-0.229-0.06c-0.03,0.13,0.1,0.1,0.1,0.18c-0.141,0.6-0.7,0.78-0.74,1.5c-0.061,0-0.119,0-0.18,0
		c-0.02,0.56-0.07,0.75-0.35,1.17c-0.101,0.03-0.101-0.03-0.101-0.1c-0.06,0.35-0.12,0.53-0.2,1c-0.17,0.05-0.14,0-0.279-0.07
		c-0.141,0.05,0.129,0.17,0.06,0.35c-0.229-0.03-0.04,0.38-0.351,0.3c-0.199,0.83-0.67,1.6-1.1,2.37
		c-0.199,0.6-0.24,1.399-0.58,1.859c-0.07-0.04-0.16-0.06-0.3-0.05c-0.069,0.101-0.271,0.25-0.05,0.3
		c-0.04,0.15-0.27,0.12-0.301,0.301c-0.199-0.021,0.131-0.201-0.049-0.201c-0.201,0.15-0.271,0.4-0.58,0.421
		c0.039-0.181-0.061-0.2-0.061-0.351c-0.1,0.48-0.55,0.301-1.1,0.351c0.029-0.061,0.13-0.061,0.1-0.181
		c-0.22-0.08-0.16,0.131-0.17,0.28c-1.23-0.149-3.029,0.07-3.96-0.17c-0.62,0.3-1.87,0.07-2.399,0.3c-0.371-0.22-0.82,0-1.32-0.17
		c-1.381,0.301-3.061-0.37-4.48-0.12c-0.3-0.22-0.54-0.149-1-0.22c0.04,0.04,0.07,0.1,0.07,0.17c-0.05,0-0.04-0.07-0.05-0.1
		c-0.52-0.07-1.03,0.149-1.45,0.1c-0.16-0.02-0.6-0.279-0.76,0.061c-0.96-0.181-1.36,0.06-2.1,0.239c-0.03,0.351,0.2,0.55,0,0.761
		c0.2,0.26,0.15,0.75,0.24,1.1c0.02,0.08,0.1,0.1,0.1,0.18c2.56-0.17,5.96,0.301,8.56,0.061c2.5,0.27,5.35,0.119,7.739,0.17
		c0.74,0.029,1.181,0.18,1.74,0.3c-0.199,0.37-0.02,0.72,0.12,1.05c-0.149,0.37-0.3,0.35-0.76,0.301
		c-0.63-0.101-1.399,0.02-2.03,0.049c-0.76,0.03-1.539-0.08-2.33-0.06c-1.699,0.04-3.479-0.08-5.17-0.06
		c-0.1,0.05-0.1,0.199-0.24,0.229c-0.22-0.04-0.459-0.1-0.629-0.22c-0.25,0.22-0.721,0.38-1,0c-0.07,0.05-0.2,0.05-0.16,0.23
		c-1.12,0.02-1.6-0.471-2.38,0c0-0.101-0.57-0.301-0.52,0c-0.1-0.17-0.42-0.101-0.58-0.221c-0.1,0.07-0.26,0.051-0.23,0.23
		c-0.37-0.271-0.65,0.07-1.06-0.221c-0.14,0.2-0.56,0.25-0.7,0c-0.08,0.051-0.18,0.101-0.17,0.23c-0.55-0.561-1.1-0.18-1.86-0.28
		c-0.28-1.58-0.9-3.1-1.2-4.479c-0.2,0.08-0.2,0.02-0.42,0c0.08-0.2,0.28-0.26,0.35-0.461c-0.5-0.93-0.16-2.199-0.76-2.969
		c0.12-0.6-0.18-1.26-0.23-1.73c-0.02-0.1-0.07,0.02-0.17,0c0-0.5-0.77-1.37-0.53-2.1c-0.28-0.14-0.16-0.74-0.06-1
		c-0.22-0.24-0.38-1.02-0.4-1.67c0.1-0.1,0.2-0.2,0.3-0.3c-0.18-0.62-0.24-1.8-0.7-2.44c0-0.06,0.1-0.05,0.17-0.05
		c-0.06-0.72-0.65-1.45-0.35-2.15c-0.06-0.16-0.16,0.1-0.24-0.05c0.1-0.2-0.06-0.28-0.05-0.53c0.06,0.04,0.1,0.07,0.12,0
		c-0.24-0.9-0.65-2.08-1.86-2.44c-0.48,0.53-1.2,0.8-2.1,0.93c-0.22-0.15-0.42-0.22-0.7-0.06c-0.04-0.22-0.3-0.24-0.5-0.3
		c-0.44-0.6-1.12-0.75-1.18-1.62c0.08,0,0.16,0,0.23,0c0.02-0.15-0.08-0.1,0-0.23c-0.22-0.07-0.1,0.2-0.34,0.12
		c-0.08-0.08-0.08-0.38,0-0.47c0.17,0-0.04,0.36,0.12,0.35c0.12-0.22-0.02-0.4,0.06-0.7c0.38-0.12,0.35-0.3,0.46-0.7
		c0.56,0.1,0.5-0.26,0.93-0.4c0.18,0,0.23,0.12,0.35,0.18c1.1-0.98,3.07,0.34,3.03,1.57c0.97,0.1,1.9,0.7,2.4,1.45
		c0.15,0.05,0.14-0.08,0.28-0.06c0.64,1.04,0.86,2.5,1.17,3.9c-0.14,0.22-0.35,0.42-0.24,0.74c0.24,0,0.44,0,0.6,0.06
		c0.07-0.02,0.04-0.14,0.05-0.23c1.82-0.07,3.27,0.2,4.48,0c0.2-0.05,0.08,0.2,0.23,0.17c-0.07-0.28,0.77-0.15,0.76,0.06
		c0.47-0.1,1.02-0.23,1.4,0.06c0.2,0.04,0.07-0.24,0.3-0.17c-0.04,0.03-0.07,0.08-0.07,0.16c0.33-0.06,0.64-0.17,0.93,0.06
		c0.05-0.04,0.1-0.1,0.1-0.18c0.22,0.18,0.55,0.08,0.66-0.1c0.27-0.07,0.07,0.34,0.35,0.28c0.05-0.1-0.12-0.2,0.04-0.35
		c0.15,0.08,0.4,0.08,0.529,0.17c0.201-0.17,0.261,0,0.351-0.3c0.08,0.15,0.56,0.2,0.64,0c0.25,0.18,0.67,0.3,0.801,0.13
		L27.27,15.37z M8.02,10.14C8.25,10,8.32,9.7,8.48,9.5C8.1,9.6,8.26,9.88,8.02,10.14z M30.58,17.24c-0.141-0.07-0.301,0.1-0.46-0.12
		c-0.2,0.12-0.101,0.3-0.181,0.46c-0.1,0-0.149-0.04-0.17-0.12c0-0.1,0.15-0.04,0.101-0.17c-1.12-0.15-2.16,0.13-3.181,0.16
		c-0.64,0.03-1.25-0.04-1.879-0.05c-1.36,0-2.72,0.33-4-0.3c0.06,0,0.13,0,0.1-0.1c-0.2-0.03-0.14,0.2-0.34,0.17
		c-0.37-0.3-0.96-0.36-1.28-0.12c-0.74-0.14-1.92-0.1-2.73,0c-0.34,0-0.48-0.1-0.7,0.06c0.24,2.64,0.54,4.32,1.1,6.4
		c-0.05-0.02-0.2-0.12-0.17,0.07c0,0.04,0,0.08,0,0.12c0.28,0.04-0.03,0.45,0.35,0.57c-0.3,0-0.1,0.73,0.06,0.4
		c-0.08,0.22,0.17,0.12,0.12,0.3c-0.02,0.1-0.22,0.04-0.17,0.23c0.13,0.08,0.22-0.15,0.23,0c-0.27,0.44,0.55,1.159,0.17,1.68
		c0.18,0.14,0.13,0.479,0.18,0.53c0.16,0.17,0.56,0.18,0.8,0.18c1.03,0,2.53-0.18,3.27,0.061c1.2-0.15,2.4-0.16,3.55-0.23
		c0.53-0.029,1.2,0.1,1.8,0c0.1,0,0.199-0.12,0.3-0.1c0.6,0.05,1.12-0.021,1.62,0c0.039-0.221,0.18-0.2,0.3-0.07
		c0-0.27,0.521-0.3,0.569-0.05c0.051-0.101,0.15-0.15,0.301-0.181c0,0,0.64,0.021,0.58,0c0.13,0.041,0.14,0.221,0.229,0.23
		c0.47,0.05,1-0.32,1.45,0c0.16-0.05,0.2-0.2,0.4-0.23c0.43,0.34,1-0.06,1.52,0.23c-0.07,0.1-0.07,0.15,0,0.24
		c0.54-0.08,1.38,0.1,2.15-0.061c0.4-0.34,0.72-0.74,1.16-1.039c-0.061-0.33-0.051-0.521,0.24-0.701
		c-0.131,0-0.031-0.199-0.061-0.299c0.3-0.48,0.26-1.47,0.82-1.85c0.06-0.37,0.119-0.77,0.47-0.86c0-0.67,0.18-1.26,0.569-1.28
		c-0.1-0.33,0.4-0.54,0.23-1.1c0.1,0,0.18-0.02,0.23-0.07c0.43-1.02,1-1.88,1.34-2.97c-0.9-0.04-1.36,0.22-1.98,0
		c-2.33,0.1-5.4,0.07-8.1,0.06c-0.07,0.06-0.02,0.27-0.17,0.28c-0.631-0.1-0.7,0.06-1.16-0.06c0.08-0.26,0.359-0.1,0.4-0.3H30.58z
		 M25.18,38.52c0.05,0.181-0.1,0.181-0.12,0.301c0.1,1.279-0.98,2.64-1.92,3.07c-0.46,0.64-1.93,0.42-2.33,0.5
		c-0.08-0.101-0.26-0.101-0.28-0.281c-0.05,0.051-0.1,0.101-0.1,0.181c-0.08,0-0.06-0.101-0.07-0.181
		c-2.03-0.449-3.07-1.829-3.03-3.659c0.13,0.02,0.03,0.3,0.06,0.399c0.03-0.5,0.36-1.279,0.4-1.74c0.4-0.1,0.45-0.52,0.6-0.869
		c0.5,0,0.7-0.66,1.1-0.4c0.08-0.02,0.02-0.18,0.1-0.18c0.4,0.3,0.92-0.68,1.35-0.061c1.47-0.069,2.48,0.601,3.14,1.23
		c0.26,0.25,0.28,0.42,0.47,0.76c0.14,0.24,0.6,0.551,0.64,0.92L25.18,38.52z M19.94,36.66c-0.37,0.65-1.2,1.34-1.28,2.38
		c-0.1,1.34,1.14,2.399,2.15,2.5c1.44,0.14,3-1.649,2.8-2.8c0.03,0.199-0.05,0.27-0.23,0.24c0.1-0.301,0.07-0.801,0-1.101
		c-0.18,0.05-0.54,0-0.46-0.35c-0.44-0.06-1.08-0.601-1.62-0.4c-0.03-0.25-0.46-0.2-0.76-0.3c0.13-0.18,0.2-0.15,0.06-0.35
		c-0.22,0-0.23,0.199-0.52,0.119c0.06,0.24,0.03,0.141-0.12,0.061H19.94z M33.2,36.66c0.159-0.061,0.399,0,0.47,0.23
		c0.1,0,0.07-0.171,0.23-0.131c0.039,0.2,0.149,0.32,0.399,0.301c0.04,0.1,0.181,0.1,0.06,0.22c0.971,0.56,1.141,2,0.641,3.02
		c-0.17-0.069-0.3,0.2-0.17,0.23c-0.28,0.25-0.6,0.46-0.76,0.8c-0.1,0.04-0.1-0.03-0.1-0.1c-0.101,0.02-0.061,0.14-0.07,0.229
		c-1.4,0.95-3.871,1.2-4.94-0.12c-0.569-0.13-0.94-0.92-1.229-1.449c0.24-0.971-0.17-1.951,0.47-2.601c0-0.101-0.07-0.13-0.06-0.24
		c0.159-0.02,0.25-0.27,0.399-0.1c0-0.101,0-0.17,0-0.25c0.14,0,0.229,0.02,0.3,0.069c0.03-0.18-0.199-0.149-0.061-0.3
		c0.121,0,0.101,0.101,0.121,0.2c0.1-0.17,0.43-0.12,0.34-0.48c0.4-0.06,0.42-0.039,0.82-0.18c0.049,0.04,0.029,0.15,0.1,0.17
		c0.1-0.02,0.07-0.13,0-0.13c0.1-0.1,0.359-0.17,0.48-0.05c0.84-0.66,2.17-0.02,2.56,0.641V36.66z M32.561,37.46
		c-0.25,0.03-0.221-0.18-0.351-0.28c-1.44-1.07-3.8,0.7-3.2,2.381c0,0.08-0.1,0.06-0.1,0.119c0.13,0.601,0.9,0.7,1.279,0.87
		c-0.16,0-0.35-0.03-0.35,0.12c0.301,0.18,0.62,0.12,0.75,0.35c0.02-0.1,0.1-0.129,0.24-0.119c0.73,0.279,1.54-0.26,2.15-0.521
		c0.1,0,0.039,0.2,0.17,0.17c0-0.3,0.1-0.17,0.3-0.229c0.399-0.641,0.649-2.5-0.36-2.67c0.02-0.17-0.13-0.181-0.1-0.351
		c-0.28,0.021-0.16,0.431-0.48,0.4c0.02-0.08,0.1-0.101,0.061-0.23L32.561,37.46z M32.561,40.96c0.229,0,0.35-0.12,0.35-0.351
		c-0.301,0.15-0.25,0-0.34,0.36L32.561,40.96z"/>
</g>
</svg>
