<?xml version="1.0" encoding="utf-8"?>
<!-- Generator: Adobe Illustrator 15.0.2, SVG Export Plug-In . SVG Version: 6.00 Build 0)  -->
<!DOCTYPE svg PUBLIC "-//W3C//DTD SVG 1.1//EN" "http://www.w3.org/Graphics/SVG/1.1/DTD/svg11.dtd">
<svg version="1.1" id="Layer_1" xmlns="http://www.w3.org/2000/svg" xmlns:xlink="http://www.w3.org/1999/xlink" x="0px" y="0px"
	 width="50px" height="50px" viewBox="0 0 50 50" enable-background="new 0 0 50 50" xml:space="preserve">
<g id="shopping">
	<path d="M23.02,17.24c0.16,0.07,0.3,0.07,0.46,0C23.53,17.51,23.04,17.41,23.02,17.24z M28.9,40.22
		c0.06,0.181-0.101,0.14-0.131,0.23c-0.17,0.04-0.1-0.16-0.299-0.12c0.1-0.221,0.25,0,0.42-0.1L28.9,40.22z M39.42,30.04
		c-0.16,0-0.05-0.229-0.23-0.181c-0.069,0.33,0.201,0.341,0.33,0.471c-0.1,0.5-0.42,0.47-0.299,1c0.059,0.16,0.1-0.15,0.25-0.07
		c-0.341,1.32-0.301,2.801,0.1,4.24c-0.551,0.77-0.16,1.4-0.221,2.27c0.021,0.08,0.101,0,0.101-0.06c-0.13,1.36,0.06,3.2-0.271,4.67
		c-0.14,0-0.039-0.25-0.07-0.35c-0.229,0.069-0.02,0.26-0.119,0.399c-1.28-0.439-3.17-0.06-4.061-0.52
		c-0.199,0.3-1.029-0.08-1.5,0.17c-0.47-0.23-0.9,0.029-1.35-0.17c-2.1,0.199-5.17-0.02-7.34,0.06c-0.22,0-0.58,0-0.58,0.23
		c-0.1,0-0.12-0.08-0.23-0.07c-0.14-0.021-0.07,0.17-0.18,0.181c-0.34,0.08-0.4-0.121-0.58-0.23c-1.22,0.32-2.34,0.1-3.73,0.12
		c-1.92,0.02-4.68,0.1-6.8-0.42c-0.64,0.28-1.63,0.25-1.98-0.171c0.1-0.76-0.22-1.67-0.25-2.549c-0.03-1.24,0.06-2.631-0.05-3.951
		c-0.07-0.85,0.1-1.819,0.1-2.5c0.03-0.719-0.08-1.42-0.1-2.27c0-0.42-0.08-0.85-0.06-1.23c0-0.27,0.2-0.579,0.17-1.039
		c0-0.34-0.25-0.95-0.05-1.28c-0.05-0.06-0.1-0.12-0.17-0.181c-0.1-2.919,0.44-6,0.12-9.359c0.08,0,0.02,0.17,0.1,0.18
		c0.06-0.26-0.14-0.4,0-0.65c-0.25-0.021-0.28,0.08-0.45,0c0-0.44,0.77-0.7,0.35-1.04c0.13-0.2,0.4-0.6,0.64-0.35
		c0.13-0.04,0.04-0.3,0.3-0.23c0.17-0.06,0.07,0.2,0.16,0.23c1.03,0.12,2.86,0.12,4.07,0.06c0.6-0.58,0.55-1.92,1.34-2.44
		c0-0.12,0-0.24,0-0.35c0.17,0.04,0.16-0.1,0.3-0.06c0.48-1.24,1.5-1.93,2.15-2.98c0.97-0.45,1.66-1.17,2.62-1.63
		c0.02,0.1-0.04,0.15-0.06,0.22c0.35-0.18,0.72-0.33,1.06-0.52c0.14,0,0.17,0.1,0.35,0.06c1.35-0.5,2.7,0.15,3.96,0.06
		c0.7,0.44,1.381,0.9,2.04,1.4c0.72,1.06,1.75,2.3,2.5,3.54c0,1.18,0.56,1.5,0.8,2.4c1.051,0.14,1.7,0,2.98,0
		c0,0.1-0.07,0.1-0.061,0.22c0.5-0.38,1.851,0.16,2.67-0.23c0.261,0.27,1.121-0.1,1.5,0.23c0.031,0.2-0.1,0.28-0.1,0.47
		c-0.1,0-0.1-0.06-0.18-0.06c0.08,0.42,0,1.3,0,2.2c0,0.37,0.1,0.73,0.061,1c-0.021,0.1-0.121,0.1-0.121,0.16
		c0.03,0.46,0.58,0.88,0.17,1.22c0.36,0.5,0.25,0.84,0.181,1.46c0.45,0.43-0.04,1.37,0,1.97c0.159,0.03,0.2-0.07,0.18-0.22
		c0.149,0.08,0.05,0.57-0.101,0.35c0.08,0.36,0.08,0.4-0.069,0.7c0.101,0,0.17,0.1,0,0.23c0.021,0.1,0.101,0.13,0.24,0.12
		c-0.08,0.1,0.021,0.37-0.171,0.35c0.23,1.35-0.299,1.95-0.239,3.02c-0.13,0.02-0.06-0.17-0.17-0.17c-0.04,0.141,0.069,0.34,0,0.641
		c0.021,0.199,0.159-0.201,0.17,0c0,0.069,0,0.149,0,0.229c-0.2-0.2-0.25,0.56-0.101,1H39.42z M29.6,12.07
		c-1-1.53-2.729-2.87-4.6-2.97c-1-0.47-1.95-0.08-2.8,0.35c-2.2,1.1-3.86,3.1-4.6,5.3c-0.3,0.02-0.28,0.36-0.34,0.63
		c2.4,0.07,3.95-0.05,6.05-0.06c1.1,0,2.35,0.22,3.6,0.12c0.65-0.05,1.27-0.1,1.93-0.06c0.12-0.03,0.02-0.3,0.23-0.23
		c0.32,0.05,1.1,0.22,1.57,0C30.67,13.81,29.57,13.05,29.6,12.07z M32.32,15.03c0-0.18-0.021-0.32-0.1-0.4
		C32.07,14.76,32.27,14.9,32.32,15.03z M29.42,17c-0.12,0-0.12-0.15-0.24-0.16c-0.08,0.03,0,0.22-0.1,0.23
		c-0.1-0.14-0.2-0.24-0.359-0.3c-0.021,0.05,0,0.12-0.061,0.12c-0.03,0.24,0.33,0.1,0.35,0.28c-0.06,0-0.05,0.1-0.05,0.18
		c-0.3-0.02-0.58,0.1-0.87,0c0.1-0.12,0.18-0.37,0-0.47c-0.061,0.4-0.27,0.42-0.47,0.58c-0.06,0-0.05-0.1-0.05-0.18
		c-0.16,0-0.131,0.18-0.301,0.17c-0.029-0.18-0.149-0.3-0.279-0.4c-0.2,0.2,0.18,0.16,0.119,0.4c-0.359-0.1-0.649,0.07-1.06-0.1
		c0-0.17,0.181-0.14,0.171-0.3c-0.051-0.07-0.201-0.07-0.33-0.06c-0.041,0.22,0.27,0.37,0,0.48C25.77,17.3,25.689,17.25,25.77,17
		c-0.319-0.06-0.22,0.3-0.399,0.36c0-0.1,0-0.2,0-0.3c-0.15-0.03-0.2-0.04-0.4-0.1c-0.15,0.23,0.2,0.43-0.2,0.52
		c-0.14-0.2,0.17-0.25,0-0.47c-0.27,0.06,0,0.4-0.22,0.42c-0.15,0-0.18-0.1-0.23-0.18c0.1,0.1,0.1-0.03,0.3,0c0-0.1,0-0.2,0-0.3
		c-0.16,0.2-0.38-0.02-0.6,0.13c-0.04,0.17,0.1,0.17,0.06,0.35c-0.17-0.15-0.42,0.08-0.46-0.12c0.15-0.16,0-0.3,0.3-0.17
		c-0.06-0.26-0.17-0.1-0.36-0.24c-0.02,0.1-0.02,0.24-0.17,0.23c0.06-0.1,0.06-0.15,0-0.24c-0.3,0-0.6,0-0.88,0
		c-0.08,0.14,0.22,0.18,0.05,0.23c-0.08,0-0.15,0-0.23,0c-0.06-0.1,0.17-0.2,0-0.24c-0.06,0.05-0.12,0.1-0.18,0.17
		c0-0.1,0.07-0.13,0.06-0.23c-2.17,0.1-3.43,0-5.4,0.23c0.1,1.23-0.4,2.52,0.1,3.43c0,0.2-0.22-0.15-0.16,0.12
		c0.57,0.55,1.5,1.52,0.7,2.44c-0.08,0.2,0.18,0.04,0.1,0.23c-0.12,0.1-0.2,0.53-0.46,0.34c-0.1,0.4-0.67,0.4-0.98,0.4
		c-1.03,0-2.25-0.76-2.16-1.68c-0.12,0-0.18-0.05-0.17-0.17c0.05-0.5,0.3-0.8,0.35-1.3c1.2-0.57,1.17-2.36,1.16-3.72
		c-0.4,0-0.75,0.17-0.87-0.1c-0.28,0.5-1.25,0.36-1.62,0.5c0.06-0.1,0.26-0.08,0.23-0.28c-0.2,0.06-0.15-0.15-0.34-0.12
		c0.02,0.15-0.02,0.25-0.17,0.24c0-0.2-0.27-0.1-0.2-0.35c0.32-0.04,0.42,0.02,0.6-0.18c-0.26-0.16-0.55,0.07-0.82-0.07
		c-0.1,0.32,0.18,0.3,0.23,0.47c-0.1-0.02-0.1,0.06-0.22,0.06c0.1,0.94-0.17,1.7,0.06,2.15c-0.28,0.5-0.06,0.96-0.06,1.46
		c0,2.85-0.45,5.8-0.4,8.6c0.02,1.36,0.15,2.761,0.3,3.961c-0.15,0.5,0.2,1.24,0.1,2.039c-0.12,1.041,0.26,2.301,0.06,3.08
		c0.56,0.461,0.16,1.2,0.12,1.92c2.33,0.201,5.02-0.18,7.62,0.181c0-0.07,0-0.17,0.05-0.181c1.55,0,4.43,0.051,6,0.121
		c0.149-0.24,0.72-0.181,0.92,0c0.53-0.4,1.271,0.18,1.521-0.301c0.359,0.42,0.699,0.03,1.33,0.24c-0.07-0.24-0.101-0.15,0-0.35
		c-0.201,0.029-0.32-0.021-0.34-0.181c0.149,0.171,0.199,0.05,0.399,0c0.16,0.12,0.021,0.2,0.12,0.341c0.359-0.101,0.68,0,1.22,0
		c0-0.4-0.72,0-0.521-0.4c0.141,0.4,0.98-0.27,1.101,0.23c-0.101,0.1-0.42-0.041-0.399,0.17c0.34-0.041,0.58,0.08,0.699-0.101
		c-0.14-0.08-0.18,0.021-0.24-0.2c0.44,0,0.551,0.141,0.871-0.05c1.34,0.44,3.729-0.351,4.729,0.3c-0.07,0-0.04,0.051,0,0.1
		c-0.261,0.15-0.46,0.17-0.649,0.301c0.26,0.119,0.5,0,0.879,0c0.18-2.051-0.1-3.95,0-5.6c-0.02-0.131,0.16-0.061,0.17-0.17
		c-0.479-0.25,0.041-0.66-0.299-1.041c0.279-0.24,0.149-0.529,0.199-0.77c0.2-1.26,0-2.65,0.04-4c0.05-1.92,0.229-3.77,0-5.3
		c-0.399-0.04-0.34-0.82-0.05-0.76c-0.1,0-0.15-0.05-0.18-0.12c0-1.88,0.25-3.65,0.18-5.58c0.02-0.1,0.119-0.15,0.1-0.3
		C37.58,16.95,37,17,36.9,16.93c0.07-0.08,0.199-0.24,0-0.3c-0.101,0.05,0,0.34-0.121,0.36c-0.199-0.1-0.619-0.06-0.979,0.06
		c0.101-0.2-0.38-0.05-0.53-0.06c-0.08-0.1,0.021-0.37-0.17-0.35c0.061,0.17,0.03,0.3-0.119,0.36c-0.371-0.27-0.9,0.36-1.34-0.1
		c-0.101,0.27-0.17,0.1-0.351,0.16c0.34,1.14,0.5,2.34,0.3,3.55c0.73,0.62,1.57,1.82,0.631,2.62c-0.641,1.48-3.601,0.2-3.371-1.53
		c0.08-0.54,0.561-1.3,1.17-1.28c0.021-0.47-0.119-1.25-0.229-1.63c-0.17-0.63-0.181-1.52-0.7-1.8c-0.05,0.1,0.18,0.2,0,0.22
		c-0.23-0.12-0.439-0.26-0.699-0.35c0,0.1-0.031,0.2-0.101,0.23c-0.05-0.18,0.05-0.2,0.05-0.35c-0.23,0.17-0.48,0.5-0.699,0.229
		c0.139-0.02,0.26-0.2,0.17-0.3c-0.16,0.28-0.4-0.13-0.351,0c0.06,0.1,0.06,0.16,0,0.25L29.42,17z M13.19,17.42
		c0.15,0.02,0.17-0.4,0.1-0.4C13.25,17.14,13.17,17.24,13.19,17.42z M11.43,22.42c0.22-0.1,0.17-0.44,0.06-0.58
		C11.39,21.94,11.45,22.22,11.43,22.42z M15.21,22.59c0.03-0.1,0.27-0.5,0-0.53c0.02,0.16-0.16,0.4,0,0.52V22.59z M15.51,23.05
		c0.15,0.1,0.63,0.1,0.58-0.18c-0.17,0.06-0.35-0.13-0.4-0.34C15.61,22.69,15.55,22.86,15.51,23.05z M32.84,23.28
		c0.24,0.06,0.221-0.13,0.4-0.12c-0.15-0.17,0.15-0.3,0-0.4c0,0.38-0.48,0-0.4,0.5V23.28z M15.04,23.15c-0.08,0-0.3-0.16-0.3-0.05
		C14.81,23.2,14.97,23.4,15.04,23.15z M36.21,40.65c0.04,0.1,0.38,0.3,0.399,0C36.41,40.71,36.311,40.55,36.21,40.65z M27.439,40.33
		c0.15-0.141,0.261,0.04,0.461-0.061C27.82,40.47,27.54,40.33,27.439,40.33z"/>
</g>
</svg>
