<?xml version="1.0" encoding="utf-8"?>
<!-- Generator: Adobe Illustrator 15.0.2, SVG Export Plug-In . SVG Version: 6.00 Build 0)  -->
<!DOCTYPE svg PUBLIC "-//W3C//DTD SVG 1.1//EN" "http://www.w3.org/Graphics/SVG/1.1/DTD/svg11.dtd">
<svg version="1.1" id="Layer_1" xmlns="http://www.w3.org/2000/svg" xmlns:xlink="http://www.w3.org/1999/xlink" x="0px" y="0px"
	 width="50px" height="50px" viewBox="0 0 50 50" enable-background="new 0 0 50 50" xml:space="preserve">
<g id="services">
	<path d="M37.32,25.4c0.18-0.08-0.061-0.2,0-0.36c0.18,0.12,0.17,0.42,0.24,0.64c-0.58-0.119,0.299,0.66,0,1.17
		c-0.201,0.061-0.16,0.021-0.301-0.06c0.28,0.37-0.029,0.7,0.301,1.101c0.049-0.051,0.08-0.101,0.1-0.181
		c0.199,0.75-0.1,1.601,0.07,2.8c0,0.12,0.049,0.17,0.17,0.16c-0.131,0.221-0.45,0.25-0.521,0.53c-2.53,0.05-5.3,0.2-7.44,0
		c-0.02,0.239-0.6,0.22-0.64,0.069c-0.159-0.02-0.2,0.08-0.18,0.23c-0.2-0.05-0.3-0.2-0.58-0.18c-0.2,0.02,0,0.16-0.12,0.18
		c-0.949-0.2-2.18,0.05-3.08,0c-0.16,0-0.38-0.2-0.52-0.18c-0.12,0-0.18,0.199-0.3,0.18c-0.08,0-0.27-0.23-0.46-0.18
		c-0.2-0.03-0.17,0.18-0.35,0.18c-1.32-0.08-3.5-0.1-4.75,0.17c-2.16-0.12-4.18-0.05-6.75-0.17c0-0.18-0.06-0.28-0.3-0.35
		c-0.02-1.541-0.14-4.2,0.76-5.53c0-0.13-0.1-0.17-0.05-0.35c1.04-1.94,2.23-3.74,3.67-5.3c0.16,0.021,0.12-0.1,0.23,0
		c0.15-0.14,0.5-0.6,0.87-0.5c-0.05-0.12,0.18-0.2,0-0.24c0.53-0.08,0.78-0.5,1.23-0.6c0.13-0.22,0.45-0.27,0.64-0.45
		c0.8-0.02,1.6-0.6,2.67-0.7c0.1,0,0.12,0.04,0.13,0.12c0.05-0.12,0.16-0.2,0.23-0.3c-0.24,0-0.2-0.48-0.12-0.63
		c-0.37-0.17-0.8,0.02-1.16-0.06c-0.6-0.13-0.95-0.77-1.28-1.2c-0.02-0.15,0.17-0.08,0.17-0.2c-0.3-0.53,0.27-1.1,0.35-1.62
		c0.62-0.58,1.8-0.6,2.5-1.1c1.3,0.17,3.6-0.2,4.95,0.3c0.1,0.03,0.43,0.2,0.521,0.28c0.059,0.06,0.039,0.24,0.1,0.3
		c0.05,0.02,0.199-0.04,0.24,0c0.399,0.2,0.399,0.78,0.58,1.27c0.199-0.05,0.139,0,0.35-0.06c0.08,0.9-0.53,1.46-0.7,2.2
		c-0.3,0.1-0.64,0.03-0.87,0.2c-0.12,0.07-0.07,0.3-0.3,0.28c0.14,0.57,1.271,0.13,1.58,0.521c0.149,0,0.28-0.03,0.35-0.12
		c0.56,0.18,1.101,0.38,1.8,0.53c0.221,0.3,0.851,0.63,1.051,0.46c0.1,0.4,0.279,0.36,0.459,0.7c0.061-0.04,0.061-0.13,0.181-0.12
		c0,0.1,0.08,0.47,0.3,0.3c0.46,0.54,0.9,1.1,1.5,1.5c-0.029,0.05-0.061,0.1-0.061,0.18c0.201-0.06,0.201-0.04,0.121,0.12
		c0.1,0,0.119-0.07,0.229-0.06c0.28,0.5,0.36,0.86,0.94,1.22c-0.18-0.06-0.061,0.4,0.06,0.52c0.13-0.35,0.101,0.1,0.3,0.18
		c0.041,0.24-0.119,0.27-0.119,0.46c0.5,0.33,0.739,1.05,1.039,1.75H37.32z M25.7,13.17c0.34,0.16,0.44-0.03,0.8,0.06
		C26.359,13.01,25.93,12.9,25.7,13.17z M26.4,18.34c-0.4-0.68-0.33-1.62,0-2.32c0.699,0.08,1.1-0.54,1.039-1.4
		c-0.299-0.08-0.34-0.44-0.399-0.58c-1.28-0.32-3.57-0.17-4.84-0.12c-0.18,0.45-0.63,0.6-0.52,1.34c0.38,0.28,0.52,0.8,1.28,0.7
		c0,0.08-0.1,0.1-0.12,0.17c0.3,0,0.5,0.1,0.7,0.18c-0.2,0.9,0.28,1.86-0.35,2.56c-0.26,0.07-0.08-0.28-0.3-0.23
		c-0.44,0.17-0.88,0.07-1.4,0.05c-1.44,0.62-2.84,1.28-3.9,2.33c-1.04,1.05-2.52,2.73-3.2,4.25c-0.55,1.27-0.78,2.75-0.74,4.419
		c0.3,0.041,0.52,0.17,0.8,0.23c0.1,0,0.05-0.15,0.18-0.12c0.92-0.06,1.82,0.271,2.8,0.13c0.08,0,0.15-0.16,0.23-0.18
		c0.2-0.05,0.96-0.04,1.22,0c0.3,0.05,0.32-0.03,0.63-0.05c0.08,0,0.18,0.12,0.3,0.1c0.2,0,0.32-0.2,0.45,0
		c0.07-0.22,0.6-0.229,0.64,0c-0.04-0.2,0.06-0.239,0.18-0.28c0.03,0.07,0.06,0.131,0.12,0.181c0.03-0.46,0.4-0.021,0.64,0
		c0.23,0,0.04-0.3,0.34-0.12c0.28,0.17,0.58-0.2,0.82,0.17c0-0.18,0.15-0.2,0.3-0.23c0.5,0.24,1.26-0.039,1.8,0.351
		c0.04-0.22,0-0.07,0.17-0.229c0.451,0.219,0.65,0,1.1,0.17c0-0.051-0.021-0.15,0.05-0.16c0.1,0.069,0.26,0.08,0.301,0.229
		c0.35-0.14,0.649-0.1,0.979,0.06c0.43-0.299,1.68,0.021,2.329-0.35c1.271,0.02,1.761-0.05,2.9,0.061c0-0.07,0-0.17,0.061-0.181
		c0,0.07,0,0.171,0.06,0.181c0.03-0.07,0.06-0.131,0.12-0.181c0.641,0.03,1.62,0.47,2.5-0.05c0.08-1.65-0.05-2.58,0.051-3.77
		c-0.73-1.101-0.771-2.88-1.801-3.67c-0.02,0.1,0.1,0.15,0,0.18c-0.199-0.1-0.22-0.4-0.35-0.6c0,0.1-0.141,0.07-0.23,0.07
		c-0.779-0.74-1.58-1.47-2.5-2.08c-0.061,0.1-0.18,0.13-0.3,0.17c-1-0.479-2.2-1.07-3.36-1.17c0.1,0.3-0.699-0.27-0.8-0.18
		L26.4,18.34z M20.8,15.61c-0.1-0.05-0.1-0.2-0.23-0.23c-0.05,0.16,0.16,0.37,0.24,0.22L20.8,15.61z M27.73,17.94
		c0.24,0.1,0.5,0.14,0.799,0.17C28.48,17.88,27.811,17.78,27.73,17.94z M13.3,27.141c0.03-0.531,0.48-0.94,0.4-1.351
		c-0.2,0.33-0.47,0.899-0.4,1.34V27.141z M13.25,28.12c-0.18-0.24,0.13-0.601-0.06-0.82c0,0.28-0.26,0.78,0.05,0.82H13.25z
		 M13.42,30.79c0-0.24,0-0.479,0.06-0.64c-0.28,0.029-0.1-0.051-0.12-0.23c-0.08,0-0.13-0.029-0.17-0.061
		c0.12,0.36-0.33,0.851,0.22,0.931H13.42z M12.55,31.02c0-0.1-0.06-0.629-0.18-0.8C12.45,30.46,12.2,31.05,12.55,31.02z
		 M32.38,37.28c-0.08,0.02-0.021,0.18-0.12,0.18c-1.22-0.069-3.43,0.04-5.17,0.06c-2.18,0.021-4.42-0.129-6.53,0
		c-0.03-0.05-0.06-0.1-0.05-0.18c-0.18,0.18-0.76,0.25-0.93,0c-0.17,0.141-0.28,0.141-0.42,0.18c-0.62-0.319-1.32,0-2.04-0.06
		c-0.46-0.05-0.84-0.2-1.28,0c-0.2-0.24-0.57-0.03-1,0c-0.1,0.03-0.07-0.101-0.16-0.12c-0.2,0.221-1.06,0.23-1.28-0.06
		c-0.32,0.52-0.87-0.13-1.34,0.18c-0.15-0.22-0.26-0.101-0.46-0.06c-0.28,0.05-0.44-0.33-0.88-0.301
		c-0.02,0.101,0.05,0.12,0.12,0.131c-0.84,0-1.55,0-2.5,0c-0.3-0.961,0.12-1.601-0.23-2.16c0.03-0.17,0.12-0.301,0.17-0.461
		c0-0.399-0.1-0.629,0.12-0.859C8.26,32.91,8.85,32.49,8.86,32c0.24-0.04,0.22-0.33,0.35-0.47c0.06,0,0.05,0.069,0.06,0.1
		c0.74-0.5,1.27-0.899,2.08-1.33c0.14,0,0.23,0,0.3,0.06c0.12-0.069,0.22-0.159,0.34-0.229c1.25-0.021,2.44-0.1,3.9-0.229
		c0.03,0.05,0.06,0.1,0.06,0.17c0.07,0,0.05-0.101,0.06-0.17c0.58,0,0.87-0.07,1.22,0.17c0.8-0.351,1.7,0.14,2.56,0.06
		c0.32-0.03,0.83-0.021,1.28-0.06c0.25-0.021,0.56-0.301,0.7,0.06c0.08,0,0-0.17,0.1-0.17c0.25-0.069,0.24,0.12,0.42,0.101
		c0.7-0.101,1.72-0.271,2.32-0.041c1.46-0.1,3.83-0.1,5.64-0.119c2.02,0,3.8-0.15,5.4,0.06c-0.041-0.101,0.399-0.28,0.479-0.06
		c0.75-0.4,2.601,0.35,3.08,0.699c0.04,0.021,0.149-0.27,0.12,0.051c1.029,0.119,1.6,1.24,1.92,2.1c0.2-0.12,0.26,0.03,0.4,0.12
		c-0.07,1.12,0.459,2.6,0,3.66c-0.301,0.06-0.32,0.2-0.351,0.399c-0.05,0-0.04-0.06-0.06-0.1c-0.1,0.4-0.58,0.2-0.75,0.46
		c-0.4-0.149-1.45,0.149-1.86-0.13c-1.38,0.07-2.569,0.32-3.96,0.12c-0.17,0.319-0.84,0.04-0.93,0.04c-0.33,0-1.1,0.359-1.4-0.061
		L32.38,37.28z M15.63,30.54c0.24,0.34,0.62,0.18,0.8,0C16.13,30.54,15.96,30.609,15.63,30.54z M21.73,35.72
		c0.26,0.021,0.38,0.2,0.53-0.06c0.14,0.1,0.34,0.04,0.76,0.06c0.07,0.13,0,0.101,0.05,0.3c-0.23-0.16-0.15,0.121-0.3,0.221
		c0.33-0.021,0.32-0.051,0.54,0.06c0.07-0.33-0.08-0.12-0.17-0.239c0.04-0.101-0.07-0.341,0.06-0.351
		c0.07,0.17,0.14,0.08,0.28,0.021c0.13,0,0.2,0.359,0.3,0.229c-0.08,0-0.08-0.16,0-0.18c0.78,0.2,1.38,0.03,2.201,0.3
		c0.58-0.2,1-0.03,1.5,0.05c1.24-0.399,3.6-0.2,5.25-0.46c0.14,0.18,0,0.3,0.17,0.4c0-0.08-0.021-0.2,0.06-0.23
		c0.38,0.2,0.95-0.199,1.22,0.061c0.141-0.42,0.5,0.149,0.641-0.131c-0.021,0.28,0.13,0.061,0.24,0.24c0.08-0.13-0.15-0.199,0-0.229
		c0.199,0.05,0.239-0.061,0.34-0.101c0,0.12,0.02,0.2,0.119,0.221c0.101-0.141,0.16-0.16,0.181-0.24c0.04,0.15,0.271,0.1,0.34,0.23
		C36,35.689,36.1,35.62,36.221,35.59c0,0.08,0.1,0.1,0.119,0.17c-0.061,0.061-0.119,0.12-0.18,0.18c0.25,0.021,0.199-0.27,0.4-0.299
		c0,0.1,0,0.199,0,0.299c0.16-0.02,0.17-0.199,0.399-0.119c0,0.08-0.06,0.08-0.04,0.18c0.54,0.05,0.57-0.24,0.98-0.05
		c0.5-0.261,1.55-0.15,2.27-0.3c0.33-0.7,0.221-1.48-0.17-2.03c-0.32-1.03-1.5-2.16-2.74-2.101c-0.13-0.42-0.92,0-1.1-0.459
		c-0.2-0.051-0.12,0.149-0.23,0.18c-0.13-0.23-0.57,0-0.76-0.24c-0.8,0.3-1.75,0.1-2.5,0.35c-0.199-0.25-0.3,0.101-0.46-0.1
		c0,0.07,0.03,0.2-0.05,0.221c-0.12-0.121-0.23,0.02-0.35,0.06c-0.141-0.021-0.101-0.2-0.301-0.181c-0.14,0.08,0.07,0.221-0.05,0.24
		c-1.739,0.1-3.36-0.16-5.06,0.04c0.05-0.08,0.05-0.14-0.07-0.17c0.04,0.22-0.439,0.14-0.35-0.06c-1.24,0.199-2.63-0.17-3.72-0.051
		c-0.05,0-0.07-0.05-0.06-0.1c-0.75,0.2-2.27,0.17-3.03,0.1c-0.18,0.32-0.6,0.101-0.93,0.351c0-0.04,0-0.101-0.05-0.101
		c-0.42,0.07-1.27,0.221-2.1,0.16c0-0.199-0.1-0.25-0.18-0.35c-0.05,0.16,0.17,0.33,0,0.42c-0.05-0.13-0.04-0.32-0.18-0.35
		c-0.03,0.1,0.07,0.34-0.06,0.35c-0.3-0.02-0.16-0.23-0.52-0.12c0-0.14,0.1-0.18,0-0.3c-0.17,0.199-0.34,0-0.4,0
		c-0.42,0-1.25,0.1-1.63,0.24c-0.15,0.06-0.2,0.22-0.35,0.24c-0.02,0,0-0.141-0.06-0.121c-0.1,0.03-0.18,0.15-0.3,0.17
		c-0.8,0.201-1.73,0.541-2.03,1.521c-0.58,0.399-0.52,1.53-0.3,2.271c0.76,0.039,1.23-0.03,1.8,0.17c0-0.101,0.05-0.16,0.12-0.18
		c-0.02,0.129,0,0.199,0.12,0.229c0-0.25,0.42-0.08,0.46,0c0-0.07,0-0.17,0.06-0.181c0.78,0.301,1.4,0.371,1.98,0.24
		c0.06,0.061,0.02,0.221,0.17,0.18c0.02-0.069,0-0.17,0.07-0.17c1.04,0.23,3.6,0,5.18,0.121c-0.1-0.16,0.15-0.261,0.17-0.101
		c-0.26,0,0.2,0.12,0.23,0.22c0.02-0.33-0.15-0.529,0.24-0.529c0.06,0.199-0.24,0.319-0.07,0.42c0.1,0,0.58,0.229,0.75-0.061
		c-0.2-0.05-0.6,0.051-0.64-0.3c0.06,0,0.07-0.04,0.12-0.05c0.1,0.02,0.12,0.4,0.23,0.199c-0.17-0.239,0.18-0.1,0.34-0.199
		c-0.14,0.199,0.15,0.3,0,0.48c0.45-0.121,0.57,0,0.82,0c-0.12-0.041-0.02-0.301-0.24-0.23c-0.08,0.25-0.3-0.051-0.28-0.23
		L21.73,35.72z M16.56,31.52c0.1-0.199,0.2,0.2,0.3,0c0-0.1-0.05-0.14-0.12-0.17c0,0.101-0.42,0.041-0.18,0.18V31.52z M8.88,35.07
		c0.22-0.271,0.28-0.601,0.06-0.93C8.9,34.439,8.86,34.72,8.88,35.07z M22.73,36.24c0.05-0.18-0.06-0.48-0.18-0.301
		C22.72,35.939,22.48,36.34,22.73,36.24z M32.609,36.54c0.101,0,0.07,0.13,0.07,0.22c0.15,0,0.141-0.13,0.23-0.17
		c-0.061-0.02-0.061-0.1-0.061-0.199c-0.1,0.02-0.199,0.049-0.229,0.129L32.609,36.54z M31.41,36.641c0.14,0,0.57,0.17,0.8-0.171
		c-0.22,0.101-0.7-0.06-0.8,0.181V36.641z"/>
</g>
</svg>
