<?xml version="1.0" encoding="utf-8"?>
<!-- Generator: Adobe Illustrator 15.0.2, SVG Export Plug-In . SVG Version: 6.00 Build 0)  -->
<!DOCTYPE svg PUBLIC "-//W3C//DTD SVG 1.1//EN" "http://www.w3.org/Graphics/SVG/1.1/DTD/svg11.dtd">
<svg version="1.1" xmlns="http://www.w3.org/2000/svg" xmlns:xlink="http://www.w3.org/1999/xlink" x="0px" y="0px" width="50px"
	 height="50px" viewBox="0 0 50 50" enable-background="new 0 0 50 50" xml:space="preserve">
<defs>
	<style><![CDATA[
		#sprites > * { display: none; }
		#sprites > *:target { display: inline; }
	]]></style>
</defs>
<g id="sprites">
	<g id="fitness-recreation">
		<path fill-rule="evenodd" clip-rule="evenodd" d="M29.626,12.168c-0.018-0.104,0.226-0.004,0.175,0.116
			c0.284-0.32,0.83-0.015,1.104-0.059c-0.03,0.047-0.061,0.095-0.058,0.175c0.087-0.106,0.21-0.178,0.407-0.175
			c-0.008,0.104,0.07,0.123,0.058,0.233c0.229-0.059,0.249-0.254,0.466-0.058c0.136-0.154,0.141-0.266,0.406-0.175
			c0.084,0.563,0.6,0.983,0.233,1.629c0.331,0.671,0.354,1.169,0.466,1.803c-0.084,0.128-0.143-0.073-0.176,0.058
			c-0.026,0.124,0.084,0.111,0.176,0.116c-0.257,0.121,0.17,0.493-0.117,0.582c0.038,0.078,0.125,0.108,0.232,0.116
			c-0.17,0.174,0.036,0.377-0.174,0.465c0.439,1.206,1.279,1.867,1.861,3.024c0.067,0.01,0.104-0.013,0.115-0.058
			c0.443,0.663,0.872,1.339,1.455,1.861c0.125-0.244-0.371-0.365-0.35-0.698c0.434-0.012,0.613-0.279,0.873-0.465
			c0.054,0.042,0.088,0.105,0.115,0.174c0.103-0.014,0.133-0.1,0.117-0.232c0.592-0.07,1.271-0.013,1.512-0.291
			c0.159,0.088,0.064,0.199,0.175,0.407c0.065-0.206,0.331-0.211,0.523-0.291c0.099-0.021,0.109,0.045,0.116,0.116
			c0.127-0.031,0.376-0.141,0.406,0.058c3.689,0.156,6.033,2.648,7.678,5.234c0.633,0.783,0.815,2.746,0.465,3.897
			c0.11,0.66-0.109,1.095-0.465,1.512c-0.211,0.914-0.453,1.797-1.105,2.269c-0.814,1.513-2.353,2.654-3.373,3.605
			c-0.107-0.009-0.035-0.196-0.116-0.232c-0.12,0.017-0.116,0.155-0.175,0.232c-0.109-0.006-0.039-0.192-0.174-0.174
			c-0.191,0.033-0.084,0.22-0.059,0.349c-0.134,0.018-0.064-0.168-0.174-0.175c-0.127,0.009-0.125,0.146-0.117,0.291
			c-0.58,0.103-1.241,0.474-1.744,0.466c0,0-0.001-0.117,0-0.117c-0.115,0.006-0.123,0.127-0.232,0.117
			c-0.139-0.014-0.076-0.122-0.232-0.175c-0.146-0.049-0.547,0.275-0.582-0.059c-1.07,0.18-2.119-0.614-3.432-0.697
			c-1.52-0.787-2.734-1.879-3.955-2.967c-0.389-1.032-1.365-2.026-1.687-3.14c-0.13-0.455,0.032-0.861-0.232-1.164
			c0.225-3.303,1.712-5.345,3.257-7.328c0.301,0.068,0.305-0.16,0.407-0.291c-0.294-0.097-0.533-0.691-0.756-1.047
			c-0.386-0.304-0.887-0.966-1.047-1.687c-1.005,1.341-1.772,2.918-2.792,4.246c-0.458,1.56-1.847,2.493-2.035,4.129
			c-0.274,0.328-0.502,0.701-0.64,1.164c-0.048-0.012-0.059-0.059-0.117-0.059c0.074,0.885-0.728,0.505-1.279,0.698
			c-0.146-0.103-0.041-0.097-0.116-0.233c-0.175,0.312-0.627-0.168-0.64,0.407c-0.302-0.046-0.292-0.405-0.581-0.465
			c-0.567,0.336-1.504,0.196-2.211,0.175c-0.235-0.008-0.496,0.175-0.756,0.174c-0.372,0-0.645-0.258-0.872-0.058
			c-0.127,0.01-0.186-0.048-0.175-0.175c-0.097,0.295-0.34,0.151-0.523,0.407c0.091,0.602-0.119,1.019-0.175,1.687
			c-0.067-0.01-0.049-0.106-0.058-0.175c-0.112,0.023-0.046,0.226-0.232,0.175c0.215,0.641-0.174,1.154-0.232,1.919
			c-0.354,0.076-0.574,0.63-0.873,0.698c0.013,0.194-0.135,0.352-0.29,0.523c-0.068-0.01-0.05-0.106-0.059-0.175
			c-0.171-0.013-0.354,0.261-0.232,0.35c-0.146,0.216-0.123-0.222-0.116-0.35c-0.201,0.175-0.002,0.317,0,0.582
			c-0.272-0.026-0.297,0.351-0.523,0.291c0.027,0.301-0.497,0.354-0.35,0.581c-0.479-0.144-0.809,0.29-1.104,0.698
			c-0.119-0.121-0.427-0.091-0.466,0.174c-0.236-0.045-0.372-0.124-0.407,0.175c-0.129-0.045-0.227-0.122-0.406-0.116
			c-0.123,0.017,0.084,0.155-0.059,0.232c-0.379,0.029-0.553,0.045-0.814-0.116c-0.078,0.057-0.075,0.196-0.175,0.232
			c-0.054-0.042-0.088-0.105-0.116-0.174c-0.087,0.087-0.331,0.018-0.29,0.232c-0.179-0.058,0.066-0.155,0.058-0.232
			c-0.457,0.514-1.119-0.239-1.744,0.058C10.04,36.84,9.85,36.96,9.096,36.886c-0.091-0.2-0.377-0.204-0.523-0.349
			c-1.428-0.013-2.264-1.104-3.431-1.57c-0.119-0.407-0.641-0.397-0.698-0.989c-0.588-0.294-1.453-1.631-1.861-2.442
			c-0.111-0.223-0.354-0.443-0.407-0.64c-0.021-0.083,0.08-0.211,0.059-0.291c-0.08-0.291-0.34-0.663-0.291-1.047
			c0.007-0.109,0.192-0.04,0.175-0.174c-0.161-0.131-0.169-0.413-0.175-0.698c0.23-0.196,0.299-0.813,0.059-0.872
			c0.045-1.147,0.478-1.732,0.64-2.851c0.158,0.042,0.117-0.115,0.232-0.116c-0.003-0.371,0.125-0.612,0.407-0.698
			c0.144-0.845,0.993-0.984,1.104-1.861c0.779-0.283,0.941-0.689,1.57-0.93c0.047-0.148,0.168-0.221,0.175-0.407
			c0.473-0.025,0.859-0.709,1.629-0.523c0.126-0.209,0.116-0.03,0.232-0.291c0.908-0.032,1.438-0.596,2.326-0.582
			c0.06,0.077,0.057,0.215,0.116,0.291c0.074-0.013,0.076-0.173,0-0.175c1.458-0.034,2.464,0.292,3.78,0.989
			c0.677-0.924,1.202-1.776,1.745-2.908c0.167,0.012,0.295-0.015,0.349-0.116c0.027-0.276-0.072-0.064-0.175-0.175
			c0.306-0.174,0.807-0.213,0.641-0.698c-0.162-0.372-0.549-1.163-0.989-1.512c0.031-0.047,0.061-0.094,0.059-0.175
			c-0.54-0.116-1.151,0.261-1.745,0.059c-0.239-0.082-0.509-0.492-0.698-0.64c-0.113-0.088-0.433-0.335-0.406-0.64
			c0.031-0.374,0.392-0.592,0.813-0.698c0.065,0.09,0.189,0.121,0.175,0.291c0.097,0,0.194,0,0.291,0
			c-0.236-0.064-0.187-0.423-0.059-0.582c0.611,0.635,2.281,0.449,2.85,0.408c0.65,0.089,1.576-0.017,2.326,0.116
			c0.163,0.323,0.353,0.333,0.757,0.465c0.636,1.368-1.396,1.169-2.152,1.163c-0.226,0.635,0.956,0.812,0.988,1.57
			c0.436,0.534,0.854,1.086,1.048,1.861c0.024,0.086,0.074-0.023,0.174,0c0.007,0.606,0.564,0.66,0.466,1.221
			c0.071-0.025,0.119-0.074,0.116-0.174c0.265,0.868,0.985,1.369,1.047,2.036c0.046,0.128,0.203,0.146,0.291,0.232
			c0.018,0.254-0.173,0.259-0.059,0.465c0.188,0.052,0.082-0.189,0.175-0.232c0.402,0.79,0.929,1.548,1.163,2.21
			c0.036,0.119,0.294,0.016,0.232,0.232c0.074-0.081,0.285-0.025,0.291-0.174c0.141,0.034,0.129,0.219,0.174,0.349
			c-0.108,0.008-0.194,0.038-0.232,0.116c0.038,0.174,0.124-0.056,0.232,0c0.003,0.533,0.497,0.496,0.407,0.931
			c-0.062-0.015-0.039-0.116-0.116-0.117c0.061,0.348,0.206,0.045,0.116,0.465c0.1,0.021,0.11-0.045,0.116-0.116
			c0.098,0.136,0.152,0.313,0.175,0.523c0.097,0.079,0.325-0.032,0.291,0.291c0.716-0.786,1.269-1.599,1.454-2.792
			c0.206-0.09,0.034,0.198,0.174,0.175c0.173-0.448,0.198-1.043,0.64-1.221c-0.045-0.052-0.062-0.132-0.058-0.233
			c0.616-0.392,0.693-1.323,1.279-1.745c0.009-0.34,0.2-0.498,0.465-0.582c0.272-0.426,0.424-0.973,0.814-1.28
			c-0.019-0.406,0.147-0.628,0.407-0.756c0-0.155,0-0.31,0-0.465c0.493,0.076,0.284-0.826,0.757-0.582
			c-0.027-1.167-0.037-1.913-0.059-3.024c-0.992-0.273-2.509,0.119-3.257-0.058c-0.144,0.343-0.734,0.17-1.222,0.058
			c-0.208-0.401-0.785-0.202-1.163-0.523c-0.017-0.094,0.055-0.1,0.058-0.174c-0.115-0.097-0.073,0.005-0.232,0
			c-0.451-0.7,0.549-1.663,0.872-1.047c0.177-0.137,0.127-0.322,0.233,0c0.21-0.399,0.754,0.029,1.047-0.233
			c0.494,0.297,1.134-0.36,1.454,0.117c0.087-0.217,0.333,0.062,0.349-0.174c0.294,0.068,0.413,0.158,0.64,0.174
			C29.745,12.243,29.699,12.192,29.626,12.168z M19.507,14.029c-0.085-0.071-0.078-0.232-0.233-0.233
			C19.19,14.001,19.437,14.169,19.507,14.029z M16.89,19.496c-0.08-0.258-0.013,0.047,0,0.174c-0.389,0.527-0.927,1.136-1.105,1.687
			c-0.312,0.04-0.275,0.458-0.349,0.582c0.22,0.085,0.505,0.234,0.697,0.174c0.074,0.294,0.189,0.548,0.523,0.582
			c0.512,0.982,1.403,1.583,1.687,2.792c0.476,0.495,0.463,1.477,0.814,2.094c0.212-0.003,0.651-0.04,0.466,0.175
			c0.206-0.007,0.211-0.215,0.465-0.175c0.197,0.163,0.221,0.139,0.465,0.233c0.057-0.108-0.174-0.194,0-0.233
			c0.26,0.009,0.463-0.134,0.698,0.175c0.104-0.071,0.236-0.113,0.291-0.232c0.596,0.15,1.215-0.003,2.094,0.058
			c-1.216-2.165-2.818-4.162-3.896-6.281c-0.424-0.255-0.683-0.675-0.757-1.28c-0.665-0.245-0.716-1.106-1.279-1.454
			c-0.088,0.156-0.199,0.289-0.406,0.174C17.419,19.066,16.951,19.174,16.89,19.496z M42.247,21.939
			c0.073-0.214-0.29-0.286-0.35-0.175C41.991,21.845,42.04,21.97,42.247,21.939z M10.026,28.511
			c-0.073-0.066-0.485-0.227-0.465-0.407c0.009-0.078,0.386-0.325,0.465-0.465c0.146-0.257,0.135-0.619,0.291-0.814
			c0.061-0.076,0.189-0.046,0.232-0.116c0.167-0.274,0.012-0.598,0.349-0.581c0.005-0.102-0.013-0.182-0.058-0.233
			c0.058,0,0.116,0,0.175,0c0.376-1.368,1.404-2.084,1.978-3.257c0.059-0.154,0.349-0.077,0.349-0.291
			c-0.448-0.075-0.782-0.265-1.047-0.523c-0.487-0.014-0.922,0.145-1.279,0c-0.155,0.158-0.425,0.187-0.582,0
			c-0.009,0.068,0.01,0.165-0.059,0.174c-0.713-0.414-2.108,0.361-2.907,0.407c-0.104,0.157,0.256,0.113,0.058,0.175
			c-0.328,0.116-0.117-0.309-0.349-0.291c-0.048,0.165,0.082,0.151,0.059,0.291C6.93,22.56,6.925,22.728,6.77,22.87
			c-0.555,0.504-0.772,0.831-1.163,1.454c-0.417,0.666-0.909,1.147-1.163,1.861c-0.39,1.098-0.345,2.554-0.407,3.839
			c0.571,0.824,0.867,1.925,1.629,2.559c0.017,0.153-0.227,0.046-0.175,0.232c0.498,0.711,1.384,0.913,2.094,1.513
			c0.129-0.153,0.706,0.214,0.872,0.407c1.575,0.298,3.107,0.837,4.711,0.349c0.797-0.242,1.27-0.901,1.978-1.279
			c0.511-0.865,1.154-1.599,1.57-2.56c0.083,0.022,0.098,0.07,0.175,0c0.037-0.603,0.25-1.028,0.349-1.57
			c-1.424-0.079-1.741,0.06-3.257,0.059c-0.109-0.007-0.04-0.192-0.175-0.175c0.011,0.127-0.048,0.186-0.174,0.175
			c-0.837-0.046-1.689,0.064-2.501,0.116c-0.001-0.154,0.021-0.332-0.059-0.407c-0.471,0.021-0.571-0.223-0.988-0.058
			C9.964,29.064,9.893,28.933,10.026,28.511z M45.155,31.768c0.195-0.017,0.168-0.258,0.348-0.29c0.12-1.216,0.774-2.705,0.35-3.897
			c-0.238-1.239-0.785-2.152-1.629-2.966c-0.93-0.897-2.107-1.787-3.256-2.036c-1.022-0.222-2.51-0.207-3.258,0.174
			c-0.097,0-0.193,0-0.291,0c-0.135,0.195-0.452,0.207-0.523,0.465c0.194,0.242,0.295,0.584,0.523,0.64
			c-0.158,0.061-0.083,0.226,0.059,0.291c-0.016-0.133,0.014-0.219,0.116-0.233c0.218,0.383,0.63,0.572,0.64,1.164
			c0.1,0.023,0.149-0.086,0.175,0c-0.108,0.247,0.19,0.397,0.349,0.64c0.229,0.349,0.389,0.796,0.523,1.105
			c0.066,0.151,0.268,0.125,0.291,0.175c0.072,0.154,0.082,0.295,0,0.407c0.211,0.056,0.049-0.262,0.232-0.233
			c-0.003,0.716,1.189,0.824,0.988,1.745c-0.135-0.019-0.223,0.01-0.29,0.059c0.126,0.248-0.019,0.506-0.175,0.64
			c-0.245-0.082-0.633-0.067-0.872,0.058c-0.286-0.333-0.74-0.101-0.989,0.116c-0.156-0.114-0.247-0.295-0.349-0.465
			c0.092-0.006,0.202,0.008,0.175-0.116c-0.29,0.078-0.102-0.004-0.059-0.175c-0.265-0.097-0.281-0.289-0.465-0.349
			c0.108-0.89-0.59-1.768-0.988-2.152c-0.305-0.906-1.128-1.774-1.803-2.5c-0.081,0.035-0.01,0.224-0.117,0.232
			c0.004-0.1-0.045-0.149-0.116-0.174c-0.143,0.087-0.077,0.174-0.232,0.349c-0.104,0.116-0.333,0.162-0.466,0.291
			c-0.318,0.309-0.807,0.876-0.988,1.221c-0.053,0.099-0.005,0.285-0.059,0.408c-0.189,0.433-0.592,0.711-0.639,1.047
			c-0.09,0.627-0.049,2.064,0,2.617c0.183,2.098,1.91,3.114,2.85,4.42c0.077,0,0.154,0,0.232,0c0.842,0.971,2.248,1.541,3.896,1.57
			c0.584,0.01,1.084-0.313,1.687-0.175c1.304-0.421,1.903-1.547,3.024-2.151c0.068-0.379,0.279-0.612,0.465-0.873
			c-0.003,0.101,0.045,0.149,0.116,0.175C44.568,32.345,45.123,32.318,45.155,31.768z M14.737,27.987
			c0.018-0.281,0.402,0.031,0.582-0.058c0.106-0.054,0.142-0.417,0.116,0c0.215,0.019,0.35-0.345,0.523-0.175
			c-0.001,0.077-0.103,0.054-0.116,0.116c0.198,0.015,0.316,0.109,0.465,0.175c0.025-0.228,0.146-0.359,0.291-0.175
			c0.009-0.068-0.011-0.165,0.058-0.175c0.245,0.034,0.425,0.035,0.641,0.175c0.231-0.647-0.43-1.281-0.641-1.861
			c-0.224-0.822-0.999-1.094-1.279-1.861c-0.042-0.178,0.101-0.171,0.059-0.349c-0.344-0.035-0.585-0.278-0.814-0.349
			c-0.018-0.134,0.168-0.065,0.175-0.175c-0.102,0.004-0.182-0.013-0.233-0.058c-0.293,0.417-0.693,0.997-0.813,1.396
			c-0.102,0.004-0.182-0.013-0.232-0.058c-0.014,0.11,0.065,0.128,0.058,0.232c-0.634,0.743-0.788,1.964-1.687,2.443
			c0.149,0.323-0.039,0.436-0.175,0.523c0.812,0.347,1.805,0.08,2.617,0.291 M15.609,23.858c-0.03,0.302,0.25,0.293,0.407,0.407
			C15.974,24.018,15.851,23.739,15.609,23.858z M32.011,30.081c-0.192-0.733,0.057-1.401-0.232-1.919
			C31.733,28.659,31.704,29.613,32.011,30.081z M10.434,28.511c0.086,0.087,0.301,0.006,0.291-0.174
			c-0.146,0.076-0.183-0.23-0.232-0.059C10.67,28.336,10.425,28.434,10.434,28.511z"/>
	</g>
	<g id="institutions">
		<path fill-rule="evenodd" clip-rule="evenodd" d="M16.63,24.194c0.912,0.162,1.652,0.203,2.375,0.078
			c0.441,0.783,0.154,1.858,0.204,2.819c0.121,2.353,0.159,5.187,0.339,7.519c-1.24,0.162-2.188,0.315-2.918-0.156
			C16.631,30.873,16.457,27.614,16.63,24.194z"/>
		<path fill-rule="evenodd" clip-rule="evenodd" d="M31.9,34.453c0.119,0.071,0.235,0.146,0.204,0.391
			C31.964,34.797,31.847,34.724,31.9,34.453z"/>
		<path fill-rule="evenodd" clip-rule="evenodd" d="M37.812,33.686c0.105-0.222,0.469-0.009,0.465,0.233
			c0.145-0.049,0.311-0.076,0.523-0.059c0.064,0.265,0.396,0.264,0.64,0.349c-0.05,0.374,0.856,0.264,0.698,0.757
			c0.066,0.009,0.104-0.014,0.115-0.059c0.39,0.61,1.088,1.103,1.279,1.861c0.069,0.271-0.119,0.553,0.176,0.756
			c-0.214,0.465-0.336,1.021-0.466,1.57c-0.216,0.134-0.716,0.271-0.814,0.058c-0.188,0.329-0.653,0.07-0.581,0.233
			c-0.084,0.172-0.123-0.182-0.175-0.233c-0.177,0.071,0.085,0.223-0.058,0.291c-1.232,0.384-2.785,0.108-4.014,0.059
			c-0.025-0.111-0.125-0.146-0.116-0.291c-0.197-0.004-0.089,0.299-0.29,0.291c-0.025-0.342-0.203,0.07-0.35-0.232
			c-0.155,0.149,0.134,0.061,0.059,0.29c-0.057-0.001-0.045-0.071-0.059-0.116c-0.229-0.075-0.141,0.214-0.291,0.059
			c-0.24,0.041,0.061-0.204-0.116-0.291c-0.13,0.024-0.001,0.309-0.116,0.349c-0.125-0.087,0.041-0.142-0.059-0.29
			c-0.208-0.034-0.001,0.347-0.232,0.29c-0.028-0.184,0.105-0.205,0.059-0.407c-0.125,0.05-0.205,0.144-0.174,0.35
			c-0.315,0.082-0.27-0.196-0.408-0.291c-0.158,0.053,0.155,0.108,0.059,0.291c-0.133-0.112-0.174-0.134-0.232,0.058
			c-0.129-0.007-0.025-0.246-0.059-0.349c-0.08,0.041-0.203,0.332-0.116,0.349c-0.05,0.087-0.187,0.084-0.291,0.116
			c-0.067-0.086-0.067-0.146,0-0.232c-0.448,0.257-0.815,0.132-1.279,0.116c-0.304-0.01-0.065,0.105-0.233-0.174
			c-0.059,0.032-0.013,0.273-0.232,0.29c-0.154-0.13,0.082-0.291-0.058-0.406c-0.147,0.123-0.171,0.372-0.466,0.349
			c0.014-0.104-0.059-0.291,0.117-0.232c-0.289-0.299-0.332,0.416-0.407,0.058c-0.045,0.168-0.224,0.202-0.408,0.232
			c0.134-0.131-0.039-0.256-0.115-0.349c-0.142,0.033,0.026,0.376-0.175,0.349c-0.207,0.091-0.035-0.197-0.175-0.174
			c-0.131,0.032,0.07,0.091-0.058,0.174c-0.066-0.097-0.292-0.287-0.35-0.058c-0.182,0.018,0.148-0.168-0.058-0.175
			c-0.188-0.052-0.082,0.189-0.175,0.232c-0.847-0.027-1.428,0.067-2.094-0.29c-0.065,0.191-0.462,0.149-0.465-0.059
			c-0.228,0.053,0.192,0.214,0,0.232c-0.16,0.009-0.3,0.011-0.175-0.116c-1.718,0.232-2.821-0.187-3.955-0.058
			c-0.03-0.086-0.086-0.146-0.116-0.233c-0.054,0.043-0.088,0.106-0.116,0.175c-1.092-0.087-3.559,0.411-4.886,0.059
			c-1.169,0.255-2.697-0.293-3.664,0.058c-1.373-0.215-2.938,0.507-4.071-0.523c-0.563,0.228-1.1-0.411-0.814-0.872
			c-0.356-0.738,0.017-1.312,0.233-2.036c0.092,0.005,0.222-0.027,0.233,0.059c0.133-0.409,0.569-0.517,0.64-0.988
			c0.052,0.025,0.104,0.051,0.116,0.116c0.073-0.412,0.646-0.324,0.698-0.756c0.174,0.038-0.056,0.124,0,0.232
			c0.162-0.262,0.357-0.323,0.465-0.523c0.427,0.118,0.384-0.211,0.756-0.232c0.062-1.405-0.259-2.878,0-4.362
			c-0.347-1.732-0.261-4.004-0.523-5.757c-0.485-0.194-1.243-0.115-1.687-0.349c0.049-0.323-0.092-0.759-0.291-0.64
			c-0.14-0.372-0.084-0.819-0.058-1.454c0.267,0.031,0.234-0.196,0.174-0.349c0.165,0.048,0.151-0.083,0.291-0.059
			c0.829-1.214,2.1-1.653,3.082-2.675c0.052,0.025,0.104,0.051,0.116,0.116c0.625-1.031,1.816-1.221,2.21-1.861
			c0.246,0.073,0.347,0.006,0.407-0.232c0.126-0.01,0.026,0.206,0.058,0.291c0.139-0.074,0.237-0.189,0.232-0.407
			c0.185,0.369,0.259-0.367,0.349,0.058c0.096,0.007,0.2-0.358,0.232-0.058c0.078-0.039,0.108-0.125,0.116-0.233
			c0.094-0.017,0.1,0.055,0.175,0.058c0.18-0.246,0.398-0.522,0.698-0.523c0.831-0.561,1.549-1.337,2.385-1.919
			c0.05-0.035,0.128,0.05,0.116,0.059c0.416-0.284,0.727-0.757,1.279-0.814c0.158-0.637,1.229-0.36,1.338-1.047
			c0.079,0.057,0.075,0.196,0.174,0.233c0.08-0.051-0.154-0.234,0-0.407c0.248,0.034,0.407-0.019,0.349-0.291
			c0.188,0.033,0.293-0.018,0.349-0.116c0.222,0.034,0.182-0.002,0.291,0.174c0.192-0.087-0.121-0.142-0.059-0.291
			c0.162,0.167,0.163,0.064,0.233-0.116c0.567,0.173,0.692-0.478,1.105-0.64c0.327,0.023,0.571,0.436,0.814,0.349
			c2.89,1.918,6.366,3.251,8.724,5.7c0.316,0.149,0.881,0.501,1.164,0.872c1.805,0.686,3.027,2.166,4.478,3.024
			c-0.04,0.254,0.099,0.328,0.058,0.582c0.596,0.057,0.455,0.988,0.699,1.628c-0.17,0.839-0.396,1.621-0.932,2.094
			c-0.67,0.012-1.014-0.304-1.686-0.291c-0.127,0.011-0.186-0.047-0.175-0.174c-0.409,1.696,0.126,3.667-0.175,4.943
			C38.063,30.911,37.716,32.202,37.812,33.686z M26.935,13.214c-0.337,0-0.905-0.199-0.989-0.64c-0.24-0.109-0.488-0.21-0.698-0.349
			c-0.006,0.071-0.018,0.138-0.116,0.116c0.003-0.1-0.045-0.149-0.116-0.174c0.003,0.1-0.045,0.149-0.117,0.174
			c0-0.078,0-0.155,0-0.232c-1.596,0.574-2.8,1.883-4.594,2.559c-0.453,0.613-1.182,0.95-1.687,1.512
			c-0.024-0.222-0.157-0.089-0.058,0.058c-0.135,0.019-0.224-0.009-0.291-0.058c-0.063,0.276-0.447,0.237-0.407,0.465
			c-0.724,0.13-1.285,0.896-1.803,1.28c-0.002-0.08,0.027-0.128,0.058-0.175c-0.215,0.144-0.499,0.213-0.756,0.407
			c-0.237,0.179-0.375,0.502-0.523,0.64c-0.028,0.026-0.103-0.075-0.117-0.058c-0.084,0.109-0.047,0.37-0.232,0.175
			c0.004,0.088-0.007,0.14-0.058,0.174c-0.201,0.138-0.73,0.366-0.989,0.465c-0.275,0.105-0.594,0.42-0.931,0.64
			c-0.612,0.399-1.127,0.657-1.512,0.931c0.146,0.059-0.046,0.257-0.175,0.232c-0.013-0.045-0.001-0.115-0.058-0.116
			c0,0.254-0.1,0.044-0.291,0.232c0.148,0.62-0.156,1.169,0.582,1.164c0.168-0.065,1.136,0.102,1.628,0.232
			c0.009,0.077-0.195,0.216-0.058,0.232c0.016-0.137,0.258-0.036,0.233,0.058c-0.032,0.337-0.078,0.295-0.233,0.407
			c0.048,0.288,0.204-0.135,0.291,0.058c0.424,1.43,0.129,3.032,0.175,4.478c0.042,1.344,0.169,2.46,0,3.723
			c0.091,0.005,0.201-0.008,0.174,0.116c-0.058,0-0.069-0.048-0.116-0.059c0.151,0.763,0.018,2.082,0.407,2.792
			c-0.968,0.143-1.352,0.578-2.094,0.872c-0.16,0.025-0.054-0.217-0.174-0.232c-0.177,0.312-0.583,0.575-0.93,0.872
			c-0.052,0.625-0.456,1.016-0.291,1.687c0.213,0.35,1.159,0.045,1.279,0.175c0.068-0.154-0.111-0.343,0-0.349
			c0.633,0.153,0.942,0.203,1.396,0c0.07,0.25,0.485,0.292,0.232,0c0.121,0.033,0.188,0.122,0.291,0.174
			c0.114-0.26,0.393-0.064,0.523-0.232c-0.003,0.074-0.075,0.08-0.058,0.175c0.531-0.007,1.243-0.574,1.803-0.059
			c0.11,0.014,0.128-0.065,0.232-0.058c0.083,0.13,0.043,0.383,0.233,0.406c0.149-0.149-0.109-0.368,0.116-0.465
			c0.245,0.042,0.503,0.192,0.582-0.059c0.013,0.188-0.103,0.246-0.058,0.466c0.228,0.015,0.37-0.057,0.465-0.175
			c0.385,0.297,1.875,0.255,2.559,0.175c1.25-0.146,2.784,0.137,4.013,0.058c0.092-0.005,0.045-0.147,0.175-0.116
			c0.399,0.234,0.543-0.093,0.93,0.116c0.013-0.045,0.001-0.114,0.058-0.116c0.913,0.346,1.889,0.224,2.792,0.291
			c0.007-0.071,0.018-0.138,0.116-0.116c0.725,0.085,1.323-0.147,1.92,0.116c0.838-0.15,1.855-0.27,2.908-0.058
			c0.52-0.355,1.054,0.097,1.512-0.175c0.283,0.105,0.447,0.13,0.756-0.059c-0.04,0.156,0.12,0.113,0.174,0.175
			c0.197-0.217,0.599-0.16,0.757,0c0.081-0.457,0.735,0.19,0.989-0.232c0.027,0.068,0.061,0.132,0.115,0.174
			c0.71-0.453,2.037,0.221,3.258-0.174c-0.215-0.735-0.424-1.215-0.408-1.978c-0.737-0.193-1.555-0.785-2.5-0.582
			c0.016,0.133-0.014,0.219-0.117,0.233c-0.385-0.119-0.746-0.234-0.581-0.757c-0.13-0.102-0.418-0.047-0.407-0.29
			c0.248-0.102,0.295-0.404,0.407-0.64c-0.254,0.021,0.001-0.466-0.232-0.466c0.199-1.27,0.093-2.316-0.116-3.432
			c0.102-0.004,0.181,0.014,0.232,0.059c-0.287-0.34-0.218-1.574-0.116-1.628c-0.014-0.109-0.096,0.032-0.116-0.059
			c0-0.077,0.102-0.054,0.116-0.116c-0.054-0.062-0.215-0.019-0.175-0.175c0.135,0.018,0.272,0.146,0.232-0.116
			c-0.005-0.18-0.227,0.18-0.232,0c-0.115-0.762,0.092-1.001-0.174-1.745c0.27-0.081-0.023-0.708,0-1.163
			c0.155-0.077,0.209-0.256,0.349-0.349c-0.076-0.545-0.093-1.148-0.291-1.571c0.661,0.24,1.161-0.272,1.57-0.174
			c0.056-0.108-0.174-0.194,0-0.233c0.177,0.075,0.499,0.006,0.523,0.233c0.081-0.036,0.009-0.224,0.116-0.233
			c0.258,0.044,0.434,0.04,0.698,0.175c0.24-0.323,0.002-0.697-0.116-0.989c0.188,0.052,0.082-0.189,0.174-0.232
			c-1.354-1.282-3.346-1.927-4.536-3.374c-0.364-0.12-0.58-0.389-0.872-0.582c-0.023,0.073-0.075,0.119-0.175,0.116
			c-0.013-0.11,0.065-0.128,0.058-0.232c-0.234,0.011-0.297-0.357-0.523-0.174c0.064-0.297-0.17-0.294-0.29-0.407
			c0.016,0.215-0.181-0.038-0.232,0.174c-0.091-0.181-0.056-0.486-0.233-0.582c0.031,0.148,0.078,0.204-0.058,0.291
			c-0.128-0.332-0.175-0.025-0.349,0.058c-0.072-0.2,0.016-0.559-0.232-0.582c-0.085,0.22,0.159,0.112,0.115,0.291
			c-0.203-0.029-0.141-0.325-0.291-0.407c-0.07,0.232-0.392-0.215-0.639,0c0.002-0.177-0.18-0.212-0.232-0.465
			c-0.211,0.138-0.158-0.156-0.35,0c-0.057-0.237-0.307-0.556-0.465-0.349c0.05-0.31-0.255-0.636-0.35-0.291
			c0.047-0.202-0.087-0.224-0.058-0.407c-0.11-0.013-0.129,0.065-0.233,0.058c-0.102-0.241-0.105-0.235-0.232-0.407
			c0.017,0.133-0.014,0.219-0.116,0.233C28.147,14.135,27.431,13.784,26.935,13.214z M36.474,29.789
			c0.06-0.055,0.053-0.3-0.117-0.291C36.349,29.643,36.347,29.78,36.474,29.789z M12.686,34.442
			c0.133,0.016,0.219-0.015,0.233-0.117c-0.069-0.017-0.22-0.233-0.291-0.058C12.695,34.277,12.691,34.359,12.686,34.442z
			 M9.08,38.223c0-0.078,0-0.155,0-0.233c-0.058,0-0.117,0-0.174,0C8.889,38.142,8.927,38.239,9.08,38.223z M16.233,38.745
			c0.192,0.15,0.457-0.017,0.465-0.232C16.515,38.372,16.408,38.696,16.233,38.745z M16.931,38.629
			c0.134-0.018,0.065,0.169,0.175,0.175c0.075-0.312,0.111,0.038,0.291-0.116c0-0.039,0-0.077,0-0.116
			C17.308,38.559,17.02,38.417,16.931,38.629z M15.536,38.688c0.094,0.1,0.3,0.053,0.349-0.059
			C15.707,38.652,15.588,38.477,15.536,38.688z M17.978,38.629c-0.084-0.089-0.297-0.051-0.465-0.058
			C17.497,38.797,17.915,38.766,17.978,38.629z M37.521,39.152c0,0.154-0.033,0.343,0.116,0.35c-0.081-0.189,0.226-0.439,0.058-0.35
			C37.679,39.243,37.567,39.193,37.521,39.152z"/>
		<path fill-rule="evenodd" clip-rule="evenodd" d="M23.736,14.668c0.086,0.025-0.023,0.074,0,0.174
			c0.154,0.018,0.15-0.122,0.175-0.233c0.354-0.031,0.472,0.089,0.756-0.116c1.223,0.174,2.33,0.771,2.559,1.745
			c0.051,0.144,0.216,0.172,0.291,0.291c0.102,0.465,0.044,1.097-0.175,1.687c-0.207,0.56-0.435,1.292-0.931,1.396
			c-0.045,0.052-0.062,0.131-0.058,0.232c-0.47-0.053-1.252,0.901-1.629,0.407c-0.079,0.018-0.048,0.146-0.058,0.233
			c-0.316-0.032-0.721,0.023-0.756-0.291c-0.376,0.001-1.21-0.732-1.28-0.873c-0.035-0.071,0.091-0.136,0.058-0.174
			c0.029,0.034-0.796-0.457-0.407-0.814c-0.003-0.807-0.544-1.748,0.174-2.21c0-0.116,0-0.232,0-0.349
			c0.11,0.007,0.04,0.192,0.174,0.175c0.131-0.043,0.023-0.326,0.058-0.465c0.187-0.046,0.417-0.048,0.349-0.349
			C23.419,15.194,23.489,14.912,23.736,14.668z M25.132,15.308c-0.438-0.072-1.126,0.102-1.454,0.407
			c-0.437,0.406-0.658,1.839-0.523,2.675c0.209,1.3,1.555,0.829,2.094,0.291c0.317-0.317,0.533-0.761,0.873-1.047
			c-0.153-0.355,0.159-0.62,0.232-0.93C26.138,15.863,25.819,15.421,25.132,15.308z"/>
		<path fill-rule="evenodd" clip-rule="evenodd" d="M32.036,23.724c0.164-0.199-0.113,0.313,0.068,0.392
			c0.209,0.059,0.082-0.27,0.339-0.156c-0.045,0.6,0.29,0.762,0.339,1.253c-0.106,0.034-0.058,0.246-0.271,0.157
			c0.145,0.473,0,0.769,0.068,1.252c0.172-0.04,0.264-0.134,0.271,0.156c-0.109,0.022-0.117-0.073-0.203-0.078
			c0.26,0.189,0.234,0.671,0.067,0.862c-0.001,0.261,0.221,0.267,0.204,0.548c-0.236,0.375,0.197,1.021-0.137,1.723
			c0.195,1.221,0.033,2.76,0.34,3.681c-0.047,0.06-0.286,0.249,0,0.235c-0.056,0.239-0.191,0.188-0.068,0.47
			c-0.087-0.108-0.295-0.077-0.475-0.078c0.137,0.238,0.074,0.223,0.068,0.626c-0.213-0.068,0.002-0.629-0.271-0.626
			c-0.073,0.479-0.539,0.002-1.086,0.078c-0.24,0.023,0.239,0.212,0,0.235c-0.198-0.134-0.576-0.282-0.611,0.078
			c-0.164-0.256-0.388-0.087-0.679-0.078c-0.124-0.444,0.149-0.86-0.271-0.94c0.319-0.295,0.261-0.97,0.204-1.645
			c0.295-0.387,0.266-1.381,0-1.723c0.049-0.14,0.123-0.012,0.203,0c0.067-0.312-0.203-0.236-0.136-0.548
			c0.146-0.037,0.13,0.111,0.136,0.234c0.084-0.034,0.14-0.101,0.137-0.234c-0.062-0.138-0.238-0.144-0.34-0.235
			c0.123-0.381,0.036-0.367,0.067-0.627c0.073,0.02,0.046,0.156,0.136,0.157c0.346-0.661-0.1-1.161-0.068-1.958
			c0.11,0.021,0.117-0.074,0.205-0.078c0.182-1.022-0.632-2.58,0.271-3.133c0.156-0.024,0.074,0.226,0.203,0.235
			c0.243,0.046,0.002-0.468,0.271-0.392c-0.188,0.511,0.22,0.328,0.543,0.392c0.092-0.024,0.056-0.196,0.067-0.313
			C31.701,23.702,31.941,23.951,32.036,23.724z"/>
		<path fill-rule="evenodd" clip-rule="evenodd" d="M25.86,24.35c-0.019-0.161-0.182-0.156-0.271-0.235
			c0.084-0.323,0.197,0.03,0.339,0.079c-0.028,0.149-0.024,0.337-0.204,0.313C25.754,24.437,25.784,24.367,25.86,24.35z"/>
		<path fill-rule="evenodd" clip-rule="evenodd" d="M25.181,24.115c0.121,0.529,0.502,0.58,0.611,1.097
			c0.091,0.431-0.163,0.973,0.068,1.487c-0.122,0.323-0.285,0.95-0.204,1.253c0.154-0.031-0.036-0.459,0.271-0.312
			c-0.029-0.123-0.213-0.067-0.136-0.313c0.228,0.024,0.19,0.354,0.204,0.626c-0.365-0.082-0.122,0.539-0.407,0.549
			c0.286,0.139,0.045,0.561,0.271,0.861c-0.208,0.006-0.271,0.763,0,0.939c0.18,0.025-0.063-0.438,0.204-0.313
			c0.074,0.354,0.249,0.8,0,1.097c-0.228-0.071-0.033-0.146-0.068-0.392c-0.186-0.057-0.137,0.155-0.272,0.157
			c0.165,0.331,0.338,0.654,0.408,1.096c-0.232,0.059-0.112-0.288-0.272-0.312c-0.147-0.014-0.031,0.277-0.068,0.391
			c0.186,0.007,0.137-0.13,0.272,0c-0.181,0.206,0.174,0.577,0.136,0.94c-0.04,0.374-0.084,0.91,0,1.566
			c-0.759-0.165-1.854,0.093-2.986-0.157c-0.159-0.809,0.089-1.519-0.204-1.879c0.108-1.871-0.063-4.602-0.068-6.657
			c0.129-0.147,0.123,0.046,0.339,0c0.071-0.657-0.201-0.917-0.204-1.488c0.433-0.375,0.875-0.04,1.222-0.313
			c0.141,0.043,0.144,0.122,0.068,0.235c0.297-0.107,0.349-0.01,0.611,0.078c0.091-0.077,0.135-0.208,0.203-0.313
			C25.258,24.052,25.219,24.116,25.181,24.115z"/>
	</g>
	<g id="services">
		<path fill-rule="evenodd" clip-rule="evenodd" d="M37.323,25.392c0.177-0.071-0.062-0.2,0-0.349
			c0.172,0.119,0.164,0.417,0.232,0.64c-0.57-0.124,0.31,0.661,0,1.163c-0.182,0.064-0.153,0.027-0.291-0.059
			c0.271,0.387-0.034,0.714,0.291,1.105c0.055-0.043,0.089-0.105,0.117-0.175c0.178,0.756-0.102,1.599,0.059,2.792
			c-0.012,0.127,0.047,0.185,0.174,0.174c-0.136,0.214-0.45,0.248-0.523,0.523c-2.529,0.046-5.299,0.202-7.444,0
			c-0.02,0.229-0.595,0.213-0.64,0.059c-0.153-0.018-0.191,0.08-0.175,0.232c-0.21-0.043-0.294-0.21-0.581-0.174
			c-0.203,0.017,0.005,0.156-0.117,0.174c-0.957-0.188-2.186,0.049-3.082,0c-0.166-0.01-0.383-0.183-0.523-0.174
			c-0.116,0.006-0.18,0.185-0.291,0.174c-0.091-0.009-0.282-0.223-0.465-0.174c-0.209-0.035-0.171,0.178-0.349,0.174
			c-1.331-0.074-3.501-0.104-4.769,0.175c-2.158-0.124-4.175-0.048-6.746-0.175c0.001-0.174-0.06-0.281-0.291-0.349
			c-0.024-1.541-0.144-4.187,0.756-5.525c0.001-0.137-0.1-0.171-0.059-0.349c1.038-1.947,2.225-3.747,3.665-5.293
			c0.158,0.006,0.117-0.097,0.232,0c0.152-0.15,0.501-0.609,0.872-0.523c-0.056-0.107,0.174-0.194,0-0.232
			c0.522-0.071,0.777-0.499,1.221-0.582c0.136-0.232,0.455-0.281,0.64-0.465c0.791-0.014,1.606-0.588,2.675-0.697
			c0.1-0.011,0.109,0.036,0.116,0.115c0.052-0.121,0.161-0.188,0.233-0.29c-0.239-0.002-0.214-0.485-0.117-0.64
			c-0.368-0.164-0.79,0.023-1.163-0.059c-0.613-0.135-0.946-0.779-1.279-1.221c-0.018-0.135,0.168-0.064,0.174-0.175
			c-0.319-0.537,0.268-1.11,0.349-1.628c0.619-0.584,1.795-0.609,2.501-1.105c1.286,0.168,3.597-0.207,4.943,0.291
			c0.115,0.043,0.435,0.209,0.523,0.291c0.068,0.062,0.054,0.241,0.116,0.29c0.044,0.034,0.181-0.03,0.233,0
			c0.392,0.224,0.394,0.792,0.581,1.28c0.206-0.052,0.143-0.008,0.349-0.059c0.084,0.889-0.53,1.459-0.698,2.21
			c-0.303,0.097-0.637,0.018-0.872,0.175c-0.119,0.08-0.069,0.324-0.29,0.291c0.127,0.57,1.26,0.135,1.57,0.523
			c0.148-0.007,0.276-0.033,0.349-0.117c0.562,0.177,1.087,0.378,1.803,0.523c0.217,0.315,0.85,0.629,1.047,0.465
			c0.094,0.385,0.285,0.361,0.465,0.699c0.06-0.039,0.061-0.135,0.175-0.117c-0.003,0.104,0.081,0.462,0.291,0.291
			c0.466,0.543,0.902,1.114,1.513,1.512c-0.031,0.047-0.061,0.095-0.059,0.175c0.182-0.064,0.208-0.038,0.116,0.116
			c0.104,0.008,0.122-0.07,0.233-0.059c0.266,0.516,0.345,0.861,0.93,1.222c-0.184-0.062-0.062,0.39,0.059,0.523
			c0.131-0.354,0.104,0.108,0.291,0.175c0.049,0.242-0.113,0.274-0.117,0.465C36.774,23.973,37.02,24.686,37.323,25.392z
			 M25.692,13.178c0.347,0.158,0.451-0.024,0.814,0.059C26.364,13.02,25.928,12.91,25.692,13.178z M26.39,18.354
			c-0.395-0.686-0.318-1.626,0-2.327c0.709,0.088,1.104-0.533,1.047-1.395c-0.287-0.078-0.337-0.447-0.407-0.582
			c-1.271-0.321-3.557-0.173-4.827-0.117c-0.179,0.442-0.631,0.609-0.523,1.338c0.384,0.275,0.524,0.795,1.28,0.698
			c-0.014,0.083-0.096,0.099-0.116,0.175c0.299-0.008,0.495,0.086,0.698,0.174c-0.195,0.893,0.28,1.863-0.349,2.56
			c-0.25,0.076-0.072-0.277-0.291-0.233c-0.44,0.175-0.883,0.072-1.396,0.059c-1.446,0.611-2.842,1.277-3.896,2.326
			c-1.055,1.05-2.53,2.734-3.199,4.246c-0.564,1.274-0.789,2.75-0.756,4.42c0.305,0.044,0.526,0.172,0.814,0.232
			c0.092-0.005,0.045-0.148,0.174-0.116c0.921-0.077,1.817,0.253,2.792,0.116c0.08-0.012,0.159-0.154,0.232-0.174
			c0.202-0.056,0.968-0.041,1.221,0c0.303,0.048,0.335-0.037,0.64-0.059c0.081-0.006,0.185,0.12,0.291,0.116
			c0.203-0.008,0.329-0.221,0.465,0c0.065-0.227,0.593-0.238,0.64,0c-0.045-0.2,0.054-0.256,0.174-0.291
			c0.028,0.069,0.062,0.132,0.117,0.175c0.035-0.451,0.416-0.014,0.64,0c0.234,0.015,0.045-0.305,0.349-0.116
			c0.277,0.171,0.575-0.214,0.814,0.175c-0.008-0.184,0.149-0.2,0.291-0.233c0.511,0.235,1.268-0.038,1.803,0.349
			c0.048-0.223,0.016-0.07,0.174-0.232c0.468,0.221,0.659,0.004,1.105,0.175c0.009-0.068-0.01-0.165,0.058-0.175
			c0.107,0.068,0.265,0.085,0.291,0.232c0.363-0.139,0.657-0.115,0.989,0.059c0.434-0.301,1.681,0.021,2.326-0.349
			c1.278,0.015,1.762-0.05,2.908,0.058c0.009-0.068-0.01-0.164,0.058-0.174c0.009,0.068-0.01,0.165,0.059,0.174
			c0.028-0.068,0.062-0.131,0.116-0.174c0.645,0.023,1.627,0.469,2.501-0.059c0.079-1.66-0.044-2.584,0.058-3.78
			c-0.74-1.083-0.771-2.874-1.803-3.664c-0.022,0.101,0.086,0.149,0,0.175c-0.217-0.093-0.223-0.398-0.349-0.582
			c-0.011,0.086-0.141,0.054-0.233,0.059c-0.78-0.751-1.58-1.482-2.5-2.094c-0.056,0.1-0.184,0.127-0.291,0.174
			c-0.998-0.475-2.198-1.059-3.373-1.162C27.3,18.828,26.495,18.259,26.39,18.354z M20.807,15.621
			c-0.103-0.053-0.096-0.215-0.233-0.232C20.524,15.559,20.731,15.766,20.807,15.621z M27.728,17.947
			c0.24,0.09,0.511,0.148,0.814,0.174C28.481,17.892,27.806,17.787,27.728,17.947z M13.304,27.137
			c0.024-0.52,0.473-0.923,0.407-1.338C13.495,26.126,13.231,26.714,13.304,27.137z M13.246,28.125
			c-0.176-0.234,0.129-0.592-0.058-0.814C13.199,27.582,12.94,28.078,13.246,28.125z M13.42,30.801
			c-0.006-0.238-0.011-0.477,0.058-0.641c-0.275,0.027-0.086-0.051-0.116-0.232c-0.08,0.002-0.128-0.027-0.174-0.059
			C13.323,30.227,12.871,30.716,13.42,30.801z M12.548,31.033c-0.01-0.09-0.059-0.638-0.175-0.814
			C12.452,30.471,12.195,31.057,12.548,31.033z"/>
		<path fill-rule="evenodd" clip-rule="evenodd" d="M32.38,37.285c-0.084,0.014-0.02,0.174-0.116,0.174
			c-1.222-0.064-3.438,0.043-5.176,0.059c-2.166,0.02-4.408-0.127-6.514,0c-0.031-0.047-0.061-0.095-0.058-0.174
			c-0.181,0.181-0.761,0.242-0.931,0c-0.15,0.139-0.268,0.137-0.407,0.174c-0.616-0.314-1.315,0.014-2.036-0.059
			c-0.457-0.045-0.841-0.194-1.28,0c-0.199-0.241-0.573-0.031-0.988,0c-0.129,0.032-0.083-0.111-0.174-0.115
			c-0.19,0.213-1.063,0.226-1.28-0.059c-0.316,0.52-0.872-0.135-1.338,0.174c-0.155-0.215-0.259-0.096-0.465-0.058
			c-0.28,0.052-0.439-0.332-0.873-0.291c-0.021,0.099,0.045,0.11,0.116,0.116c-0.836,0.014-1.554-0.002-2.5,0
			c-0.311-0.96,0.118-1.594-0.233-2.152c0.036-0.178,0.124-0.303,0.175-0.465c0-0.396-0.103-0.635,0.116-0.872
			c-0.141-0.839,0.453-1.253,0.465-1.745c0.239-0.031,0.221-0.322,0.349-0.465c0.057,0.002,0.045,0.071,0.058,0.116
			c0.746-0.526,1.275-0.921,2.094-1.338c0.135-0.019,0.223,0.01,0.291,0.058c0.122-0.07,0.227-0.16,0.349-0.232
			c1.249-0.025,2.434-0.094,3.896-0.232c0.03,0.047,0.061,0.095,0.058,0.175c0.068-0.01,0.049-0.106,0.058-0.175
			c0.583-0.005,0.875-0.067,1.221,0.175c0.812-0.354,1.716,0.134,2.559,0.058c0.328-0.029,0.833-0.02,1.279-0.058
			c0.255-0.021,0.564-0.304,0.698,0.058c0.083-0.013,0.02-0.173,0.116-0.174c0.241-0.066,0.227,0.122,0.407,0.116
			c0.715-0.125,1.724-0.282,2.327-0.058c1.456-0.108,3.829-0.105,5.641-0.117c2.014-0.012,3.783-0.152,5.409,0.059
			c-0.049-0.097,0.38-0.279,0.466-0.059c0.746-0.387,2.59,0.355,3.082,0.698c0.035,0.024,0.145-0.269,0.116,0.058
			c1.038,0.119,1.593,1.232,1.919,2.094c0.213-0.119,0.262,0.027,0.407,0.117c-0.072,1.125,0.454,2.595,0,3.664
			c-0.29,0.062-0.327,0.187-0.349,0.406c-0.057-0.001-0.045-0.07-0.059-0.116c-0.119,0.397-0.584,0.218-0.756,0.466
			c-0.406-0.139-1.447,0.162-1.861-0.117c-1.379,0.076-2.566,0.324-3.955,0.117c-0.172,0.332-0.846,0.057-0.93,0.059
			C33.443,37.349,32.672,37.701,32.38,37.285z M15.63,30.539c0.243,0.342,0.618,0.176,0.814,0
			C16.119,30.552,15.958,30.607,15.63,30.539z M21.737,35.715c0.253,0.023,0.37,0.201,0.523-0.059
			c0.145,0.117,0.336,0.047,0.756,0.059c0.075,0.137-0.008,0.107,0.058,0.291c-0.233-0.141-0.153,0.134-0.291,0.232
			c0.314-0.016,0.308-0.049,0.523,0.058c0.06-0.323-0.09-0.116-0.174-0.232c0.034-0.103-0.07-0.342,0.058-0.349
			c0.083,0.159,0.146,0.066,0.291,0c0.125,0.014,0.212,0.363,0.291,0.232c-0.076-0.001-0.074-0.161,0-0.174
			c0.791,0.201,1.392,0.029,2.21,0.29c0.58-0.192,1.005-0.021,1.512,0.058c1.229-0.402,3.583-0.215,5.235-0.465
			c0.138,0.185-0.013,0.296,0.174,0.407c0.01-0.087-0.021-0.214,0.059-0.232c0.377,0.208,0.953-0.198,1.221,0.058
			c0.135-0.405,0.488,0.157,0.641-0.115c-0.025,0.281,0.123,0.057,0.232,0.232c0.08-0.133-0.15-0.219,0-0.232
			c0.201,0.045,0.245-0.065,0.349-0.117c-0.017,0.133,0.015,0.219,0.116,0.232c0.097-0.128,0.158-0.145,0.175-0.232
			c0.041,0.152,0.272,0.115,0.349,0.232c-0.045-0.2,0.055-0.256,0.175-0.291c0.014,0.084,0.096,0.099,0.116,0.176
			c-0.06,0.057-0.117,0.114-0.174,0.174c0.253,0.021,0.193-0.271,0.406-0.291c0,0.098,0,0.194,0,0.291
			c0.152-0.022,0.162-0.187,0.407-0.116c-0.003,0.074-0.075,0.081-0.058,0.175c0.54,0.045,0.575-0.244,0.988-0.059
			c0.506-0.26,1.541-0.146,2.268-0.291c0.324-0.709,0.22-1.486-0.174-2.035c-0.318-1.035-1.487-2.159-2.734-2.094
			c-0.135-0.43-0.924-0.001-1.104-0.465c-0.188-0.052-0.121,0.15-0.233,0.174c-0.131-0.224-0.57,0.004-0.756-0.232
			c-0.79,0.29-1.756,0.102-2.501,0.349c-0.191-0.257-0.315,0.101-0.465-0.116c-0.01,0.087,0.021,0.215-0.059,0.232
			c-0.119-0.124-0.23,0.017-0.35,0.059c-0.137-0.018-0.107-0.202-0.29-0.175c-0.143,0.077,0.063,0.217-0.058,0.233
			c-1.742,0.113-3.354-0.148-5.061,0.058c0.064-0.084,0.062-0.142-0.059-0.175c0.041,0.219-0.439,0.143-0.349-0.058
			c-1.236,0.195-2.634-0.179-3.722-0.059c-0.045-0.013-0.068-0.049-0.059-0.116c-0.752,0.207-2.269,0.182-3.024,0.116
			c-0.18,0.315-0.613,0.094-0.931,0.349c-0.013-0.045-0.001-0.114-0.058-0.115c-0.408,0.087-1.256,0.233-2.094,0.174
			c0.022-0.197-0.101-0.248-0.174-0.349c-0.048,0.151,0.176,0.319,0,0.407c-0.045-0.13-0.034-0.316-0.175-0.35
			c-0.033,0.103,0.071,0.342-0.058,0.35c-0.315-0.016-0.167-0.23-0.523-0.117c0.006-0.145,0.109-0.18,0-0.29
			c-0.176,0.194-0.343,0.001-0.407,0c-0.416-0.006-1.241,0.086-1.629,0.232c-0.147,0.056-0.204,0.212-0.349,0.232
			c-0.013,0.002,0.003-0.134-0.058-0.116c-0.101,0.028-0.18,0.148-0.291,0.174c-0.812,0.192-1.738,0.533-2.036,1.513
			c-0.568,0.39-0.513,1.537-0.291,2.269c0.764,0.047,1.225-0.025,1.803,0.174c-0.003-0.1,0.045-0.148,0.117-0.174
			c-0.017,0.133,0.014,0.219,0.116,0.232c0.001-0.25,0.425-0.08,0.465,0c0.009-0.068-0.01-0.165,0.059-0.174
			c0.775,0.303,1.386,0.371,1.977,0.232c0.062,0.054,0.019,0.214,0.175,0.174c0.009-0.068-0.01-0.165,0.058-0.174
			c1.04,0.225,3.589-0.016,5.176,0.115c-0.092-0.16,0.151-0.26,0.175-0.115c-0.265,0.015,0.209,0.135,0.232,0.232
			c0.02-0.324-0.152-0.526,0.233-0.523c0.074,0.195-0.228,0.308-0.058,0.406c0.108,0.012,0.582,0.231,0.756-0.058
			c-0.204-0.048-0.595,0.049-0.64-0.29c0.058,0,0.069-0.048,0.116-0.059c0.1,0.004,0.117,0.378,0.232,0.174
			c-0.167-0.232,0.189-0.074,0.349-0.174c-0.139,0.193,0.152,0.284,0,0.465c0.445-0.12,0.569,0.007,0.814,0
			c-0.119-0.036-0.017-0.293-0.233-0.232C21.942,36.203,21.727,35.904,21.737,35.715z M16.561,31.527
			c0.094-0.195,0.184,0.183,0.291,0c0.003-0.1-0.044-0.149-0.116-0.175C16.747,31.449,16.323,31.395,16.561,31.527z M8.884,35.074
			c0.217-0.277,0.275-0.592,0.058-0.93C8.9,34.432,8.862,34.724,8.884,35.074z M22.726,36.238c0.051-0.174-0.06-0.477-0.175-0.291
			C22.716,35.938,22.481,36.328,22.726,36.238z M32.612,36.529c0.086,0.01,0.054,0.141,0.059,0.232
			c0.146,0.01,0.141-0.131,0.232-0.175c-0.068-0.01-0.062-0.092-0.059-0.175C32.737,36.42,32.651,36.451,32.612,36.529z
			 M31.392,36.645c0.152-0.012,0.575,0.162,0.814-0.174C31.983,36.578,31.487,36.412,31.392,36.645z"/>
	</g>
	<g id="entertainment">
		<path fill-rule="evenodd" clip-rule="evenodd" d="M11.011,14.125c0.162-0.026-0.046,0.317,0.116,0.29
			c0.232-0.326-0.144-0.384,0-0.813c0.077,0,0.155,0,0.232,0c-0.092-0.855,0.476-1.219,0.407-2.036
			c0.047,0.012,0.059,0.059,0.116,0.059c-0.116-0.316,0.135-0.531,0.291-0.814c0.183-0.027,0.164,0.146,0.232,0.232
			c0.156-0.058,0.307-0.119,0.523-0.116c-0.063-0.188-0.278-0.226-0.29-0.466c0.58,0.027,1.187,0.351,1.744,0.35
			c0.053,0,0.189-0.121,0.232-0.116c0.265,0.028,0.576,0.271,0.931,0.349c0.649,0.145,1.433,0.073,1.745,0.523
			c0.062-0.014,0.039-0.115,0.116-0.116c0.617,0.236,1.08,0.626,1.919,0.64c1.205,0.41,2.671,0.851,3.839,1.105
			c0.583,0.521,1.771,0.439,2.501,0.814c1.179,0.127,2.354,0.419,3.431,0.872c4.216,1.165,8.724,2.302,13.032,3.431
			c0.309,0.313,0.87,0.371,1.222,0.641c-0.314,2.217-1.241,4.404-1.454,6.339c-0.025,0.087-0.074-0.022-0.174,0
			c0.023,0.276-0.085,0.419-0.117,0.64c-0.383,0.177-0.624,0.299-0.93,0c-0.024,0.108-0.066,0.15-0.176,0.175
			c-1.072-0.808-2.391-0.19-3.082,1.047c-0.488,0.873-1.191,2.105-0.465,3.083c0.535,0.72,1.383,1.046,2.152,1.512
			c0.059-0.123,0.043-0.443,0.232-0.582c0.441-0.033,0.275,0.646,0.232,0.931c0.001,0.212,0.166,0.261,0.232,0.407
			c-0.367,2.014-1.025,3.641-1.396,5.758c-0.216,0.095-0.272,0.348-0.349,0.582c-0.156,0-0.311,0-0.466,0
			c-0.065,0.083-0.062,0.142,0.058,0.174c-0.086,0.125-0.142-0.042-0.29,0.059c-0.007,0.167,0.032,0.381-0.059,0.465
			c-1.78-0.83-3.782-1.33-5.703-1.745c0-0.077,0-0.155,0-0.231c-0.101-0.004-0.151,0.043-0.175,0.115
			c-0.473-0.426-1.358-0.385-1.745-0.756c-0.574,0.27-1.222-0.455-1.745-0.291c-0.037-0.059-0.134-0.06-0.116-0.174
			c-0.21,0.033-0.54,0.102-0.582-0.175c-0.382,0.049-1.024,0.075-1.337-0.29c-0.511,0.203-1.097-0.326-1.396-0.408
			c-0.216-0.059-0.785,0.15-0.756-0.232c-0.054,0.043-0.088,0.105-0.116,0.175c-0.833-0.198-1.784-0.515-2.675-0.757
			c-0.691-0.187-1.598-0.215-2.036-0.581c-0.251,0.005-0.385,0.122-0.465-0.116c-0.063,0.014-0.039,0.115-0.116,0.116
			c-0.156,0.04-0.112-0.12-0.175-0.175c-0.059,0.038-0.06,0.135-0.174,0.117c-0.125-0.322-0.438,0.068-0.523-0.35
			c-0.472,0.062-1.157-0.107-1.454-0.407c-1.646,0.079-2.929-0.638-4.421-0.756c-0.501-0.274-1.447-0.103-1.803-0.523
			c-0.052,0.026-0.104,0.052-0.116,0.116c-0.438-0.57-1.684-0.332-2.442-0.582c0.001-0.301-0.025-0.447-0.232-0.639
			c-0.226-0.065-0.207,0.205-0.35,0.058c0.315-0.937,0.586-2.235,0.931-3.315c0.059,0,0.116,0,0.175,0
			c-0.074-0.473,0.105-0.601,0.058-0.93c0.121,0.032,0.124,0.09,0.059,0.174c0.255-0.037-0.094-0.629,0.232-0.465
			c-0.204-0.137-0.153-0.385,0.059-0.523c-0.281-0.412,0.334-0.941,0.174-1.279c-0.056,0.001-0.045,0.07-0.058,0.115
			c-0.137-0.012,0.167-0.648,0.116-0.232c0.162-0.184-0.118-0.532,0.059-0.756c0.099-0.021,0.109,0.045,0.116,0.117
			c0.158-0.151,0.061-0.197,0-0.35c0.236,0.017,0.131-0.021,0.116-0.174c0.098,0.199,0.279-0.021,0.407,0.174
			c-0.026-0.052-0.052-0.104-0.116-0.116c0.037-0.06,0.133-0.06,0.116-0.175c0.527-0.01,1.077,0.363,1.687,0.291
			c0.77-0.09,1.204-0.572,1.919-0.988c0.615-0.756,0.049-1.799-0.232-2.501c-0.289-0.118-0.29-0.524-0.64-0.581
			c-0.053-0.239-0.179-0.404-0.291-0.582c-0.244-0.012-0.18,0.285-0.466,0.232c-0.158-0.326-0.615-0.354-0.697-0.756
			c-0.104,0.145-0.074,0.062-0.291,0.059c-0.099-0.385,0.123-0.861,0.523-0.932c-0.01-0.149-0.277-0.338-0.407-0.174
			c0.157-0.246,0.196-0.846,0.232-1.279c0.084-0.154,0.13,0.213,0.35,0.115c0.04-0.262-0.098-0.133-0.232-0.115
			c0.045-0.041,0.129-0.324,0-0.35c0.057-0.178,0.154,0.066,0.232,0.059c-0.022-0.152-0.03-0.319-0.116-0.407
			c0.163,0.06,0.11-0.322,0.116-0.581c0.188-0.016,0.136,0.212,0.232,0.29c0.198-0.202-0.272-0.229-0.175-0.522
			c0.071,0.025,0.12,0.073,0.116,0.174C11.297,14.62,10.791,14.321,11.011,14.125z M10.546,16.218
			c0.061,0.334-0.246,0.605-0.059,0.873C10.624,16.862,10.838,16.39,10.546,16.218z M13.977,11.392
			c-0.231,0.057-0.175-0.174-0.407-0.117C13.557,11.429,13.929,11.491,13.977,11.392z M14.85,11.683
			c-0.172,0.031-0.411-0.166-0.466-0.059C14.523,11.665,14.795,11.906,14.85,11.683z M17.001,12.206
			c-0.128-0.338-0.587-0.387-0.872-0.408C16.308,12.046,16.638,12.143,17.001,12.206z M10.604,24.825
			c-0.216,0.233-0.371,0.414-0.814,0.291c-0.509,1.353-0.827,2.895-1.163,4.42c0.303,0.42,0.65,0.463,1.222,0.641
			c0.011,0.349,0.148,0.209,0.291,0.406c0.009-0.068-0.011-0.164,0.058-0.174c0.481,0.363,1.106,0.068,1.396,0.582
			c0.42-0.201,0.782,0.365,1.338,0.174c0.004,0.326,0.602,0.059,0.64,0.35c1.119,0.18,2.107,0.732,3.374,0.871
			c1.728,0.191,2.982,0.697,4.536,0.989c0.455,0.086,0.836,0.011,1.221,0.175c0.15,0.063,0.237,0.236,0.407,0.291
			c0.903,0.285,1.943,0.488,2.85,0.64c1.078,0.179,2.287,0.183,3.024,0.988c0.182,0.071,0.288-0.069,0.35,0.175
			c0.275-0.138,0.383-0.05,0.64,0.116c0.188,0.071,0.044-0.188,0.232-0.116c0.27,0.242,0.704,0.256,1.104,0.35
			c0.338,0.077,0.696,0.045,1.049,0.115c0.369,0.073,0.701,0.28,1.048,0.35c1.284,0.254,2.58,0.479,3.898,0.756
			c-0.052-0.754,0.228-0.99,0.349-1.57c0.168-0.793,0.236-1.717,0.408-2.269c0.103-0.331,0.393-0.589,0.115-0.872
			c-0.137-0.002-0.171,0.1-0.348,0.059c0.012-0.223-0.348-0.264-0.233-0.408c-0.411,0.125-0.473-0.119-0.698-0.406
			c-0.114-0.018-0.115,0.078-0.174,0.115c-0.067-0.085-0.067-0.146,0-0.232c-0.627-0.012-0.665-0.614-1.047-0.872
			c-0.186-0.716-0.541-1.925-0.291-2.85c0.127-0.124,0.222-0.282,0.174-0.581c0.084-0.023,0.099-0.07,0.176,0
			c0.086-0.488-0.053-0.777,0.348-0.989c-0.066-0.01-0.062-0.092-0.058-0.175c0.226-0.154,0.229,0.006,0.407-0.058
			c-0.298-0.417,0.302-0.624,0.465-0.931c0.074,0.143,0.637-0.333,1.047-0.407c0.006-0.001,0.003,0.128,0.059,0.116
			c0.277-0.057,0.213-0.094,0.349-0.291c0.026,0.148,0.082,0.268,0.175,0.35c0.014-0.109-0.065-0.129-0.059-0.232
			c0.494-0.197,1.582-0.072,2.443-0.175c0.207-1.665,0.262-3.522,0.988-4.886c-1.82-0.388-3.629-0.738-5.351-1.338
			c-0.39,0.07-0.982-0.082-1.222-0.348c-1.31-0.361-2.499-0.619-3.9-1.048c-0.944-0.054-2.226-0.217-2.851-0.64
			c-0.219,0.215-0.424-0.25-0.872-0.116c-0.259-0.29-0.982-0.141-1.338-0.466c-0.775-0.035-1.523-0.139-2.21-0.348
			c-1.057-0.322-2.151-0.543-3.198-0.873c-0.328-0.104-0.612-0.344-0.931-0.465c-0.896-0.344-1.883-0.383-2.733-0.582
			c-0.508-0.119-1.473-0.336-2.094-0.697c-0.64,0.032-1.405-0.432-1.978-0.35c0.066,0.39-0.199,0.689-0.291,1.105
			c-0.154,0.707,0.07,1.564-0.407,2.151c0.029,0.42-0.199,0.97-0.349,0.698c-0.171,0.131,0.017,0.489-0.232,0.64
			c0.469,0.843,1.484,0.868,1.803,1.919c0.186,0.035,0.18-0.109,0.291,0c0.324,0.48,0.614,1.272,0.756,1.744
			c0.207,0.092,0.035-0.197,0.175-0.174c0.104,0.318-0.174,0.254-0.232,0.407c0.068,0.009,0.164-0.011,0.174,0.058
			c-0.023,0.501-0.506,1.178-0.291,1.803c-0.246,0.182-0.449,0.404-0.814,0.467c0.01,0.184,0.003,0.35-0.116,0.406
			c-0.117-0.285-0.079,0.111-0.232,0.116c-0.077,0.009-0.216-0.195-0.232-0.058C13.003,24.521,11.7,25.185,10.604,24.825z
			 M12.64,14.357c0.062-0.194-0.019-0.198,0.058-0.407c-0.077,0-0.155,0-0.232,0C12.43,14.179,12.55,14.253,12.64,14.357z
			 M23.398,14.183c0.436,0.146,1.084,0.389,1.513,0.35C24.359,14.402,23.813,13.998,23.398,14.183z M42.305,20.464
			c-0.037-0.347,0.438-0.182,0.349-0.582c-0.164,0.049-0.15-0.082-0.291-0.058C42.33,19.988,42.16,20.315,42.305,20.464z"/>
		<path fill-rule="evenodd" clip-rule="evenodd" d="M27.116,30.579c0.21,0.1,0.002,0.279,0.116,0.35
			c-0.762-0.015-1.543-0.512-1.745-1.279c-0.062,0.014-0.039,0.115-0.116,0.115c-0.609-0.381-1.134-0.893-1.744-1.512
			c-1.278,0.275-2.406,1.18-3.606,0.465c0.014-0.084,0.174-0.02,0.175-0.116c-0.011-0.047-0.059-0.058-0.059-0.116
			c-0.052-0.158-0.13,0.178-0.232,0c0.001-0.154-0.021-0.332,0.059-0.407c0.062,0.015,0.039,0.116,0.116,0.116
			c0.099-0.205-0.001-0.203,0-0.465c0.288,0.11,0.271-0.385,0.232-0.407c0.058-0.163,0.155,0.085,0.232-0.058
			c-0.19-0.244,0.046-0.439,0-0.757c0.122,0.024,0.154-0.04,0.233-0.058c-0.026-0.268-0.044-0.448,0.058-0.699
			c0.11,0.008,0.04,0.193,0.175,0.176c-0.098-0.518-0.098-0.835,0.116-1.338c-0.475-0.515-0.848-1.131-1.454-1.512
			c-0.049-0.358-0.243-0.572-0.523-0.698c0.148-0.274,0.219-0.09,0.581-0.116c-0.101-0.15-0.396-0.107-0.349-0.407
			c0.812,0.126,1.606,0.112,2.617,0.175c0.577,0.035,1.039,0.218,1.396-0.232c-0.126-0.445,0.154-0.705,0.466-0.873
			c0.55-0.616,1.87-2.72,2.792-1.338c-0.067,0.069-0.066,0.206-0.059,0.35c0.059-0.038,0.061-0.135,0.174-0.117
			c-0.004,0.852,0.219,1.584,0.35,2.792c1.192,0.619,2.105,1.303,3.257,1.861c0.075,0.216,0.245,0.337,0.232,0.64
			c-0.541,0.152-0.684,0.775-1.279,0.756c-0.124,0.361-0.337,0.633-0.756,0.698c0.006,0.144,0.109,0.18,0,0.29
			c-0.217,0.062-0.092-0.218-0.291-0.174c-0.078,0.039-0.108,0.125-0.116,0.232c0.067,0.01,0.104-0.013,0.116-0.059
			c0.08,0.314-0.516,0.453-0.698,0.698c-0.064,1.091-0.288,1.831-0.232,2.675C27.313,30.388,27.233,30.503,27.116,30.579z
			 M28.745,24.995c-0.786-0.475-1.635-0.885-2.385-1.395c-0.156,0.115-0.125,0.418-0.35,0.465c-0.721-0.777,0.062-2.055-0.465-3.141
			c-0.631,0.455-0.963,1.209-1.396,1.861c-0.067-0.049-0.156-0.076-0.291-0.059c-0.138,0.234,0.093,0.143,0.116,0.35
			c-0.585,0.438-1.599-0.189-2.501,0.058c0.249,0.431,0.592,0.765,1.105,0.931c0.214,1.478-0.846,2.555-1.105,3.78
			c0.768-0.171,1.539-0.445,2.269-0.813c0.906,0.645,1.524,1.576,2.559,2.093c0.158-0.89-0.071-2.22,0.116-2.501"/>
	</g>
	<g id="shopping">
		<path fill-rule="evenodd" clip-rule="evenodd" d="M23.017,17.244c0.163,0.067,0.302,0.067,0.465,0
			C23.535,17.514,23.042,17.405,23.017,17.244z"/>
		<path fill-rule="evenodd" clip-rule="evenodd" d="M28.891,40.215c0.066,0.184-0.091,0.143-0.116,0.233
			c-0.179,0.043-0.111-0.16-0.29-0.116C28.557,40.109,28.723,40.342,28.891,40.215z"/>
		<path fill-rule="evenodd" clip-rule="evenodd" d="M39.418,30.037c-0.154,0.018-0.047-0.225-0.232-0.174
			c-0.059,0.328,0.209,0.334,0.348,0.465c-0.092,0.492-0.422,0.469-0.289,0.989c0.049,0.172,0.086-0.136,0.23-0.058
			c-0.334,1.323-0.287,2.809,0.117,4.245c-0.562,0.769-0.17,1.409-0.232,2.269c0.021,0.081,0.102,0.004,0.115-0.059
			c-0.145,1.342,0.043,3.173-0.289,4.652c-0.129-0.007-0.025-0.246-0.059-0.349c-0.227,0.077-0.012,0.26-0.117,0.407
			c-1.293-0.445-3.176-0.06-4.07-0.523c-0.195,0.305-1.035-0.078-1.512,0.174c-0.459-0.233-0.902,0.026-1.338-0.174
			c-2.099,0.204-5.16-0.018-7.328,0.058c-0.218,0.009-0.577,0.013-0.582,0.233c-0.104,0.008-0.123-0.071-0.232-0.059
			c-0.134-0.018-0.065,0.168-0.175,0.174c-0.344,0.073-0.416-0.127-0.582-0.232c-1.208,0.318-2.335,0.099-3.722,0.117
			c-1.914,0.024-4.683,0.104-6.804-0.408c-0.636,0.273-1.627,0.246-1.978-0.174c0.119-0.77-0.211-1.68-0.232-2.559
			c-0.03-1.241,0.051-2.631-0.059-3.955c-0.07-0.848,0.098-1.812,0.117-2.5c0.02-0.718-0.095-1.412-0.117-2.27
			c-0.01-0.411-0.079-0.845-0.058-1.221c0.015-0.271,0.194-0.583,0.175-1.047c-0.015-0.334-0.266-0.945-0.058-1.279
			c-0.057-0.061-0.115-0.118-0.175-0.175c-0.087-2.92,0.437-6.012,0.116-9.363c0.084,0.013,0.021,0.173,0.117,0.175
			c0.047-0.254-0.154-0.394,0-0.641c-0.258-0.027-0.29,0.08-0.466,0c0.013-0.446,0.775-0.693,0.349-1.047
			c0.13-0.188,0.418-0.611,0.64-0.349c0.136-0.039,0.044-0.306,0.291-0.232c0.188-0.052,0.082,0.189,0.174,0.232
			c1.029,0.126,2.856,0.119,4.071,0.058c0.595-0.572,0.551-1.913,1.338-2.441c0-0.117,0-0.233,0-0.35
			c0.164,0.048,0.15-0.082,0.291-0.059c0.478-1.228,1.498-1.914,2.152-2.966c0.966-0.449,1.659-1.171,2.617-1.628
			c0.024,0.121-0.04,0.153-0.058,0.232c0.338-0.186,0.712-0.335,1.047-0.523c0.137-0.002,0.171,0.1,0.349,0.059
			c1.342-0.498,2.694,0.15,3.955,0.058c0.699,0.444,1.382,0.905,2.036,1.396c0.723,1.064,1.754,2.312,2.5,3.548
			c-0.008,1.173,0.557,1.485,0.814,2.385c1.041,0.148,1.691,0.023,2.965,0c0.008,0.104-0.07,0.122-0.057,0.232
			c0.49-0.379,1.852,0.159,2.674-0.232c0.268,0.268,1.127-0.083,1.514,0.232c0.016,0.21-0.107,0.28-0.117,0.466
			c-0.094,0.016-0.1-0.056-0.174-0.059c0.082,0.434,0.006,1.305,0,2.21c-0.004,0.372,0.102,0.731,0.057,0.989
			c-0.016,0.102-0.119,0.105-0.115,0.174c0.029,0.461,0.578,0.877,0.174,1.221c0.357,0.512,0.25,0.839,0.176,1.455
			c0.443,0.433-0.055,1.377,0,1.977c0.152,0.018,0.189-0.08,0.174-0.232c0.145,0.074,0.043,0.564-0.117,0.35
			c0.094,0.357,0.09,0.386-0.057,0.697c0.104,0,0.162,0.109,0,0.232c0.014,0.104,0.1,0.133,0.232,0.117
			c-0.078,0.097,0.021,0.369-0.176,0.349c0.236,1.352-0.295,1.954-0.232,3.024c-0.133,0.018-0.064-0.168-0.174-0.175
			c-0.043,0.149,0.066,0.349,0,0.64c0.018,0.205,0.158-0.205,0.174,0c0,0.078,0,0.155,0,0.232
			C39.332,28.852,39.285,29.607,39.418,30.037z M29.589,12.067c-0.985-1.523-2.717-2.864-4.595-2.966
			c-0.979-0.466-1.946-0.077-2.792,0.349c-2.188,1.104-3.857,3.098-4.594,5.293c-0.301,0.029-0.292,0.367-0.349,0.64
			c2.404,0.064,3.953-0.053,6.048-0.058c1.093-0.004,2.341,0.216,3.606,0.115c0.639-0.05,1.258-0.115,1.919-0.058
			c0.118-0.036,0.017-0.294,0.232-0.232c0.313,0.046,1.095,0.219,1.569,0C30.656,13.807,29.555,13.043,29.589,12.067z
			 M32.322,15.034c0.006-0.181-0.027-0.322-0.117-0.407C32.074,14.764,32.27,14.904,32.322,15.034z M29.414,17.01
			c-0.118-0.017-0.113-0.156-0.232-0.174c-0.08,0.035-0.009,0.224-0.116,0.232c-0.075-0.138-0.188-0.238-0.349-0.291
			c-0.014,0.045-0.002,0.115-0.059,0.117c-0.028,0.241,0.336,0.091,0.35,0.29c-0.068,0.01-0.063,0.093-0.059,0.175
			c-0.314-0.02-0.582,0.094-0.873,0c0.093-0.124,0.187-0.371,0-0.465c-0.057,0.419-0.27,0.421-0.465,0.581
			c-0.067-0.01-0.062-0.092-0.059-0.175c-0.164-0.009-0.135,0.176-0.29,0.175c-0.044-0.188-0.167-0.3-0.29-0.407
			c-0.203,0.209,0.18,0.161,0.115,0.407c-0.348-0.112-0.636,0.069-1.047-0.116c0-0.155,0.184-0.127,0.175-0.291
			c-0.069-0.066-0.206-0.066-0.349-0.059c-0.035,0.206,0.276,0.362,0,0.466c-0.12-0.17-0.188-0.219-0.116-0.466
			c-0.322-0.07-0.218,0.286-0.407,0.35c0-0.098,0-0.193,0-0.291c-0.146-0.035-0.195-0.047-0.407-0.116
			c-0.134,0.235,0.217,0.44-0.175,0.523c-0.154-0.183,0.164-0.245,0-0.466c-0.28,0.051-0.008,0.389-0.232,0.408
			c-0.146,0.01-0.182-0.09-0.233-0.175c0.111,0.108,0.105-0.034,0.291,0c0-0.097,0-0.194,0-0.291
			c-0.149,0.19-0.366-0.028-0.582,0.116c-0.042,0.178,0.1,0.171,0.058,0.35c-0.175-0.145-0.422,0.088-0.465-0.117
			c0.153-0.156-0.007-0.289,0.291-0.174c-0.045-0.254-0.161-0.099-0.349-0.232c-0.024,0.11-0.021,0.25-0.174,0.232
			c0.067-0.086,0.067-0.146,0-0.232c-0.291,0-0.582,0-0.873,0c-0.077,0.145,0.23,0.182,0.058,0.232c-0.078,0-0.155,0-0.233,0
			c-0.055-0.108,0.174-0.195,0-0.232c-0.057,0.059-0.115,0.117-0.174,0.174c-0.013-0.109,0.066-0.129,0.058-0.232
			c-2.167,0.109-3.429,0-5.409,0.232c0.1,1.233-0.391,2.52,0.117,3.432c-0.024,0.196-0.226-0.154-0.175,0.116
			c0.57,0.556,1.494,1.524,0.698,2.442c-0.072,0.188,0.188,0.045,0.116,0.232c-0.134,0.123-0.201,0.542-0.465,0.35
			c-0.104,0.398-0.678,0.411-0.989,0.407c-1.029-0.015-2.244-0.764-2.152-1.687c-0.127,0.01-0.185-0.048-0.175-0.175
			c0.05-0.493,0.308-0.778,0.349-1.28c1.194-0.576,1.17-2.363,1.163-3.722c-0.403-0.01-0.754,0.171-0.872-0.116
			c-0.29,0.508-1.256,0.375-1.628,0.523c0.058-0.115,0.257-0.092,0.232-0.291c-0.217,0.062-0.166-0.145-0.349-0.116
			c0.016,0.152-0.021,0.251-0.175,0.233c0.022-0.197-0.257-0.092-0.174-0.35c0.31-0.033,0.402,0.028,0.582-0.174
			c-0.254-0.156-0.543,0.08-0.814-0.059c-0.087,0.32,0.174,0.291,0.233,0.465c-0.11-0.013-0.128,0.066-0.233,0.059
			c0.105,0.946-0.176,1.699,0.058,2.152c-0.283,0.478-0.06,0.955-0.058,1.453c0.012,2.851-0.454,5.791-0.407,8.607
			c0.022,1.352,0.155,2.748,0.291,3.955c-0.131,0.492,0.211,1.24,0.116,2.035c-0.123,1.037,0.26,2.295,0.058,3.083
			c0.558,0.458,0.161,1.206,0.117,1.919c2.329,0.205,5.021-0.176,7.619,0.175c0.009-0.068-0.01-0.165,0.058-0.175
			c1.547,0.005,4.431,0.047,5.99,0.116c0.155-0.235,0.722-0.173,0.931,0c0.525-0.392,1.264,0.188,1.512-0.29
			c0.364,0.409,0.694,0.02,1.338,0.232c-0.076-0.234-0.115-0.144,0-0.35c-0.209,0.035-0.328-0.021-0.349-0.174
			c0.15,0.176,0.216,0.059,0.407,0c0.157,0.127,0.016,0.193,0.116,0.349c0.358-0.09,0.681,0.008,1.222,0
			c0.008-0.392-0.725-0.002-0.523-0.407c0.139,0.415,0.979-0.27,1.104,0.232c-0.096,0.098-0.424-0.037-0.406,0.175
			c0.346-0.042,0.586,0.072,0.697-0.116c-0.131-0.068-0.174,0.03-0.232-0.175c0.436-0.017,0.549,0.124,0.873-0.058
			c1.326,0.447,3.719-0.34,4.711,0.291c-0.07,0.012-0.035,0.064,0,0.115c-0.26,0.152-0.455,0.172-0.641,0.291
			c0.254,0.125,0.486,0.01,0.873,0c0.182-2.043-0.09-3.941,0-5.583c-0.018-0.134,0.168-0.065,0.174-0.175
			c-0.477-0.25,0.035-0.666-0.291-1.047c0.266-0.227,0.135-0.514,0.176-0.756c0.205-1.256,0.021-2.653,0.057-4.013
			c0.051-1.909,0.229-3.758,0-5.292c-0.4-0.031-0.34-0.815-0.057-0.757c-0.102,0.003-0.15-0.044-0.176-0.116
			c0.012-1.887,0.252-3.656,0.176-5.583c0.023-0.11,0.125-0.146,0.115-0.291c-0.193-0.156-0.77-0.104-0.871-0.175
			c0.066-0.087,0.203-0.244,0-0.29c-0.115,0.04,0.014,0.324-0.117,0.349c-0.199-0.107-0.625-0.06-0.988,0.059
			c0.092-0.215-0.371-0.056-0.523-0.059c-0.078-0.098,0.021-0.37-0.176-0.349c0.062,0.157,0.037,0.272-0.115,0.349
			c-0.367-0.275-0.891,0.359-1.338-0.116c-0.107,0.282-0.176,0.128-0.35,0.175c0.336,1.139,0.496,2.338,0.291,3.547
			c0.74,0.622,1.58,1.818,0.641,2.617c-0.643,1.492-3.604,0.217-3.373-1.512c0.072-0.547,0.549-1.29,1.162-1.279
			c0.02-0.466-0.123-1.24-0.232-1.629c-0.174-0.627-0.186-1.518-0.697-1.803c-0.057,0.108,0.174,0.194,0,0.232
			c-0.234-0.114-0.447-0.251-0.697-0.349c-0.01,0.108-0.039,0.194-0.117,0.232c-0.043-0.177,0.059-0.212,0.059-0.349
			c-0.223,0.171-0.472,0.504-0.698,0.232c0.146-0.023,0.268-0.199,0.175-0.291c-0.154,0.27-0.402-0.143-0.35,0
			C29.482,16.864,29.482,16.924,29.414,17.01z M13.188,17.418c0.165,0.024,0.18-0.396,0.116-0.408
			C13.259,17.14,13.183,17.237,13.188,17.418z M11.443,22.42c0.215-0.086,0.166-0.444,0.058-0.582
			C11.398,21.948,11.459,22.222,11.443,22.42z M15.224,22.594c0.03-0.105,0.269-0.492,0-0.523
			C15.244,22.231,15.057,22.479,15.224,22.594z M15.515,23.059c0.15,0.094,0.63,0.115,0.582-0.175
			c-0.162,0.051-0.349-0.13-0.407-0.349C15.62,22.7,15.558,22.87,15.515,23.059z M32.846,23.292c0.24,0.067,0.227-0.122,0.406-0.116
			c-0.15-0.17,0.15-0.286,0-0.407C33.248,23.155,32.771,22.778,32.846,23.292z M15.049,23.175c-0.074-0.012-0.285-0.169-0.291-0.058
			C14.819,23.215,14.984,23.409,15.049,23.175z M36.219,40.681c0.037,0.104,0.385,0.287,0.406,0
			C36.414,40.732,36.316,40.578,36.219,40.681z"/>
		<path fill-rule="evenodd" clip-rule="evenodd" d="M27.438,40.332c0.155-0.139,0.264,0.035,0.465-0.059
			C27.818,40.48,27.543,40.327,27.438,40.332z"/>
	</g>
	<g id="grocery-pharmacy">
		<path fill-rule="evenodd" clip-rule="evenodd" d="M27.268,15.37c0.12,0.016,0.116,0.155,0.175,0.232
			c0.079-0.018,0.049-0.146,0.059-0.232c0.263,0.092,0.71-0.104,0.988-0.116c0.068,0.009,0.049,0.106,0.059,0.174
			c0.115,0,0.073-0.159,0.232-0.116c0.475,0.424,1.525,0.245,2.385,0.116c0.097,0.116-0.006,0.074,0,0.232
			c0.229,0.01-0.019-0.089,0.116-0.174c0.741,0.142,1.204,0.131,1.802-0.058c0.031,0.047,0.062,0.095,0.059,0.174
			c0.734-0.325,2.146,0.04,2.85-0.232c-0.016,0.094,0.055,0.1,0.059,0.174c0.066-0.232,0.416,0.079,0.407-0.291
			c0.157,0.163,0.145,0.046,0.349,0c0,0.058,0,0.116,0,0.174c0.657-0.116,1.691-0.245,2.501,0c0.068-0.009,0.049-0.106,0.058-0.174
			c0.527,0.089,1.17-0.036,1.745,0.174c0.239-0.251,0.404,0.006,0.582-0.174c0.222-0.028,0.37,0.016,0.465,0.116
			c0.655-0.368,0.73,0.353,1.28,0.523c-0.169,0.421,0.307,0.658-0.117,0.873c0.291,1.328-1.035,2.293-0.872,3.256
			c-0.091,0.213-0.087-0.135-0.233-0.058c-0.031,0.129,0.111,0.083,0.117,0.174c-0.154,0.603-0.727,0.786-0.756,1.513
			c-0.059,0-0.117,0-0.175,0c-0.019,0.55-0.076,0.744-0.349,1.163c-0.1,0.021-0.109-0.045-0.117-0.116
			c-0.048,0.349-0.108,0.536-0.174,0.989c-0.183,0.064-0.154,0.027-0.291-0.059c-0.141,0.053,0.132,0.171,0.059,0.349
			c-0.236-0.022-0.042,0.385-0.35,0.291c-0.214,0.843-0.668,1.612-1.104,2.385c-0.202,0.612-0.24,1.388-0.582,1.86
			c-0.067-0.048-0.155-0.076-0.29-0.058c-0.071,0.087-0.275,0.242-0.059,0.291c-0.041,0.152-0.265,0.123-0.291,0.29
			c-0.205-0.006,0.124-0.191-0.059-0.174c-0.191,0.138-0.266,0.393-0.581,0.407c0.042-0.178-0.06-0.212-0.058-0.35
			c-0.094,0.479-0.543,0.298-1.105,0.35c0.037-0.06,0.134-0.061,0.116-0.175c-0.229-0.073-0.173,0.137-0.175,0.291
			c-1.227-0.15-3.025,0.07-3.954-0.175c-0.618,0.277-1.871,0.064-2.385,0.291c-0.389-0.217-0.831-0.005-1.338-0.175
			c-1.378,0.316-3.06-0.364-4.478-0.116c-0.294-0.232-0.535-0.16-0.989-0.232c0.031,0.047,0.061,0.094,0.059,0.175
			c-0.057-0.002-0.045-0.071-0.059-0.117c-0.519-0.059-1.034,0.164-1.454,0.117c-0.156-0.019-0.599-0.282-0.756,0.058
			c-0.955-0.186-1.357,0.049-2.094,0.232c-0.035,0.353,0.208,0.545,0,0.757c0.182,0.265,0.144,0.748,0.233,1.104
			c0.021,0.076,0.102,0.092,0.116,0.175c2.548-0.173,5.944,0.301,8.549,0.058c2.497,0.271,5.346,0.119,7.734,0.175
			c0.746,0.018,1.183,0.166,1.746,0.291c-0.211,0.367-0.021,0.72,0.115,1.046c-0.152,0.37-0.293,0.355-0.756,0.291
			c-0.629-0.086-1.398,0.033-2.035,0.059c-0.756,0.03-1.536-0.076-2.326-0.059c-1.714,0.039-3.479-0.075-5.176-0.058
			c-0.103,0.053-0.097,0.214-0.233,0.232c-0.234-0.057-0.474-0.107-0.64-0.232c-0.253,0.223-0.724,0.377-0.988,0
			c-0.085,0.051-0.226,0.046-0.175,0.232c-1.127,0.003-1.606-0.483-2.385,0c0.004-0.116-0.576-0.319-0.523,0
			c-0.094-0.178-0.417-0.125-0.581-0.232c-0.087,0.068-0.26,0.051-0.232,0.232c-0.357-0.279-0.634,0.055-1.048-0.232
			c-0.137,0.188-0.564,0.253-0.697,0c-0.085,0.051-0.185,0.087-0.175,0.232c-0.545-0.568-1.091-0.196-1.86-0.291
			c-0.292-1.582-0.899-3.115-1.222-4.478c-0.184,0.08-0.194,0.013-0.407,0c0.081-0.191,0.278-0.265,0.349-0.466
			c-0.49-0.923-0.161-2.201-0.756-2.966c0.122-0.61-0.18-1.275-0.232-1.745c-0.025-0.086-0.074,0.023-0.175,0
			c-0.001-0.485-0.763-1.37-0.523-2.094c-0.287-0.139-0.163-0.74-0.058-0.989c-0.229-0.254-0.388-1.034-0.407-1.687
			c0.1-0.095,0.206-0.182,0.291-0.291c-0.169-0.629-0.229-1.797-0.698-2.442c0.01-0.068,0.106-0.049,0.175-0.058
			c-0.059-0.724-0.646-1.451-0.35-2.151c-0.057-0.164-0.155,0.084-0.232-0.059c0.105-0.199-0.066-0.271-0.058-0.523
			c0.051,0.036,0.104,0.07,0.116,0c-0.239-0.899-0.653-2.079-1.861-2.442c-0.479,0.529-1.213,0.803-2.094,0.93
			c-0.222-0.153-0.429-0.223-0.698-0.058c-0.049-0.223-0.297-0.245-0.523-0.291c-0.43-0.603-1.103-0.759-1.163-1.628
			c0.078,0,0.155,0,0.232,0c0.006-0.158-0.097-0.117,0-0.232C6.683,9.479,6.794,9.746,6.563,9.67c-0.086-0.084-0.086-0.38,0-0.465
			C6.729,9.196,6.516,9.564,6.68,9.554C6.799,9.33,6.659,9.159,6.738,8.856c0.385-0.127,0.353-0.311,0.465-0.697
			C7.761,8.245,7.712,7.89,8.134,7.751C8.311,7.749,8.36,7.874,8.482,7.926c1.112-0.979,3.071,0.347,3.024,1.57
			c0.961,0.092,1.89,0.704,2.385,1.454c0.164,0.048,0.15-0.082,0.291-0.058c0.641,1.045,0.854,2.519,1.163,3.896
			c-0.133,0.232-0.349,0.434-0.232,0.756c0.225-0.011,0.428-0.002,0.581,0.058c0.079-0.018,0.049-0.146,0.059-0.232
			c1.817-0.067,3.262,0.211,4.479,0c0.187-0.051,0.079,0.192,0.232,0.174c-0.071-0.282,0.767-0.159,0.756,0.058
			c0.473-0.098,1.017-0.229,1.396,0.058c0.199,0.044,0.074-0.236,0.291-0.174c-0.031,0.047-0.061,0.094-0.059,0.174
			c0.337-0.056,0.641-0.165,0.931,0.058c0.055-0.042,0.088-0.105,0.116-0.174c0.208,0.173,0.534,0.071,0.64-0.116
			c0.271-0.057,0.079,0.348,0.35,0.291c0.067-0.106-0.107-0.196,0.058-0.349c0.151,0.082,0.385,0.08,0.523,0.174
			c0.203-0.179,0.263,0.005,0.35-0.291c0.084,0.142,0.567,0.194,0.64,0C26.707,15.418,27.13,15.549,27.268,15.37z M8.018,10.136
			C8.25,10,8.317,9.699,8.482,9.496C8.103,9.585,8.257,9.878,8.018,10.136z M30.583,17.231c-0.141-0.06-0.299,0.113-0.465-0.116
			c-0.204,0.126-0.093,0.304-0.175,0.465c-0.101,0.003-0.149-0.044-0.175-0.116c0.006-0.092,0.148-0.045,0.116-0.174
			c-1.134-0.144-2.177,0.139-3.198,0.174c-0.623,0.021-1.231-0.049-1.861-0.059c-1.361-0.019-2.729,0.32-4.013-0.291
			c0.071-0.006,0.138-0.017,0.116-0.116c-0.206-0.032-0.143,0.206-0.349,0.174c-0.367-0.288-0.962-0.365-1.28-0.117
			c-0.734-0.144-1.917-0.095-2.733,0c-0.333,0.01-0.475-0.1-0.697,0.059c0.239,2.624,0.545,4.306,1.104,6.397
			c-0.054-0.035-0.214-0.135-0.174,0.058c0,0.039,0,0.078,0,0.117c0.285,0.055-0.032,0.466,0.349,0.581
			c-0.302-0.007-0.095,0.729,0.059,0.407c-0.085,0.22,0.159,0.112,0.116,0.291c-0.023,0.112-0.226,0.046-0.175,0.232
			c0.133,0.08,0.219-0.15,0.232,0c-0.267,0.439,0.55,1.163,0.175,1.687c0.176,0.138,0.127,0.478,0.174,0.523
			c0.164,0.158,0.557,0.172,0.814,0.174c1.021,0.009,2.52-0.181,3.257,0.059c1.201-0.155,2.394-0.157,3.548-0.232
			c0.537-0.035,1.205,0.085,1.803,0c0.104-0.015,0.202-0.124,0.291-0.116c0.595,0.055,1.123-0.017,1.629,0
			c0.038-0.212,0.174-0.181,0.29-0.059c0.014-0.278,0.528-0.304,0.582-0.058c0.046-0.109,0.144-0.149,0.291-0.175
			c-0.007,0.001,0.643,0.018,0.581,0c0.131,0.037,0.143,0.223,0.232,0.232c0.476,0.052,1.012-0.323,1.454,0
			c0.161-0.052,0.211-0.216,0.407-0.232c0.419,0.34,0.985-0.064,1.512,0.232c-0.066,0.086-0.066,0.147,0,0.233
			c0.545-0.074,1.385,0.096,2.152-0.059c0.394-0.344,0.723-0.75,1.163-1.047c-0.065-0.329-0.056-0.516,0.233-0.698
			c-0.127,0.01-0.027-0.206-0.059-0.291c0.286-0.495,0.255-1.485,0.814-1.861c0.062-0.382,0.115-0.776,0.465-0.872
			c0.021-0.667,0.188-1.255,0.582-1.28c-0.111-0.326,0.394-0.535,0.232-1.105c0.102,0.004,0.181-0.013,0.232-0.058
			c0.422-1.013,0.996-1.874,1.338-2.966c-0.908-0.042-1.365,0.219-1.979,0c-2.322,0.1-5.381,0.068-8.083,0.059
			c-0.081,0.074-0.025,0.284-0.175,0.291c-0.633-0.111-0.716,0.061-1.163-0.058C30.252,17.257,30.533,17.422,30.583,17.231z"/>
		<path fill-rule="evenodd" clip-rule="evenodd" d="M25.175,38.518c0.05,0.186-0.092,0.18-0.117,0.29
			c0.112,1.297-0.98,2.648-1.919,3.083c-0.455,0.648-1.93,0.425-2.326,0.523c-0.092-0.103-0.268-0.121-0.291-0.291
			c-0.055,0.043-0.088,0.106-0.116,0.175c-0.068-0.009-0.049-0.106-0.058-0.175c-2.025-0.457-3.067-1.838-3.024-3.663
			c0.13,0.024,0.023,0.286,0.058,0.406c0.027-0.505,0.357-1.289,0.407-1.745c0.395-0.09,0.444-0.524,0.582-0.872
			c0.496,0.008,0.723-0.662,1.104-0.407c0.084-0.013,0.021-0.173,0.116-0.174c0.393,0.314,0.906-0.674,1.338-0.059
			c1.476-0.08,2.482,0.588,3.141,1.222c0.263,0.253,0.275,0.42,0.465,0.756C24.679,37.842,25.146,38.145,25.175,38.518z
			 M19.939,36.656c-0.368,0.655-1.208,1.342-1.279,2.385c-0.091,1.342,1.142,2.404,2.152,2.5c1.424,0.137,2.992-1.649,2.792-2.791
			c0.026,0.183-0.051,0.26-0.233,0.232c0.104-0.29,0.069-0.808,0-1.104c-0.178,0.056-0.54,0.017-0.465-0.35
			c-0.449-0.06-1.088-0.604-1.629-0.407c-0.026-0.238-0.453-0.185-0.756-0.29c0.125-0.181,0.194-0.153,0.059-0.35
			c-0.217-0.003-0.23,0.197-0.523,0.117C20.123,36.845,20.091,36.736,19.939,36.656z"/>
		<path fill-rule="evenodd" clip-rule="evenodd" d="M33.2,36.656c0.163-0.06,0.415,0.018,0.465,0.233
			c0.115-0.001,0.074-0.159,0.232-0.117c0.039,0.194,0.15,0.316,0.407,0.291c0.032,0.118,0.175,0.114,0.059,0.232
			c0.962,0.562,1.132,1.994,0.64,3.024c-0.176-0.072-0.301,0.193-0.174,0.232c-0.277,0.247-0.586,0.462-0.757,0.814
			c-0.099,0.021-0.11-0.046-0.116-0.116c-0.079,0.018-0.049,0.146-0.059,0.232c-1.391,0.952-3.865,1.188-4.942-0.116
			c-0.565-0.138-0.935-0.927-1.222-1.454c0.237-0.985-0.177-1.961,0.465-2.617c0.008-0.104-0.071-0.122-0.058-0.232
			c0.159-0.022,0.248-0.269,0.407-0.116c0-0.078,0-0.155,0-0.232c0.135-0.019,0.223,0.009,0.29,0.058
			c0.029-0.183-0.2-0.153-0.058-0.291c0.124-0.026,0.11,0.083,0.116,0.175c0.115-0.156,0.438-0.104,0.349-0.465
			c0.397-0.051,0.417-0.033,0.814-0.175c0.05,0.047,0.035,0.159,0.116,0.175c0.073-0.015,0.059-0.116,0-0.117
			c0.084-0.097,0.347-0.17,0.466-0.058C31.477,35.358,32.813,35.999,33.2,36.656z M32.56,37.471
			c-0.252,0.015-0.216-0.193-0.348-0.291c-1.449-1.066-3.82,0.703-3.199,2.385c-0.001,0.076-0.102,0.054-0.116,0.116
			c0.131,0.597,0.897,0.699,1.279,0.872c-0.154,0.001-0.343-0.032-0.349,0.116c0.288,0.184,0.619,0.119,0.756,0.35
			c0.014-0.103,0.1-0.133,0.232-0.116c0.739,0.276,1.548-0.259,2.152-0.523c0.109,0.006,0.04,0.192,0.174,0.174
			c-0.016-0.305,0.102-0.171,0.291-0.232c0.393-0.645,0.657-2.488-0.35-2.675c0.016-0.171-0.131-0.18-0.115-0.35
			c-0.27,0.022-0.15,0.432-0.466,0.407C32.521,37.625,32.585,37.592,32.56,37.471z M32.56,40.96c0.23-0.003,0.347-0.119,0.35-0.349
			C32.61,40.749,32.649,40.613,32.56,40.96z"/>
	</g>
	<g id="restaurants-pubs">
		<path fill-rule="evenodd" clip-rule="evenodd" d="M16.75,8.881c0.167,0.008,0.106,0.243,0.117,0.407
			C16.644,9.215,16.876,9.049,16.75,8.881z"/>
		<path fill-rule="evenodd" clip-rule="evenodd" d="M20.123,37.437c0.058,0,0.116,0,0.174,0c0,0.077,0,0.155,0,0.233
			c-0.052-0.036-0.104-0.07-0.116,0C20.102,37.651,20.133,37.523,20.123,37.437z"/>
		<path fill-rule="evenodd" clip-rule="evenodd" d="M18.378,6.438c0.067-0.166,0.067,0.094,0,0.116
			c0.187,0.051,0.08-0.191,0.233-0.174c0.981,0.137,2.716-0.309,2.733,1.338c0.079-0.018,0.048-0.146,0.058-0.233
			c0.131,0.305,0.118,0.792,0.174,1.105c0.077,0.426,0.006,1.122,0,1.803c-0.003,0.319,0.173,0.723,0.175,1.104
			c0.002,0.432-0.138,0.81-0.058,1.164c0.228,1.013,0.257,3.17,0.349,4.304c0.005,0.058,0.115,0.04,0.116,0.058
			c0.199,2.057,0.37,4.112,0.466,5.932c-0.457,0.632-0.906,1.395-1.629,1.454c0.163,2.671,0.148,4.875,0.233,7.271
			c0.231,1.289,0.65,3.119,0.523,4.652c0.185,0.975,0.083,1.801,0.232,2.559c0.03,0.154,0.028,0.463-0.116,0.291
			c-0.068,0.746,0.269,1.585,0.116,2.268c-0.022,0.101-0.168,0.146-0.174,0.232c-0.014,0.216,0.127,0.665,0.174,0.932
			c0.032,0.179,0.036,0.405,0,0.465c-0.021,0.034-0.077-0.108-0.058-0.116c-0.732,0.304-1.667,0.997-2.792,0.466
			c-0.325,0.318-0.619,0.02-0.988-0.176c0.113-0.144-0.057-0.207,0.116-0.29c-0.312-0.032-0.694,0.007-0.756-0.349
			c-0.108,0.461-0.309-0.3-0.465-0.35c0.14-0.104,0.18-0.308,0.116-0.465c-0.053-0.17-0.214-0.018-0.232-0.117
			c-0.04-0.193,0.12-0.094,0.174-0.058c-0.162-0.323-0.069-0.493-0.058-0.872c-0.108-0.145-0.329-0.176-0.291-0.465
			c0.223-0.012,0.021,0.047,0.059,0.174c0.077,0,0.155,0,0.232,0c-0.148-0.195,0.036-0.41-0.291-0.465
			c-0.056-0.109,0.174-0.195,0-0.232c0.024-0.132,0.319,0.008,0.291-0.176c-0.079-0.014-0.234-0.053-0.174-0.348
			c0.169,0.052,0.017,0.213,0.116,0.232c0.195-0.373-0.226-1.229,0.116-1.57c-0.016-0.123-0.155,0.084-0.232-0.059
			c-0.041-0.293,0.019-0.484,0.174-0.582c0.012-0.1-0.099-0.15,0-0.174c-0.006-0.206-0.192,0.123-0.174-0.059
			c-0.089-0.249,0.223-0.189,0.291-0.116c-0.073-0.648-0.056-1.059,0.116-1.396c-0.231-1.276-0.172-1.4-0.232-2.791
			c0.047,0.01,0.058,0.058,0.116,0.058c-0.085-1.108-0.041-2.653,0.058-3.722c-0.167-0.387-0.113-1.705,0.116-1.861
			c-0.256-0.24,0.034-0.361-0.232-0.523c0.128-1.537,0.026-2.529,0.174-3.955c-0.009-0.068-0.106-0.049-0.174-0.058
			c-0.046-0.569,0.322-1.445-0.058-1.628c-0.018-0.238,0.122-0.031,0.232-0.058c0.043-0.179-0.159-0.112-0.116-0.291
			c-0.052,0.026-0.104,0.051-0.116,0.116c0.247-0.949-0.18-2.292,0.116-3.489c-0.25-0.217-0.169-0.81,0.058-1.163
			c-0.001-0.137-0.159,0.021-0.116,0.116c-0.172-0.084-0.05-0.13-0.116-0.349c0.129-0.032,0.083,0.111,0.174,0.116
			c0.017-0.152-0.021-0.25-0.174-0.232c0.177-0.403-0.156-0.769,0-1.396c0.047-0.192-0.207-0.371-0.233-0.582
			c-0.069-0.562,0.159-1.138,0.233-1.919c0-0.213-0.272-0.155-0.174-0.465c0.277,0.187-0.006-0.123,0.232-0.116
			c0.093-0.183-0.359-0.2-0.058-0.233c-0.009-0.068-0.106-0.049-0.174-0.058c-0.068-0.152,0.179-0.25-0.059-0.232
			c0.255-0.317,0.228-0.698,0.059-1.047c0.194,0.217,0.037-0.011,0.058-0.233c0.058,0,0.116,0,0.174,0
			c0.058-0.52,0.071-0.735,0.349-1.047c-0.068-0.087-0.073-0.238-0.175-0.291c-0.009-0.08,0.236,0.025,0.058-0.117
			c0.033-0.168,0.091,0.089,0.175,0.058C17.521,7.49,18.083,7.024,18.378,6.438z M18.843,8.125
			c-0.018,0.182,0.168-0.147,0.175,0.059c-0.077,0.075-0.215,0.075-0.291,0c-0.041,0.31-0.538,0.646-0.174,0.989
			c-0.408,0.917-0.232,2.839-0.349,3.78c0.013-0.045,0.001-0.114,0.058-0.116c0.031,0.84,0.079,1.679,0.174,2.966
			c-0.334,0.188-0.085,0.961-0.407,1.163c0.285,0.177,0.124,0.472-0.059,0.349c0.555,0.568-0.169,1.556,0.407,2.035
			c-0.087,0.01-0.214-0.021-0.232,0.059c0.078,0.193,0.1,0.443,0.232,0.582c-0.289,0.536,0.044,1.531-0.116,2.094
			c0.331,2.701,0.06,5.665,0.116,8.026c0.012,0.504-0.117,1.381-0.116,1.395c0.036,0.605,0.481,0.828,0.232,1.338
			c-0.005-0.092,0.008-0.201-0.116-0.174c-0.004,1.232,0.118,2.571,0.116,3.605c0,0.246-0.042,0.546-0.174,0.756
			c0.204-0.035,0.102,0.209,0,0.059c-0.09,0.207,0.198,0.035,0.174,0.174c-0.108,0.695,0.01,1.302,0,1.92
			c-0.005,0.389,0.016,1.404-0.058,1.687c-0.032,0.122,0.011,0.032,0.058,0.232c0.062,0.261-0.08,0.526,0,0.756
			c0.738,0.274,2.175,0.317,2.152-0.581c-0.003-0.113-0.145-0.238-0.174-0.35c-0.165-0.607,0.091-0.963,0-1.395
			c0.065,0.182,0.005,0.131,0,0.348c0.363-0.158-0.028-0.487-0.117-0.697c-0.037-0.478-0.039-0.959-0.232-1.454
			c0.115,0.001,0.074,0.159,0.232,0.116c0.084-0.199-0.056-0.712-0.232-0.523c0.038-0.982-0.113-1.211-0.059-2.501
			c-0.322-0.081-0.035-0.488,0.059-0.116c0.06-0.25-0.198-0.48,0.116-0.349c-0.148-0.182-0.292-0.368-0.349-0.64
			c0.229,0.127-0.134-0.174,0.174-0.232c-0.283-0.084,0.062-0.442-0.058-0.582c-0.014,0.062-0.095,0.14-0.116,0.059
			c0.123-0.203,0.001-0.628,0.233-0.35c0.037-0.27-0.222-0.244-0.349-0.349c0.182-0.618-0.164-1.407,0.116-1.804
			c-0.208-0.412,0.121-0.844,0-1.162c-0.012,0.064-0.064,0.09-0.116,0.115c0.227-0.391-0.111-0.758,0.058-1.104
			c-0.4-0.646,0.065-1.767-0.174-2.675c-0.01,0.087,0.021,0.215-0.058,0.232c-0.001-0.154,0.022-0.332-0.058-0.407
			c0.041-0.109,0.505-0.301,0.232-0.349c-0.14-0.023,0.032,0.265-0.174,0.175c-0.089-0.323-0.054-0.672,0-0.873
			c-0.101-0.156-0.171-0.01-0.233-0.232c0.361,0.087,0.32-0.465,0.64-0.233c0.087-0.544,0.935-0.438,0.989-0.698
			c0.119,0.017,0.114,0.157,0.233,0.174c0.005-0.593-0.408-1.005-0.175-1.396c-0.087-0.01-0.214,0.021-0.232-0.059
			c0.217-0.595-0.412-1.485-0.117-2.326c-0.188,0.052-0.082-0.189-0.174-0.232c0.069-0.028,0.132-0.062,0.174-0.116
			c-0.342-0.046-0.131-0.644-0.291-0.873c0.084-0.129,0.142,0.073,0.174-0.058c-0.08-0.114-0.081-0.307-0.232-0.349
			c0.29-0.546-0.195-1.122,0.058-1.628c-0.226-0.236-0.121-0.613-0.291-0.989c0.219,0.079,0.307-0.268,0.174-0.349
			c-0.028,0.069-0.062,0.132-0.116,0.175c-0.042-0.257,0.011-0.349-0.117-0.582c0.11-0.013,0.128,0.065,0.233,0.058
			c-0.009-1.108-0.422-2.878,0-3.955c-0.307-0.073-0.073,0.393-0.233,0.465c-0.002-0.191-0.098-0.289-0.058-0.523
			c0.269-0.024-0.083-0.798,0.291-0.93c-0.146-0.077-0.182,0.23-0.233,0.058c0.112-0.145-0.088-0.239,0.059-0.349
			c0.096,0.001,0.032,0.161,0.116,0.174c0.17-0.188-0.185-0.202-0.291-0.291c0.089-0.23,0.144-0.566,0.058-0.989
			c0.165-0.058,0.146-0.085,0.233-0.116c-0.086-0.069-0.26-0.051-0.233-0.233c0.191-0.234,0.155-0.678,0.117-0.872
			c-0.141-0.111-0.468-0.037-0.698-0.058c-0.013,0.103,0.059,0.291-0.116,0.232c-0.068-0.152,0.179-0.25-0.058-0.232
			C19.351,7.399,19.083,7.82,18.843,8.125z M18.029,13.068c0.003-0.153,0.207-0.446,0-0.64C18.09,12.667,17.85,12.904,18.029,13.068
			z M16.866,13.65c0.08-0.003,0.127,0.027,0.174,0.058c0.041-0.182,0.149-0.502-0.116-0.582
			C16.942,13.338,16.915,13.505,16.866,13.65z"/>
		<path fill-rule="evenodd" clip-rule="evenodd" d="M28.614,15.511c-0.116,0.146-0.271-0.227-0.291,0.116
			c-0.232-0.329-0.335-0.823-0.116-1.164c-0.249,0.062-0.22-0.595-0.175-0.814c0.077,0.021,0.092,0.103,0.175,0.116
			c-0.148-0.363-0.167-0.725-0.349-0.931c0.288-0.38-0.104-0.875-0.116-1.163c0.058,0,0.116,0,0.174,0
			c-0.036-0.212-0.07-0.362,0.059-0.523c-0.053-0.159-0.13,0.177-0.232,0c0.222-0.272-0.102-0.827,0.116-1.105
			c-0.018-0.206-0.157,0.206-0.175,0c0.018-0.176,0.225-0.164,0.232-0.349c-0.14-0.543-0.218-1.243-0.174-1.745
			c0.084,0.071,0.078,0.232,0.232,0.233c0.035-0.229-0.13-0.258-0.291-0.291c-0.023-0.43,0.132-0.485,0.116-0.989
			c0.067-0.049,0.156-0.077,0.291-0.058c-0.052-0.381,0.176-0.483,0.523-0.465c-0.122,0.395,0.134,0.717,0.175,1.105
			c0.064,0.625-0.308,1.287,0,1.803c-0.02,0.135-0.06,0.295-0.175,0.175c0.267,0.964,0.25,2.083,0.059,2.733
			c0.091,0.083,0.045,0.303,0.232,0.291c0.042,0.178-0.101,0.171-0.059,0.349c-0.097,0-0.193,0-0.291,0
			c-0.035,0.361,0.598,0.868,0.117,1.105C28.91,14.086,28.442,15.037,28.614,15.511z"/>
		<path fill-rule="evenodd" clip-rule="evenodd" d="M30.476,21.269c0.007-0.111,0.194,0.068,0.349,0
			c0.009-0.164-0.143-0.167-0.291-0.174c0.014-0.325,0.159-0.216-0.058-0.407c-0.027-0.124,0.083-0.111,0.175-0.116
			c-0.262-0.883,0.164-1.448-0.117-2.21c0.176-0.079,0.296-0.247,0.175-0.465c1.231-0.8,1.079-2.353,1.163-3.547
			c-0.117-0.637-0.176-2.15-0.116-2.618c0.04-0.156-0.12-0.112-0.175-0.174c0.062-0.054,0.019-0.214,0.175-0.174
			c-0.05-1.118,0.189-2.465,0-3.141c0.092-0.518-0.022-0.896,0.059-1.628c0.149-0.102,0.279,0.06,0.349-0.175
			c0.154,0.256,0.189,0.009,0.407,0.116c-0.052,0.31-0.013,1.01,0.29,1.396c-0.076,0.07-0.091,0.023-0.174,0
			c0.479,1.427,0.123,2.908,0.291,4.304c-0.052-0.036-0.104-0.07-0.117,0c0.04,0.135,0.105,0.245,0.291,0.233
			c-0.148,0.352-0.357,1.322,0,1.628c-0.219,0.743,0.119,1.237-0.058,1.803c-0.017,0.153,0.226,0.046,0.175,0.233
			c-0.174-0.07-0.198-0.016-0.35,0.058c0.013,0.201,0.146,0.337-0.174,0.291c0.127-0.005,0.187,0.349,0.232,0.233
			c-0.073,0.157-0.066,0.402-0.35,0.64c0.1,0.057,0.15,0.161,0.117,0.349c-0.905,0.329-0.7,1.33-0.641,2.21
			c-0.253,0.627,0.033,1.467-0.349,2.094c0.155,1.466-0.005,3.167,0.233,4.71c-0.11,0.044-0.041,0.174-0.175,0.059
			c0.024,1.621,0.401,3.87,0.522,5.699c-0.145-0.007-0.182-0.11-0.232,0.058c0.043,0.215,0.176-0.023,0.291,0.117
			c0.111,0.817,0.305,1.812,0.232,2.85c0.293,0.672-0.023,1.594,0.232,2.559c-0.279,0.464,0.283,1.448,0,1.92
			c0.016,0.062,0.116,0.039,0.117,0.115c0.073,1.053-0.368,1.939-0.931,2.56c-0.698-0.061-0.92,0.126-1.396,0.407
			c-0.148-0.112-0.311-0.146-0.408,0.059c-0.067-0.01-0.049-0.106-0.057-0.175c-0.328-0.062-0.299,0.31-0.35,0.232
			c-0.135,0.118-0.134-0.024-0.059-0.116c-0.734,0.185-0.939-0.211-1.396-0.174c-0.087-0.051-0.125-0.146-0.116-0.291
			c-0.1-0.021-0.11,0.045-0.116,0.115c-0.138-0.153-0.09-0.492-0.175-0.697c-0.057,0.002-0.045,0.071-0.059,0.116
			c-0.48-0.441-0.395-1.268-0.523-1.919c-0.227,0.408,0.077-0.308-0.29-0.291c0.154-0.963-0.184-2.241-0.117-3.199
			c0.277-0.024,0.136-0.48-0.058-0.697c0.269-0.234-0.015-0.666,0.116-1.047c-0.181,0-0.142-0.101-0.232-0.291
			c0.025-0.086,0.074,0.023,0.174,0c-0.202-0.789,0.015-1.059,0.117-1.977c-0.234,0.037-0.016,0.526-0.291,0.523
			c0.072-0.295,0.123-0.459-0.059-0.814c0.049-0.045,0.3-0.038,0.35-0.232c-0.121-0.127-0.198-0.004-0.233,0.115
			c-0.069-0.279,0.174-0.789-0.116-1.221c0.043-0.104,0.106-0.009,0.175,0c0.158-0.158-0.15-0.145-0.116-0.35
			c0.103-0.051,0.096-0.258,0.232-0.115c-0.047-0.244-0.204-0.378-0.232-0.641c0.306,0.205,0.043-0.467,0.174-0.582
			c0-0.137-0.158,0.021-0.116,0.117c-0.121-0.02-0.072-0.439,0.059-0.232c-0.121-0.377-0.031-0.609-0.116-1.105
			c0.134-0.018,0.064,0.168,0.174,0.174c0.062-0.084-0.181-0.358-0.116-0.639c0.156,0.104,0.113-0.257,0.175-0.059
			c0.097-0.025-0.093-0.25-0.175-0.291c0.287-0.158,0.391-0.501,0.64-0.697c-0.058-0.252-0.083-0.537-0.174-0.756
			c0.238,0.063,0.059-0.315,0.058-0.523c-0.001-0.407,0.18-0.885,0.059-1.28c0.354,0.057-0.134-0.721,0.232-0.814
			c0.022-0.216-0.235-0.152-0.175-0.407c0.001,0.005,0.116,0.065,0.117,0.058c0.101-0.824-0.287-1.788,0-2.559
			c-0.302-0.157-0.271-0.29-0.291-0.698c-0.226,0.229-0.321-0.47-0.175-0.756c-0.333-0.398-0.872-1.032-1.221-1.047
			c-0.144-0.457-0.131-0.616-0.291-0.873c0.025-0.086,0.075,0.023,0.174,0c0.012-0.167-0.015-0.295-0.116-0.349
			c-0.079,0.018-0.048,0.146-0.058,0.233c-0.271-0.235,0.079-0.317,0.174-0.407c-0.014-0.351-0.211-0.571-0.058-0.93
			c-0.139-0.023,0.032,0.265-0.174,0.174c-0.072-0.988,0.164-2.104-0.232-2.792c0.448-0.319-0.058-1.158,0.174-1.396
			c-0.558-0.622-0.194-1.592,0-2.443c-0.043-0.054-0.106-0.088-0.174-0.116c0.126-0.866-0.12-1.216,0.174-1.745
			c-0.079-0.096-0.149-0.2-0.291-0.232c0.017-0.119,0.157-0.114,0.175-0.233c0.079,0.018,0.048,0.146,0.058,0.233
			c0.153-0.122,0.031-0.246,0.116-0.349c0.209,0.021,0.28,0.089,0.466,0c-0.006,0.18,0.07,0.278,0.116,0.407
			c0.1,0.002,0.15-0.043,0.174-0.117c0.104,0.11,0.154,0.272,0.233,0.407c-0.22,0.05-0.196,0.878,0,1.047
			c0.027,0.183-0.157,0.153-0.175,0.291c0.369,0.895,0.327,1.162,0.349,2.326c-0.124,0.027-0.11-0.083-0.116-0.175
			c-0.086,0.05-0.084,0.188-0.116,0.291c0.017,0.122,0.155-0.084,0.232,0.058c-0.09,0.085-0.051,0.298-0.058,0.465
			c-0.302-0.088-0.372,0.282-0.116,0.291c-0.043,0.054-0.106,0.088-0.175,0.116c0.063,0.219,0.146,0.196,0.291,0.232
			c-0.056,0.63,0.098,1.172-0.116,1.57c0.016,0.031,0.256,0.058,0,0.117c0.188,0.088,0.167,0.72,0,0.814
			c0.193,0.309,0.177,1.347,0.29,1.687c0.238,0.711,1.15,1.096,1.222,2.036c0.042,0.132,0.175,0.174,0.291,0.232
			c-0.007,0.145-0.109,0.18,0,0.291c0.052-0.026,0.104-0.051,0.116-0.116c0.102,0.167-0.052,0.131,0.175,0.174
			c-0.221,0.138,0.23,0.565-0.059,0.756c0.018,0.079,0.146,0.048,0.232,0.058c-0.013,0.458-0.041,0.736-0.232,1.105
			c0.009,0.107,0.197,0.036,0.232,0.116c0.011,0.127-0.048,0.185-0.174,0.174c0.007,0.148,0.084,0.226,0.232,0.232
			c-0.026,1.198,0.033,2.387-0.059,3.315c-0.08,0.812,0.015,1.607,0,2.5c-0.009,0.584-0.133,1.752-0.232,2.152
			c-0.184,2.318-0.212,5.666-0.291,7.677c0.021,0.081,0.103,0.005,0.116-0.058c-0.094,1.012-0.155,2.676,0.233,3.896
			c0.152-0.062,0.261-0.223,0.232,0.115c0.195-0.149,0.022-0.391,0.349-0.465c0,0.136,0,0.271,0,0.407
			c0.581,0.444,1.023,1.071,1.861,0.814c0.008-0.104-0.07-0.123-0.059-0.233c0.508-0.324,0.678-1.092,0.523-1.512
			c0.019-0.078,0.146-0.048,0.233-0.059c-0.092-0.043-0.087-0.184-0.233-0.174c0.028-0.937,0.002-1.992-0.058-2.966
			c0.052-0.196,0.13-0.007,0.232-0.116c-0.086-0.455-0.379-1.126-0.175-1.745c-0.218-0.433-0.283-1.335-0.174-1.86
			c-0.051-0.17-0.088-0.066-0.232-0.059c0.264-1.31-0.467-2.983-0.232-5.061c-0.48-0.178-0.076-1.242-0.291-1.686
			c0.149,0.15,0.201-0.094,0.174-0.291c-0.139-0.023,0.033,0.265-0.174,0.174c-0.063-0.17-0.131-0.335-0.117-0.581
			c0.35-0.188,0.053-0.683,0.232-0.989c-0.056,0.001-0.045,0.071-0.058,0.116c-0.153-0.381-0.075-0.931,0-1.512
			c-0.091-0.044-0.087-0.185-0.232-0.174c0.061-0.244,0.024-0.18,0-0.465c0.147,0.006,0.138,0.217,0.058,0.291
			c0.406-0.194-0.15-0.706,0.117-1.047c-0.047-0.128-0.203-0.146-0.291-0.232c0.043-0.214,0.175,0.025,0.291-0.116
			c-0.019-0.079-0.146-0.048-0.232-0.059C30.43,21.485,30.586,21.274,30.476,21.269z M27.219,27.607
			c-0.035-0.139,0.072-0.422-0.059-0.465C27.169,27.322,27.022,27.504,27.219,27.607z M30.824,25.863
			c-0.109,0.014-0.128-0.065-0.232-0.058c0,0.077,0,0.155,0,0.232C30.744,26.055,30.842,26.016,30.824,25.863z M32.046,19.349
			c-0.024-0.247-0.026-0.516-0.116-0.698C31.965,18.873,31.736,19.269,32.046,19.349z"/>
		<path fill-rule="evenodd" clip-rule="evenodd" d="M18.204,17.43c0.021-0.091,0.103,0.051,0.116-0.058
			c0.13,0.025,0.024,0.287,0.058,0.407C18.253,17.73,18.329,17.479,18.204,17.43z"/>
		<path fill-rule="evenodd" clip-rule="evenodd" d="M16.808,36.1c0.008,0.179,0.145,0.388,0.174,0.697
			c-0.052-0.045-0.131-0.062-0.233-0.059C16.925,36.365,16.577,36.466,16.808,36.1z"/>
		<path fill-rule="evenodd" clip-rule="evenodd" d="M30.65,6.903c0.059-0.038,0.061-0.133,0.174-0.116
			c-0.119,0.906,0.168,1.753-0.116,2.559c0.154,0.273,0.173,0.823-0.058,0.931c0.062,0.111,0.305,0.712-0.059,0.698
			c0.282,0.31,0.232,0.84,0.059,1.337c0.016,0.12,0.154,0.116,0.232,0.175c-0.088,0.44,0.064,0.891,0.059,1.337
			c-0.014,0.855-0.581,1.888-1.279,1.396c0.115-0.172,0.314-0.649,0-0.756c-0.008-0.096,0.357-0.2,0.058-0.232
			c0.298-0.15,0.099-0.441,0.232-0.756c-0.032-0.131-0.091,0.07-0.175-0.059c0.319-0.285-0.025-0.573,0.175-0.872
			c-0.025-0.086-0.074,0.023-0.175,0c0.385-0.321,0.108-0.776,0-1.163c0.133-0.172,0.232-0.952,0-1.105
			c0.35-1.274-0.191-2.361,0.059-3.548c0.453,0.153,0.559-0.08,0.814-0.058C30.747,6.786,30.645,6.745,30.65,6.903z"/>
	</g>
	<g id="transportation">
		<path fill-rule="evenodd" clip-rule="evenodd" d="M29.801,10.29c-0.031,0.047-0.061,0.095-0.059,0.175
			c0.801-0.261,1.934,0.347,1.629,1.337c-1.134,0.266-2.505,0.156-3.548-0.058c-1.543,0.079-3.954,0.229-5.932,0.116
			c-0.689,0.54-1.839,0.115-2.559,0.407c-0.326-0.106-1.266,0.14-1.28-0.407c-0.059,0.038-0.06,0.135-0.174,0.117
			c-0.033-0.161-0.062-0.326-0.291-0.291c-0.526-1.199,1.364-1.447,2.152-1.047c0.005-0.132,0.556-0.244,0.465,0.058
			c0.125-0.166,0.399-0.183,0.698-0.175c0.045,0.053,0.062,0.132,0.058,0.233c0.085-0.051,0.184-0.087,0.174-0.233
			c0.435,0.184,0.896-0.082,1.28-0.115c0.408-0.037,0.949,0.152,1.396,0.058c0.18-0.038,0.326-0.209,0.465-0.232
			c0.263-0.045,0.808-0.005,0.93,0.116c0.21-0.148,0.375-0.072,0.64,0c0.131-0.033-0.071-0.091,0.058-0.175
			C27.452,10.066,28.594,10.519,29.801,10.29z"/>
		<path fill-rule="evenodd" clip-rule="evenodd" d="M33.581,29.482c0.05-0.012,0.056,0.021,0.058,0.058
			c1.369-0.212,3.611,0.308,3.432,2.442c-0.068,0.829-0.672,1.83-1.396,2.094c-0.556,0.202-1.695,0.208-2.269,0.059
			c-1.089-0.285-2.099-2.106-1.453-3.199c0.134-0.019,0.223,0.01,0.29,0.059c0.195-0.298,0.254-1.016,0.64-0.932
			c0.084-0.07,0.089-0.221,0.175-0.29C33.268,29.71,33.566,29.738,33.581,29.482z M33.697,33.378
			c2.149,0.608,2.945-2.429,1.338-2.849c-0.764-0.201-1.404,0.472-1.92,0.756C32.888,31.962,33.078,33.049,33.697,33.378z"/>
		<path fill-rule="evenodd" clip-rule="evenodd" d="M17.646,32.273c-0.273,0.733-0.279,1.531-0.988,2.035
			c-0.285-0.081-0.728,0.237-1.221,0.232c-1.273-0.012-2.948-1.146-2.559-2.85c0.127-0.557,0.629-1.469,1.221-1.629
			c0.206-0.055,0.578-0.08,0.814-0.058c0.124,0.012,0.073,0.134,0.233,0.175c0.098,0.025,0.207-0.096,0.291-0.059
			c0.285,0.125,0.428,0.467,0.698,0.641c0.132,0.085,0.337,0.047,0.465,0.115C17.097,31.147,17.402,31.68,17.646,32.273z
			 M13.807,33.029c0.07,0.284,0.452,0.68,0.64,0.756c1.528,0.625,2.971-1.702,1.57-2.617C14.705,30.873,13.46,31.617,13.807,33.029z
			"/>
		<path fill-rule="evenodd" clip-rule="evenodd" d="M10.434,16.047c0.011-0.066,0.058-0.032,0.058,0c0.3-0.035-0.091-0.16,0-0.349
			c0.318-0.815,0.32-1.616,0.698-2.21c0.193-1.476,0.931-2.396,1.628-3.49c0.934-0.604,1.734-1.828,3.024-2.268
			c0.121-0.016,0.016-0.256,0.117-0.291c0.128-0.031,0.083,0.111,0.174,0.116c0.713-0.183,1.356-0.19,1.977-0.175
			c1.216,0.031,2.279-0.241,3.315-0.174c0-0.136,0-0.271,0-0.407c0.991,0.171,1.878-0.079,2.792-0.116
			c0.77-0.032,1.493,0.27,2.151,0.291c0.559,0.018,1.102-0.052,1.57-0.059c0.354-0.005,0.688,0.057,0.989,0.059
			c0.154,0,0.267-0.129,0.406-0.117c0.138,0.014,0.265,0.16,0.407,0.175c0.108,0.012,0.282-0.079,0.466-0.058
			c0.348,0.039,0.729,0.201,0.988,0.058c0.188-0.052,0.082,0.19,0.175,0.233c0.562-0.16,1.032-0.281,1.396,0.058
			c0.068-0.009,0.049-0.106,0.059-0.175c0.144,0.031,0.207,0.143,0.29,0.232c0.1-0.197,0.611-0.057,0.641,0.175
			c0.062-0.015,0.039-0.115,0.116-0.116c0.353,0.185,0.86,0.077,1.047,0.523c0.538-0.027,1.112,0.395,1.454,0.756
			c1.309,0.189,1.058,1.309,1.338,2.385c0.131,0.504,0.525,1.055,0.813,1.512c-0.057,0.377,0.165,0.844,0.349,1.279
			c0.051,0.226-0.142,0.207-0.174,0.35c0.618,0.832,0.994,1.993,0.64,3.141c0.052,0.158,0.13-0.178,0.232,0
			c-0.001,0.154,0.032,0.342-0.116,0.35c0.104,0.152,0.365,0.377,0.175,0.639c0.067,0.01,0.104-0.012,0.116-0.058
			c0.179,0.072-0.244,0.228,0.059,0.29c-0.058,0.193-0.115-0.064-0.175-0.058c-0.151,0.133-0.081,0.302,0,0.466
			c0.165,0.01-0.07-0.381,0.175-0.291c-0.127,1.752,0.342,3.865,0.349,5.525c-0.079-0.019-0.048-0.146-0.059-0.232
			c-0.259,0.089,0.032,0.311,0.116,0.406c-0.062,0.189,0.031,0.535-0.174,0.582c-0.018,0.152,0.08,0.19,0.232,0.174
			c-0.357,0.879-0.11,1.875-0.465,2.675c0.168-0.103,0.199-0.344,0.174-0.641c0.367,0.29-0.162,0.756,0.232,0.873
			c-0.23,0.315,0.016,1.029-0.406,1.047c0.173,0.078-0.015,0.518,0.29,0.465c0.015,0.767,0.058,0.957,0,1.629
			c-0.076-0.021-0.091-0.103-0.175-0.116c-0.07,0.244,0.095,0.255,0.117,0.407c-0.083-0.006-0.165-0.01-0.175,0.058
			c0.318-0.009-0.089,0.257,0.232,0.466c-0.22,0.486-0.231,1.088-0.116,1.686c-0.094,0.018-0.1-0.055-0.174-0.058
			c-0.092,0.95,0.381,2.692-0.291,3.664c0.166,0.306-0.083,0.638-0.232,0.814c0.152,0.964-0.396,1.45-1.222,1.513
			c-0.453,0.033-0.686-0.122-1.104,0c0.02,0.82-0.453,1.85-0.117,2.732c-0.078,0.342-0.214,0.491-0.465,0.756
			c-0.809-0.215-1.699,0.473-2.385,0c-0.115,0.001-0.074,0.159-0.232,0.117c-0.234-0.231-0.565-0.365-0.641-0.756
			c-0.137-0.002-0.17,0.1-0.349,0.058c0.064-0.286-0.621-0.722-0.116-1.048c-0.353-0.48-0.047-1.619-0.232-2.268
			c-0.274,0.154-0.723,0.304-0.873-0.116c0.019,0.507-0.748-0.014-0.872,0.233c-0.107-0.01-0.035-0.197-0.116-0.233
			c-0.149,0.122-0.335,0.208-0.582,0.233c-0.045-0.053-0.062-0.132-0.058-0.233c-0.085,0.155-0.452,0.247-0.64,0.116
			c-0.5,0.002-1.331,0.193-1.978,0.059c-0.067-0.014-0.182-0.173-0.232-0.175c-0.069-0.001-0.155,0.157-0.232,0.175
			c-0.378,0.083-0.961-0.182-1.338-0.175c-2.497,0.048-5.8,0.186-8.084,0.175c-0.382,1.062,0.314,2.045-0.058,3.314
			c-0.496-0.13-0.513,0.121-0.931,0.176c0.031-0.048,0.061-0.096,0.058-0.176c-0.174,0.369-0.791,0.295-1.105,0.523
			c0.001-0.057,0.071-0.045,0.117-0.058c-0.672-0.117-1.195-0.181-1.628-0.466c-1.018-0.668-0.512-2.055-0.873-3.314
			c-0.584,0.102-1.171-0.008-1.803,0c0.32,0.346-0.596,0.029-0.523,0.407c-0.69-0.124-0.097-1.531-0.64-1.804
			c0.009-0.941-0.345-2.16-0.291-2.85c0.282-0.002,0.18-0.861,0.116-0.93c0.119-1.58,0.215-3.029,0.174-4.943
			c0.116-0.098,0.074,0.005,0.233,0c-0.158-0.463-0.016-1.225-0.291-1.57c0.025-0.131,0.125-0.186,0.175-0.291
			c-0.062-0.15-0.037-0.391-0.175-0.465c0.315-0.539-0.256-1.453,0.233-2.036c-0.165-0.101,0.021-0.229-0.175-0.233
			c0.141-0.895-0.22-1.602-0.058-2.617c0.568-0.53,0.003-1.834,0.233-2.85c0.047-0.21,0.1-0.76,0.232-1.104
			C10.168,17.5,10.565,16.594,10.434,16.047z M38.699,30.471c-0.001-0.097-0.162-0.033-0.175-0.117
			c0.4-1.502-0.081-4.207,0.116-6.048c-0.299-0.369-0.116-0.827-0.116-1.279c0-1.912-0.509-4.026-0.523-5.99
			c-0.344-0.332-0.118-0.982-0.407-1.279c0.08-0.002,0.128,0.027,0.175,0.059c0.124-0.752-0.3-1.617-0.116-2.326
			c-0.253,0.039-0.322-0.105-0.407-0.232c-0.108-0.338-0.286-0.605-0.29-1.047c-0.82-1.457-1.15-2.85-2.792-3.199
			c-1.041-0.223-2.392-0.244-3.49-0.232c-1.335,0.014-2.689-0.104-3.722,0c0.008-0.068,0.104-0.132,0-0.175
			c-0.024,0.073-0.075,0.119-0.175,0.116c0.009-0.068,0.104-0.131,0-0.174c-0.052,0.193-0.141,0.061-0.175-0.059
			c-2.176-0.068-4.359-0.054-5.99,0.116c-2.472,0.259-5.186,0.597-6.456,1.978c0.171,0.016,0.216-0.232,0.291,0
			c-0.557,0.732-1.192,1.1-1.454,2.152c-0.148,0.594-0.428,1.182-0.407,1.919c-0.804,2.08-0.389,5.339-0.64,7.852
			c-0.048,0.479-0.281,0.933-0.116,1.396c-0.251,0.311,0.122,0.78-0.233,1.105c0.188,1.308-0.249,2.472-0.174,3.605
			c0.009,0.139,0.12,0.27,0.116,0.406c-0.006,0.26-0.159,0.553-0.174,0.873c-0.047,0.996,0.054,1.978,0.058,2.559
			c0.003,0.389-0.113,0.775-0.117,1.164c-0.011,1.354,0.117,3.002,0.059,4.07c0.116,0.078,0.129,0.258,0.174,0.408
			c0.259,0.031,0.536,0.045,0.698,0.174c0.387-0.043,0.65-0.443,1.047-0.059c0.062-0.054,0.019-0.215,0.174-0.174
			c1.205-0.012,1.98,0.159,3.024,0.116c0.351-0.009,1.195-0.271,1.512,0c0.009-0.068-0.01-0.165,0.058-0.175
			c0.999,0.021,2.458-0.15,3.664-0.116c-0.014,0.083-0.096,0.099-0.116,0.175c0.184-0.016,0.303-0.181,0.523-0.175
			c0.106,0.003,0.288,0.127,0.349,0.116c-0.004,0.001,0.024-0.16,0.059-0.174c0.386-0.158,1.065-0.154,1.512-0.059
			c0.013-0.045,0.001-0.115,0.058-0.116c0.486,0.294,1.369-0.091,1.861,0c0,0.077,0,0.155,0,0.232
			c0.229,0.093,0.02-0.251,0.174-0.232c0.468,0.097,1.271,0.011,1.628,0.29c0.01-0.068-0.01-0.164,0.059-0.174
			c0.095,0.238,0.383-0.02,0.582,0.174c0.624-0.303,1.5,0.123,2.094-0.058c0.03,0.12,0.274,0.014,0.116,0.175
			c0.8-0.158,1.159-0.129,2.035-0.059c0.009,0.068-0.01,0.166,0.059,0.175c0.1-0.148-0.067-0.204,0.058-0.291
			c1.946-0.016,3.347,0.185,5.351,0.175c0.514-1.107,0.557-2.515,0.466-3.955c-0.019-0.135,0.168-0.064,0.175-0.174
			c-0.383-0.405-0.198-1.492,0.115-1.861C38.407,31.553,38.622,31.307,38.699,30.471z M15.028,9.184
			c0.219-0.032,0.421-0.221,0.698-0.29c0.452-0.112,1.27-0.015,1.163-0.407C16.302,8.752,15.31,8.614,15.028,9.184z M11.481,19.014
			c-0.001-0.154,0.032-0.343-0.116-0.35C11.4,18.785,11.271,19.069,11.481,19.014z M11.248,20.467c-0.181-0.477,0.553-1.003,0-1.396
			C11.177,19.411,10.99,20.176,11.248,20.467z M39.979,30.412c-0.063-0.222,0.154-0.363-0.059-0.407
			C39.923,30.186,39.67,30.41,39.979,30.412z M39.92,30.994c-0.044-0.22,0.072-0.278,0.059-0.465
			c-0.074-0.004-0.08-0.076-0.174-0.059C39.941,30.632,39.665,30.906,39.92,30.994z"/>
		<path fill-rule="evenodd" clip-rule="evenodd" d="M13.982,15c0.119-0.041,0.23-0.182,0.349-0.059
			c0.131-0.023,0.001-0.309,0.117-0.348c1.959-0.734,4.333,0.023,6.339-0.582c0.072,0.025,0.12,0.074,0.117,0.174
			c0.326-0.184,0.746-0.277,1.104-0.232c0.284,0.035,0.137-0.005,0.465,0c0.075,0.002,0.187,0.12,0.233,0.117
			c0.158-0.013,0.284-0.16,0.465-0.176c0.359-0.029,0.685,0.104,1.047,0c0.236-0.066,0.453,0.012,0.814-0.115
			c0.207-0.091,0.035,0.197,0.174,0.174c0.343-0.061,0.578-0.268,0.814,0c0.828-0.104,1.513-0.288,2.094-0.059
			c0.086-0.025-0.023-0.074,0-0.174c1.669,0.433,4.01-0.559,5.583,0.232c0.178,0.043,0.172-0.1,0.35-0.059
			c0.066,0.187,0.354,0.15,0.465,0.291c0.097-0.058,0.041-0.269,0.175-0.291c0.58,0.273,0.835,0.871,1.279,1.28
			c-0.043,0.054-0.106,0.088-0.175,0.116c0.143,0.09,0.361,0.104,0.465,0.232c0.201,1.066,0.213,2.002,0.35,3.199
			c0.051,0.449,0.173,0.822,0.291,1.221c-0.115,0.04,0.036,0.347-0.175,0.291c0.189,1.306,0.007,2.477,0.058,3.373
			c-0.006,0.272-0.084-0.062-0.232,0c-0.01,0.127,0.048,0.186,0.175,0.175c-0.156,0.581-0.934,0.54-1.279,0.931
			c-4.285,0.231-7.336,0.408-10.992,0.465c-0.483-0.102-1.241,0.016-1.628,0.117c-0.124,0.027-0.111-0.084-0.116-0.175
			c-0.247,0.005-0.236,0.268-0.465,0.29c-0.104-0.042-0.008-0.105,0-0.174c-0.704,0.402-1.726,0.183-2.85,0.406
			c0-0.077,0-0.154,0-0.232c-0.068,0.01-0.049,0.105-0.058,0.175c-1.565-0.157-3.659,0.073-4.944-0.64
			c0.025-0.121-0.04-0.154-0.058-0.232C12.868,24,13.702,21.545,13.4,19.885c0.05-0.01,0.055,0.023,0.058,0.059
			C13.681,18.435,13.312,16.678,13.982,15z M35.151,18.491c0.003-0.258,0.012-0.557,0-0.814c-0.035-0.793-0.271-0.979-0.465-1.455
			c-0.145-0.35-0.132-0.725-0.349-0.93c-1.008-0.413-2.352-0.005-3.316-0.116c-1.871-0.216-4.12,0.027-5.932,0.175
			c-1.639-0.217-3.114,0.188-4.594-0.059c-0.824,0.223-1.944,0.14-2.617,0.523c-0.228-0.16-0.477-0.037-0.582-0.232
			c-0.405,0.39-1.372,0.218-1.978,0.406c-0.005,0.092,0.008,0.202-0.116,0.176c-0.103,2.571-0.028,4.397-0.349,6.105
			c0.369,0.028,0.203,0.609,0.291,1.047c0.356,0.216,0.742,0.436,1.221,0.523c0.756,0.14,1.641-0.295,2.152,0.059
			c0.122-0.336,0.771-0.199,1.338-0.35c0.1,0.057,0.117,0.193,0.232,0.233c0.089-0.247,0.452-0.185,0.465,0.058
			c0.007-0.147,0.084-0.225,0.232-0.232c1.664,0.396,4.073-0.303,5.932,0.059c1.227,0.238,2.646-0.174,3.664-0.059
			c0.058-0.078,0.155-0.116,0.233-0.174c0.911,0.213,2.299,0.17,3.489,0.174c0.116-0.117,0.267-0.199,0.523-0.174
			c0.229-0.217,0.351-0.541,0.64-0.698c0.076-0.964-0.066-2.541,0-3.198c-0.084-0.129-0.142,0.072-0.174-0.059
			C35.185,19.081,35.146,18.915,35.151,18.491z M14.331,24.19c0.187,0.023,0.332-0.248,0.117-0.291
			C14.49,24.079,14.288,24.01,14.331,24.19z M14.738,24.19c-0.043,0.18,0.16,0.111,0.116,0.291c0.269-0.064,0.383,0.076,0.465-0.176
			C15.008,24.393,14.988,23.983,14.738,24.19z M26.195,24.481c-0.124-0.293-0.528-0.207-0.64-0.059
			C25.857,24.51,25.947,24.305,26.195,24.481z M26.253,24.305c0.138,0.359,0.346-0.02,0.64,0.117
			C26.817,24.22,26.396,24.276,26.253,24.305z M20.03,25.295c0.197,0.016,0.471-0.046,0.582,0.058
			C20.56,25.12,20.043,24.911,20.03,25.295z"/>
	</g>
	<g id="parks">
		<path fill-rule="evenodd" clip-rule="evenodd" d="M33.375,18.195c-0.171,0.05,0.075,0.146,0,0.291
			c-0.405-0.133-1.232-0.483-1.629-0.059c0.533,1.055,0.902,2.223,1.513,3.315c0.063,0.928,0.804,1.468,1.163,2.151
			c0.205,0.392,0.288,0.771,0.465,1.105c0.393,0.74,1.277,1.404,1.513,2.385c-0.483,0.732-1.534,0.17-2.501,0.232
			c-0.262,0.285-0.626,0.398-0.988,0.35c0.009,0.066-0.014,0.104-0.059,0.115c1.171,2.707,2.59,5.166,3.839,7.795
			c-0.046,0.051-0.062,0.131-0.058,0.232c0.577,0.086,0.22,1.262,0.871,1.512c-0.014,0.199-0.146,0.279-0.115,0.523
			c-2.319,0.121-5.461-0.176-7.735,0.117c0-0.098,0-0.195,0-0.293c-0.129,0.008-0.025,0.248-0.059,0.35c-0.136,0-0.271,0-0.407,0
			c-0.059,0.037-0.061,0.135-0.175,0.117c-0.074,1.904-0.072,4.424-0.058,6.164c0.022,0.217-0.236,0.152-0.175,0.408
			c-0.392,0.092-0.842,0.127-1.163,0.174c-0.078-0.039-0.108-0.125-0.116-0.232c-0.852,0.291-1.568-0.148-2.269,0
			c-0.542-0.115-0.888,0.125-1.454,0.174c-0.067-0.105-0.151-0.197-0.232-0.291c-0.067,0.01-0.049,0.107-0.058,0.176
			c-0.25,0.037-0.062-0.365-0.35-0.291c-0.153,0.045,0.131,0.273-0.116,0.291c-0.229,0.092-0.02-0.252-0.174-0.232
			c-0.223,0.072,0.009,0.238-0.117,0.406c-0.187-0.064-0.379-0.125-0.581-0.174c-0.078-0.283,0.042-0.631-0.175-0.873
			c0.033-2.287-0.003-3.975,0.116-6.34c-0.174-0.154-0.426-0.242-0.581-0.059c-3.026,0.018-5.015,0.318-8.259,0.059
			c-0.199-0.023-0.175,0.174-0.291,0.232c-0.156-0.057-0.298-0.127-0.465-0.174c0.125-0.285,0.125-0.471,0-0.756
			c0.204-0.037,0.343-0.357,0.523-0.232c-0.033-0.297-0.214-0.445-0.407-0.582c0.432-0.518,1.055-0.846,1.105-1.744
			c0.145,0.008,0.017,0.195,0,0.232c0.35-0.412,0.447-1.098,1.104-1.396c-0.024-0.51,0.479-0.49,0.407-1.047
			c0.184,0.355,0.203-0.25,0.349-0.465c0.18-0.266,0.625-0.363,0.466-0.641c0.243-0.021,0.041,0.189,0.058,0.291
			c0.183-0.363,0.188-0.629,0.35-0.93c0.083,0.014,0.02,0.174,0.116,0.174c0.105-0.34,0.269-0.623,0.349-0.988
			c0.058,0,0.116,0,0.175,0c0.217-0.928,0.801-1.486,1.047-2.385c0.052-0.045,0.131-0.062,0.232-0.059
			c-0.022-0.229-0.383-0.121-0.465-0.289c-0.4,0.334-0.826,0.314-1.396,0.289c0-0.057,0-0.115,0-0.174
			c-0.392,0.338-0.851,0.258-1.512,0.291c-0.088-0.088-0.174-0.176-0.233-0.291c-0.305,0.248-0.912,0.271-0.872-0.35
			c0.09-0.123,0.339-0.088,0.407-0.232c0.042-0.254-0.115,0.047-0.116-0.117c0.615-1.013,1.353-1.904,2.269-2.616
			c0.281-0.571,0.788-0.917,0.988-1.57c0.925-0.745,1.448-2.303,2.326-3.024c0.005-0.082,0.01-0.164-0.058-0.174
			c0.36-0.131,0.481-0.778,0.756-1.164c-0.685-0.242-1.532,0.273-2.152,0.117c-0.233,0.139-0.646,0.335-0.813,0.058
			c-0.301,0.151-0.748,0.142-0.814-0.232c0.076-0.06,0.214-0.058,0.29-0.116c0.051-0.186-0.091-0.18-0.116-0.291
			c0.211-0.604,0.504-1.125,0.989-1.454c0.024-0.344,0.322-0.414,0.407-0.698c0.23,0.018,0.166-0.26,0.407-0.232
			c0.499-1.09,1.248-1.93,2.035-2.732c0.191-0.459,0.35-0.881,0.698-0.989c-0.102-0.239,0.258-0.463,0.465-0.582
			c0.25-0.991,1.227-1.255,1.396-2.326c0.399-0.194,0.406-0.229,0.872-0.465c0.104-0.667,0.693-1.04,1.047-1.513
			c0.138-0.185,0.264-0.649,0.407-0.814c0.034-0.039,0.134,0.04,0.116,0.059c0.381-0.4,0.907-0.82,1.512-0.873
			c0,0.078,0,0.156,0,0.233c-0.062-0.015-0.039-0.116-0.116-0.116c0.183,0.59,0.395,1.131,0.872,1.279
			c-0.125,0.348,0.22,0.588,0.291,0.756c0.09,0.212-0.083,0.275,0.059,0.407c0.298,0.275,0.371,0.835,0.581,1.338
			c0.332,0.794,0.988,1.534,1.338,2.501c0.396,0.398,0.801,0.909,1.047,1.512c0.091,0.222,0.301,0.244,0.465,0.465
			c0.087,0.117,0.088,0.339,0.175,0.466c0.274,0.398,0.779,0.688,0.756,1.104c0.856,0.928,1.344,2.225,2.21,3.141
			c-0.112,0.178-0.484,0.303-0.813,0.175c-0.09,0.183-0.255,0.288-0.35,0.466C33.674,18.361,33.404,18.399,33.375,18.195z
			 M15.985,34.83c-0.62,0.213-0.588,1.078-1.047,1.453c1.734-0.109,3.356-0.027,4.595-0.115c1.102,0.205,2.424,0.27,3.489-0.059
			c0.023,0.1-0.086,0.148,0,0.174c0.17,0.057,0.17-0.309,0.466-0.291c0.449,1.547-0.029,4.244,0.29,6.049
			c-0.227,0.375-0.243,0.961-0.174,1.57c0.941,0.402,1.989-0.166,2.85,0.232c0.009-0.068-0.01-0.164,0.058-0.174
			c0.048,0.32,0.619,0.117,0.932,0.174c-0.292-1.803-0.39-5.098-0.35-6.805c0.134-0.018,0.064,0.168,0.175,0.176
			c-0.031-0.395,0.145-0.672-0.059-0.816c0.317,0.123,0.169-0.217,0.291-0.289c0.183-0.066,0.132-0.006,0.349,0
			c0.109,0.123,0.096,0.369,0.233,0.465c0.059-0.324,0.116,0.133,0.29,0.059c0.056-0.109-0.174-0.195,0-0.234
			c0.384,0.217,0.534-0.008,0.814,0.234c-0.003-0.102,0.045-0.15,0.116-0.176c0.164,0.01,0.073,0.277,0.291,0.232
			c1.53-0.211,3.149,0.066,5.467-0.291c-0.348-0.6-0.233-1.367-0.64-1.803c-0.056,0.109,0.174,0.195,0,0.234
			c-0.305-0.543-0.536-1.062-0.64-1.57c-0.009,0.127-0.146,0.125-0.291,0.115c-0.191-0.32-0.12-0.508-0.291-0.756
			c-0.009,0.068,0.01,0.166-0.058,0.174c-0.142-0.709-0.87-1.158-0.698-1.686c-0.308-0.191-0.792-0.83-0.931-1.164
			c-0.322-0.777-0.938-1.314-1.047-2.094c-0.312-0.189-0.536-0.963-0.697-1.338c0.076,0,0.053-0.102,0.116-0.115
			c0.076,0,0.053,0.102,0.116,0.115c0.106-0.492,0.66-0.234,0.872-0.232c0.32,0.004,0.81-0.191,1.279-0.174
			c0.518,0.02,0.964,0.246,1.163,0c-0.004-0.102,0.014-0.182,0.059-0.232c-1.243-1.762-2.086-4.035-3.141-5.816
			c-0.111-0.463-0.394-0.89-0.64-1.047c0.124-0.098,0.11-0.268,0-0.407c-0.006,0.091,0.008,0.202-0.116,0.175
			c0.021-0.346-0.194-0.141-0.116-0.64c0.209-0.024,0.334-0.131,0.407-0.291c-0.227-0.064-0.383-0.199-0.641-0.233
			c0.653-0.686,1.911-0.135,3.024-0.406c-0.168-0.238-0.304-0.51-0.407-0.814c-0.108-0.047-0.213-0.098-0.349-0.117
			c-0.706-1.483-1.288-3.092-2.269-4.303c-0.048-0.067-0.076-0.156-0.058-0.291c-0.44-0.16-0.384-0.818-0.872-0.931
			c0.064-0.329-0.345-0.654-0.466-0.988c-0.022,0.101,0.087,0.149,0,0.175c-0.404-0.837-0.971-1.512-1.454-2.269
			c-0.284,0.257-0.735,0.596-0.697,0.989c-0.558,0.252-0.951,0.896-1.338,1.279c-0.315,0.311-0.517,0.912-0.872,0.93
			c0.042,0.178-0.06,0.213-0.059,0.35c-1.456,1.666-2.783,3.459-4.013,5.35c0.839,0.007,1.541,0.006,2.733,0.059
			c0.148,0.191,0.361,0.323,0.64,0.232c0.205,0.42-0.13,1.018-0.349,1.396c-0.219,0.377-0.529,0.876-0.757,1.163
			c-0.412,0.521-1.012,0.753-1.221,1.396c-0.088,0.271-0.596,0.486-0.523,0.873c-0.43,0.203-0.352,0.682-0.64,0.93
			c-0.014-0.045-0.002-0.114-0.059-0.115c-0.055,0.181-0.247,0.183-0.116,0.406c-0.479,0.328-0.632,1.151-0.872,1.396
			c-0.129,0.482-0.447,0.479-0.523,0.93c-0.112-0.037-0.295-0.037-0.407,0c-0.109,0.111-0.007,0.146,0,0.291
			c-0.078-0.076-0.176-0.035-0.233,0.059c0.727,0.23,2.113,0.087,2.851,0.116c0.289,0.155,0.536,0.354,0.988,0.349
			c-0.217,0.322,0.343,0.297,0.349,0.582c-0.287,0.158-0.479,0.414-0.813,0.523c-0.813,1.939-1.681,3.824-3.141,5.117
			c-0.041,0.412-0.417,0.953-0.64,0.814c0.032,0.467-0.278,0.809-0.407,0.932C16.316,34.324,15.779,34.424,15.985,34.83z
			 M14.938,26.105c0.078,0,0.155,0,0.233,0c0.027-0.184-0.073-0.238-0.175-0.291C15.021,25.955,14.891,25.941,14.938,26.105z"/>
		<rect x="25.926" y="24.5" fill="none" width="1" height="1"/>
	</g>
</g>
</svg>
