<svg xmlns="http://www.w3.org/2000/svg" width="50" height="50"><defs><style><![CDATA[
		#sprites > * { display: none; }
		#sprites > *:target { display: inline; }
	]]></style></defs><g id="sprites"><path id="fitness-recreation" fill-rule="evenodd" d="M29.63 12.17c-.02-.1.22 0 .17.1.3-.3.83 0 1.1-.05-.02.05-.06.1-.05.18.08-.1.2-.18.4-.17 0 .1.07.12.06.23.24-.06.26-.26.48-.06.13-.15.14-.27.4-.17.1.56.6.98.24 1.62.33.67.35 1.17.46 1.8-.08.13-.14-.07-.17.06-.02.14.1.13.18.13-.25.12.17.5-.1.58.02.1.1.12.22.13-.17.17.03.38-.18.46.44 1.2 1.28 1.86 1.87 3.02.05 0 .1 0 .1-.06.44.66.87 1.34 1.46 1.86.12-.24-.38-.36-.35-.7.44 0 .62-.28.88-.46.05.04.1.1.1.17.12 0 .15-.1.13-.23.6-.07 1.28 0 1.52-.3.16.1.07.2.18.42.06-.2.33-.2.52-.3.1-.02.1.05.12.12.12-.03.37-.14.4.06 3.7.15 6.03 2.65 7.68 5.23.63.8.8 2.75.46 3.9.1.66-.1 1.1-.46 1.5-.2.93-.45 1.8-1.1 2.28-.82 1.52-2.36 2.66-3.38 3.62-.1 0-.03-.2-.1-.24-.13.02-.13.16-.2.24-.1 0-.03-.2-.16-.18-.2.03-.1.22-.06.35-.14 0-.07-.18-.18-.18-.12 0-.12.14-.1.3-.6.1-1.25.46-1.76.45 0 0 0-.1 0-.1-.1 0-.12.1-.23.1-.14 0-.07-.12-.23-.17-.15-.05-.55.27-.58-.06-1.07.18-2.12-.62-3.43-.7-1.5-.8-2.73-1.88-3.95-2.97-.4-1.03-1.36-2.02-1.7-3.14-.12-.45.05-.86-.22-1.16.23-3.3 1.7-5.34 3.26-7.33.3.07.3-.16.4-.3-.3-.1-.54-.68-.76-1.04-.4-.3-.9-.96-1.05-1.68-1 1.34-1.78 2.92-2.8 4.24-.46 1.56-1.85 2.5-2.03 4.13-.28.32-.5.7-.64 1.16-.05-.02-.06-.06-.12-.06.08.88-.72.5-1.27.7-.15-.1-.04-.1-.12-.24-.16.3-.6-.17-.63.4-.3-.04-.3-.4-.58-.46-.57.34-1.5.2-2.22.18-.23 0-.5.17-.75.17-.38 0-.65-.25-.88-.05-.12 0-.18-.05-.17-.18-.1.3-.34.15-.52.4.1.6-.12 1.03-.18 1.7-.07-.02-.05-.1-.06-.18-.1.02-.04.23-.23.17.2.66-.18 1.17-.24 1.93-.36.08-.58.63-.87.7 0 .2-.15.35-.3.52-.07 0-.05-.1-.06-.17-.17 0-.36.26-.24.35-.14.22-.12-.22-.1-.35-.2.17 0 .32 0 .58-.28-.02-.3.35-.53.3.02.3-.5.35-.35.57-.48-.14-.8.3-1.1.7-.13-.12-.44-.1-.47.18-.24-.04-.38-.12-.4.18-.14-.04-.24-.12-.42-.12-.12.02.1.16-.06.24-.38.03-.55.04-.8-.12-.1.06-.1.2-.2.23-.04-.03-.07-.1-.1-.16-.1.1-.33.02-.3.23-.17-.06.07-.15.07-.23-.46.5-1.12-.24-1.75.06-.46-.16-.65-.04-1.4-.1-.1-.2-.38-.22-.53-.36-1.42-.02-2.26-1.1-3.43-1.57-.12-.4-.64-.4-.7-1-.58-.3-1.45-1.62-1.86-2.43-.1-.23-.35-.45-.4-.64-.02-.1.08-.2.06-.3-.08-.3-.34-.66-.3-1.04 0-.1.2-.04.18-.18-.16-.13-.17-.4-.18-.7.23-.2.3-.8.06-.87.05-1.13.48-1.72.64-2.84.16.05.12-.1.24-.1 0-.38.12-.62.4-.7.15-.86 1-1 1.1-1.87.8-.3.95-.7 1.58-.94.04-.15.16-.22.17-.4.47-.03.86-.72 1.63-.53.13-.2.12-.03.23-.3.9-.02 1.43-.6 2.32-.57.06.07.06.2.1.3.1-.03.1-.2 0-.2 1.47-.02 2.48.3 3.8 1 .67-.92 1.2-1.78 1.74-2.9.17 0 .3-.02.35-.12.03-.28-.06-.07-.17-.18.3-.17.8-.2.64-.7-.16-.37-.54-1.16-.98-1.5.02-.06.05-.1.04-.18-.54-.12-1.15.26-1.74.06-.24-.1-.5-.5-.7-.64-.1-.1-.43-.34-.4-.64.03-.38.4-.6.8-.7.07.1.2.12.18.3.1 0 .2 0 .3 0-.24-.08-.2-.43-.06-.6.6.64 2.28.46 2.85.4.65.1 1.57 0 2.32.13.15.3.34.32.75.46.63 1.36-1.4 1.16-2.15 1.16-.23.63.95.8.98 1.57.44.52.86 1.07 1.05 1.85.03.1.08-.02.18 0 0 .6.57.66.47 1.22.07-.03.12-.07.12-.17.25.86.97 1.37 1.04 2.03.04.13.2.15.3.23 0 .26-.2.26-.07.47.2.05.08-.2.17-.23.4.8.93 1.55 1.17 2.2.04.13.3.02.24.24.07-.08.28-.03.3-.17.13.03.12.2.16.34-.1.02-.2.05-.23.13.04.17.12-.06.23 0 0 .53.5.5.4.93-.05 0-.03-.1-.1-.12.05.35.2.05.1.47.1.03.12-.04.13-.1.1.13.15.3.17.52.1.08.33-.04.3.3.7-.8 1.26-1.6 1.45-2.8.2-.1.03.2.17.17.17-.46.2-1.05.64-1.23-.05-.05-.06-.13-.06-.23.62-.4.7-1.33 1.28-1.75 0-.35.2-.5.47-.6.27-.42.42-.96.8-1.27 0-.4.16-.63.42-.76 0-.15 0-.3 0-.46.5.08.28-.82.75-.57-.02-1.17-.03-1.92-.06-3.03-1-.27-2.5.12-3.25-.06-.14.35-.73.17-1.2.06-.22-.4-.8-.2-1.18-.52 0-.1.06-.1.06-.17-.1-.1-.07 0-.23 0-.45-.7.55-1.66.87-1.04.18-.14.13-.32.23 0 .2-.4.76.03 1.05-.23.5.3 1.13-.36 1.45.1.1-.2.34.07.35-.16.3.07.42.16.64.17 0-.1-.04-.15-.1-.17zM19.5 14.03c-.08-.07-.07-.23-.23-.23-.08.2.17.37.24.23zm-2.6 5.47c-.1-.26-.02.04 0 .17-.4.53-.94 1.14-1.1 1.7-.33.03-.3.44-.36.57.22.08.5.23.7.17.07.3.18.56.52.6.5.98 1.4 1.58 1.68 2.8.48.48.47 1.46.82 2.08.2 0 .65-.04.46.18.2 0 .2-.22.47-.18.18.16.2.14.45.23.06-.1-.17-.18 0-.22.26 0 .47-.13.7.18.1-.07.24-.12.3-.24.6.15 1.2 0 2.1.06-1.23-2.16-2.83-4.16-3.9-6.28-.43-.25-.7-.67-.77-1.28-.66-.24-.7-1.1-1.28-1.45-.08.15-.2.3-.4.17.12.33-.35.43-.4.76zm25.35 2.44c.07-.22-.3-.3-.35-.18.1.08.14.2.35.18zM10.03 28.5c-.08-.06-.5-.22-.47-.4 0-.07.4-.32.47-.46.14-.26.13-.62.3-.82.05-.07.18-.04.22-.1.17-.28 0-.6.35-.6 0-.1-.02-.17-.06-.23.06 0 .12 0 .17 0 .4-1.37 1.42-2.1 2-3.26.05-.16.34-.08.34-.3-.45-.07-.78-.26-1.05-.52-.5 0-.93.15-1.28 0-.16.16-.43.2-.6 0 0 .07.02.17-.05.18-.7-.42-2.1.36-2.9.4-.1.16.25.12.06.18-.33.12-.12-.3-.35-.3-.05.17.08.16.06.3-.3-.02-.32.15-.47.3-.56.5-.77.82-1.16 1.44-.4.67-.9 1.15-1.16 1.87-.4 1.08-.34 2.54-.4 3.82.57.83.86 1.93 1.63 2.56 0 .16-.23.05-.18.24.5.7 1.37.9 2.08 1.5.13-.15.7.22.88.4 1.57.3 3.1.85 4.7.36.8-.24 1.28-.9 2-1.28.5-.86 1.14-1.6 1.56-2.56.08.03.1.07.17 0 .03-.6.24-1.02.34-1.57-1.42-.07-1.74.06-3.26.06-.1 0-.04-.2-.17-.17.02.13-.04.18-.17.17-.83-.04-1.7.07-2.5.12 0-.15.02-.33-.06-.4-.47 0-.57-.23-.98-.07-.14-.32-.2-.45-.07-.87zm35.13 3.27c.2-.02.16-.26.34-.3.12-1.2.78-2.7.35-3.9-.23-1.23-.78-2.14-1.63-2.95-.93-.9-2.1-1.8-3.25-2.04-1.02-.22-2.5-.2-3.26.17-.1 0-.18 0-.28 0-.14.2-.45.2-.52.47.2.24.3.58.52.64-.16.06-.08.22.06.3-.02-.14 0-.23.1-.24.23.38.64.57.65 1.16.1.02.15-.1.18 0-.1.25.2.4.36.64.23.35.4.8.52 1.1.07.16.27.13.3.18.06.15.07.3 0 .4.2.06.04-.25.22-.23 0 .72 1.2.83 1 1.75-.14-.02-.23 0-.3.06.13.25-.02.5-.17.64-.25-.08-.64-.07-.88.06-.28-.34-.74-.1-.98.1-.16-.1-.25-.28-.35-.45.1 0 .2 0 .17-.12-.3.1-.1 0-.07-.16-.26-.1-.28-.3-.46-.35.1-.9-.6-1.78-1-2.16-.3-.9-1.12-1.78-1.8-2.5-.07.03 0 .22-.1.23 0-.1-.05-.15-.13-.18-.14.08-.07.17-.23.34-.1.12-.32.16-.45.3-.32.3-.8.87-1 1.2-.04.1 0 .3-.05.42-.2.44-.6.7-.64 1.05-.1.64-.05 2.07 0 2.63.18 2.1 1.9 3.1 2.85 4.42.1 0 .16 0 .24 0 .84.97 2.25 1.54 3.9 1.57.58 0 1.08-.32 1.7-.18 1.3-.42 1.9-1.55 3-2.15.08-.4.3-.62.47-.88 0 .1.06.15.13.17-.06-.66.5-.68.52-1.23zM14.73 28c.02-.3.4.02.58-.07.1-.06.14-.42.12 0 .2.02.35-.35.52-.18 0 .08-.1.06-.12.12.2 0 .32.1.47.17.03-.22.15-.35.3-.17 0-.07 0-.17.06-.18.24.03.42.03.64.17.23-.65-.43-1.28-.64-1.86-.23-.8-1-1.1-1.28-1.85-.04-.18.1-.17.06-.35-.35-.04-.6-.28-.82-.35-.02-.13.17-.07.18-.18-.1 0-.18 0-.24-.05-.3.4-.7 1-.8 1.4-.1 0-.2-.02-.24-.07 0 .1.06.13.06.24-.64.73-.8 1.95-1.7 2.43.16.32-.03.44-.16.52.8.35 1.8.08 2.6.3m1.3-4.2c-.04.3.24.3.4.4-.05-.23-.17-.5-.4-.4zM32 30.1c-.2-.73.05-1.4-.24-1.92-.05.5-.08 1.45.23 1.92zM10.4 28.5c.1.1.3.02.3-.16-.14.07-.18-.23-.23-.06.17.06-.07.15-.07.23z" clip-rule="evenodd"/><g id="institutions" fill-rule="evenodd" clip-rule="evenodd"><path d="M16.63 24.2c.9.16 1.65.2 2.38.07.45.78.16 1.86.2 2.82.13 2.34.17 5.18.35 7.5-1.24.17-2.2.32-2.92-.15 0-3.58-.17-6.84 0-10.26zM31.9 34.45c.12.07.23.15.2.4-.14-.05-.25-.13-.2-.4zM37.8 33.7c.12-.24.48-.02.48.22.14-.05.3-.08.52-.06.06.27.4.26.64.35-.05.38.86.27.7.77.06 0 .1-.02.1-.06.4.62 1.1 1.1 1.3 1.87.06.27-.13.55.17.75-.2.47-.33 1.02-.46 1.57-.2.13-.7.26-.8.05-.2.33-.66.07-.6.23-.08.18-.12-.18-.17-.23-.17.07.1.22-.06.3-1.22.38-2.77.1-4 .05-.02-.1-.12-.14-.12-.3-.2 0-.08.3-.3.3 0-.34-.2.07-.34-.23-.15.15.14.06.06.3-.05 0-.04-.08-.06-.13-.22-.07-.14.22-.3.06-.23.04.07-.2-.1-.3-.13.04 0 .32-.12.36-.12-.1.04-.14-.06-.3-.2-.02 0 .36-.23.3-.03-.18.1-.2.06-.4-.14.04-.22.14-.18.34-.32.1-.27-.2-.4-.3-.17.07.14.12.05.3-.14-.1-.18-.13-.24.06-.12 0-.02-.24-.05-.35-.08.05-.2.34-.12.36-.05.1-.2.1-.3.12-.06-.1-.06-.15 0-.23-.44.25-.8.13-1.27.1-.3 0-.08.12-.24-.16-.06.02-.02.26-.24.28-.15-.13.1-.3-.05-.4-.15.1-.17.36-.47.34 0-.1-.06-.3.12-.23-.3-.3-.33.4-.4.05-.05.16-.23.2-.42.23.14-.13-.04-.26-.1-.35-.15.03 0 .38-.2.35-.2.1-.02-.2-.16-.18-.13.04.07.1-.06.18-.07-.1-.3-.3-.35-.06-.18.02.15-.17-.06-.17-.2-.06-.08.18-.17.23-.85-.03-1.43.06-2.1-.3-.06.2-.46.16-.46-.05-.23.05.2.2 0 .23-.16 0-.3 0-.18-.12-1.72.24-2.82-.18-3.95-.05-.02-.1-.08-.16-.1-.25-.06.05-.1.1-.12.18-1.1-.1-3.56.4-4.9.06-1.16.24-2.7-.3-3.65.05-1.38-.22-2.94.5-4.08-.53-.56.23-1.1-.4-.8-.87-.37-.74 0-1.3.22-2.04.1.02.23 0 .24.07.14-.4.58-.5.65-.98.05 0 .1.04.1.1.1-.4.66-.32.7-.75.18.03-.05.12 0 .23.17-.26.37-.33.48-.53.42.12.38-.2.75-.23.06-1.4-.26-2.88 0-4.36-.35-1.73-.26-4-.52-5.76-.5-.2-1.24-.1-1.7-.35.06-.32-.08-.75-.28-.64-.14-.36-.08-.8-.06-1.44.27.03.24-.2.18-.35.16.06.15-.07.3-.05.82-1.2 2.1-1.65 3.07-2.67.05.02.1.05.12.1.6-1.02 1.8-1.2 2.2-1.85.24.08.34 0 .4-.23.13 0 .03.2.06.3.14-.08.24-.2.23-.42.18.37.25-.36.34.06.1 0 .2-.36.23-.06.08-.03.1-.12.12-.23.08-.02.1.06.16.06.18-.24.4-.5.7-.5.83-.57 1.55-1.35 2.4-1.93.04-.04.12.05.1.06.42-.3.73-.76 1.28-.82.16-.62 1.23-.35 1.34-1.03.08.05.08.2.17.23.08-.05-.15-.24 0-.4.25.03.4-.03.35-.3.2.03.3-.02.35-.12.22.04.18 0 .3.18.2-.1-.13-.14-.07-.3.17.17.17.07.24-.1.56.16.7-.5 1.1-.65.33.03.57.45.82.36 2.9 1.92 6.36 3.25 8.72 5.7.32.15.88.5 1.16.87 1.8.7 3.03 2.17 4.48 3.03-.04.25.1.32.06.58.6.06.46 1 .7 1.63-.17.84-.4 1.62-.93 2.1-.67 0-1.02-.3-1.7-.3-.12 0-.17-.05-.16-.17-.4 1.7.12 3.66-.18 4.94.36 1.87.02 3.16.1 4.65zM26.95 13.2c-.34 0-.9-.2-1-.63-.23-.1-.48-.2-.7-.35 0 .08 0 .14-.1.12 0-.1-.05-.15-.12-.17 0 .1-.05.15-.12.17 0-.08 0-.15 0-.23-1.6.58-2.8 1.9-4.6 2.57-.45.6-1.18.95-1.68 1.5-.03-.2-.16-.08-.06.07-.14.02-.22 0-.3-.06-.05.28-.44.24-.4.47-.72.13-1.28.9-1.8 1.28 0-.08.03-.13.06-.18-.22.14-.5.2-.76.4-.24.2-.37.5-.52.65-.03.02-.1-.08-.12-.06-.08.1-.05.37-.23.17 0 .1-.02.15-.07.2-.2.13-.73.35-1 .45-.26.1-.58.42-.92.64-.6.4-1.12.65-1.5.92.14.06-.05.26-.18.24 0-.05 0-.12-.05-.12 0 .25-.1.04-.3.23.15.62-.15 1.17.6 1.17.15-.07 1.12.1 1.6.23.02.08-.18.2-.04.23 0-.14.25-.04.23.06-.03.34-.08.3-.23.4.04.3.2-.13.3.06.4 1.43.12 3.04.16 4.48.03 1.34.16 2.46 0 3.72.08 0 .2 0 .17.12-.06 0-.07-.05-.12-.06.15.76.02 2.08.4 2.8-.96.14-1.34.57-2.1.86-.15.03-.04-.2-.16-.23-.2.32-.6.6-.94.88-.05.63-.46 1.02-.3 1.7.22.34 1.17.04 1.3.17.06-.16-.12-.35 0-.35.62.15.93.2 1.38 0 .07.25.5.3.24 0 .12.03.18.12.3.17.1-.26.38-.06.5-.23 0 .07-.07.08-.05.17.53 0 1.24-.56 1.8-.04.1 0 .13-.07.24-.06.08.13.04.38.23.4.15-.15-.1-.36.12-.46.24.04.5.2.58-.06 0 .2-.1.25-.06.47.23 0 .37-.06.46-.18.4.3 1.88.26 2.56.18 1.25-.15 2.8.13 4.02.05.1 0 .04-.14.17-.1.4.22.54-.1.93.1 0-.04 0-.1.06-.1.9.33 1.9.2 2.8.28 0-.07 0-.14.1-.12.73.1 1.33-.14 1.93.12.84-.15 1.85-.27 2.9-.06.53-.35 1.06.1 1.52-.17.27.1.43.13.74-.06-.04.14.12.1.18.16.2-.22.6-.16.75 0 .1-.46.74.2 1-.23.02.07.05.13.1.17.72-.45 2.05.22 3.27-.17-.22-.74-.43-1.22-.4-1.98-.75-.2-1.57-.78-2.5-.58 0 .13-.03.22-.13.23-.37-.12-.73-.23-.57-.75-.13-.1-.42-.05-.4-.3.24-.1.3-.4.4-.63-.25.02 0-.47-.23-.47.2-1.27.1-2.32-.12-3.43.1 0 .18 0 .23.06-.27-.34-.2-1.58-.1-1.63-.02-.1-.1.03-.12-.06 0-.1.1-.06.12-.13-.06-.06-.22-.02-.18-.17.14.02.28.14.24-.12 0-.18-.23.18-.24 0-.1-.76.1-1-.17-1.74.27-.08-.02-.7 0-1.17.15-.07.2-.25.35-.34-.08-.55-.1-1.15-.3-1.58.67.24 1.17-.27 1.58-.17.05-.1-.18-.2 0-.23.17.07.5 0 .52.23.08-.04 0-.22.12-.23.25.04.43.04.7.17.23-.32 0-.7-.12-1 .2.07.08-.18.17-.22-1.35-1.28-3.34-1.93-4.53-3.37-.37-.12-.58-.4-.88-.58-.02.07-.07.1-.17.1-.02-.1.06-.12.05-.22-.24 0-.3-.36-.53-.17.07-.3-.17-.3-.3-.4.03.2-.17-.05-.22.16-.1-.18-.05-.48-.23-.58.03.15.08.2-.06.3-.12-.34-.16-.03-.34.05-.07-.2.02-.57-.23-.6-.08.23.16.12.12.3-.2-.03-.14-.33-.3-.4-.07.22-.4-.22-.63 0 0-.2-.18-.22-.24-.47-.2.13-.15-.16-.35 0-.05-.24-.3-.56-.46-.35.05-.3-.26-.64-.35-.3.05-.2-.1-.22-.06-.4-.1 0-.13.06-.23.06-.1-.24-.1-.24-.23-.4 0 .12-.02.2-.12.22-.53-.53-1.25-.88-1.75-1.45zm9.53 16.6c.06-.07.06-.3-.1-.3-.02.14-.02.28.1.3zM12.7 34.43c.12.02.2 0 .22-.1-.07-.03-.22-.25-.3-.07.08 0 .07.1.07.17zm-3.62 3.78c0-.07 0-.15 0-.23-.06 0-.12 0-.17 0 0 .14.03.24.18.22zm7.15.52c.2.15.46 0 .47-.23-.18-.13-.3.2-.47.24zm.7-.1c.14-.03.07.16.18.16.08-.3.12.04.3-.1 0-.05 0-.1 0-.13-.1 0-.38-.15-.47.06zm-1.4.05c.1.1.3.04.36-.07-.2.02-.3-.15-.36.06zm2.45-.07c-.1-.1-.3-.05-.47-.06 0 .23.4.2.48.06zm19.54.52c0 .16-.03.35.12.35-.08-.2.22-.44.05-.35-.02.1-.13.04-.18 0zM23.74 14.67c.08.02-.03.07 0 .17.15.02.15-.12.17-.23.37-.02.48.1.77-.1 1.22.17 2.33.76 2.56 1.74.05.14.2.17.3.3.1.45.03 1.1-.2 1.68-.2.56-.42 1.3-.92 1.4-.03.04-.05.12-.05.22-.47-.05-1.25.9-1.63.4-.07.03-.04.16-.05.24-.32-.03-.73.03-.76-.3-.37 0-1.2-.72-1.27-.86-.04-.07.1-.14.06-.17.02.03-.8-.46-.42-.82 0-.8-.54-1.75.17-2.2 0-.12 0-.24 0-.36.1 0 .04.2.18.18.13-.04.02-.33.06-.47.17-.04.4-.04.34-.35.38.06.45-.22.7-.46zm1.4.64c-.45-.06-1.13.1-1.46.4-.44.42-.66 1.85-.52 2.7.2 1.3 1.55.82 2.1.28.3-.32.52-.76.86-1.05-.15-.35.16-.62.23-.93-.2-.84-.53-1.28-1.22-1.4zM32.04 23.72c.16-.2-.12.32.06.4.2.05.1-.27.34-.16-.04.6.3.76.34 1.25-.1.05-.06.26-.27.17.16.47 0 .77.08 1.25.17-.04.26-.13.27.16-.1.02-.12-.08-.2-.08.26.2.23.67.06.86 0 .26.23.27.22.55-.24.38.2 1.03-.14 1.73.2 1.22.03 2.76.34 3.68-.05.07-.3.26 0 .25-.06.24-.2.2-.07.47-.08-.1-.3-.08-.47-.08.13.24.07.22.07.63-.22-.07 0-.63-.28-.63-.07.48-.53 0-1.08.08-.25.02.23.2 0 .23-.2-.13-.6-.28-.62.08-.17-.25-.4-.1-.68-.08-.13-.44.15-.86-.27-.94.32-.28.26-.96.2-1.63.3-.4.27-1.38 0-1.72.05-.14.12-.02.2 0 .07-.32-.2-.24-.13-.55.14-.04.13.1.13.23.1-.03.14-.1.14-.23-.06-.14-.24-.15-.34-.24.12-.38.04-.36.07-.62.07.02.04.15.13.15.35-.67-.1-1.17-.06-1.96.1.02.1-.08.2-.08.18-1.02-.63-2.58.27-3.14.16-.02.08.23.2.24.25.05 0-.47.28-.4-.2.52.22.34.54.4.1-.02.06-.2.07-.3.07.04.3.3.4.06zM25.86 24.35c-.02-.16-.18-.16-.27-.23.07-.33.2.03.33.07-.03.14-.03.33-.2.3.02-.06.05-.13.13-.15zM25.18 24.1c.12.54.5.6.6 1.1.1.44-.15 1 .08 1.5-.12.32-.28.95-.2 1.25.15-.03-.04-.46.27-.3-.03-.13-.22-.08-.14-.32.22.02.18.35.2.62-.37-.08-.13.54-.4.55.27.14.03.56.26.86-.2 0-.27.77 0 .94.18.03-.06-.44.2-.3.08.34.25.8 0 1.1-.22-.08-.03-.16-.06-.4-.2-.06-.14.15-.28.15.17.33.34.66.4 1.1-.22.06-.1-.3-.26-.3-.15-.03-.03.26-.07.38.18 0 .13-.13.26 0-.18.2.18.57.14.94-.04.37-.08.9 0 1.56-.76-.16-1.85.1-3-.15-.15-.8.1-1.52-.2-1.88.12-1.87-.05-4.6-.06-6.66.13-.15.12.05.34 0 .07-.66-.2-.92-.2-1.5.43-.36.87-.03 1.22-.3.14.04.14.12.07.23.3-.1.35 0 .6.08.1-.08.14-.2.2-.3.1 0 .05.07 0 .06z"/></g><g id="services" fill-rule="evenodd" clip-rule="evenodd"><path d="M37.32 25.4c.18-.08-.06-.2 0-.36.18.12.17.42.24.64-.58-.12.3.66 0 1.17-.2.06-.16.02-.3-.06.28.37-.03.7.3 1.1.05-.05.08-.1.1-.18.2.75-.1 1.6.07 2.8 0 .12.05.17.17.16-.13.22-.45.25-.52.53-2.53.05-5.3.2-7.44 0-.02.24-.6.22-.64.07-.16-.02-.2.08-.18.23-.2-.05-.3-.2-.58-.18-.2.02 0 .16-.12.18-.95-.2-2.18.05-3.08 0-.16 0-.38-.2-.52-.18-.12 0-.18.2-.3.18-.08 0-.27-.23-.46-.18-.2-.03-.17.18-.35.18-1.32-.08-3.5-.1-4.75.17-2.16-.12-4.18-.05-6.75-.17 0-.18-.06-.28-.3-.35-.02-1.54-.14-4.2.76-5.53 0-.13-.1-.17-.05-.35 1.04-1.94 2.23-3.74 3.67-5.3.16.02.12-.1.23 0 .15-.14.5-.6.87-.5-.05-.12.18-.2 0-.24.53-.08.78-.5 1.23-.6.13-.22.45-.27.64-.45.8-.02 1.6-.6 2.67-.7.1 0 .12.04.13.12.05-.12.16-.2.23-.3-.24 0-.2-.48-.12-.63-.37-.17-.8.02-1.16-.06-.6-.13-.95-.77-1.28-1.2-.02-.15.17-.08.17-.2-.3-.53.27-1.1.35-1.62.62-.58 1.8-.6 2.5-1.1 1.3.17 3.6-.2 4.95.3.1.03.43.2.52.28.06.06.04.24.1.3.05.02.2-.04.24 0 .4.2.4.78.58 1.27.2-.05.14 0 .35-.06.08.9-.53 1.46-.7 2.2-.3.1-.64.03-.87.2-.12.07-.07.3-.3.28.14.57 1.27.13 1.58.52.15 0 .28-.03.35-.12.56.18 1.1.38 1.8.53.22.3.85.63 1.05.46.1.4.28.36.46.7.06-.04.06-.13.18-.12 0 .1.08.47.3.3.46.54.9 1.1 1.5 1.5-.03.05-.06.1-.06.18.2-.06.2-.04.12.12.1 0 .12-.07.23-.06.28.5.36.86.94 1.22-.18-.06-.06.4.06.52.13-.35.1.1.3.18.04.24-.12.27-.12.46.5.33.74 1.05 1.04 1.75zM25.7 13.17c.34.16.44-.03.8.06-.14-.22-.57-.33-.8-.06zm.7 5.17c-.4-.68-.33-1.62 0-2.32.7.08 1.1-.54 1.04-1.4-.3-.08-.34-.44-.4-.58-1.28-.32-3.57-.17-4.84-.12-.18.45-.63.6-.52 1.34.38.28.52.8 1.28.7 0 .08-.1.1-.12.17.3 0 .5.1.7.18-.2.9.28 1.86-.35 2.56-.26.07-.08-.28-.3-.23-.44.17-.88.07-1.4.05-1.44.62-2.84 1.28-3.9 2.33-1.04 1.05-2.52 2.73-3.2 4.25-.55 1.27-.78 2.75-.74 4.42.3.04.52.17.8.23.1 0 .05-.15.18-.12.92-.06 1.82.27 2.8.13.08 0 .15-.16.23-.18.2-.05.96-.04 1.22 0 .3.05.32-.03.63-.05.08 0 .18.12.3.1.2 0 .32-.2.45 0 .07-.22.6-.23.64 0-.04-.2.06-.24.18-.28.03.07.06.13.12.18.03-.46.4-.02.64 0 .23 0 .04-.3.34-.12.28.17.58-.2.82.17 0-.18.15-.2.3-.23.5.24 1.26-.04 1.8.35.04-.22 0-.07.17-.23.45.22.65 0 1.1.17 0-.05-.02-.15.05-.16.1.07.26.08.3.23.35-.14.65-.1.98.06.43-.3 1.68.02 2.33-.35 1.27.02 1.76-.05 2.9.06 0-.07 0-.17.06-.18 0 .07 0 .17.06.18.03-.07.06-.13.12-.18.64.03 1.62.47 2.5-.05.08-1.65-.05-2.58.05-3.77-.73-1.1-.77-2.88-1.8-3.67-.02.1.1.15 0 .18-.2-.1-.22-.4-.35-.6 0 .1-.14.07-.23.07-.78-.74-1.58-1.47-2.5-2.08-.06.1-.18.13-.3.17-1-.48-2.2-1.07-3.36-1.17.1.3-.7-.27-.8-.18zm-5.6-2.73c-.1-.05-.1-.2-.23-.23-.05.16.16.37.24.22zm6.93 2.33c.24.1.5.14.8.17-.05-.23-.72-.33-.8-.17zm-14.43 9.2c.03-.53.48-.94.4-1.35-.2.33-.47.9-.4 1.34zm-.05.98c-.18-.24.13-.6-.06-.82 0 .28-.26.78.05.82zm.17 2.67c0-.24 0-.48.06-.64-.28.03-.1-.05-.12-.23-.08 0-.13-.03-.17-.06.12.36-.33.85.22.93zm-.87.23c0-.1-.06-.63-.18-.8.08.24-.17.83.18.8zM32.38 37.28c-.08.02-.02.18-.12.18-1.22-.07-3.43.04-5.17.06-2.18.02-4.42-.13-6.53 0-.03-.05-.06-.1-.05-.18-.18.18-.76.25-.93 0-.17.14-.28.14-.42.18-.62-.32-1.32 0-2.04-.06-.46-.05-.84-.2-1.28 0-.2-.24-.57-.03-1 0-.1.03-.07-.1-.16-.12-.2.22-1.06.23-1.28-.06-.32.52-.87-.13-1.34.18-.15-.22-.26-.1-.46-.06-.28.05-.44-.33-.88-.3-.02.1.05.12.12.13-.84 0-1.55 0-2.5 0-.3-.96.12-1.6-.23-2.16.03-.17.12-.3.17-.46 0-.4-.1-.63.12-.86-.14-.84.45-1.26.46-1.75.24-.04.22-.33.35-.47.06 0 .05.07.06.1.74-.5 1.27-.9 2.08-1.33.14 0 .23 0 .3.06.12-.07.22-.16.34-.23 1.25-.02 2.44-.1 3.9-.23.03.05.06.1.06.17.07 0 .05-.1.06-.17.58 0 .87-.07 1.22.17.8-.35 1.7.14 2.56.06.32-.03.83-.02 1.28-.06.25-.02.56-.3.7.06.08 0 0-.17.1-.17.25-.07.24.12.42.1.7-.1 1.72-.27 2.32-.04 1.46-.1 3.83-.1 5.64-.12 2.02 0 3.8-.15 5.4.06-.04-.1.4-.28.48-.06.75-.4 2.6.35 3.08.7.04.02.15-.27.12.05 1.03.12 1.6 1.24 1.92 2.1.2-.12.26.03.4.12-.07 1.12.46 2.6 0 3.66-.3.06-.32.2-.35.4-.05 0-.04-.06-.06-.1-.1.4-.58.2-.75.46-.4-.15-1.45.15-1.86-.13-1.38.07-2.57.32-3.96.12-.17.32-.84.04-.93.04-.33 0-1.1.36-1.4-.06zm-16.75-6.74c.24.34.62.18.8 0-.3 0-.47.07-.8 0zm6.1 5.18c.26.02.38.2.53-.06.14.1.34.04.76.06.07.13 0 .1.05.3-.23-.16-.15.12-.3.22.33-.02.32-.05.54.06.07-.33-.08-.12-.17-.24.04-.1-.07-.34.06-.35.07.17.14.08.28.02.13 0 .2.36.3.23-.08 0-.08-.16 0-.18.78.2 1.38.03 2.2.3.58-.2 1-.03 1.5.05 1.24-.4 3.6-.2 5.25-.46.14.18 0 .3.17.4 0-.08-.02-.2.06-.23.38.2.95-.2 1.22.06.14-.42.5.15.64-.13-.02.28.13.06.24.24.08-.13-.15-.2 0-.23.2.05.24-.06.34-.1 0 .12.02.2.12.22.1-.14.16-.16.18-.24.04.15.27.1.34.23-.04-.2.06-.27.18-.3 0 .08.1.1.12.17-.06.06-.12.12-.18.18.25.02.2-.27.4-.3 0 .1 0 .2 0 .3.16-.02.17-.2.4-.12 0 .08-.06.08-.04.18.54.05.57-.24.98-.05.5-.26 1.55-.15 2.27-.3.33-.7.22-1.48-.17-2.03-.32-1.03-1.5-2.16-2.74-2.1-.13-.42-.92 0-1.1-.46-.2-.05-.12.15-.23.18-.13-.23-.57 0-.76-.24-.8.3-1.75.1-2.5.35-.2-.25-.3.1-.46-.1 0 .07.03.2-.05.22-.12-.12-.23.02-.35.06-.14-.02-.1-.2-.3-.18-.14.08.07.22-.05.24-1.74.1-3.36-.16-5.06.04.05-.08.05-.14-.07-.17.04.22-.44.14-.35-.06-1.24.2-2.63-.17-3.72-.05-.05 0-.07-.05-.06-.1-.75.2-2.27.17-3.03.1-.18.32-.6.1-.93.35 0-.04 0-.1-.05-.1-.42.07-1.27.22-2.1.16 0-.2-.1-.25-.18-.35-.05.16.17.33 0 .42-.05-.13-.04-.32-.18-.35-.03.1.07.34-.06.35-.3-.02-.16-.23-.52-.12 0-.14.1-.18 0-.3-.17.2-.34 0-.4 0-.42 0-1.25.1-1.63.24-.15.06-.2.22-.35.24-.02 0 0-.14-.06-.12-.1.03-.18.15-.3.17-.8.2-1.73.54-2.03 1.52-.58.4-.52 1.53-.3 2.27.76.04 1.23-.03 1.8.17 0-.1.05-.16.12-.18-.02.13 0 .2.12.23 0-.25.42-.08.46 0 0-.07 0-.17.06-.18.78.3 1.4.37 1.98.24.06.06.02.22.17.18.02-.07 0-.17.07-.17 1.04.23 3.6 0 5.18.12-.1-.16.15-.26.17-.1-.26 0 .2.12.23.22.02-.33-.15-.53.24-.53.06.2-.24.32-.07.42.1 0 .58.23.75-.06-.2-.05-.6.05-.64-.3.06 0 .07-.04.12-.05.1.02.12.4.23.2-.17-.24.18-.1.34-.2-.14.2.15.3 0 .48.45-.12.57 0 .82 0-.12-.04-.02-.3-.24-.23-.08.25-.3-.05-.28-.23zm-5.17-4.2c.1-.2.2.2.3 0 0-.1-.05-.14-.12-.17 0 .1-.42.04-.18.18zm-7.68 3.55c.22-.27.28-.6.06-.93-.04.3-.08.58-.06.93zm13.85 1.17c.05-.18-.06-.48-.18-.3.17 0-.07.4.18.3zm9.88.3c.1 0 .07.13.07.22.15 0 .14-.13.23-.17-.06-.02-.06-.1-.06-.2-.1.02-.2.05-.23.13zm-1.2.1c.14 0 .57.17.8-.17-.22.1-.7-.06-.8.18z"/></g><g id="entertainment" fill-rule="evenodd" clip-rule="evenodd"><path d="M11 14.13c.17-.03-.04.3.13.28.23-.3-.15-.37 0-.8.07 0 .15 0 .23 0-.1-.85.47-1.22.4-2.03.05 0 .06.05.12.05-.1-.3.14-.53.3-.8.18-.04.16.14.22.22.16-.06.3-.12.53-.1-.07-.2-.28-.24-.3-.48.6.03 1.2.35 1.75.35.05 0 .2-.1.23-.1.28.02.6.27.94.34.65.15 1.44.08 1.75.53.05-.02.03-.12.1-.12.62.24 1.1.63 1.93.64 1.2.4 2.67.84 3.83 1.1.6.52 1.77.44 2.5.8 1.18.14 2.36.43 3.44.88 4.2 1.17 8.72 2.3 13.03 3.43.3.33.87.38 1.22.65-.3 2.22-1.24 4.4-1.45 6.34-.03.08-.08-.03-.18 0 .03.27-.08.4-.1.63-.4.18-.64.3-.94 0-.03.1-.07.15-.18.18-1.07-.8-2.4-.18-3.08 1.05-.5.88-1.2 2.1-.47 3.1.54.7 1.38 1.03 2.15 1.5.06-.12.05-.44.24-.58.44-.04.27.64.23.93 0 .2.16.26.23.4-.37 2.02-1.02 3.65-1.4 5.76-.2.1-.27.35-.35.6-.15 0-.3 0-.46 0-.08.07-.07.13.05.16-.1.12-.15-.04-.3.06 0 .17.04.38-.05.46-1.78-.83-3.78-1.33-5.7-1.74 0-.08 0-.16 0-.23-.1 0-.16.04-.18.1-.47-.4-1.36-.37-1.75-.74-.57.27-1.22-.46-1.74-.3-.04-.05-.13-.05-.12-.17-.2.04-.53.1-.57-.17-.38.04-1.02.06-1.34-.3-.52.2-1.1-.33-1.4-.4-.22-.07-.8.14-.76-.24-.05.04-.08.1-.1.17-.85-.2-1.8-.5-2.7-.75-.68-.2-1.6-.22-2.02-.6-.26.02-.4.14-.47-.1-.06 0-.04.1-.12.1-.15.05-.1-.1-.17-.16-.06.04-.06.13-.17.12-.14-.33-.45.06-.54-.35-.47.05-1.15-.12-1.45-.42-1.64.08-2.92-.64-4.4-.76-.5-.27-1.46-.1-1.82-.52-.05.03-.1.05-.1.12-.45-.57-1.7-.34-2.45-.6 0-.3-.03-.43-.24-.63-.23-.07-.2.2-.36.05.32-.93.6-2.23.94-3.3.05 0 .1 0 .17 0-.07-.5.1-.6.06-.94.13.04.13.1.07.18.25-.04-.1-.63.23-.46-.2-.14-.15-.4.06-.53-.28-.42.33-.95.17-1.3-.05.02-.04.1-.06.13-.13 0 .17-.65.12-.23.15-.2-.13-.53.05-.76.1-.02.1.05.12.12.15-.15.06-.2 0-.35.23.03.13 0 .1-.17.1.2.3-.02.42.18-.04-.04-.06-.1-.13-.1.04-.07.14-.07.12-.18.52 0 1.07.36 1.68.3.77-.1 1.2-.58 1.9-1 .63-.76.06-1.8-.22-2.5-.3-.12-.3-.52-.64-.58-.05-.24-.18-.4-.3-.58-.23-.02-.17.28-.45.23-.16-.34-.62-.37-.7-.77-.1.15-.08.06-.3.06-.1-.4.13-.87.53-.94 0-.15-.28-.34-.4-.17.15-.26.2-.86.23-1.3.08-.15.13.22.35.12.04-.26-.1-.13-.24-.1.05-.05.13-.34 0-.36.06-.18.16.06.24.06-.03-.16-.03-.32-.12-.4.16.05.1-.33.12-.6.18 0 .13.22.23.3.2-.2-.26-.23-.17-.52.07.02.12.07.12.17.35-.15-.16-.45.06-.64zm-.45 2.1c.06.32-.25.6-.06.86.12-.24.34-.7.05-.88zm3.43-4.84c-.23.05-.18-.18-.4-.13-.02.16.35.22.4.12zm.87.28c-.17.03-.4-.16-.47-.06.14.04.4.3.47.06zm2.15.53c-.13-.33-.6-.38-.87-.4.18.25.5.34.87.4zm-6.4 12.63c-.2.23-.37.4-.8.3-.52 1.34-.84 2.88-1.17 4.4.3.43.65.47 1.22.65 0 .35.15.2.3.4 0-.06-.02-.16.05-.17.48.37 1.1.08 1.4.6.4-.2.78.36 1.33.16 0 .33.6.06.64.35 1.12.2 2.1.75 3.38.9 1.72.18 2.98.68 4.53.98.46.08.84 0 1.22.17.15.06.24.24.4.3.9.28 1.95.48 2.86.63 1.08.18 2.3.18 3.02 1 .2.06.3-.08.35.16.28-.13.4-.05.64.12.2.07.05-.2.24-.12.28.25.7.26 1.1.35.35.07.7.04 1.06.1.37.08.7.3 1.05.36 1.3.25 2.6.48 3.9.75-.05-.74.23-.98.35-1.56.17-.8.24-1.7.4-2.26.12-.34.4-.6.13-.88-.14 0-.17.1-.35.06 0-.22-.35-.26-.23-.4-.4.12-.48-.12-.7-.4-.12-.03-.12.07-.18.1-.06-.08-.06-.14 0-.23-.62 0-.66-.6-1.04-.87-.2-.72-.54-1.93-.3-2.85.13-.1.23-.27.18-.57.08-.02.1-.07.18 0 .08-.5-.06-.78.34-1-.06 0-.06-.08-.05-.17.22-.15.23 0 .4-.05-.3-.4.3-.62.47-.92.07.14.64-.34 1.05-.4 0 0 0 .12.05.1.28-.05.22-.1.35-.3.03.16.1.28.18.36 0-.1-.07-.13-.06-.23.5-.2 1.58-.06 2.44-.16.22-1.67.27-3.53 1-4.9-1.82-.38-3.63-.73-5.35-1.33-.4.08-.98-.07-1.22-.34-1.3-.36-2.5-.6-3.9-1.04-.95-.06-2.23-.22-2.85-.64-.22.2-.43-.25-.88-.12-.25-.3-.98-.14-1.33-.47-.78-.04-1.53-.14-2.2-.35-1.07-.33-2.16-.55-3.2-.88-.34-.1-.62-.34-.94-.46-.9-.34-1.9-.37-2.74-.57-.5-.12-1.48-.34-2.1-.7-.64.03-1.4-.43-1.98-.35.07.4-.2.7-.3 1.1-.14.7.08 1.57-.4 2.16.03.42-.2.97-.34.7-.18.12 0 .48-.24.63.47.85 1.5.87 1.8 1.92.2.03.2-.12.3 0 .32.47.6 1.26.75 1.74.2.1.03-.2.17-.18.1.32-.18.26-.23.4.06.02.16 0 .17.07 0 .5-.5 1.18-.28 1.8-.25.18-.45.4-.8.47 0 .18 0 .35-.13.4-.13-.28-.1.1-.24.12-.08 0-.22-.2-.23-.06-.23.86-1.53 1.52-2.63 1.16zm2.04-10.47c.06-.2-.02-.2.06-.4-.08 0-.16 0-.23 0-.04.22.08.3.17.4zm10.76-.18c.43.15 1.08.4 1.5.35-.54-.13-1.1-.53-1.5-.35zm18.9 6.28c-.03-.34.44-.18.35-.58-.16.05-.15-.08-.3-.06-.02.17-.2.5-.05.64zM27.12 30.58c.2.1 0 .28.1.35-.75-.02-1.53-.5-1.73-1.28-.08 0-.05.12-.13.12-.6-.4-1.13-.9-1.74-1.52-1.28.28-2.4 1.18-3.6.47 0-.1.16-.02.17-.12 0-.05-.06-.06-.06-.1-.06-.17-.13.16-.24 0 0-.17-.02-.35.06-.42.07 0 .04.12.12.12.1-.2 0-.2 0-.47.3.1.27-.39.23-.4.07-.17.17.08.24-.06-.2-.25.05-.44 0-.76.13.03.16-.03.24-.05-.03-.27-.05-.45.05-.7.12 0 .05.2.18.18-.1-.52-.1-.84.13-1.34-.48-.53-.85-1.14-1.46-1.52-.05-.36-.24-.58-.52-.7.15-.28.22-.1.58-.12-.1-.15-.4-.1-.35-.4.8.12 1.6.1 2.62.17.58.04 1.04.22 1.4-.23-.13-.45.15-.7.46-.87.55-.62 1.87-2.72 2.8-1.34-.07.06-.07.2-.07.34.05-.04.05-.14.17-.12 0 .85.22 1.58.35 2.8 1.2.6 2.1 1.3 3.25 1.85.08.22.25.34.24.64-.53.17-.68.8-1.27.77-.13.36-.34.63-.76.7 0 .14.1.18 0 .3-.22.05-.1-.23-.3-.2-.07.05-.1.14-.1.25.06 0 .1-.02.1-.06.1.3-.5.45-.7.7-.05 1.1-.28 1.83-.22 2.67-.04.16-.12.27-.23.35zM28.75 25c-.8-.48-1.64-.9-2.4-1.4-.15.1-.12.42-.34.47-.7-.78.07-2.06-.46-3.15-.63.46-.96 1.2-1.4 1.86-.06-.04-.15-.07-.28-.05-.14.23.1.14.1.35-.57.43-1.6-.2-2.5.05.26.44.6.77 1.12.94.2 1.47-.85 2.55-1.1 3.78.76-.18 1.53-.45 2.26-.82.9.65 1.53 1.58 2.56 2.1.16-.9-.07-2.22.12-2.5"/></g><g id="shopping" fill-rule="evenodd" clip-rule="evenodd"><path d="M23.02 17.24c.16.07.3.07.46 0 .05.27-.44.17-.46 0zM28.9 40.22c.06.18-.1.14-.13.23-.17.04-.1-.16-.3-.12.1-.22.25 0 .42-.1zM39.42 30.04c-.16 0-.05-.23-.23-.18-.07.33.2.34.33.47-.1.5-.42.47-.3 1 .06.16.1-.15.25-.07-.34 1.32-.3 2.8.1 4.24-.55.77-.16 1.4-.22 2.27.02.08.1 0 .1-.06-.13 1.36.06 3.2-.27 4.67-.14 0-.04-.25-.07-.35-.23.07-.02.26-.12.4-1.28-.44-3.17-.06-4.06-.52-.2.3-1.03-.08-1.5.17-.47-.23-.9.03-1.35-.17-2.1.2-5.17-.02-7.34.06-.22 0-.58 0-.58.23-.1 0-.12-.08-.23-.07-.14-.02-.07.17-.18.18-.34.08-.4-.12-.58-.23-1.22.32-2.34.1-3.73.12-1.92.02-4.68.1-6.8-.42-.64.28-1.63.25-1.98-.17.1-.76-.22-1.67-.25-2.55-.03-1.24.06-2.63-.05-3.95-.07-.85.1-1.82.1-2.5.03-.72-.08-1.42-.1-2.27 0-.42-.08-.85-.06-1.23 0-.27.2-.58.17-1.04 0-.34-.25-.95-.05-1.28-.05-.06-.1-.12-.17-.18-.1-2.92.44-6 .12-9.36.08 0 .02.17.1.18.06-.26-.14-.4 0-.65-.25-.02-.28.08-.45 0 0-.44.77-.7.35-1.04.13-.2.4-.6.64-.35.13-.04.04-.3.3-.23.17-.06.07.2.16.23 1.03.12 2.86.12 4.07.06.6-.58.55-1.92 1.34-2.44 0-.12 0-.24 0-.35.17.04.16-.1.3-.06.48-1.24 1.5-1.93 2.15-2.98.97-.45 1.66-1.17 2.62-1.63.02.1-.04.15-.06.22.35-.18.72-.33 1.06-.52.14 0 .17.1.35.06 1.35-.5 2.7.15 3.96.06.7.44 1.38.9 2.04 1.4.72 1.06 1.75 2.3 2.5 3.54 0 1.18.56 1.5.8 2.4 1.05.14 1.7 0 2.98 0 0 .1-.07.1-.06.22.5-.38 1.85.16 2.67-.23.26.27 1.12-.1 1.5.23.03.2-.1.28-.1.47-.1 0-.1-.06-.18-.06.08.42 0 1.3 0 2.2 0 .37.1.73.06 1-.02.1-.12.1-.12.16.03.46.58.88.17 1.22.36.5.25.84.18 1.46.45.43-.04 1.37 0 1.97.16.03.2-.07.18-.22.15.08.05.57-.1.35.08.36.08.4-.07.7.1 0 .17.1 0 .23.02.1.1.13.24.12-.08.1.02.37-.17.35.23 1.35-.3 1.95-.24 3.02-.13.02-.06-.17-.17-.17-.04.14.07.34 0 .64.02.2.16-.2.17 0 0 .07 0 .15 0 .23-.2-.2-.25.56-.1 1zM29.6 12.07c-1-1.53-2.73-2.87-4.6-2.97-1-.47-1.95-.08-2.8.35-2.2 1.1-3.86 3.1-4.6 5.3-.3.02-.28.36-.34.63 2.4.07 3.95-.05 6.05-.06 1.1 0 2.35.22 3.6.12.65-.05 1.27-.1 1.93-.06.12-.03.02-.3.23-.23.32.05 1.1.22 1.57 0 .03-1.34-1.07-2.1-1.04-3.08zm2.72 2.96c0-.18-.02-.32-.1-.4-.15.13.05.27.1.4zM29.42 17c-.12 0-.12-.15-.24-.16-.08.03 0 .22-.1.23-.1-.14-.2-.24-.36-.3-.02.05 0 .12-.06.12-.03.24.33.1.35.28-.06 0-.05.1-.05.18-.3-.02-.58.1-.87 0 .1-.12.18-.37 0-.47-.06.4-.27.42-.47.58-.06 0-.05-.1-.05-.18-.16 0-.13.18-.3.17-.03-.18-.15-.3-.28-.4-.2.2.18.16.12.4-.36-.1-.65.07-1.06-.1 0-.17.18-.14.17-.3-.05-.07-.2-.07-.33-.06-.04.22.27.37 0 .48-.12-.17-.2-.22-.12-.47-.32-.06-.22.3-.4.36 0-.1 0-.2 0-.3-.15-.03-.2-.04-.4-.1-.15.23.2.43-.2.52-.14-.2.17-.25 0-.47-.27.06 0 .4-.22.42-.15 0-.18-.1-.23-.18.1.1.1-.03.3 0 0-.1 0-.2 0-.3-.16.2-.38-.02-.6.13-.04.17.1.17.06.35-.17-.15-.42.08-.46-.12.15-.16 0-.3.3-.17-.06-.26-.17-.1-.36-.24-.02.1-.02.24-.17.23.06-.1.06-.15 0-.24-.3 0-.6 0-.88 0-.08.14.22.18.05.23-.08 0-.15 0-.23 0-.06-.1.17-.2 0-.24-.06.05-.12.1-.18.17 0-.1.07-.13.06-.23-2.17.1-3.43 0-5.4.23.1 1.23-.4 2.52.1 3.43 0 .2-.22-.15-.16.12.57.55 1.5 1.52.7 2.44-.08.2.18.04.1.23-.12.1-.2.53-.46.34-.1.4-.67.4-.98.4-1.03 0-2.25-.76-2.16-1.68-.12 0-.18-.05-.17-.17.05-.5.3-.8.35-1.3 1.2-.57 1.17-2.36 1.16-3.72-.4 0-.75.17-.87-.1-.28.5-1.25.36-1.62.5.06-.1.26-.08.23-.28-.2.06-.15-.15-.34-.12.02.15-.02.25-.17.24 0-.2-.27-.1-.2-.35.32-.04.42.02.6-.18-.26-.16-.55.07-.82-.07-.1.32.18.3.23.47-.1-.02-.1.06-.22.06.1.94-.17 1.7.06 2.15-.28.5-.06.96-.06 1.46 0 2.85-.45 5.8-.4 8.6.02 1.36.15 2.76.3 3.96-.15.5.2 1.24.1 2.04-.12 1.04.26 2.3.06 3.08.56.46.16 1.2.12 1.92 2.33.2 5.02-.18 7.62.18 0-.07 0-.17.05-.18 1.55 0 4.43.05 6 .12.15-.24.72-.18.92 0 .53-.4 1.27.18 1.52-.3.36.42.7.03 1.33.24-.07-.24-.1-.15 0-.35-.2.03-.32-.02-.34-.18.15.17.2.05.4 0 .16.12.02.2.12.34.36-.1.68 0 1.22 0 0-.4-.72 0-.52-.4.14.4.98-.27 1.1.23-.1.1-.42-.04-.4.17.34-.04.58.08.7-.1-.14-.08-.18.02-.24-.2.44 0 .55.14.87-.05 1.34.44 3.73-.35 4.73.3-.07 0-.04.05 0 .1-.26.15-.46.17-.65.3.26.12.5 0 .88 0 .18-2.05-.1-3.95 0-5.6-.02-.13.16-.06.17-.17-.48-.25.04-.66-.3-1.04.28-.24.15-.53.2-.77.2-1.26 0-2.65.04-4 .05-1.92.23-3.77 0-5.3-.4-.04-.34-.82-.05-.76-.1 0-.15-.05-.18-.12 0-1.88.25-3.65.18-5.58.02-.1.12-.15.1-.3-.18-.15-.76-.1-.86-.17.07-.08.2-.24 0-.3-.1.05 0 .34-.12.36-.2-.1-.62-.06-.98.06.1-.2-.38-.05-.53-.06-.08-.1.02-.37-.17-.35.06.17.03.3-.12.36-.37-.27-.9.36-1.34-.1-.1.27-.17.1-.35.16.34 1.14.5 2.34.3 3.55.73.62 1.57 1.82.63 2.62-.64 1.48-3.6.2-3.37-1.53.08-.54.56-1.3 1.17-1.28.02-.47-.12-1.25-.23-1.63-.17-.63-.18-1.52-.7-1.8-.05.1.18.2 0 .22-.23-.12-.44-.26-.7-.35 0 .1-.03.2-.1.23-.05-.18.05-.2.05-.35-.23.17-.48.5-.7.23.14-.02.26-.2.17-.3-.16.28-.4-.13-.35 0 .06.1.06.16 0 .25zm-16.23.42c.15.02.17-.4.1-.4-.04.12-.12.22-.1.4zm-1.76 5c.22-.1.17-.44.06-.58-.1.1-.04.38-.06.58zm3.78.17c.03-.1.27-.5 0-.53.02.16-.16.4 0 .52zm.3.46c.15.1.63.1.58-.18-.17.06-.35-.13-.4-.34-.08.16-.14.33-.18.52zm17.33.23c.24.06.22-.13.4-.12-.15-.17.15-.3 0-.4 0 .38-.48 0-.4.5zm-17.8-.13c-.08 0-.3-.16-.3-.05.07.1.23.3.3.05zm21.17 17.5c.04.1.38.3.4 0-.2.06-.3-.1-.4 0zM27.44 40.33c.15-.14.26.04.46-.06-.08.2-.36.06-.46.06z"/></g><g id="grocery-pharmacy" fill-rule="evenodd" clip-rule="evenodd"><path d="M27.27 15.37c.12.02.1.15.17.23.08-.02.05-.14.06-.23.27.1.7-.1 1-.12.06 0 .04.1.05.18.1 0 .07-.16.23-.12.48.44 1.53.26 2.4.13.08.1-.02.07 0 .23.22 0-.03-.1.1-.17.74.13 1.2.12 1.8-.07.04.04.07.1.06.17.74-.32 2.15.04 2.85-.23-.02.1.05.1.05.17.07-.23.42.08.4-.3.17.18.15.06.36 0 0 .07 0 .13 0 .2.66-.13 1.7-.26 2.5 0 .08-.02.06-.12.07-.2.52.1 1.17-.02 1.74.2.25-.26.42 0 .6-.2.22-.02.36.03.46.13.65-.37.73.35 1.28.52-.17.4.3.65-.12.86.3 1.33-1.03 2.3-.87 3.26-.1.2-.1-.13-.23-.06-.03.13.1.1.1.18-.14.6-.7.78-.74 1.5-.06 0-.12 0-.18 0-.02.56-.07.75-.35 1.17-.1.03-.1-.03-.1-.1-.06.35-.12.53-.2 1-.17.05-.14 0-.28-.07-.14.05.13.17.06.35-.23-.03-.04.38-.35.3-.2.83-.67 1.6-1.1 2.37-.2.6-.24 1.4-.58 1.86-.07-.04-.16-.06-.3-.05-.07.1-.27.25-.05.3-.04.15-.27.12-.3.3-.2-.02.13-.2-.05-.2-.2.15-.27.4-.58.42.04-.18-.06-.2-.06-.35-.1.48-.55.3-1.1.35.03-.06.13-.06.1-.18-.22-.08-.16.13-.17.28-1.23-.15-3.03.07-3.96-.17-.62.3-1.87.07-2.4.3-.37-.22-.82 0-1.32-.17-1.38.3-3.06-.37-4.48-.12-.3-.22-.54-.15-1-.22.04.04.07.1.07.17-.05 0-.04-.07-.05-.1-.52-.07-1.03.15-1.45.1-.16-.02-.6-.28-.76.06-.96-.18-1.36.06-2.1.24-.03.35.2.55 0 .76.2.26.15.75.24 1.1.02.08.1.1.1.18 2.56-.17 5.96.3 8.56.06 2.5.27 5.35.12 7.74.17.74.03 1.18.18 1.74.3-.2.37-.02.72.12 1.05-.15.37-.3.35-.76.3-.63-.1-1.4.02-2.03.05-.76.03-1.54-.08-2.33-.06-1.7.04-3.48-.08-5.17-.06-.1.05-.1.2-.24.23-.22-.04-.46-.1-.63-.22-.25.22-.72.38-1 0-.07.05-.2.05-.16.23-1.12.02-1.6-.47-2.38 0 0-.1-.57-.3-.52 0-.1-.17-.42-.1-.58-.22-.1.07-.26.05-.23.23-.37-.27-.65.07-1.06-.22-.14.2-.56.25-.7 0-.08.05-.18.1-.17.23-.55-.56-1.1-.18-1.86-.28-.28-1.58-.9-3.1-1.2-4.48-.2.08-.2.02-.42 0 .08-.2.28-.26.35-.46-.5-.93-.16-2.2-.76-2.97.12-.6-.18-1.26-.23-1.73-.02-.1-.07.02-.17 0 0-.5-.77-1.37-.53-2.1-.28-.14-.16-.74-.06-1-.22-.24-.38-1.02-.4-1.67.1-.1.2-.2.3-.3-.18-.62-.24-1.8-.7-2.44 0-.06.1-.05.17-.05-.06-.72-.65-1.45-.35-2.15-.06-.16-.16.1-.24-.05.1-.2-.06-.28-.05-.53.06.04.1.07.12 0-.24-.9-.65-2.08-1.86-2.44-.48.53-1.2.8-2.1.93-.22-.15-.42-.22-.7-.06-.04-.22-.3-.24-.5-.3-.44-.6-1.12-.75-1.18-1.62.08 0 .16 0 .23 0 .02-.15-.08-.1 0-.23-.22-.07-.1.2-.34.12-.08-.08-.08-.38 0-.47.17 0-.04.36.12.35.12-.22-.02-.4.06-.7.38-.12.35-.3.46-.7.56.1.5-.26.93-.4.18 0 .23.12.35.18 1.1-.98 3.07.34 3.03 1.57.97.1 1.9.7 2.4 1.45.15.05.14-.08.28-.06.64 1.04.86 2.5 1.17 3.9-.14.22-.35.42-.24.74.24 0 .44 0 .6.06.07-.02.04-.14.05-.23 1.82-.07 3.27.2 4.48 0 .2-.05.08.2.23.17-.07-.28.77-.15.76.06.47-.1 1.02-.23 1.4.06.2.04.07-.24.3-.17-.04.03-.07.08-.07.16.33-.06.64-.17.93.06.05-.04.1-.1.1-.18.22.18.55.08.66-.1.27-.07.07.34.35.28.05-.1-.12-.2.04-.35.15.08.4.08.53.17.2-.17.26 0 .35-.3.08.15.56.2.64 0 .25.18.67.3.8.13zM8.02 10.14c.23-.14.3-.44.46-.64-.38.1-.22.38-.46.64zm22.56 7.1c-.14-.07-.3.1-.46-.12-.2.12-.1.3-.18.46-.1 0-.15-.04-.17-.12 0-.1.15-.04.1-.17-1.12-.15-2.16.13-3.18.16-.64.03-1.25-.04-1.88-.05-1.36 0-2.72.33-4-.3.06 0 .13 0 .1-.1-.2-.03-.14.2-.34.17-.37-.3-.96-.36-1.28-.12-.74-.14-1.92-.1-2.73 0-.34 0-.48-.1-.7.06.24 2.64.54 4.32 1.1 6.4-.05-.02-.2-.12-.17.07 0 .04 0 .08 0 .12.28.04-.03.45.35.57-.3 0-.1.73.06.4-.08.22.17.12.12.3-.02.1-.22.04-.17.23.13.08.22-.15.23 0-.27.44.55 1.16.17 1.68.18.14.13.48.18.53.16.17.56.18.8.18 1.03 0 2.53-.18 3.27.06 1.2-.15 2.4-.16 3.55-.23.53-.03 1.2.1 1.8 0 .1 0 .2-.12.3-.1.6.05 1.12-.02 1.62 0 .04-.22.18-.2.3-.07 0-.27.52-.3.57-.05.05-.1.15-.15.3-.18 0 0 .64.02.58 0 .13.04.14.22.23.23.47.05 1-.32 1.45 0 .16-.05.2-.2.4-.23.43.34 1-.06 1.52.23-.07.1-.07.15 0 .24.54-.08 1.38.1 2.15-.06.4-.34.72-.74 1.16-1.04-.06-.33-.05-.52.24-.7-.13 0-.03-.2-.06-.3.3-.48.26-1.47.82-1.85.06-.37.12-.77.47-.86 0-.67.18-1.26.57-1.28-.1-.33.4-.54.23-1.1.1 0 .18-.02.23-.07.43-1.02 1-1.88 1.34-2.97-.9-.04-1.36.22-1.98 0-2.33.1-5.4.07-8.1.06-.07.06-.02.27-.17.28-.63-.1-.7.06-1.16-.06.08-.26.36-.1.4-.3zM25.18 38.52c.05.18-.1.18-.12.3.1 1.28-.98 2.64-1.92 3.07-.46.64-1.93.42-2.33.5-.08-.1-.26-.1-.28-.28-.05.05-.1.1-.1.18-.08 0-.06-.1-.07-.18-2.03-.45-3.07-1.83-3.03-3.66.13.02.03.3.06.4.03-.5.36-1.28.4-1.74.4-.1.45-.52.6-.87.5 0 .7-.66 1.1-.4.08-.02.02-.18.1-.18.4.3.92-.68 1.35-.06 1.47-.07 2.48.6 3.14 1.23.26.25.28.42.47.76.14.24.6.55.64.92zm-5.24-1.86c-.37.65-1.2 1.34-1.28 2.38-.1 1.34 1.14 2.4 2.15 2.5 1.44.14 3-1.65 2.8-2.8.03.2-.05.27-.23.24.1-.3.07-.8 0-1.1-.18.05-.54 0-.46-.35-.44-.06-1.08-.6-1.62-.4-.03-.25-.46-.2-.76-.3.13-.18.2-.15.06-.35-.22 0-.23.2-.52.12.06.24.03.14-.12.06zM33.2 36.66c.16-.06.4 0 .47.23.1 0 .07-.17.23-.13.04.2.15.32.4.3.04.1.18.1.06.22.97.56 1.14 2 .64 3.02-.17-.07-.3.2-.17.23-.28.25-.6.46-.76.8-.1.04-.1-.03-.1-.1-.1.02-.06.14-.07.23-1.4.95-3.87 1.2-4.94-.12-.57-.13-.94-.92-1.23-1.45.24-.97-.17-1.95.47-2.6 0-.1-.07-.13-.06-.24.16-.02.25-.27.4-.1 0-.1 0-.17 0-.25.14 0 .23.02.3.07.03-.18-.2-.15-.06-.3.12 0 .1.1.12.2.1-.17.43-.12.34-.48.4-.06.42-.04.82-.18.05.04.03.15.1.17.1-.02.07-.13 0-.13.1-.1.36-.17.48-.05.84-.66 2.17-.02 2.56.64zm-.64.8c-.25.03-.22-.18-.35-.28-1.44-1.07-3.8.7-3.2 2.38 0 .08-.1.06-.1.12.13.6.9.7 1.28.87-.16 0-.35-.03-.35.12.3.18.62.12.75.35.02-.1.1-.13.24-.12.73.28 1.54-.26 2.15-.52.1 0 .04.2.17.17 0-.3.1-.17.3-.23.4-.64.65-2.5-.36-2.67.02-.17-.13-.18-.1-.35-.28.02-.16.43-.48.4.02-.08.1-.1.06-.23zm0 3.5c.23 0 .35-.12.35-.35-.3.15-.25 0-.34.36z"/></g><g id="restaurants-pubs" fill-rule="evenodd" clip-rule="evenodd"><path d="M16.75 8.88c.17 0 .1.24.12.4-.23-.06 0-.23-.12-.4zM20.12 37.44c.06 0 .12 0 .18 0 0 .07 0 .15 0 .23-.06-.04-.1-.07-.12 0-.08-.02-.05-.15-.06-.23zM18.38 6.44c.07-.17.07.1 0 .1.2.06.08-.18.23-.16 1 .14 2.73-.3 2.74 1.34.08-.02.05-.15.06-.24.13.3.12.8.18 1.1.07.44 0 1.13 0 1.8 0 .33.17.74.17 1.12 0 .43-.14.8-.06 1.16.22 1 .25 3.17.34 4.3 0 .06.12.04.12.06.2 2.06.37 4.12.46 5.94-.45.63-.9 1.4-1.62 1.45.16 2.68.14 4.88.23 7.28.23 1.3.65 3.12.52 4.65.2.98.08 1.8.23 2.56.03.14.03.45-.1.28-.08.75.26 1.6.1 2.27-.02.1-.16.15-.17.23 0 .22.14.67.18.93.04.2.04.42 0 .48-.02.03-.07-.1-.05-.12-.74.3-1.67 1-2.8.47-.32.32-.62.02-.98-.18.1-.14-.06-.2.1-.3-.3-.02-.68.02-.74-.34-.1.48-.3-.3-.46-.34.14-.1.18-.3.12-.46-.06-.17-.22-.02-.24-.12-.04-.2.12-.1.18-.06-.16-.32-.07-.5-.06-.87-.1-.14-.33-.17-.3-.46.23-.02.03.03.07.16.1 0 .16 0 .24 0-.15-.2.04-.4-.3-.46-.05-.1.18-.2 0-.24.03-.13.33 0 .3-.17-.08-.03-.23-.07-.17-.36.17.05 0 .2.1.23.2-.37-.2-1.23.13-1.57-.02-.12-.16.1-.23-.06-.04-.3.02-.48.17-.58 0-.1-.1-.15 0-.17 0-.22-.2.1-.17-.07-.1-.25.22-.2.3-.12-.1-.64-.07-1.05.1-1.38-.23-1.28-.17-1.4-.23-2.8.05.02.06.06.12.06-.1-1.1-.04-2.65.06-3.72-.17-.4-.12-1.7.1-1.86-.24-.24.05-.36-.22-.52.13-1.54.03-2.53.17-3.96 0-.07-.1-.05-.17-.06-.05-.56.32-1.44-.06-1.62-.02-.24.12-.03.23-.06.05-.18-.16-.1-.1-.3-.06.03-.12.06-.13.12.25-.95-.18-2.3.12-3.5-.25-.2-.17-.8.06-1.15 0-.14-.16.02-.12.12-.17-.1-.05-.13-.12-.35.13-.03.1.1.18.1 0-.14-.02-.24-.18-.22.18-.4-.15-.77 0-1.4.05-.2-.2-.37-.23-.58-.07-.56.16-1.13.23-1.92 0-.2-.27-.15-.17-.46.3.2 0-.12.24-.12.1-.18-.36-.2-.06-.23 0-.08-.1-.06-.17-.07-.06-.15.2-.25-.05-.23.26-.32.23-.7.06-1.05.2.22.05 0 .07-.23.06 0 .1 0 .17 0 .06-.52.07-.73.35-1.05-.08-.08-.08-.23-.18-.3 0-.07.23.04.05-.1.04-.17.1.08.18.05.07-.63.63-1.1.93-1.68zm.46 1.68c0 .2.17-.14.18.06-.08.08-.22.08-.3 0-.03.3-.53.65-.17 1-.4.9-.23 2.83-.35 3.77.02-.04 0-.1.06-.1.03.83.08 1.67.18 2.95-.34.2-.1.96-.4 1.17.27.17.1.47-.07.35.56.56-.17 1.55.4 2.03-.08 0-.2-.02-.23.06.08.2.1.45.24.6-.3.53.04 1.52-.12 2.1.33 2.7.06 5.65.12 8 0 .52-.12 1.4-.12 1.4.04.6.48.83.23 1.34 0-.1 0-.2-.12-.17 0 1.23.1 2.57.1 3.6 0 .25-.03.55-.16.76.2-.03.1.2 0 .06-.1.2.2.02.17.16-.12.7 0 1.3 0 1.92 0 .4 0 1.4-.07 1.7-.03.1.02.02.06.22.05.26-.1.53 0 .76.73.27 2.17.32 2.14-.58 0-.12-.14-.24-.17-.35-.16-.6.1-.97 0-1.4.07.18 0 .13 0 .35.36-.16-.03-.5-.12-.7-.03-.47-.04-.96-.23-1.45.12 0 .08.16.23.12.1-.2-.05-.72-.23-.53.04-.98-.1-1.2-.06-2.5-.32-.08-.03-.5.06-.1.06-.26-.2-.5.12-.36-.15-.2-.3-.37-.35-.64.22.12-.14-.18.16-.24-.28-.08.07-.44-.05-.58 0 .06-.1.14-.1.06.1-.2 0-.63.22-.35.04-.26-.22-.23-.35-.34.2-.62-.16-1.4.12-1.8-.22-.4.1-.85 0-1.16-.02.06-.07.1-.13.1.23-.38-.1-.75.06-1.1-.4-.64.07-1.76-.17-2.67 0 .1.02.22-.06.23 0-.15.02-.33-.06-.4.04-.1.5-.3.23-.35-.14 0 .04.27-.17.18-.1-.32-.06-.67 0-.87-.1-.15-.17 0-.23-.22.36.1.32-.47.64-.23.1-.55.94-.44 1-.7.1 0 .1.15.23.17 0-.6-.4-1-.18-1.4-.08 0-.2.03-.23-.05.22-.6-.4-1.5-.12-2.33-.18.05-.08-.2-.17-.23.07-.02.13-.05.17-.1-.34-.05-.13-.65-.3-.88.1-.13.16.07.2-.06-.1-.1-.1-.3-.25-.35.3-.53-.2-1.1.06-1.62-.2-.23-.1-.6-.28-.98.22.07.3-.27.18-.35-.03.07-.07.13-.12.17-.04-.26 0-.35-.12-.58.1 0 .13.06.24.06 0-1.1-.43-2.88 0-3.96-.3-.07-.08.4-.24.47 0-.18-.1-.28-.05-.52.27-.02-.08-.8.3-.93-.15-.07-.2.23-.24.06.12-.13-.08-.23.06-.34.1 0 .03.16.12.18.17-.2-.2-.2-.3-.3.1-.22.15-.56.06-.98.17-.06.15-.1.24-.12-.1-.07-.26-.05-.23-.23.2-.23.16-.67.12-.86-.14-.1-.47-.04-.7-.06 0 .1.06.3-.1.23-.08-.14.17-.24-.07-.22.1.32-.17.74-.4 1.04zm-.8 4.95c0-.16.2-.45 0-.64.05.24-.2.47 0 .64zm-1.17.58c.08 0 .12.03.17.06.04-.17.15-.5-.12-.57.02.2 0 .38-.05.52zM28.6 15.5c-.1.16-.26-.22-.28.13-.23-.33-.33-.83-.1-1.17-.26.06-.23-.6-.2-.8.1 0 .1.1.2.1-.16-.36-.18-.72-.36-.93.3-.38-.1-.87-.12-1.16.06 0 .12 0 .18 0-.04-.2-.07-.36.05-.52-.05-.16-.12.17-.23 0 .23-.27-.1-.83.12-1.1-.02-.2-.16.2-.18 0 .02-.18.23-.17.24-.36-.14-.55-.22-1.25-.18-1.75.1.07.08.23.23.23.04-.23-.13-.26-.3-.3 0-.42.14-.47.13-.98.07-.05.15-.08.3-.06-.06-.38.17-.48.5-.46-.1.4.15.72.2 1.1.05.63-.32 1.3 0 1.8-.03.14-.07.3-.2.18.28.97.26 2.08.07 2.73.1.08.05.3.23.3.05.16-.1.16-.05.34-.1 0-.2 0-.3 0-.03.36.6.86.12 1.1.24.15-.23 1.1-.06 1.57zM30.48 21.27c0-.1.2.07.34 0 0-.17-.14-.17-.3-.18.03-.33.17-.22-.04-.4-.03-.14.08-.12.17-.13-.26-.88.17-1.45-.12-2.2.18-.1.3-.26.18-.47 1.24-.8 1.1-2.36 1.17-3.55-.12-.64-.17-2.15-.1-2.62.03-.15-.13-.1-.2-.17.07-.06.03-.22.2-.18-.06-1.1.18-2.46 0-3.14.08-.52-.04-.9.05-1.63.14-.1.27.07.34-.16.16.26.2 0 .4.12-.04.3 0 1 .3 1.4-.08.06-.1 0-.17 0 .47 1.42.1 2.9.28 4.3-.05-.04-.1-.07-.12 0 .04.13.1.24.3.23-.16.34-.37 1.3 0 1.62-.23.74.1 1.23-.07 1.8-.02.15.22.05.17.23-.18-.07-.2 0-.35.06 0 .2.14.35-.18.3.13 0 .2.35.24.23-.08.16-.07.4-.35.64.1.06.15.17.1.35-.9.33-.7 1.33-.63 2.2-.25.64.04 1.48-.35 2.1.16 1.47 0 3.18.24 4.72-.12.04-.05.17-.2.06.04 1.62.4 3.87.53 5.7-.14 0-.18-.1-.23.05.04.22.18-.02.3.12.1.82.3 1.8.22 2.85.3.67-.02 1.6.24 2.56-.28.46.28 1.45 0 1.92 0 .06.1.04.1.1.1 1.07-.35 1.95-.92 2.58-.7-.07-.92.12-1.4.4-.14-.1-.3-.14-.4.06-.07 0-.05-.1-.06-.17-.33-.07-.3.3-.35.23-.13.12-.13-.03-.06-.12-.73.2-.94-.2-1.4-.17-.08-.04-.12-.14-.1-.28-.1-.02-.12.04-.13.1-.13-.14-.1-.48-.17-.68-.06 0-.05.07-.06.1-.47-.43-.38-1.26-.5-1.9-.24.4.06-.32-.3-.3.15-.96-.2-2.24-.12-3.2.28-.02.14-.48-.06-.7.27-.23 0-.66.12-1.04-.18 0-.14-.1-.23-.3.03-.08.08.03.18 0-.2-.78.02-1.05.12-1.97-.24.04-.02.53-.3.52.08-.3.13-.46-.05-.8.05-.06.3-.05.35-.24-.12-.12-.2 0-.24.12-.06-.28.18-.8-.1-1.22.03-.1.1 0 .16 0 .16-.16-.15-.14-.1-.35.1-.05.08-.26.22-.1-.05-.26-.2-.4-.23-.65.3.2.05-.47.18-.6 0-.12-.16.03-.1.13-.14-.02-.1-.44.04-.23-.12-.38-.03-.6-.1-1.1.12-.02.05.16.16.17.06-.1-.18-.36-.1-.64.14.1.1-.26.16-.06.1-.03-.1-.25-.17-.3.28-.15.4-.5.64-.7-.05-.24-.08-.53-.17-.74.24.06.06-.32.06-.53 0-.4.17-.88.05-1.28.35.06-.13-.72.23-.8.02-.23-.23-.16-.17-.42 0 0 .12.07.12.06.1-.82-.28-1.8 0-2.56-.3-.16-.27-.3-.3-.7-.2.23-.3-.47-.16-.75-.34-.4-.87-1.04-1.22-1.05-.15-.46-.13-.62-.3-.87.03-.1.08.02.18 0 0-.17-.02-.3-.12-.35-.08.02-.04.14-.05.23-.28-.22.07-.3.17-.4 0-.35-.2-.57-.06-.93-.14-.02.03.27-.17.18-.08-1 .15-2.1-.24-2.8.44-.3-.06-1.15.17-1.4-.56-.6-.2-1.58 0-2.43-.04-.06-.1-.1-.17-.12.12-.87-.12-1.22.17-1.74-.08-.1-.15-.2-.3-.24.03-.12.17-.1.18-.23.1 0 .06.14.07.22.15-.12.03-.24.12-.35.2.03.27.1.45 0 0 .18.07.28.12.4.1 0 .15-.03.17-.1.1.1.16.27.24.4-.22.05-.2.88 0 1.05.02.18-.16.15-.18.3.37.88.33 1.15.35 2.32-.12.02-.1-.1-.12-.18-.08.05-.08.2-.1.3 0 .1.14-.1.22.05-.1.1-.05.3-.06.47-.3-.08-.38.3-.12.3-.05.05-.1.08-.18.1.06.23.15.2.3.24-.06.64.1 1.2-.12 1.58 0 .03.25.06 0 .12.18.1.16.72 0 .8.2.32.17 1.36.3 1.7.22.7 1.14 1.1 1.2 2.04.05.13.18.17.3.23 0 .14-.1.18 0 .3.05-.04.1-.06.12-.13.1.17-.06.14.17.18-.22.14.23.56-.06.75.03.08.16.05.24.06 0 .46-.04.74-.23 1.1.02.1.2.04.24.12 0 .13-.04.2-.17.18 0 .15.08.22.23.23-.02 1.2.03 2.4-.06 3.3-.08.83.02 1.62 0 2.5 0 .6-.13 1.77-.23 2.17-.17 2.3-.2 5.66-.28 7.67.02.08.1 0 .12-.05-.1 1-.16 2.67.23 3.9.15-.07.26-.23.23.1.2-.14.02-.38.35-.46 0 .13 0 .26 0 .4.58.44 1.02 1.07 1.86.8.02-.1-.06-.1-.05-.22.5-.32.68-1.1.52-1.5.02-.1.15-.06.24-.07-.08-.03-.08-.18-.23-.17.03-.93 0-2-.05-2.96.05-.2.13 0 .23-.12-.1-.45-.38-1.12-.18-1.74-.2-.43-.28-1.33-.17-1.85-.05-.17-.1-.07-.23-.06.26-1.32-.47-3-.23-5.07-.48-.18-.08-1.24-.3-1.7.15.16.2-.08.18-.28-.14-.02.03.27-.18.17-.06-.17-.13-.33-.1-.58.34-.18.04-.68.22-1-.06.02-.05.1-.06.13-.15-.38-.07-.93 0-1.5-.1-.06-.1-.2-.23-.2.06-.23.02-.17 0-.45.15 0 .14.22.06.3.4-.2-.15-.72.1-1.06-.03-.12-.2-.14-.28-.23.05-.2.18.03.3-.1-.02-.1-.15-.06-.24-.07.03-.07.2-.3.08-.3zm-3.26 6.34c-.04-.13.07-.42-.06-.46 0 .18-.14.36.06.47zm3.6-1.74c-.1.02-.12-.06-.23-.05 0 .08 0 .16 0 .24.14.02.24-.02.22-.18zm1.23-6.5c-.03-.26-.03-.53-.12-.7.04.2-.2.6.12.7zM18.2 17.43c.03-.1.1.05.12-.06.13.03.02.3.06.4-.13-.04-.05-.3-.18-.34zM16.8 36.1c.02.18.15.4.18.7-.05-.05-.13-.06-.23-.06.18-.38-.17-.27.06-.64zM30.65 6.9c.06-.04.06-.13.17-.1-.12.9.17 1.74-.1 2.55.14.27.16.82-.07.93.06.1.3.7-.06.7.27.3.22.84.05 1.33.02.13.15.13.23.2-.1.43.07.88.06 1.32 0 .86-.58 1.9-1.28 1.4.12-.17.32-.65 0-.76 0-.1.36-.2.06-.23.3-.15.1-.44.23-.75-.03-.13-.1.07-.17-.06.32-.3-.03-.58.17-.87-.02-.1-.07.02-.17 0 .38-.33.1-.78 0-1.17.13-.17.23-.95 0-1.1.35-1.28-.2-2.36.06-3.55.45.15.55-.08.8-.06.1.12 0 .08 0 .23z"/></g><g id="transportation" fill-rule="evenodd" clip-rule="evenodd"><path d="M29.8 10.3c-.03.04-.06.08-.06.16.8-.26 1.94.35 1.63 1.34-1.13.27-2.5.16-3.55-.06-1.54.08-3.95.23-5.93.12-.7.54-1.85.1-2.57.4-.32-.1-1.26.15-1.28-.4-.06.04-.06.14-.17.12-.04-.16-.06-.33-.3-.3-.52-1.2 1.37-1.44 2.16-1.04 0-.13.55-.25.46.06.13-.17.4-.2.7-.18.05.05.06.13.06.23.08-.05.18-.08.17-.23.44.2.9-.08 1.28-.1.42-.05.96.14 1.4.04.2-.03.34-.2.47-.23.27-.04.8 0 .93.12.2-.15.38-.07.64 0 .14-.03-.07-.1.06-.18 1.55-.1 2.7.35 3.9.12zM33.58 29.48c.05 0 .06.02.06.06 1.37-.2 3.6.3 3.43 2.44-.07.83-.67 1.83-1.4 2.1-.55.2-1.7.2-2.26.06-1.08-.3-2.1-2.1-1.45-3.2.14-.02.23 0 .3.05.2-.3.25-1.02.63-.94.1-.07.1-.22.18-.3.2-.05.5-.02.52-.28zm.12 3.9c2.15.6 2.94-2.43 1.33-2.85-.76-.2-1.4.47-1.9.75-.24.68-.05 1.77.57 2.1zM17.65 32.27c-.28.74-.28 1.53-1 2.04-.28-.07-.72.25-1.2.24-1.3 0-2.96-1.15-2.57-2.85.12-.57.63-1.48 1.22-1.64.2-.05.58-.08.8-.06.14.02.1.14.25.18.1.02.2-.1.3-.06.27.12.42.47.7.64.12.1.32.05.45.12.5.27.8.8 1.05 1.4zm-3.84.76c.08.28.46.68.65.76 1.53.6 2.97-1.72 1.57-2.63-1.3-.3-2.56.45-2.2 1.86zM10.43 16.05c0-.07.06-.04.06 0 .3-.04-.1-.16 0-.35.3-.82.3-1.62.7-2.2.18-1.5.92-2.4 1.62-3.5.93-.6 1.73-1.83 3.02-2.27.12-.02.02-.26.12-.3.13-.02.08.12.17.12.72-.18 1.36-.2 1.98-.17 1.23.03 2.3-.24 3.32-.17 0-.13 0-.27 0-.4 1 .17 1.88-.08 2.8-.12.77-.03 1.5.27 2.15.3.56 0 1.1-.06 1.57-.07.35 0 .7.07 1 .07.14 0 .25-.13.4-.1.13 0 .26.15.4.16.1 0 .28-.08.47-.06.35.04.74.2 1 .06.18-.05.08.2.17.23.56-.16 1.03-.28 1.4.06.06 0 .04-.1.05-.17.15.03.2.14.3.23.1-.2.6-.06.63.17.07 0 .04-.1.12-.1.35.17.86.07 1.05.5.54-.02 1.1.4 1.45.77 1.3.2 1.06 1.3 1.34 2.38.14.5.53 1.06.82 1.5-.05.4.17.86.35 1.3.05.22-.14.2-.17.34.62.84 1 2 .64 3.14.05.16.13-.17.23 0 0 .16.03.35-.12.35.1.16.37.38.18.64.07 0 .1 0 .1-.05.2.07-.23.22.07.3-.05.18-.1-.08-.17-.07-.15.13-.08.3 0 .46.16.02-.07-.37.17-.28-.12 1.76.35 3.87.35 5.53-.08-.02-.05-.15-.06-.23-.27.08.03.3.1.4-.05.2.04.54-.16.58-.02.16.08.2.23.18-.36.88-.1 1.87-.47 2.67.17-.1.2-.34.18-.64.36.3-.17.77.23.88-.22.32.02 1.03-.4 1.05.18.08 0 .52.3.47 0 .76.05.95 0 1.63-.08-.03-.1-.1-.18-.12-.07.25.1.26.1.42-.07 0-.15 0-.16.05.32 0-.1.26.23.47-.23.5-.24 1.1-.12 1.7-.1 0-.1-.07-.18-.07-.1.95.38 2.7-.3 3.66.18.3-.07.64-.22.82.15.96-.4 1.45-1.22 1.5-.46.04-.7-.1-1.1 0 0 .83-.46 1.86-.12 2.74-.08.33-.22.48-.47.75-.8-.22-1.7.47-2.38 0-.13 0-.1.16-.25.1-.23-.22-.56-.35-.64-.74-.12 0-.16.1-.34.07.07-.3-.62-.73-.1-1.05-.37-.48-.06-1.62-.24-2.27-.28.15-.73.3-.88-.12.02.5-.75 0-.87.24-.1 0-.03-.2-.12-.24-.14.13-.33.2-.58.24-.04-.06-.06-.13-.06-.24-.07.16-.44.25-.63.12-.5 0-1.33.2-1.97.06-.07 0-.2-.16-.24-.17-.06 0-.15.16-.23.18-.38.1-.96-.17-1.34-.17-2.5.05-5.8.2-8.1.18-.37 1.07.32 2.05-.05 3.32-.5-.13-.5.12-.93.18.03-.05.06-.1.06-.18-.17.37-.8.3-1.1.53 0-.06.07-.05.1-.06-.66-.13-1.18-.2-1.62-.48-1-.67-.5-2.05-.87-3.3-.6.1-1.18-.02-1.8 0 .3.33-.6.02-.54.4-.7-.13-.1-1.54-.64-1.8 0-.95-.34-2.17-.3-2.86.3 0 .2-.86.13-.93.12-1.58.2-3.03.17-4.94.12-.1.08 0 .24 0-.16-.47-.02-1.24-.3-1.58.03-.13.13-.2.18-.3-.06-.14-.04-.38-.17-.46.3-.54-.26-1.45.23-2.03-.17-.1.02-.23-.18-.24.14-.9-.22-1.6-.05-2.62.56-.53 0-1.84.23-2.85.05-.2.1-.76.23-1.1-.26-.53.13-1.44 0-1.98zM38.7 30.47c0-.1-.16-.03-.18-.12.4-1.5-.08-4.2.12-6.04-.3-.36-.12-.82-.12-1.27 0-1.92-.5-4.03-.52-6-.34-.33-.12-.98-.4-1.27.07 0 .12.02.17.06.12-.76-.3-1.62-.12-2.33-.25.03-.32-.1-.4-.24-.1-.34-.3-.6-.3-1.05-.8-1.45-1.14-2.84-2.8-3.2-1.03-.2-2.38-.23-3.48-.22-1.33 0-2.7-.1-3.72 0 0-.07.1-.13 0-.17-.02.08-.07.12-.17.12 0-.07.1-.13 0-.17-.06.2-.14.06-.18-.06-2.17-.08-4.36-.07-6 .1-2.46.26-5.17.6-6.44 1.98.17.02.2-.23.3 0-.57.73-1.2 1.1-1.47 2.15-.16.6-.44 1.2-.4 1.92-.82 2.08-.4 5.34-.65 7.86-.05.5-.3.94-.12 1.4-.25.3.12.78-.23 1.1.18 1.32-.25 2.48-.18 3.6 0 .15.12.28.12.42 0 .26-.16.55-.18.87-.04 1 .06 1.97.06 2.55 0 .4-.1.78-.1 1.16-.03 1.37.1 3.02.04 4.08.12.08.13.26.18.4.26.04.53.06.7.2.38-.06.65-.46 1.04-.07.07-.05.02-.2.18-.17 1.2 0 1.98.16 3.02.12.35 0 1.2-.27 1.5 0 .02-.07 0-.17.07-.18 1 .03 2.46-.15 3.67-.1-.02.07-.1.1-.12.16.18 0 .3-.18.52-.17.1 0 .3.13.35.1 0 .02.03-.15.06-.16.4-.16 1.07-.15 1.5-.06.03-.04 0-.1.07-.1.5.28 1.37-.1 1.86 0 0 .06 0 .14 0 .22.23.1.02-.25.18-.23.46.1 1.27 0 1.62.3 0-.08 0-.18.06-.2.1.25.4 0 .58.2.63-.32 1.5.1 2.1-.07.03.12.27 0 .1.17.8-.16 1.17-.13 2.05-.06 0 .07 0 .17.06.18.1-.15-.06-.2.07-.3 1.94 0 3.34.2 5.35.18.5-1.1.55-2.5.46-3.95-.02-.14.17-.07.18-.18-.38-.4-.2-1.5.1-1.86-.45-.5-.24-.73-.16-1.57zM15.03 9.17c.22-.02.42-.2.7-.28.45-.12 1.27-.02 1.16-.4-.6.25-1.6.1-1.87.68zm-3.55 9.84c0-.14.03-.33-.12-.34.04.13-.1.4.12.35zm-.23 1.47c-.18-.48.55-1 0-1.4-.07.34-.26 1.1 0 1.4zm28.73 9.94c-.06-.2.15-.35-.06-.4 0 .2-.25.4.06.4zm-.06.6c-.04-.23.07-.28.06-.47-.07 0-.08-.08-.17-.06.14.16-.13.44.12.52zM13.98 15c.12-.04.23-.18.35-.06.13-.02 0-.3.12-.35 1.96-.74 4.33.02 6.34-.6.06.04.1.08.1.18.33-.18.75-.27 1.1-.23.3.04.14 0 .47 0 .08 0 .2.12.24.12.16 0 .3-.16.47-.18.36-.04.7.1 1.05 0 .23-.07.45 0 .8-.12.22-.1.05.2.2.17.33-.06.56-.26.8 0 .83-.1 1.5-.28 2.1-.06.08-.03-.03-.08 0-.18 1.66.43 4-.56 5.58.23.17.05.17-.1.35-.06.06.18.35.14.46.28.1-.05.05-.26.2-.3.57.3.82.88 1.27 1.3-.05.05-.1.08-.18.1.13.1.35.1.46.24.2 1.07.2 2 .35 3.2.06.45.18.82.3 1.22-.12.04.03.35-.18.3.2 1.3 0 2.47.06 3.37 0 .28-.08-.06-.23 0 0 .13.05.2.17.18-.15.58-.93.54-1.28.93-4.28.24-7.33.42-11 .48-.47-.1-1.23 0-1.62.1-.12.04-.1-.07-.1-.16-.26 0-.25.27-.48.3-.1-.05 0-.12 0-.2-.7.42-1.72.2-2.85.42 0-.08 0-.15 0-.23-.07.02-.06.1-.06.18-1.57-.15-3.66.08-4.95-.64.02-.12-.05-.15-.07-.23-1.46-.7-.63-3.15-.93-4.8.05-.02.06 0 .06.04.22-1.5-.15-3.26.52-4.94zm21.17 3.5c0-.27 0-.57 0-.82-.03-.8-.27-.98-.46-1.46-.16-.35-.15-.72-.36-.93-1-.42-2.35 0-3.32-.12-1.87-.22-4.12.02-5.93.17-1.65-.22-3.12.2-4.6-.06-.83.22-1.95.13-2.62.52-.23-.16-.48-.04-.58-.24-.4.4-1.38.22-1.98.4 0 .1 0 .2-.12.2-.1 2.56-.03 4.38-.35 6.1.37.02.2.6.3 1.04.35.2.74.43 1.22.52.75.14 1.64-.3 2.15.06.12-.34.77-.2 1.34-.35.1.06.1.2.23.23.08-.24.44-.18.45.06 0-.15.1-.22.23-.23 1.67.4 4.08-.3 5.94.07 1.22.24 2.64-.18 3.66-.06.06-.07.16-.1.23-.17.92.22 2.3.17 3.5.18.12-.1.27-.2.53-.17.22-.2.35-.54.64-.7.07-.96-.07-2.53 0-3.2-.1-.12-.15.08-.18-.05.1-.4.05-.57.05-1zm-20.82 5.7c.2 0 .33-.26.12-.3.04.18-.16.1-.12.3zm.4 0c-.04.17.17.1.12.28.27-.06.4.08.47-.17-.3.1-.33-.32-.58-.1zm11.46.28c-.13-.3-.53-.2-.64-.06.3.1.4-.12.64.06zm.05-.18c.14.36.35-.02.64.12-.08-.2-.5-.14-.65-.12zm-6.22 1c.2 0 .47-.05.58.05-.04-.23-.56-.44-.57-.05z"/></g><g id="parks"><path fill-rule="evenodd" d="M33.38 18.2c-.18.05.07.14 0 .3-.4-.15-1.24-.5-1.63-.07.53 1.05.9 2.22 1.5 3.3.07.94.8 1.48 1.17 2.16.2.4.3.76.47 1.1.38.74 1.26 1.4 1.5 2.38-.48.74-1.53.17-2.5.24-.26.28-.63.4-1 .35.02.06 0 .1-.05.1 1.17 2.72 2.6 5.18 3.84 7.8-.06.06-.07.14-.07.24.58.1.22 1.27.87 1.52 0 .2-.14.28-.1.52-2.33.12-5.47-.17-7.75.12 0-.1 0-.2 0-.3-.12 0-.02.25-.05.36-.14 0-.28 0-.4 0-.07.03-.07.13-.2.1-.06 1.92-.06 4.44-.04 6.18.02.2-.24.15-.18.4-.4.1-.84.13-1.16.18-.08-.04-.1-.13-.12-.23-.85.3-1.57-.15-2.27 0-.54-.12-.9.12-1.45.17-.07-.1-.15-.2-.23-.3-.07.02-.05.12-.06.2-.26.02-.07-.38-.36-.3-.16.04.13.27-.12.3-.23.08-.02-.27-.17-.25-.23.08 0 .24-.12.4-.2-.05-.38-.1-.58-.16-.08-.28.04-.62-.17-.87.03-2.28 0-3.97.1-6.34-.16-.16-.42-.25-.57-.07-3.02.02-5 .32-8.25.06-.2-.03-.17.17-.3.23-.15-.06-.3-.13-.46-.18.12-.28.12-.47 0-.75.2-.04.34-.36.52-.24-.04-.3-.22-.44-.4-.58.42-.52 1.05-.84 1.1-1.74.14 0 0 .2 0 .23.35-.4.44-1.1 1.1-1.4-.02-.5.48-.5.4-1.04.2.35.2-.25.36-.47.18-.26.62-.36.46-.64.24-.02.04.2.06.3.18-.37.2-.64.35-.94.08.02.02.18.12.18.1-.34.26-.63.34-1 .07 0 .13 0 .2 0 .2-.92.8-1.48 1.04-2.38.05-.04.13-.06.23-.06-.02-.23-.38-.12-.47-.3-.4.35-.82.33-1.4.3 0-.05 0-.1 0-.17-.38.34-.84.26-1.5.3-.1-.1-.18-.2-.24-.3-.3.25-.9.27-.87-.35.08-.12.33-.1.4-.23.04-.26-.12.04-.12-.12.62-1 1.35-1.9 2.27-2.62.28-.57.8-.9 1-1.57.9-.74 1.44-2.3 2.32-3.02 0-.08 0-.16-.06-.17.37-.13.5-.78.76-1.17-.68-.24-1.53.28-2.15.12-.22.14-.64.33-.8.06-.3.15-.75.14-.82-.23.08-.06.22-.06.3-.12.04-.2-.1-.18-.12-.3.2-.6.5-1.12 1-1.45 0-.34.3-.4.4-.7.22.02.16-.25.4-.23.5-1.1 1.25-1.93 2.04-2.73.2-.46.35-.88.7-1-.1-.23.25-.45.46-.57.25-1 1.23-1.25 1.4-2.32.4-.2.4-.23.87-.47.1-.67.7-1.04 1.04-1.5.14-.2.27-.66.4-.83.05-.04.15.04.13.06.38-.4.9-.83 1.5-.88 0 .08 0 .16 0 .23-.05 0-.03-.1-.1-.1.18.58.4 1.12.87 1.27-.13.34.22.58.3.75.08.2-.1.28.05.4.3.28.37.84.58 1.35.33.8.98 1.53 1.33 2.5.4.4.8.9 1.05 1.5.1.23.3.25.47.47.08.1.08.33.17.46.28.4.78.7.76 1.1.85.93 1.34 2.23 2.2 3.14-.1.18-.48.3-.8.18-.1.18-.26.3-.36.47-.05-.2-.32-.15-.34-.36zm-17.4 16.63c-.62.2-.58 1.08-1.04 1.45 1.73-.1 3.35-.02 4.6-.1 1.1.2 2.42.26 3.48-.07.02.1-.08.16 0 .18.17.06.17-.3.47-.3.44 1.56-.04 4.26.28 6.06-.23.38-.25.96-.18 1.57.94.4 2-.15 2.85.24 0-.06 0-.16.06-.17.06.32.63.12.94.17-.3-1.8-.4-5.1-.35-6.8.13-.02.06.17.17.17-.03-.38.14-.66-.06-.8.33.12.18-.22.3-.3.18-.06.13 0 .35 0 .1.13.1.38.23.47.06-.32.12.14.3.06.05-.1-.18-.2 0-.23.38.22.53 0 .8.23 0-.1.05-.15.12-.17.17 0 .08.27.3.23 1.52-.22 3.14.05 5.46-.3-.35-.6-.23-1.37-.64-1.8-.06.1.17.2 0 .23-.3-.54-.54-1.06-.64-1.57 0 .13-.15.12-.3.1-.18-.3-.1-.5-.28-.74 0 .07 0 .16-.06.17-.14-.72-.87-1.17-.7-1.7-.3-.18-.8-.82-.93-1.16-.3-.77-.93-1.3-1.03-2.1-.32-.18-.54-.95-.7-1.33.07 0 .05-.1.1-.1.1 0 .07.1.13.1.1-.48.66-.22.87-.22.32 0 .8-.2 1.28-.18.52.02.97.25 1.16 0 0-.1.03-.18.07-.23-1.24-1.76-2.08-4.03-3.14-5.8-.1-.48-.4-.9-.64-1.06.12-.1.1-.26 0-.4 0 .1 0 .2-.12.18.02-.35-.2-.14-.12-.64.2-.03.33-.13.4-.3-.22-.06-.38-.2-.63-.23.65-.67 1.9-.12 3.02-.4-.17-.23-.3-.5-.4-.8-.12-.05-.22-.1-.36-.12-.7-1.5-1.3-3.1-2.28-4.3-.04-.07-.07-.16-.05-.3-.44-.16-.4-.82-.88-.93.06-.33-.35-.65-.47-1-.02.1.1.16 0 .2-.4-.85-.97-1.52-1.46-2.28-.28.26-.73.6-.7 1-.55.24-.94.88-1.33 1.27-.32.3-.52.9-.87.93.04.18-.06.2-.06.35-1.45 1.66-2.77 3.46-4 5.35.83 0 1.54 0 2.73.06.15.2.36.32.64.23.2.42-.13 1.02-.35 1.4-.22.37-.53.87-.76 1.16-.4.52-1 .75-1.22 1.4-.1.26-.6.48-.52.87-.43.2-.35.67-.64.92-.02-.05 0-.12-.06-.12-.06.18-.25.18-.12.4-.48.34-.63 1.16-.87 1.4-.13.5-.45.48-.52.93-.1-.03-.3-.03-.4 0-.1.1 0 .15 0 .3-.08-.08-.17-.04-.23.05.73.23 2.1.1 2.85.12.3.15.54.35 1 .35-.23.32.33.3.34.58-.3.16-.48.4-.82.52-.8 1.94-1.68 3.83-3.14 5.12-.04.4-.4.95-.64.8.03.48-.28.82-.4.95.16.3-.38.4-.18.8zm-1.04-8.72c.08 0 .15 0 .23 0 .03-.18-.07-.23-.17-.3.02.15-.1.14-.06.3z" clip-rule="evenodd"/><path fill="none" d="M25.93 24.5h1v1h-1z"/></g></g></svg>