<?xml version="1.0" encoding="utf-8"?>
<!-- Generator: Adobe Illustrator 15.0.2, SVG Export Plug-In . SVG Version: 6.00 Build 0)  -->
<!DOCTYPE svg PUBLIC "-//W3C//DTD SVG 1.1//EN" "http://www.w3.org/Graphics/SVG/1.1/DTD/svg11.dtd">
<svg version="1.1" id="Layer_1" xmlns="http://www.w3.org/2000/svg" xmlns:xlink="http://www.w3.org/1999/xlink" x="0px" y="0px"
	 width="47.124px" height="56.646px" viewBox="19.603 14.841 47.124 56.646" enable-background="new 19.603 14.841 47.124 56.646"
	 xml:space="preserve">
<path d="M65.82,27.554h-9.392c-2.58-7.572-7.559-12.713-13.265-12.713S32.482,19.984,29.9,27.556H20.51
	c-0.501,0.001-0.906,0.409-0.906,0.91v42.115c0,0.5,0.408,0.906,0.908,0.906h45.31c0.5,0,0.906-0.406,0.906-0.906V28.463
	c0.002-0.5-0.402-0.908-0.902-0.91c-0.001,0-0.003,0-0.004,0L65.82,27.554z M43.165,16.657c4.811,0,9.032,4.368,11.377,10.897H31.79
	C34.134,21.024,38.356,16.657,43.165,16.657L43.165,16.657z M64.91,69.672H21.42V29.37h7.925c-0.622,2.267-1.023,4.588-1.2,6.93
	c-1.16,0.344-1.957,1.408-1.96,2.617c0.001,1.516,1.229,2.744,2.745,2.742c1.515,0,2.741-1.228,2.742-2.742
	c0-1.117-0.68-2.122-1.716-2.539c0.193-2.484,0.62-4.844,1.247-7.008h23.925c0.653,2.287,1.07,4.635,1.247,7.006
	c-1.404,0.568-2.082,2.168-1.514,3.572s2.168,2.082,3.572,1.514c1.036-0.42,1.715-1.427,1.714-2.545c0-1.24-0.83-2.277-1.96-2.617
	c-0.178-2.342-0.58-4.663-1.2-6.93h7.925v40.303H64.91z"/>
</svg>
