<?xml version="1.0" encoding="utf-8"?>
<!-- Generator: Adobe Illustrator 15.0.2, SVG Export Plug-In . SVG Version: 6.00 Build 0)  -->
<!DOCTYPE svg PUBLIC "-//W3C//DTD SVG 1.1//EN" "http://www.w3.org/Graphics/SVG/1.1/DTD/svg11.dtd">
<svg version="1.1" id="Layer_1" xmlns="http://www.w3.org/2000/svg" xmlns:xlink="http://www.w3.org/1999/xlink" x="0px" y="0px"
	 width="53.665px" height="45.781px" viewBox="16.334 20.275 53.665 45.781" enable-background="new 16.334 20.275 53.665 45.781"
	 xml:space="preserve">
<g>
	<path d="M43.155,34.573c2.103,0.006,3.934-1.436,4.42-3.482c0.088-0.356,0.132-0.717,0.132-1.065c0-2.51-2.04-4.553-4.552-4.553
		c-2.514,0.003-4.55,2.041-4.552,4.554c0,0.352,0.044,0.71,0.13,1.066c0.486,2.047,2.317,3.49,4.422,3.482V34.573z M43.155,27.223
		c1.543,0,2.8,1.257,2.8,2.8c0,0.21-0.028,0.433-0.083,0.656c-0.3,1.257-1.425,2.143-2.717,2.14
		c-1.294,0.002-2.419-0.886-2.717-2.145c-0.053-0.215-0.08-0.434-0.08-0.654C40.36,28.476,41.611,27.225,43.155,27.223z"/>
	<path d="M64.976,57.185c-0.215-0.099-0.73-0.332-0.975-0.479l0.057-16.408h3.328c0.72,0,1.289-0.479,1.52-1.279
		c0.37-1.275-0.078-3.383-1.187-4.083L45.48,20.888c-0.63-0.396-1.448-0.613-2.33-0.613c-0.86,0-1.68,0.217-2.308,0.613
		L18.61,34.933c-1.108,0.7-1.557,2.805-1.188,4.08c0.23,0.803,0.801,1.282,1.521,1.282h3.33l0.055,16.408
		c-0.243,0.148-0.758,0.383-0.974,0.48c-1.755,0.797-5.021,2.279-5.021,6.332c0,1.4,1.368,2.54,3.053,2.54h47.56
		c1.684,0,3.053-1.14,3.053-2.54c-0.003-4.051-3.27-5.535-5.024-6.33L64.976,57.185z M24.082,56.915L24.02,38.542h-4.908
		l-0.005-0.016c-0.21-0.723,0.183-1.947,0.439-2.109L41.784,22.37c0.34-0.215,0.854-0.344,1.37-0.344h0.021
		c0.521,0,1.03,0.13,1.37,0.344l22.237,14.046c0.258,0.162,0.65,1.388,0.44,2.11l-0.007,0.015H62.31L62.25,56.917
		c0,0.953,0.926,1.375,2.002,1.863c1.686,0.766,3.993,1.812,3.993,4.736c0,0.361-0.565,0.783-1.3,0.783H19.385
		c-0.732,0-1.3-0.422-1.3-0.783c0-2.924,2.309-3.973,3.997-4.738C23.156,58.292,24.082,57.87,24.082,56.915z"/>
	<path d="M52.835,57.942h3.33c1.34,0,2.431-1.09,2.431-2.43v-13.95c0-1.34-1.091-2.431-2.431-2.431h-3.33
		c-1.34,0-2.43,1.091-2.43,2.431v13.95C50.405,56.852,51.495,57.942,52.835,57.942z M56.84,55.512
		c0.002,0.375-0.301,0.679-0.676,0.68l0,0h-3.33c-0.374-0.002-0.676-0.307-0.676-0.68v-13.95c0-0.373,0.304-0.677,0.677-0.677h3.33
		c0.372,0,0.675,0.304,0.675,0.677V55.512z M44.5,39.131h-3.33c-1.34,0-2.43,1.091-2.43,2.431v13.95c0,1.34,1.09,2.43,2.43,2.43
		h3.33c1.34,0,2.431-1.09,2.431-2.43v-13.95C46.93,40.222,45.84,39.131,44.5,39.131z M40.495,41.562
		c0-0.373,0.304-0.677,0.677-0.677H44.5c0.373,0,0.676,0.304,0.676,0.677v13.95c0.002,0.375-0.301,0.679-0.676,0.68l0,0h-3.33
		c-0.374-0.002-0.676-0.307-0.676-0.68L40.495,41.562L40.495,41.562z M30.165,57.942h3.33c1.34,0,2.43-1.09,2.43-2.43v-13.95
		c0-1.34-1.09-2.431-2.43-2.431h-3.33c-1.34,0-2.43,1.091-2.43,2.431v13.95C27.735,56.852,28.825,57.942,30.165,57.942z
		 M34.171,55.512c0,0.373-0.301,0.678-0.675,0.68h-3.33c-0.374-0.002-0.676-0.306-0.675-0.68v-13.95
		c0-0.373,0.302-0.677,0.675-0.677h3.33c0.372,0,0.676,0.304,0.676,0.677L34.171,55.512L34.171,55.512z"/>
</g>
</svg>
