<?xml version="1.0" encoding="utf-8"?>
<!-- Generator: Adobe Illustrator 15.0.2, SVG Export Plug-In . SVG Version: 6.00 Build 0)  -->
<!DOCTYPE svg PUBLIC "-//W3C//DTD SVG 1.1//EN" "http://www.w3.org/Graphics/SVG/1.1/DTD/svg11.dtd">
<svg version="1.1" id="Layer_1" xmlns="http://www.w3.org/2000/svg" xmlns:xlink="http://www.w3.org/1999/xlink" x="0px" y="0px"
	 width="52.921px" height="52.907px" viewBox="16.705 16.717 52.921 52.907" enable-background="new 16.705 16.717 52.921 52.907"
	 xml:space="preserve">
<path d="M19.41,36.522l30.4,30.398c1.422,1.42,3.154,2.353,4.89,2.623c1.7,0.27,3.188-0.137,4.188-1.141L69.485,57.81
	c0.117-0.115,0.164-0.3,0.13-0.513c-0.048-0.264-0.177-0.506-0.37-0.692c-0.393-0.39-0.945-0.5-1.207-0.239l-6.52,6.521
	l-2.146-2.146l6.521-6.52c0.263-0.26,0.149-0.811-0.24-1.203c-0.394-0.395-0.944-0.502-1.206-0.24l-6.521,6.52l-2.146-2.146
	l6.52-6.521c0.261-0.26,0.15-0.812-0.239-1.202c-0.24-0.24-0.551-0.386-0.82-0.386c-0.144-0.004-0.282,0.048-0.387,0.146
	l-6.521,6.521l-2.146-2.146l6.52-6.521c0.264-0.262,0.15-0.812-0.24-1.203c-0.184-0.195-0.426-0.327-0.689-0.375
	c-0.214-0.03-0.396,0.016-0.513,0.134l-6.521,6.521l-2.146-2.146l0.159-0.228l6.328-6.326c0.097-0.104,0.148-0.242,0.144-0.383
	c0-0.274-0.144-0.58-0.384-0.82c-0.393-0.393-0.944-0.502-1.204-0.242l-6.521,6.52l-2.17-2.164l6.515-6.514
	c0.097-0.104,0.148-0.242,0.144-0.385c0-0.547-0.658-1.202-1.206-1.203c-0.142-0.004-0.279,0.048-0.383,0.145l-6.515,6.512
	l-2.146-2.146l6.515-6.512c0.117-0.118,0.162-0.301,0.13-0.512c-0.076-0.527-0.689-1.077-1.189-1.077
	c-0.142-0.005-0.28,0.046-0.384,0.142l-6.516,6.514l-2.145-2.146l6.51-6.513c0.263-0.262,0.152-0.812-0.237-1.205
	c-0.24-0.24-0.55-0.385-0.822-0.385c-0.141-0.004-0.278,0.047-0.383,0.144L36.325,37.7l-2.096-2.096l6.52-6.52
	c0.263-0.26,0.15-0.813-0.24-1.206c-0.239-0.24-0.547-0.383-0.819-0.383c-0.143-0.006-0.281,0.046-0.385,0.143l-6.521,6.521
	l-2.147-2.146l6.521-6.52c0.26-0.262,0.15-0.814-0.243-1.206c-0.39-0.393-0.942-0.503-1.203-0.242l-6.521,6.52l-2.146-2.145
	l6.521-6.52c0.097-0.105,0.147-0.244,0.143-0.386c0-0.274-0.144-0.58-0.382-0.82c-0.394-0.392-0.946-0.502-1.207-0.24l-6.52,6.52
	l-2.147-2.147l6.521-6.52c0.096-0.104,0.147-0.243,0.143-0.385c0-0.274-0.143-0.582-0.383-0.82
	c-0.395-0.394-0.944-0.505-1.205-0.243l-6.502,6.503l-0.003-0.004l-4.093,4.093C15.831,29.538,16.497,33.611,19.41,36.522
	L19.41,36.522z M22.246,26.23l37.856,37.854l-2.771,2.77c-1.423,1.423-4.456,0.52-6.214-1.24l-30.4-30.4
	c-1.76-1.76-2.661-4.793-1.239-6.216L22.246,26.23z"/>
</svg>
