<?xml version="1.0" encoding="utf-8"?>
<!-- Generator: Adobe Illustrator 15.0.2, SVG Export Plug-In . SVG Version: 6.00 Build 0)  -->
<!DOCTYPE svg PUBLIC "-//W3C//DTD SVG 1.1//EN" "http://www.w3.org/Graphics/SVG/1.1/DTD/svg11.dtd">
<svg version="1.1" id="Layer_1" xmlns="http://www.w3.org/2000/svg" xmlns:xlink="http://www.w3.org/1999/xlink" x="0px" y="0px"
	 width="55.578px" height="44.201px" viewBox="15.376 21.064 55.578 44.201" enable-background="new 15.376 21.064 55.578 44.201"
	 xml:space="preserve">
<path d="M22.087,50.274h42.156V49.37c0-10.361-7.404-19.104-17.606-20.793c-0.286-0.047-0.495-0.295-0.494-0.584v-1.527h0.328
	c1.325-0.001,2.4-1.076,2.401-2.402v-0.596c0-1.326-1.075-2.402-2.401-2.403h-6.607c-1.326,0.001-2.4,1.076-2.402,2.402v0.595
	c-0.001,1.23,0.927,2.262,2.15,2.39l0.065,0.007v1.63c0.001,0.284-0.201,0.527-0.479,0.58c-9.914,1.895-17.108,10.6-17.108,20.7
	v0.904L22.087,50.274z M62.413,48.463H23.918l0.004-0.08c0.431-8.867,6.887-16.283,15.61-17.932
	c1.132-0.217,1.952-1.205,1.953-2.358V26.04c0.003-0.063,0.016-0.125,0.037-0.185l0.237-1.2h-1.897
	c-0.326-0.001-0.591-0.264-0.592-0.59v-0.597c0-0.326,0.266-0.592,0.592-0.592h6.606c0.324,0,0.591,0.266,0.591,0.592v0.596
	c-0.001,0.327-0.266,0.591-0.593,0.592h-2.43l0.253,1.203c0.021,0.058,0.034,0.119,0.038,0.18v1.953c0,1.18,0.844,2.176,2.01,2.37
	c9.011,1.493,15.615,8.903,16.068,18.02l0.005,0.08L62.413,48.463z M15.376,65.264h55.578v-5.354
	c-0.004-3.812-3.093-6.9-6.904-6.904H22.28c-3.811,0.004-6.899,3.093-6.904,6.904V65.264L15.376,65.264z M17.161,59.909
	c0.004-2.827,2.294-5.117,5.12-5.121h41.77c2.827,0.004,5.117,2.294,5.12,5.121v3.569H17.16L17.161,59.909L17.161,59.909z"/>
</svg>
