<?xml version="1.0" encoding="utf-8"?>
<!-- Generator: Adobe Illustrator 15.0.2, SVG Export Plug-In . SVG Version: 6.00 Build 0)  -->
<!DOCTYPE svg PUBLIC "-//W3C//DTD SVG 1.1//EN" "http://www.w3.org/Graphics/SVG/1.1/DTD/svg11.dtd">
<svg version="1.1" id="entertainment" xmlns="http://www.w3.org/2000/svg" xmlns:xlink="http://www.w3.org/1999/xlink" x="0px"
	 y="0px" width="85.749px" height="66.731px" viewBox="0.29 9.8 85.749 66.731" enable-background="new 0.29 9.8 85.749 66.731"
	 xml:space="preserve">
<g>
	<path d="M45.858,37.346l-6.042-5.854l-2.035,8.217l-7.482,3.966l7.187,4.476l0.008,0.051l1.453,8.297l6.48-5.455l0.047,0.01
		l8.342,1.183l-3.193-7.853l3.729-7.604l-8.447,0.604l-0.044-0.034L45.858,37.346z M47.728,44.283l1.898,4.68l-5.006-0.712
		l-3.863,3.256l-0.033-0.187l-0.837-4.787l-4.29-2.673l4.466-2.365l1.213-4.91l0.137,0.13l3.494,3.39l5.038-0.359l-2.218,4.54
		V44.283z"/>
	<path d="M77.73,26.75L72.871,9.8L0.29,30.615l4.86,16.947l1.272-0.362c1.595-0.462,3.308-0.268,4.758,0.54
		c3.015,1.676,4.105,5.477,2.438,8.496c-0.801,1.456-2.152,2.529-3.75,2.98l-1.27,0.365l4.86,16.95l72.581-20.811l-4.86-16.954
		l-1.276,0.364c-1.594,0.462-3.307,0.268-4.756-0.54c-1.452-0.801-2.523-2.15-2.975-3.746c-0.463-1.593-0.269-3.305,0.539-4.754
		c0.805-1.452,2.154-2.523,3.75-2.977l1.271-0.366L77.73,26.75z M74.48,25.031l-0.085,0.039c-1.699,0.788-3.103,2.099-4.004,3.74
		c-2.375,4.292-0.82,9.724,3.467,12.104c1.64,0.902,3.521,1.271,5.38,1.054l0.098-0.01l3.424,11.939l-67.48,19.354l-3.425-11.946
		l0.083-0.038c1.699-0.79,3.101-2.101,4.004-3.742c1.148-2.063,1.423-4.501,0.764-6.77c-0.645-2.272-2.17-4.192-4.238-5.334
		c-1.635-0.914-3.518-1.283-5.377-1.056L7,44.375L3.57,32.43l67.486-19.35L74.48,25.031L74.48,25.031z"/>
</g>
</svg>
