<?xml version="1.0" encoding="utf-8"?>
<!-- Generator: Adobe Illustrator 15.0.2, SVG Export Plug-In . SVG Version: 6.00 Build 0)  -->
<!DOCTYPE svg PUBLIC "-//W3C//DTD SVG 1.1//EN" "http://www.w3.org/Graphics/SVG/1.1/DTD/svg11.dtd">
<svg version="1.1" id="Layer_1" xmlns="http://www.w3.org/2000/svg" xmlns:xlink="http://www.w3.org/1999/xlink" x="0px" y="0px"
	 width="50.447px" height="50.365px" viewBox="17.942 17.982 50.447 50.365" enable-background="new 17.942 17.982 50.447 50.365"
	 xml:space="preserve">
<path d="M38.307,58.628c-2.684,0.003-4.857,2.178-4.86,4.859c0.003,2.684,2.178,4.856,4.86,4.859c2.68,0,4.857-2.181,4.857-4.861
	C43.162,60.804,40.989,58.631,38.307,58.628z M38.307,66.625c-1.731-0.001-3.136-1.403-3.139-3.135c0-1.73,1.406-3.14,3.139-3.14
	c1.731,0.001,3.136,1.405,3.137,3.137c-0.003,1.732-1.406,3.134-3.137,3.136V66.625z M52.685,58.628
	c-2.683,0.004-4.856,2.178-4.858,4.859c0.003,2.682,2.177,4.855,4.858,4.859c2.68,0,4.857-2.181,4.857-4.861
	C57.54,60.804,55.367,58.631,52.685,58.628z M52.685,66.625c-1.732-0.001-3.137-1.403-3.141-3.135c0-1.73,1.408-3.14,3.141-3.14
	c1.731,0.001,3.136,1.405,3.137,3.137c-0.005,1.73-1.406,3.133-3.137,3.136V66.625z M68.245,29.013
	c-0.159-0.242-0.43-0.387-0.72-0.387H28.31c-0.694-3.204-1.236-5.644-1.414-6.28c-0.658-2.364-2.893-2.99-3.98-2.99h-0.474
	c-0.385-0.835-1.219-1.372-2.138-1.374c-1.304,0-2.361,1.056-2.362,2.36c0,1.3,1.06,2.362,2.362,2.362
	c1.04,0,1.918-0.686,2.229-1.625h0.38c0.022,0,1.854,0.023,2.32,1.73c0.35,1.254,2.32,10.424,5.863,27.252l0.359,1.72
	c0.996,2.974,2.522,3.19,4.913,3.19h22.256c0.476,0,0.857-0.393,0.857-0.867c-0.001-0.473-0.385-0.855-0.857-0.854H36.373
	c-2.175,0-2.649-0.155-3.252-1.915l-0.543-2.604H57.28c1.835-0.039,2.787-0.629,3.78-2.347l7.253-16.557
	c0.122-0.266,0.097-0.576-0.067-0.818L68.245,29.013L68.245,29.013z M59.525,45.606c-0.688,1.177-1.146,1.373-2.274,1.399H32.23
	l-3.436-16.659h37.41L59.525,45.606z"/>
</svg>
