<?xml version="1.0" encoding="utf-8"?>
<!-- Generator: Adobe Illustrator 15.0.2, SVG Export Plug-In . SVG Version: 6.00 Build 0)  -->
<!DOCTYPE svg PUBLIC "-//W3C//DTD SVG 1.1//EN" "http://www.w3.org/Graphics/SVG/1.1/DTD/svg11.dtd">
<svg version="1.1" id="Layer_1" xmlns="http://www.w3.org/2000/svg" xmlns:xlink="http://www.w3.org/1999/xlink" x="0px" y="0px"
	 width="85.332px" height="46.75px" viewBox="0.5 19.789 85.332 46.75" enable-background="new 0.5 19.789 85.332 46.75"
	 xml:space="preserve">
<path d="M69.57,34.015c-2.5,0-4.898,0.558-7.134,1.651l-0.396,0.192l-4.756-7.83v-7.19c0-0.58-0.473-1.05-1.053-1.05h-10.18
	c-0.58,0-1.053,0.47-1.053,1.05s0.47,1.054,1.049,1.054h9.131v6.275L42.985,48.25L31.448,29.26l-2.527-4.744h4.928
	c0.58,0,1.053-0.472,1.053-1.05c0-0.58-0.47-1.054-1.052-1.054H23.4c-0.581,0.025-1.031,0.517-1.006,1.098
	c0.023,0.545,0.46,0.982,1.006,1.006h3.12l2.018,3.758l-4.525,7.45l-0.392-0.185c-2.146-1.008-4.486-1.527-6.856-1.523
	C7.796,34.015,0.5,41.312,0.5,50.277c0,8.968,7.296,16.263,16.263,16.263c8.324,0,15.437-6.488,16.19-14.77l0.042-0.439h9.995
	c0.096-0.006,0.181-0.018,0.275-0.041c0.162-0.051,0.312-0.137,0.438-0.252c0.071-0.062,0.133-0.135,0.184-0.215l12.39-20.4
	l3.97,6.533l-0.354,0.26c-4.123,3.066-6.586,7.951-6.586,13.063c0,8.966,7.297,16.261,16.264,16.261
	c8.969,0,16.262-7.295,16.262-16.263S78.537,34.013,69.57,34.013V34.015z M69.57,64.437c-7.811,0-14.16-6.353-14.16-14.158
	c0-4.396,2.008-8.47,5.508-11.185l0.426-0.329l7.326,12.058c0.18,0.297,0.545,0.49,0.936,0.49c0.18,0.002,0.355-0.045,0.51-0.137
	c0.494-0.304,0.652-0.949,0.354-1.447L63.14,37.67l0.488-0.228c1.858-0.872,3.887-1.324,5.939-1.323
	c7.807,0,14.155,6.35,14.155,14.156s-6.351,14.16-14.156,14.16L69.57,64.437z M16.763,64.437c-7.808,0-14.16-6.353-14.16-14.158
	c0-7.807,6.353-14.159,14.16-14.159c1.95,0,3.852,0.399,5.65,1.186l0.504,0.22L15.5,49.735c-0.3,0.498-0.14,1.145,0.357,1.445
	c0.164,0.1,0.352,0.151,0.542,0.152h14.485l-0.06,0.535C30.025,59.028,23.968,64.442,16.763,64.437z M29.693,30.424l11.422,18.804
	h-8.12l-0.04-0.438c-0.43-4.699-2.893-8.979-6.76-11.746l-0.365-0.258L29.693,30.424L29.693,30.424z M25.158,38.904
	c3.166,2.343,5.23,5.908,5.667,9.787l0.06,0.54H18.27l6.463-10.641l0.425,0.316V38.904z"/>
</svg>
