<?xml version="1.0" encoding="utf-8"?>
<!-- Generator: Adobe Illustrator 15.0.2, SVG Export Plug-In . SVG Version: 6.00 Build 0)  -->
<!DOCTYPE svg PUBLIC "-//W3C//DTD SVG 1.1//EN" "http://www.w3.org/Graphics/SVG/1.1/DTD/svg11.dtd">
<svg version="1.1" id="Layer_1" xmlns="http://www.w3.org/2000/svg" xmlns:xlink="http://www.w3.org/1999/xlink" x="0px" y="0px"
	 width="26.097px" height="57.201px" viewBox="30.115 14.562 26.097 57.201" enable-background="new 30.115 14.562 26.097 57.201"
	 xml:space="preserve">
<g>
	<path d="M55.43,42.325l-0.256-24.959c-0.007-0.75-0.312-1.466-0.85-1.99c-0.536-0.526-1.259-0.817-2.01-0.81h-0.002
		c-1.62,0.017-3.535,1.2-3.69,2.88L47.03,39.36c-0.065,0.898,0.25,1.79,0.867,2.448c0.529,0.562,1.248,0.917,2.017,1l-0.51,26.493
		c-0.014,0.547,0.198,1.076,0.586,1.464c0.377,0.375,0.877,0.582,1.407,0.582l2.875-0.074c0.529-0.016,1.031-0.239,1.396-0.622
		c0.36-0.383,0.561-0.902,0.542-1.43l-0.784-26.893L55.43,42.325z M51.68,41.163l-1.24-0.064l-0.187-0.008
		c-0.409,0-0.81-0.17-1.09-0.469c-0.286-0.306-0.433-0.717-0.402-1.134l1.594-21.895c0.062-0.617,1.08-1.28,1.992-1.29
		c0.601-0.002,1.09,0.483,1.094,1.084l0.24,23.658h-0.024l0.824,28.229c0.004,0.142-0.106,0.259-0.247,0.263
		c-0.002,0-0.003,0-0.005,0l-2.83,0.076c-0.068-0.001-0.133-0.027-0.183-0.074c-0.05-0.053-0.077-0.124-0.073-0.197l0.54-28.176
		L51.68,41.163z M40.806,26.575c0,1.56-0.355,3.13-1.043,4.568l-1.706,4.438c-0.267,0.566-0.392,1.188-0.366,1.813l1.25,30.414
		c0.022,0.581-0.191,1.146-0.593,1.565c-0.404,0.418-0.961,0.655-1.542,0.656h-0.952c-0.581,0-1.138-0.238-1.54-0.656
		c-0.402-0.42-0.617-0.985-0.595-1.566L34.965,37.4c0.026-0.618-0.097-1.235-0.359-1.796l-1.684-4.34l-0.02-0.051
		c-0.689-1.428-1.048-2.993-1.05-4.58v-12.07h-1.737v12.07c0,1.83,0.42,3.67,1.2,5.289l1.677,4.322l0.028,0.063
		c0.151,0.315,0.226,0.67,0.21,1.021L31.985,67.73c-0.042,1.054,0.346,2.08,1.074,2.843c0.731,0.759,1.739,1.188,2.793,1.19h0.952
		c1.05,0,2.067-0.435,2.794-1.19c0.728-0.762,1.115-1.787,1.073-2.84l-1.25-30.413c-0.012-0.36,0.064-0.718,0.224-1.042l1.704-4.436
		c0.782-1.646,1.189-3.447,1.192-5.27v-12.01h-1.735V26.575z"/>
	<path d="M33.694,14.565h1.736v13.6h-1.736V14.565z M37.44,14.565h1.734v13.6H37.44V14.565z"/>
</g>
</svg>
